<svg xmlns="http://www.w3.org/2000/svg" xmlns:xlink="http://www.w3.org/1999/xlink" viewBox="0 0 91.16 91.9"><defs><style>.cls-1{fill:none;}.cls-2{clip-path:url(#clip-path);}.cls-3{fill:#008375;}.cls-4{fill:#870f54;}.cls-5{fill:#ffc557;}.cls-6{fill:#45c2b1;}</style><clipPath id="clip-path" transform="translate(0 0)"><rect class="cls-1" width="91.16" height="91.89"/></clipPath></defs><g id="Layer_2" data-name="Layer 2"><g id="Layer_1-2" data-name="Layer 1"><g id="education-icon"><g class="cls-2"><path class="cls-3" d="M6.82,49.83a.72.72,0,0,1,.32-.51,1,1,0,0,1,.56-.26c.63,0,1.27,0,1.9,0,.21,0,.22,0,.59-.17a1.22,1.22,0,0,1,.59-.17h.42a2.86,2.86,0,0,0,.42,0,1.92,1.92,0,0,0,.39-.17.93.93,0,0,1,.4-.09l5.27.12a1.31,1.31,0,0,0,.6-.16,1.57,1.57,0,0,1,.61-.11l1.05,0,4,.1a1.14,1.14,0,0,0,.61-.13,1.6,1.6,0,0,1,.61-.14l5.47.16a2,2,0,0,0,.81-.2.73.73,0,0,1,.19-.07l.21,0c.78,0,1.55,0,2.32,0,1.4,0,2.8.12,4.21.14a.81.81,0,0,0,.4-.09L39,48a.82.82,0,0,1,.8,0,1.34,1.34,0,0,0,.59.2l.84,0a1.44,1.44,0,0,0,.61-.12,1.3,1.3,0,0,1,.81-.18,9,9,0,0,1,1.47.07.51.51,0,0,1,.28.28c.07.2.15.4.23.59a1.28,1.28,0,0,1,.11.61l-.12,4.63a1.44,1.44,0,0,0,.15.61,1.4,1.4,0,0,1,.15.6c0,.14,0,.29,0,.43,0,1,0,2-.07,2.94a1.28,1.28,0,0,0,.12.61,1.16,1.16,0,0,1,.16.61c0,.42,0,.84,0,1.26-.08,2.94-.21,5.89-.33,8.83,0,.43,0,.85,0,1.27a1.53,1.53,0,0,0,.16.81.79.79,0,0,1,.1.4c0,.42,0,.85,0,1.27-.07,1.75-.12,3.5-.14,5.26a1.27,1.27,0,0,0,.15.6,1.28,1.28,0,0,1,.12.61c0,1.47-.07,3-.1,4.42a1.8,1.8,0,0,0,.2,1,.89.89,0,0,1,.06.2c0,.64-.08,4.49-.15,5.47a.49.49,0,0,1,0,.21.53.53,0,0,1-.33.23,1.84,1.84,0,0,1-.41,0l-.85,0-3.78-.16c-1,0-2.11-.09-3.16-.18a1.3,1.3,0,0,1-.78-.26,1,1,0,0,0-.39-.14L33.22,91a1.86,1.86,0,0,1-.8-.24,1.1,1.1,0,0,0-.59-.2l-1.26-.11a1.6,1.6,0,0,1-.78-.28A.92.92,0,0,0,29.4,90c-.28,0-.56-.06-.84-.09a1.38,1.38,0,0,1-.78-.28.93.93,0,0,0-.38-.17,2.51,2.51,0,0,1-1-.35,1.5,1.5,0,0,0-.6-.18,1.14,1.14,0,0,1-.39-.14,1.81,1.81,0,0,0-.77-.31,1.09,1.09,0,0,1-.39-.15c-.34-.25-.76-.36-1.11-.6s-.64-.29-.92-.5a3,3,0,0,0-.39-.14,1.56,1.56,0,0,1-.59-.22c-.35-.23-.76-.36-1.09-.62s-.6-.36-.92-.5a1.94,1.94,0,0,1-.7-.46,3.63,3.63,0,0,0-.87-.57c-.24-.14-.46-.31-.72-.43s-.46-.31-.72-.42a1.55,1.55,0,0,1-.5-.38l-.6-.59a2,2,0,0,0-.52-.35,1.67,1.67,0,0,1-.35-.24,10.46,10.46,0,0,1-.75-.74l-2.15-2.31a1.18,1.18,0,0,0-.35-.23,1.71,1.71,0,0,1-.74-.72,2,2,0,0,0-.43-.71c-.19-.21-.37-.42-.55-.64A1.46,1.46,0,0,1,9,76.43c-.09-.34-.36-.61-.42-1a3,3,0,0,0-.34-.53A4.19,4.19,0,0,1,8,74.61a.4.4,0,0,1-.1-.18,2.53,2.53,0,0,0-.54-.89A.93.93,0,0,1,7.11,73l0-.21c-.06-.37-.06-.37-.45-.63a.67.67,0,0,1-.28-.3c-.08-.27-.25-.51-.34-.77s-.23-.51-.36-.76-.29-.63-.43-1a1,1,0,0,1,0-.81.67.67,0,0,1,.11-.18c.15-.25.15-.32,0-.54a1,1,0,0,0-.49-.38.61.61,0,0,1-.43-.64c0-.21,0-.42,0-.63a.67.67,0,0,0-.15-.38l-.39-.5c-.14-.17-.11-.33.11-.53a.78.78,0,0,1,.55-.26l0,0v.41a.41.41,0,0,0,.34.45,1.77,1.77,0,0,1,.52.33.54.54,0,0,0,.37.15.91.91,0,0,0,.41.67,1.08,1.08,0,0,0,.18.11.32.32,0,0,0,.17-.33c0-.25-.09-.35-.36-.41a1.93,1.93,0,0,0-.41,0,.68.68,0,0,1,.07-.2,1.84,1.84,0,0,1,.43-.45,1,1,0,0,0,.4-.92.47.47,0,0,0-.32-.48,1.38,1.38,0,0,1-.66-.48c-.11-.14-.13-.25,0-.37s.25-.66.5-.92a.23.23,0,0,0,0-.36A.93.93,0,0,1,5.91,61c0-.35,0-.7,0-1.05a1,1,0,0,0-.21-.57,1,1,0,0,1-.11-.81c.07-.26.25-.31.43-.13l.46.43a.91.91,0,0,0,.78.19.8.8,0,0,0,.2-.07,1.27,1.27,0,0,0,.33-.24c.2-.21.2-.33,0-.46-.38-.21-.37-.22-.42-.41a.42.42,0,0,1,.1-.39c.18-.25.17-.26.07-.56,0-.06,0-.12,0-.18a.68.68,0,0,1,.37-.2.47.47,0,0,0,.31-.25,1.86,1.86,0,0,1,.31-.55.67.67,0,0,0,.13-.58A.52.52,0,0,0,8.27,55,.29.29,0,0,1,8,54.69a.36.36,0,0,1,.37-.16,1.5,1.5,0,0,0,.42,0c.06,0,.11-.08.16-.13a.75.75,0,0,0-.09-.15,1,1,0,0,0-.18-.09c-.29-.15-.3-.15-.37-.46l0,0a.41.41,0,0,0,.35-.18.52.52,0,0,0,0-.57,1.27,1.27,0,0,1-.2-.36,1.13,1.13,0,0,1,.05-.79c.06-.13.15-.23.22-.35a.42.42,0,0,0-.18-.67A1.94,1.94,0,0,1,8,50.47l-.3-.29A.87.87,0,0,0,7,49.83l-.21,0ZM27.18,85.29A.29.29,0,0,0,27,85l-.13.1a.3.3,0,0,0,.32.2.31.31,0,0,0,.17.35l.13-.12a.28.28,0,0,0-.33-.2m3.87-1.1-.36,0a.57.57,0,0,0-.34.1.49.49,0,0,0-.16.31.43.43,0,0,0-.43.33,1.8,1.8,0,0,1-.29.53c-.22.34-.19.56.12.89l.16.13c.13.1.23.07.3-.1a13.74,13.74,0,0,0,.11-1.81h.37c.31,0,.41-.08.5-.39a.26.26,0,0,0,.3-.12c.06-.12,0-.19-.13-.15s-.16.15-.15.29m-1.68-.07a.88.88,0,0,0-.66.41.48.48,0,0,0-.1.17.28.28,0,0,0,.31.17c.25,0,.35-.11.39-.38l0-.4a.32.32,0,0,0,.34-.17l-.12-.12a.31.31,0,0,0-.19.32M8.22,65.49a.3.3,0,0,0-.16-.33l-.12.11a.28.28,0,0,0,.31.2.51.51,0,0,0,.12.38l.27.31a.22.22,0,0,0,.35,0,1.15,1.15,0,0,0,.39-.46.5.5,0,0,0-.34-.2,5.56,5.56,0,0,0-.82-.05M28,82h-.21a.54.54,0,0,0-.37.16,1,1,0,0,0,.22.35,1.09,1.09,0,0,0,.52.32.78.78,0,0,1,.35.21.26.26,0,0,0,.36.07l.17-.12a.77.77,0,0,0,.22-.34.73.73,0,0,0-.35-.21,1.91,1.91,0,0,1-.52-.33A.74.74,0,0,0,28,82m9.57,3a2.68,2.68,0,0,0-.4,0c-.05,0-.11.06-.15.11a.4.4,0,0,0-.08.37.32.32,0,0,0,.27.25,1.73,1.73,0,0,0,.6,0,.42.42,0,0,0,.24-.28A.29.29,0,0,0,38,85a.63.63,0,0,0-.37-.13m2.9,1c.33,0,.46,0,.6,0s.23-.11.24-.21-.1-.12-.16-.13a2.67,2.67,0,0,1-1-.32c-.14-.14-.24-.11-.32.07s0,.49.18.53l.41.09M7.68,72a.75.75,0,0,0,.09.15.78.78,0,0,0,.78,0A.81.81,0,0,0,8.67,72a1,1,0,0,0-.23-.34.36.36,0,0,0-.34-.16c-.16,0-.42.31-.42.44m33,15.82.15.14a.45.45,0,0,0,.38-.09.41.41,0,0,0,.13-.37c0-.06-.07-.11-.11-.16a.55.55,0,0,0-.35.15.53.53,0,0,0-.2.33M6.81,70.45a.35.35,0,0,0,.12.35l.18-.08a1.06,1.06,0,0,0,.29-.27,1.4,1.4,0,0,0,.1-.16.33.33,0,0,0-.32-.18c-.26,0-.35.07-.37.34M37.89,82.78a.36.36,0,0,0,.14.32.34.34,0,0,0,.2-.28.32.32,0,0,0-.15-.32.31.31,0,0,0-.19.28M7,68.55a.24.24,0,0,0-.16.31c0,.14.1.22.21.24a.24.24,0,0,0,.15-.32c0-.14-.08-.22-.2-.23M9.85,52.2a.76.76,0,0,0-.16.14.5.5,0,0,0,0,.21c.05.19.15.24.25.12a.33.33,0,0,0,.07-.18c0-.16,0-.26-.16-.29M33.36,80.82a.34.34,0,0,0,0,.2c.06.2.16.23.26.07a.53.53,0,0,0,0-.19c0-.17-.06-.25-.18-.24a.61.61,0,0,0-.12.16m-.19,4.77a.7.7,0,0,0-.2,0,.53.53,0,0,0-.15.11c0,.1,0,.16.19.21a.29.29,0,0,0,.34-.1.21.21,0,0,0-.18-.21m-2,0c-.17.06-.19.14,0,.25l.13-.11-.1-.14M25,85l-.13-.1,0,.16Zm9.93-.44c0,.17.12.18.22,0l-.1-.13-.12.1M23.14,84l.14.1,0-.15Zm7,3.67.13.09,0-.15Zm3.2-3.55.1-.12-.16,0Zm-.85,0,.13-.09c-.05-.16-.13-.17-.22,0l.09.12M11.11,52.43l.09-.14-.15,0ZM30.55,83.54l-.14-.1,0,.16Zm-3-.26c-.18,0-.19.13,0,.23l.13-.1-.09-.13M8.06,62.3l.13.11,0-.16Zm-.67.84L7.25,63l0,.15ZM24.05,82.38c.05.17.13.18.22,0l-.1-.13-.12.09m15.72.16c-.16,0-.17.13,0,.22l.12-.1-.09-.12m-.05-8.43c-.17,0-.18.12,0,.22l.12-.1-.09-.12m.56,3.49c0,.16.12.17.22,0l-.1-.12-.12.09m-7.15,1.91.09-.13-.14,0Zm4.51.5c.06.18.13.19.23,0a.64.64,0,0,0-.1-.13l-.13.09m1,0q-.24.07,0,.21l.13-.09-.1-.12m-35.39-18a.49.49,0,0,0-.26.29,1.26,1.26,0,0,0,0,.61.67.67,0,0,0,.11.18c.05,0,.12-.07.15-.13s.1-.37.34-.39c.19.16.12.37.13.58a.57.57,0,0,1-.11.38c0,.06-.07.13-.11.18s-.1.25.07.33a.37.37,0,0,0,.21,0A.35.35,0,0,0,4,63.71c.09-.33.07-.68.15-1,0-.17.16-.22.28-.17l.18.1.18,0a.27.27,0,0,0,.11-.36A.37.37,0,0,0,4.66,62a3.83,3.83,0,0,0-.89-.12l-.55,0m-1.36-3a.57.57,0,0,0,.18.36,3.47,3.47,0,0,1,.72.42.49.49,0,0,0,.39,0c.22-.07.2-.19-.06-.49-.09-.11-.19-.2-.27-.31a.77.77,0,0,1-.17-.38c0-.2,0-.41-.08-.61s-.17-.2-.31-.23a.24.24,0,0,0-.33.17,2.07,2.07,0,0,0-.08.62c0,.13,0,.26,0,.4m-.31-3.08a.72.72,0,0,0,.08.41c.12.25.22.5.34.75,0,0,.08.06.13.08l.14-.15a1.31,1.31,0,0,0-.07-.81,2.32,2.32,0,0,1-.26-1,.27.27,0,0,0-.19-.27.48.48,0,0,0-.13.16c0,.14,0,.28,0,.42s0,.27,0,.41m10.2,25.44a.54.54,0,0,0-.16-.37l-1-1.07a.48.48,0,0,0-.16-.12.88.88,0,0,0-.17,0,.33.33,0,0,0-.06.37.58.58,0,0,0,.11.18c.17.21.36.41.53.63a1.07,1.07,0,0,0,.92.37ZM4.47,64.45a.87.87,0,0,1,.51.3.47.47,0,0,0,.55.08c.14-.06.17-.19.15-.35a.38.38,0,0,0-.19-.32,1.29,1.29,0,0,0-.4-.07.56.56,0,0,0-.38.09.35.35,0,0,0-.21.32Zm1.64-12.2h.2c.28,0,.35-.1.32-.37a.32.32,0,0,0-.18-.31.5.5,0,0,0-.38,0,.26.26,0,0,0-.14.34.46.46,0,0,0,.18.32M2.73,60.92a.36.36,0,0,0,.2-.29.28.28,0,0,0-.14-.31.27.27,0,0,0-.19.27.4.4,0,0,0,.13.33M5,49.53l-.1-.13-.14.1q.09.26.24,0m.8,0-.16,0,.06.15Zm1,.3a.32.32,0,0,0-.35.17l.12.13a.29.29,0,0,0,.2-.33ZM1.94,51.9l-.15,0,.06.16Zm5.94.29-.11-.13-.13.1q.08.27.24,0m0,1.07a.32.32,0,0,0-.15-.34L7.63,53a.27.27,0,0,0,.31.19Zm.41.44c-.05-.31-.12-.39-.41-.44l0,0a.37.37,0,0,0,.11.31.43.43,0,0,0,.29.13Zm3.48,27.52a.3.3,0,0,0,.14.3l.11-.08a.37.37,0,0,0-.29-.19Z" transform="translate(0 0)"/><path class="cls-4" d="M45,11.89c0,3.29,0,6.59,0,9.89,0,.35,0,.7,0,1a1.62,1.62,0,0,1-.21.8.69.69,0,0,0-.11.4c0,2.1-.1,4.21-.09,6.31,0,.56,0,1.12,0,1.68,0,.92,0,1.83,0,2.74a1.54,1.54,0,0,1-.17.6,1,1,0,0,0-.14.39c0,1.2-.05,4.39,0,5.68a1.15,1.15,0,0,0,.18.59,2.34,2.34,0,0,1,.23.81.89.89,0,0,0,.15.38c.18.31.18.32,0,.54s-.28.31-.41.47-.16.39-.28.56a.33.33,0,0,1-.38.11,1.4,1.4,0,0,1-.38-.16,1.06,1.06,0,0,0-.6-.16h-.84l-1.05,0c-.7,0-1.4,0-2.1,0s-1.27,0-1.9,0-1.12,0-1.68,0h-.42a2,2,0,0,1-1.22-.23,1,1,0,0,0-.37.13,1.21,1.21,0,0,1-.62.09H30a1.4,1.4,0,0,1-.6-.18.69.69,0,0,0-.78,0,.32.32,0,0,1-.4,0,1.58,1.58,0,0,0-.8-.19l-3.16,0-1.26,0a1.52,1.52,0,0,1-.8-.21.8.8,0,0,0-.4-.11l-2.31,0-3.58,0c-3.37,0-6.73,0-10.1,0a1.69,1.69,0,0,0-.8.19,1.19,1.19,0,0,1-.61.14H1l-.21,0a.49.49,0,0,1-.33-.22c0-.14,0-.28,0-.42,0-.35,0-.7,0-1.05,0-1.19,0-2.38,0-3.58a1.22,1.22,0,0,0-.2-.58A1.22,1.22,0,0,1,0,37.6,1,1,0,0,1,.15,37a1.44,1.44,0,0,0,.21-.58c0-.21,0-.42,0-.63a1.14,1.14,0,0,1,.11-.4c.07-.12.13-.25.2-.38l.06-.62a1.33,1.33,0,0,1,.22-.8A1.37,1.37,0,0,0,1.22,33a1.94,1.94,0,0,1,.26-.79.78.78,0,0,0,.12-.4c0-.21,0-.42.06-.63a1.55,1.55,0,0,1,.21-.59A.87.87,0,0,0,2,30.21c0-.2.05-.41.07-.62a1.23,1.23,0,0,1,.17-.6,1.52,1.52,0,0,0,.21-.8,9.21,9.21,0,0,1,0-1.05,1.67,1.67,0,0,1,.25-.79A.8.8,0,0,0,2.89,26c0-.21,0-.42,0-.63a1.14,1.14,0,0,1,.34-.74c.39-.45.39-.38.47-.91A2,2,0,0,1,4,23.09a1.44,1.44,0,0,0,.19-.37A1.39,1.39,0,0,1,4.56,22l.15-.16L5,21.51a8.1,8.1,0,0,1,.47-.93,1.33,1.33,0,0,1,.2-.37l.26-.33a2.27,2.27,0,0,0,.42-.72c.09-.26.3-.47.39-.74s.29-.48.4-.74a2,2,0,0,1,.33-.53L8,16.52a2.7,2.7,0,0,0,.45-.7,1.15,1.15,0,0,1,.24-.35c.28-.31.57-.62.86-.92a2.68,2.68,0,0,0,.6-.85.67.67,0,0,1,.11-.18,8.52,8.52,0,0,1,1-1.06,2.09,2.09,0,0,1,.53-.34,1.29,1.29,0,0,0,.35-.22l1.54-1.44a2.72,2.72,0,0,1,.69-.47,1.16,1.16,0,0,0,.34-.24l.92-.86a2.24,2.24,0,0,1,.87-.59c.11-.08.23-.15.34-.24l.79-.69A1.32,1.32,0,0,1,18,7.14c.26-.1.48-.3.74-.4a2.81,2.81,0,0,0,.88-.56,1.31,1.31,0,0,1,.34-.24,7.4,7.4,0,0,0,.92-.5A1.8,1.8,0,0,0,21.58,5a2.64,2.64,0,0,1,.9-.53c.29-.19.64-.29.94-.47s.64-.28.93-.47a2,2,0,0,1,.79-.27.93.93,0,0,0,.39-.15c.35-.23.78-.31,1.13-.54a.93.93,0,0,1,.4-.12,1.4,1.4,0,0,0,.6-.18A1.85,1.85,0,0,1,28.45,2a.79.79,0,0,0,.4-.13c.34-.24.76-.34,1.13-.55a.46.46,0,0,1,.19-.08L31,1.22l1.05,0a1.93,1.93,0,0,0,.42-.05A2.53,2.53,0,0,0,32.85,1a1.32,1.32,0,0,1,.61-.16L35.14.73a1.39,1.39,0,0,0,.6-.17,1.22,1.22,0,0,1,.6-.16c2.45,0,4.91-.12,7.36,0,.35,0,.7,0,1,0A.59.59,0,0,1,45,.74a2.71,2.71,0,0,1,0,.41c0,.85,0,1.69,0,2.53l0,8.21ZM23.15,39.17c-.23-.05-.34,0-.38.3s0,.36.3.39.34,0,.38-.31-.05-.34-.3-.38m-5.49,1.56c.15,0,.22-.08.22-.19s-.08-.12-.13-.14a.32.32,0,0,0-.33.07s-.05.09-.07.13a.24.24,0,0,0,.31.13m-.14-3.52-.13-.09,0,.15Zm2.56,2.1L20,39.18c-.17.07-.18.15,0,.25l.13-.12m1.13.11.11-.09c-.05-.16-.13-.17-.21,0l.1.11m2.1-6.32.11-.1c-.05-.17-.12-.18-.21,0l.1.12M10.88,11.28c.41,0,.58,0,.76-.21L12.83,10A.48.48,0,0,0,13,9.6H12.8a1,1,0,0,0-.57.19A10.6,10.6,0,0,0,11,10.93a.53.53,0,0,0-.14.37Zm3.4-2.5h-.36a.65.65,0,0,0-.33.11.44.44,0,0,0-.16.3l0,0a1.19,1.19,0,0,0,.42,0,.51.51,0,0,0,.42-.4ZM7.5,15.49a.5.5,0,0,0,.39-.43,1.42,1.42,0,0,0,0-.41l0,0a.49.49,0,0,0-.41.49c0,.12,0,.23,0,.35Zm7.17-7.17A.34.34,0,0,0,15,8.15L14.88,8a.33.33,0,0,0-.18.32Zm-.43.43a.51.51,0,0,0,.43-.43l0,0a.47.47,0,0,0-.16,0,.41.41,0,0,0-.26.38ZM7.12,15.94a.34.34,0,0,0-.3.19l.1.1a.43.43,0,0,0,.16-.32Zm0,0a.44.44,0,0,0,.42-.42l0,0a.32.32,0,0,0-.3.12.41.41,0,0,0-.12.3Zm.84-1.26a.41.41,0,0,0,.3-.12.49.49,0,0,0,.12-.3l0,0a.45.45,0,0,0-.42.42Zm.88-.81a.37.37,0,0,0-.38.25.47.47,0,0,0,0,.17l0,0a.47.47,0,0,0,.42-.43Zm0,0a.33.33,0,0,0,.31-.2L9,13.51a.33.33,0,0,0-.15.33Zm.88-1.23a.32.32,0,0,0-.31.2l.12.1a.32.32,0,0,0,.16-.33Zm0,0c.29,0,.38-.11.42-.42l0,0c-.28,0-.36.13-.42.42Zm.87-.81a.49.49,0,0,0-.42.42l0,0a.38.38,0,0,0,.29-.13.36.36,0,0,0,.13-.29Zm.42-.43a.42.42,0,0,0-.38.27s0,.11,0,.16l0,0a.45.45,0,0,0,.31-.12.32.32,0,0,0,.12-.3ZM13,9.6a.43.43,0,0,0,.31-.12.34.34,0,0,0,.1-.31l0,0a.44.44,0,0,0-.31.11.34.34,0,0,0-.12.3Z" transform="translate(0 0)"/><path class="cls-5" d="M57.09,47.87h7.37l1.26,0a1.26,1.26,0,0,0,.59-.2.77.77,0,0,1,.79,0,1,1,0,0,0,.59.18,4.42,4.42,0,0,0,.63,0,1,1,0,0,0,.39-.13c.28-.14.29-.14.57,0a1.3,1.3,0,0,0,.61.14h2.52c.2,0,.2,0,.58-.21a.81.81,0,0,1,.8,0,1.2,1.2,0,0,0,.58.21c.21,0,.42,0,.63,0h4.63c1.83,0,3.65,0,5.48,0a7.85,7.85,0,0,0,.84,0,.89.89,0,0,1,.71.37c.16.17.13.33-.07.53a1.85,1.85,0,0,1-.72.41.36.36,0,0,0-.15.15.55.55,0,0,0,0,.4.62.62,0,0,0,.11.17.37.37,0,0,1,0,.54,5.06,5.06,0,0,0-.88.91.44.44,0,0,0-.06.39,1.11,1.11,0,0,0,.2.37.55.55,0,0,1,0,.58.38.38,0,0,1-.34.21c-.28.12-.31.18-.15.44a.59.59,0,0,1,0,.76.93.93,0,0,0-.19.37.45.45,0,0,0,.07.39,1.46,1.46,0,0,0,.64.54.43.43,0,0,1,.35.19,1,1,0,0,1-.14.38c-.14.27-.14.34,0,.58a1.2,1.2,0,0,1,.26.77,3,3,0,0,0,0,.42,1.33,1.33,0,0,0,.19.59,1.07,1.07,0,0,1,.23.79,3,3,0,0,1,0,.42.9.9,0,0,0,.25.56,5.57,5.57,0,0,0,.59.6,8.29,8.29,0,0,0,.92.86c.14.08.25,0,.29-.15a5.13,5.13,0,0,1,.41-1.17,1.17,1.17,0,0,0,0-.2c0-.14,0-.28.06-.42s.11-.26.23-.25a.54.54,0,0,1,.18.1.93.93,0,0,1,.26.33,5.75,5.75,0,0,0,.38.74.88.88,0,0,1,.15.59c0,.42,0,.84,0,1.27a1,1,0,0,1-.18.59c-.15.24-.2.52-.35.76a1.54,1.54,0,0,0-.26.78c0,.14,0,.28,0,.42a1.34,1.34,0,0,1-.2.59,1.38,1.38,0,0,0-.2.59,1.6,1.6,0,0,1-.18.6c-.22.35-.31.78-.56,1.12a.92.92,0,0,0-.11.4,1.19,1.19,0,0,1-.32.76c-.09.1-.18.22-.27.33a1.15,1.15,0,0,0-.2.36,6.45,6.45,0,0,1-.38.74,3.79,3.79,0,0,1-.26.58,2.93,2.93,0,0,0-.28.56c-.08.19-.23.35-.31.54a3,3,0,0,1-.27.57c-.17.23-.21.52-.36.76a5.86,5.86,0,0,0-.3.55c-.11.26-.27.49-.38.75a1.48,1.48,0,0,1-.2.37l-.71.77a2,2,0,0,0-.43.72,2.62,2.62,0,0,1-.24.34q-.6.59-1.17,1.2c-.63.67-1.3,1.29-2,1.92a1,1,0,0,1-.36.2,1.31,1.31,0,0,0-.52.34l-2.7,2.66a1.41,1.41,0,0,1-.52.35,1,1,0,0,0-.37.2c-.15.14-.32.27-.47.42-.44.44-.9.88-1.38,1.29a.42.42,0,0,1-.18.11,2.45,2.45,0,0,0-.71.43,2.21,2.21,0,0,1-.88.56,4.29,4.29,0,0,1-.92.49,2.52,2.52,0,0,1-.76.36c-.34.26-.76.36-1.11.59a1.91,1.91,0,0,1-.8.24.92.92,0,0,0-.39.14,1.35,1.35,0,0,1-.59.21,1.76,1.76,0,0,0-.79.26,1.25,1.25,0,0,1-.6.16l-.84.06a1.22,1.22,0,0,0-.59.17,1.12,1.12,0,0,1-.58.22,3,3,0,0,0-.42,0,1.93,1.93,0,0,0-.42.05,1.62,1.62,0,0,0-.37.19A.74.74,0,0,1,62,90l-1,0a1.12,1.12,0,0,0-.59.19,1.32,1.32,0,0,1-.58.22,1.44,1.44,0,0,0-.79.27,1.07,1.07,0,0,1-.39.14,1.81,1.81,0,0,0-.79.23,1.16,1.16,0,0,1-.61.16l-4.63.08a1.27,1.27,0,0,0-.6.15,1.23,1.23,0,0,1-.6.17c-.35,0-.7,0-1.05,0a1,1,0,0,1-.4-.12,1.93,1.93,0,0,0-.56-.27l-.2-.08c-.12-.07-.24-.14-.37-.2a2.39,2.39,0,0,1-.37.15c-.12,0-.21-.06-.24-.23s0-.42-.06-.63c0-.42,0-.84,0-1.26a1.48,1.48,0,0,0-.15-.61,1.42,1.42,0,0,1-.19-.81c0-.21,0-.42,0-.63a1.32,1.32,0,0,1,.19-.8,1.15,1.15,0,0,0,.12-.4c0-.63,0-1.26,0-1.89a1.4,1.4,0,0,0-.18-.6.81.81,0,0,1,0-.8,1.4,1.4,0,0,0,.18-.59l0-4.21c0-1.06,0-2.11,0-3.16,0-.84,0-1.68,0-2.53,0-.63,0-1.26,0-1.89a1.84,1.84,0,0,1,.06-.41,1.69,1.69,0,0,1,.19-.38.7.7,0,0,0,.13-.39c0-.28,0-.56,0-.84,0-2,0-3.93,0-5.89,0-.42,0-.85,0-1.27,0-.63,0-1.26,0-1.89,0-1,0-2,0-3a1,1,0,0,0-.18-.59,1,1,0,0,1-.19-.59c0-.42,0-.84,0-1.26,0-1.4,0-2.81,0-4.21a1.29,1.29,0,0,1,.17-.6c.15-.24.14-.24,0-.55-.1-.14-.06-.25.14-.27l.84,0,4.21,0c1.2,0,2.39-.06,3.58,0m-6,20.23a.3.3,0,0,0,.19.33l.12-.13a.32.32,0,0,0-.33-.18v-.45a4.11,4.11,0,0,0,.86,0,.28.28,0,0,0,.14.29.15.15,0,0,0,.13,0,.3.3,0,0,0,.13-.3.49.49,0,0,1,.41.4,2.71,2.71,0,0,1,0,.41c0,.27.12.36.37.41h.21a3.81,3.81,0,0,1,.71-.4c.26-.07.29-.25.12-.43a1.12,1.12,0,0,0-.51-.35,1,1,0,0,1-.37-.17L52.69,67a1.23,1.23,0,0,0-1-.11,1.3,1.3,0,0,0-.45.42.5.5,0,0,0-.15.37.3.3,0,0,0-.3.13.17.17,0,0,0,0,.14.28.28,0,0,0,.29.13m3.32-1.61a.4.4,0,0,0-.31.19,1.34,1.34,0,0,0,0,.2c0,.27.11.34.38.32s.35-.11.31-.38-.13-.36-.38-.33m3.85.41a.27.27,0,0,0-.32.15s0,.12.08.17a.87.87,0,0,0,.27.27,1,1,0,0,1,.17.1.35.35,0,0,0,.15-.33c0-.26-.09-.35-.35-.36m-2.7.52c-.21,0-.33.13-.46.26s-.12.24,0,.32a.44.44,0,0,0,.16.06c.3,0,.46-.19.42-.49,0,0-.06-.1-.09-.15m29.49-10c0-.08-.08-.28-.27-.45s-.23-.12-.3,0a.35.35,0,0,0-.06.17.38.38,0,0,0,.48.41c.06,0,.1-.06.15-.1m-.92-7.27c0,.05-.12.08-.15.14a.5.5,0,0,0,0,.21c.06.17.15.22.25.13a.3.3,0,0,0,.08-.18.24.24,0,0,0-.18-.3M52.62,64.09s-.08-.12-.14-.14a.3.3,0,0,0-.21,0c-.17,0-.22.14-.12.25a.33.33,0,0,0,.17.07.24.24,0,0,0,.3-.18m.2-1.83c0,.14.09.23.2.2a.22.22,0,0,0,.13-.12.37.37,0,0,0-.08-.34S53,62,53,61.94a.25.25,0,0,0-.13.32m2.23,6.43-.14.13a.44.44,0,0,0,.09.34c.09.11.19.08.25-.08a.36.36,0,0,0-.07-.35s-.08,0-.13,0m4.06-4.33a.39.39,0,0,0-.32.16.35.35,0,0,0,.3.18.2.2,0,1,0,0-.34m1.57,1.45-.14-.09,0,.16Zm-3.49-.74.08-.15-.15,0Zm-1.56,5.79c-.06-.19-.14-.19-.24,0a1.34,1.34,0,0,1,.11.14l.13-.12m-.94-11.5-.09.15h.15Zm-.43,4.2-.12.1c.06.17.14.18.23,0l-.11-.13m-.41-10.51c-.17.06-.18.13,0,.22l.12-.1-.1-.12M74.36,79.68l.14.09,0-.14Zm9.49-28.19c-.06-.17-.14-.18-.23,0l.11.12.12-.1m3.58,11.34.13.1,0-.16ZM89,55.27c0-.14,0-.28,0-.41v-.21a.44.44,0,0,0-.19-.34.43.43,0,0,0-.19.35c0,.68,0,1.37-.07,2.06a.86.86,0,0,1-.13.38c-.13.21-.12.33.07.54a1.11,1.11,0,0,0,.32.25.47.47,0,0,0,.17-.35,8.23,8.23,0,0,0,0-1.49c0-.23,0-.5,0-.78m1.89-3.94a.68.68,0,0,0-.38,0,.42.42,0,0,0-.13.16.89.89,0,0,0,0,.76s.08.07.13.1A1.1,1.1,0,0,0,91,52a.34.34,0,0,0,.09-.37.52.52,0,0,0-.22-.31m-5,2.36.12-.1-.1-.13c-.16.07-.17.14,0,.23m3,4.9-.11,0,0,.16ZM52.22,67.41a.15.15,0,0,0-.13,0,.4.4,0,0,0-.16.28h.44a.4.4,0,0,0-.15-.29" transform="translate(0 0)"/><path class="cls-6" d="M48,29.67c.06-1.82.12-3.64.19-5.46l.12-4c0-.19,0-.19-.15-.6a1.65,1.65,0,0,1-.11-.82.8.8,0,0,1,.11-.4.51.51,0,0,0,0-.57.85.85,0,0,1-.09-.41c0-1.55,0-3.09.07-4.63,0-.35,0-.7,0-1a1.25,1.25,0,0,0-.16-.6,1.42,1.42,0,0,1-.12-.61c0-.49,0-1,0-1.47,0-.92,0-1.83,0-2.74a1.26,1.26,0,0,0-.14-.6,1.28,1.28,0,0,1-.15-.61c0-1.4,0-2.8.09-4.2a2,2,0,0,1,.07-.42.59.59,0,0,1,.34-.21,7.38,7.38,0,0,1,1-.05l1.47,0a1.82,1.82,0,0,0,1-.21.69.69,0,0,1,.61,0,1.63,1.63,0,0,0,.78.25c1.13,0,2.24.13,3.36.2a1.37,1.37,0,0,1,.6.19,1.37,1.37,0,0,0,.59.19l1.68.13a1.22,1.22,0,0,1,.59.17,1.61,1.61,0,0,0,.79.26l.84.08a1.46,1.46,0,0,1,.58.22,1,1,0,0,0,.39.15,11.8,11.8,0,0,0,1.88.13,1,1,0,0,1,.58.22l.31.29a1.15,1.15,0,0,0,.74.35l.41.05a1.08,1.08,0,0,1,.41.11c.35.22.76.35,1.12.57a.93.93,0,0,0,.38.17,2.36,2.36,0,0,1,1,.38c.24.15.51.23.74.39s.64.29.91.52a4.06,4.06,0,0,1,.74.4c.23.17.51.22.74.39a2.48,2.48,0,0,0,.56.29c.25.12.46.32.73.42a1,1,0,0,1,.35.21,3.47,3.47,0,0,0,1,.73,1,1,0,0,1,.17.12l.92.87a1.63,1.63,0,0,0,.35.23,1.13,1.13,0,0,1,.36.22l1.05,1a3.65,3.65,0,0,0,.85.6,1.69,1.69,0,0,1,.32.27l1,1.09a2.42,2.42,0,0,1,.58.87,3.69,3.69,0,0,0,.25.34c.37.41.75.83,1.14,1.23s.76.83,1.11,1.27a1.78,1.78,0,0,1,.3.54,1.42,1.42,0,0,0,.21.36c.22.28.46.54.68.81.09.11.16.23.24.34a2.66,2.66,0,0,0,.52.91,1.81,1.81,0,0,1,.31.54,10.33,10.33,0,0,1,.45.95c.07.12.14.24.22.36a4,4,0,0,1,.47.69c.09.27.24.5.35.76s.22.51.35.76.27.65.45.95.22.51.34.76.25.65.42,1a1,1,0,0,1,.09.41,2,2,0,0,0,.26.79,1,1,0,0,1,.11.4,1.91,1.91,0,0,0,.24.8,1,1,0,0,1,.13.39,2.46,2.46,0,0,0,.29,1,.85.85,0,0,1,.09.41q0,.42,0,.84a1.93,1.93,0,0,0,0,.42,1.88,1.88,0,0,0,.18.38,1,1,0,0,1,.1.4c0,.21,0,.42,0,.63a1,1,0,0,0,.1.41,1.84,1.84,0,0,1,.25,1,2.08,2.08,0,0,0,.23,1,.68.68,0,0,1,.07.2,3,3,0,0,1,0,.42c0,.77,0,1.54,0,2.31a1.93,1.93,0,0,0,0,.42,1.8,1.8,0,0,0,.16.38,1,1,0,0,1,.1.41c0,1.19,0,2.38,0,3.57,0,.28,0,.56,0,.85a1.16,1.16,0,0,0,.15.6c.1.16.08.27-.08.34l-.19,0c-.56,0-1.12,0-1.68,0l-.63,0a1.25,1.25,0,0,0-.6.16,1.42,1.42,0,0,1-.61.13h-.42l-9.68-.27-4.62-.15a1.19,1.19,0,0,0-.61.12,1.13,1.13,0,0,1-.6.17l-.84,0L64,44.15l-2.1,0a1.27,1.27,0,0,0-.6.18,1.38,1.38,0,0,1-.6.13c-1,0-2,0-2.95-.06-1.26-.07-2.52-.11-3.78-.11a1.4,1.4,0,0,0-.41.06c-.46.14-.46.15-.77,0a1,1,0,0,0-.4-.11l-1.68-.08a1.93,1.93,0,0,0-.42,0,2.22,2.22,0,0,0-.38.18,1.59,1.59,0,0,1-.2.07,3.59,3.59,0,0,1-1.46,0,.48.48,0,0,1-.29-.27,5.92,5.92,0,0,1,0-.84c0-.91.06-1.82.08-2.73a1.46,1.46,0,0,0,0-.42,1.88,1.88,0,0,0-.16-.39,1.42,1.42,0,0,1-.13-.61,1.48,1.48,0,0,1,0-.21c0-1.47.08-2.94.1-4.41,0-.84,0-1.69.07-2.53L48,29.67h0m35.29-8a1.26,1.26,0,0,0-.61,0c-.16.06-.17.18,0,.32s.36.41.55.61.24.17.33.1a.32.32,0,0,0,.1-.37c-.09-.25-.33-.44-.36-.72a.3.3,0,0,0,.34-.18l-.12-.12a.3.3,0,0,0-.19.33m-.8-1.29a1.08,1.08,0,0,1-.52-.29.55.55,0,0,0-.72,0,1.9,1.9,0,0,0-.28.29c-.1.13-.07.24.11.29a2.11,2.11,0,0,0,1,0,.44.44,0,0,0,.38-.39.32.32,0,0,0,.34-.16.69.69,0,0,1-.11-.13.33.33,0,0,0-.2.33M84.28,40.2c0-.14,0-.27,0-.41a.31.31,0,0,0-.21-.27s-.11.09-.13.14a2.06,2.06,0,0,1-.16.37l-.23.34c0,.08.12.29.35.46l.17.11a.49.49,0,0,0,.2-.34,1.33,1.33,0,0,0,0-.4m-.06-2.72a1.27,1.27,0,0,0-.14-.17.5.5,0,0,0-.38.1.37.37,0,0,0-.13.37.5.5,0,0,0,.1.17.47.47,0,0,0,.34-.16.64.64,0,0,0,.21-.31M80.92,19a1.61,1.61,0,0,0,.38,0c.16-.05.21-.16.15-.24a.25.25,0,0,0-.14-.11c-.13,0-.26,0-.39,0a.33.33,0,0,0-.35.13c-.08.12.1.26.35.27M83,23.47a.38.38,0,0,0-.15.05.3.3,0,0,0-.1.34c.06.16.17.19.27.11a.36.36,0,0,0,.09-.35,1.43,1.43,0,0,0-.11-.15m5.73,18.82c-.06-.17-.13-.18-.23,0l.1.13.13-.11M82.37,40l.1-.14-.15,0Zm0-12.64.1-.13-.16,0ZM83,26.06,82.84,26l0,.15ZM81.88,21.4c0-.18-.13-.19-.23,0l.1.13.13-.1m-2.55-2.32-.13.09c.06.17.13.18.23,0l-.1-.12m-1.25-.47-.13.1c.06.17.14.18.23,0a1.47,1.47,0,0,0-.1-.13" transform="translate(0 0)"/></g></g></g></g></svg>