<svg xmlns="http://www.w3.org/2000/svg" xmlns:xlink="http://www.w3.org/1999/xlink" viewBox="0 0 92.1 91.78"><defs><style>.cls-1{fill:none;}.cls-2{clip-path:url(#clip-path);}.cls-3{fill:#00ac69;}.cls-4{fill:#008375;}.cls-5{fill:#45c2b1;}.cls-6{fill:#aada91;}</style><clipPath id="clip-path" transform="translate(0 0)"><rect class="cls-1" width="92.1" height="91.78"/></clipPath></defs><g id="Layer_2" data-name="Layer 2"><g id="Layer_1-2" data-name="Layer 1"><g id="growth-icon"><g class="cls-2"><path class="cls-3" d="M6.6,49.72a.79.79,0,0,1,.33-.52A.88.88,0,0,1,7.49,49c.63,0,1.26,0,1.89,0,.21,0,.22,0,.59-.18a1.25,1.25,0,0,1,.6-.16H11a1.49,1.49,0,0,0,.42,0,1.8,1.8,0,0,0,.38-.16,1,1,0,0,1,.41-.09l5.26.12a1.53,1.53,0,0,0,.6-.16,1.45,1.45,0,0,1,.62-.11l1.05,0,4,.1c.2,0,.22,0,.6-.14a1.63,1.63,0,0,1,.61-.13l5.48.16a2,2,0,0,0,.8-.2.8.8,0,0,1,.2-.07.75.75,0,0,1,.21,0c.77,0,1.54,0,2.31,0,1.41.06,2.81.13,4.21.14a.87.87,0,0,0,.4-.08l.2-.09a.82.82,0,0,1,.8,0,1.3,1.3,0,0,0,.58.2l.84,0a1.44,1.44,0,0,0,.61-.12,1.23,1.23,0,0,1,.81-.18,8,8,0,0,1,1.47.07.48.48,0,0,1,.28.28c.07.2.15.39.24.59a1.57,1.57,0,0,1,.11.61l-.12,4.63a1.27,1.27,0,0,0,.15.6,1.3,1.3,0,0,1,.14.61v.42c0,1,0,2-.07,3a1.19,1.19,0,0,0,.12.61,1.25,1.25,0,0,1,.16.6c0,.42,0,.84,0,1.26-.08,2.95-.21,5.9-.33,8.84,0,.42,0,.84-.05,1.26a1.6,1.6,0,0,0,.17.81,1,1,0,0,1,.1.41c0,.42,0,.84,0,1.26-.08,1.76-.12,3.51-.15,5.26a1.44,1.44,0,0,0,.15.61,1.26,1.26,0,0,1,.12.61c0,1.47-.06,2.94-.1,4.42a1.83,1.83,0,0,0,.2,1,.51.51,0,0,1,.06.2c0,.64-.08,4.48-.14,5.47a.42.42,0,0,1-.05.2.49.49,0,0,1-.32.24,2,2,0,0,1-.42,0h-.84l-3.79-.16c-1,0-2.1-.1-3.15-.19a1.31,1.31,0,0,1-.79-.25A1,1,0,0,0,35.1,91L33,90.88a1.89,1.89,0,0,1-.8-.23,1,1,0,0,0-.58-.2l-1.26-.11a1.64,1.64,0,0,1-.78-.29.79.79,0,0,0-.4-.13l-.83-.1a1.25,1.25,0,0,1-.78-.28,1.06,1.06,0,0,0-.38-.16,2.46,2.46,0,0,1-1-.35,1.6,1.6,0,0,0-.6-.18,1.07,1.07,0,0,1-.39-.14,2.11,2.11,0,0,0-.77-.32,1.12,1.12,0,0,1-.4-.14c-.34-.25-.75-.37-1.1-.6s-.64-.29-.92-.51c-.13,0-.26-.1-.4-.13a1.7,1.7,0,0,1-.58-.22c-.35-.23-.76-.36-1.1-.63-.33-.11-.6-.36-.92-.49a1.94,1.94,0,0,1-.69-.46,3.88,3.88,0,0,0-.87-.58c-.24-.14-.47-.3-.73-.42s-.46-.31-.72-.43a1.63,1.63,0,0,1-.5-.37c-.2-.2-.39-.4-.6-.59a1.73,1.73,0,0,0-.52-.36,1.27,1.27,0,0,1-.34-.23,8.73,8.73,0,0,1-.75-.74l-2.16-2.31A1.07,1.07,0,0,0,10.8,79a1.69,1.69,0,0,1-.73-.72,2,2,0,0,0-.44-.71c-.19-.21-.37-.43-.55-.64a1.66,1.66,0,0,1-.27-.57c-.08-.33-.35-.6-.42-1a3,3,0,0,0-.34-.53l-.26-.33a.81.81,0,0,1-.1-.18,2.67,2.67,0,0,0-.54-.9.82.82,0,0,1-.25-.56l0-.21c-.06-.37-.06-.38-.46-.63a.58.58,0,0,1-.27-.31c-.09-.27-.25-.5-.35-.76a6.56,6.56,0,0,0-.35-.76c-.16-.31-.29-.64-.44-1a1,1,0,0,1,0-.82,1.74,1.74,0,0,1,.11-.18c.16-.24.15-.32,0-.54a1.07,1.07,0,0,0-.49-.38.6.6,0,0,1-.42-.63c0-.21,0-.42,0-.63A.67.67,0,0,0,4,65.68l-.4-.5c-.14-.17-.1-.33.12-.53a.75.75,0,0,1,.55-.27l0,0c0,.14,0,.28,0,.41s.06.35.33.45a1.82,1.82,0,0,1,.52.32.59.59,0,0,0,.37.16c0,.31.22.48.42.67a.77.77,0,0,0,.18.1.3.3,0,0,0,.16-.32c0-.26-.09-.36-.36-.41a1.42,1.42,0,0,0-.41,0,1.18,1.18,0,0,1,.07-.2A2.35,2.35,0,0,1,6,65a1,1,0,0,0,.4-.91c0-.24-.08-.4-.31-.48a1.48,1.48,0,0,1-.67-.48c-.11-.14-.12-.25,0-.37.23-.28.24-.66.49-.92s.13-.22,0-.37a.82.82,0,0,1-.18-.58c0-.35,0-.7,0-1.05a1,1,0,0,0-.22-.58,1,1,0,0,1-.1-.8c.06-.26.24-.31.43-.14l.45.44a.93.93,0,0,0,.79.18.47.47,0,0,0,.19-.06,1.2,1.2,0,0,0,.34-.25c.2-.2.19-.33,0-.46s-.36-.21-.41-.41a.43.43,0,0,1,.09-.39c.19-.25.18-.26.08-.55,0-.06,0-.12-.05-.19a.8.8,0,0,1,.36-.2A.43.43,0,0,0,8,56.21a1.59,1.59,0,0,1,.3-.54.68.68,0,0,0,.13-.58.47.47,0,0,0-.32-.25c-.16-.05-.24-.14-.24-.26a.36.36,0,0,1,.37-.16,1.43,1.43,0,0,0,.41,0c.06,0,.11-.08.16-.13s0-.11-.09-.15A1,1,0,0,0,8.49,54c-.29-.15-.29-.15-.36-.46l0,0a.41.41,0,0,0,.35-.18.5.5,0,0,0,0-.57,1.55,1.55,0,0,1-.19-.36,1.11,1.11,0,0,1,0-.8c.06-.12.16-.22.23-.34a.43.43,0,0,0-.18-.67,2.2,2.2,0,0,1-.53-.32l-.29-.28a.91.91,0,0,0-.72-.36l-.2,0ZM27,85.18a.31.31,0,0,0-.17-.34l-.12.11a.31.31,0,0,0,.32.2.29.29,0,0,0,.17.34l.13-.12a.29.29,0,0,0-.33-.19m3.86-1.11h-.36a.48.48,0,0,0-.33.1.43.43,0,0,0-.16.3.44.44,0,0,0-.44.34,1.8,1.8,0,0,1-.28.53c-.22.34-.19.56.12.89a.88.88,0,0,0,.15.12q.2.16.3-.09A13.79,13.79,0,0,0,30,84.43l.36,0c.31,0,.42-.08.51-.39a.26.26,0,0,0,.29-.12c.06-.12,0-.19-.13-.15a.27.27,0,0,0-.15.28M29.15,84a.89.89,0,0,0-.66.4,1,1,0,0,0-.1.18.28.28,0,0,0,.32.16c.24,0,.35-.1.38-.37s0-.27,0-.4a.32.32,0,0,0,.34-.17l-.11-.12a.3.3,0,0,0-.2.32M8,65.38a.32.32,0,0,0-.17-.33l-.12.11a.29.29,0,0,0,.31.2.51.51,0,0,0,.12.38c.09.1.19.2.27.3a.23.23,0,0,0,.36,0,1.28,1.28,0,0,0,.39-.47.51.51,0,0,0-.34-.19A3.77,3.77,0,0,0,8,65.38M27.82,81.84h-.21a.49.49,0,0,0-.37.16.77.77,0,0,0,.22.34,1.08,1.08,0,0,0,.51.33.72.72,0,0,1,.36.2c.12.13.23.16.35.07a.66.66,0,0,0,.17-.12.76.76,0,0,0,.23-.33.61.61,0,0,0-.35-.21A2.46,2.46,0,0,1,28.2,82a.7.7,0,0,0-.38-.11m9.57,3a2.67,2.67,0,0,0-.4,0,.31.31,0,0,0-.16.12.4.4,0,0,0-.08.37.35.35,0,0,0,.27.25,1.73,1.73,0,0,0,.6,0,.47.47,0,0,0,.25-.29.29.29,0,0,0-.11-.35.62.62,0,0,0-.37-.13m2.89,1a5.65,5.65,0,0,0,.6,0c.16,0,.24-.1.24-.21s-.1-.11-.15-.12a3,3,0,0,1-1-.32c-.13-.14-.24-.12-.31.07s0,.48.18.52a2.6,2.6,0,0,0,.4.09M7.46,71.84a.43.43,0,0,0,.09.15.77.77,0,0,0,.79.05.5.5,0,0,0,.12-.13,1.12,1.12,0,0,0-.23-.35c-.11-.11-.22-.18-.34-.15a.76.76,0,0,0-.43.43m33,15.83.15.14a.52.52,0,0,0,.39-.09.41.41,0,0,0,.13-.37c0-.06-.08-.11-.12-.16a.52.52,0,0,0-.35.15.55.55,0,0,0-.2.33M6.59,70.33a.32.32,0,0,0,.13.35l.17-.07a.94.94,0,0,0,.29-.27s.07-.11.11-.17A.34.34,0,0,0,7,70c-.26,0-.35.06-.38.33M37.67,82.67a.41.41,0,0,0,.14.32.34.34,0,0,0,.2-.29.28.28,0,0,0-.15-.31.3.3,0,0,0-.19.28M6.8,68.43a.24.24,0,0,0-.16.32c0,.14.09.22.21.24A.26.26,0,0,0,7,68.67c0-.14-.08-.23-.2-.24M9.63,52.09c-.05,0-.13.08-.15.14a.3.3,0,0,0,0,.21c0,.19.14.23.25.12a.36.36,0,0,0,.07-.18c0-.16,0-.26-.17-.29M33.15,80.7a.31.31,0,0,0,0,.21c.07.2.17.22.26.07a.32.32,0,0,0,0-.19q0-.27-.18-.24a.53.53,0,0,0-.11.15M33,85.47a.74.74,0,0,0-.21,0,.72.72,0,0,0-.15.11c0,.1,0,.16.2.2a.27.27,0,0,0,.33-.09.22.22,0,0,0-.17-.22m-1.95,0c-.18,0-.19.14,0,.24l.14-.11a1.13,1.13,0,0,1-.1-.13m-6.24-.56-.13-.1,0,.15Zm9.94-.44q.07.25.21,0l-.09-.13-.12.1m-11.78-.5.13.09,0-.15Zm7,3.66.13.1,0-.16Zm3.19-3.54.1-.12-.15,0Zm-.84,0,.13-.09c-.06-.17-.13-.18-.23,0ZM10.89,52.32l.09-.14-.14,0Zm19.44,31.1-.14-.09,0,.15Zm-3-.26q-.27.09,0,.24l.13-.11-.1-.13m-19.45-21,.13.1,0-.16ZM7.17,63,7,62.93l0,.15ZM23.83,82.27c.06.17.13.18.23,0l-.1-.12-.13.09m15.73.16c-.17,0-.18.12,0,.22l.11-.1-.08-.12M39.51,74c-.17,0-.18.12,0,.21l.13-.09L39.51,74m.55,3.48c0,.17.13.18.22,0l-.1-.13-.12.09M32.91,79.4l.09-.13-.14,0Zm4.52.5c0,.17.13.18.23,0a.64.64,0,0,1-.1-.13l-.13.1m1,0q-.26.08,0,.21l.12-.09-.09-.12M3,61.83a.54.54,0,0,0-.27.29,1.15,1.15,0,0,0,0,.61.45.45,0,0,0,.11.17c.05,0,.12-.07.15-.12s.1-.37.33-.4c.19.16.12.38.14.58a.59.59,0,0,1-.12.39,1.08,1.08,0,0,1-.11.18c-.11.13-.1.25.08.33a.35.35,0,0,0,.2,0,.35.35,0,0,0,.29-.25c.09-.33.07-.69.14-1,0-.17.16-.22.28-.16a1.63,1.63,0,0,0,.19.09.53.53,0,0,0,.18,0,.3.3,0,0,0,.11-.36.42.42,0,0,0-.27-.28,4.5,4.5,0,0,0-.89-.11l-.55,0m-1.37-3a.53.53,0,0,0,.19.35,4.15,4.15,0,0,1,.71.42.47.47,0,0,0,.4.05c.21-.06.19-.18-.06-.48L2.6,58.8a.74.74,0,0,1-.17-.37c0-.2,0-.41-.08-.62a.35.35,0,0,0-.3-.23c-.17,0-.28,0-.33.17a2.16,2.16,0,0,0-.09.62c0,.13,0,.27,0,.41M1.33,55.7a1,1,0,0,0,.08.41c.12.24.23.5.34.75,0,0,.09,0,.13.08L2,56.79A1.35,1.35,0,0,0,2,56a2.27,2.27,0,0,1-.25-1,.29.29,0,0,0-.2-.28c0,.06-.11.11-.12.17a3,3,0,0,0,0,.41c0,.14,0,.28,0,.42M11.54,81.14a.55.55,0,0,0-.16-.37l-1-1.07a.66.66,0,0,0-.17-.12.41.41,0,0,0-.16,0,.33.33,0,0,0-.07.37,1,1,0,0,0,.11.17l.53.63a1,1,0,0,0,.92.37ZM4.25,64.34a.93.93,0,0,1,.52.29.46.46,0,0,0,.55.08c.14,0,.17-.18.14-.34a.34.34,0,0,0-.19-.32A1.29,1.29,0,0,0,4.88,64a.75.75,0,0,0-.39.09.38.38,0,0,0-.2.32ZM5.9,52.14h.2c.27,0,.34-.1.32-.37s-.06-.26-.19-.31a.47.47,0,0,0-.37,0,.26.26,0,0,0-.15.33.51.51,0,0,0,.19.33M2.52,60.8a.36.36,0,0,0,.2-.28.28.28,0,0,0-.15-.31.25.25,0,0,0-.18.26.38.38,0,0,0,.13.33M4.83,49.42l-.11-.14-.13.1c0,.18.14.19.24,0m.79,0-.16,0,.07.15Zm1,.3a.3.3,0,0,0-.34.17l.11.13a.31.31,0,0,0,.21-.33ZM1.73,51.78l-.15,0,0,.16Zm5.93.3-.11-.14-.13.11q.09.27.24,0m0,1.06a.31.31,0,0,0-.16-.33l-.12.11a.29.29,0,0,0,.31.19Zm.4.45c0-.31-.12-.39-.4-.45l0,0a.36.36,0,0,0,.11.3.47.47,0,0,0,.3.14ZM11.57,81.1a.31.31,0,0,0,.15.31l.11-.09a.38.38,0,0,0-.29-.18Z" transform="translate(0 0)"/><path class="cls-4" d="M11.56,0l9.89,0H22.5a1.62,1.62,0,0,1,.8.21.71.71,0,0,0,.4.11c2.1,0,4.21.1,6.31.09.56,0,1.12,0,1.68,0,.92,0,1.83,0,2.74,0a1.54,1.54,0,0,1,.6.17,1,1,0,0,0,.39.14c1.21,0,4.39,0,5.68,0a1.15,1.15,0,0,0,.59-.18A2.34,2.34,0,0,1,42.5.42a.89.89,0,0,0,.38-.15c.31-.18.32-.18.54,0l.47.41c.17.13.39.16.56.28a.33.33,0,0,1,.11.38,1.4,1.4,0,0,1-.16.38,1.06,1.06,0,0,0-.16.6c0,.28,0,.56,0,.84s0,.7,0,1c0,.7,0,1.4,0,2.1s0,1.27,0,1.9,0,1.12,0,1.68c0,.14,0,.28,0,.42A2,2,0,0,1,44,11.54a1.17,1.17,0,0,0,.13.37,1.21,1.21,0,0,1,.1.62c0,.84,0,1.68,0,2.52a1.4,1.4,0,0,1-.18.6.69.69,0,0,0,0,.78.33.33,0,0,1,0,.4,1.49,1.49,0,0,0-.2.8c0,1.05,0,2.1,0,3.16,0,.42,0,.84,0,1.26a1.52,1.52,0,0,1-.21.8.8.8,0,0,0-.11.4l0,2.31,0,3.58c0,3.37,0,6.73,0,10.1a1.58,1.58,0,0,0,.2.8,1.29,1.29,0,0,1,.13.61V44a1.49,1.49,0,0,1,0,.21.49.49,0,0,1-.22.33l-.42,0-1.05,0c-1.19,0-2.38,0-3.57,0a1.22,1.22,0,0,0-.59.2,1.21,1.21,0,0,1-.6.14,1,1,0,0,1-.6-.15,1.55,1.55,0,0,0-.59-.21l-.63,0a1.14,1.14,0,0,1-.4-.11l-.38-.2-.62-.06a1.33,1.33,0,0,1-.8-.22,1.37,1.37,0,0,0-.58-.22,2,2,0,0,1-.79-.26.78.78,0,0,0-.4-.12l-.63-.06a1.61,1.61,0,0,1-.59-.21.88.88,0,0,0-.38-.14l-.63-.07a1.26,1.26,0,0,1-.6-.17,1.5,1.5,0,0,0-.8-.21,9.21,9.21,0,0,1-1.05,0,1.67,1.67,0,0,1-.79-.25.8.8,0,0,0-.39-.14c-.21,0-.42,0-.63,0a1.14,1.14,0,0,1-.74-.34c-.45-.39-.38-.39-.91-.47a2,2,0,0,1-.59-.21,1.15,1.15,0,0,0-.37-.18,1.48,1.48,0,0,1-.71-.43l-.15-.15-.35-.24a8.1,8.1,0,0,1-.93-.47,1.33,1.33,0,0,1-.37-.2l-.33-.26a2.27,2.27,0,0,0-.72-.42c-.26-.09-.47-.3-.74-.39s-.48-.29-.74-.4a2,2,0,0,1-.53-.33L16.19,37a2.7,2.7,0,0,0-.7-.45,1.15,1.15,0,0,1-.35-.24l-.92-.86a2.68,2.68,0,0,0-.85-.6.67.67,0,0,1-.18-.11,8.52,8.52,0,0,1-1.06-1,2.09,2.09,0,0,1-.34-.53,1.29,1.29,0,0,0-.22-.35l-1.44-1.54a2.72,2.72,0,0,1-.47-.69,1.16,1.16,0,0,0-.24-.34c-.28-.31-.57-.62-.86-.92A2.49,2.49,0,0,1,8,28.51c-.08-.11-.15-.23-.24-.34-.22-.27-.46-.52-.69-.79A1.32,1.32,0,0,1,6.81,27c-.1-.26-.3-.48-.4-.74a2.81,2.81,0,0,0-.56-.88,1.31,1.31,0,0,1-.24-.34,7.4,7.4,0,0,0-.5-.92,1.8,1.8,0,0,0-.42-.72,2.47,2.47,0,0,1-.52-.9c-.2-.29-.3-.64-.48-.93s-.28-.65-.47-.94A2,2,0,0,1,3,19.87a.93.93,0,0,0-.15-.39c-.23-.35-.31-.78-.54-1.13a.93.93,0,0,1-.12-.4,1.4,1.4,0,0,0-.18-.6,1.85,1.85,0,0,1-.26-.79.79.79,0,0,0-.13-.4C1.33,15.82,1.23,15.4,1,15a.46.46,0,0,1-.08-.19c0-.28,0-.56,0-.84s0-.7-.05-1.05a1.93,1.93,0,0,0,0-.42,2.53,2.53,0,0,0-.18-.37,1.32,1.32,0,0,1-.16-.61L.4,9.87a1.39,1.39,0,0,0-.17-.6,1.34,1.34,0,0,1-.16-.6C0,6.22,0,3.76.05,1.31c0-.35,0-.7,0-1A.59.59,0,0,1,.41.05,3,3,0,0,1,.83,0H3.35l8.21,0ZM38.84,21.86c-.05.23,0,.34.3.38s.36,0,.39-.3-.05-.34-.3-.38-.35.05-.39.3m1.56,5.49c0-.15-.08-.22-.19-.22s-.12.08-.14.13a.32.32,0,0,0,.07.33s.09.05.13.07a.24.24,0,0,0,.13-.31m-3.52.14-.09.13.15,0ZM39,24.93l-.14.11c.07.17.15.18.25,0L39,24.93m.1-1.13L39,23.69c-.16,0-.17.13,0,.21l.11-.1m-6.32-2.1-.1-.11c-.17.05-.18.12,0,.21l.12-.1M11,34.13c0-.41,0-.58-.2-.76L9.63,32.18A.47.47,0,0,0,9.27,32h0a1.34,1.34,0,0,0,0,.2,1,1,0,0,0,.19.57A10.6,10.6,0,0,0,10.6,34a.53.53,0,0,0,.37.14Zm-2.5-3.4c0,.12,0,.24,0,.36a.65.65,0,0,0,.11.33.44.44,0,0,0,.3.16l0,0a1.19,1.19,0,0,0,0-.42.51.51,0,0,0-.4-.42Zm6.71,6.78a.5.5,0,0,0-.43-.39,1.42,1.42,0,0,0-.41,0l0,0a.49.49,0,0,0,.49.41h.35ZM8,30.35A.35.35,0,0,0,7.82,30l-.11.11a.32.32,0,0,0,.32.18Zm.43.42A.49.49,0,0,0,8,30.35l0,0a.94.94,0,0,0,0,.16.41.41,0,0,0,.38.26Zm7.19,7.12a.34.34,0,0,0,.19.3l.1-.1a.43.43,0,0,0-.32-.16Zm0,0a.44.44,0,0,0-.42-.42l0,0a.32.32,0,0,0,.12.3.41.41,0,0,0,.3.12Zm-1.26-.84a.41.41,0,0,0-.12-.3.49.49,0,0,0-.3-.12l0,0a.45.45,0,0,0,.42.42Zm-.81-.88a.37.37,0,0,0,.25.38.47.47,0,0,0,.17,0l0,0a.47.47,0,0,0-.42-.42Zm0,0a.34.34,0,0,0-.21-.31l-.09.12a.33.33,0,0,0,.33.15Zm-1.24-.88a.32.32,0,0,0,.2.31l.1-.12a.32.32,0,0,0-.33-.16Zm0,0c0-.29-.11-.38-.42-.42l0,0c0,.28.13.36.42.42Zm-.81-.87a.49.49,0,0,0,.42.42l0,0a.38.38,0,0,0-.13-.29.35.35,0,0,0-.29-.13ZM11,34.11a.42.42,0,0,0,.27.38l.16,0,0,0a.49.49,0,0,0-.11-.31.35.35,0,0,0-.31-.12ZM9.27,32a.39.39,0,0,0-.12-.31.34.34,0,0,0-.31-.1l0,0a.49.49,0,0,0,.11.31.34.34,0,0,0,.3.12Z" transform="translate(0 0)"/><path class="cls-5" d="M56.88,47.76h7.36l1.26,0a1.19,1.19,0,0,0,.59-.2.77.77,0,0,1,.79,0,1,1,0,0,0,.59.19,4.42,4.42,0,0,0,.63,0,1.44,1.44,0,0,0,.4-.13c.27-.14.28-.15.57,0a1.16,1.16,0,0,0,.6.15l2.53,0c.19,0,.19,0,.58-.2a.8.8,0,0,1,.79,0,1.13,1.13,0,0,0,.59.2h5.26c1.82,0,3.65,0,5.47,0h.84a.89.89,0,0,1,.72.37c.16.16.12.33-.07.53a1.85,1.85,0,0,1-.72.41.28.28,0,0,0-.15.15.61.61,0,0,0,0,.4.48.48,0,0,0,.12.17.36.36,0,0,1-.05.54,5.3,5.3,0,0,0-.87.9.44.44,0,0,0-.07.4,1.58,1.58,0,0,0,.2.36.6.6,0,0,1,.06.59.42.42,0,0,1-.35.21c-.27.12-.3.18-.14.44a.59.59,0,0,1,0,.76.87.87,0,0,0-.19.37.45.45,0,0,0,.08.39,1.36,1.36,0,0,0,.63.53.47.47,0,0,1,.36.2,1.61,1.61,0,0,1-.14.38c-.14.27-.15.34,0,.58a1.26,1.26,0,0,1,.27.77,2,2,0,0,0,0,.42,1.15,1.15,0,0,0,.19.59,1.1,1.1,0,0,1,.23.79c0,.14,0,.28,0,.42a.77.77,0,0,0,.25.55,3.78,3.78,0,0,0,.59.61,8.27,8.27,0,0,0,.92.85c.13.09.25,0,.29-.14a5.44,5.44,0,0,1,.4-1.17.65.65,0,0,0,0-.2l.06-.42c0-.16.11-.26.23-.25a.36.36,0,0,1,.18.1,1.18,1.18,0,0,1,.27.32,3.45,3.45,0,0,0,.38.74.92.92,0,0,1,.15.6c0,.42,0,.84,0,1.26a1.14,1.14,0,0,1-.18.6c-.16.23-.2.52-.36.76a1.54,1.54,0,0,0-.26.78c0,.14,0,.28,0,.42a1.23,1.23,0,0,1-.21.59,1.48,1.48,0,0,0-.2.59,1.23,1.23,0,0,1-.18.59c-.22.36-.3.79-.55,1.13a.77.77,0,0,0-.11.4,1.27,1.27,0,0,1-.32.76,4.15,4.15,0,0,0-.27.32,1,1,0,0,0-.21.37,6.45,6.45,0,0,1-.38.74,2.94,2.94,0,0,1-.26.57,3,3,0,0,0-.27.57c-.09.19-.23.35-.32.54a3.68,3.68,0,0,1-.26.57,7.51,7.51,0,0,0-.36.76,4.21,4.21,0,0,0-.3.55c-.11.26-.27.49-.39.74a1.43,1.43,0,0,1-.19.37l-.71.78a1.86,1.86,0,0,0-.43.71,2.13,2.13,0,0,1-.25.34c-.39.4-.79.8-1.17,1.21-.62.67-1.3,1.28-2,1.91a1,1,0,0,1-.37.21,1.27,1.27,0,0,0-.52.34l-2.69,2.66a1.49,1.49,0,0,1-.52.35.93.93,0,0,0-.37.19c-.16.14-.33.28-.47.42-.45.45-.9.89-1.38,1.3a.87.87,0,0,1-.18.11,2.3,2.3,0,0,0-.72.43,2.21,2.21,0,0,1-.88.56,3.87,3.87,0,0,1-.92.49,2.65,2.65,0,0,1-.76.36c-.33.26-.76.35-1.11.58a1.74,1.74,0,0,1-.8.24,1.14,1.14,0,0,0-.39.14,1.46,1.46,0,0,1-.58.22,1.58,1.58,0,0,0-.79.26,1.28,1.28,0,0,1-.6.16l-.84.06a1.23,1.23,0,0,0-.6.17,1,1,0,0,1-.58.21c-.14,0-.28,0-.42,0a3,3,0,0,0-.42,0,1.48,1.48,0,0,0-.37.2.77.77,0,0,1-.39.14l-1,0a1.15,1.15,0,0,0-.59.19,1.46,1.46,0,0,1-.58.22,1.37,1.37,0,0,0-.78.26,1,1,0,0,1-.39.15,1.89,1.89,0,0,0-.8.23,1.14,1.14,0,0,1-.6.15l-4.63.08a1.28,1.28,0,0,0-.6.16,1.43,1.43,0,0,1-.6.17c-.35,0-.7,0-1.06,0a.77.77,0,0,1-.39-.11,2.12,2.12,0,0,0-.57-.27L49,91.05l-.37-.21a3.08,3.08,0,0,1-.38.16c-.11,0-.21-.06-.23-.24a4.2,4.2,0,0,1-.06-.62c0-.42,0-.85,0-1.27a1.45,1.45,0,0,0-.16-.6,1.41,1.41,0,0,1-.18-.81v-.63a1.38,1.38,0,0,1,.2-.81,1.1,1.1,0,0,0,.12-.39c0-.63,0-1.27,0-1.9a1.23,1.23,0,0,0-.18-.59.87.87,0,0,1,0-.8,1.27,1.27,0,0,0,.18-.6c0-1.4,0-2.8,0-4.21,0-1,0-2.1,0-3.15,0-.84,0-1.69,0-2.53,0-.63,0-1.26,0-1.89a1.93,1.93,0,0,1,0-.42,1.48,1.48,0,0,1,.2-.37.79.79,0,0,0,.13-.39c0-.28,0-.56,0-.84,0-2,0-3.93,0-5.9,0-.42,0-.84,0-1.26,0-.63,0-1.26,0-1.89,0-1,0-2,0-3a1,1,0,0,0-.19-.59,1.24,1.24,0,0,1-.19-.59c0-.42,0-.84,0-1.26,0-1.41,0-2.81,0-4.21a1.09,1.09,0,0,1,.17-.6c.15-.24.14-.24,0-.55-.11-.15-.06-.26.14-.27a7.86,7.86,0,0,1,.84,0l4.21,0c1.19,0,2.38-.06,3.58,0M50.89,68a.28.28,0,0,0,.18.32l.12-.12a.29.29,0,0,0-.33-.18v-.45a4.94,4.94,0,0,0,.86,0,.31.31,0,0,0,.14.29.15.15,0,0,0,.13,0,.34.34,0,0,0,.14-.3.48.48,0,0,1,.4.39c0,.14,0,.28,0,.41,0,.28.12.37.36.41l.21,0a3.89,3.89,0,0,1,.72-.4c.25-.07.28-.25.11-.44a1.15,1.15,0,0,0-.5-.34,1.24,1.24,0,0,1-.37-.17c-.21-.18-.42-.36-.64-.53a1.19,1.19,0,0,0-1-.11,1.47,1.47,0,0,0-.45.41.58.58,0,0,0-.15.38.28.28,0,0,0-.29.13.15.15,0,0,0,0,.13.31.31,0,0,0,.29.14m3.32-1.61a.42.42,0,0,0-.32.19v.2c0,.27.12.34.38.31s.35-.1.32-.37-.13-.37-.38-.33m3.84.4a.26.26,0,0,0-.31.15.71.71,0,0,0,.08.18.87.87,0,0,0,.27.27l.17.09a.33.33,0,0,0,.14-.33c0-.25-.09-.34-.35-.36m-2.7.52a.61.61,0,0,0-.45.27c-.12.12-.13.23,0,.31A.29.29,0,0,0,55,68c.29,0,.46-.19.42-.49,0-.06-.07-.11-.1-.16m29.5-10c0-.09-.09-.29-.27-.45s-.23-.12-.31,0a.49.49,0,0,0-.06.17.39.39,0,0,0,.49.41,1.3,1.3,0,0,0,.15-.1M83.93,50c-.06,0-.13.08-.15.14a.28.28,0,0,0,0,.2c0,.18.15.23.25.13a.33.33,0,0,0,.07-.17c0-.17,0-.27-.17-.3M52.41,64s-.09-.12-.15-.15a.45.45,0,0,0-.2,0c-.18.05-.23.15-.13.26a.33.33,0,0,0,.17.07.25.25,0,0,0,.31-.18m.2-1.83c0,.14.09.22.19.2a.2.2,0,0,0,.13-.12.34.34,0,0,0-.07-.34.39.39,0,0,0-.13-.06.25.25,0,0,0-.12.32m2.23,6.43-.14.13a.44.44,0,0,0,.08.34c.09.1.19.08.25-.08a.36.36,0,0,0-.06-.35s-.09,0-.13,0m4-4.33a.42.42,0,0,0-.32.15.34.34,0,0,0,.3.19.3.3,0,0,0,.31-.16.27.27,0,0,0-.29-.18m1.58,1.45-.15-.09v.15ZM57,65l.09-.14-.15,0Zm-1.55,5.8c-.07-.19-.15-.19-.24,0l.11.13.13-.11m-1-11.5-.08.14.14,0Zm-.42,4.2-.12.1c0,.17.13.18.22,0l-.1-.12m-.42-10.51c-.17.05-.17.13,0,.22l.12-.1-.1-.12M74.15,79.57l.13.09,0-.15Zm9.48-28.19c-.06-.18-.13-.18-.22,0l.1.12.12-.1m3.58,11.34.14.1,0-.16Zm1.53-7.56c0-.14,0-.28,0-.42a1.33,1.33,0,0,0,0-.2.42.42,0,0,0-.19-.34.45.45,0,0,0-.18.34c0,.69,0,1.38-.07,2.07a.77.77,0,0,1-.14.38c-.13.2-.12.33.07.54a1.15,1.15,0,0,0,.33.25.51.51,0,0,0,.17-.35,8.23,8.23,0,0,0,0-1.49c0-.23,0-.51,0-.78m1.9-3.94a.67.67,0,0,0-.38,0,.27.27,0,0,0-.13.15.87.87,0,0,0,0,.77s.09.06.13.1a1,1,0,0,0,.46-.37.34.34,0,0,0,.09-.37.47.47,0,0,0-.21-.31m-5,2.36.11-.11-.09-.12c-.17.06-.17.14,0,.23m3,4.9-.12,0,0,.15ZM52,67.3a.13.13,0,0,0-.12,0,.38.38,0,0,0-.17.28h.44A.36.36,0,0,0,52,67.3" transform="translate(0 0)"/><path class="cls-6" d="M62.43,1.31l5.47.19,4,.13a1.14,1.14,0,0,0,.6-.15,1.66,1.66,0,0,1,.82-.12,1.08,1.08,0,0,1,.4.11.53.53,0,0,0,.58,0,.9.9,0,0,1,.4-.08c1.55,0,3.09,0,4.63.07l1.05,0a1.39,1.39,0,0,0,.6-.17,1.57,1.57,0,0,1,.61-.11h1.48l2.73,0a1.32,1.32,0,0,0,.61-.13A1.34,1.34,0,0,1,87,1l4.21.09a3.2,3.2,0,0,1,.41.07.59.59,0,0,1,.21.35,6.16,6.16,0,0,1,0,1.05c0,.49,0,1,0,1.47a1.85,1.85,0,0,0,.21,1,.7.7,0,0,1,0,.6,1.59,1.59,0,0,0-.26.79c0,1.12-.13,2.24-.2,3.36a1.25,1.25,0,0,1-.19.59,1.41,1.41,0,0,0-.19.59c-.05.56-.08,1.12-.13,1.68a1.26,1.26,0,0,1-.17.6,1.58,1.58,0,0,0-.26.79c0,.27-.06.55-.08.83a1.41,1.41,0,0,1-.22.59,1,1,0,0,0-.15.38A12,12,0,0,0,90,17.71a1,1,0,0,1-.22.57c-.09.11-.19.21-.29.31a1.22,1.22,0,0,0-.35.74c0,.14,0,.28-.05.42a1,1,0,0,1-.11.4c-.22.36-.34.77-.57,1.12a.93.93,0,0,0-.17.38,2.32,2.32,0,0,1-.38,1c-.15.23-.23.51-.39.74s-.29.64-.52.91a5.22,5.22,0,0,1-.39.74c-.18.22-.23.51-.4.74a2.62,2.62,0,0,0-.29.55c-.12.25-.32.46-.42.73a1.1,1.1,0,0,1-.21.36,3.4,3.4,0,0,0-.73,1,1,1,0,0,1-.12.17l-.87.92a1.41,1.41,0,0,0-.23.35,1,1,0,0,1-.22.35l-1,1.06a3.28,3.28,0,0,0-.6.84,2.16,2.16,0,0,1-.27.33c-.36.33-.73.65-1.09,1a2.39,2.39,0,0,1-.87.57l-.34.25-1.23,1.14c-.41.39-.83.76-1.26,1.12a2.26,2.26,0,0,1-.55.3,1.31,1.31,0,0,0-.36.21c-.28.22-.54.45-.81.68-.1.08-.23.15-.34.23a2.69,2.69,0,0,0-.91.53,1.81,1.81,0,0,1-.54.31,10.26,10.26,0,0,1-1,.44l-.36.22a3.51,3.51,0,0,1-.69.47c-.26.1-.5.24-.76.36s-.51.22-.76.35a10.15,10.15,0,0,0-.94.45,6.65,6.65,0,0,0-.77.34c-.31.15-.65.25-1,.41a1,1,0,0,1-.41.1,1.83,1.83,0,0,0-.79.25,1,1,0,0,1-.4.12,1.77,1.77,0,0,0-.8.24.9.9,0,0,1-.39.13,2.45,2.45,0,0,0-1,.28,1,1,0,0,1-.41.1l-.84,0a2,2,0,0,0-.42,0,2.11,2.11,0,0,0-.38.17,1,1,0,0,1-.4.11l-.63,0a.9.9,0,0,0-.4.09,2,2,0,0,1-1,.26,2,2,0,0,0-1,.23.68.68,0,0,1-.2.07,3,3,0,0,1-.42,0H54.5a1.49,1.49,0,0,0-.42,0,1.8,1.8,0,0,0-.38.16,1,1,0,0,1-.41.1c-1.19,0-2.38,0-3.57,0l-.84,0a1.22,1.22,0,0,0-.6.16c-.17.09-.28.08-.34-.08a.66.66,0,0,1-.06-.2c0-.56,0-1.12,0-1.68,0-.21,0-.42,0-.63a1.25,1.25,0,0,0-.16-.6,1.39,1.39,0,0,1-.13-.61c0-.14,0-.28,0-.42.08-3.22.17-6.45.26-9.67,0-1.54.11-3.08.15-4.63a1.16,1.16,0,0,0-.12-.6,1.26,1.26,0,0,1-.17-.6c0-.28,0-.57,0-.85L48,17.38c0-.7,0-1.41,0-2.11a1.23,1.23,0,0,0-.18-.59,1.42,1.42,0,0,1-.13-.61c0-1,0-2,.06-2.94.07-1.26.11-2.52.11-3.79a1.4,1.4,0,0,0-.06-.41c-.14-.46-.15-.46,0-.77a.92.92,0,0,0,.11-.4c0-.56.06-1.12.08-1.68a2,2,0,0,0,0-.42c0-.13-.12-.25-.17-.38a.77.77,0,0,1-.08-.19,3.77,3.77,0,0,1,0-1.46A.48.48,0,0,1,48,1.34a5.93,5.93,0,0,1,.84-.06l2.74.09a1.88,1.88,0,0,0,.41,0,1.92,1.92,0,0,0,.39-.17A1.42,1.42,0,0,1,53,1.06h.21c1.47.05,2.94.08,4.41.11.85,0,1.69,0,2.53.07l2.31.07h0m8,35.29a1.22,1.22,0,0,0,0-.6c-.06-.17-.18-.18-.32,0l-.61.55c-.12.11-.17.24-.1.33a.32.32,0,0,0,.37.1c.25-.08.44-.32.72-.35a.29.29,0,0,0,.18.33l.12-.11a.31.31,0,0,0-.33-.2m1.29-.79a1.17,1.17,0,0,1,.29-.52.56.56,0,0,0,0-.73,1.48,1.48,0,0,0-.29-.27c-.13-.1-.24-.07-.29.11a2.07,2.07,0,0,0-.05,1,.43.43,0,0,0,.39.38.32.32,0,0,0,.16.34l.13-.11a.32.32,0,0,0-.33-.19M51.9,37.64l.41,0a.3.3,0,0,0,.27-.2s-.09-.12-.14-.14a1.22,1.22,0,0,1-.37-.16l-.34-.22c-.08,0-.29.11-.46.34l-.11.18a.57.57,0,0,0,.34.2,1.8,1.8,0,0,0,.4,0m2.73-.06.16-.14a.49.49,0,0,0-.1-.39.41.41,0,0,0-.37-.13c-.06,0-.11.07-.17.11a.56.56,0,0,0,.16.34.69.69,0,0,0,.32.21m18.45-3.31a1.68,1.68,0,0,0,0,.39c0,.16.16.21.25.15s.1-.09.11-.15,0-.26,0-.39a.32.32,0,0,0-.13-.34c-.12-.08-.26.09-.27.34m-4.45,2.1a.29.29,0,0,0,0-.14.29.29,0,0,0-.34-.1c-.16.06-.19.17-.11.26a.32.32,0,0,0,.35.09c.06,0,.1-.07.15-.11M49.81,42.1c.17-.05.18-.13,0-.22l-.14.1.11.12m2.25-6.37.14.09,0-.15Zm12.64,0,.13.1,0-.15Zm1.34.58.09-.13-.15,0Zm4.66-1.09c.18-.06.19-.14,0-.23l-.13.1a1.13,1.13,0,0,1,.1.13M73,32.68l-.1-.12c-.16,0-.17.13,0,.22l.13-.1m.46-1.25-.1-.13q-.26.09,0,.24l.13-.11" transform="translate(0 0)"/></g></g></g></g></svg>