<svg xmlns="http://www.w3.org/2000/svg" xmlns:xlink="http://www.w3.org/1999/xlink" viewBox="0 0 92.03 92.39"><defs><style>.cls-1{fill:none;}.cls-2{clip-path:url(#clip-path);}.cls-3{fill:#008375;}.cls-4{fill:#ffc557;}.cls-5{fill:#aada91;}.cls-6{fill:#45c2b1;}</style><clipPath id="clip-path" transform="translate(0 0)"><rect class="cls-1" width="92.03" height="92.39"/></clipPath></defs><g id="Layer_2" data-name="Layer 2"><g id="Layer_1-2" data-name="Layer 1"><g id="mentoring-icon"><g class="cls-2"><path class="cls-3" d="M38.21,43a.76.76,0,0,1-.32.51.93.93,0,0,1-.57.25c-.63,0-1.26,0-1.89,0-.21,0-.22,0-.59.17a1.26,1.26,0,0,1-.6.17h-.42a1.49,1.49,0,0,0-.42,0,1.8,1.8,0,0,0-.38.16,1,1,0,0,1-.41.09l-5.26-.15a1.37,1.37,0,0,0-.6.15,1.34,1.34,0,0,1-.62.11l-1.05,0-4-.13a1.29,1.29,0,0,0-.61.14,1.75,1.75,0,0,1-.61.13l-5.47-.19a1.94,1.94,0,0,0-.8.2l-.2.07h-.21c-.77,0-1.55,0-2.32,0-1.4-.07-2.8-.14-4.2-.17a.82.82,0,0,0-.41.09l-.19.08a.79.79,0,0,1-.8-.05,1.34,1.34,0,0,0-.58-.2c-.28,0-.56-.05-.84-.05a1.3,1.3,0,0,0-.61.11,1.34,1.34,0,0,1-.82.18A8.88,8.88,0,0,1,1,44.5a.52.52,0,0,1-.29-.29,4.12,4.12,0,0,0-.23-.58A1.47,1.47,0,0,1,.33,43c0-1.54.09-3.08.14-4.63a1.27,1.27,0,0,0-.15-.6,1.4,1.4,0,0,1-.14-.61c0-.14,0-.28,0-.42,0-1,.06-2,.08-3a1.2,1.2,0,0,0-.11-.61,1.22,1.22,0,0,1-.16-.6c0-.42,0-.84,0-1.26.09-2.95.24-5.89.38-8.84,0-.42,0-.84.05-1.26a1.59,1.59,0,0,0-.16-.81A.86.86,0,0,1,.2,20c0-.42,0-.84,0-1.26.09-1.75.15-3.51.18-5.26a1.37,1.37,0,0,0-.15-.6,1.62,1.62,0,0,1-.12-.61c0-1.48.09-2.95.13-4.42a1.92,1.92,0,0,0-.19-1A.68.68,0,0,1,0,6.64C0,6,.12,2.16.19,1.17a.42.42,0,0,1,0-.2A.48.48,0,0,1,.56.74,2,2,0,0,1,1,.7l.84,0L5.61.9c1,0,2.1.11,3.15.2a1.42,1.42,0,0,1,.79.26.78.78,0,0,0,.39.15L12,1.66a1.86,1.86,0,0,1,.8.24,1,1,0,0,0,.59.2l1.25.12a1.64,1.64,0,0,1,.78.29.91.91,0,0,0,.4.14c.27,0,.55.06.83.1a1.31,1.31,0,0,1,.78.28.93.93,0,0,0,.38.17,2.46,2.46,0,0,1,1,.35,1.36,1.36,0,0,0,.6.18,1.43,1.43,0,0,1,.39.15,2,2,0,0,0,.77.32.93.93,0,0,1,.39.15c.34.25.75.36,1.1.6s.64.29.92.51l.39.14a1.56,1.56,0,0,1,.59.22c.34.24.75.37,1.08.63s.6.37.93.5a2.14,2.14,0,0,1,.69.46,3.86,3.86,0,0,0,.86.59c.24.14.47.3.72.42s.46.32.73.43a1.62,1.62,0,0,1,.49.38l.6.6a1.9,1.9,0,0,0,.52.35,1.61,1.61,0,0,1,.34.24,10.46,10.46,0,0,1,.75.74c.71.78,1.42,1.55,2.14,2.32a.93.93,0,0,0,.35.23,1.71,1.71,0,0,1,.73.73,2,2,0,0,0,.43.71c.19.21.37.43.54.65a1.41,1.41,0,0,1,.28.56c.08.34.34.61.41,1a3,3,0,0,0,.34.53l.26.33a.81.81,0,0,1,.1.18,2.49,2.49,0,0,0,.53.9.89.89,0,0,1,.25.56l0,.21c.06.38.06.38.45.64a.58.58,0,0,1,.27.31c.09.27.25.5.35.76a6.71,6.71,0,0,0,.35.77c.15.31.28.63.43.95a1,1,0,0,1,0,.81,1.08,1.08,0,0,1-.11.18c-.16.25-.15.32,0,.54a1,1,0,0,0,.49.38.62.62,0,0,1,.42.64c0,.21,0,.42,0,.63a.64.64,0,0,0,.14.39l.39.49c.14.18.11.34-.11.53a.79.79,0,0,1-.55.27l0,0V28a.41.41,0,0,0-.34-.45,1.94,1.94,0,0,1-.51-.33.58.58,0,0,0-.37-.15.94.94,0,0,0-.41-.68,1,1,0,0,0-.18-.1.29.29,0,0,0-.17.32c0,.26.09.36.36.41a1.43,1.43,0,0,0,.41,0,1.46,1.46,0,0,1-.07.19,2.4,2.4,0,0,1-.44.46,1,1,0,0,0-.4.91c0,.24.08.4.31.48a1.4,1.4,0,0,1,.66.49.26.26,0,0,1,0,.37c-.23.27-.25.66-.5.91a.24.24,0,0,0,0,.37.85.85,0,0,1,.19.58c0,.35,0,.7,0,1.05a1.08,1.08,0,0,0,.21.58,1,1,0,0,1,.1.81c-.06.25-.24.3-.42.13s-.3-.3-.46-.44a.91.91,0,0,0-.78-.19,1.52,1.52,0,0,0-.2.06,1.2,1.2,0,0,0-.34.25c-.2.2-.19.33,0,.46s.36.21.41.41a.4.4,0,0,1-.1.39c-.18.25-.17.26-.07.55a1.29,1.29,0,0,1,0,.19.72.72,0,0,1-.36.2.43.43,0,0,0-.32.25,1.91,1.91,0,0,1-.3.54.65.65,0,0,0-.14.58.5.5,0,0,0,.32.25c.16,0,.24.14.24.26a.36.36,0,0,1-.37.16,1.89,1.89,0,0,0-.41,0c-.06,0-.11.09-.17.13a.83.83,0,0,0,.09.16,1,1,0,0,0,.18.09c.3.15.3.15.37.46l0,0a.41.41,0,0,0-.35.18.5.5,0,0,0,0,.56,1.85,1.85,0,0,1,.19.37,1,1,0,0,1-.05.79,2.64,2.64,0,0,1-.23.35.43.43,0,0,0,.18.67,1.74,1.74,0,0,1,.52.32c.11.09.2.19.3.28A.9.9,0,0,0,38,43l.21,0ZM18,7.4a.3.3,0,0,0,.16.34l.13-.11a.3.3,0,0,0-.32-.2.3.3,0,0,0-.17-.35l-.13.12a.28.28,0,0,0,.33.2M14.17,8.48l.36,0a.48.48,0,0,0,.33-.1A.43.43,0,0,0,15,8.1a.44.44,0,0,0,.44-.34,2.1,2.1,0,0,1,.29-.53c.22-.33.19-.55-.12-.88a.93.93,0,0,0-.15-.13c-.13-.11-.23-.08-.3.1a13.65,13.65,0,0,0-.13,1.81l-.36,0c-.31,0-.41.08-.51.39a.26.26,0,0,0-.3.12c-.05.12,0,.19.14.15s.15-.15.15-.29m1.67.08a.9.9,0,0,0,.67-.4,1,1,0,0,0,.1-.18.29.29,0,0,0-.32-.17c-.24,0-.34.11-.38.38s0,.26,0,.4a.31.31,0,0,0-.33.16l.11.12a.28.28,0,0,0,.19-.31M36.89,27.3a.31.31,0,0,0,.16.33l.12-.11a.27.27,0,0,0-.3-.2.51.51,0,0,0-.12-.38,4,4,0,0,1-.27-.31.23.23,0,0,0-.36,0,1.25,1.25,0,0,0-.39.46.57.57,0,0,0,.34.2,5.56,5.56,0,0,0,.82.05M17.17,10.73h.21a.53.53,0,0,0,.37-.15.91.91,0,0,0-.22-.35A1.16,1.16,0,0,0,17,9.9a.72.72,0,0,1-.36-.2c-.12-.13-.23-.16-.35-.08l-.17.12a.71.71,0,0,0-.22.33.57.57,0,0,0,.34.22,2.18,2.18,0,0,1,.52.33.68.68,0,0,0,.39.11m-9.56-3a2.81,2.81,0,0,0,.41,0,.33.33,0,0,0,.15-.12.41.41,0,0,0,.09-.36A.37.37,0,0,0,8,7a1.79,1.79,0,0,0-.61,0,.43.43,0,0,0-.24.29.28.28,0,0,0,.11.35.57.57,0,0,0,.36.13m-2.88-1c-.33,0-.47,0-.6,0s-.24.1-.24.21.09.11.15.13a2.67,2.67,0,0,1,1,.32c.14.14.24.12.32-.07s0-.48-.18-.52l-.4-.1m32.74,14.1a.75.75,0,0,0-.09-.15.78.78,0,0,0-.78-.06.81.81,0,0,0-.12.14,1.11,1.11,0,0,0,.22.34c.11.12.22.19.34.16s.43-.31.43-.43m-33-16-.15-.15a.5.5,0,0,0-.38.1.38.38,0,0,0-.13.36c0,.06.07.11.11.17a.59.59,0,0,0,.36-.16.47.47,0,0,0,.19-.32M38.33,22.35a.35.35,0,0,0-.12-.35l-.18.08a.89.89,0,0,0-.29.26l-.11.17a.38.38,0,0,0,.33.18c.25,0,.35-.07.37-.34m-31-12.5a.38.38,0,0,0-.14-.32.34.34,0,0,0-.2.29.29.29,0,0,0,.14.31.29.29,0,0,0,.2-.28m30.8,14.4a.24.24,0,0,0,.16-.31.27.27,0,0,0-.21-.24.24.24,0,0,0-.15.31c0,.15.08.23.2.24M35.2,40.58s.12-.08.15-.14a.3.3,0,0,0,0-.21c0-.19-.14-.23-.25-.12a.33.33,0,0,0-.07.18c0,.16,0,.26.17.29M11.83,11.84a.28.28,0,0,0,0-.2c-.06-.21-.17-.23-.26-.08a.45.45,0,0,0-.05.19c0,.18.05.26.18.25a.57.57,0,0,0,.11-.16m.22-4.77a1.56,1.56,0,0,0,.2,0A.53.53,0,0,0,12.4,7c0-.1-.05-.16-.19-.21a.29.29,0,0,0-.33.09.21.21,0,0,0,.17.22M14,7.13c.18-.06.19-.14,0-.25L13.9,7l.1.14m6.23.59.13.1,0-.15Zm-9.94.39c0-.17-.12-.19-.21,0l.09.13.12-.1m11.78.56-.13-.09,0,.15Zm-7-3.7L15,4.87l0,.16ZM11.86,8.49l-.09.13.15,0Zm.85,0-.13.09c.05.16.13.18.23,0l-.1-.12M33.94,40.35l-.09.13.14,0ZM14.66,9.14l.14.09,0-.15Zm3,.27c.18-.05.19-.13,0-.23l-.13.1.09.13M37,30.49l-.13-.1,0,.15Zm.67-.83.14.09,0-.15ZM21.16,10.32c-.06-.17-.13-.18-.23,0a1.47,1.47,0,0,1,.1.13l.13-.1M5.43,10.08c.17-.05.18-.12,0-.22l-.12.1.08.12m0,8.43q.25-.07,0-.21l-.12.09.09.12M4.9,15c-.05-.17-.12-.18-.22,0l.1.12L4.9,15m7.16-1.89-.09.14.14,0Zm-4.51-.52c0-.17-.13-.18-.23,0a1.47,1.47,0,0,1,.1.13l.13-.1m-1,0q.24-.08,0-.21l-.12.09.09.12M41.87,30.88a.54.54,0,0,0,.27-.29,1.26,1.26,0,0,0,0-.61A.67.67,0,0,0,42,29.8c-.05,0-.12.07-.15.13s-.1.37-.34.39c-.19-.16-.12-.38-.13-.58a.55.55,0,0,1,.12-.39c0-.05.06-.12.1-.17s.1-.25-.07-.33a.34.34,0,0,0-.2,0,.37.37,0,0,0-.29.25c-.09.34-.07.69-.15,1,0,.17-.16.22-.28.16l-.19-.1-.17,0a.28.28,0,0,0-.12.36.39.39,0,0,0,.27.27,4.41,4.41,0,0,0,.89.13l.55,0m1.35,3.05a.54.54,0,0,0-.18-.35,4,4,0,0,1-.72-.42.45.45,0,0,0-.39-.06c-.21.07-.2.19.06.49.09.11.19.2.27.31a.81.81,0,0,1,.17.38c0,.2,0,.41.08.61s.16.21.3.24.27,0,.33-.17a2.11,2.11,0,0,0,.09-.62c0-.13,0-.27,0-.41M43.51,37a.79.79,0,0,0-.07-.4c-.12-.25-.22-.51-.34-.76,0,0-.09-.05-.13-.08l-.14.15a1.43,1.43,0,0,0,.06.82,2.28,2.28,0,0,1,.26,1,.27.27,0,0,0,.19.28c0-.06.11-.11.12-.17s0-.27,0-.41,0-.28,0-.42M33.45,11.52a.54.54,0,0,0,.15.37l1,1.08a.48.48,0,0,0,.16.12.88.88,0,0,0,.17,0,.33.33,0,0,0,.06-.37.81.81,0,0,0-.1-.18c-.18-.21-.36-.41-.53-.63a1.07,1.07,0,0,0-.92-.37Zm7.19,16.84a.87.87,0,0,1-.51-.3.47.47,0,0,0-.55-.08c-.14.05-.17.19-.15.34a.37.37,0,0,0,.19.33,1.28,1.28,0,0,0,.39.07.6.6,0,0,0,.39-.09.38.38,0,0,0,.21-.31ZM38.93,40.55h-.2c-.28,0-.35.1-.32.37a.32.32,0,0,0,.18.31.5.5,0,0,0,.38,0,.25.25,0,0,0,.14-.33.46.46,0,0,0-.18-.33m3.43-8.65a.34.34,0,0,0-.2.29.27.27,0,0,0,.14.31.27.27,0,0,0,.19-.27.4.4,0,0,0-.13-.33M40,43.28l.11.13.14-.1c-.06-.17-.14-.18-.25,0m-.79,0,.16,0-.06-.15Zm-1-.3a.32.32,0,0,0,.35-.17l-.12-.13a.29.29,0,0,0-.2.33Zm4.89-2,.15,0-.06-.16Zm-5.93-.33.1.14.14-.1c-.06-.19-.14-.2-.24,0m0-1.06a.32.32,0,0,0,.16.33l.12-.1a.28.28,0,0,0-.31-.2Zm-.4-.45c0,.31.12.39.4.45l0,0a.36.36,0,0,0-.11-.3.4.4,0,0,0-.29-.14ZM33.41,11.56a.32.32,0,0,0-.14-.31l-.11.08a.35.35,0,0,0,.29.19Z" transform="translate(0 0)"/><path class="cls-4" d="M76.56,44.2H67.5a1.78,1.78,0,0,1-1-.24.54.54,0,0,0-.19-.07h-.21c-1.69,0-3.37,0-5.06,0a1.48,1.48,0,0,0-.6.15,1.24,1.24,0,0,1-.8.2l-1.27,0a1.39,1.39,0,0,1-.6-.17,1,1,0,0,0-.39-.13h-.21c-1.69,0-3.37,0-5.06,0l-1.26,0a1.52,1.52,0,0,0-.59.19,1.9,1.9,0,0,1-.4.14,3.62,3.62,0,0,1-1,.07,1.12,1.12,0,0,1-.75-.33c-.17-.19-.22-.32-.09-.55a1.48,1.48,0,0,0,.15-.61V40.25a1,1,0,0,0-.16-.6,1.91,1.91,0,0,1-.18-.81c0-2,0-3.94,0-5.9q0-4.95,0-9.9a1.7,1.7,0,0,1,.21-.8c0-.07.07-.13.09-.19a.75.75,0,0,0,0-.21c0-2.88.06-5.76,0-8.64a1.7,1.7,0,0,0-.19-.59,1,1,0,0,1-.11-.4l0-3c0-2.6-.05-5.2-.05-7.79a6.11,6.11,0,0,1,0-1A.53.53,0,0,1,48,.08c.14,0,.27,0,.41-.06.42,0,.84,0,1.27,0,1.4.05,2.8.06,4.21.08a1.57,1.57,0,0,1,.6.16c.39.19.4.19.59.19L56.76.5a1.6,1.6,0,0,1,.61.14A1.4,1.4,0,0,0,58,.85c.35,0,.7.05,1,.07a1.26,1.26,0,0,1,.59.2.92.92,0,0,0,.39.14l1,.08a1.44,1.44,0,0,1,.6.18,1.52,1.52,0,0,0,.59.19l.63.07a.9.9,0,0,1,.39.13,1.49,1.49,0,0,0,.79.24l.21,0a1.35,1.35,0,0,1,.8.24,1.61,1.61,0,0,0,.59.18,1.52,1.52,0,0,1,.6.2A2,2,0,0,0,67,3a.92.92,0,0,1,.39.14c.29.2.65.26.95.45a1.62,1.62,0,0,0,.37.19,2.44,2.44,0,0,1,.56.28,2.64,2.64,0,0,0,.37.2,1.65,1.65,0,0,1,.37.2c.23.16.53.2.75.37s.33.26.5.39a2.26,2.26,0,0,0,.55.3c.19.08.36.22.55.31a3.72,3.72,0,0,1,.57.27c.23.16.51.22.74.39s.33.26.49.39a1.75,1.75,0,0,0,.54.32l.19.1.17.12.79.7a4,4,0,0,0,.71.43,3.73,3.73,0,0,1,.65.54,5.64,5.64,0,0,0,.65.54A4.77,4.77,0,0,1,79.5,11l.14.15.15.16a7.26,7.26,0,0,1,.69.78c.08.12.13.26.2.38a.66.66,0,0,0,.12.17l.72.76,1,1a4,4,0,0,1,1,1.32.48.48,0,0,0,.12.17l.41.48a3.32,3.32,0,0,1,.72,1,6.13,6.13,0,0,0,.38.51,2.9,2.9,0,0,1,.44.71,2.47,2.47,0,0,0,.48.68,1.57,1.57,0,0,1,.33.54,1.31,1.31,0,0,0,.21.36,6.12,6.12,0,0,1,.4.49c.2.29.32.62.51.92s.2.52.36.75.3.64.49.93.2.52.36.76a1.56,1.56,0,0,1,.19.6,1.59,1.59,0,0,0,.2.59,1.52,1.52,0,0,1,.22.58,1.81,1.81,0,0,0,.27.79,1.06,1.06,0,0,1,.13.39,2.26,2.26,0,0,0,.25.8,1.21,1.21,0,0,1,.19.59,1.82,1.82,0,0,0,.27.79.93.93,0,0,1,.12.4c0,.28,0,.56,0,.84a1.47,1.47,0,0,0,.24.79.82.82,0,0,1,.13.4l.06.63a1.17,1.17,0,0,0,.18.59,1.4,1.4,0,0,1,.18.6c0,.56,0,1.12,0,1.68l0,1.69a1.84,1.84,0,0,0,0,.41,1.93,1.93,0,0,0,.19.38,1.17,1.17,0,0,1,.12.61,1,1,0,0,1-.19.59.68.68,0,0,0,0,.78c.13.22.13.23,0,.56a1.34,1.34,0,0,0-.11.62.63.63,0,0,0,.1.4,1.57,1.57,0,0,1,.26,1c0,.42,0,.84,0,1.26a.45.45,0,0,1-.24.32l-.63.06-4,.06a.83.83,0,0,0-.41.1l-.18.1a1.19,1.19,0,0,1-.41.11l-1.68,0ZM54.47,3.31v.74a.63.63,0,0,0,.25.53.92.92,0,0,0,.59,0,.59.59,0,0,0,.33-.21.55.55,0,0,0,0-.38.54.54,0,0,0-.32-.23c-.28-.13-.28-.14-.4-.43a.49.49,0,0,0-.23-.29c-.17.15-.19.35-.19.22M53,4.12a.31.31,0,0,0,.18-.29A.38.38,0,0,0,53,3.52a.33.33,0,0,0-.18.3.28.28,0,0,0,.16.3M55.11,6,55,6.17l.15,0Zm.81.61L56,6.52l-.15,0ZM52.56,13l.09-.13-.15,0Zm-.1,2.83c.06.15.13.16.22,0s-.06-.1-.1-.1-.08,0-.12.07M52,17.9c.06.17.14.17.23,0l-.11-.12L52,17.9m.85,1.28.14.09,0-.15ZM56.35,21l.1-.13-.16,0ZM82.67,13.1a1.33,1.33,0,0,0,0-.2,1,1,0,0,0-.19-.58c-.23-.26-.45-.52-.69-.76a.57.57,0,0,0-.37-.16h0c0,.42,0,.58.21.77l.7.73a.57.57,0,0,0,.36.18ZM77.62,8a.39.39,0,0,0-.19-.29l-.09.1a.51.51,0,0,0,.3.17Zm.42.43a.47.47,0,0,0-.27-.38L77.62,8l0,0a.51.51,0,0,0,.43.41Zm0,0a.34.34,0,0,0,.2.3l.09-.1A.38.38,0,0,0,78,8.47Zm2.49,2.14a.27.27,0,0,0-.17-.29.94.94,0,0,0-.1.1.34.34,0,0,0,.31.16Zm0,0a.38.38,0,0,0,.1.31A.35.35,0,0,0,81,11v0c0-.29-.13-.38-.44-.42Zm.82.86c0-.29-.13-.38-.42-.41v0a.37.37,0,0,0,.11.31.32.32,0,0,0,.31.11Zm1.67,2.12a.41.41,0,0,0-.12-.3.33.33,0,0,0-.3-.12l0,0a.45.45,0,0,0,.42.42Zm0,0a.4.4,0,0,0,.17.32l.11-.11a.32.32,0,0,0-.31-.18Z" transform="translate(0 0)"/><path class="cls-5" d="M11.82,47.4l9.89,0h1.05a1.54,1.54,0,0,1,.81.22.77.77,0,0,0,.4.1c2.1,0,4.2.1,6.31.09H32c.91,0,1.82,0,2.74,0a1.36,1.36,0,0,1,.59.18,1,1,0,0,0,.4.13c1.2,0,4.39.06,5.68,0A1,1,0,0,0,42,48a2.55,2.55,0,0,1,.8-.24.87.87,0,0,0,.39-.14c.31-.19.32-.18.53,0l.48.41c.16.14.39.16.55.29a.33.33,0,0,1,.12.37,1.17,1.17,0,0,1-.17.38,1.07,1.07,0,0,0-.15.6c0,.28,0,.56,0,.84s0,.7,0,1.05c0,.71-.05,1.41,0,2.11s0,1.26,0,1.89,0,1.12,0,1.68c0,.14,0,.28,0,.42a1.92,1.92,0,0,1-.24,1.22,1.26,1.26,0,0,0,.14.38,1.16,1.16,0,0,1,.09.61c0,.84,0,1.69,0,2.53a1.37,1.37,0,0,1-.19.59.73.73,0,0,0,0,.79.32.32,0,0,1,0,.39,1.61,1.61,0,0,0-.2.8c0,1.06,0,2.11,0,3.16,0,.42,0,.84,0,1.26a1.57,1.57,0,0,1-.21.8.75.75,0,0,0-.12.4c0,.77,0,1.55,0,2.32q0,1.78,0,3.57,0,5.05,0,10.1a1.61,1.61,0,0,0,.19.81A1.16,1.16,0,0,1,44,88c0,1.12,0,2.24,0,3.36a1.49,1.49,0,0,1,0,.21.55.55,0,0,1-.22.34c-.14,0-.28,0-.42,0-.35,0-.7,0-1,0-1.19,0-2.39,0-3.58,0a1.3,1.3,0,0,0-.58.2,1.25,1.25,0,0,1-.61.14,1,1,0,0,1-.6-.14,1.4,1.4,0,0,0-.58-.21L35.73,92a.88.88,0,0,1-.4-.11L35,91.67l-.63-.06a1.39,1.39,0,0,1-.79-.23,1.4,1.4,0,0,0-.58-.21,1.82,1.82,0,0,1-.79-.27,1,1,0,0,0-.4-.12l-.63-.06a1.35,1.35,0,0,1-.59-.21,1.14,1.14,0,0,0-.39-.14c-.21,0-.42-.05-.63-.06a1.39,1.39,0,0,1-.6-.17,1.31,1.31,0,0,0-.79-.21c-.35,0-.7,0-1.05,0a1.68,1.68,0,0,1-.79-.26.73.73,0,0,0-.4-.13l-.63,0a1.13,1.13,0,0,1-.74-.34c-.44-.39-.37-.39-.9-.47a1.55,1.55,0,0,1-.59-.21,1.33,1.33,0,0,0-.38-.18,1.5,1.5,0,0,1-.71-.43,1,1,0,0,0-.15-.14c-.11-.09-.23-.16-.34-.24a10.2,10.2,0,0,1-.93-.48,1.3,1.3,0,0,1-.37-.19l-.33-.27a2.72,2.72,0,0,0-.72-.42c-.27-.09-.47-.3-.74-.39s-.48-.29-.74-.4a1.84,1.84,0,0,1-.54-.32l-.62-.56a2.41,2.41,0,0,0-.71-.46,1.27,1.27,0,0,1-.34-.23l-.92-.86a2.43,2.43,0,0,0-.86-.6.66.66,0,0,1-.17-.12,6.81,6.81,0,0,1-1.06-1,1.93,1.93,0,0,1-.34-.53,1.27,1.27,0,0,0-.23-.34c-.47-.52-.95-1-1.43-1.55A2.55,2.55,0,0,1,9.93,78a1.91,1.91,0,0,0-.24-.34l-.87-.92a2.3,2.3,0,0,1-.58-.86A2.93,2.93,0,0,0,8,75.55c-.23-.27-.47-.53-.69-.8a1.18,1.18,0,0,1-.23-.35c-.11-.26-.3-.47-.4-.73a3.43,3.43,0,0,0-.56-.89,1.37,1.37,0,0,1-.25-.33,8.25,8.25,0,0,0-.49-.93A1.87,1.87,0,0,0,5,70.8a2.41,2.41,0,0,1-.53-.9c-.2-.29-.29-.64-.47-.93s-.28-.65-.47-.94a1.73,1.73,0,0,1-.27-.79.91.91,0,0,0-.16-.38c-.22-.36-.31-.78-.53-1.14a.93.93,0,0,1-.12-.4,1.44,1.44,0,0,0-.18-.6A1.85,1.85,0,0,1,2,63.93a.92.92,0,0,0-.14-.39c-.24-.35-.34-.77-.55-1.13a.48.48,0,0,1-.07-.2c0-.28,0-.56-.05-.84s0-.7,0-1a1.84,1.84,0,0,0-.05-.41,1.69,1.69,0,0,0-.19-.38,1.44,1.44,0,0,1-.15-.6c0-.57,0-1.13-.06-1.69a1.4,1.4,0,0,0-.18-.59A1.41,1.41,0,0,1,.34,56c-.05-2.45-.13-4.9,0-7.36,0-.35,0-.7,0-1a.54.54,0,0,1,.34-.22,3,3,0,0,1,.42,0H3.62l8.2,0ZM39.1,69.24c0,.23.06.34.31.38s.35-.05.39-.3,0-.35-.31-.38-.35,0-.39.3m1.57,5.48c0-.14-.08-.21-.2-.21s-.11.07-.13.12a.34.34,0,0,0,.07.34.39.39,0,0,0,.13.06.24.24,0,0,0,.13-.31m-3.52.15-.09.12.15,0Zm2.1-2.56-.13.1c.06.17.15.18.25,0l-.12-.12m.11-1.13-.09-.12c-.16.06-.17.13,0,.22l.12-.1M33,69.08,32.93,69c-.16,0-.17.12,0,.2l.12-.09M11.22,81.5a1,1,0,0,0-.21-.76L9.9,79.55a.49.49,0,0,0-.36-.15v0c0,.07,0,.14,0,.21a1,1,0,0,0,.2.57,9.6,9.6,0,0,0,1.12,1.18.53.53,0,0,0,.38.14Zm-2.5-3.39c0,.12,0,.23,0,.35a.55.55,0,0,0,.11.33.39.39,0,0,0,.29.16l0,0a1.12,1.12,0,0,0,0-.41.53.53,0,0,0-.39-.43Zm6.7,6.77a.48.48,0,0,0-.42-.39,1.49,1.49,0,0,0-.42,0l0,0a.48.48,0,0,0,.49.4h.35ZM8.26,77.72a.39.39,0,0,0-.17-.33L8,77.5a.3.3,0,0,0,.31.18Zm.43.42a.5.5,0,0,0-.43-.42l0,0a.84.84,0,0,0,.05.17.4.4,0,0,0,.38.26Zm7.19,7.13a.32.32,0,0,0,.19.3.47.47,0,0,1,.1-.1.41.41,0,0,0-.32-.17Zm0,0a.45.45,0,0,0-.43-.42l0,0a.34.34,0,0,0,.11.3.51.51,0,0,0,.31.13Zm-1.27-.84a.32.32,0,0,0-.12-.29.46.46,0,0,0-.3-.13l0,0a.48.48,0,0,0,.43.42Zm-.8-.88A.38.38,0,0,0,14,84l.16,0,0,0a.46.46,0,0,0-.42-.42Zm0,0a.36.36,0,0,0-.2-.31l-.1.12a.32.32,0,0,0,.34.15Zm-1.23-.88a.32.32,0,0,0,.2.32,1.47,1.47,0,0,1,.1-.13.31.31,0,0,0-.33-.15Zm0,0c0-.3-.11-.38-.42-.42l0,0c.05.29.13.36.42.42Zm-.81-.88a.45.45,0,0,0,.42.42l0,0a.46.46,0,0,0-.13-.3.41.41,0,0,0-.3-.12Zm-.43-.42a.4.4,0,0,0,.26.38l.17,0,0,0a.41.41,0,0,0-.11-.32.33.33,0,0,0-.3-.12ZM9.54,79.4a.45.45,0,0,0-.12-.32.35.35,0,0,0-.31-.1l0,0a.41.41,0,0,0,.12.31.32.32,0,0,0,.3.12Z" transform="translate(0 0)"/><path class="cls-6" d="M91.71,56.68v7.37c0,.42,0,.84,0,1.26a1.19,1.19,0,0,0,.2.59.8.8,0,0,1,0,.79,1,1,0,0,0-.19.59,4.42,4.42,0,0,0,0,.63,1.17,1.17,0,0,0,.13.4c.14.27.15.28,0,.57a1.16,1.16,0,0,0-.15.6c0,.84,0,1.68,0,2.52,0,.2,0,.2.2.59a.8.8,0,0,1,0,.79,1.1,1.1,0,0,0-.2.59c0,.21,0,.42,0,.63,0,.77,0,1.54,0,2.31v2.32c0,1.82,0,3.65,0,5.47a7.85,7.85,0,0,0,0,.84.86.86,0,0,1-.37.71c-.16.16-.33.13-.53-.06a1.82,1.82,0,0,1-.41-.73.26.26,0,0,0-.15-.14.61.61,0,0,0-.4,0,.62.62,0,0,0-.17.11.36.36,0,0,1-.54,0,5.3,5.3,0,0,0-.9-.87.44.44,0,0,0-.4-.07,1.58,1.58,0,0,0-.36.2.57.57,0,0,1-.59,0,.39.39,0,0,1-.21-.34c-.12-.28-.18-.3-.44-.14a.6.6,0,0,1-.76,0,.87.87,0,0,0-.37-.19.45.45,0,0,0-.39.08,1.36,1.36,0,0,0-.53.63.51.51,0,0,1-.2.36,1.2,1.2,0,0,1-.38-.15c-.27-.13-.34-.14-.58,0a1.2,1.2,0,0,1-.77.26,3,3,0,0,0-.42,0,1.23,1.23,0,0,0-.59.18,1.06,1.06,0,0,1-.79.24H80a.86.86,0,0,0-.56.26,4.69,4.69,0,0,0-.6.58,8.38,8.38,0,0,0-.85.93c-.09.13,0,.24.14.29a4.89,4.89,0,0,1,1.17.4.65.65,0,0,0,.2,0c.14,0,.28,0,.42.06s.26.11.25.23a.36.36,0,0,1-.1.18,1,1,0,0,1-.32.26,4.45,4.45,0,0,0-.75.39.82.82,0,0,1-.59.14c-.42,0-.84,0-1.26,0a1.24,1.24,0,0,1-.6-.18c-.23-.16-.52-.21-.76-.36a1.54,1.54,0,0,0-.78-.26c-.14,0-.28,0-.42,0a1.23,1.23,0,0,1-.59-.21,1.34,1.34,0,0,0-.59-.2,1.31,1.31,0,0,1-.6-.18c-.35-.22-.78-.31-1.12-.55a.77.77,0,0,0-.4-.11,1.24,1.24,0,0,1-.76-.32,4.15,4.15,0,0,0-.32-.27,1,1,0,0,0-.37-.21,6.45,6.45,0,0,1-.74-.38,3.68,3.68,0,0,1-.57-.26A3.29,3.29,0,0,0,68,85.6c-.19-.09-.35-.23-.54-.32a3,3,0,0,1-.57-.27c-.23-.16-.52-.21-.76-.36s-.36-.21-.55-.3-.49-.27-.74-.38a1.43,1.43,0,0,1-.37-.19l-.78-.71a1.88,1.88,0,0,0-.71-.44,1.72,1.72,0,0,1-.34-.24c-.4-.39-.8-.79-1.21-1.17-.67-.62-1.28-1.3-1.91-2a1,1,0,0,1-.21-.36,1.27,1.27,0,0,0-.34-.52l-2.66-2.7a1.41,1.41,0,0,1-.35-.52,1.09,1.09,0,0,0-.19-.37l-.42-.47c-.45-.44-.89-.9-1.3-1.38a.62.62,0,0,1-.11-.17,2.38,2.38,0,0,0-.43-.72,2.21,2.21,0,0,1-.56-.88,4.07,4.07,0,0,1-.49-.92,2.41,2.41,0,0,1-.36-.76c-.26-.34-.35-.76-.58-1.11a1.62,1.62,0,0,1-.24-.8,1.14,1.14,0,0,0-.14-.39,1.36,1.36,0,0,1-.22-.59,1.65,1.65,0,0,0-.26-.79,1.22,1.22,0,0,1-.16-.6l-.06-.84a1.22,1.22,0,0,0-.17-.59A1.12,1.12,0,0,1,50,63.2a3,3,0,0,0,0-.42,1.93,1.93,0,0,0,0-.42,1.44,1.44,0,0,0-.19-.37.8.8,0,0,1-.14-.39c0-.35,0-.7,0-1.05a1.12,1.12,0,0,0-.19-.59,1.32,1.32,0,0,1-.22-.58,1.32,1.32,0,0,0-.27-.78,1.14,1.14,0,0,1-.14-.39,1.89,1.89,0,0,0-.23-.8,1.25,1.25,0,0,1-.16-.6c0-1.55-.05-3.09-.07-4.63a1.5,1.5,0,0,0-.16-.61A1.35,1.35,0,0,1,48,51c0-.35,0-.7,0-1a1,1,0,0,1,.12-.4,1.93,1.93,0,0,0,.27-.56,1.08,1.08,0,0,1,.08-.19l.21-.37a3.08,3.08,0,0,1-.16-.38c0-.12.06-.21.24-.23a4.2,4.2,0,0,1,.62-.06l1.27,0a1.3,1.3,0,0,0,.6-.15,1.41,1.41,0,0,1,.81-.18h.63a1.36,1.36,0,0,1,.81.19.81.81,0,0,0,.39.12c.63,0,1.27,0,1.9,0a1.27,1.27,0,0,0,.59-.18.84.84,0,0,1,.8,0,1.27,1.27,0,0,0,.6.18c1.4,0,2.8,0,4.21,0l3.15,0c.84,0,1.69,0,2.53,0,.63,0,1.26,0,1.89,0a2,2,0,0,1,.42.05,1.48,1.48,0,0,1,.37.2.78.78,0,0,0,.39.12c.28,0,.56,0,.84,0,2,0,3.93,0,5.9,0l1.26,0h1.89c1,0,2,0,3,0,.23,0,.25,0,.59-.18a1.11,1.11,0,0,1,.59-.19c.42,0,.84,0,1.26,0h4.21a1.09,1.09,0,0,1,.6.17c.24.14.24.13.55,0,.15-.1.26-.06.27.15s0,.56,0,.84c0,1.4,0,2.8,0,4.21,0,1.19.06,2.38,0,3.57m-20.23-6a.3.3,0,0,0-.33.18l.13.12a.29.29,0,0,0,.18-.33h.45a4.94,4.94,0,0,0,0,.86.31.31,0,0,0-.29.14.15.15,0,0,0,0,.13.3.3,0,0,0,.3.13.49.49,0,0,1-.39.41c-.14,0-.28,0-.41,0-.28,0-.37.11-.41.36a1.49,1.49,0,0,0,0,.21,3.59,3.59,0,0,1,.4.72c.07.25.25.28.44.11a1.15,1.15,0,0,0,.34-.5,1.05,1.05,0,0,1,.17-.37l.53-.64a1.19,1.19,0,0,0,.11-1,1.39,1.39,0,0,0-.42-.45.5.5,0,0,0-.37-.15.28.28,0,0,0-.13-.29.15.15,0,0,0-.13,0,.3.3,0,0,0-.14.29M73.09,54a.41.41,0,0,0-.19-.32,1.34,1.34,0,0,0-.2,0c-.27,0-.34.11-.32.38s.11.35.38.32.37-.13.33-.38m-.4,3.84a.26.26,0,0,0-.15-.31.58.58,0,0,0-.18.08.78.78,0,0,0-.27.27l-.09.16a.32.32,0,0,0,.33.15c.25,0,.34-.09.36-.35m-.52-2.7a.61.61,0,0,0-.27-.45c-.12-.12-.24-.13-.32,0a.49.49,0,0,0-.06.17c0,.29.19.45.49.42,0,0,.1-.07.16-.1m10,29.5c.09,0,.29-.09.45-.27s.12-.24,0-.31a.35.35,0,0,0-.17-.06.38.38,0,0,0-.41.48c0,.06.07.11.1.16m7.27-.93c-.05,0-.08-.12-.14-.15a.38.38,0,0,0-.21,0c-.17,0-.22.15-.12.25a.33.33,0,0,0,.17.07.23.23,0,0,0,.3-.18M75.49,52.21c.05,0,.12-.08.14-.14a.34.34,0,0,0,0-.2c0-.18-.15-.23-.26-.13a.33.33,0,0,0-.07.17.24.24,0,0,0,.18.3m1.83.21c-.14,0-.22.08-.2.19a.2.2,0,0,0,.12.13.4.4,0,0,0,.34-.07.52.52,0,0,0,.06-.13.24.24,0,0,0-.32-.12m-6.43,2.22-.13-.14a.44.44,0,0,0-.34.09c-.11.09-.08.19.08.25a.34.34,0,0,0,.35-.07s0-.08,0-.13m4.33,4.06a.42.42,0,0,0-.15-.32.34.34,0,0,0-.19.3A.28.28,0,0,0,75,59a.26.26,0,0,0,.18-.28m-1.45,1.57.09-.14H73.7Zm.75-3.49.14.09,0-.15Zm-5.8-1.55c.19-.07.19-.15,0-.25l-.14.12.12.13m11.5-.95-.14-.09,0,.15ZM76,53.86l-.1-.13c-.17.06-.18.14,0,.23l.12-.1m10.51-.42c0-.17-.13-.18-.22,0l.1.12.12-.1M59.9,74l-.09.13.15,0Zm28.19,9.48c.18-.06.18-.13,0-.22l-.12.1.1.12M76.75,87l-.1.13.16,0Zm7.56,1.53c.14,0,.28,0,.41,0h.21a.44.44,0,0,0,.34-.19.45.45,0,0,0-.34-.18c-.69,0-1.38,0-2.07-.07a.88.88,0,0,1-.38-.14c-.21-.13-.33-.12-.54.07a1,1,0,0,0-.25.33.5.5,0,0,0,.35.16,7.41,7.41,0,0,0,1.49,0h.78m3.94,1.89a.64.64,0,0,0,0-.37.27.27,0,0,0-.15-.13.87.87,0,0,0-.77,0s-.06.09-.1.13a1,1,0,0,0,.37.46.34.34,0,0,0,.37.09.49.49,0,0,0,.31-.22m-2.36-5,.1.12.13-.09c-.06-.17-.14-.18-.23,0m-4.9,3,0-.12-.15,0ZM72.17,51.81a.13.13,0,0,0,0-.12.38.38,0,0,0-.28-.17c0,.15,0,.3,0,.44a.36.36,0,0,0,.29-.15" transform="translate(0 0)"/></g></g></g></g></svg>