<svg xmlns="http://www.w3.org/2000/svg" xmlns:xlink="http://www.w3.org/1999/xlink" viewBox="0 0 93.56 92.73"><defs><style>.cls-1{fill:none;}.cls-2{clip-path:url(#clip-path);}.cls-3{fill:#45c2b1;}.cls-4{fill:#870f54;}.cls-5{fill:#ffc557;}.cls-6{fill:#aada91;}</style><clipPath id="clip-path" transform="translate(0 0)"><rect class="cls-1" width="93.56" height="92.73"/></clipPath></defs><g id="Layer_2" data-name="Layer 2"><g id="Layer_1-2" data-name="Layer 1"><g id="motivation-icon"><g class="cls-2"><path class="cls-3" d="M36.28,91.1H28.91l-1.26,0a1.26,1.26,0,0,0-.59.2.77.77,0,0,1-.79,0,1,1,0,0,0-.59-.19,4.42,4.42,0,0,0-.63,0,1.38,1.38,0,0,0-.39.13c-.28.14-.29.15-.57,0a1.2,1.2,0,0,0-.61-.15l-2.52,0c-.2,0-.2,0-.58.2a.81.81,0,0,1-.8,0,1.09,1.09,0,0,0-.58-.2H13.74c-1.83,0-3.65,0-5.48,0H7.42a.86.86,0,0,1-.71-.37c-.16-.16-.13-.33.07-.53a1.85,1.85,0,0,1,.72-.41.31.31,0,0,0,.15-.15.55.55,0,0,0,0-.4A.62.62,0,0,0,7.54,89a.37.37,0,0,1,0-.54,5.35,5.35,0,0,0,.88-.9.47.47,0,0,0,.06-.4,1.07,1.07,0,0,0-.2-.36.57.57,0,0,1-.05-.59A.4.4,0,0,1,8.61,86c.28-.12.31-.18.15-.44a.59.59,0,0,1,0-.76.87.87,0,0,0,.19-.37.45.45,0,0,0-.07-.39,1.43,1.43,0,0,0-.64-.53.44.44,0,0,1-.35-.2A1,1,0,0,1,8,83c.14-.27.14-.34,0-.58a1.2,1.2,0,0,1-.26-.77,3,3,0,0,0,0-.42,1.37,1.37,0,0,0-.19-.59,1.06,1.06,0,0,1-.23-.79,3,3,0,0,1,0-.42.85.85,0,0,0-.25-.55,4.87,4.87,0,0,0-.59-.61,9.26,9.26,0,0,0-.92-.85c-.14-.09-.25-.05-.29.14a5.13,5.13,0,0,1-.41,1.17,1.17,1.17,0,0,0,0,.2c0,.14,0,.28-.06.42s-.11.26-.23.25a.41.41,0,0,1-.18-.1,1,1,0,0,1-.26-.32,4.69,4.69,0,0,0-.38-.74.92.92,0,0,1-.15-.6c0-.42,0-.84,0-1.26a1.06,1.06,0,0,1,.18-.6c.15-.23.2-.52.35-.76a1.54,1.54,0,0,0,.26-.78c0-.14,0-.28,0-.42a1.34,1.34,0,0,1,.2-.59,1.34,1.34,0,0,0,.2-.59A1.5,1.5,0,0,1,5,72.2c.22-.36.31-.79.56-1.13a.88.88,0,0,0,.11-.4A1.21,1.21,0,0,1,6,69.91l.27-.32a1.2,1.2,0,0,0,.2-.37,6.45,6.45,0,0,1,.38-.74,3.68,3.68,0,0,1,.26-.57,3,3,0,0,0,.28-.57c.08-.19.23-.35.31-.54A3,3,0,0,1,8,66.23c.17-.23.21-.52.36-.76a5.86,5.86,0,0,0,.3-.55c.11-.26.27-.49.38-.74a1.2,1.2,0,0,1,.2-.37L9.9,63a2,2,0,0,0,.43-.71,2.08,2.08,0,0,1,.24-.34c.4-.4.79-.8,1.17-1.21.63-.67,1.3-1.28,2-1.91a1,1,0,0,1,.36-.21,1.21,1.21,0,0,0,.52-.34l2.7-2.66a1.41,1.41,0,0,1,.52-.35,1,1,0,0,0,.37-.19l.47-.42c.44-.45.9-.89,1.38-1.3a.54.54,0,0,1,.18-.11,2.25,2.25,0,0,0,.71-.43,2.21,2.21,0,0,1,.88-.56,4.29,4.29,0,0,1,.92-.49,2.78,2.78,0,0,1,.76-.36c.34-.26.76-.35,1.11-.58a1.77,1.77,0,0,1,.8-.24,1.07,1.07,0,0,0,.39-.14,1.5,1.5,0,0,1,.59-.22,1.65,1.65,0,0,0,.79-.26,1.25,1.25,0,0,1,.6-.16l.84-.06a1.22,1.22,0,0,0,.59-.17,1,1,0,0,1,.58-.21l.42,0a2.85,2.85,0,0,0,.42,0,1.33,1.33,0,0,0,.37-.2.84.84,0,0,1,.39-.14l1,0a1.12,1.12,0,0,0,.59-.19,1.46,1.46,0,0,1,.58-.22,1.43,1.43,0,0,0,.79-.26.93.93,0,0,1,.39-.15,1.81,1.81,0,0,0,.79-.23,1.15,1.15,0,0,1,.61-.15l4.63-.08a1.28,1.28,0,0,0,.6-.16,1.49,1.49,0,0,1,.6-.17c.35,0,.7,0,1,0a.83.83,0,0,1,.4.11,1.93,1.93,0,0,0,.56.27l.2.08.37.21a2.43,2.43,0,0,1,.37-.16c.12,0,.21.06.24.24a6.2,6.2,0,0,1,.06.62c0,.42,0,.85,0,1.27a1.44,1.44,0,0,0,.15.6,1.42,1.42,0,0,1,.19.81c0,.21,0,.42,0,.63a1.36,1.36,0,0,1-.19.81,1.1,1.1,0,0,0-.12.39c0,.63,0,1.27,0,1.9a1.36,1.36,0,0,0,.18.59.81.81,0,0,1,0,.8,1.4,1.4,0,0,0-.18.6l0,4.21c0,1.05,0,2.1,0,3.15,0,.84,0,1.69,0,2.53,0,.63,0,1.26,0,1.89a1.93,1.93,0,0,1-.06.42,1.85,1.85,0,0,1-.19.37.7.7,0,0,0-.13.39c0,.28,0,.56,0,.84,0,2,0,3.93,0,5.9,0,.42,0,.84,0,1.26,0,.63,0,1.26,0,1.89,0,1,0,2,0,3,0,.23,0,.25.18.59a1.07,1.07,0,0,1,.19.59c0,.42,0,.84,0,1.26,0,1.41,0,2.81,0,4.21a1.29,1.29,0,0,1-.17.6c-.15.24-.14.24,0,.55.1.15.06.26-.14.27a7.86,7.86,0,0,1-.84,0l-4.21,0c-1.2,0-2.39.06-3.58,0m6-20.23a.3.3,0,0,0-.19-.32l-.12.12a.3.3,0,0,0,.33.18v.45a4.93,4.93,0,0,0-.86,0,.29.29,0,0,0-.14-.29.15.15,0,0,0-.13,0,.31.31,0,0,0-.13.3.48.48,0,0,1-.41-.39,3,3,0,0,1,0-.41c0-.28-.12-.37-.37-.41l-.21,0a3.81,3.81,0,0,1-.71.4c-.26.07-.29.25-.12.44a1.18,1.18,0,0,0,.51.34,1.24,1.24,0,0,1,.37.17l.63.53a1.2,1.2,0,0,0,1,.11,1.37,1.37,0,0,0,.45-.41.54.54,0,0,0,.15-.38.3.3,0,0,0,.3-.13.15.15,0,0,0,0-.13.31.31,0,0,0-.29-.14M39,72.48a.4.4,0,0,0,.31-.19,1.33,1.33,0,0,0,0-.2c0-.27-.11-.34-.38-.31s-.35.1-.31.37.13.37.38.33m-3.85-.4a.28.28,0,0,0,.32-.15l-.08-.18a.87.87,0,0,0-.27-.27l-.17-.09a.33.33,0,0,0-.15.33c0,.25.09.34.35.36m2.7-.52a.65.65,0,0,0,.46-.27c.11-.12.12-.23,0-.31a.33.33,0,0,0-.16-.07c-.3,0-.46.19-.42.49,0,.06.06.11.09.16m-29.49,10c0,.09.08.29.27.45s.23.12.3,0a.35.35,0,0,0,.06-.17.38.38,0,0,0-.48-.41.78.78,0,0,0-.15.1m.92,7.27a.5.5,0,0,0,.15-.14.45.45,0,0,0,0-.2c-.06-.18-.15-.23-.25-.13a.27.27,0,0,0-.08.17q0,.26.18.3M40.75,74.88c0,.05.08.12.14.15a.5.5,0,0,0,.21,0c.17,0,.22-.15.12-.26a.33.33,0,0,0-.17-.07.24.24,0,0,0-.3.18m-.2,1.83c0-.14-.09-.22-.2-.2a.22.22,0,0,0-.13.12.37.37,0,0,0,.08.34s.08,0,.12.06a.25.25,0,0,0,.13-.32m-2.23-6.43.14-.13a.44.44,0,0,0-.09-.34c-.09-.1-.19-.08-.25.08a.36.36,0,0,0,.07.35s.08,0,.13,0m-4.06,4.33a.41.41,0,0,0,.32-.15.34.34,0,0,0-.3-.19.28.28,0,0,0-.3.16.26.26,0,0,0,.28.18m-1.57-1.45.14.09,0-.15Zm3.49.75-.08.14.15,0Zm1.56-5.8c.06.19.14.19.24,0L37.87,68l-.13.11m.94,11.5.09-.14-.15,0Zm.43-4.2.12-.1c-.06-.17-.14-.18-.23,0l.11.12m.41,10.51c.17,0,.18-.13,0-.22l-.12.1.1.12M19,59.29l-.14-.09,0,.15ZM9.52,87.48c.06.18.14.18.23,0l-.11-.12-.12.1M5.94,76.14,5.81,76l0,.16ZM4.41,83.7c0,.14,0,.28,0,.42v.2a.44.44,0,0,0,.19.34.43.43,0,0,0,.19-.34c0-.69,0-1.38.07-2.07A.86.86,0,0,1,5,81.87c.13-.2.12-.33-.07-.54a1.11,1.11,0,0,0-.32-.25.47.47,0,0,0-.17.35,8.23,8.23,0,0,0,0,1.49c0,.23,0,.51,0,.78M2.52,87.64a.68.68,0,0,0,.38,0A.38.38,0,0,0,3,87.46a.91.91,0,0,0,0-.77s-.08-.06-.13-.1a1.1,1.1,0,0,0-.46.37.34.34,0,0,0-.09.37.49.49,0,0,0,.22.31m5-2.36-.12.11.1.12c.16-.06.17-.14,0-.23m-3-4.9.11,0,0-.15Zm36.63-8.82a.15.15,0,0,0,.13,0,.4.4,0,0,0,.16-.28H41a.4.4,0,0,0,.15.29" transform="translate(0 0)"/><path class="cls-4" d="M45.33,39.7c.05,1.35,0,2.48,0,3.6,0,.22-.06.3-.26.55a.82.82,0,0,1-.55.28c-.35,0-.7,0-1,.06l-2.1.05a1.27,1.27,0,0,0-.6.15,1.41,1.41,0,0,1-.6.16c-1.48,0-2.95,0-4.42,0a1.33,1.33,0,0,1-.59-.19.64.64,0,0,0-.6,0,3,3,0,0,1-.39.14l-.39-.16a.66.66,0,0,0-.2-.06c-.56,0-1.12,0-1.68,0q-7.26,0-14.52,0c-1.4,0-2.8,0-4.2,0l-2.53,0a1.6,1.6,0,0,1-.8-.22.5.5,0,0,0-.19-.1,2.73,2.73,0,0,0-.41,0l-5.05,0c-.42,0-.84,0-1.27,0a1.2,1.2,0,0,0-.58.21,1.16,1.16,0,0,1-.59.18,1.7,1.7,0,0,1-1-.23,1.27,1.27,0,0,0-.36-.2A.73.73,0,0,1,0,43.59a1.46,1.46,0,0,1,.07-.19,1.57,1.57,0,0,0,.22-.79c0-.21,0-.43,0-.63a13.63,13.63,0,0,1,0-1.69c0-.63,0-1.26,0-1.89s0-1.26,0-1.89l0-6.73A1.28,1.28,0,0,1,.52,29a.93.93,0,0,0,.12-.4c0-.35,0-.7,0-1.05,0-3.22.07-6.45.09-9.68a1.4,1.4,0,0,1,.15-.6,1.26,1.26,0,0,0,.17-.6c0-.35,0-.7,0-1.05V14.33a1.93,1.93,0,0,0-.15-.82.81.81,0,0,1,0-1,.7.7,0,0,0,0-.6c0-.13-.12-.25-.18-.38a.73.73,0,0,1-.05-.2,1.49,1.49,0,0,1,0-.21L.67,1C.67.83.7.62.72.41A.43.43,0,0,1,1.14,0L2,0,5.77,0H7.24a1.28,1.28,0,0,1,.6.16,1.4,1.4,0,0,0,.6.18c.77,0,1.54,0,2.31.1a1.42,1.42,0,0,1,.4.12,1.66,1.66,0,0,0,.38.18,2.85,2.85,0,0,0,.42,0c.42,0,.84,0,1.26.06a1.38,1.38,0,0,1,.59.2,1.36,1.36,0,0,0,.59.18l.84.06a1.22,1.22,0,0,1,.6.16,2.06,2.06,0,0,0,.8.24,1.17,1.17,0,0,1,.4.13A1.85,1.85,0,0,0,17.4,2a2.93,2.93,0,0,0,.41.07l.42,0a.88.88,0,0,1,.4.11c.3.19.65.27.95.46s.64.27.94.45a1.59,1.59,0,0,0,.59.2,1.56,1.56,0,0,1,.59.22l.18.1c.19.1.39.17.56.28a3.75,3.75,0,0,1,.51.38,3,3,0,0,0,.73.39c.35.25.75.38,1.11.6s.65.27.93.49a2.77,2.77,0,0,1,.89.53,2.51,2.51,0,0,0,.71.45,1.32,1.32,0,0,1,.35.23c.27.22.52.46.79.69A1.84,1.84,0,0,0,29,8a1.31,1.31,0,0,1,.34.24c.37.33.72.66,1.08,1a2.36,2.36,0,0,0,.7.46,1.32,1.32,0,0,1,.35.23,4.58,4.58,0,0,1,.46.42l2.64,2.72a1,1,0,0,1,.22.36,1.1,1.1,0,0,0,.21.36l1.6,1.67a1.41,1.41,0,0,1,.32.54,1.15,1.15,0,0,0,.22.35l.84.95a.62.62,0,0,1,.11.17,3.08,3.08,0,0,0,.7,1,.42.42,0,0,1,.11.18,3.5,3.5,0,0,0,.69,1,1.34,1.34,0,0,1,.22.36,1.62,1.62,0,0,0,.19.37l.39.5a1.81,1.81,0,0,1,.31.54c.09.27.29.48.37.75a2.29,2.29,0,0,0,.29.56c.14.24.22.52.38.75a1.67,1.67,0,0,1,.25.79.93.93,0,0,0,.15.39,1.83,1.83,0,0,1,.25.79.9.9,0,0,0,.13.4,2.44,2.44,0,0,1,.26.57c.08.27.3.48.36.76a5.7,5.7,0,0,1,.1.83.87.87,0,0,0,.14.39,1.39,1.39,0,0,1,.27.78,1.76,1.76,0,0,0,.19.6,1.36,1.36,0,0,1,.18.59c0,.28,0,.56.06.84a1.41,1.41,0,0,0,.27.78,1.15,1.15,0,0,1,.12.4,1.71,1.71,0,0,0,.25.79,1.32,1.32,0,0,1,.16.61l.06,1.68a1.23,1.23,0,0,0,.17.59,1.84,1.84,0,0,1,.16.61l.06,2.1v.82M5.49,4a.31.31,0,0,0,.36.11A.48.48,0,0,0,6,4S6,3.89,5.9,3.87a.35.35,0,0,0-.37,0s0,.09,0,.14m1.73-.56-.08.14h.14Zm30.09,11.7a1.3,1.3,0,0,0-.31-1,2.81,2.81,0,0,1-.59-.86,3.69,3.69,0,0,0-.25-.34l-.85-.92a2.54,2.54,0,0,1-.57-.86.67.67,0,0,0-.11-.18,1.83,1.83,0,0,0-.13-.16c-.15-.15-.31-.29-.45-.44a1.14,1.14,0,0,0-.94-.34l0,0c0,.07,0,.15,0,.21a1.16,1.16,0,0,0,.24.34,2.66,2.66,0,0,1,.62.83,1.16,1.16,0,0,0,.24.34c.28.31.57.61.86.92l.43.45a2.21,2.21,0,0,1,.59.86,5.24,5.24,0,0,0,1,1.06s.14,0,.21,0ZM30.15,7.58A.31.31,0,0,0,30,7.27l-.1.11a.36.36,0,0,0,.32.16Zm0,0A.45.45,0,0,0,30.6,8l0,0a.44.44,0,0,0-.42-.42ZM30.6,8a.35.35,0,0,0,.2.31l.11-.11A.4.4,0,0,0,30.57,8Zm1.24.88a.33.33,0,0,0-.2-.32l-.11.13a.35.35,0,0,0,.34.16Zm.42.42c0-.28-.12-.36-.42-.42l0,0c0,.29.11.38.42.42Zm.42.42c0-.29-.12-.37-.42-.42l0,0a.37.37,0,0,0,.12.29.46.46,0,0,0,.3.13Zm.43.42c0-.29-.13-.38-.43-.42l0,0a.43.43,0,0,0,.42.42Zm4.24,5a.37.37,0,0,0,.16.34l.11-.11a.28.28,0,0,0-.31-.19ZM29.21,6.89l-.15,0,.05.13Z" transform="translate(0 0)"/><path class="cls-5" d="M60.54,47.75l9.89,0h1a1.63,1.63,0,0,1,.81.21.69.69,0,0,0,.4.11c2.1,0,4.2.1,6.31.09.56,0,1.12,0,1.68,0,.91,0,1.82,0,2.73,0a1.49,1.49,0,0,1,.6.17,1,1,0,0,0,.4.14c1.2,0,4.39,0,5.68,0a1.15,1.15,0,0,0,.59-.18,2.23,2.23,0,0,1,.8-.23.93.93,0,0,0,.39-.15c.31-.18.32-.18.53,0l.48.41c.16.13.39.16.55.28a.34.34,0,0,1,.12.38,1.17,1.17,0,0,1-.17.38,1.05,1.05,0,0,0-.15.6c0,.28,0,.56,0,.84l0,1c0,.7,0,1.4,0,2.1s0,1.27,0,1.9,0,1.12,0,1.68c0,.14,0,.28,0,.42a1.94,1.94,0,0,1-.24,1.22,1.21,1.21,0,0,0,.14.37,1.32,1.32,0,0,1,.09.62c0,.84,0,1.68,0,2.52a1.51,1.51,0,0,1-.19.6c-.15.32-.14.4,0,.78a.33.33,0,0,1,0,.4,1.58,1.58,0,0,0-.2.8c0,1.05,0,2.1,0,3.16,0,.42,0,.84,0,1.26a1.59,1.59,0,0,1-.21.8.72.72,0,0,0-.12.4l0,2.31c0,1.2,0,2.39,0,3.58,0,3.37,0,6.73,0,10.1a1.64,1.64,0,0,0,.19.81,1.23,1.23,0,0,1,.13.6c0,1.13,0,2.25,0,3.37a1.49,1.49,0,0,1,0,.21.53.53,0,0,1-.22.33l-.42,0q-.52,0-1,0c-1.2,0-2.39,0-3.58,0a1.19,1.19,0,0,0-.58.2,1.25,1.25,0,0,1-.61.14,1,1,0,0,1-.6-.15,1.73,1.73,0,0,0-.59-.21l-.62-.05a1,1,0,0,1-.41-.11L83.67,92,83,92a1.3,1.3,0,0,1-.79-.22,1.41,1.41,0,0,0-.59-.22,2,2,0,0,1-.79-.26.78.78,0,0,0-.39-.12l-.63-.06a1.49,1.49,0,0,1-.59-.21,1,1,0,0,0-.39-.14l-.63-.07a1.26,1.26,0,0,1-.6-.17,1.46,1.46,0,0,0-.79-.21,9.3,9.3,0,0,1-1.06,0A1.63,1.63,0,0,1,75,90a.84.84,0,0,0-.4-.14c-.21,0-.42,0-.63,0a1.16,1.16,0,0,1-.74-.34c-.45-.39-.38-.39-.9-.47a1.73,1.73,0,0,1-.59-.21,1.33,1.33,0,0,0-.38-.18,1.59,1.59,0,0,1-.71-.43L70.51,88l-.34-.24a8.24,8.24,0,0,1-.94-.47,1.48,1.48,0,0,1-.37-.2l-.32-.26a2.27,2.27,0,0,0-.72-.42c-.27-.09-.47-.3-.74-.39s-.48-.29-.74-.4a1.87,1.87,0,0,1-.54-.33l-.62-.56a2.76,2.76,0,0,0-.71-.45,1.11,1.11,0,0,1-.34-.24l-.92-.86a2.72,2.72,0,0,0-.86-.6.62.62,0,0,1-.17-.11,7.88,7.88,0,0,1-1.06-1,2.09,2.09,0,0,1-.34-.53,1.63,1.63,0,0,0-.23-.35c-.47-.52-.95-1-1.43-1.54a2.72,2.72,0,0,1-.47-.69A1.36,1.36,0,0,0,58.4,78c-.28-.31-.57-.62-.86-.92a2.38,2.38,0,0,1-.58-.86c-.08-.12-.15-.24-.24-.35-.23-.26-.47-.52-.69-.79a1.32,1.32,0,0,1-.23-.35c-.11-.26-.3-.48-.41-.74a3.1,3.1,0,0,0-.55-.88,1.2,1.2,0,0,1-.25-.34,7.34,7.34,0,0,0-.49-.92,1.93,1.93,0,0,0-.42-.72,2.49,2.49,0,0,1-.53-.9c-.2-.29-.29-.64-.47-.93s-.28-.65-.47-.94a1.73,1.73,0,0,1-.27-.79,1,1,0,0,0-.16-.39c-.22-.35-.31-.78-.54-1.13a1.08,1.08,0,0,1-.11-.4,1.4,1.4,0,0,0-.18-.6,1.85,1.85,0,0,1-.26-.79.83.83,0,0,0-.14-.39c-.24-.35-.34-.77-.55-1.14a.4.4,0,0,1-.07-.19c0-.28,0-.56,0-.84s0-.7-.05-1a2,2,0,0,0,0-.42,1.85,1.85,0,0,0-.19-.37,1.44,1.44,0,0,1-.15-.61c0-.56,0-1.12-.06-1.68a1.4,1.4,0,0,0-.18-.6,1.33,1.33,0,0,1-.15-.6c-.05-2.45-.13-4.91,0-7.36,0-.35,0-.7,0-1.05a.56.56,0,0,1,.34-.21,3,3,0,0,1,.42,0h2.53l8.2,0ZM87.82,69.58c0,.23.05.34.31.38s.35,0,.39-.3,0-.34-.31-.38-.35,0-.39.3m1.57,5.49c0-.14-.08-.22-.2-.22s-.12.08-.13.13a.32.32,0,0,0,.07.33.27.27,0,0,0,.13.07.24.24,0,0,0,.13-.31m-3.52.14-.09.13.15,0ZM88,72.65l-.13.11c.06.17.15.18.25,0L88,72.65m.11-1.13L88,71.41c-.16,0-.17.13,0,.22l.12-.11m-6.32-2.1a1.14,1.14,0,0,1-.11-.11c-.16,0-.17.12,0,.21l.13-.1M59.94,81.85c0-.41,0-.58-.21-.76L58.62,79.9a.5.5,0,0,0-.36-.16h0c0,.07,0,.14,0,.2a1,1,0,0,0,.2.57,9.68,9.68,0,0,0,1.12,1.19.57.57,0,0,0,.37.14Zm-2.5-3.4c0,.12,0,.24,0,.36a.57.57,0,0,0,.11.33.42.42,0,0,0,.29.16l0,0a1.49,1.49,0,0,0,0-.42.51.51,0,0,0-.39-.42Zm6.7,6.78a.48.48,0,0,0-.42-.39,1.49,1.49,0,0,0-.42,0l0,0a.48.48,0,0,0,.49.41h.35l0,0M57,78.07a.37.37,0,0,0-.17-.33l-.11.11A.31.31,0,0,0,57,78Zm.43.42a.49.49,0,0,0-.43-.42l0,0c0,.06,0,.11,0,.16a.41.41,0,0,0,.39.26Zm7.19,7.13a.28.28,0,0,0,.19.29l.1-.1a.43.43,0,0,0-.32-.16Zm0,0a.45.45,0,0,0-.43-.42l0,0a.34.34,0,0,0,.11.3.51.51,0,0,0,.31.13Zm-1.27-.84a.37.37,0,0,0-.12-.3.45.45,0,0,0-.3-.12l0,0a.47.47,0,0,0,.43.42Zm-.81-.88a.38.38,0,0,0,.26.38.47.47,0,0,0,.16,0l0,0a.45.45,0,0,0-.42-.42Zm0,0a.35.35,0,0,0-.2-.31l-.1.12a.35.35,0,0,0,.33.15Zm-1.23-.88a.3.3,0,0,0,.2.31l.1-.12a.34.34,0,0,0-.33-.16Zm0,0c0-.29-.12-.38-.43-.42l0,0c0,.28.12.36.42.42Zm-.81-.87a.47.47,0,0,0,.42.42l0,0a.38.38,0,0,0-.12-.29.42.42,0,0,0-.3-.13ZM60,81.83a.44.44,0,0,0,.27.38l.17,0,0,0a.4.4,0,0,0-.11-.31.34.34,0,0,0-.3-.12Zm-1.69-2.09a.45.45,0,0,0-.12-.31.35.35,0,0,0-.31-.1l0,0a.45.45,0,0,0,.12.31.32.32,0,0,0,.3.12Z" transform="translate(0 0)"/><path class="cls-6" d="M80,26.48a2.6,2.6,0,0,0-.62.05l-.36.22a.51.51,0,0,1-.58,0,2.12,2.12,0,0,0-.74-.36,1.72,1.72,0,0,1-.59-.58.6.6,0,0,1,0-.4.38.38,0,0,1,.35-.2l.41-.06a.44.44,0,0,0,.39-.41c0-.07,0-.14,0-.21s0-.42,0-.62a.3.3,0,0,0,.32-.18l-.11-.13a.32.32,0,0,0-.18.33.52.52,0,0,0-.38.15l-.45.43c-.18.18-.3.17-.52,0a1.21,1.21,0,0,1-.38-.71l-.15-.15a.3.3,0,0,0-.23.26,9.86,9.86,0,0,1-.09,1.44c0,.06-.08.11-.13.16a.92.92,0,0,1-.14-.14c-.06-.12-.1-.26-.17-.37s-.09-.07-.14-.1l-.38.18A.53.53,0,0,1,75,25a.39.39,0,0,1-.06-.19c0-.27,0-.55-.08-.82a.45.45,0,0,0-.41-.39,7.67,7.67,0,0,0-.83,0,1.06,1.06,0,0,1,.06-.19c.1-.18.21-.34.32-.51a.65.65,0,0,0-.07-.39.27.27,0,0,0-.34-.12.38.38,0,0,0-.31.22,2.57,2.57,0,0,0,0,.4.56.56,0,0,0,.09.38.35.35,0,0,0,.33.18.73.73,0,0,0,.14.38c.19.27.17.35-.07.46a1,1,0,0,0-.54.28,3.54,3.54,0,0,1-.63.53A.51.51,0,0,1,72,25a1.07,1.07,0,0,1-.07-.19.38.38,0,0,0,.34-.18.59.59,0,0,0,.08-.39c0-.07,0-.14,0-.21a.48.48,0,0,0-.18-.35A.45.45,0,0,0,72,24a5.61,5.61,0,0,0,0,.82,6.31,6.31,0,0,0-.87,0,.82.82,0,0,1,.16-.37c.19-.26.19-.27,0-.52a4,4,0,0,1-.25-.56c0-.05-.09-.07-.14-.11s-.12.09-.14.15a2.16,2.16,0,0,0,0,1,.44.44,0,0,0,.41.38,1.21,1.21,0,0,1-.66.77.9.9,0,0,1-.8,0,4.25,4.25,0,0,1-.54-.32.71.71,0,0,1-.56-.54c0-.17-.16-.22-.29-.16a1.58,1.58,0,0,1-.56.25,2,2,0,0,0-.42.05A.47.47,0,0,0,67,25a1.31,1.31,0,0,0,0,.62.51.51,0,0,0,.22.33l.19.07,0,0c0,.13,0,.26,0,.39a.75.75,0,0,0,.25.51,1.23,1.23,0,0,0,.64.4.44.44,0,0,1,.34.41l0,0a1.61,1.61,0,0,0-1,.27.23.23,0,0,1-.18,0,4,4,0,0,1-.37-.17c-.16.15-.18.37-.27.55s-.07.12-.11.17-.29.3-.42.45a1.11,1.11,0,0,0-.09.19.26.26,0,0,0,.3.18.65.65,0,0,0,.37-.14c.24-.17.25-.16.52,0a.89.89,0,0,0,.37.17l0,0,.06.6.33.5a.53.53,0,0,1,0,.19.41.41,0,0,0-.42.42.3.3,0,0,0-.32.18l.11.12a.28.28,0,0,0,.18-.32A.41.41,0,0,0,68,31a.38.38,0,0,0,.12-.31,1.25,1.25,0,0,1,.62.42.78.78,0,0,1,.23.5c0,.12,0,.25,0,.37a.34.34,0,0,0-.34.19l.13.12a.29.29,0,0,0,.18-.33,1.12,1.12,0,0,1,.51.28.52.52,0,0,0,.36.14v.45a.3.3,0,0,0-.32.18l.11.12a.32.32,0,0,0,.18-.33.51.51,0,0,1,.43.38.9.9,0,0,0,.17.37l.29.31c.13.14.23.13.31,0a1,1,0,0,0,.07-.61.94.94,0,0,0-.32-.52c-.16-.14-.3-.29-.53-.28h-.42a2.14,2.14,0,0,0,0-.62c-.08-.12-.14-.24-.23-.35a1,1,0,0,1-.12-.6.35.35,0,0,1,.14-.37c.09-.06.21,0,.33.1a1,1,0,0,1,.33.52c0,.14,0,.27,0,.41a.58.58,0,0,0,.17.37l.19-.08c.3-.14.32-.12.45.14s.17.34.39.44c.4.17.4.17.28.38a1.9,1.9,0,0,0-.2.37,1.11,1.11,0,0,0,0,.41c0,.35,0,.69,0,1,.07.16.15.23.25.18a.64.64,0,0,0,.13-.15L72,34a.48.48,0,0,1,.51-.26,1,1,0,0,1,.18.1,1.5,1.5,0,0,0,.77.28.57.57,0,0,1,.62.42c.09.28.2.35.43.38l.42,0h.83l0,0a.76.76,0,0,0,.18.37,6.53,6.53,0,0,1,.56.62.53.53,0,0,1,0,.58,7.48,7.48,0,0,1-.75.74,1.11,1.11,0,0,1-.37.2,1.9,1.9,0,0,0-.37.2,3.38,3.38,0,0,1-.84.62,5.29,5.29,0,0,0-.74.4,2.4,2.4,0,0,0-.88.56,4.08,4.08,0,0,1-.33.25,7.47,7.47,0,0,0-.93.49,2.28,2.28,0,0,0-.88.56.91.91,0,0,1-.55.28l-.21,0a.92.92,0,0,0-.4.11c-.29.21-.64.29-.93.48s-.52.22-.76.36a2.52,2.52,0,0,1-1,.33,1.06,1.06,0,0,0-.38.16,1.68,1.68,0,0,1-.79.25.9.9,0,0,0-.4.13c-.35.22-.77.33-1.13.56a.77.77,0,0,1-.4.11l-1.26,0a2,2,0,0,0-.42,0,1.85,1.85,0,0,0-.37.19,1.15,1.15,0,0,1-.4.12l-1.05.08a1.41,1.41,0,0,0-.6.19,1.48,1.48,0,0,1-.6.15c-1.05,0-2.1,0-3.16.06l-1,0a1.28,1.28,0,0,0-.6.16,1.11,1.11,0,0,1-.59.18H52a1.14,1.14,0,0,1-.8-.2,1,1,0,0,0-.39-.13,9,9,0,0,1-1.26-.12.62.62,0,0,1-.32-.24c0-.21-.06-.42-.1-.63a5.86,5.86,0,0,1-.3-.55.51.51,0,0,1,0-.4,2.48,2.48,0,0,0,.27-.57,3.28,3.28,0,0,0,.05-.63c0-.77,0-1.54,0-2.31,0-.28,0-.56,0-.84s.07-.34.35-.46.41-.18.26-.41a.74.74,0,0,1,0-.95.26.26,0,0,0,0-.37.22.22,0,0,1,0-.36c.14-.29.12-.35-.13-.46s-.4-.34-.43-.62,0-.28,0-.42c0-1,0-2,0-2.95,0-1.82,0-3.65,0-5.47a1.44,1.44,0,0,0-.15-.61,1.23,1.23,0,0,1-.17-.6c0-2.73-.11-5.47,0-8.21,0-.77,0-1.54,0-2.31,0-1.83,0-3.65,0-5.48A1.46,1.46,0,0,1,49,7.44.32.32,0,0,0,49,7.06a.62.62,0,0,1,0-.77,1.3,1.3,0,0,0,.19-.37,1.18,1.18,0,0,0,0-.42c0-.21,0-.42,0-.63S49,4.62,49,4.5a.27.27,0,0,1,0-.38c.12-.12.1-.24,0-.38A1.3,1.3,0,0,1,48.79,3c0-.14,0-.28,0-.42A.8.8,0,0,1,49.07,2a.79.79,0,0,1,.5-.35,2.34,2.34,0,0,0,.58-.26.88.88,0,0,1,.4-.11l.42,0,2.94,0c1.13,0,2.25,0,3.37,0s2.11,0,3.16,0H63.6l6.95.06a1.47,1.47,0,0,1,.6.17c.36.16.38.17.59.17l1.05,0h1a1,1,0,0,1,.59.18c.26.14.27.15.56,0a.82.82,0,0,1,.4-.13,1.48,1.48,0,0,0,.21,0c2.38,0,4.77,0,7.15,0,1,0,2,0,3,0a1.2,1.2,0,0,0,.59-.18l.19-.08a1,1,0,0,1,.36.22l.45.44a1.25,1.25,0,0,0,.49.36,2.67,2.67,0,0,1,.36-.22.55.55,0,0,1,.4,0,.24.24,0,0,1,.15.13.54.54,0,0,1,0,.4.54.54,0,0,1-.1.18c-.17.25-.19.32,0,.53a4,4,0,0,0,.79.7.6.6,0,0,0,.2,0A.29.29,0,0,0,90,3.89c0-.05,0-.13,0-.2a.32.32,0,0,0-.2-.33,1.62,1.62,0,0,1-.37-.19.41.41,0,0,1,0-.55.48.48,0,0,1,.17-.12c.4-.12.71-.44,1.14-.52a2.23,2.23,0,0,1,.54-.31.42.42,0,0,1,.47.3A3,3,0,0,0,92,3a.82.82,0,0,1,.09.19,1.49,1.49,0,0,1,0,.21V5.68a1.57,1.57,0,0,1-.16.6,1.32,1.32,0,0,0-.18.6c0,1,0,2-.07,2.94a1.31,1.31,0,0,1-.15.61,1.58,1.58,0,0,0-.22.8l0,1a1.34,1.34,0,0,1-.23.8.9.9,0,0,0-.13.39c-.07.63-.06,1.26-.09,1.89a1.55,1.55,0,0,1-.18.6,1.23,1.23,0,0,0-.18.59l-.06.63a.79.79,0,0,1-.13.39,1.55,1.55,0,0,0-.26.79.89.89,0,0,1-.12.4,1.84,1.84,0,0,0-.29.78,1.41,1.41,0,0,1-.19.6,1.58,1.58,0,0,0-.26.78.94.94,0,0,1-.13.4,6.53,6.53,0,0,0-.37.75,4.73,4.73,0,0,0-.39.74,1.5,1.5,0,0,1-.74.71.51.51,0,0,0-.41.42.93.93,0,0,1-.19.37c-.14.16-.29.31-.42.47a.94.94,0,0,0-.24.57,1.35,1.35,0,0,1-.07.41,1.71,1.71,0,0,1-.37.51,1.7,1.7,0,0,0-.44.71.81.81,0,0,1-.1.18,1.09,1.09,0,0,1-.13.17,3.62,3.62,0,0,0-.52.65c-.07.12-.1.27-.16.39A4.78,4.78,0,0,1,84,29a1.07,1.07,0,0,0-.2.36.93.93,0,0,1-.19.37c-.29.31-.57.62-.87.93a2.33,2.33,0,0,0-.71,1,5.64,5.64,0,0,1-.54.65,1.57,1.57,0,0,1-.7.45,1,1,0,0,0-.36.21l-.91.87a.55.55,0,0,1-.38.16l0,0a5.75,5.75,0,0,1,0-.83.89.89,0,0,1,.15-.38c.16-.25.15-.26,0-.55s-.1-.23.29-.39a.58.58,0,0,0,.3-.26,1.43,1.43,0,0,1,.57-.83,1.3,1.3,0,0,1,.38-.17c.16,0,.23-.13.2-.25s-.1-.11-.15-.12a.68.68,0,0,1-.37-.18.48.48,0,0,1,.12-.36.53.53,0,0,0,0-.58,2.56,2.56,0,0,0-.22-.35c.06-.2.2-.36.27-.54a.48.48,0,0,0-.26-.5c-.21,0-.42,0-.62-.08s-.23-.15-.17-.27a2.09,2.09,0,0,0,.19-.36,1.84,1.84,0,0,0,0-.62c.12,0,.24,0,.36,0,.31,0,.41-.1.48-.42a.3.3,0,0,0,.34-.18L81,25.73a.3.3,0,0,0-.19.33.78.78,0,0,1-.35-.15c-.37-.24-.45-.2-.48.18,0,.13,0,.26,0,.39M69.83,19.29a.32.32,0,0,0,.33-.18L70,19a.32.32,0,0,0-.18.33.84.84,0,0,0-.17.05.38.38,0,0,0-.21.45.35.35,0,0,0,.21.26.55.55,0,0,0,.17.05.58.58,0,0,1-.15.36c-.1.11-.18.23-.15.34a.56.56,0,0,0,.24.31l.16.13a.35.35,0,0,0,.37.09.51.51,0,0,0,.17-.07.26.26,0,0,0,.12-.15.5.5,0,0,0,0-.38A1.67,1.67,0,0,0,70,20.2a1.18,1.18,0,0,0-.2,0v-.87m3.79,1.26h.45a1.84,1.84,0,0,0,.06.62s.1.09.14.14.12-.09.15-.15a.45.45,0,0,0,0-.39.36.36,0,0,0-.34-.19.34.34,0,0,0-.13-.29.15.15,0,0,0-.13,0,.32.32,0,0,0-.14.29.35.35,0,0,0-.34.19.7.7,0,0,0-.06.19.31.31,0,0,0,.17.35.35.35,0,0,0,.2-.34v-.42m-2.53-5.44a1.34,1.34,0,0,0-.06-.6.33.33,0,0,0-.32-.2.29.29,0,0,0-.33.15.64.64,0,0,0,.1.18.92.92,0,0,0,.64.43.35.35,0,0,0,.18.33l.12-.11a.31.31,0,0,0-.33-.18M52.56,16.79a10.26,10.26,0,0,0,0-1.24.45.45,0,0,0,0-.19,1,1,0,0,0-.14-.15c0,.06-.11.1-.13.16a2.69,2.69,0,0,0-.06,1,.71.71,0,0,0,.08.18.37.37,0,0,0,.34.19.3.3,0,0,0,.19.34L52.9,17a.29.29,0,0,0-.34-.19m26.57,8.42a.43.43,0,0,0-.34.2.39.39,0,0,0,0,.38c0,.06.09.1.14.14a.34.34,0,0,0,.18-.34c0-.13,0-.27,0-.41a.52.52,0,0,0,.36-.13L80,24.5a.63.63,0,0,1,.35-.16.32.32,0,0,0,.19.34l.11-.12a.3.3,0,0,0-.33-.19.73.73,0,0,0,0-.2.43.43,0,0,0-.53-.16,1,1,0,0,0-.62.79c0,.14,0,.28,0,.41m-26.57-1.7c0,.62,0,1.25,0,1.88a.75.75,0,0,1,0,.21.84.84,0,0,1-.05.2.82.82,0,0,1-.11.17,1.88,1.88,0,0,0-.21.36,1.93,1.93,0,0,0,0,.42c0,.43-.13.47-.5.28a.39.39,0,0,0-.39-.08.35.35,0,0,0-.29.25,1.93,1.93,0,0,1-.27.56.93.93,0,0,0-.2.58,1.31,1.31,0,0,1-.28.76.69.69,0,0,0-.1.19.38.38,0,0,0,.09.38c.06,0,.13,0,.18,0s.27-.12.36-.06.13.31,0,.57-.19.37.12.7a1.58,1.58,0,0,1,.27.31c.12.23-.09.38-.15.56a.66.66,0,0,0-.06.2,3.29,3.29,0,0,0,0,.83.91.91,0,0,0,.16.38c.17.27.17.28,0,.54a1.18,1.18,0,0,0-.19.59c0,.21,0,.42,0,.63a.4.4,0,0,0-.34.19.42.42,0,0,0,0,.38c0,.06.09.1.14.15a.35.35,0,0,0,.19-.33c0-.14,0-.28,0-.41a.65.65,0,0,0,.2,0,4.59,4.59,0,0,1,.52-.33.46.46,0,0,1,.39.08,18.37,18.37,0,0,1,1.36,1.29.4.4,0,0,0,.34.12.61.61,0,0,0,.12-.16,1.35,1.35,0,0,1,.27-.55A.64.64,0,0,1,54.4,35c.12,0,.24,0,.37.12s.12,0,.18,0a5.77,5.77,0,0,1,.55-.29.56.56,0,0,0,.46-.59c0-.34,0-.69,0-1a1.38,1.38,0,0,1,0-.2.64.64,0,0,1,.1-.18l.22-.36c0-.2,0-.41.07-.61l0,0H57a1,1,0,0,1,.6.16c.05,0,.12.06.18.1a1.15,1.15,0,0,0,.6.13.42.42,0,0,0,.38-.15.57.57,0,0,0-.11-.36q-.12-.2.15-.3a8.93,8.93,0,0,0,1-.07.45.45,0,0,0,.29-.48,1.11,1.11,0,0,0-.09-.19,3.24,3.24,0,0,1-.36-.75,1.5,1.5,0,0,0-.4-.47.62.62,0,0,0-.38-.16c-.14,0-.28,0-.42,0l0,0c0-.24.19-.35.39-.43s.42-.22.46-.6a1.58,1.58,0,0,1,.27-.77.48.48,0,0,0,.09-.19.51.51,0,0,0-.05-.4,1.65,1.65,0,0,1-.3-.53,4.42,4.42,0,0,1,0-.63,3.24,3.24,0,0,0,0-.62.73.73,0,0,0-.05-.2c-.06-.18-.16-.2-.31-.09a2.17,2.17,0,0,1-.38.16.42.42,0,0,1-.49-.26,2.29,2.29,0,0,0-.27-1c-.1-.2-.07-.3.18-.51a1.22,1.22,0,0,1,.53-.3c.17,0,.25-.15.19-.25a.28.28,0,0,0-.16-.12c-.31-.06-.44-.29-.53-.57s-.17-.21-.31-.13a.35.35,0,0,1-.35.08c-.14-.07-.14-.37,0-.56a1,1,0,0,0,.27-.55,1.71,1.71,0,0,0,.6,0l.14-.15c-.05-.05-.09-.12-.14-.14a.39.39,0,0,0-.38,0,.37.37,0,0,0-.18.34,1.93,1.93,0,0,1-.42-.05c-.28-.05-.3-.07-.44-.38s-.15-.36-.42-.22l-.19.09a.7.7,0,0,1-.34-.2,1,1,0,0,1-.33-.52.54.54,0,0,0-.08-.19.5.5,0,0,0-.14-.1,1.07,1.07,0,0,0-.14.16,1.31,1.31,0,0,1-.26.56.91.91,0,0,0-.16.38.47.47,0,0,0,.1.39c.2.27.16.42-.14.68a1,1,0,0,1-.18.1.31.31,0,0,1-.23-.28c0-.21,0-.42,0-.63a1,1,0,0,0-.32-.74l-.16-.14c-.14-.13-.27-.11-.31.08a1.48,1.48,0,0,1-.59.84.41.41,0,0,1-.59-.58c.07-.11.16-.22.23-.34a.71.71,0,0,0,0-.21.26.26,0,0,0,.3-.13c0-.12,0-.19-.13-.14a.28.28,0,0,0-.14.3.52.52,0,0,1-.37-.17l-.45-.44c-.12-.12-.25-.15-.33-.06a.35.35,0,0,0-.07.38c.07.19.23.34.22.55s-.14.24-.2.37a.46.46,0,0,0,0,.2.49.49,0,0,0,.14.38,2.8,2.8,0,0,0,.28.31,1.07,1.07,0,0,1,.34.94.52.52,0,0,1-.19.36.51.51,0,0,1-.22-.33.66.66,0,0,0-.09-.19.31.31,0,0,0-.36-.15.38.38,0,0,0-.32.21,4.94,4.94,0,0,1-.26.57c-.15.27-.13.3.2.43a1.15,1.15,0,0,1,.53.31.65.65,0,0,1,.21.34,1,1,0,0,1-.1.18c-.11.15-.12.27,0,.34a.4.4,0,0,0,.38,0,.51.51,0,0,0,.21-.35.47.47,0,0,1,.44-.37Zm7.18,1.74a.94.94,0,0,0,0,.41.3.3,0,0,0,.24.24s.12-.09.14-.14a1.35,1.35,0,0,1,.18-.36c.11-.15.11-.15.55-.21s.49-.14.31-.45a1.22,1.22,0,0,1-.18-.36c-.13-.42-.23-.38-.55-.09a3.91,3.91,0,0,0-.56.59.63.63,0,0,0-.14.37M69,24v.39a.67.67,0,0,0,.07.18c.07.16.16.16.31.05a1.64,1.64,0,0,1,.55-.26c.23-.08.24-.18.06-.46a.6.6,0,0,1,0-.74c.11-.14.13-.24,0-.33a.37.37,0,0,0-.53.07,2,2,0,0,0-.15.37c-.09.18-.21.34-.31.52A1.08,1.08,0,0,0,69,24m-8.43,6c0,.12,0,.26,0,.39a.2.2,0,0,0,.11.16c.09.07.2,0,.32-.08a1,1,0,0,0,.37-.69c0-.14,0-.28,0-.41a.31.31,0,0,0-.12-.16c-.08-.07-.21,0-.32.08a1.05,1.05,0,0,0-.37.71m-9.7-13.42a1.67,1.67,0,0,0,.07.4c0,.15.18.19.31.22a.32.32,0,0,0,.36-.13.65.65,0,0,0,.07-.39.51.51,0,0,0-.09-.18l-.13-.15a.53.53,0,0,0-.34-.23c-.15,0-.26.21-.25.46m19.84,1.88a.47.47,0,0,0,.32-.2,1.34,1.34,0,0,0,0-.2c0-.28-.12-.35-.38-.32s-.35.13-.32.39.14.36.39.33M64.41,26a.29.29,0,0,0,.31-.19.43.43,0,0,0,0-.38,1.74,1.74,0,0,0-.13-.15.67.67,0,0,0-.38.06.31.31,0,0,0-.14.35c0,.27.12.35.39.31M51.6,25.85a.58.58,0,0,0-.13-.14.82.82,0,0,0-.73,0,.88.88,0,0,0-.15.12.52.52,0,0,0,.3.21c.31,0,.71-.06.71-.18m2.72-10a.46.46,0,0,0,.16-.07c.1-.08.09-.2,0-.32l-.14-.14a.36.36,0,0,0-.33-.12c-.14.06-.14.35,0,.52a.33.33,0,0,0,.35.13m12,11.71a.76.76,0,0,0,.3-.23c.09-.12.16-.22.13-.32s-.3-.16-.51,0a.39.39,0,0,0-.06.51s.09,0,.14.07M72,20.77a.65.65,0,0,0,.08.37,1,1,0,0,0,.12.16c0-.05.09-.09.13-.15a.73.73,0,0,0,.1-.37c0-.24-.11-.51-.21-.51s-.21.27-.22.5m1.51,14.42a.61.61,0,0,0,.12-.16.51.51,0,0,0-.19-.51.49.49,0,0,0-.38,0,.19.19,0,0,0-.09.14c0,.15.41.53.54.49m1.69-13.52a.86.86,0,0,0,.14-.13.44.44,0,0,0-.08-.34c-.09-.11-.2-.09-.26.07a.36.36,0,0,0,.07.35s.09,0,.13.05M62.46,24.23a.29.29,0,0,0,.19-.29.38.38,0,0,0-.16-.32.34.34,0,0,0-.19.3.29.29,0,0,0,.16.31m-.56-2.46a.33.33,0,0,0,.14.36.92.92,0,0,0,.14-.14.44.44,0,0,0,0-.2c0-.17-.1-.23-.22-.19a1.4,1.4,0,0,0-.09.17m-.62-1.39a.33.33,0,0,0,.07-.37.61.61,0,0,0-.12-.16,1,1,0,0,0-.15.14.33.33,0,0,0,.05.37l.15,0m0,7.19.14-.13a.41.41,0,0,0-.09-.34c-.09-.11-.19-.08-.25.08a.33.33,0,0,0,.07.34s.09,0,.13.05m-.84-6.74s.11-.08.13-.13a.4.4,0,0,0-.08-.35c-.08-.1-.19-.08-.25.08a.39.39,0,0,0,.07.35s.08,0,.13,0m-.83,12.64s0-.1,0-.13a.31.31,0,0,0-.33-.08c-.16.06-.19.16-.1.25a.34.34,0,0,0,.34.07c.05,0,.09-.07.14-.11M58.09,19.65a.28.28,0,0,0,.14.34c.11,0,.17-.07.21-.22a.26.26,0,0,0-.12-.33c-.12,0-.19.08-.23.21M57.62,34a.37.37,0,0,0,.31-.15.3.3,0,0,0-.29-.18.32.32,0,0,0-.31.16.28.28,0,0,0,.29.17m-6.53,2.9.11-.1c-.05-.16-.12-.17-.2,0l.09.12m.83-.83c.18-.07.19-.15,0-.25l-.13.12.11.13m.14-17.81-.1-.11c-.16.05-.17.12,0,.21l.12-.1M54.59,17l-.09-.13c-.17.06-.17.14,0,.23l.12-.1m.7,19.49c.18-.07.18-.15,0-.25l-.13.12a.69.69,0,0,1,.11.13m.43-19,.12-.1c-.06-.17-.13-.17-.22,0l.1.12m.85,1.27.12-.1c-.06-.17-.14-.18-.23,0l.11.12m.54,16.32L57,35l0,.15Zm.2-2.14c.06.18.13.18.22,0a.64.64,0,0,0-.1-.13l-.12.1m1.36-8.71c.17-.06.18-.14,0-.23l-.12.1.1.13m.42-2.09.12-.1c-.06-.17-.13-.18-.22,0l.1.13M60,35.85l-.08.13L60,36Zm0-7.37c.18-.06.19-.15,0-.25l-.13.12.11.13m0-4.63.13-.1c-.06-.18-.14-.18-.23,0l.1.12m3,9.25L63,33h-.15Zm0-7.16.12-.09c-.06-.16-.13-.17-.22,0a.52.52,0,0,1,.1.11m0-5.06.09-.14-.16,0Zm.45,10.74-.09.14.15,0Zm.42-2.1-.08.14h.15Zm.09-4.94-.14-.08v.15ZM67,17.4l.14.09,0-.15ZM67.51,15c.17-.06.18-.13,0-.22l-.12.11.09.11m.43,17.7c.17-.06.18-.14,0-.23a.69.69,0,0,0-.13.11l.11.12m.33-11.5.13.08,0-.15Zm.62-5.46-.14-.09v.16Zm.31,3.05c.16-.06.17-.13,0-.22l-.12.1.1.12M70.35,22c.07.18.16.19.25,0a1.34,1.34,0,0,0-.11-.14l-.14.12m.12-5.34.13-.11c-.07-.17-.15-.18-.24,0l.11.13m.42,2.52.12-.1c-.06-.17-.13-.18-.22,0l.1.12m.41,1.26c.17-.06.17-.13,0-.22l-.12.1.1.12M71.43,17l-.14-.1,0,.16ZM87.23,3.07l.14.09V3ZM78.29,34a.54.54,0,0,1-.59.44c-.14,0-.27,0-.41.05a.64.64,0,0,0-.23.32,1.41,1.41,0,0,0,0,.41.4.4,0,0,0,.17.36.51.51,0,0,0,.55-.06c.41-.37.79-.76,1.17-1.15A.56.56,0,0,0,79.1,34l0,0a6.32,6.32,0,0,0-.87,0ZM47.93,44c0,.13,0,.27,0,.41a1.18,1.18,0,0,0,0,.2c0,.18.14.25.23.18a.3.3,0,0,0,.1-.17,16.37,16.37,0,0,0,0-2.89.65.65,0,0,0,0-.2,1.74,1.74,0,0,0-.11-.18.67.67,0,0,0-.11.18A8.57,8.57,0,0,0,48,42.94c0,.34,0,.68,0,1m27.8-9.09a1.4,1.4,0,0,0,.61-.06c.16-.07.16-.19,0-.33a5,5,0,0,0-.73-.72.52.52,0,0,0-.18-.1.35.35,0,0,0-.37.08c-.08.09,0,.22.07.34l.43.45a.67.67,0,0,1,.17.36ZM67.3,26a2,2,0,0,0,.42,0,.73.73,0,0,0,.2-.05c.14-.06.17-.18.18-.33s0-.29-.17-.35a.52.52,0,0,0-.39,0,.34.34,0,0,0-.19.35,2.75,2.75,0,0,0,0,.41Zm11,8a1.94,1.94,0,0,0-.05-.59l-.14-.14a.35.35,0,0,0-.13.14.39.39,0,0,0,0,.38.34.34,0,0,0,.33.18Zm-8.43-7.19a.34.34,0,0,0,.33-.19.42.42,0,0,0,0-.38c0-.06-.09-.1-.14-.14a.32.32,0,0,0-.18.33,2.81,2.81,0,0,1,0,.41Zm-1.24.85a.38.38,0,0,0,.19.33.42.42,0,0,0,.38,0c.06,0,.1-.09.15-.13a.32.32,0,0,0-.33-.19h-.41Zm-.86,1.68a.28.28,0,0,0,.32-.19l-.11-.12a.32.32,0,0,0-.19.34Zm2.13-2.5a.3.3,0,0,0-.33.19l.12.12a.3.3,0,0,0,.18-.34Zm2,4.84-.09-.12-.11.09c0,.17.12.18.2,0m-.09-5.6c-.17.06-.18.14,0,.23l.13-.1-.11-.13m.41.85-.12.1.1.12c.16-.06.17-.13,0-.22M56.53,22.4a.28.28,0,0,0-.18.09,4.47,4.47,0,0,0-.45.42c-.13.12-.22.11-.36,0a2.65,2.65,0,0,0-.62-.54.51.51,0,0,0-.4-.05.4.4,0,0,0-.19.34c0,.26,0,.3.33.42a1.09,1.09,0,0,1,.37.19l.45.42c.15.14.29.29.44.44s.24.14.33.05a.38.38,0,0,0,.09-.18c0-.2,0-.41.07-.61l.33-.52v-.34a.19.19,0,0,0-.21-.12m.71,4.92a.25.25,0,0,0,.21.26l.16-.14a1.4,1.4,0,0,1,.33-.73.45.45,0,0,0,.05-.39c-.06-.2-.16-.21-.31-.07a1.12,1.12,0,0,0-.43.67,2.67,2.67,0,0,0,0,.4m-4-5.35a.48.48,0,0,0-.35-.09c-.06,0-.1.08-.15.12a.45.45,0,0,0,.12.32.86.86,0,0,0,.13.14.53.53,0,0,0,.17.08c.12,0,.19-.07.2-.22a.33.33,0,0,0-.12-.35M56,26.4c0,.15,0,.27.1.34s.2,0,.31-.12l.13-.14c.16-.21.11-.35-.13-.38s-.34.07-.41.3m.87,3.17a.35.35,0,0,0,.32.21.28.28,0,0,0,.32-.17,1,1,0,0,0-.23-.34c-.22-.18-.38-.15-.43.09a.49.49,0,0,0,0,.21M57.81,31,58,30.9l.15-.11a.66.66,0,0,0,.21-.31c0-.13-.14-.17-.28-.17a.28.28,0,0,0-.32.16.85.85,0,0,0-.06.17.33.33,0,0,0,.12.34m.68-3.65a.37.37,0,0,0-.34.18.77.77,0,0,0-.11.39c0,.07,0,.14,0,.21a.39.39,0,0,0,.19.34.47.47,0,0,0,.19-.33,7.61,7.61,0,0,0,0-.83Zm0,0a.4.4,0,0,0,.37-.56c0-.06-.1-.1-.15-.15a.32.32,0,0,0-.19.34c0,.13,0,.27,0,.41Zm-4.61-1.68a2,2,0,0,0,.07.59c0,.06.09.1.14.14s.11-.09.13-.15a.46.46,0,0,0,0-.38.35.35,0,0,0-.33-.17ZM51,28.81l.14,0,0-.15Zm1.55-5.3a.31.31,0,0,0,.34-.2l-.13-.12a.3.3,0,0,0-.18.34Zm1.27,2.13a.3.3,0,0,0-.18-.33l-.13.11a.33.33,0,0,0,.33.19ZM55.24,33h.16l-.07-.15Zm0-1.78v.15l.15-.07Zm.08-5.34v-.16l-.15.07Zm.35,3.21,0,.16.16-.07ZM56.35,32a.32.32,0,0,0-.18-.33l-.11.12a.29.29,0,0,0,.32.18Zm-.07-7-.12-.14L56,25a1.34,1.34,0,0,1,.11.14l.15-.12m2.21,4.43a.31.31,0,0,0-.33.18l.12.12a.29.29,0,0,0,.18-.33Z" transform="translate(0 0)"/></g></g></g></g></svg>