<svg xmlns="http://www.w3.org/2000/svg" xmlns:xlink="http://www.w3.org/1999/xlink" viewBox="0 0 91.66 92.39"><defs><style>.cls-1{fill:none;}.cls-2{clip-path:url(#clip-path);}.cls-3{fill:#aada91;}.cls-4{fill:#ffc557;}.cls-5{fill:#870f54;}.cls-6{fill:#00ac69;}</style><clipPath id="clip-path" transform="translate(0 0)"><rect class="cls-1" width="91.66" height="92.39"/></clipPath></defs><g id="Layer_2" data-name="Layer 2"><g id="Layer_1-2" data-name="Layer 1"><g id="opportunity-icon"><g class="cls-2"><path class="cls-3" d="M2,40.18a.72.72,0,0,1-.51-.32.93.93,0,0,1-.25-.56c0-.64,0-1.27,0-1.9,0-.21,0-.22-.17-.59a1.26,1.26,0,0,1-.17-.6,2.94,2.94,0,0,0,0-.42,2,2,0,0,0,0-.42A2.59,2.59,0,0,0,.75,35a1,1,0,0,1-.09-.41l.15-5.26a1.37,1.37,0,0,0-.15-.6,1.34,1.34,0,0,1-.11-.62c0-.35,0-.7,0-1.05.05-1.33.09-2.66.13-4a1.26,1.26,0,0,0-.14-.6,1.85,1.85,0,0,1-.13-.61C.5,20,.56,18.19.62,16.36a1.69,1.69,0,0,0-.2-.8,1.52,1.52,0,0,1-.06-.2.75.75,0,0,1,0-.21c0-.77,0-1.54,0-2.31C.46,11.43.53,10,.56,8.63a.82.82,0,0,0-.09-.41c0-.06,0-.13-.08-.19a.82.82,0,0,1,0-.8,1.44,1.44,0,0,0,.21-.58c0-.28,0-.56,0-.84A1.44,1.44,0,0,0,.58,5.2,1.31,1.31,0,0,1,.4,4.39,9,9,0,0,1,.48,2.92a.47.47,0,0,1,.29-.28l.58-.23A1.34,1.34,0,0,1,2,2.3l4.63.15a1.56,1.56,0,0,0,.6-.15,1.44,1.44,0,0,1,.61-.15h.42l2.95.09a1.31,1.31,0,0,0,.61-.12,1.25,1.25,0,0,1,.6-.16c.42,0,.84,0,1.26,0,3,.1,5.89.24,8.84.38l1.26.05a1.5,1.5,0,0,0,.81-.16.86.86,0,0,1,.41-.1l1.26,0c1.75.09,3.51.14,5.26.17a1.36,1.36,0,0,0,.6-.14,1.32,1.32,0,0,1,.62-.12l4.42.12a1.91,1.91,0,0,0,1-.19.51.51,0,0,1,.2-.06c.64,0,4.48.1,5.47.17a.42.42,0,0,1,.2,0,.5.5,0,0,1,.23.32,2,2,0,0,1,0,.42c0,.28,0,.56,0,.84l-.18,3.79c0,1.05-.11,2.1-.2,3.15a1.39,1.39,0,0,1-.26.79.88.88,0,0,0-.15.39L43.32,14a1.86,1.86,0,0,1-.24.79,1,1,0,0,0-.2.59l-.12,1.26a1.73,1.73,0,0,1-.29.78.76.76,0,0,0-.13.39c0,.28-.07.56-.1.83a1.3,1.3,0,0,1-.29.78,1.3,1.3,0,0,0-.17.38,2.46,2.46,0,0,1-.35,1,1.55,1.55,0,0,0-.18.6,1.32,1.32,0,0,1-.15.39,2,2,0,0,0-.32.77.93.93,0,0,1-.15.39c-.25.34-.36.75-.6,1.1s-.29.64-.51.92c0,.13-.1.26-.13.39a1.77,1.77,0,0,1-.23.59c-.23.35-.37.75-.63,1.09s-.37.6-.5.92a2,2,0,0,1-.46.69,3.71,3.71,0,0,0-.59.87c-.13.24-.3.46-.42.72s-.32.46-.43.72a1.66,1.66,0,0,1-.38.5c-.2.19-.4.39-.59.59a1.86,1.86,0,0,0-.36.52,1.31,1.31,0,0,1-.24.34,8.73,8.73,0,0,1-.74.75L31.5,35.79a1,1,0,0,0-.23.35,1.71,1.71,0,0,1-.73.73,2,2,0,0,0-.71.44l-.65.54a1.54,1.54,0,0,1-.56.27c-.34.08-.61.35-1,.41a3,3,0,0,0-.53.34l-.33.26a.64.64,0,0,1-.18.1,2.49,2.49,0,0,0-.9.53.84.84,0,0,1-.56.25L25,40c-.38.06-.38.06-.64.45a.65.65,0,0,1-.31.28c-.27.08-.5.24-.76.34a6.56,6.56,0,0,0-.76.35c-.32.16-.64.29-1,.43a1,1,0,0,1-.81,0,.67.67,0,0,1-.18-.11c-.25-.15-.32-.15-.54,0a1,1,0,0,0-.38.49.61.61,0,0,1-.64.42h-.63a.61.61,0,0,0-.38.15l-.5.39c-.17.14-.33.1-.53-.12a.78.78,0,0,1-.26-.55l-.05,0H17c.26,0,.35-.06.46-.33a1.62,1.62,0,0,1,.32-.52.56.56,0,0,0,.15-.37.94.94,0,0,0,.68-.41.64.64,0,0,0,.1-.18.31.31,0,0,0-.32-.17c-.25,0-.35.09-.41.36a1.14,1.14,0,0,0,0,.41.68.68,0,0,1-.2-.07,2,2,0,0,1-.45-.43,1,1,0,0,0-.92-.41c-.24,0-.4.08-.48.32a1.4,1.4,0,0,1-.49.66.26.26,0,0,1-.37,0c-.27-.23-.66-.25-.91-.5s-.22-.13-.37,0a.87.87,0,0,1-.58.18c-.35,0-.7,0-1.05,0a.94.94,0,0,0-.58.21,1,1,0,0,1-.8.1c-.26-.07-.31-.25-.14-.43l.44-.45a.94.94,0,0,0,.19-.79.42.42,0,0,0-.06-.19,1.2,1.2,0,0,0-.25-.34c-.2-.2-.33-.2-.46,0s-.21.36-.41.41a.43.43,0,0,1-.39-.09c-.25-.19-.26-.18-.55-.08L9,39.56a.75.75,0,0,1-.2-.37.42.42,0,0,0-.25-.31A1.94,1.94,0,0,1,8,38.57a.71.71,0,0,0-.58-.14.55.55,0,0,0-.25.33c0,.15-.14.23-.26.23a.34.34,0,0,1-.16-.36,1.19,1.19,0,0,0,0-.42c0-.06-.09-.11-.13-.16s-.12,0-.15.09a.64.64,0,0,0-.1.18c-.15.29-.15.29-.46.36l0,0a.41.41,0,0,0-.17-.35.51.51,0,0,0-.57,0,1.44,1.44,0,0,1-.37.19,1,1,0,0,1-.79,0c-.12-.06-.23-.15-.35-.22a.42.42,0,0,0-.67.18,1.87,1.87,0,0,1-.32.52l-.28.29A.91.91,0,0,0,2,40a1.23,1.23,0,0,0,0,.2ZM37.58,20a.31.31,0,0,0-.34.16l.11.13a.3.3,0,0,0,.2-.32.3.3,0,0,0,.35-.17l-.12-.13a.3.3,0,0,0-.2.33M36.5,16.14c0,.12,0,.24,0,.36a.51.51,0,0,0,.1.34.47.47,0,0,0,.3.16.43.43,0,0,0,.34.43,2.1,2.1,0,0,1,.53.29c.33.22.55.2.88-.12a.93.93,0,0,0,.13-.15c.11-.13.08-.23-.1-.3A13.53,13.53,0,0,0,36.85,17c0-.12,0-.24,0-.36,0-.31-.08-.41-.39-.5,0-.14,0-.25-.12-.3s-.19,0-.15.13a.26.26,0,0,0,.29.15m-.08,1.68a.89.89,0,0,0,.4.66.64.64,0,0,0,.18.1.28.28,0,0,0,.17-.31c0-.25-.11-.35-.37-.39l-.41,0a.3.3,0,0,0-.16-.34l-.12.11a.29.29,0,0,0,.31.2m-18.74,21a.3.3,0,0,0-.33.17l.11.12a.29.29,0,0,0,.2-.31.51.51,0,0,0,.38-.12l.31-.27a.22.22,0,0,0,0-.35,1.09,1.09,0,0,0-.46-.39.52.52,0,0,0-.2.33,5.64,5.64,0,0,0-.05.82M34.25,19.14v.21a.51.51,0,0,0,.15.37.78.78,0,0,0,.35-.21,1.11,1.11,0,0,0,.33-.52.64.64,0,0,1,.21-.35.26.26,0,0,0,.07-.36l-.12-.16a.63.63,0,0,0-.33-.23.65.65,0,0,0-.22.34,2.46,2.46,0,0,1-.33.53.7.7,0,0,0-.11.38m3-9.55a2.67,2.67,0,0,0,0,.4c0,.06.07.11.12.16a.4.4,0,0,0,.36.08A.37.37,0,0,0,38,10a1.73,1.73,0,0,0,0-.6.45.45,0,0,0-.28-.25.3.3,0,0,0-.36.11.57.57,0,0,0-.13.37m1-2.89a5.65,5.65,0,0,0,0-.6c0-.16-.1-.24-.21-.24s-.11.09-.12.15a3,3,0,0,1-.33,1c-.14.13-.11.24.07.31a.49.49,0,0,0,.53-.18c.05-.19.09-.39.09-.4M24.14,39.44c.05,0,.12,0,.15-.09a.75.75,0,0,0,.06-.78s-.09-.08-.13-.12a1,1,0,0,0-.35.22.39.39,0,0,0-.16.35c0,.15.31.42.43.42m16-32.95.14-.15A.49.49,0,0,0,40.2,6a.39.39,0,0,0-.37-.14c-.06,0-.11.08-.17.11a.59.59,0,0,0,.16.36.53.53,0,0,0,.33.2M22.63,40.3a.31.31,0,0,0,.35-.12L22.9,40a.77.77,0,0,0-.26-.28l-.17-.11a.35.35,0,0,0-.18.32c0,.26.07.35.34.37m12.5-31a.36.36,0,0,0,.32-.14.34.34,0,0,0-.28-.2.3.3,0,0,0-.32.15.3.3,0,0,0,.28.19m-14.4,30.8a.23.23,0,0,0,.31.16c.14,0,.22-.09.24-.21a.24.24,0,0,0-.31-.15c-.15,0-.23.08-.24.2M4.4,37.17s.08.13.14.15a.3.3,0,0,0,.21,0c.19,0,.23-.14.12-.24A.27.27,0,0,0,4.69,37c-.16,0-.26,0-.29.17M33.14,13.81a.34.34,0,0,0,.2,0c.21-.06.23-.16.08-.26a.67.67,0,0,0-.19-.05c-.18,0-.26.06-.25.18a1,1,0,0,0,.16.12m4.77.21a.66.66,0,0,0,0,.2.39.39,0,0,0,.1.16c.1,0,.16-.05.21-.2a.28.28,0,0,0-.09-.33.21.21,0,0,0-.22.17m-.06,2c.06.18.14.19.25,0L38,15.87l-.14.1m-.59,6.23-.1.13.16,0Zm-.39-9.93c.18,0,.19-.12,0-.22l-.13.09.1.13M36.31,24l.09-.13-.14,0Zm3.7-7,.1-.12-.16,0Zm-3.52-3.21-.12-.1,0,.15Zm0,.84-.09-.12c-.16,0-.17.12,0,.22l.12-.1M4.63,35.91l-.13-.09,0,.14ZM35.84,16.64l-.09.13.15,0Zm-.27,3c0,.17.13.18.23,0a1.13,1.13,0,0,0-.1-.13l-.13.1M14.49,39l.1-.13-.15,0Zm.83.67-.09.14.15,0ZM34.66,23.13c.17-.05.18-.13,0-.23l-.12.1.09.13M34.9,7.4c.05.17.12.18.22,0L35,7.32l-.12.08m-8.43,0c.05.17.12.18.21,0l-.09-.13-.12.09M30,6.88c.16,0,.17-.13,0-.23l-.12.1.09.13M31.84,14,31.71,14l0,.13Zm.52-4.52c.17,0,.19-.13,0-.23l-.13.1.1.13m0-1c0,.17.12.18.22,0l-.1-.12ZM14.1,43.85a.53.53,0,0,0,.29.26,1.3,1.3,0,0,0,.62,0,.82.82,0,0,0,.17-.11s-.07-.12-.12-.15-.37-.1-.4-.34c.16-.19.38-.12.58-.13a.55.55,0,0,1,.39.12s.12.06.18.11.24.1.33-.07a.38.38,0,0,0,0-.21.34.34,0,0,0-.25-.28c-.33-.1-.69-.08-1-.16-.18,0-.23-.15-.17-.28l.1-.18c0-.06,0-.12.05-.18a.28.28,0,0,0-.37-.11.36.36,0,0,0-.27.26,3.91,3.91,0,0,0-.12.89c0,.14,0,.35,0,.56m-3,1.34A.54.54,0,0,0,11.4,45a3.63,3.63,0,0,1,.43-.71.51.51,0,0,0,.05-.4c-.07-.21-.19-.2-.49.06l-.31.28a.86.86,0,0,1-.38.16c-.2,0-.41,0-.61.08s-.21.16-.24.3,0,.27.17.33a1.86,1.86,0,0,0,.62.09h.41M8,45.48a.79.79,0,0,0,.4-.07l.76-.34s0-.08.08-.13l-.15-.14a1.35,1.35,0,0,0-.82.07,2.27,2.27,0,0,1-1,.25.27.27,0,0,0-.28.19.64.64,0,0,0,.17.13,2.71,2.71,0,0,0,.41,0H8M33.46,35.42a.54.54,0,0,0-.37.15l-1.08,1a.61.61,0,0,0-.12.16.88.88,0,0,0,0,.17.33.33,0,0,0,.37.07l.18-.11c.21-.18.41-.36.63-.53a1.08,1.08,0,0,0,.38-.92ZM16.62,42.61a.87.87,0,0,1,.3-.51.47.47,0,0,0,.08-.55c-.05-.14-.19-.17-.34-.15a.4.4,0,0,0-.33.19,1.29,1.29,0,0,0-.07.4.63.63,0,0,0,.09.38.34.34,0,0,0,.32.21ZM4.43,40.9c0-.06,0-.13,0-.19,0-.28-.1-.35-.37-.33a.33.33,0,0,0-.31.19.47.47,0,0,0,0,.37.25.25,0,0,0,.33.14.46.46,0,0,0,.33-.18m8.65,3.43a.36.36,0,0,0-.29-.2.28.28,0,0,0-.31.14.27.27,0,0,0,.27.19.4.4,0,0,0,.33-.13M1.7,42l-.13.1.1.14q.26-.09,0-.24m0-.8,0,.16.16-.06Zm.3-1a.32.32,0,0,0,.17.35l.13-.12a.29.29,0,0,0-.32-.2Zm2,4.89,0,.15.16,0Zm.33-5.93-.14.11.11.13q.27-.09,0-.24m1.06,0a.31.31,0,0,0-.33.15l.11.12a.28.28,0,0,0,.19-.3Zm.45-.4c-.31,0-.39.11-.45.4l0,0A.41.41,0,0,0,5.72,39a.46.46,0,0,0,.13-.3Zm27.54-3.34a.28.28,0,0,0,.3-.14l-.08-.11a.37.37,0,0,0-.19.29Z" transform="translate(0 0)"/><path class="cls-4" d="M62.84.07h9a1.87,1.87,0,0,1,1,.24.73.73,0,0,0,.19.07h.21c1.69,0,3.37,0,5.06,0A1.4,1.4,0,0,0,79,.26a1.2,1.2,0,0,1,.81-.19L81,.09a1.27,1.27,0,0,1,.6.18A.93.93,0,0,0,82,.39h.21c1.69,0,3.37,0,5.06,0l1.26,0a1.33,1.33,0,0,0,.59-.19,1.9,1.9,0,0,1,.4-.14,3.67,3.67,0,0,1,1-.07,1.07,1.07,0,0,1,.74.34.4.4,0,0,1,.1.55,1.41,1.41,0,0,0-.16.6V4a1,1,0,0,0,.16.59,1.77,1.77,0,0,1,.18.81c0,2,0,3.94,0,5.9q0,5,0,9.9a1.66,1.66,0,0,1-.21.81,1.11,1.11,0,0,0-.09.19.65.65,0,0,0,0,.2c0,2.88,0,5.76,0,8.64a1.37,1.37,0,0,0,.19.59,1,1,0,0,1,.1.4c0,1,0,2,0,2.95q0,3.9,0,7.79a6.23,6.23,0,0,1,0,1.06.56.56,0,0,1-.22.33c-.14,0-.28.05-.42.06-.42,0-.84,0-1.26,0-1.41-.05-2.81-.06-4.21-.08a1.38,1.38,0,0,1-.6-.16c-.4-.18-.4-.18-.6-.19l-1.68-.07a1.64,1.64,0,0,1-.61-.14,1.31,1.31,0,0,0-.59-.21c-.35,0-.69-.05-1.05-.06a1.31,1.31,0,0,1-.58-.21,1,1,0,0,0-.4-.14l-1.05-.08a1.36,1.36,0,0,1-.59-.18,1.56,1.56,0,0,0-.6-.19l-.62-.07a.94.94,0,0,1-.4-.13,1.59,1.59,0,0,0-.79-.24l-.21,0a1.32,1.32,0,0,1-.79-.24,1.6,1.6,0,0,0-.6-.18,1.53,1.53,0,0,1-.59-.2,2.11,2.11,0,0,0-.8-.24A.87.87,0,0,1,72,41.1c-.3-.2-.65-.26-1-.45a1.69,1.69,0,0,0-.38-.19,2.44,2.44,0,0,1-.56-.28,2.64,2.64,0,0,0-.37-.2,1.9,1.9,0,0,1-.37-.2c-.23-.16-.52-.2-.75-.37s-.33-.26-.5-.39a2.09,2.09,0,0,0-.55-.3c-.19-.08-.36-.22-.55-.31a4.89,4.89,0,0,1-.57-.27c-.23-.16-.51-.22-.74-.39s-.33-.26-.49-.39a1.64,1.64,0,0,0-.54-.32.81.81,0,0,1-.18-.1,1.88,1.88,0,0,1-.18-.12l-.79-.7a4,4,0,0,0-.71-.43,3.66,3.66,0,0,1-.64-.54,6.65,6.65,0,0,0-.65-.54,4.81,4.81,0,0,1-1.61-1.33l-.14-.15L59.6,33a7.26,7.26,0,0,1-.69-.78,2.69,2.69,0,0,1-.19-.38,1.09,1.09,0,0,0-.13-.17c-.24-.25-.47-.51-.72-.76s-.7-.69-1-1.05a3.79,3.79,0,0,1-1-1.32,1,1,0,0,0-.12-.17l-.42-.48a3.32,3.32,0,0,1-.72-1c-.12-.17-.24-.35-.37-.51a2.9,2.9,0,0,1-.44-.71,2.74,2.74,0,0,0-.49-.68,1.57,1.57,0,0,1-.33-.54,1.1,1.1,0,0,0-.21-.36c-.13-.16-.28-.31-.4-.49s-.32-.62-.5-.92-.21-.52-.37-.75-.29-.64-.49-.93-.2-.52-.35-.76a1.42,1.42,0,0,1-.2-.6,1.65,1.65,0,0,0-.2-.59,1.84,1.84,0,0,1-.22-.58,1.81,1.81,0,0,0-.27-.79,1.28,1.28,0,0,1-.13-.39,1.92,1.92,0,0,0-.25-.8,1.21,1.21,0,0,1-.19-.59,1.86,1.86,0,0,0-.27-.79.77.77,0,0,1-.11-.4c0-.28,0-.56-.06-.84a1.47,1.47,0,0,0-.24-.79,1.11,1.11,0,0,1-.13-.4L48.27,12a1.17,1.17,0,0,0-.18-.59,1.4,1.4,0,0,1-.18-.6c0-.56,0-1.12,0-1.68l0-1.69A1.4,1.4,0,0,0,47.79,7a1.5,1.5,0,0,0-.19-.38,1.16,1.16,0,0,1-.12-.6,1,1,0,0,1,.19-.59.71.71,0,0,0,0-.79c-.13-.22-.13-.23,0-.56a1.31,1.31,0,0,0,.1-.61.62.62,0,0,0-.1-.4,1.53,1.53,0,0,1-.25-1c0-.42,0-.84,0-1.26a.39.39,0,0,1,.24-.31,4.48,4.48,0,0,1,.63-.06l4-.07a.82.82,0,0,0,.4-.1A1.11,1.11,0,0,1,53,.21a.93.93,0,0,1,.4-.12L55,.07ZM84.93,41v-.54a1.27,1.27,0,0,1,0-.2c0-.24-.11-.48-.25-.53a.92.92,0,0,0-.59,0,.59.59,0,0,0-.33.21.61.61,0,0,0,0,.38.56.56,0,0,0,.33.23c.27.13.27.14.39.43a.46.46,0,0,0,.23.29c.17-.15.19-.35.2-.22m1.48-.81a.29.29,0,0,0-.18.29.37.37,0,0,0,.15.31.34.34,0,0,0,.19-.3.32.32,0,0,0-.16-.3m-2.12-1.92.09-.13-.15,0Zm-.82-.61-.09.13.15,0Zm3.36-6.32-.09.13.15,0Zm.11-2.83c-.06-.15-.14-.16-.23,0s.07.1.11.11.08-.05.12-.08m.42-2.1c-.06-.16-.13-.17-.22,0l.1.12.12-.09m-.85-1.28L86.37,25l0,.15ZM83,23.29l-.09.13.15,0ZM56.72,31.17a1.47,1.47,0,0,0,0,.21,1,1,0,0,0,.2.57,9.86,9.86,0,0,0,.69.76.48.48,0,0,0,.36.16h0c0-.42,0-.58-.21-.76l-.7-.74a.56.56,0,0,0-.36-.17Zm5.05,5.06a.39.39,0,0,0,.19.29l.09-.1a.45.45,0,0,0-.3-.17Zm-.42-.42a.47.47,0,0,0,.27.37l.15,0,0,0a.51.51,0,0,0-.42-.41Zm0,0a.39.39,0,0,0-.2-.3l-.1.1a.41.41,0,0,0,.32.17Zm-2.5-2.14A.29.29,0,0,0,59,34l.1-.1a.35.35,0,0,0-.31-.16Zm0,0a.39.39,0,0,0-.11-.31.35.35,0,0,0-.31-.12h0c0,.28.12.37.43.41ZM58,32.87c.05.29.13.38.43.42h0a.37.37,0,0,0-.11-.31.32.32,0,0,0-.31-.11ZM56.3,30.75a.45.45,0,0,0,.12.3.34.34,0,0,0,.3.12l0,0a.45.45,0,0,0-.42-.43Zm0,0a.37.37,0,0,0-.17-.32l-.11.11a.33.33,0,0,0,.31.18Z" transform="translate(0 0)"/><path class="cls-5" d="M33,92.36l-9.89,0H22.08a1.58,1.58,0,0,1-.8-.22.92.92,0,0,0-.4-.11c-2.11,0-4.21-.09-6.31-.08H12.88c-.91,0-1.82,0-2.73,0a1.4,1.4,0,0,1-.6-.18,1,1,0,0,0-.39-.13c-1.21,0-4.39-.06-5.68,0a1,1,0,0,0-.6.17,2.23,2.23,0,0,1-.8.23,1.17,1.17,0,0,0-.39.15c-.3.19-.32.18-.53,0s-.31-.28-.48-.41a5.77,5.77,0,0,0-.55-.29A.32.32,0,0,1,0,91a1.06,1.06,0,0,1,.16-.38,1.17,1.17,0,0,0,.16-.6c0-.28,0-.56,0-.85s0-.7,0-1c0-.7.05-1.4,0-2.1s0-1.26,0-1.89,0-1.12,0-1.69c0-.14,0-.28,0-.42a2,2,0,0,1,.23-1.21,1.23,1.23,0,0,0-.13-.38,1.2,1.2,0,0,1-.1-.62c0-.84,0-1.68,0-2.52a1.4,1.4,0,0,1,.18-.6c.15-.31.15-.39,0-.78a.3.3,0,0,1,0-.39,1.52,1.52,0,0,0,.2-.81c0-1,0-2.1,0-3.15,0-.42,0-.84,0-1.26A1.64,1.64,0,0,1,1,69.53a.77.77,0,0,0,.11-.4l0-2.31c0-1.19,0-2.38,0-3.58q0-5,0-10.1a1.72,1.72,0,0,0-.2-.8,1.29,1.29,0,0,1-.13-.61c0-1.12,0-2.24,0-3.37a.76.76,0,0,1,0-.21.52.52,0,0,1,.22-.33l.42,0c.35,0,.7,0,1.05,0,1.19,0,2.38,0,3.57,0a1.34,1.34,0,0,0,.59-.2,1.19,1.19,0,0,1,.6-.15,1.07,1.07,0,0,1,.6.15,1.4,1.4,0,0,0,.59.21l.63.06a1,1,0,0,1,.4.11l.37.19.63.06a1.29,1.29,0,0,1,.8.23,1.36,1.36,0,0,0,.58.21,1.86,1.86,0,0,1,.79.27.89.89,0,0,0,.4.12c.21,0,.41.05.62.06a1.34,1.34,0,0,1,.59.2,1.17,1.17,0,0,0,.39.15l.63.06a1.39,1.39,0,0,1,.6.17,1.5,1.5,0,0,0,.8.21c.35,0,.7,0,1.05,0a1.58,1.58,0,0,1,.79.26.79.79,0,0,0,.39.13l.63.05a1.1,1.1,0,0,1,.74.33c.45.4.38.39.91.48a1.61,1.61,0,0,1,.59.21,1.41,1.41,0,0,0,.37.18,1.41,1.41,0,0,1,.71.43l.15.14.34.24a8.24,8.24,0,0,1,.94.47,1.65,1.65,0,0,1,.37.2l.33.27a2.32,2.32,0,0,0,.72.41c.26.09.47.31.74.4a7.48,7.48,0,0,1,.74.39,2.24,2.24,0,0,1,.53.33l.63.56a2.46,2.46,0,0,0,.7.45,1.67,1.67,0,0,1,.35.24l.92.86a2.31,2.31,0,0,0,.85.6.67.67,0,0,1,.18.11,9.27,9.27,0,0,1,1.06,1,2,2,0,0,1,.33.53,1.41,1.41,0,0,0,.23.35l1.43,1.54a2.52,2.52,0,0,1,.48.69,1.16,1.16,0,0,0,.24.34c.28.32.57.62.86.93a2.3,2.3,0,0,1,.58.86c.08.11.16.23.25.34.22.27.46.53.69.8a1.56,1.56,0,0,1,.23.34c.1.27.3.48.4.74a2.81,2.81,0,0,0,.56.88,1.31,1.31,0,0,1,.24.34,7,7,0,0,0,.5.93,1.87,1.87,0,0,0,.42.72,2.53,2.53,0,0,1,.52.9c.2.29.29.63.48.93s.28.64.47.94a2,2,0,0,1,.27.78.88.88,0,0,0,.15.39c.23.36.31.78.54,1.14a1.09,1.09,0,0,1,.12.4,1.64,1.64,0,0,0,.17.6,1.82,1.82,0,0,1,.27.79.79.79,0,0,0,.13.39c.24.35.34.77.55,1.13a.52.52,0,0,1,.08.19c0,.28,0,.56,0,.84s0,.71,0,1.06a1.84,1.84,0,0,0,.05.41,2.64,2.64,0,0,0,.18.38,1.28,1.28,0,0,1,.16.6l.06,1.68a1.26,1.26,0,0,0,.17.6,1.41,1.41,0,0,1,.16.6c0,2.46.12,4.91,0,7.37,0,.34,0,.69,0,1a.66.66,0,0,1-.35.22l-.42,0c-.84,0-1.68,0-2.52,0l-8.21,0ZM5.74,70.52c0-.23,0-.34-.3-.38s-.36,0-.39.3,0,.35.3.38.35,0,.39-.3M4.18,65c0,.14.08.21.19.21s.12-.07.14-.12a.34.34,0,0,0-.07-.34s-.09,0-.13-.07a.24.24,0,0,0-.13.32m3.52-.15.09-.13-.15,0ZM5.59,67.45l.14-.1c-.07-.17-.15-.18-.25,0l.11.13m-.1,1.13.09.12c.16-.06.16-.13,0-.22l-.11.1m6.32,2.1.1.11c.17-.05.18-.12,0-.2l-.12.09M33.63,58.25c0,.42,0,.58.2.76L35,60.21a.46.46,0,0,0,.36.15l0,0a.74.74,0,0,0,0-.21,1,1,0,0,0-.19-.57A10.5,10.5,0,0,0,34,58.42a.51.51,0,0,0-.37-.15Zm2.5,3.4c0-.12,0-.24,0-.35A.59.59,0,0,0,36,61a.38.38,0,0,0-.3-.16l0,0a1.12,1.12,0,0,0,0,.41.52.52,0,0,0,.4.43Zm-6.71-6.77a.5.5,0,0,0,.43.39,1.39,1.39,0,0,0,.41,0l0,0a.49.49,0,0,0-.49-.4c-.12,0-.24,0-.35,0ZM36.58,62a.39.39,0,0,0,.17.33l.12-.11a.33.33,0,0,0-.32-.19Zm-.42-.42a.5.5,0,0,0,.42.42l0,0a.94.94,0,0,0,0-.16.43.43,0,0,0-.38-.26ZM29,54.49a.31.31,0,0,0-.18-.3.94.94,0,0,0-.1.1.39.39,0,0,0,.32.16Zm0,0a.45.45,0,0,0,.42.43l0,0a.34.34,0,0,0-.12-.3.48.48,0,0,0-.31-.12Zm1.26.85a.37.37,0,0,0,.12.29.48.48,0,0,0,.3.13l0,0a.45.45,0,0,0-.42-.42Zm.81.88a.38.38,0,0,0-.25-.39l-.17,0,0,0a.47.47,0,0,0,.42.42Zm0,0a.36.36,0,0,0,.21.31l.09-.12a.3.3,0,0,0-.33-.15Zm1.24.88a.33.33,0,0,0-.2-.32l-.11.13a.34.34,0,0,0,.34.15Zm0,0c0,.3.11.38.42.42l0,0c0-.29-.13-.37-.42-.42Zm.81.88a.47.47,0,0,0-.42-.42l0,0a.45.45,0,0,0,.12.3.41.41,0,0,0,.3.12Zm.43.41a.41.41,0,0,0-.27-.37.47.47,0,0,0-.16,0l0,0a.5.5,0,0,0,.11.32.35.35,0,0,0,.31.11Zm1.7,2.09a.38.38,0,0,0,.12.31.35.35,0,0,0,.31.11l0,0a.5.5,0,0,0-.11-.32.35.35,0,0,0-.31-.11Z" transform="translate(0 0)"/><path class="cls-6" d="M82.07,90.76H74.7c-.42,0-.84,0-1.26,0a1.19,1.19,0,0,0-.59.2.75.75,0,0,1-.79,0,.89.89,0,0,0-.59-.18,3.32,3.32,0,0,0-.63,0,1.15,1.15,0,0,0-.4.12c-.27.15-.28.15-.57,0a1.16,1.16,0,0,0-.6-.15l-2.52,0c-.2,0-.2,0-.59.2a.8.8,0,0,1-.79,0,1.11,1.11,0,0,0-.59-.21c-.21,0-.42,0-.63,0H59.52c-1.82,0-3.65,0-5.47,0-.28,0-.56,0-.84,0a.91.91,0,0,1-.71-.37c-.16-.17-.13-.34.06-.54a2,2,0,0,1,.73-.41.24.24,0,0,0,.14-.14.61.61,0,0,0,0-.4.54.54,0,0,0-.11-.18.35.35,0,0,1,0-.53,5.36,5.36,0,0,0,.87-.91.44.44,0,0,0,.07-.4,1.58,1.58,0,0,0-.2-.36.56.56,0,0,1,0-.58.38.38,0,0,1,.34-.22c.28-.11.3-.18.14-.43a.62.62,0,0,1,0-.77.9.9,0,0,0,.19-.36.47.47,0,0,0-.08-.4,1.42,1.42,0,0,0-.63-.53.47.47,0,0,1-.36-.2,1.25,1.25,0,0,1,.15-.37c.13-.27.14-.34,0-.58a1.24,1.24,0,0,1-.26-.78,3,3,0,0,0,0-.42,1.27,1.27,0,0,0-.18-.59,1.05,1.05,0,0,1-.24-.78c0-.14,0-.28,0-.42a.82.82,0,0,0-.26-.56,4.11,4.11,0,0,0-.58-.6,7.58,7.58,0,0,0-.93-.86c-.13-.08-.24,0-.29.14a4.89,4.89,0,0,1-.4,1.17.8.8,0,0,0,0,.21c0,.13,0,.27-.06.41s-.11.26-.23.25a.34.34,0,0,1-.18-.09.93.93,0,0,1-.26-.33,4,4,0,0,0-.39-.74.86.86,0,0,1-.14-.6c0-.42,0-.84,0-1.26a1.2,1.2,0,0,1,.18-.59c.16-.24.21-.53.36-.76a1.58,1.58,0,0,0,.26-.79c0-.14,0-.28,0-.42A1.24,1.24,0,0,1,50.4,73a1.43,1.43,0,0,0,.2-.59,1.27,1.27,0,0,1,.18-.6c.22-.36.31-.78.55-1.13a.77.77,0,0,0,.11-.4,1.24,1.24,0,0,1,.32-.75c.1-.11.18-.22.27-.33a1.1,1.1,0,0,0,.21-.36,6.59,6.59,0,0,1,.38-.75,3.68,3.68,0,0,1,.26-.57,2.89,2.89,0,0,0,.27-.56c.09-.19.23-.36.32-.55a3,3,0,0,1,.27-.57c.16-.23.21-.51.36-.75s.21-.36.3-.56.27-.49.38-.74a1.62,1.62,0,0,1,.19-.37l.71-.78a1.81,1.81,0,0,0,.44-.71,2.62,2.62,0,0,1,.24-.34c.39-.4.79-.8,1.17-1.21.62-.66,1.3-1.28,2-1.91a.86.86,0,0,1,.36-.2,1.41,1.41,0,0,0,.52-.35l2.7-2.66a1.27,1.27,0,0,1,.52-.34,1.11,1.11,0,0,0,.37-.2c.15-.14.32-.27.47-.42.44-.45.9-.89,1.38-1.3l.17-.11a2,2,0,0,0,.72-.43,2.21,2.21,0,0,1,.88-.56,4.51,4.51,0,0,1,.92-.49,2.65,2.65,0,0,1,.76-.36c.34-.25.76-.35,1.11-.58a1.74,1.74,0,0,1,.8-.24,1,1,0,0,0,.39-.14,1.5,1.5,0,0,1,.59-.22,1.63,1.63,0,0,0,.79-.25,1.23,1.23,0,0,1,.6-.17l.84-.05a1.23,1.23,0,0,0,.59-.18,1.11,1.11,0,0,1,.58-.21L76,49a1.93,1.93,0,0,0,.42,0,1.48,1.48,0,0,0,.37-.2.8.8,0,0,1,.39-.14l1,0a1.11,1.11,0,0,0,.59-.18,1.47,1.47,0,0,1,.58-.23,1.3,1.3,0,0,0,.78-.26,1,1,0,0,1,.39-.14,2.06,2.06,0,0,0,.8-.24,1.14,1.14,0,0,1,.6-.15l4.63-.08a1.34,1.34,0,0,0,.61-.15,1.23,1.23,0,0,1,.6-.17c.35,0,.7,0,1,0a.84.84,0,0,1,.4.12,2.23,2.23,0,0,0,.56.27.64.64,0,0,1,.19.08c.13.06.25.13.37.2a3,3,0,0,1,.38-.15c.12,0,.21.06.23.23a4.48,4.48,0,0,1,.06.63c0,.42,0,.84,0,1.26a1.27,1.27,0,0,0,.15.6,1.45,1.45,0,0,1,.18.81v.63a1.35,1.35,0,0,1-.19.81.81.81,0,0,0-.12.4c0,.63,0,1.26,0,1.89a1.2,1.2,0,0,0,.18.59.86.86,0,0,1,0,.81,1.2,1.2,0,0,0-.18.59c0,1.4,0,2.81,0,4.21,0,1.05,0,2.1,0,3.16,0,.84,0,1.68,0,2.52,0,.63,0,1.26,0,1.89a1.93,1.93,0,0,1,0,.42,1.48,1.48,0,0,1-.2.37.81.81,0,0,0-.12.4c0,.28-.05.56,0,.84,0,2,0,3.93,0,5.89,0,.42,0,.84,0,1.26,0,.63,0,1.27,0,1.9,0,1,0,2,0,2.94,0,.23,0,.25.18.59a1.16,1.16,0,0,1,.19.59c0,.42,0,.84,0,1.27,0,1.4,0,2.8,0,4.2a1.07,1.07,0,0,1-.17.6c-.14.24-.13.25,0,.56.1.14.06.25-.15.27s-.56,0-.84,0l-4.21,0c-1.19,0-2.38.06-3.57.05m6-20.23a.29.29,0,0,0-.18-.33l-.12.12a.29.29,0,0,0,.33.18V71a6.17,6.17,0,0,0-.86,0,.31.31,0,0,0-.14-.29.12.12,0,0,0-.13,0,.28.28,0,0,0-.13.29.47.47,0,0,1-.41-.39c0-.13,0-.27,0-.41s-.11-.37-.36-.41h-.21a3.56,3.56,0,0,1-.72.39c-.25.07-.28.26-.11.44a1.26,1.26,0,0,0,.5.35.9.9,0,0,1,.37.17l.64.52a1.15,1.15,0,0,0,1,.11,1.36,1.36,0,0,0,.45-.41.53.53,0,0,0,.15-.37.31.31,0,0,0,.29-.14.15.15,0,0,0,0-.13.28.28,0,0,0-.29-.13m-3.32,1.61a.42.42,0,0,0,.32-.2,1.21,1.21,0,0,0,0-.19c0-.28-.11-.35-.38-.32s-.35.11-.32.38.13.36.38.33m-3.84-.41a.26.26,0,0,0,.31-.15.71.71,0,0,0-.08-.18.75.75,0,0,0-.27-.26l-.16-.1a.32.32,0,0,0-.15.33c0,.26.09.35.35.36m2.7-.52c.21,0,.33-.14.45-.27s.13-.23,0-.31a.36.36,0,0,0-.17-.07c-.29,0-.45.2-.42.49,0,.06.07.11.1.16m-29.5,10c0,.08.09.28.27.44s.24.13.31,0a.31.31,0,0,0,.06-.16.39.39,0,0,0-.48-.42.57.57,0,0,0-.16.11M55,88.47a.5.5,0,0,0,.15-.14.35.35,0,0,0,0-.2c0-.18-.15-.23-.25-.13a.33.33,0,0,0-.07.18.22.22,0,0,0,.18.29M86.54,74.53a.5.5,0,0,0,.14.15.34.34,0,0,0,.2,0c.18-.05.23-.15.13-.25a.33.33,0,0,0-.17-.07.24.24,0,0,0-.3.17m-.21,1.83c0-.14-.08-.22-.19-.2a.24.24,0,0,0-.13.13.4.4,0,0,0,.07.34s.09,0,.13.05a.23.23,0,0,0,.12-.32m-2.22-6.43.14-.12a.45.45,0,0,0-.09-.35c-.09-.1-.19-.08-.25.09a.33.33,0,0,0,.07.34s.08,0,.13,0m-4.06,4.33a.36.36,0,0,0,.32-.15.34.34,0,0,0-.3-.19.29.29,0,0,0-.3.17.26.26,0,0,0,.28.17m-1.57-1.44.14.09v-.16Zm3.49.74-.09.15H82Zm1.55-5.79c.07.18.15.19.25,0l-.12-.13-.13.12m1,11.5.09-.15h-.15Zm.42-4.2L85,75c-.06-.17-.14-.18-.23,0a1.47,1.47,0,0,1,.1.13m.42,10.51c.17-.06.18-.13,0-.22l-.12.1.1.12M64.79,58.94l-.13-.09,0,.15Zm-9.48,28.2c.06.17.13.18.22,0l-.1-.13-.12.11M51.73,75.79l-.13-.09,0,.15ZM50.2,83.36c0,.13,0,.27,0,.41V84a.46.46,0,0,0,.19.34.47.47,0,0,0,.18-.35c0-.69,0-1.38.07-2.07a.93.93,0,0,1,.14-.38c.13-.2.12-.33-.07-.54a1.2,1.2,0,0,0-.33-.25.5.5,0,0,0-.16.35,7.52,7.52,0,0,0,0,1.5c0,.22,0,.5,0,.78M48.31,87.3a.56.56,0,0,0,.37,0,.27.27,0,0,0,.13-.15.85.85,0,0,0,0-.76s-.09-.07-.13-.1a1,1,0,0,0-.46.36.34.34,0,0,0-.09.37.54.54,0,0,0,.22.32m5-2.37-.12.11.09.12c.17-.06.18-.14,0-.23M50.3,80h.12l0-.15Zm36.64-8.83s.1,0,.12,0a.42.42,0,0,0,.17-.29h-.44a.35.35,0,0,0,.15.29" transform="translate(0 0)"/></g></g></g></g></svg>