<svg xmlns="http://www.w3.org/2000/svg" xmlns:xlink="http://www.w3.org/1999/xlink" viewBox="0 0 93.41 91.92"><defs><style>.cls-1{fill:none;}.cls-2{clip-path:url(#clip-path);}.cls-3{fill:#45c2b1;}.cls-4{fill:#ffc557;}.cls-5{fill:#008375;}.cls-6{fill:#870f54;}</style><clipPath id="clip-path" transform="translate(0 0)"><rect class="cls-1" width="93.41" height="91.92"/></clipPath></defs><g id="Layer_2" data-name="Layer 2"><g id="Layer_1-2" data-name="Layer 1"><g id="protection-icon"><g class="cls-2"><path class="cls-3" d="M54.2,86.61a.45.45,0,0,0,.34-.22.58.58,0,0,0,.11-.39,1.49,1.49,0,0,1,0-.21.48.48,0,0,0-.39-.42c-.42-.09-.84,0-1.26-.1a.28.28,0,0,1-.25-.23l.16-.13.63-.08a.51.51,0,0,0,.28-.28,1.3,1.3,0,0,0,0-.62.8.8,0,0,0-.22-.35,1.67,1.67,0,0,0-.51-.37.6.6,0,0,1-.43-.63A.73.73,0,0,1,52.8,82a.4.4,0,0,0,.12-.35.63.63,0,0,0-.37-.19c-.06,0-.1-.09-.16-.13s.1-.19.27-.22a.55.55,0,0,0,.34-.21.85.85,0,0,0-.24-.35,4,4,0,0,0-.31-.27.59.59,0,0,0-.2-.07l0,0c0-.13,0-.26,0-.39a.7.7,0,0,0-.25-.52c-.13-.15-.27-.29-.41-.43-.3-.31-.32-.32-.65-.11a.6.6,0,0,1-.37.11l0,0a.72.72,0,0,0-.05-.21,3.56,3.56,0,0,0-.39-.48,1.06,1.06,0,0,1-.33-.75c0-.56-.06-1.12,0-1.68a1.19,1.19,0,0,0,0-.42,1.41,1.41,0,0,0-.18-.37,1.19,1.19,0,0,1-.14-.4,1.88,1.88,0,0,0-.22-.8,1.22,1.22,0,0,1-.16-.6c0-1.47,0-2.94,0-4.42a2.14,2.14,0,0,0,0-.62,3.29,3.29,0,0,0-.17-.39.78.78,0,0,1-.09-.4c0-.42,0-.84,0-1.26a1.17,1.17,0,0,1,.22-.8,1.17,1.17,0,0,0,.15-.39,1.34,1.34,0,0,0-.15-.81,1.22,1.22,0,0,1-.16-.6c0-.91,0-1.82,0-2.73a1.9,1.9,0,0,0,0-.63c0-.13-.12-.25-.17-.38a.9.9,0,0,1-.11-.4c0-.21,0-.42,0-.63,0-.92,0-1.83,0-2.74,0-1.26,0-2.52.07-3.79a1.42,1.42,0,0,0-.19-.8.82.82,0,0,1-.1-.4c0-.42,0-.84,0-1.26a1.62,1.62,0,0,1,.2-.81c.11-.18.19-.38.29-.56a.42.42,0,0,1,.34-.21,3.33,3.33,0,0,1,.63,0c1.82.05,3.65.08,5.47.08a1,1,0,0,0,.6-.14l.2-.08a.94.94,0,0,1,.41-.08c1.54,0,3.08.05,4.63.05.63,0,1.26,0,1.89,0l7.15.16,6.73.17,2.32,0a1.69,1.69,0,0,0,.8-.19,1,1,0,0,1,.41-.11h.42c1.12,0,2.24,0,3.36,0s2.11,0,3.16.05h1.26a1.09,1.09,0,0,0,.6-.16.84.84,0,0,1,.8,0,1.66,1.66,0,0,0,.38.18,1.93,1.93,0,0,0,.42,0h.42a.65.65,0,0,0,.4-.1,1.55,1.55,0,0,1,1-.18.73.73,0,0,1,.52.31.84.84,0,0,1,.19.59c0,1.61-.06,3.22-.1,4.84,0,.28,0,.56,0,.84a1,1,0,0,1-.22.57,1.2,1.2,0,0,0-.18.6c0,.56-.06,1.12-.1,1.68a1.43,1.43,0,0,1-.17.6,1.36,1.36,0,0,0-.21.58l-.12,1.47a1,1,0,0,1-.13.4,1.85,1.85,0,0,0-.19.37,2.93,2.93,0,0,0-.07.41c0,.14,0,.28,0,.42a1.77,1.77,0,0,1-.2.6,1.16,1.16,0,0,0-.2.58c0,.28,0,.56-.08.84a1.4,1.4,0,0,1-.18.6,1.85,1.85,0,0,0-.26.79,1.17,1.17,0,0,1-.13.4,1.68,1.68,0,0,0-.29.77,1.56,1.56,0,0,1-.22.59,2,2,0,0,0-.27.78,1.11,1.11,0,0,1-.16.39,1.8,1.8,0,0,0-.29.78.92.92,0,0,1-.14.39c-.2.29-.29.64-.48.93s-.35.77-.61,1.1a5.11,5.11,0,0,1-.48.93c-.1.35-.36.6-.48.94s-.3.47-.4.73-.36.6-.49.93a1.65,1.65,0,0,1-.22.36,3.2,3.2,0,0,0-.72,1,.67.67,0,0,1-.11.18c-.19.21-.37.42-.56.62a3,3,0,0,0-.61.85,1.84,1.84,0,0,1-.38.5,2.58,2.58,0,0,0-.48.69,1.51,1.51,0,0,1-.38.5L81.35,81a2,2,0,0,1-.53.33,1.41,1.41,0,0,0-.35.23c-.27.23-.52.48-.77.72-.56.53-1.12,1.06-1.71,1.56l-.64.55a4.14,4.14,0,0,1-.55.29l-.34.25a8.46,8.46,0,0,1-.81.67,1.09,1.09,0,0,1-.37.19,1.23,1.23,0,0,0-.37.21,5.31,5.31,0,0,1-.68.49l-.75.37c-.31.17-.64.29-.93.48a2.66,2.66,0,0,0-.92.5,2.09,2.09,0,0,1-.73.4,1.48,1.48,0,0,0-.37.2,1.6,1.6,0,0,1-.6.18.91.91,0,0,0-.4.1,2.35,2.35,0,0,1-1,.32,1,1,0,0,0-.39.14,1.6,1.6,0,0,1-.79.24,1,1,0,0,0-.4.12,2.63,2.63,0,0,1-.58.24A1.36,1.36,0,0,0,66,90a1.67,1.67,0,0,1-.79.25,1.55,1.55,0,0,0-.59.21,1,1,0,0,1-.4.11l-1.47.06a1.4,1.4,0,0,0-.59.18,1.29,1.29,0,0,1-.61.16l-.42,0a1.68,1.68,0,0,0-.79.24,1.12,1.12,0,0,1-.4.1c-1.27,0-2.53,0-3.79,0a1.17,1.17,0,0,1-.92-.43.86.86,0,0,1-.23-.57,1.92,1.92,0,0,0,0-.41c0-.06-.09-.11-.13-.16l-.15.08a1.78,1.78,0,0,1-.46.69c-.2.18-.31.2-.53.07s-.41-.2-.76,0l-.19.09a.91.91,0,0,1-.4.1c-.35,0-.7,0-1.05,0-.81,0-.82,0-.79-.17a3.51,3.51,0,0,1,.27-.55c.19-.39.19-.39.41-.29.52.23.53.23,1,0a1.07,1.07,0,0,1,1,0c.13.06.24.16.36.22a.53.53,0,0,0,.41,0c.13,0,.2-.17.27-.3.19-.4.21-.41.6-.47l.21,0a.39.39,0,0,0,.35-.19.65.65,0,0,0,.12-.39,1,1,0,0,0-.31-.75c-.11-.09-.21-.19-.32-.27a.93.93,0,0,0-.2-.08l0,0a1.07,1.07,0,0,0-.26-.52.57.57,0,0,1-.13-.36Zm32.23-25.8-.41,0a.38.38,0,0,0-.31.19,1.51,1.51,0,0,0,.09.18,1.28,1.28,0,0,0,.29.28.28.28,0,0,0,.36,0,.89.89,0,0,1,.37-.17.58.58,0,0,0,.34-.21.46.46,0,0,0-.32-.21l-.41,0m-.72,2.08a1.07,1.07,0,0,0,.4,0c.18,0,.21-.15.12-.29a1.12,1.12,0,0,0-.43-.41.52.52,0,0,0-.39,0,.25.25,0,0,0-.14.13.56.56,0,0,0-.07.37.66.66,0,0,0,.32.23,1.25,1.25,0,0,0,.19,0m2.55-.6-.14.12a.45.45,0,0,0,.07.35c.09.11.19.1.26-.07a.35.35,0,0,0-.06-.34s-.08,0-.13-.06M85.65,64a.27.27,0,0,0,.28.18.41.41,0,0,0,.32-.14A.34.34,0,0,0,86,63.8a.3.3,0,0,0-.31.15m-.85,3.31s-.13.08-.15.14a.34.34,0,0,0,0,.2c0,.17.14.22.25.13a.29.29,0,0,0,.07-.17.22.22,0,0,0-.16-.3m.25,1.59a.31.31,0,0,0-.37.13s.09.12.14.16a.44.44,0,0,0,.2,0c.17,0,.24-.1.2-.22a.59.59,0,0,0-.17-.1m1.43-1.38.13-.1q-.09-.27-.24,0l.11.13m-1.72-2.29.09.13.13-.1-.1-.12-.12.09m1.38-5c0,.16.12.17.21,0l-.1-.11-.11.09m-.26-1.39c-.19.07-.2.15,0,.26l.14-.12-.12-.14M80.42,83a1.41,1.41,0,0,0,.2,0,.94.94,0,0,0,.57-.18,12.62,12.62,0,0,0,1.2-1.11.67.67,0,0,0,.17-.36l0,0a1.34,1.34,0,0,0-.2,0,1,1,0,0,0-.58.17,12.63,12.63,0,0,0-1.21,1.1.5.5,0,0,0-.16.36Zm-29.6,1.15a.41.41,0,0,0-.16-.53.36.36,0,0,0-.38,0c-.08.09-.05.22.06.35a.73.73,0,0,0,.33.24.83.83,0,0,0,.15-.11m1.46-3.92a1.67,1.67,0,0,0-.59,0s-.09.09-.14.13.08.12.14.14a.44.44,0,0,0,.37,0,.35.35,0,0,0,.19-.32Zm-1.36,1.53c0-.06-.09-.1-.14-.15s-.13,0-.15.09a.31.31,0,0,0,0,.37s.1,0,.15.05a.31.31,0,0,0,.13-.36m.68,3.44a.34.34,0,0,0,.2,0c.18,0,.24-.14.15-.23a.27.27,0,0,0-.17-.08.24.24,0,0,0-.32.15c0,.06.08.13.14.15m3,2.25a.33.33,0,0,0-.33.17l.11.11a.26.26,0,0,0,.19-.31Zm-.43-.84a.31.31,0,0,0-.16-.33l-.12.1a.37.37,0,0,0,.32.19ZM80,83.44a.29.29,0,0,0-.33.15,1.47,1.47,0,0,0,.1.13.31.31,0,0,0,.2-.32Zm-29.33-.59,0,.14.15,0ZM80.44,83c-.31,0-.4.13-.43.43l0,0a.47.47,0,0,0,.17,0,.38.38,0,0,0,.27-.38Zm2.12-1.65a.39.39,0,0,0,.31-.18l-.11-.09a.29.29,0,0,0-.17.3ZM50.63,78.93a.32.32,0,0,0-.33.18,1.14,1.14,0,0,0,.11.11.31.31,0,0,0,.18-.33Z" transform="translate(0 0)"/><path class="cls-4" d="M15.37,47.72h9.06a1.83,1.83,0,0,1,1,.24.68.68,0,0,0,.2.07h.21c1.68,0,3.37,0,5.05,0a1.48,1.48,0,0,0,.61-.15,1.17,1.17,0,0,1,.8-.19l1.27,0a1.2,1.2,0,0,1,.59.18,1,1,0,0,0,.4.12h.21c1.69,0,3.37.05,5.06,0l1.26,0a1.37,1.37,0,0,0,.59-.19,1.82,1.82,0,0,1,.39-.14,3.72,3.72,0,0,1,1-.07,1.09,1.09,0,0,1,.75.34.41.41,0,0,1,.09.55,1.4,1.4,0,0,0-.15.6c0,.14,0,.28,0,.42,0,.7,0,1.4,0,2.11a1,1,0,0,0,.17.59,1.91,1.91,0,0,1,.18.81c0,2,0,3.94,0,5.9q0,5,0,9.9a1.91,1.91,0,0,1-.21.81.66.66,0,0,0-.09.19.65.65,0,0,0,0,.2c0,2.88-.06,5.76,0,8.64a1.7,1.7,0,0,0,.19.59,1,1,0,0,1,.11.4l0,3c0,2.6.05,5.2.05,7.79a6.23,6.23,0,0,1,0,1.06.53.53,0,0,1-.23.33c-.14,0-.27,0-.41.06-.42,0-.85,0-1.27,0-1.4,0-2.8-.06-4.21-.08a1.38,1.38,0,0,1-.6-.16c-.4-.18-.4-.18-.59-.19l-1.68-.07a1.6,1.6,0,0,1-.61-.14,1.4,1.4,0,0,0-.59-.21c-.35,0-.7,0-1-.06a1.35,1.35,0,0,1-.59-.21,1,1,0,0,0-.39-.14l-1.05-.08a1.4,1.4,0,0,1-.6-.18,1.52,1.52,0,0,0-.59-.19l-.63-.07a.9.9,0,0,1-.39-.13,1.59,1.59,0,0,0-.8-.24l-.21,0a1.34,1.34,0,0,1-.79-.24,1.6,1.6,0,0,0-.6-.18,1.53,1.53,0,0,1-.59-.2,2,2,0,0,0-.8-.24.92.92,0,0,1-.39-.14c-.29-.2-.65-.26-.95-.45a1.85,1.85,0,0,0-.37-.19,2.26,2.26,0,0,1-.56-.28,2.64,2.64,0,0,0-.37-.2,1.65,1.65,0,0,1-.37-.2c-.24-.16-.53-.2-.76-.37s-.33-.26-.49-.39a2.46,2.46,0,0,0-.55-.3c-.19-.08-.36-.22-.55-.31a3.72,3.72,0,0,1-.57-.27c-.23-.16-.51-.22-.74-.39s-.33-.26-.49-.39a1.75,1.75,0,0,0-.54-.32.69.69,0,0,1-.19-.1,1,1,0,0,1-.17-.12l-.79-.7a4,4,0,0,0-.72-.43,4.07,4.07,0,0,1-.64-.54,6.65,6.65,0,0,0-.65-.54,4.77,4.77,0,0,1-1.6-1.33l-.15-.15-.14-.16a8.65,8.65,0,0,1-.7-.78c-.07-.12-.12-.25-.19-.38a.66.66,0,0,0-.12-.17l-.72-.76c-.35-.35-.7-.69-1-1a4,4,0,0,1-1-1.32A.48.48,0,0,0,8.22,76l-.41-.48a3.32,3.32,0,0,1-.72-1A6.13,6.13,0,0,0,6.71,74a2.9,2.9,0,0,1-.44-.71,2.51,2.51,0,0,0-.49-.68,1.72,1.72,0,0,1-.32-.54,1.62,1.62,0,0,0-.21-.36,4.74,4.74,0,0,1-.4-.49c-.2-.29-.32-.62-.51-.92s-.2-.52-.36-.75-.3-.64-.49-.93-.2-.52-.36-.76a1.56,1.56,0,0,1-.19-.6,1.65,1.65,0,0,0-.2-.59,1.46,1.46,0,0,1-.22-.58,2,2,0,0,0-.27-.79,1.07,1.07,0,0,1-.14-.39,2.06,2.06,0,0,0-.24-.8,1.21,1.21,0,0,1-.19-.59,1.86,1.86,0,0,0-.27-.79.89.89,0,0,1-.12-.4c0-.28-.05-.56-.06-.84A1.46,1.46,0,0,0,1,60.68a.82.82,0,0,1-.13-.4l-.06-.63a1.17,1.17,0,0,0-.18-.59,1.4,1.4,0,0,1-.18-.6c0-.56,0-1.12,0-1.68s0-1.12,0-1.69a1.39,1.39,0,0,0,0-.41,1.93,1.93,0,0,0-.19-.38A1.07,1.07,0,0,1,0,53.7a1,1,0,0,1,.19-.59.69.69,0,0,0,0-.79c-.13-.22-.13-.23,0-.56a1.32,1.32,0,0,0,.11-.61.57.57,0,0,0-.11-.4,1.66,1.66,0,0,1-.25-1c0-.42,0-.84,0-1.26a.41.41,0,0,1,.24-.31,4.48,4.48,0,0,1,.63-.06l4-.07a.77.77,0,0,0,.4-.1,1.63,1.63,0,0,1,.19-.09,1,1,0,0,1,.4-.12l1.69,0ZM37.46,88.61v-.54a1.41,1.41,0,0,0,0-.2.6.6,0,0,0-.24-.53.92.92,0,0,0-.59,0,.37.37,0,0,0-.3.59.54.54,0,0,0,.32.23c.28.13.28.14.4.43a.46.46,0,0,0,.23.29c.17-.15.19-.35.19-.22m1.48-.81a.31.31,0,0,0-.18.29.38.38,0,0,0,.16.31.35.35,0,0,0,.18-.3.29.29,0,0,0-.16-.3m-2.12-1.92.09-.13-.15,0ZM36,85.27l-.09.13.15,0ZM39.37,79l-.09.13.15,0Zm.1-2.83c-.06-.15-.13-.16-.22,0s.06.1.1.11.08,0,.12-.08M39.9,74c-.06-.16-.14-.17-.23,0l.11.12L39.9,74m-.85-1.28-.14-.09,0,.15Zm-3.47-1.8-.1.13.16,0ZM9.26,78.82a1.47,1.47,0,0,0,0,.21,1,1,0,0,0,.19.57,9.86,9.86,0,0,0,.69.76.51.51,0,0,0,.37.16h0c0-.42,0-.58-.21-.76s-.47-.5-.71-.74a.51.51,0,0,0-.35-.17l0,0m5.05,5.06a.39.39,0,0,0,.19.29l.09-.1a.51.51,0,0,0-.3-.17Zm-.42-.42a.46.46,0,0,0,.26.37l.16,0,0,0a.51.51,0,0,0-.43-.41Zm0,0a.34.34,0,0,0-.2-.3l-.09.1a.41.41,0,0,0,.32.17Zm-2.5-2.14a.29.29,0,0,0,.18.29l.1-.1a.34.34,0,0,0-.31-.16Zm0,0a.42.42,0,0,0-.1-.31.35.35,0,0,0-.31-.12h0c0,.28.13.37.43.41Zm-.82-.86c0,.29.13.38.42.42h0a.37.37,0,0,0-.11-.31.32.32,0,0,0-.31-.11ZM8.84,78.4a.41.41,0,0,0,.12.3.33.33,0,0,0,.3.12l0,0a.45.45,0,0,0-.43-.43Zm0,0a.35.35,0,0,0-.17-.32l-.1.11a.32.32,0,0,0,.31.18Z" transform="translate(0 0)"/><path class="cls-5" d="M.27,33c0-3.29,0-6.59,0-9.89,0-.35,0-.7,0-1.05a1.57,1.57,0,0,1,.21-.8.71.71,0,0,0,.11-.4c0-2.11.1-4.21.09-6.31,0-.56,0-1.13,0-1.69,0-.91,0-1.82,0-2.73a1.54,1.54,0,0,1,.17-.6A1,1,0,0,0,1,9.16c0-1.21.05-4.39,0-5.68a1.15,1.15,0,0,0-.18-.6,2.23,2.23,0,0,1-.23-.8,1,1,0,0,0-.15-.39c-.18-.3-.18-.32,0-.53S.8.85.93.68,1.09.3,1.21.13A.33.33,0,0,1,1.59,0,1.14,1.14,0,0,1,2,.18a1.15,1.15,0,0,0,.6.16c.28,0,.56,0,.84,0l1,0c.7,0,1.4.05,2.1,0s1.27,0,1.9,0,1.12,0,1.68,0h.42a2,2,0,0,1,1.22.23,1.17,1.17,0,0,0,.37-.13,1.21,1.21,0,0,1,.62-.1l2.52,0a1.4,1.4,0,0,1,.6.18.69.69,0,0,0,.78,0,.32.32,0,0,1,.4,0,1.49,1.49,0,0,0,.8.2L21,.79l1.26,0a1.63,1.63,0,0,1,.8.22.8.8,0,0,0,.4.11l2.31,0,3.58,0c3.37,0,6.73,0,10.1,0a1.69,1.69,0,0,0,.8-.2,1.29,1.29,0,0,1,.61-.13h3.37a.76.76,0,0,1,.21,0,.49.49,0,0,1,.33.22c0,.14,0,.28.05.42,0,.35,0,.7,0,1.05,0,1.19,0,2.38,0,3.57a1.22,1.22,0,0,0,.2.59,1.18,1.18,0,0,1,.14.6,1,1,0,0,1-.15.6,1.55,1.55,0,0,0-.21.59c0,.21,0,.42,0,.63a1.14,1.14,0,0,1-.11.4l-.2.37-.06.63a1.35,1.35,0,0,1-.22.8,1.37,1.37,0,0,0-.22.58,2,2,0,0,1-.26.79.78.78,0,0,0-.12.4c0,.21,0,.41-.06.62a1.49,1.49,0,0,1-.21.59,1,1,0,0,0-.14.39c0,.21-.05.42-.07.63a1.26,1.26,0,0,1-.17.6,1.5,1.5,0,0,0-.21.8,9.21,9.21,0,0,1,0,1.05,1.67,1.67,0,0,1-.25.79.8.8,0,0,0-.14.39c0,.21,0,.42,0,.63a1.16,1.16,0,0,1-.34.74c-.39.45-.39.38-.47.91a2.08,2.08,0,0,1-.21.59,1.44,1.44,0,0,0-.19.37,1.39,1.39,0,0,1-.42.71l-.15.15-.24.34a8.24,8.24,0,0,1-.47.94,1.33,1.33,0,0,1-.2.37l-.26.33a2.17,2.17,0,0,0-.42.72c-.09.26-.3.47-.39.74s-.29.48-.4.74a2,2,0,0,1-.33.53l-.56.63a2.7,2.7,0,0,0-.45.7,1.15,1.15,0,0,1-.24.35c-.28.31-.57.61-.86.92a2.57,2.57,0,0,0-.6.85.67.67,0,0,1-.11.18,9.27,9.27,0,0,1-1,1.06,1.82,1.82,0,0,1-.53.33,1.63,1.63,0,0,0-.35.23l-1.54,1.43a2.52,2.52,0,0,1-.69.48,1.16,1.16,0,0,0-.34.24l-.92.86a2.33,2.33,0,0,1-.87.58l-.34.25c-.27.22-.52.46-.79.69a1.63,1.63,0,0,1-.35.23c-.26.1-.48.3-.74.4a2.81,2.81,0,0,0-.88.56,1.31,1.31,0,0,1-.34.24,6.28,6.28,0,0,0-.92.5,1.8,1.8,0,0,0-.72.42,2.62,2.62,0,0,1-.9.52c-.29.2-.64.29-.94.48s-.64.28-.93.47a2,2,0,0,1-.79.27.93.93,0,0,0-.39.15c-.35.23-.78.31-1.13.54a1.09,1.09,0,0,1-.4.12,1.54,1.54,0,0,0-.6.17,1.86,1.86,0,0,1-.79.27.79.79,0,0,0-.4.13c-.34.24-.76.34-1.13.55a.46.46,0,0,1-.19.08l-.84,0-1.05,0a1.93,1.93,0,0,0-.42.05,2.53,2.53,0,0,0-.37.18,1.32,1.32,0,0,1-.61.16l-1.68.06a1.26,1.26,0,0,0-.6.17,1.34,1.34,0,0,1-.6.16c-2.45,0-4.91.12-7.36,0-.35,0-.7,0-1,0a.59.59,0,0,1-.21-.35,3,3,0,0,1,0-.42c0-.84,0-1.68,0-2.52L.27,33ZM22.1,5.74c.23,0,.34,0,.38-.3s0-.36-.3-.39-.34,0-.38.3.05.35.3.39m5.49-1.56c-.15,0-.22.08-.22.19s.08.12.13.14a.32.32,0,0,0,.33-.07s.05-.09.07-.13a.23.23,0,0,0-.31-.13m.14,3.52.13.09,0-.15ZM25.17,5.59l.11.14c.17-.07.18-.15,0-.25l-.13.11M24,5.49l-.11.09c.05.16.13.16.21,0L24,5.49m-2.1,6.32-.11.1c.05.17.12.18.21,0l-.1-.12M34.37,33.63c-.41,0-.58,0-.76.2L32.42,35a.47.47,0,0,0-.16.36v0a.67.67,0,0,0,.2,0,1,1,0,0,0,.57-.19A10.6,10.6,0,0,0,34.21,34a.55.55,0,0,0,.14-.37ZM31,36.13h.36a.65.65,0,0,0,.33-.11.44.44,0,0,0,.16-.3l0,0a1.19,1.19,0,0,0-.42,0,.51.51,0,0,0-.42.4Zm6.78-6.71a.49.49,0,0,0-.39.43,1.39,1.39,0,0,0,0,.41l0,0a.49.49,0,0,0,.41-.49c0-.12,0-.24,0-.35l0,0m-7.17,7.16a.36.36,0,0,0-.32.17l.11.12a.34.34,0,0,0,.18-.32Zm.43-.42a.5.5,0,0,0-.43.42l0,0,.16,0a.41.41,0,0,0,.26-.38ZM38.13,29a.31.31,0,0,0,.3-.18l-.1-.1a.42.42,0,0,0-.16.32Zm0,0a.44.44,0,0,0-.42.42l0,0a.32.32,0,0,0,.3-.12.43.43,0,0,0,.12-.31Zm-.84,1.26a.41.41,0,0,0-.3.12.47.47,0,0,0-.12.3l0,0a.45.45,0,0,0,.42-.42Zm-.88.81a.37.37,0,0,0,.38-.25.53.53,0,0,0,0-.17l0,0a.46.46,0,0,0-.42.42Zm0,0a.34.34,0,0,0-.31.21l.12.09a.33.33,0,0,0,.15-.33Zm-.88,1.24a.32.32,0,0,0,.31-.2L35.8,32a.35.35,0,0,0-.16.34Zm0,0c-.29,0-.38.11-.42.42l0,0c.28,0,.36-.13.42-.42Zm-.87.81a.49.49,0,0,0,.42-.42l0,0a.41.41,0,0,0-.29.12.38.38,0,0,0-.13.3Zm-.42.43a.42.42,0,0,0,.38-.27c0-.05,0-.11,0-.16l0,0a.49.49,0,0,0-.31.11.35.35,0,0,0-.12.31Zm-2.09,1.7a.39.39,0,0,0-.31.12.34.34,0,0,0-.1.31l0,0a.49.49,0,0,0,.31-.11.35.35,0,0,0,.12-.31Z" transform="translate(0 0)"/><path class="cls-6" d="M91.93,15.38c-.06,1.83-.13,3.65-.19,5.47l-.12,4c0,.2,0,.2.15.61a1.74,1.74,0,0,1,.11.82.8.8,0,0,1-.11.4.51.51,0,0,0,0,.57.85.85,0,0,1,.09.41c0,1.54,0,3.08-.08,4.62,0,.35,0,.71,0,1.06a1.24,1.24,0,0,0,.16.59,1.46,1.46,0,0,1,.12.62c0,.49,0,1,0,1.47,0,.91,0,1.82,0,2.73a1.42,1.42,0,0,0,.13.61,1.28,1.28,0,0,1,.16.6l-.09,4.21a2.7,2.7,0,0,1-.07.41.61.61,0,0,1-.34.22,7.38,7.38,0,0,1-1.05.05l-1.48-.05a1.85,1.85,0,0,0-1,.21.7.7,0,0,1-.6,0,1.68,1.68,0,0,0-.79-.26c-1.12,0-2.24-.12-3.36-.2a1.36,1.36,0,0,1-.59-.18,1.43,1.43,0,0,0-.59-.2L80.61,44a1.27,1.27,0,0,1-.6-.18,1.81,1.81,0,0,0-.78-.26l-.84-.08a1.21,1.21,0,0,1-.58-.22,1.17,1.17,0,0,0-.39-.15A13.24,13.24,0,0,0,75.53,43a.87.87,0,0,1-.57-.22l-.31-.28a1.15,1.15,0,0,0-.74-.35l-.42-.06a.92.92,0,0,1-.4-.11c-.36-.22-.76-.34-1.12-.57a1.08,1.08,0,0,0-.38-.17,2.3,2.3,0,0,1-1-.37c-.23-.16-.5-.24-.73-.4a10.19,10.19,0,0,1-.91-.52,4,4,0,0,1-.74-.39c-.23-.17-.52-.23-.74-.4a3.71,3.71,0,0,0-.56-.29,6.51,6.51,0,0,0-.73-.41,1.13,1.13,0,0,1-.36-.22,3.68,3.68,0,0,0-1-.73.41.41,0,0,1-.17-.12l-.92-.86a1.24,1.24,0,0,0-.35-.23,1.23,1.23,0,0,1-.36-.23l-1-1a3.89,3.89,0,0,0-.85-.61,1.18,1.18,0,0,1-.32-.27l-1-1.09a2.38,2.38,0,0,1-.58-.86,2.13,2.13,0,0,0-.25-.34c-.37-.42-.75-.83-1.14-1.24s-.76-.82-1.11-1.26a1.86,1.86,0,0,1-.31-.55,1.1,1.1,0,0,0-.21-.36c-.21-.27-.45-.53-.67-.8-.09-.11-.16-.23-.24-.35a2.79,2.79,0,0,0-.52-.9,1.89,1.89,0,0,1-.32-.55c-.11-.33-.35-.6-.44-.94-.07-.12-.14-.25-.22-.36a3.73,3.73,0,0,1-.47-.7c-.1-.26-.24-.5-.36-.75a7.59,7.59,0,0,0-.35-.77c-.16-.3-.26-.64-.45-.94a7.43,7.43,0,0,0-.33-.77c-.16-.31-.25-.65-.42-1a.91.91,0,0,1-.1-.4,1.88,1.88,0,0,0-.25-.8.89.89,0,0,1-.12-.4,1.81,1.81,0,0,0-.23-.79,1,1,0,0,1-.14-.4,2.34,2.34,0,0,0-.28-1,.8.8,0,0,1-.09-.41l0-.84a1.84,1.84,0,0,0,0-.41,1.66,1.66,0,0,0-.18-.38,1.19,1.19,0,0,1-.11-.41c0-.21,0-.42,0-.63a.78.78,0,0,0-.09-.4,1.87,1.87,0,0,1-.25-1,2.23,2.23,0,0,0-.23-1,.46.46,0,0,1-.08-.19c0-.14,0-.28,0-.42V7.45a1.85,1.85,0,0,0,0-.41A1.92,1.92,0,0,0,49,6.65a.93.93,0,0,1-.09-.4c0-1.2,0-2.39,0-3.58,0-.28,0-.56,0-.84a1.12,1.12,0,0,0-.16-.6c-.09-.16-.08-.27.08-.34a.49.49,0,0,1,.2-.05,15.69,15.69,0,0,1,1.68,0h.63A1.25,1.25,0,0,0,52,.7a1.28,1.28,0,0,1,.61-.12H53l9.67.27c1.55,0,3.09.1,4.63.15a1.32,1.32,0,0,0,.61-.13,1.22,1.22,0,0,1,.6-.16h.84l6.52.19,2.1,0a1.32,1.32,0,0,0,.59-.18,1.33,1.33,0,0,1,.61-.14c1,0,2,0,3,.07,1.26.06,2.52.1,3.78.1a1.4,1.4,0,0,0,.41-.06c.46-.13.46-.14.77,0a1,1,0,0,0,.4.12l1.68.07a1.18,1.18,0,0,0,.42,0A2.11,2.11,0,0,0,90,.73a.84.84,0,0,1,.2-.08,3.78,3.78,0,0,1,1.46,0,.46.46,0,0,1,.28.28,4.68,4.68,0,0,1,.06.84c0,.91-.06,1.82-.08,2.73a1.48,1.48,0,0,0,0,.42,1.8,1.8,0,0,0,.16.38,1.46,1.46,0,0,1,.13.61c0,.07,0,.14,0,.21,0,1.48-.08,3-.1,4.42,0,.84,0,1.68-.07,2.52s-.05,1.54-.07,2.31h0m-35.29,8a1.4,1.4,0,0,0,.61,0c.16-.06.17-.18,0-.32s-.36-.41-.55-.61-.24-.17-.33-.1a.32.32,0,0,0-.1.37c.09.26.33.44.36.73a.31.31,0,0,0-.34.17.69.69,0,0,1,.11.13.31.31,0,0,0,.2-.33m.8,1.29A1,1,0,0,1,58,25a.56.56,0,0,0,.73,0,1.28,1.28,0,0,0,.28-.29c.09-.12.07-.23-.11-.29a2.25,2.25,0,0,0-1-.05.44.44,0,0,0-.38.39.32.32,0,0,0-.34.17l.11.12a.33.33,0,0,0,.2-.32M55.61,4.86a2.68,2.68,0,0,0,0,.4.33.33,0,0,0,.2.28c.05,0,.12-.09.14-.15A2.06,2.06,0,0,1,56.13,5l.23-.34c0-.07-.12-.29-.35-.46l-.17-.11a.51.51,0,0,0-.2.34,1.14,1.14,0,0,0,0,.41m0,2.72.14.17a.56.56,0,0,0,.39-.1.37.37,0,0,0,.13-.37.59.59,0,0,0-.1-.17.46.46,0,0,0-.34.15.71.71,0,0,0-.22.32M59,26a1.2,1.2,0,0,0-.38,0c-.16,0-.22.15-.15.24a.25.25,0,0,0,.14.11c.13,0,.26,0,.39,0a.32.32,0,0,0,.35-.13c.08-.12-.1-.26-.35-.27m-2.1-4.44c.05,0,.11,0,.14-.05a.31.31,0,0,0,.11-.34c-.06-.16-.18-.2-.27-.11a.32.32,0,0,0-.09.34.57.57,0,0,0,.11.16M51.14,2.76c.06.18.13.19.23,0l-.1-.13-.13.1M57.51,5l-.09.14.15,0Zm0,12.65-.1.12.15,0ZM56.92,19l.13.1,0-.15ZM58,23.66c.05.17.13.18.23,0l-.11-.13-.12.1M60.56,26l.12-.09c0-.17-.13-.18-.22,0l.1.12m1.25.47.13-.1q-.09-.27-.24,0l.11.13" transform="translate(0 0)"/></g></g></g></g></svg>