<svg xmlns="http://www.w3.org/2000/svg" xmlns:xlink="http://www.w3.org/1999/xlink" viewBox="0 0 91.5 92.11"><defs><style>.cls-1{fill:none;}.cls-2{clip-path:url(#clip-path);}.cls-3{fill:#00ac69;}.cls-4{fill:#008375;}.cls-5{fill:#ffc557;}.cls-6{fill:#aada91;}</style><clipPath id="clip-path" transform="translate(0 0)"><rect class="cls-1" width="91.5" height="92.11"/></clipPath></defs><g id="Layer_2" data-name="Layer 2"><g id="Layer_1-2" data-name="Layer 1"><g id="transformation-icon"><g class="cls-2"><path class="cls-3" d="M28.76,44.1h-9a1.78,1.78,0,0,1-1-.24.53.53,0,0,0-.19-.06.75.75,0,0,0-.21,0c-1.68,0-3.36,0-5,0a1.33,1.33,0,0,0-.61.14,1.18,1.18,0,0,1-.8.2l-1.26,0a1.4,1.4,0,0,1-.6-.18,1,1,0,0,0-.39-.13H9.41c-1.68,0-3.36,0-5,0-.42,0-.84,0-1.26,0a1.4,1.4,0,0,0-.59.18,1.3,1.3,0,0,1-.39.14,4,4,0,0,1-1,.08,1.14,1.14,0,0,1-.75-.34.41.41,0,0,1-.09-.55,1.4,1.4,0,0,0,.15-.6V40.16a1,1,0,0,0-.16-.6,1.91,1.91,0,0,1-.18-.81c0-2,0-3.92,0-5.88Q0,27.92.06,23a1.83,1.83,0,0,1,.21-.8A1.63,1.63,0,0,0,.36,22a.75.75,0,0,0,0-.21c0-2.87.06-5.74,0-8.62a1.7,1.7,0,0,0-.19-.59,1,1,0,0,1-.11-.4l0-2.94C0,6.65,0,4.06,0,1.46a6,6,0,0,1,0-1A.53.53,0,0,1,.27.08C.41.06.54,0,.68,0c.42,0,.84,0,1.26,0,1.4,0,2.8,0,4.2.07a1.72,1.72,0,0,1,.6.16c.4.19.4.19.59.19L9,.5a1.6,1.6,0,0,1,.61.14,1.35,1.35,0,0,0,.59.21c.35,0,.69.05,1,.06a1.35,1.35,0,0,1,.59.21,1,1,0,0,0,.39.14l1,.07a1.62,1.62,0,0,1,.6.19,1.46,1.46,0,0,0,.59.19l.62.06a1,1,0,0,1,.4.14,1.56,1.56,0,0,0,.79.24l.21,0a1.33,1.33,0,0,1,.79.23,1.62,1.62,0,0,0,.6.19,1.52,1.52,0,0,1,.59.19,1.86,1.86,0,0,0,.79.24.87.87,0,0,1,.39.14c.3.2.65.27,1,.45A1.85,1.85,0,0,0,21,3.8a1.86,1.86,0,0,1,.56.29l.37.19a1.65,1.65,0,0,1,.37.2c.24.16.53.2.75.37s.33.26.5.39a2.26,2.26,0,0,0,.55.3,5.79,5.79,0,0,1,.54.31,3.68,3.68,0,0,1,.57.26c.24.16.52.23.74.39s.33.27.49.4a2,2,0,0,0,.54.32.69.69,0,0,1,.19.1.66.66,0,0,1,.17.12c.26.23.53.45.79.69a4,4,0,0,0,.71.43,4.16,4.16,0,0,1,.64.54,6.65,6.65,0,0,0,.65.54A4.77,4.77,0,0,1,31.7,11l.14.15.15.15a6.51,6.51,0,0,1,.69.79,3.24,3.24,0,0,1,.19.37,1.09,1.09,0,0,0,.13.17l.72.77c.34.35.7.69,1,1a4.1,4.1,0,0,1,1,1.31.52.52,0,0,0,.12.18c.13.16.27.31.41.47a3.24,3.24,0,0,1,.72,1c.12.17.24.34.37.5a2.9,2.9,0,0,1,.44.71,2.94,2.94,0,0,0,.49.68,2.06,2.06,0,0,1,.33.53,1,1,0,0,0,.21.36c.13.17.28.32.4.49s.31.62.5.92.2.52.36.76.3.63.49.92.2.52.35.76a1.38,1.38,0,0,1,.2.59,1.53,1.53,0,0,0,.2.59,1.52,1.52,0,0,1,.22.58,1.81,1.81,0,0,0,.27.79A1.38,1.38,0,0,1,42,27a1.92,1.92,0,0,0,.25.8,1.21,1.21,0,0,1,.19.59,1.73,1.73,0,0,0,.27.79.88.88,0,0,1,.11.4c0,.27,0,.55.06.83a1.61,1.61,0,0,0,.23.8.79.79,0,0,1,.13.39c0,.21,0,.42.06.63a1.42,1.42,0,0,0,.18.59,1.56,1.56,0,0,1,.19.6l0,1.68c0,.56,0,1.12,0,1.68a1.84,1.84,0,0,0,0,.41,1.62,1.62,0,0,0,.19.37,1.08,1.08,0,0,1,.12.61,1,1,0,0,1-.19.59.69.69,0,0,0,0,.78c.13.22.13.23,0,.57a1.28,1.28,0,0,0-.11.61.6.6,0,0,0,.11.39,1.6,1.6,0,0,1,.25,1c0,.42,0,.84,0,1.26a.43.43,0,0,1-.24.31c-.21,0-.42.05-.63.06l-4,.06a.77.77,0,0,0-.4.11l-.19.09a1,1,0,0,1-.4.11l-1.68,0H28.76ZM6.72,3.3v.54c0,.07,0,.13,0,.2,0,.24.11.48.24.53a.92.92,0,0,0,.59,0,.56.56,0,0,0,.34-.21.61.61,0,0,0,0-.38.59.59,0,0,0-.32-.23c-.27-.12-.28-.13-.39-.42a.47.47,0,0,0-.24-.29c-.16.14-.19.34-.19.21m-1.47.81a.28.28,0,0,0,.17-.28.33.33,0,0,0-.15-.31.3.3,0,0,0-.18.29.28.28,0,0,0,.16.3M7.36,6l-.09.13.15,0Zm.82.61.08-.13-.15,0ZM4.82,13l.09-.14-.15,0Zm-.1,2.82c.06.15.13.16.22,0s-.06-.09-.1-.1-.08.05-.12.08m-.42,2.1c0,.16.13.16.22,0l-.11-.12-.11.1m.84,1.27.14.09,0-.15ZM8.6,20.93l.1-.13-.16,0Zm26.26-7.86c0-.07,0-.13,0-.2a1,1,0,0,0-.2-.57,9.86,9.86,0,0,0-.69-.76.5.5,0,0,0-.36-.16h0c0,.41,0,.58.21.76l.7.74a.51.51,0,0,0,.36.17ZM29.83,8a.37.37,0,0,0-.19-.28l-.1.09a.46.46,0,0,0,.31.17Zm.41.43A.45.45,0,0,0,30,8.08L29.83,8l0,0a.53.53,0,0,0,.42.42Zm0,0a.36.36,0,0,0,.2.29l.09-.1a.39.39,0,0,0-.32-.16Zm2.49,2.13a.31.31,0,0,0-.18-.3l-.1.11a.35.35,0,0,0,.32.16Zm0,0a.36.36,0,0,0,.1.31.35.35,0,0,0,.31.12h0c0-.29-.12-.37-.43-.41Zm.82.86c0-.3-.13-.38-.43-.42h0a.4.4,0,0,0,.11.31.37.37,0,0,0,.31.11Zm1.66,2.11a.41.41,0,0,0-.12-.3.35.35,0,0,0-.3-.12l0,0a.44.44,0,0,0,.42.42Zm0,0a.37.37,0,0,0,.17.32l.1-.1a.31.31,0,0,0-.31-.19Z" transform="translate(0 0)"/><path class="cls-4" d="M58.55,47.22l9.86,0h1a1.58,1.58,0,0,1,.8.22.82.82,0,0,0,.4.1c2.1,0,4.2.1,6.3.09h1.68c.91,0,1.82,0,2.73,0a1.44,1.44,0,0,1,.6.18.9.9,0,0,0,.39.13c1.2,0,4.38.06,5.66,0a1,1,0,0,0,.6-.17,2.47,2.47,0,0,1,.8-.24.88.88,0,0,0,.38-.14c.31-.19.32-.18.54,0l.47.41c.17.14.39.16.56.29a.34.34,0,0,1,.11.37,1.17,1.17,0,0,1-.17.38,1.05,1.05,0,0,0-.15.6c0,.28,0,.56,0,.84s0,.7,0,1c0,.7,0,1.4,0,2.1s0,1.25,0,1.88,0,1.12,0,1.68c0,.14,0,.28,0,.42a2,2,0,0,1-.23,1.22,1,1,0,0,0,.13.37,1.19,1.19,0,0,1,.09.62c0,.84,0,1.68,0,2.52a1.5,1.5,0,0,1-.18.59.69.69,0,0,0,0,.78.3.3,0,0,1,0,.39,1.52,1.52,0,0,0-.19.81c0,1,0,2.1,0,3.14,0,.42,0,.84,0,1.26a1.63,1.63,0,0,1-.21.81.89.89,0,0,0-.12.39c0,.77,0,1.54,0,2.31l0,3.57c0,3.36,0,6.72,0,10.08a1.6,1.6,0,0,0,.19.8,1.3,1.3,0,0,1,.14.61v3.36a1.49,1.49,0,0,1,0,.21.52.52,0,0,1-.22.33l-.42,0c-.35,0-.7,0-1.05,0-1.19,0-2.38,0-3.56,0a1.34,1.34,0,0,0-.59.2,1.09,1.09,0,0,1-.6.14,1,1,0,0,1-.6-.14,1.4,1.4,0,0,0-.59-.21c-.2,0-.41,0-.62-.06a.92.92,0,0,1-.4-.11l-.38-.19L81,91.33a1.29,1.29,0,0,1-.8-.23,1.5,1.5,0,0,0-.58-.21,1.91,1.91,0,0,1-.79-.27.77.77,0,0,0-.39-.11c-.21,0-.42-.06-.63-.07a1.38,1.38,0,0,1-.59-.2.87.87,0,0,0-.39-.14L76.21,90a1.26,1.26,0,0,1-.6-.17,1.5,1.5,0,0,0-.8-.21,9,9,0,0,1-1,0,1.67,1.67,0,0,1-.79-.25.8.8,0,0,0-.39-.14c-.21,0-.42,0-.63,0a1.16,1.16,0,0,1-.74-.34c-.45-.39-.38-.39-.9-.47a1.73,1.73,0,0,1-.59-.21,1.33,1.33,0,0,0-.38-.18,1.43,1.43,0,0,1-.7-.43,1.07,1.07,0,0,0-.16-.14l-.34-.24a8.1,8.1,0,0,1-.93-.47,1.65,1.65,0,0,1-.37-.2l-.32-.26a2.27,2.27,0,0,0-.72-.42c-.27-.09-.47-.3-.74-.39s-.48-.29-.74-.4a1.82,1.82,0,0,1-.53-.33l-.63-.55a2.5,2.5,0,0,0-.7-.46,1.13,1.13,0,0,1-.34-.23c-.32-.28-.62-.57-.93-.86a2.43,2.43,0,0,0-.85-.6.62.62,0,0,1-.17-.11,7.88,7.88,0,0,1-1.06-1,2.09,2.09,0,0,1-.34-.53,1.29,1.29,0,0,0-.22-.35l-1.43-1.53a2.48,2.48,0,0,1-.47-.69,1.2,1.2,0,0,0-.25-.34c-.28-.31-.57-.62-.86-.92a2.38,2.38,0,0,1-.58-.86,2.93,2.93,0,0,0-.24-.34l-.69-.8a1.18,1.18,0,0,1-.23-.35c-.1-.26-.3-.47-.4-.73a3,3,0,0,0-.55-.88,1.15,1.15,0,0,1-.25-.34,7.34,7.34,0,0,0-.49-.92,1.93,1.93,0,0,0-.42-.72,2.41,2.41,0,0,1-.53-.9c-.2-.29-.29-.63-.47-.93s-.28-.64-.47-.93A2,2,0,0,1,50,67a1,1,0,0,0-.15-.39c-.23-.35-.31-.77-.54-1.13a1.09,1.09,0,0,1-.12-.4,1.54,1.54,0,0,0-.17-.59,1.72,1.72,0,0,1-.26-.79.91.91,0,0,0-.14-.4c-.24-.34-.34-.76-.55-1.12A.48.48,0,0,1,48,62c0-.28,0-.56-.05-.84s0-.7,0-1a1.47,1.47,0,0,0,0-.42,1.64,1.64,0,0,0-.18-.38,1.37,1.37,0,0,1-.15-.6c0-.56,0-1.12-.06-1.68a1.4,1.4,0,0,0-.18-.59,1.4,1.4,0,0,1-.15-.6C47,53.4,47,51,47.06,48.5c0-.35,0-.7,0-1a.58.58,0,0,1,.34-.22,3,3,0,0,1,.42,0c.84,0,1.68,0,2.52,0l8.19,0ZM85.77,69c0,.23,0,.34.3.38s.35,0,.39-.3,0-.35-.31-.38-.34,0-.38.3m1.56,5.47c0-.14-.08-.21-.2-.21s-.11.07-.13.12a.34.34,0,0,0,.07.34.39.39,0,0,0,.13.06.24.24,0,0,0,.13-.31m-3.52.15-.08.12.14,0Zm2.1-2.56-.13.11c.07.17.15.18.25,0l-.12-.13M86,70.94l-.09-.11c-.16,0-.17.13,0,.22l.11-.11m-6.31-2.09-.1-.11c-.17.05-.17.12,0,.2l.12-.09M57.94,81.25c0-.41,0-.58-.2-.76L56.63,79.3a.49.49,0,0,0-.36-.15v0c0,.07,0,.14,0,.21a1,1,0,0,0,.2.56,9.68,9.68,0,0,0,1.12,1.19.55.55,0,0,0,.37.14Zm-2.49-3.39c0,.12,0,.24,0,.35a.52.52,0,0,0,.11.33.37.37,0,0,0,.29.16l0,0a1.12,1.12,0,0,0,0-.41.5.5,0,0,0-.39-.42Zm6.69,6.76a.49.49,0,0,0-.43-.39,1.39,1.39,0,0,0-.41,0l0,0a.48.48,0,0,0,.48.41h.35ZM55,77.47a.34.34,0,0,0-.17-.32l-.11.1a.32.32,0,0,0,.31.19Zm.43.43a.51.51,0,0,0-.43-.43l0,0a1,1,0,0,0,0,.16.4.4,0,0,0,.38.26ZM62.6,85a.31.31,0,0,0,.18.29l.1-.1a.42.42,0,0,0-.32-.16Zm0,0a.44.44,0,0,0-.42-.42l0,0a.32.32,0,0,0,.12.3.49.49,0,0,0,.31.13ZM61.3,84.2a.37.37,0,0,0-.12-.29.46.46,0,0,0-.3-.13l0,0a.46.46,0,0,0,.43.41Zm-.81-.88a.4.4,0,0,0,.26.39l.16,0,0,0a.46.46,0,0,0-.42-.42Zm0,0a.36.36,0,0,0-.2-.31l-.1.12a.32.32,0,0,0,.33.15Zm-1.23-.88a.32.32,0,0,0,.2.32,1.47,1.47,0,0,0,.1-.13.32.32,0,0,0-.33-.15Zm0,0c0-.3-.11-.38-.42-.42l0,0c0,.29.13.37.42.42Zm-.81-.88a.47.47,0,0,0,.42.42l0,0a.42.42,0,0,0-.13-.3.37.37,0,0,0-.29-.12ZM58,81.23a.44.44,0,0,0,.27.38.9.9,0,0,0,.16,0l0,0a.47.47,0,0,0-.11-.31.35.35,0,0,0-.31-.12Zm-1.69-2.08a.41.41,0,0,0-.12-.31.33.33,0,0,0-.31-.11l0,0A.41.41,0,0,0,56,79a.32.32,0,0,0,.3.12Z" transform="translate(0 0)"/><path class="cls-5" d="M44.13,50a.7.7,0,0,1-.09.4A.57.57,0,0,0,44,51a.82.82,0,0,1,0,.8,1.09,1.09,0,0,0-.18.59c0,.91,0,1.82-.09,2.73a1,1,0,0,1-.12.39,1.64,1.64,0,0,0-.18.38,1.46,1.46,0,0,0,0,.42c0,.49,0,1,0,1.47a1.4,1.4,0,0,1-.23.79,1.26,1.26,0,0,0-.17.59c0,.28,0,.56-.05.84a1.26,1.26,0,0,1-.17.6,1.51,1.51,0,0,0-.2.8,1.85,1.85,0,0,1-.26,1,.7.7,0,0,0-.13.39c0,.14,0,.28,0,.42a1.62,1.62,0,0,0,.17.81c.13.25.11.26-.15.54L42,64.7a1,1,0,0,0-.32.53,1.18,1.18,0,0,1-.19.37,1.53,1.53,0,0,0-.28.78.89.89,0,0,1-.12.39c-.2.3-.27.65-.44,1a1.87,1.87,0,0,0-.27.78.91.91,0,0,1-.14.4c-.24.34-.34.76-.59,1.11a5.85,5.85,0,0,1-.48.93,2.45,2.45,0,0,1-.53.89l-.24.34a1.54,1.54,0,0,0-.08.19c-.06.13-.11.26-.18.38a3.2,3.2,0,0,0-.27.56,1,1,0,0,1-.2.37c-.17.23-.23.51-.4.73s-.28.32-.4.49a1.34,1.34,0,0,0-.22.36,2,2,0,0,1-.33.53c-.53.56-1.09,1.09-1.58,1.68a.66.66,0,0,0-.12.17,1.62,1.62,0,0,0-.1.18,2.88,2.88,0,0,1-.64.83,1.73,1.73,0,0,1-.69.47.81.81,0,0,0-.18.1,1,1,0,0,0-.17.12c-.35.34-.7.69-1.06,1-.56.52-1.11,1.06-1.64,1.62a8.35,8.35,0,0,1-.6.59,4.08,4.08,0,0,1-.33.25,2.72,2.72,0,0,0-1,.71l-.47.41a.44.44,0,0,1-.18.12,3.77,3.77,0,0,0-1,.69,2.18,2.18,0,0,1-.37.2,1.27,1.27,0,0,0-.36.2c-.28.22-.63.3-.91.51a3.26,3.26,0,0,1-.68.49,5.22,5.22,0,0,0-.74.39c-.4.13-.73.4-1.13.55a8.1,8.1,0,0,1-.94.45.52.52,0,0,0-.18.1,1.34,1.34,0,0,1-.78.29,1.93,1.93,0,0,0-.58.22,1.64,1.64,0,0,1-.6.2,1.44,1.44,0,0,0-.59.18,1.22,1.22,0,0,1-.79.23c-.14,0-.28,0-.42,0-.31,0-.47-.17-.52-.53a2.93,2.93,0,0,0-.07-.41,1.9,1.9,0,0,0-.2-.37,1.81,1.81,0,0,1-.18-.37.83.83,0,0,0-.2-.37c-.23-.26-.48-.51-.72-.76a1.26,1.26,0,0,1-.32-.53.59.59,0,0,0-.64-.42,1.65,1.65,0,0,1-.77-.29.9.9,0,0,0-.39-.13c-.35,0-.34,0-1-.35a.51.51,0,0,0-.4,0,2.67,2.67,0,0,0-.36.22.45.45,0,0,1-.66-.26c0-.2-.07-.41-.1-.62a1,1,0,0,0-.14-.15.51.51,0,0,0-.4,0,1.88,1.88,0,0,0-.36.21.5.5,0,0,1-.58,0,2.67,2.67,0,0,0-.56-.28c-.29-.1-.29-.11-.41-.42s-.27-.41-.64-.39a1.12,1.12,0,0,0-.59.17c-.44.28-.57.21-.94,0a1.07,1.07,0,0,0-.6-.15H5.3c-.29,0-.54.13-.61.46s-.18.3-.45.16-.22-.11-.37,0a1,1,0,0,1-.57.22,1.52,1.52,0,0,1-.21,0,.52.52,0,0,0-.48.33c-.17.34-.16.36-.39.45a2.56,2.56,0,0,0-.84.61c-.23.23-.4.21-.65-.15A.92.92,0,0,1,.52,84c0-.28,0-.55,0-.83q0-3.57,0-7.14c0-.14,0-.28,0-.42a1.63,1.63,0,0,0-.21-.8c-.12-.27-.11-.41.06-.79a1.19,1.19,0,0,0,.14-.4c0-.42,0-.83,0-1.25q0-3.57,0-7.14c0-.42,0-.84,0-1.26,0-1.05,0-2.1,0-3.15a1.23,1.23,0,0,0-.17-.59,1.91,1.91,0,0,1-.18-.81v-.63A1.48,1.48,0,0,1,.35,58a.8.8,0,0,0,.11-.4c0-.56,0-1.12,0-1.68s0-1.12,0-1.67c0-1,0-2,0-2.94a1.58,1.58,0,0,0-.19-.8,1.46,1.46,0,0,1-.16-.61A11.79,11.79,0,0,1,.13,48a.73.73,0,0,1,.29-.54c.24-.18.26-.23.54-.05a1.17,1.17,0,0,0,.39.15l.42,0c.7,0,1.4,0,2.1,0,.49,0,1,0,1.46,0s1,0,1.47,0h.42a13.45,13.45,0,0,1,1.68,0c.49,0,1,0,1.47,0s.84,0,1.26,0l1.46,0h1.26c.91,0,1.82,0,2.73,0s1.54,0,2.31,0c1.05,0,2.1,0,3.15,0a1.57,1.57,0,0,1,.79.22.82.82,0,0,0,.4.1h.84a1.88,1.88,0,0,0,.8-.2.35.35,0,0,1,.2,0,3.57,3.57,0,0,0,1.21.25c.35,0,.7,0,1,0l6.93,0c.21,0,.22,0,.59-.16a2.7,2.7,0,0,1,.4-.14.71.71,0,0,1,.21,0c2.31,0,4.61-.07,6.92,0l.42,0c.3,0,.44.18.48.56,0,.21,0,.42,0,.63a1.18,1.18,0,0,0,0,.2c0,.07.07.12.1.19a1.28,1.28,0,0,1,.16.81M29.9,52.21a1.47,1.47,0,0,0-.06-.59s-.09-.09-.14-.13-.12.08-.14.14a.43.43,0,0,0,0,.38.37.37,0,0,0,.33.17,2,2,0,0,0,.05.6l.15.14c.05-.05.12-.09.14-.15a.4.4,0,0,0,0-.38.41.41,0,0,0-.34-.18M27,53.87a.38.38,0,0,0,.19.33.66.66,0,0,0,.39.09l.2,0a.42.42,0,0,0,.35-.18.48.48,0,0,0-.33-.2,7.3,7.3,0,0,0-.81,0c0-.14,0-.26-.14-.3s-.2,0-.15.15a.26.26,0,0,0,.3.13m1.27-1.27a.46.46,0,0,0,.36.41,1.14,1.14,0,0,0,.58,0c.17,0,.2-.16.13-.29s-.32-.4-.42-.4a.53.53,0,0,0-.33.17.6.6,0,0,1-.35.16.31.31,0,0,0-.18-.33l-.12.11a.32.32,0,0,0,.33.18M39.15,56c0,.13,0,.27,0,.41a.53.53,0,0,0,.15.37,1.16,1.16,0,0,0,.45.4.52.52,0,0,0,.57-.06c.09-.1.2-.18.3-.28a.55.55,0,0,0,.06-.73,1.26,1.26,0,0,1-.29-.53.33.33,0,0,0,.34-.2.36.36,0,0,0-.34-.2c0-.13,0-.27,0-.41s.06-.33.37-.43.59-.38.93-.47a.36.36,0,0,0,.17-.11.31.31,0,0,0,.12-.16,3.83,3.83,0,0,0,.07-.83.88.88,0,0,0-.11-.39c-.08-.12-.15-.24-.22-.36s.14-.24.2-.37A.53.53,0,0,0,42,51a1.61,1.61,0,0,1-.29-.77c0-.42-.15-.53-.46-.55a9,9,0,0,0-1,0,.59.59,0,0,0-.6.46.67.67,0,0,1-.11.18.43.43,0,0,1-.55.08l-.36-.21-.36.2a.53.53,0,0,1-.58,0c-.11-.07-.23-.16-.35-.22s-.13,0-.2,0a.36.36,0,0,0-.34.2c-.06.12-.11.25-.18.37a.29.29,0,0,1-.14.15.55.55,0,0,1-.4,0c-.13-.06-.23-.15-.35-.22a.51.51,0,0,0-.4-.06c-.19.06-.21.18-.08.32.45.82.34.92.88,1.38a.65.65,0,0,1,.13.16c0,.07,0,.14.06.2a7.09,7.09,0,0,0-.8,0A.42.42,0,0,0,35,53a.27.27,0,0,0,.12.35l.17,0a3,3,0,0,1,.55-.25.45.45,0,0,0,.36-.42.51.51,0,0,1,.42.39,1.37,1.37,0,0,0,.17.37,1.22,1.22,0,0,1,.27,1c0,.14,0,.28,0,.41a.45.45,0,0,0,.2.34.89.89,0,0,0,.4,0,.4.4,0,0,0,.21-.33.38.38,0,0,1,.23-.3.78.78,0,0,1,.33.24.89.89,0,0,1,.28.53,2.71,2.71,0,0,0,0,.41.48.48,0,0,0,.4.4Zm-21.8-5.41a.61.61,0,0,0-.19,0,1.62,1.62,0,0,0-.18.1,2,2,0,0,1-.35.21A2.91,2.91,0,0,1,16,51a.6.6,0,0,0-.19.06.32.32,0,0,0-.14.14.46.46,0,0,0,0,.38c.07.13.19.13.33,0,.38-.21.48-.21.74-.05a2,2,0,0,0,.35.21.43.43,0,0,0,.38,0s.05-.1.07-.15l-.18-.36a2,2,0,0,0,.17-.36c0-.12-.07-.21-.23-.24m21.37,7.15c-.17,0-.26.09-.26.21a.33.33,0,0,0,.08.18,1.64,1.64,0,0,0,.47.36.38.38,0,0,0,.36-.05.36.36,0,0,0,.08-.15.67.67,0,0,0-.24-.31c-.15-.11-.29-.27-.49-.24M24.89,52.32c0,.14,0,.27,0,.41l.14.16a1.48,1.48,0,0,0,.13-.08.63.63,0,0,0,.1-.39c0-.25-.12-.52-.23-.46a.32.32,0,0,0-.16.36m-14.63-.76a.31.31,0,0,0,.3.18.36.36,0,0,0,.33-.16.37.37,0,0,0-.63,0m-.75,2s-.12.08-.14.14a.3.3,0,0,0,0,.21c.05.17.15.22.25.12a.35.35,0,0,0,.06-.18c0-.16,0-.26-.17-.29m25.36-2c-.06-.17-.14-.18-.24,0l.12.12.12-.1m2.73,7.54.13.09,0-.15Zm.11-3c-.16,0-.17.12,0,.21l.12-.1-.1-.11m-6.87-2,.1.12c.17-.06.18-.14,0-.23l-.13.11m-2.72-3.77L28,50.23l0,.16Zm12.1,7.85-.12.11c.06.17.14.18.23,0l-.11-.13M20.35,49l.14.09V49Zm-6.94,2.55-.13-.09,0,.16ZM11.75,52c-.06-.18-.14-.18-.23,0l.11.12.12-.1M7.94,57,7.82,57l0,.15ZM6.61,51.88c-.17,0-.18.13,0,.21l.12-.1-.1-.11M42.2,65.8a.29.29,0,0,0,.11.11.24.24,0,0,0,.12-.33c0-.06-.06-.12-.08-.17s-.17,0-.18.21a.36.36,0,0,0,0,.18M33.13,81l-.13,0,0,.13Zm-1.67,1.27-.12,0,0,.12Zm9.4-31.3a2.61,2.61,0,0,0,.07,1s.09.09.13.14a1,1,0,0,0,.13-.16,1,1,0,0,0,.06-.39.66.66,0,0,0-.08-.39.36.36,0,0,0-.34-.18Zm.65,2.36c.14,0,.17-.16.13-.31s-.1-.21-.2-.22a.26.26,0,0,0-.12.32c0,.14.08.24.19.21M39.15,56a.3.3,0,0,0,.32-.19l-.11-.12a.3.3,0,0,0-.18.34Zm1-.69a.17.17,0,0,0,0,.14.36.36,0,0,0,.3.16v-.46a.38.38,0,0,0-.3.16M40.83,51a.3.3,0,0,0-.18-.34,1.59,1.59,0,0,0-.13.13.3.3,0,0,0,.34.19Z" transform="translate(0 0)"/><path class="cls-6" d="M84.52,42.47a.36.36,0,0,0-.34.19.48.48,0,0,0,0,.39.67.67,0,0,0,.11.18c.1.13.14.27.06.34a.39.39,0,0,1-.38.08l-.54-.31a1.1,1.1,0,0,0-1,.17.85.85,0,0,1-.58.2l-.41,0a1.18,1.18,0,0,0-.78.24.78.78,0,0,1-.39.12c-1.31,0-2.63,0-3.94,0-.49,0-1,0-1.45,0a.47.47,0,0,1-.42-.39c0-.13,0-.27,0-.41a.79.79,0,0,0,0-.2c-.07-.18-.25-.31-.2-.54a2,2,0,0,0,.21-.35.55.55,0,0,0,0-.4.33.33,0,0,0-.34-.18c-.14,0-.28,0-.42,0a.31.31,0,0,0-.18-.33l-.12.12a.31.31,0,0,0,.33.18.65.65,0,0,1-.18.37l-.43.45c-.16.17-.17.24,0,.54a1,1,0,0,1,.11.8.4.4,0,0,1-.47.31c-.18,0-.24-.13-.16-.27s.17-.36,0-.54-.34-.38-.66-.08c-.11.1-.2.2-.31.29a.89.89,0,0,1-.56.24,1.47,1.47,0,0,0-.42,0,1.48,1.48,0,0,0-.37.2,1,1,0,0,1-.59.16c-.42,0-.84,0-1.26,0a1,1,0,0,1-.59-.17.31.31,0,0,0-.38,0,1.15,1.15,0,0,1-.58.2c-1,0-2.1.06-3.15,0-1.47,0-2.94,0-4.41,0a1.72,1.72,0,0,0-.8.21.33.33,0,0,1-.38,0,1.7,1.7,0,0,0-1-.16,1.08,1.08,0,0,0-.6.16,1,1,0,0,1-.18.09,1.3,1.3,0,0,1-.61.11.77.77,0,0,1-.4-.11c-.18-.1-.35-.21-.57,0a1,1,0,0,1-.59.18l-2.1,0a1.19,1.19,0,0,0-.59.16,1.59,1.59,0,0,1-.59.2c-.91,0-1.82.06-2.74,0a1.08,1.08,0,0,1-.82-.57.62.62,0,0,1-.07-.19,3.29,3.29,0,0,1,0-.83,1.29,1.29,0,0,1,.23-.58,1.1,1.1,0,0,0,0-1l-.17-.38.18-.38a1.59,1.59,0,0,0,.07-.2c0-.14,0-.28,0-.42,0-.77,0-1.54,0-2.31s0-1.68,0-2.52a1.48,1.48,0,0,1,.23-.79.79.79,0,0,0,.13-.4c0-.49,0-1,0-1.46a1.19,1.19,0,0,1,.2-.59,1,1,0,0,0,.19-.59c0-.14,0-.28,0-.42a1.4,1.4,0,0,1,.18-.59,1.29,1.29,0,0,0,.25-.79,1.48,1.48,0,0,1,0-.21,2.71,2.71,0,0,1,0-.41,1.35,1.35,0,0,1,.19-.38,1.39,1.39,0,0,0,.17-.6,1.53,1.53,0,0,1,.2-.59,1.19,1.19,0,0,0,.2-.58c0-.35,0-.7,0-1.05a.79.79,0,0,1,.13-.39,3.11,3.11,0,0,0,.36-.76,2,2,0,0,0,.35-1,.75.75,0,0,1,.15-.38,3.53,3.53,0,0,0,.36-.76c.22-.28.29-.64.48-.93s.27-.64.48-.93.19-.52.35-.75a2.1,2.1,0,0,0,.28-.56c.08-.27.3-.48.39-.74a1.41,1.41,0,0,1,.32-.54l.14-.16a1.72,1.72,0,0,0,.43-.71c.07-.11.14-.24.22-.35a4.18,4.18,0,0,0,.53-.65c.07-.12.11-.25.17-.38a.66.66,0,0,1,.12-.17c.13-.16.28-.32.42-.47a4.14,4.14,0,0,0,.55-.63c.07-.12.11-.26.17-.39a1,1,0,0,1,.11-.17c.19-.21.37-.42.57-.62l.91-.88a1,1,0,0,1,.36-.2.8.8,0,0,0,.36-.2c.72-.67,1.42-1.36,2.12-2,.2-.2.39-.4.59-.59a1.88,1.88,0,0,1,.86-.58,3.63,3.63,0,0,0,.66-.51,1.46,1.46,0,0,1,.54-.31,1,1,0,0,0,.36-.21l.31-.29a1.26,1.26,0,0,1,.54-.31,1.11,1.11,0,0,0,.37-.2,2.39,2.39,0,0,1,1-.71.42.42,0,0,0,.17-.1c.17-.14.32-.28.49-.41s.23-.15.35-.22c.35-.09.6-.36.94-.46A10.22,10.22,0,0,1,68.62,5a5.12,5.12,0,0,1,.73-.39,2.67,2.67,0,0,0,.56-.28,1,1,0,0,1,.4-.12A1.57,1.57,0,0,0,71.1,4a.93.93,0,0,1,.39-.15l.21,0a.92.92,0,0,0,.4-.11c.35-.23.77-.33,1.12-.55a1.26,1.26,0,0,1,.6-.17c.14,0,.28,0,.42,0s.22,0,.58-.2a1,1,0,0,1,.59-.18l1-.06a.69.69,0,0,0,.39-.14c.35-.23.77-.32,1.12-.56a.79.79,0,0,1,.4-.1,1.43,1.43,0,0,0,.6-.17,1.12,1.12,0,0,1,.58-.22L81,1.25A1.4,1.4,0,0,0,81.61,1a1.4,1.4,0,0,1,.6-.15L84.73.84a1.19,1.19,0,0,0,.59-.18,1.62,1.62,0,0,1,.6-.16l3,0,.2,0c.29,0,.47.24.47.56,0,.14,0,.28,0,.42l0,2.1a1.15,1.15,0,0,0,.14.6,1.23,1.23,0,0,1,.18.59c0,.07,0,.14,0,.21,0,1.9,0,3.79,0,5.68,0,.77,0,1.54,0,2.31a1.38,1.38,0,0,1-.2.59.9.9,0,0,0-.13.39,1.2,1.2,0,0,0,.17.8.64.64,0,0,1,.08.19,1.25,1.25,0,0,1-.06,1,1.68,1.68,0,0,0-.2.79c0,1.9,0,3.79,0,5.68,0,1.68,0,3.36,0,5a1.93,1.93,0,0,0,0,.42,1.44,1.44,0,0,0,.19.37,1.43,1.43,0,0,1,.14.61,1.47,1.47,0,0,1,0,.21L90,35.14a1,1,0,0,0,.17.59.68.68,0,0,1,0,.78,1.38,1.38,0,0,0-.2.59c0,.56,0,1.12,0,1.68a1.51,1.51,0,0,0,0,.42,1.41,1.41,0,0,0,.18.37.68.68,0,0,1,0,.78,1.13,1.13,0,0,0-.18.59c0,.07,0,.14,0,.21a1.29,1.29,0,0,0,.27,1,1.15,1.15,0,0,1,.09.81.81.81,0,0,1-.2.36,1,1,0,0,1-.7.4c-1,0-2.1,0-3.15,0a1.12,1.12,0,0,1-.58-.22,1.3,1.3,0,0,0-.38-.17,1.41,1.41,0,0,1-.79-.65.59.59,0,0,1-.05-.2.3.3,0,0,0,.32-.18l-.11-.12a.32.32,0,0,0-.18.33M69.36,28.18a.3.3,0,0,0-.19-.33l-.12.12a.3.3,0,0,0,.34.18.28.28,0,0,0,.18.33l.13-.12a.33.33,0,0,0-.34-.18M68.13,16.41a3,3,0,0,0-.6.05l-.13.15s.08.11.14.13a.4.4,0,0,0,.38,0,.37.37,0,0,0,.17-.33.3.3,0,0,0,.33-.18l-.11-.12a.32.32,0,0,0-.18.33m.81-4.65a7.51,7.51,0,0,0,.82,0,.41.41,0,0,0,.34-.19.48.48,0,0,0,0-.39,1.25,1.25,0,0,0-.21-.35,1.28,1.28,0,0,1-.16-.38c-.05-.17-.15-.22-.25-.15a.29.29,0,0,0-.11.16c0,.21,0,.41-.06.62s-.23.34-.33.51a.71.71,0,0,0,0,.2.34.34,0,0,0-.3.13.15.15,0,0,0,0,.13.33.33,0,0,0,.3.14c0,.13,0,.27,0,.4a.57.57,0,0,0,.14.37,1.4,1.4,0,0,0,.44.4.52.52,0,0,0,.57,0,3.71,3.71,0,0,0,.29-.27c.13-.12.12-.24,0-.32s-.38-.13-.54-.26-.22-.14-.33-.22a2.41,2.41,0,0,0-.6,0v-.45M72.33,26.5a.72.72,0,0,0-.21.05.57.57,0,0,0-.14.13,1.06,1.06,0,0,0-.13.39l-.33.53a.49.49,0,0,0,.25.51,1.49,1.49,0,0,0,.63,0,.41.41,0,0,0,.28-.48.58.58,0,0,0-.08-.18c-.07-.12-.15-.24-.23-.36s0-.41-.07-.62a.34.34,0,0,0,.33-.18.45.45,0,0,0,0-.39.66.66,0,0,0-.14-.15.37.37,0,0,0-.19.34c0,.14,0,.27,0,.41m0-11.38,0,.42a.59.59,0,0,1,0,.19c-.08.16-.2.17-.34,0s-.25-.12-.34,0a.63.63,0,0,0-.09.39c0,.31.09.48.23.55a1,1,0,0,0,.61.06.44.44,0,0,0,.39-.41,3.84,3.84,0,0,0,0-.83.62.62,0,0,0-.07-.19.36.36,0,0,0-.34-.2c0-.27,0-.55,0-.82a1.34,1.34,0,0,0,0-.2,1.77,1.77,0,0,0-.08-.4c0-.14-.18-.18-.31-.21s-.28,0-.35.15-.09.25-.15.37-.23.34-.34.51a.69.69,0,0,0,.08.38.27.27,0,0,0,.15.13,2.86,2.86,0,0,0,1,.06M60.14,21a.78.78,0,0,0-.53.29.74.74,0,0,0-.22.34.64.64,0,0,0,.1.18.28.28,0,0,1,0,.38c-.11.14-.12.26,0,.35a.6.6,0,0,0,.38.13,2.58,2.58,0,0,0,.83-.09.27.27,0,0,0,.15-.13.51.51,0,0,0,0-.4.54.54,0,0,0-.33-.24c-.33-.13-.34-.16-.4-.43a2.85,2.85,0,0,1,0-.41.3.3,0,0,0,.32-.19l-.11-.11a.3.3,0,0,0-.18.33M56.36,39.5a1.54,1.54,0,0,0,.06.6s.09.09.14.13.12-.09.14-.14a.39.39,0,0,0,0-.38.38.38,0,0,0-.34-.18.5.5,0,0,1,.38-.42.86.86,0,0,0,.38-.16.57.57,0,0,1,.35-.15c.06,0,.12.06.18.1s.25.11.32,0a.63.63,0,0,0,0-.19.34.34,0,0,0-.2-.33l-.2-.05a7.4,7.4,0,0,0-1.63,0c-.21,0-.34.11-.42.38a.55.55,0,0,1-.41.41.52.52,0,0,0-.33.23.42.42,0,0,0,.35.18l1.23,0m-1.68-6.28a.55.55,0,0,1-.44-.39,1.52,1.52,0,0,0-.06-.2.38.38,0,0,0-.33-.21h-.2a2.54,2.54,0,0,1-1.16.41.33.33,0,0,0-.17.1.37.37,0,0,0,0,.53,1,1,0,0,0,.37.2A.44.44,0,0,1,53,34a1.68,1.68,0,0,0,.28.55c.24.31.41.35.67.11a1.77,1.77,0,0,1,.84-.59c.25-.11.26-.19.07-.45a.76.76,0,0,1-.16-.38,1.8,1.8,0,0,0,.61,0l.13-.15a1,1,0,0,0-.14-.15.45.45,0,0,0-.39,0,.37.37,0,0,0-.18.34M59.27,16a1.8,1.8,0,0,1,.26-.54c.07-.12,0-.23-.14-.29a1.88,1.88,0,0,1-.56-.25c-.15-.11-.25-.11-.31.08a1.05,1.05,0,0,0-.05.19.86.86,0,0,0,.09.58c.12.21.34.18.54.2h.2a.45.45,0,0,1-.4.39c-.34,0-.69,0-1,.11a.27.27,0,0,0-.15.13.64.64,0,0,0-.07.39,1.47,1.47,0,0,0,.76.67c.42.16.43.2.11.54-.09.11-.19.2-.28.31s-.07.12-.11.17a.75.75,0,0,0,.2.34,1.36,1.36,0,0,0,.34.23.51.51,0,0,0,.2-.35.7.7,0,0,1,.19-.37,1.85,1.85,0,0,1,.14-.14,1.72,1.72,0,0,0,.56-.85.4.4,0,0,1,.13-.16c.16-.12.39-.13.55-.27l.62-.54a.54.54,0,0,1,.38-.14,1.84,1.84,0,0,0,.41,0A.46.46,0,0,0,62,16.3a.34.34,0,0,0,.17-.34,1,1,0,0,1,.2.06,4.15,4.15,0,0,1,.34.24c.17.14.4.13.57.24l.36.21.36-.19a2.66,2.66,0,0,1,.39-.16c.22-.09.23-.25,0-.46,0-.05-.1-.09-.15-.14a.23.23,0,0,0-.37,0,.36.36,0,0,1-.19.08c-.12,0-.21-.1-.24-.25s-.06-.41-.08-.62a3,3,0,0,0-.53-.64c-.13-.13-.15-.24,0-.33a.33.33,0,0,1,.18-.08c.63,0,.83-.08.91.76a.5.5,0,0,0,.58.44c.44,0,.55,0,.64-.38a3.6,3.6,0,0,1,.29-.55.28.28,0,0,0,0-.18,1.19,1.19,0,0,0-.63-.52,1.42,1.42,0,0,1-.54-.29,1.07,1.07,0,0,1-.16-.14L64,12.9c-.36-.32-.48-.33-.92-.09-.13.13-.25.13-.32,0a.51.51,0,0,1,0-.4c.06-.12.15-.23.21-.36s-.11-.3-.33-.47l-.18-.1a.48.48,0,0,0-.17.36c0,.77,0,1.53,0,2.3a.88.88,0,0,1-.18.58c-.28.44-.29.46,0,.91a.76.76,0,0,1,.16.38L62,16a2.7,2.7,0,0,1-.41-.06,2.6,2.6,0,0,1-.36-.21.46.46,0,0,0-.69.18c0,.06,0,.13-.08.19a.44.44,0,0,1-.68.19c-.17-.11-.32-.27-.54-.27m3.81,4.17c0,.07,0,.14,0,.21a1.32,1.32,0,0,1-.26.74c-.07.14-.05.23.12.29a.5.5,0,0,0,.5-.25c0-.13,0-.27,0-.4a.62.62,0,0,0-.09-.38.4.4,0,0,0-.34-.18.74.74,0,0,1,.17-.37,1.44,1.44,0,0,0,.3-.54c.08-.21.1-.22.45-.37a1.42,1.42,0,0,0,.73-.7,1.17,1.17,0,0,0,0-.2,1,1,0,0,1,.2-.36c.12-.15.12-.26,0-.33a.44.44,0,0,0-.39,0,1.62,1.62,0,0,1-1,.33.55.55,0,0,0-.39.12.91.91,0,0,1-.36.17c-.12-.06-.23-.14-.36-.2a2.64,2.64,0,0,1-.73-.37.54.54,0,0,0-.18-.1.48.48,0,0,0-.39.07c-.1.08-.07.19,0,.34a.63.63,0,0,1,0,.76c-.17.25-.13.34.11.45a.51.51,0,0,1,.36.2c0,.06,0,.13-.07.18s-.12.26,0,.35a.47.47,0,0,0,.38.13,1.13,1.13,0,0,1,.41,0,1.08,1.08,0,0,1,.35.22.57.57,0,0,0,.38.13M63.5,24l0,0a1.41,1.41,0,0,1,0,.2.88.88,0,0,0,.32.74,6.57,6.57,0,0,0,.59.59.24.24,0,0,0,.36,0,1.66,1.66,0,0,0,.45-.69.41.41,0,0,1,.25-.3.47.47,0,0,1,.4,0,2.19,2.19,0,0,0,.55.28,2.82,2.82,0,0,1,.72.4c.12.07.5-.1.52-.23a4.77,4.77,0,0,0,0-1.46.22.22,0,0,0-.26-.21,5.07,5.07,0,0,1-.75.34,1.08,1.08,0,0,0-.18.11c-.25.17-.31.16-.52,0-.71-.63-.45-.51-1.26-.58h-.21a1.49,1.49,0,0,1-.21,0c-.17,0-.23-.14-.17-.24a.26.26,0,0,1,.16-.11l.62-.07a.44.44,0,0,0,.22-.32A.32.32,0,0,0,65,22a.64.64,0,0,0-.39-.07l-.35.23a1.4,1.4,0,0,1-.38.16,1.24,1.24,0,0,0-.74.68,1.53,1.53,0,0,1-.25.57c-.11.15-.12.25,0,.33a.66.66,0,0,0,.2.06l.41,0m5.86-6.31a.4.4,0,0,0-.19-.34.42.42,0,0,0-.38,0c-.06,0-.1.1-.15.14a.34.34,0,0,0,.34.2c.13,0,.27,0,.41,0a.5.5,0,0,0,.15.38l.43.46c.12.13.14.25,0,.33a.41.41,0,0,1-.39.05,3.35,3.35,0,0,1-.36-.21c-.22,0-.35.14-.53.21a.53.53,0,0,1-.41,0c-.12-.06-.23-.15-.35-.22a.5.5,0,0,0-.4-.05.35.35,0,0,0-.23.3.3.3,0,0,0,.14.36,2.17,2.17,0,0,0,.38.16,2.56,2.56,0,0,1,.35.22,3.15,3.15,0,0,0,.56.26,1.13,1.13,0,0,1,.18.12c.15.14.29.3.45.44a.63.63,0,0,0,.37.17l.83,0a.46.46,0,0,1,.35.19.42.42,0,0,1-.33.21l-1.67,0a.37.37,0,0,0-.18-.34.44.44,0,0,0-.39,0c-.06,0-.1.09-.15.14a.35.35,0,0,0,.34.19H69c0,.13,0,.27,0,.41a.63.63,0,0,0,.15.39.41.41,0,0,1,0,.55c-.08.13,0,.26.14.3.34.09.7,0,1,.09a.46.46,0,0,1,.16.11.38.38,0,0,1,.1.38.36.36,0,0,1-.28.26c-.2,0-.41.06-.62.09l-.54.31a.76.76,0,0,1-.2.06c-.16,0-.27.13-.25.25a.51.51,0,0,0,.23.33.9.9,0,0,0,.77.27l.21,0a1,1,0,0,0,.78-.22,1.71,1.71,0,0,1,.79-.22c.25,0,.32-.09.42-.39a2.53,2.53,0,0,1,.18-.37c.17-.27.15-.34-.1-.46a.49.49,0,0,1-.35-.2.5.5,0,0,1-.07-.39c.06-.19.18-.2.33-.07a.8.8,0,0,0,.37.18.33.33,0,0,0,.37-.12.48.48,0,0,0,0-.17,2.32,2.32,0,0,0-.4-.48c-.25-.28-.28-.44-.12-.74a1.29,1.29,0,0,0,.17-.36,1.16,1.16,0,0,0-.41-.47,1,1,0,0,0-.38-.16.36.36,0,0,1-.17-.11.15.15,0,0,1,0-.13.74.74,0,0,1,.17-.12c.27,0,.55,0,.83,0s.5-.24.74-.36l.2-.07c.28-.12.32-.16.36-.45a1.52,1.52,0,0,0,0-.21,1,1,0,0,1,.2-.57c.12-.15.13-.26,0-.34a.44.44,0,0,0-.54.14,1.59,1.59,0,0,0-.07.2,1.22,1.22,0,0,1-.49.65c-.15.1-.26.08-.32-.11a1.26,1.26,0,0,0-.15-.38,2.6,2.6,0,0,1-.36-.75c0-.19-.17-.2-.32-.07a1.38,1.38,0,0,0-.48.66c-.11.3-.22.34-.42.16l-.15-.14c-.56-.52-.46-.41-1.11-.44M58.46,22.3a1.64,1.64,0,0,1-.55-.3.53.53,0,0,0-.58,0,2.94,2.94,0,0,1-.55.3.55.55,0,0,0-.43.4.35.35,0,0,1-.24.28.39.39,0,0,1-.16-.36,1.14,1.14,0,0,0-.07-.41.51.51,0,0,0-.28-.28L55,21.85a2.73,2.73,0,0,1-.41,0,2.64,2.64,0,0,1-.38-.18c-.23-.12-.33,0-.35.31s0,.41,0,.62a.54.54,0,0,1-.29.51,1.06,1.06,0,0,0-.37.18.73.73,0,0,0-.18.58c0,.42,0,.84,0,1.25a1.34,1.34,0,0,1-.2.59,1.51,1.51,0,0,0-.09.18,1,1,0,0,0,.23.35,6.09,6.09,0,0,0,.44.44.9.9,0,0,0,.56.25,1,1,0,0,1,.78.25.61.61,0,0,0,.58.08.4.4,0,0,0,.24-.32.57.57,0,0,1,.24-.34.64.64,0,0,1,.58.12,1,1,0,0,1,.15.14c.2.21.19.39,0,.46a1.68,1.68,0,0,0-.55.28c-.16.14-.31.29-.47.42s-.53.14-.8.19a.28.28,0,0,0-.25.23c.05.05.09.13.15.14a1,1,0,0,1,.38.17c.08.22-.11.35-.19.52a1.17,1.17,0,0,0-.06.2l0,0-.41.05a.53.53,0,0,0-.19.05c-.14.08-.14.19,0,.33a1.67,1.67,0,0,1,.23.57c.06.18.18.2.32.09a.38.38,0,0,1,.53,0c.12.12.22.1.36,0a1.06,1.06,0,0,1,.77-.22c.14,0,.28,0,.42,0a.58.58,0,0,1,.38.12,4.17,4.17,0,0,0,.74.35,1.5,1.5,0,0,1,.47.4.53.53,0,0,1,.14.38c0,.14,0,.27,0,.41l0,0a.78.78,0,0,1-.21,0,.62.62,0,0,1-.17-.11l-.62-.55a.44.44,0,0,0-.56,0,.42.42,0,0,0,0,.55,1.37,1.37,0,0,0,.36.19.49.49,0,0,1,.3.49c0,.2,0,.42-.15.57a1.37,1.37,0,0,1-.36.19.44.44,0,0,0-.17.68l.54.63a.69.69,0,0,1,.14.39c.06.69,0,1.38.06,2.07,0,.17.11.25.23.25a1.44,1.44,0,0,1,.37-.19.54.54,0,0,1,.57.1l.29.3c.16.15.16.37.26.55a1.39,1.39,0,0,0,.57.58.72.72,0,0,0,.21,0,.32.32,0,0,0,.13.28.15.15,0,0,0,.13,0,.28.28,0,0,0,.13-.28.57.57,0,0,1,.44.39c.14.35.25.43.61.45s.42,0,.63,0,.33.1.42.38a1.66,1.66,0,0,0,.18.38,2.22,2.22,0,0,1,.29.55.5.5,0,0,0,.48.34,1.08,1.08,0,0,0,.78-.21.26.26,0,0,1,.38,0,1.08,1.08,0,0,0,.78.21.45.45,0,0,0,.36-.18.35.35,0,0,0-.29-.23.34.34,0,0,1-.29-.23.42.42,0,0,1,.37-.16l.21,0a.63.63,0,0,0,.57-.52c0-.17.17-.22.26-.14a.32.32,0,0,1,.11.17,2,2,0,0,1,0,.42.4.4,0,0,0,.18.35.34.34,0,0,0,.21-.31c0-.21,0-.42,0-.63a1,1,0,0,0-.18-.59c-.15-.22-.15-.23,0-.54a.71.71,0,0,0,.12-.39c0-.28,0-.56.05-.84a1.41,1.41,0,0,1,.7-.74c.21,0,.42,0,.63-.05a.65.65,0,0,0,.16-.13c.06-.1,0-.21-.17-.25a1.64,1.64,0,0,1-.56-.28.66.66,0,0,0-.37-.17l0,0a.66.66,0,0,1,.06-.2.44.44,0,0,1,.31-.21,1.34,1.34,0,0,1,.4,0,.91.91,0,0,1,.54.25.63.63,0,0,0,.37.14,1.41,1.41,0,0,0,0,.41c0,.21.1.33.39.41a1,1,0,0,0,.6,0,.36.36,0,0,0,.15-.15.46.46,0,0,0,0-.38.42.42,0,0,0-.34-.2,3.3,3.3,0,0,0-.83,0c0-.14,0-.28,0-.42a1.82,1.82,0,0,1,.07-.61c0-.12.13-.24.18-.36s0-.23-.19-.26S69,34,68.83,34l-.54-.31a.67.67,0,0,0-.19-.05,1.68,1.68,0,0,1-.6-.11c-.21-.11-.22-.34-.31-.52a.34.34,0,0,0-.15-.14.46.46,0,0,0-.38,0c-.14.08-.15.2,0,.34a.24.24,0,0,1,0,.36c-.13.32-.12.36.11.45a1.23,1.23,0,0,1,.68.43.37.37,0,0,1,.09.19c0,.12-.1.21-.26.23a2.82,2.82,0,0,1-.82,0c-.25,0-.3-.07-.43-.38a1.39,1.39,0,0,0-.19-.36.39.39,0,0,1,0-.54.23.23,0,0,0,0-.36.78.78,0,0,1-.17-.37.68.68,0,0,1,.23-.55.84.84,0,0,0,.17-.37l0,0a.4.4,0,0,0,.33-.21.6.6,0,0,0,.09-.39.94.94,0,0,0-.29-.76,4.12,4.12,0,0,1-.28-.31,1,1,0,0,1-.24-.56c0-.21,0-.42,0-.63a.36.36,0,0,0-.17-.36c-.09,0-.19.15-.23.48,0,.07,0,.14,0,.21s-.12.24-.24.25a1.74,1.74,0,0,1-.13-.15c0-.06,0-.14-.06-.2a3.91,3.91,0,0,1-.42-1.16.5.5,0,0,0-.4-.42.61.61,0,0,1-.34-.23.77.77,0,0,1,.11-.59c.15-.22.13-.34-.06-.53a.89.89,0,0,0-.34-.23,1,1,0,0,0-.18.09.27.27,0,0,1-.37,0,4.3,4.3,0,0,0-.75-.36,2.88,2.88,0,0,0-.75-.36,5.79,5.79,0,0,0-.54-.31.34.34,0,0,0-.38.09.3.3,0,0,0,0,.16,1.22,1.22,0,0,1,.12.37.73.73,0,0,1-.37.19,2.43,2.43,0,0,0-.54.31.44.44,0,0,1-.39,0c-.18-.06-.19-.18,0-.32s.28-.31.43-.45.14-.24,0-.37c-.14-.33-.14-.38.1-.45a1.52,1.52,0,0,0,.69-.44.26.26,0,0,0,0-.37c-.12-.17-.39-.39-.47-.34a.29.29,0,0,0-.14.15,1.41,1.41,0,0,1-.18.37c-.1.13-.1.14-.57.18a1.17,1.17,0,0,0-.58.22c-.16.11-.27.11-.33-.07a.4.4,0,0,1,.07-.38.48.48,0,0,1,.16-.12,1.19,1.19,0,0,1,.2-.08c.16-.06.23-.16.18-.29a.94.94,0,0,0-.42-.44.46.46,0,0,0-.19-.08l-.42,0a.44.44,0,0,1-.36-.17.4.4,0,0,1,.32-.2c.13,0,.28,0,.41-.05a.46.46,0,0,0,.39-.41.32.32,0,0,0,.33-.19L58.64,22a.29.29,0,0,0-.18.33m-1.68-3.39a4,4,0,0,0-.53,0c-.17,0-.22.16-.15.29a1,1,0,0,0,.1.18c.22.27.51.48.74.74s.15.28-.07.51-.15.16-.7.4c-.06,0-.1.1-.15.15s.08.11.14.13a1.06,1.06,0,0,0,1-.08c.26-.15.26-.15.54,0a1.62,1.62,0,0,0,.18.1.41.41,0,0,0,.39-.07c.09-.08.07-.2,0-.34a.54.54,0,0,1-.1-.18.55.55,0,0,1,0-.4.45.45,0,0,1,.34-.2,1,1,0,0,1,.79.18c.14.11.25.13.34,0a.56.56,0,0,0,.07-.18.29.29,0,0,0-.17-.35.71.71,0,0,0-.18-.08,4.21,4.21,0,0,0-.62-.05.87.87,0,0,1-.75-.3l-.15-.14a1.21,1.21,0,0,0-1-.4m8.83,7.67c0,.14,0,.28,0,.41a.45.45,0,0,0,.49.28l.37-.19.17-.07.37.21a1,1,0,0,0,.18-.08c.23-.16.53-.2.73-.39s.18-.52.38-.72.13-.25-.07-.32a1.06,1.06,0,0,0-.19-.06,1,1,0,0,0-.78.19l-.18.1a.7.7,0,0,1-.36-.17.42.42,0,0,0-.39-.08,1,1,0,0,0-.36.19,2.06,2.06,0,0,0-.28.31.47.47,0,0,0-.11.39m.27-15.49c-.06,0-.1-.11-.16-.13a.71.71,0,0,1-.58-.52.26.26,0,0,0-.12-.16c-.1,0-.18,0-.26.19-.16.35-.17.35-.38.44l-.19.08c-.2.06-.21.15-.08.31a1.06,1.06,0,0,0,.87.47,1,1,0,0,0,.85-.51.84.84,0,0,0,0-.17M71.3,26.8l0-.17a.88.88,0,0,0-.17-.12.77.77,0,0,1-.36-.18.74.74,0,0,1-.17-.57c0-.15,0-.29-.15-.37s-.21,0-.33.12a1.85,1.85,0,0,0-.14.14.53.53,0,0,0-.05.74l.27.31.3.29a.8.8,0,0,0,.33.22,1,1,0,0,0,.44-.41M52.92,39.94l-.3,0a.49.49,0,0,0-.37.16,1,1,0,0,0,.22.34,8.07,8.07,0,0,0,.59.58.51.51,0,0,0,.56.05.22.22,0,0,0,0-.34c-.12-.13-.13-.23,0-.36s.12-.26,0-.34a.49.49,0,0,0-.38-.11h-.31M67.7,22.65s.11,0,.16,0a2.28,2.28,0,0,0,.48-.39.64.64,0,0,0,.12-.57c-.09-.22-.47-.26-.7-.07l-.31.27a.45.45,0,0,0-.14.36c0,.28.08.36.39.4M61.36,40.76h.35a.34.34,0,0,0,.37-.14c.06-.1-.07-.31-.27-.47a.9.9,0,0,0-.56-.2l-.41,0a.93.93,0,0,0-.15.13.37.37,0,0,0-.08.37.4.4,0,0,0,.29.24c.2,0,.41,0,.46,0m8.89-2.53a1.14,1.14,0,0,0,.41,0c.16,0,.23-.13.22-.23s-.1-.11-.16-.12a.81.81,0,0,1-.56-.55.42.42,0,0,0-.48-.28c-.2.05-.22.18,0,.47a1.14,1.14,0,0,1,.17.37c.09.26.18.33.44.35m5.16-21h.88l.21,0a.46.46,0,0,0,.32-.2.46.46,0,0,0-.34-.19,12.66,12.66,0,0,0-1.63,0,.41.41,0,0,0-.32.2.44.44,0,0,0,.34.19l.54,0m-1.83,3.1c0,.13,0,.26,0,.4a.66.66,0,0,0,.14.15.54.54,0,0,0,.38.06.53.53,0,0,0,.23-.32,1,1,0,0,0,0-.6c0-.15-.18-.19-.31-.22a.33.33,0,0,0-.36.14.74.74,0,0,0-.11.39m-1.69,9.11V29.3c0-.07,0-.14,0-.2,0-.32-.12-.45-.32-.34a1.06,1.06,0,0,0-.4.44.84.84,0,0,0,.09.19c.16.19.07.36,0,.54a.53.53,0,0,0,0,.18.32.32,0,0,0,.37.08.37.37,0,0,0,.26-.27,2.84,2.84,0,0,0,0-.47M61.81,24.4a1.17,1.17,0,0,0-.42,0,.32.32,0,0,0-.28.21l.15.14a2.14,2.14,0,0,1,.73.35,1,1,0,0,0,.18.06.32.32,0,0,0,.36-.14,1,1,0,0,0-.09-.18,1,1,0,0,0-.63-.45m13.6-9.29a1.07,1.07,0,0,0,.4,0c.18-.06.2-.16.1-.29a.9.9,0,0,0-.63-.44c-.25,0-.36.07-.39.32a1.34,1.34,0,0,0,0,.2.56.56,0,0,0,.31.22.71.71,0,0,0,.2,0M55.79,32.2a.86.86,0,0,0,0-.17,1.88,1.88,0,0,1-.21-.36,1.11,1.11,0,0,0-.15-.37.2.2,0,0,0-.15-.06c-.12,0-.37.24-.44.41a.2.2,0,0,0,0,.17,1,1,0,0,0,.62.5.3.3,0,0,0,.36-.12M68,10.1h-.11l-.2,0a.34.34,0,0,0-.27.2.42.42,0,0,0,.34.17,5.34,5.34,0,0,0,.8,0,.35.35,0,0,0,.28-.21,1.67,1.67,0,0,0-.16-.12A1.61,1.61,0,0,0,68,10.1m6,4.13c.25,0,.36-.05.4-.32s0-.36-.31-.4-.37.05-.4.32a.46.46,0,0,0,0,.2.34.34,0,0,0,.32.2M62.6,22.32a.66.66,0,0,0,0-.2.51.51,0,0,0-.31-.21.27.27,0,0,0-.34.11.49.49,0,0,0,.14.33l.15.13c.05,0,.11.06.17.1a.28.28,0,0,0,.2-.26m-1.77-7.58a1.36,1.36,0,0,0-.35,0c-.15,0-.23.14-.19.23a.24.24,0,0,0,.14.12,2.55,2.55,0,0,0,.39,0c.24,0,.45-.13.39-.25s-.2-.16-.38-.12m12,23.57a.61.61,0,0,0-.19,0,.23.23,0,0,0-.15.1c-.06.08.06.29.25.45s.23.12.31,0a.33.33,0,0,0,.07-.16.35.35,0,0,0-.29-.42m3.24-4.63a.85.85,0,0,0-.17.06c-.1.08-.09.19,0,.32a1.16,1.16,0,0,0,.29.25c.12.07.21,0,.28-.12a.71.71,0,0,0-.09-.36.31.31,0,0,0-.33-.15M55.88,37.42a.38.38,0,0,0-.16-.31.33.33,0,0,0-.18.29.34.34,0,0,0,.16.31.28.28,0,0,0,.18-.29m2.79,1.93a.5.5,0,0,0,.15-.14.35.35,0,0,0,0-.2c-.05-.17-.14-.22-.25-.12a.33.33,0,0,0-.07.17c0,.16,0,.26.18.29m9.38.1a.33.33,0,0,0,.36-.13s-.09-.12-.15-.15a.4.4,0,0,0-.19,0c-.18,0-.24.1-.2.22a.58.58,0,0,0,.18.08m3-.31a.64.64,0,0,0-.2,0,.5.5,0,0,0-.1.14.25.25,0,0,0,.35.15.86.86,0,0,0,.16-.1c0-.13,0-.2-.21-.22M57.48,18.29a.28.28,0,0,0-.29-.18.4.4,0,0,0-.32.17.33.33,0,0,0,.3.18.3.3,0,0,0,.31-.17m12.69-3.55a.58.58,0,0,0,0-.19c0-.05-.1-.07-.15-.1a.24.24,0,0,0-.15.34c0,.06.08.11.11.17s.21-.05.23-.22M64.49,26.21a.25.25,0,0,0,.05.13.31.31,0,0,0,.33.09c.16-.06.19-.16.11-.24a.33.33,0,0,0-.34-.08.78.78,0,0,0-.15.1m.51-5a.32.32,0,0,0-.37-.11c-.06,0-.1.09-.15.14s0,.12.1.14a.33.33,0,0,0,.37,0s0-.1,0-.15m9.25-5.87c0-.05-.07-.12-.13-.13a.34.34,0,0,0-.34.07c-.11.08-.09.19.08.26a.37.37,0,0,0,.34-.07s0-.09,0-.13m-.46.76-.12.1c.06.17.14.17.23,0l-.11-.12m-4.09.12-.1-.12c-.17.06-.18.14,0,.23l.12-.11m-3.8,0-.14-.09,0,.15ZM63,17c-.05-.17-.13-.18-.21,0l.1.13L63,17m8.85-4.63-.11-.13c-.17.07-.18.15,0,.24l.13-.11m-7.26-.13-.13.11c.06.18.14.18.24,0l-.11-.13m-4.21,0-.12.1c.06.17.14.17.23,0l-.11-.12M72.11,40.85,72,41c.07.18.15.19.25,0l-.12-.14m-17.65,0-.12.09c.06.16.13.17.22,0l-.1-.11M68.33,11l-.12.09c.06.17.13.17.22,0l-.1-.11m-16,28.38c.17-.06.18-.13,0-.22l-.12.1.1.12m29.45-1-.09.13.15,0ZM65.91,9.48c-.06-.16-.13-.17-.22,0l.1.12.12-.1M54,37.51l-.12.09c.06.16.13.17.22,0a.52.52,0,0,1-.1-.11m.53-.73-.1-.12c-.17.06-.18.14,0,.23l.12-.11m-.11-1.38-.12.1c.06.17.14.18.23,0l-.11-.13m21-.42-.12.1c.06.16.14.17.23,0L75.47,35M80,19.54l.14.08v-.14ZM56.25,31.32l-.1-.11c-.16.06-.17.13,0,.21l.12-.1M72.92,20.5c.18-.06.18-.14,0-.23l-.13.11.1.12m-10.79.33c-.06-.16-.13-.17-.22,0l.1.12.12-.1m4.62,0c-.06-.16-.13-.17-.22,0l.1.12.12-.09m-5.68.38.14.09,0-.15Zm10.6,4.32c.16-.06.17-.13,0-.22l-.12.1.1.12m5.91-4.43-.12.09c.06.17.13.18.23,0l-.11-.12m3.76.22.09-.14-.16,0ZM66.22,22l-.12.1c.06.17.14.18.23,0L66.22,22M46.29,44.34c0,.07,0,.13,0,.2a.53.53,0,0,0,.17.34.5.5,0,0,0,.18-.35,12.37,12.37,0,0,0,0-1.61.67.67,0,0,0,0-.19,1,1,0,0,0-.12-.16.86.86,0,0,0-.1.16,4.72,4.72,0,0,0-.08,1.21v.4M67.7,35.75a.92.92,0,0,1-.36-.17,1,1,0,0,0-.76-.27c-.36,0-.49.17-.32.48s.16.38.26.56a.4.4,0,0,0,.15.14.78.78,0,0,0,.4,0c.27-.2.57-.39.61-.77Zm-3.81-4.24a.58.58,0,0,0,.38-.15,1.24,1.24,0,0,1,.54-.29c.18,0,.23-.15.15-.24a.32.32,0,0,0-.17-.11l-.61-.07-.53-.34a.46.46,0,0,0-.38.08c-.09.08-.06.21.06.33l.43.45a.67.67,0,0,1,.17.37ZM57.2,28.6a1.4,1.4,0,0,0-.41,0,.71.71,0,0,0-.21,0,.4.4,0,0,0-.18.35.3.3,0,0,0,.17.34.61.61,0,0,0,.4,0,.33.33,0,0,0,.18-.35c0-.14,0-.27,0-.41Zm1.68,3.76a.35.35,0,0,0,.19.33.46.46,0,0,0,.38,0c.06,0,.1-.09.14-.13a.32.32,0,0,0-.33-.19h-.41Zm2.3-1.55a.31.31,0,0,0-.33-.08c-.16.06-.19.17-.1.24a.37.37,0,0,0,.34.07.78.78,0,0,0,.15-.1.39.39,0,0,0-.06-.13m-1.89-.08a.36.36,0,0,0-.32.15.34.34,0,0,0,.3.19.32.32,0,0,0,.32-.17.3.3,0,0,0-.3-.17m-4.62-1.32a.35.35,0,0,0,.18.34.41.41,0,0,0,.19.05.35.35,0,0,0,.35-.17.35.35,0,0,0-.33-.19h-.41Zm2.5-.84h.36a.46.46,0,0,0,.34-.1.45.45,0,0,0,.14-.32l0,0h-.36c-.3,0-.4.1-.47.43Zm0-3.33a1.35,1.35,0,0,0-.6.05c-.05,0-.09.1-.14.15s.09.12.14.14a.46.46,0,0,0,.38,0,.38.38,0,0,0,.19-.33ZM60.4,38.4a.15.15,0,0,0-.13,0,.35.35,0,0,0-.16.29h.45a.35.35,0,0,0-.16-.29m-.17-.78.1.11.11-.09c0-.16-.12-.17-.21,0m0-1.68.11.12.13-.1c-.07-.18-.15-.18-.24,0m-1.37-3.56c0-.29-.11-.37-.42-.42l0,0a.39.39,0,0,0,.11.31.38.38,0,0,0,.31.12ZM66,32a.31.31,0,0,0-.19-.33l-.12.12a.3.3,0,0,0,.34.18Zm-2.07-.42a.29.29,0,0,0-.33.19l.11.12a.31.31,0,0,0,.18-.34ZM58,28.15a.29.29,0,0,0,.34-.19l-.13-.12a.31.31,0,0,0-.19.34Zm3.55-.7v.15l.16-.06Zm-4.39-2.24a.3.3,0,0,0,.32-.19.57.57,0,0,1-.11-.11.29.29,0,0,0-.18.33Zm-.58-.54,0-.15-.15.06Zm.82-1c-.17.05-.17.13,0,.21l.11-.1-.09-.11m-2.51-1.1,0-.14-.15.06ZM70.43,22l-.13.11.1.12c.17-.06.18-.13,0-.23m-6.51,2a.37.37,0,0,0,.18.34.59.59,0,0,0,.19.05.32.32,0,0,0,.35-.16.37.37,0,0,0-.33-.2,2.81,2.81,0,0,0-.41,0Zm-.45,0h.45l0,0a.3.3,0,0,0-.14-.28.15.15,0,0,0-.13,0,.32.32,0,0,0-.13.29Zm-.53-5.23a.35.35,0,0,0-.3-.18.32.32,0,0,0-.31.16.3.3,0,0,0,.29.18.4.4,0,0,0,.32-.16M59.1,17.11l0-.15L59,17ZM53.7,33.39l-.16,0,.06.15Z" transform="translate(0 0)"/></g></g></g></g></svg>