<svg xmlns="http://www.w3.org/2000/svg" xmlns:xlink="http://www.w3.org/1999/xlink" viewBox="0 0 183.46 179.73"><defs><style>.cls-1{fill:none;}.cls-2{clip-path:url(#clip-path);}.cls-3{fill:#ffc557;}.cls-4{fill:#870f54;}.cls-5{fill:#00ac69;}.cls-6{fill:#aada91;}.cls-7{fill:#008375;}.cls-8{fill:#45c2b1;}</style><clipPath id="clip-path" transform="translate(0 0)"><rect class="cls-1" width="183.46" height="179.74"/></clipPath></defs><g id="Layer_2" data-name="Layer 2"><g id="Layer_1-2" data-name="Layer 1"><g id="mc-star"><g class="cls-2"><path class="cls-3" d="M72.63,18.91l5.22-5.22c.29-.29.58-.56.86-.85a1.79,1.79,0,0,1,.83-.51.58.58,0,0,0,.18-.08l.15-.13C81,11,82.15,9.88,83.26,8.73a1.41,1.41,0,0,0,.31-.5,1.14,1.14,0,0,1,.4-.67l.86-.83a1.26,1.26,0,0,1,.52-.28.92.92,0,0,0,.35-.19.93.93,0,0,0,.15-.13C87,5,88.14,3.9,89.26,2.77c.29-.28.55-.58.83-.87a1.3,1.3,0,0,0,.27-.52A1.69,1.69,0,0,1,90.53,1a3.85,3.85,0,0,1,.65-.75A1,1,0,0,1,91.91,0a.37.37,0,0,1,.43.3,1.38,1.38,0,0,0,.3.51l.28.29,1.41,1.41a1.09,1.09,0,0,0,.51.29,1.81,1.81,0,0,1,.67.42l4,3.94q3.33,3.3,6.61,6.65a1.62,1.62,0,0,1,.4.68,1.46,1.46,0,0,0,.07.19,1.58,1.58,0,0,0,.12.15c1.91,2,3.82,3.89,5.79,5.78a1.34,1.34,0,0,0,.53.27,1.17,1.17,0,0,1,.34.2l2,2c1.77,1.72,3.51,3.45,5.25,5.19a5.83,5.83,0,0,1,.68.73.5.5,0,0,1,.07.38,3.71,3.71,0,0,1-.23.32c-.28.29-.55.58-.84.85-1,.91-1.91,1.85-2.87,2.77a1.32,1.32,0,0,1-.51.3c-.39.14-.39.14-.53.27l-1.17,1.08a1.45,1.45,0,0,1-.5.31,1.32,1.32,0,0,0-.53.26c-.25.22-.51.43-.75.66a1.27,1.27,0,0,1-.54.25.88.88,0,0,0-.35.17l-.75.66a1.34,1.34,0,0,1-.53.27,1.44,1.44,0,0,0-.52.27l-.47.38a.88.88,0,0,1-.35.17,1.45,1.45,0,0,0-.69.37l-.16.13a1.26,1.26,0,0,1-.69.37,1.75,1.75,0,0,0-.52.28,1.32,1.32,0,0,1-.53.26,1.94,1.94,0,0,0-.69.38,1,1,0,0,1-.36.17c-.33.06-.61.25-.94.33a2.4,2.4,0,0,0-.38.12,1.85,1.85,0,0,1-.56.19A2.4,2.4,0,0,0,104,41a1.66,1.66,0,0,1-.38.11c-.27.05-.49.22-.76.26l-.59.07a2.31,2.31,0,0,0-.57.16c-.18.08-.39.1-.57.17s-.37.16-.56.2-.5.19-.76.24l-.6.06a1.59,1.59,0,0,0-.57.14.7.7,0,0,1-.19.06l-.2,0c-.33,0-.66.05-1,.06a3.26,3.26,0,0,0-.76.19,3.56,3.56,0,0,1-.8.07,7,7,0,0,0-.79.07,4.55,4.55,0,0,1-2,.19h-.4a6.58,6.58,0,0,1-1-.06c-.13,0-.25-.08-.38-.12a.64.64,0,0,0-.2,0l-1,0c-.47,0-.94,0-1.4,0A3.8,3.8,0,0,1,87,42.67a.65.65,0,0,0-.2,0l-.59,0A2.92,2.92,0,0,1,85,42.38l-.59-.08a3,3,0,0,1-.78-.18,2.24,2.24,0,0,0-.78-.13,1.7,1.7,0,0,1-.58-.14,1,1,0,0,0-.38-.1l-.6-.06c-.32-.06-.63-.2-1-.28s-.49-.21-.75-.26-.62-.23-1-.3-.48-.21-.75-.27a1.36,1.36,0,0,1-.52-.27,1.54,1.54,0,0,0-.53-.26,1.47,1.47,0,0,1-.54-.24,1.68,1.68,0,0,0-.71-.34,1.52,1.52,0,0,1-.36-.18,1.85,1.85,0,0,0-.69-.37,1.08,1.08,0,0,1-.53-.27,1.75,1.75,0,0,0-.71-.35.77.77,0,0,1-.34-.19l-.61-.52a1.4,1.4,0,0,0-.68-.38.92.92,0,0,1-.36-.17l-.46-.39a1.13,1.13,0,0,0-.52-.27,1.46,1.46,0,0,1-.52-.28L68.68,35l-1.15-1.11a1.72,1.72,0,0,0-.31-.24,1.32,1.32,0,0,0-.38-.13,1,1,0,0,1-.49-.33,1,1,0,0,1-.27-.52.64.64,0,0,0-.52-.52c-.24-.06-.25-.07-.35-.41a1.2,1.2,0,0,0-.34-.48.52.52,0,0,0-.34-.2,1.41,1.41,0,0,1-.83-.5c-.27-.29-.56-.57-.83-.86a.43.43,0,0,1,0-.37c.13-.16.25-.32.38-.47l2.64-2.72a.7.7,0,0,0,.2-.34c0-.06,0-.12.07-.19a1,1,0,0,1,.19-.34l1.11-1.14,5.22-5.23h0m42.2,12.59-.36-.36-.14-.13c-.17-.16-.4-.25-.52-.19a.84.84,0,0,0-.43.36.64.64,0,0,0-.09.36.45.45,0,0,0,.66.18.48.48,0,0,1,.54,0,.48.48,0,0,0,.35,0c0-.21-.1-.35,0-.27m.45-1.53a.26.26,0,0,0,.07.31.34.34,0,0,0,.31.1.31.31,0,0,0-.07-.32.28.28,0,0,0-.31-.09m-2.71.13,0-.15-.11.09Zm-1,.14,0,.14.11-.09Zm-2-6.49,0,.15.11-.09Zm-1.82-2c-.15-.06-.2,0-.17.14,0,0,.1,0,.14,0s0-.09,0-.14m-1.13-1.69c-.15-.07-.2,0-.16.14h.14s0-.09,0-.14m-1.43-.28-.15,0,.09.11Zm-3.52,1.12,0,.15.12-.09ZM89.37,43.84l.14.14a1,1,0,0,0,.51.25c.33,0,.65.05,1,0a.47.47,0,0,0,.35-.14v0c-.28-.28-.41-.36-.65-.37l-1,0a.49.49,0,0,0-.36.12Zm6.78,0a.34.34,0,0,0,.32.07.53.53,0,0,1,0-.13.44.44,0,0,0-.31.09Zm-.57,0a.45.45,0,0,0,.43.07.46.46,0,0,0,.14-.07v0a.51.51,0,0,0-.57,0Zm0,0a.36.36,0,0,0-.33-.07s0,.09,0,.13a.35.35,0,0,0,.32-.1Zm-3.1.24a.3.3,0,0,0,.32.08v-.14a.31.31,0,0,0-.31.1Zm0,0A.4.4,0,0,0,92.2,44a.37.37,0,0,0-.29.13v0a.38.38,0,0,0,.57,0Zm-1.13,0a.37.37,0,0,0,.56,0v0a.35.35,0,0,0-.28-.13.29.29,0,0,0-.28.13Zm-2.54-.3a.45.45,0,0,0,.28.13.36.36,0,0,0,.28-.12v0a.4.4,0,0,0-.56,0Zm0,.05a.36.36,0,0,0-.33-.1v.14a.3.3,0,0,0,.33-.09Z" transform="translate(0 0)"/><path class="cls-4" d="M33,117.27c-.87.94-1.65,1.66-2.42,2.39a.73.73,0,0,1-.54.2.76.76,0,0,1-.56-.18c-.25-.21-.5-.43-.74-.66l-1.44-1.38a1.22,1.22,0,0,0-.5-.3,1.24,1.24,0,0,1-.52-.3c-1-1-2-2-3-3a1.22,1.22,0,0,1-.27-.53.62.62,0,0,0-.38-.42,2.21,2.21,0,0,1-.35-.16l-.15-.37a1,1,0,0,0-.1-.17c-.34-.41-.73-.77-1.11-1.15q-4.87-4.85-9.69-9.76c-.93-1-1.88-1.88-2.81-2.82L6.75,97a1.57,1.57,0,0,1-.39-.69.39.39,0,0,0-.06-.18A2.51,2.51,0,0,0,6,95.82L2.67,92.43c-.28-.28-.58-.54-.87-.82a1.08,1.08,0,0,0-.53-.25,1.07,1.07,0,0,1-.51-.28,1.55,1.55,0,0,1-.53-.82,1.19,1.19,0,0,0-.11-.38A.66.66,0,0,1,0,89.5l.17-.08A1.57,1.57,0,0,0,.86,89a5.51,5.51,0,0,0,.41-.43,15.06,15.06,0,0,1,1.12-1.14c.44-.4.88-.81,1.29-1.24S4.53,85.38,5,85l4.53-4.49a1.22,1.22,0,0,1,.66-.42.9.9,0,0,0,.35-.18l.72-.69c2.18-2.14,4.37-4.27,6.54-6.42a1.35,1.35,0,0,1,.51-.31,1.13,1.13,0,0,0,.51-.29l.72-.69.84-.85a1.63,1.63,0,0,0,.44-.65.78.78,0,0,1,.68-.64.64.64,0,0,0,.42-.38c.05-.12.09-.25.14-.38a.54.54,0,0,1,.1-.16,1,1,0,0,1,.13-.16L29,61.44a5.32,5.32,0,0,1,.45-.38.42.42,0,0,1,.54,0,7.54,7.54,0,0,1,.58.55l2.52,2.55,1,1a1.21,1.21,0,0,1,.3.51,1.32,1.32,0,0,0,.28.52c.48.55,1,1,1.48,1.62a1.41,1.41,0,0,1,.19.34,2.43,2.43,0,0,0,.13.38,1.87,1.87,0,0,0,.26.3c.26.3.53.6.8.89a1.2,1.2,0,0,1,.26.53,1.46,1.46,0,0,0,.28.52l.53.6a1.3,1.3,0,0,1,.29.51,2,2,0,0,0,.37.7,1.06,1.06,0,0,1,.18.35,2.4,2.4,0,0,0,.12.38,2.22,2.22,0,0,0,.24.32,3.61,3.61,0,0,0,.25.3.88.88,0,0,1,.2.35c.07.32.25.61.32.93s.26.62.33.94a1.46,1.46,0,0,0,.26.53,1.34,1.34,0,0,1,.25.54c0,.06,0,.13,0,.19s.15.37.2.56a5.59,5.59,0,0,1,.08.59,2.9,2.9,0,0,0,.23.76c.07.4.25.75.34,1.14s.25.62.29,1a2.62,2.62,0,0,1,.25,1,2.32,2.32,0,0,0,.17.77,1.29,1.29,0,0,1,.08.39c0,.33,0,.66.07,1a2,2,0,0,0,.14.58,1.29,1.29,0,0,1,.08.39c0,.46,0,.93.05,1.39a2.09,2.09,0,0,0,.16.78,1.51,1.51,0,0,1,.08.38c0,.2,0,.4,0,.6,0,1.2,0,2.39,0,3.59a.86.86,0,0,1-.1.38,1,1,0,0,0-.09.39c0,.73,0,1.46-.06,2.19a1.15,1.15,0,0,1-.14.57,1.24,1.24,0,0,0-.09.39c0,.4,0,.79-.07,1.19a.45.45,0,0,1,0,.2,2.86,2.86,0,0,0-.23,1.16.41.41,0,0,1,0,.19,3.14,3.14,0,0,0-.24,1.17,1.24,1.24,0,0,1-.09.38,1.55,1.55,0,0,0-.13.38c0,.19,0,.39-.07.59a1.6,1.6,0,0,1-.15.57c-.12.24-.13.52-.26.75a2.9,2.9,0,0,0-.18.57c-.06.26-.2.49-.24.76a1.72,1.72,0,0,1-.37.69,1,1,0,0,0-.16.36,1.73,1.73,0,0,1-.36.7,1,1,0,0,0-.18.36,2.38,2.38,0,0,1-.21.56c-.12.23-.12.52-.26.74a5.91,5.91,0,0,1-.49.63.82.82,0,0,0-.17.35,1.29,1.29,0,0,1-.35.71,1.72,1.72,0,0,0-.27.52,1.2,1.2,0,0,1-.28.52l-.52.6a1.41,1.41,0,0,0-.34.71,1,1,0,0,1-.19.35,1.76,1.76,0,0,0-.36.69,1.1,1.1,0,0,1-.3.51c-.36.4-.72.78-1.08,1.17-.14.15-.14.15-.29.52a1.4,1.4,0,0,1-.3.51l-1.37,1.44-.55.56m-2.78-50.6a.3.3,0,0,0,.17.32,1,1,0,0,0,.19,0c0-.06,0-.12,0-.16a.32.32,0,0,0-.26-.24s-.08,0-.12.06m1.54.79-.15,0,.08.11Zm12.32,28a1.25,1.25,0,0,0,.43-.85,2.33,2.33,0,0,1,.19-1c0-.13,0-.26,0-.39,0-.4,0-.79.05-1.19a2.12,2.12,0,0,1,.2-1,.65.65,0,0,0,0-.19,1.36,1.36,0,0,0,0-.2c0-.2,0-.39,0-.59a1,1,0,0,0-.41-.86h0a1,1,0,0,0-.12.16,1,1,0,0,0-.06.39,2.66,2.66,0,0,1-.15,1,1.28,1.28,0,0,0-.07.39l0,1.19c0,.2,0,.39,0,.59a2,2,0,0,1-.18,1,4.89,4.89,0,0,0,0,1.38.7.7,0,0,0,.1.16Zm.28-9.87a.31.31,0,0,0,.08-.34h-.15a.36.36,0,0,0,.11.32Zm0,0a.44.44,0,0,0,0,.57h0a.41.41,0,0,0,0-.56Zm0,.57a.31.31,0,0,0-.07.34h.14a.34.34,0,0,0-.11-.33Zm.24,1.41a.28.28,0,0,0,.08-.34h-.15a.31.31,0,0,0,.12.33Zm0,.57c.16-.22.16-.32,0-.57h0c-.18.22-.18.33,0,.56Zm0,.56a.37.37,0,0,0,0-.56h0a.33.33,0,0,0-.12.28.4.4,0,0,0,.12.29Zm0,.57a.37.37,0,0,0,0-.57h0a.41.41,0,0,0,0,.57Zm-.52,6.2a.4.4,0,0,0-.11.34h.15a.29.29,0,0,0-.08-.34Zm.07-11-.09-.11,0,.13Z" transform="translate(0 0)"/><path class="cls-5" d="M162.05,66.25q3.31,3.31,6.61,6.64c.24.23.47.47.7.71a1.52,1.52,0,0,1,.4.68.68.68,0,0,0,.19.34c1.39,1.43,2.76,2.88,4.17,4.29.38.37.75.75,1.14,1.11.63.6,1.23,1.22,1.81,1.86a1.32,1.32,0,0,1,.28.52.88.88,0,0,0,.17.35c.78.84,2.91,3,3.79,3.83a1.06,1.06,0,0,0,.51.28,2.07,2.07,0,0,1,.7.38.85.85,0,0,0,.36.16c.33.08.33.09.35.36s0,.4,0,.6.15.36.18.56a.32.32,0,0,1-.17.33,1.35,1.35,0,0,1-.37.14,1,1,0,0,0-.5.3c-.19.18-.37.38-.56.57l-.72.68c-.49.46-1,.91-1.42,1.4s-.86.83-1.26,1.28-.77.73-1.15,1.1A3.83,3.83,0,0,0,177,95a1.93,1.93,0,0,1-1,.66,1,1,0,0,0-.16.34,1.16,1.16,0,0,1-.35.47l-1.71,1.68a1.25,1.25,0,0,1-.52.28c-.31.11-.36.17-.51.54a.27.27,0,0,1-.25.27,1.51,1.51,0,0,0-.67.41l-2.14,2.09-.86.83a1.46,1.46,0,0,1-.68.39.85.85,0,0,0-.35.19c-.52.52-1,1-1.57,1.53l-2.41,2.38q-3.39,3.38-6.74,6.8a1.57,1.57,0,0,0-.41.66,1.11,1.11,0,0,1-.32.5l-2.25,2.26-.15.13a.55.55,0,0,1-.38.07l-.31-.25c-.24-.22-.49-.44-.72-.68-.79-.82-1.61-1.59-2.42-2.38a1.16,1.16,0,0,0-.52-.26,1,1,0,0,1-.5-.31,1,1,0,0,1-.31-.5,1.3,1.3,0,0,0-.25-.53l-.38-.46a.9.9,0,0,1-.2-.34c0-.13-.08-.26-.12-.38l-.38-.46a1.29,1.29,0,0,1-.38-.69,1.3,1.3,0,0,0-.25-.53,1.89,1.89,0,0,1-.35-.71.75.75,0,0,0-.18-.34c-.13-.15-.25-.32-.38-.47a1.2,1.2,0,0,1-.26-.53,1.17,1.17,0,0,0-.16-.36l-.38-.46a1.17,1.17,0,0,1-.29-.52,1.39,1.39,0,0,0-.39-.67c-.24-.23-.46-.48-.68-.73a1.62,1.62,0,0,1-.36-.7.72.72,0,0,0-.17-.35c-.14-.15-.26-.31-.39-.45a1.05,1.05,0,0,1-.27-.73c0-.56,0-.51-.29-.92a1.59,1.59,0,0,1-.26-.54,1.16,1.16,0,0,0-.13-.37,1.46,1.46,0,0,1-.19-.76,1.33,1.33,0,0,0,0-.2c0-.13-.05-.26-.07-.39a8,8,0,0,1-.31-.94,1.86,1.86,0,0,1-.12-.38l0-.4A2.27,2.27,0,0,0,141,97c-.12-.24-.11-.52-.23-.76s-.13-.52-.23-.76a2,2,0,0,1-.14-.58c0-.27,0-.53,0-.8a2.3,2.3,0,0,0-.16-.77,1,1,0,0,1-.07-.39c0-.4,0-.8,0-1.19a2.19,2.19,0,0,0-.17-1,1.29,1.29,0,0,1,0-.19,8.09,8.09,0,0,1,0-1.39,2.4,2.4,0,0,1,.13-.59,1.24,1.24,0,0,0,.09-.38c0-.67.05-1.33.07-2a2.3,2.3,0,0,1,.15-.78,1.67,1.67,0,0,0,.06-.39c0-.4,0-.8,0-1.2a2.18,2.18,0,0,1,.19-1c0-.13.05-.26.06-.39,0-.33,0-.66.07-1a1.3,1.3,0,0,1,.09-.39c.1-.25.11-.52.22-.76a3.19,3.19,0,0,0,.22-1,1,1,0,0,1,.06-.39,8,8,0,0,0,.29-1,1.87,1.87,0,0,0,.2-.76,2.28,2.28,0,0,1,.25-1c.06-.33.23-.62.3-.94s.25-.62.32-1a1.83,1.83,0,0,1,.34-.7.82.82,0,0,0,.16-.37c.09-.39.31-.73.4-1.12a.88.88,0,0,1,.19-.34,1.32,1.32,0,0,0,.28-.52,1.71,1.71,0,0,1,.36-.71,1,1,0,0,0,.17-.35c.07-.4.29-.74.39-1.13a.42.42,0,0,1,.08-.18c.17-.2.35-.4.53-.59l.67-.74a1.79,1.79,0,0,0,.25-.31,2.12,2.12,0,0,0,.13-.38,1.22,1.22,0,0,1,.3-.5c.36-.4.72-.78,1.09-1.17a1.32,1.32,0,0,0,.28-.52,1.32,1.32,0,0,1,.3-.51c1.61-1.67,3.2-3.37,4.91-5,.25-.22.45-.48.71-.69a.62.62,0,0,1,.38.09,2.51,2.51,0,0,1,.31.26l1.69,1.68,5.48,5.52h0m3.65,32.9c-.18.13-.19.27,0,.46a.27.27,0,0,0,.46.06c.19-.15.2-.26,0-.46s-.26-.2-.46-.06m-2.62,4.73a.2.2,0,0,0,0-.28c-.06,0-.13,0-.18,0a.34.34,0,0,0-.18.27.43.43,0,0,0,.05.13.24.24,0,0,0,.3-.12m-2.46-2.27-.15,0,.09.11Zm3.12-.3-.16,0q-.11.24.15.18v-.16m.83-.69s0-.09,0-.14c-.15-.06-.2,0-.16.13h.14M161.74,95a.66.66,0,0,0,0-.14q-.23-.12-.15.12l.14,0M138.8,88.69c.28-.27.36-.41.37-.65,0-.51,0-1,.05-1.54a.42.42,0,0,0-.13-.35h0a.93.93,0,0,0-.15.13,1,1,0,0,0-.25.51,10.07,10.07,0,0,0,0,1.55.56.56,0,0,0,.15.35Zm.6-4-.23.24a.61.61,0,0,0-.15.3.43.43,0,0,0,.09.3h0a1.2,1.2,0,0,0,.26-.29.5.5,0,0,0,0-.55Zm0,9a.48.48,0,0,0,0-.55,1.2,1.2,0,0,0-.26-.29h.05a.47.47,0,0,0,.06.61l.22.24h0m0-9.6a.34.34,0,0,0,.1-.33h-.15a.3.3,0,0,0,.09.33Zm0,.57a.48.48,0,0,0,0-.57h0a1,1,0,0,0-.08.14.4.4,0,0,0,.08.43Zm0,9.6a.28.28,0,0,0-.07.32h.13a.38.38,0,0,0-.1-.32Zm0,0a.44.44,0,0,0,0-.57h0a.31.31,0,0,0-.12.28.56.56,0,0,0,.12.29Zm-.29-1.41a.33.33,0,0,0,.12-.28.42.42,0,0,0-.12-.29h.05a.43.43,0,0,0,0,.56Zm.05-1.14a.37.37,0,0,0-.09.43,1.1,1.1,0,0,0,.09.14h-.05a.43.43,0,0,0,0-.56Zm-.05,0a.33.33,0,0,0,.07-.35l-.14,0a.29.29,0,0,0,.12.32Zm-.23-1.42a.29.29,0,0,0-.08.35l.15,0a.31.31,0,0,0-.12-.33Zm-.05,0c.18-.21.18-.32,0-.56h.05a.39.39,0,0,0,0,.56Zm.05-1.12a.43.43,0,0,0,0,.56h-.05a.39.39,0,0,0,0-.56Zm0-.57a.42.42,0,0,0-.07.43,1.1,1.1,0,0,0,.09.14h-.05a.41.41,0,0,0,.13-.29.32.32,0,0,0-.12-.28Zm.27-2.54a.46.46,0,0,0,.13-.29.37.37,0,0,0-.14-.28h0a.48.48,0,0,0-.13.29.3.3,0,0,0,.13.28Z" transform="translate(0 0)"/><path class="cls-6" d="M88.06,142.59a2.32,2.32,0,0,0,.44.39l.39.09a.48.48,0,0,1,.4.38,2.13,2.13,0,0,0,.26.73,1.51,1.51,0,0,1,0,.79.57.57,0,0,1-.28.25.37.37,0,0,1-.36-.1l-.32-.24a.41.41,0,0,0-.53,0,1.67,1.67,0,0,1-.16.12l-.41.43a.28.28,0,0,0-.34-.1v.16a.28.28,0,0,0,.34-.09.53.53,0,0,0,.35.15h.59c.24,0,.32.09.33.36a1.13,1.13,0,0,1-.21.74v.2a.27.27,0,0,0,.32,0,11.06,11.06,0,0,1,1-.9s.13,0,.19,0a.6.6,0,0,1,0,.19c0,.12-.1.24-.14.36s0,.11,0,.16l.37.14a.48.48,0,0,1,0,.17.38.38,0,0,1-.08.17l-.5.6a.41.41,0,0,0,0,.53,6,6,0,0,0,.54.58.48.48,0,0,1-.16.08l-.56.13a.66.66,0,0,0-.21.3.27.27,0,0,0,.15.32.34.34,0,0,0,.35.05,1.6,1.6,0,0,0,.3-.23.53.53,0,0,0,.2-.31.37.37,0,0,0-.11-.35.6.6,0,0,0,.16-.35c.06-.3.13-.34.36-.26a.91.91,0,0,0,.55.18,3.43,3.43,0,0,1,.78.07.48.48,0,0,1,.23.48,1,1,0,0,1-.08.18.36.36,0,0,0-.35-.1.64.64,0,0,0-.32.2l-.13.15a.46.46,0,0,0-.11.36.41.41,0,0,0,.35-.1,4.76,4.76,0,0,0,.56-.54,4.54,4.54,0,0,0,.58.58.8.8,0,0,1-.36.14c-.3.05-.31.06-.36.34s-.15.35-.2.54,0,.11,0,.17a.39.39,0,0,0,.19,0,1.91,1.91,0,0,0,.71-.64.42.42,0,0,0,0-.53,1.14,1.14,0,0,1,1-.07.88.88,0,0,1,.55.53c.06.18.09.38.14.58a.65.65,0,0,1,0,.73c-.08.15,0,.26.09.3a1.5,1.5,0,0,1,.54.22,2.34,2.34,0,0,0,.31.24.5.5,0,0,0,.38.07,1.46,1.46,0,0,0,.44-.38.44.44,0,0,0,.07-.37.71.71,0,0,0-.08-.18v0l.24-.28a.69.69,0,0,0,.17-.51,1.15,1.15,0,0,0-.16-.7.41.41,0,0,1,.05-.5h0a1.53,1.53,0,0,0,.83.46.22.22,0,0,1,.12.11c.06.12.09.24.14.36a1.62,1.62,0,0,0,.55-.18.58.58,0,0,1,.19,0l.58,0,.18-.06a.25.25,0,0,0-.07-.33.62.62,0,0,0-.35-.15c-.27,0-.27-.06-.33-.38a.83.83,0,0,0-.13-.36v0c.11-.15.23-.3.35-.44s.07-.37.12-.55a.56.56,0,0,1,.09-.17.39.39,0,0,0,.28.12.34.34,0,0,0,.28-.13.28.28,0,0,0,.34.1.76.76,0,0,0,0-.15.28.28,0,0,0-.34.09.4.4,0,0,0-.29-.12.34.34,0,0,0-.28.12,1.11,1.11,0,0,1-.14-.69.74.74,0,0,1,.18-.49l.24-.27a.29.29,0,0,0,.35.1v-.16a.29.29,0,0,0-.35.1,1,1,0,0,1-.15-.53.51.51,0,0,0-.15-.33l.3-.31a.28.28,0,0,0,.34.1v-.16a.31.31,0,0,0-.34.11.5.5,0,0,1,0-.55.72.72,0,0,0,.13-.36c0-.13,0-.27,0-.4s-.07-.24-.24-.19a1,1,0,0,0-.44.37.83.83,0,0,0-.14.55.73.73,0,0,0,.17.55l.27.29a2.32,2.32,0,0,0-.39.44,2.7,2.7,0,0,0-.08.39c0,.22-.19.33-.31.48a.36.36,0,0,1-.35.15c-.1,0-.14-.14-.15-.29a.9.9,0,0,1,.12-.56c.08-.11.17-.21.25-.31a.52.52,0,0,0,.13-.36l-.18-.07c-.29-.11-.29-.13-.2-.39s.11-.35,0-.56c-.16-.38-.16-.38.07-.45a1.58,1.58,0,0,0,.37-.11,1.21,1.21,0,0,0,.3-.25l.68-.72c.06-.15,0-.26,0-.29a.71.71,0,0,0-.2,0l-.46.37a.43.43,0,0,1-.5-.17.64.64,0,0,1-.06-.18,1.44,1.44,0,0,0-.32-.71.52.52,0,0,1-.14-.69.4.4,0,0,0,0-.54,3.76,3.76,0,0,0-.25-.31l-.56-.56v0a.62.62,0,0,0,.13-.37c0-.26,0-.53,0-.79a.5.5,0,0,1,.42-.37,6.54,6.54,0,0,1,1,0,1,1,0,0,1,.38.11,1.27,1.27,0,0,0,.38.11,3.24,3.24,0,0,1,1,.15,5.11,5.11,0,0,0,.76.23,2.49,2.49,0,0,0,1,.21l.39.06a7.47,7.47,0,0,0,1,.29,2.14,2.14,0,0,0,1,.22.91.91,0,0,1,.56.18l.16.11a.76.76,0,0,0,.35.19c.33.06.62.24.94.31s.5.2.75.26a2.65,2.65,0,0,1,.89.44.9.9,0,0,0,.36.16,1.47,1.47,0,0,1,.7.36.84.84,0,0,0,.35.18c.39.09.74.29,1.13.38a.77.77,0,0,1,.34.19l.88.82a2.34,2.34,0,0,0,.31.24,1.74,1.74,0,0,0,.38.14,1,1,0,0,1,.34.18l.76.65a1.3,1.3,0,0,0,.52.27,1.19,1.19,0,0,1,.51.3c.74.68,1.45,1.38,2.16,2.08l.72.69a1.3,1.3,0,0,0,.51.3,1.09,1.09,0,0,1,.52.27c.28.29.57.56.85.84a1.13,1.13,0,0,1,.4.67,1,1,0,0,0,.18.36,8.33,8.33,0,0,1,.76.91.55.55,0,0,1,0,.38l-.35.49c-.06.19-.1.39-.17.57a.51.51,0,0,1-.28.26,2.48,2.48,0,0,0-.56.2,3.32,3.32,0,0,0-.46.38L116.88,155c-.18.19-.39.36-.58.54s-.28.18-.55.07-.39-.15-.44.09a.7.7,0,0,1-.64.64.24.24,0,0,0-.22.27c0,.18-.08.26-.24.26s-.31.14-.22.39.05.49-.13.7a3.71,3.71,0,0,1-.27.29c-.65.67-1.3,1.33-2,2-1.24,1.21-2.42,2.47-3.64,3.7a1.18,1.18,0,0,0-.31.5,1.32,1.32,0,0,1-.28.52c-1.81,1.86-3.6,3.73-5.48,5.52-.52.51-1,1-1.55,1.56l-3.66,3.67a1.38,1.38,0,0,1-.68.38.34.34,0,0,0-.22.29.58.58,0,0,1-.5.53,1,1,0,0,0-.38.12,1.42,1.42,0,0,0-.3.25l-.4.45a2.32,2.32,0,0,0-.13.37.26.26,0,0,1-.28.23c-.16,0-.23.09-.25.25a1.18,1.18,0,0,1-.39.68l-.3.26a.71.71,0,0,1-.54.21.79.79,0,0,1-.58-.1,2.18,2.18,0,0,0-.55-.22.8.8,0,0,1-.35-.19c-.09-.09-.2-.17-.29-.27-.66-.65-1.33-1.3-2-2s-1.53-1.48-2.27-2.25-1.41-1.41-2.12-2.11-1.42-1.4-2.12-2.11l-4.62-4.7a1.41,1.41,0,0,1-.28-.51c-.13-.36-.14-.38-.28-.52l-.7-.71-.7-.71a1,1,0,0,1-.28-.51c-.07-.27-.08-.28-.39-.36a.78.78,0,0,1-.35-.18c0-.05-.1-.08-.15-.13-1.58-1.61-3.22-3.17-4.79-4.79-.65-.67-1.33-1.31-2-2a1.12,1.12,0,0,0-.51-.28l-.19-.07a.85.85,0,0,1-.09-.38c0-.2,0-.4,0-.6a1.22,1.22,0,0,0-.08-.57c-.13,0-.27-.05-.39-.09a.51.51,0,0,1-.29-.25.31.31,0,0,1,0-.19.54.54,0,0,1,.24-.3.41.41,0,0,1,.19,0c.28-.06.34-.09.36-.36a3.72,3.72,0,0,0-.07-1s-.07-.1-.11-.15a.27.27,0,0,0-.35-.11.43.43,0,0,0-.14.13.29.29,0,0,0-.08.35,2.78,2.78,0,0,1,.12.38c0,.17-.19.39-.35.39a.65.65,0,0,1-.2,0c-.35-.19-.77-.18-1.11-.41a2.28,2.28,0,0,1-.57-.15.41.41,0,0,1-.12-.52,3,3,0,0,0,.47-.87,1.46,1.46,0,0,1,.07-.19.87.87,0,0,1,.13-.15L66,148.4a1.23,1.23,0,0,1,.51-.29c.36-.15.38-.16.51-.29l2-1.92a1.1,1.1,0,0,1,.51-.3,1.66,1.66,0,0,0,.68-.39l.72-.69a1.24,1.24,0,0,1,.69-.38A1,1,0,0,0,72,144c.47-.38.88-.81,1.33-1.21a1.48,1.48,0,0,1,.52-.29,1,1,0,0,0,.52-.27c.15-.13.3-.26.46-.38a.78.78,0,0,1,.35-.18,1.41,1.41,0,0,0,.7-.35,1,1,0,0,1,.35-.19,1.79,1.79,0,0,0,.72-.33,1.44,1.44,0,0,1,.52-.27,1.6,1.6,0,0,0,.7-.35.71.71,0,0,1,.36-.17,6.55,6.55,0,0,0,.74-.27,3.5,3.5,0,0,0,.76-.23,1.35,1.35,0,0,1,1,0,.48.48,0,0,0,.56,0,1.05,1.05,0,0,1,.38-.12c.2,0,.4,0,.6,0a1,1,0,0,0,.54-.22,1.18,1.18,0,0,1,.32-.23,1.49,1.49,0,0,1,.59-.09,1.71,1.71,0,0,0,.77-.18.85.85,0,0,1,.19-.06l.19,0a4.07,4.07,0,0,0,.79-.08c.13,0,.24-.12.37-.15a4.23,4.23,0,0,1,.79-.08.87.87,0,0,0,.38-.11,1,1,0,0,1,.38-.12L89,138a2.16,2.16,0,0,0,1.17-.2,5.16,5.16,0,0,1,.79-.07,1.47,1.47,0,0,1,.77.16.75.75,0,0,0,.38.1c.4,0,.8,0,1.2,0a.53.53,0,0,1,.36.15v0a5.83,5.83,0,0,1-.56.55.86.86,0,0,1-.35.16c-.28.06-.27.06-.38.34s-.09.22-.46.07a.55.55,0,0,0-.38,0,1.29,1.29,0,0,1-.94.17.92.92,0,0,1-.36-.13c-.14-.09-.24-.07-.31,0s0,.14,0,.18a.71.71,0,0,1,.12.37.45.45,0,0,1-.32.16.52.52,0,0,0-.42.36,2.34,2.34,0,0,0-.09.38c-.17.09-.37.1-.54.18a.44.44,0,0,0-.16.51c.12.15.25.3.36.46s0,.26-.06.3a3.44,3.44,0,0,0-.38.11,1.81,1.81,0,0,0-.44.39l-.25-.25c-.2-.19-.33-.21-.6,0a.27.27,0,0,0-.34-.1v.16a.29.29,0,0,0,.35-.1.85.85,0,0,1,.14.34c.08.41.17.44.44.2l.27-.26m2,11.62a.27.27,0,0,0-.34-.1v.15a.27.27,0,0,0,.34-.1l.15.09a.37.37,0,0,0,.44-.16.33.33,0,0,0,0-.32,1.19,1.19,0,0,0-.09-.15.67.67,0,0,1,.35-.14c.14,0,.27,0,.33-.12a.59.59,0,0,0,0-.37c0-.07,0-.13,0-.19a.32.32,0,0,0-.19-.31.48.48,0,0,0-.16-.08.28.28,0,0,0-.18,0,.52.52,0,0,0-.23.28,1.58,1.58,0,0,0,0,.75.57.57,0,0,0,.11.16l-.59.59m-1.69-3.39-.31-.3a1.63,1.63,0,0,0,.38-.45.6.6,0,0,0,0-.19.67.67,0,0,0-.2,0,.38.38,0,0,0-.24.28.5.5,0,0,1,0,.64s.06.08.09.08a.3.3,0,0,0,.29-.1.34.34,0,0,0,.35.11.59.59,0,0,0,.17-.1.28.28,0,0,0,.12-.34.32.32,0,0,0-.36.09l-.28.28m-2,5.34a1.46,1.46,0,0,0-.37.45.3.3,0,0,0,.09.34.27.27,0,0,0,.32.12,1.21,1.21,0,0,0,0-.18.9.9,0,0,0-.14-.73.3.3,0,0,0,.1-.34h-.15a.27.27,0,0,0,.1.34m13.54,11.29a10.83,10.83,0,0,0-.83.83.56.56,0,0,0-.09.17,1.15,1.15,0,0,0,0,.19c.07,0,.14,0,.2,0a2.44,2.44,0,0,0,.72-.64.51.51,0,0,0,.07-.17.36.36,0,0,0-.1-.36.3.3,0,0,0,.1-.36h-.17a.29.29,0,0,0,.11.35M87.77,144a.36.36,0,0,0,.36.1.39.39,0,0,0,.27-.23.67.67,0,0,0,0-.2.32.32,0,0,0-.35.11l-.28.27a.43.43,0,0,0-.33-.15l-.75,0a.57.57,0,0,1-.35-.12.3.3,0,0,0,.1-.35h-.16a.27.27,0,0,0,.1.34,1.51,1.51,0,0,0-.1.17.41.41,0,0,0,.25.47,1,1,0,0,0,.94-.11,3.85,3.85,0,0,0,.3-.27M104.43,163c.38-.45.86-.82,1.24-1.27l.16-.13a.54.54,0,0,1,.16-.1,1.17,1.17,0,0,1,.2,0,1.78,1.78,0,0,0,.38-.1,1.36,1.36,0,0,0,.31-.24c.32-.25.41-.23.52.14a.37.37,0,0,0,.21.32.34.34,0,0,0,.36,0,1.62,1.62,0,0,1,.56-.19.86.86,0,0,0,.52-.26,1.16,1.16,0,0,1,.7-.32.6.6,0,0,0,.19-.06.34.34,0,0,0,.19-.32s-.08-.09-.12-.11-.26-.09-.29-.19.13-.3.38-.38.38-.13.39-.55a1.33,1.33,0,0,1,0-.4c.08-.23.31-.19.48-.27a.56.56,0,0,0,.17-.09,3.3,3.3,0,0,0,.56-.56.85.85,0,0,0,.15-.35c.07-.3.07-.3.36-.37a1,1,0,0,0,.52-.27,5.51,5.51,0,0,0,.41-.43.37.37,0,0,0,.35.1.4.4,0,0,0,.28-.24.6.6,0,0,0,0-.19.33.33,0,0,0-.35.09l-.28.27s-.1-.1-.16-.11a3.5,3.5,0,0,1-.56-.13.42.42,0,0,1-.21-.31,15,15,0,0,1,0-1.77.39.39,0,0,0-.15-.32.58.58,0,0,0-.19,0,1.21,1.21,0,0,1-.55.19.65.65,0,0,1-.39,0,.47.47,0,0,1-.16-.32c0-.06-.06-.1-.09-.15a5.22,5.22,0,0,1-.56-.18.52.52,0,0,0-.7.09c-.24.22-.44.49-.7.69a1,1,0,0,1-.16.12.53.53,0,0,1-.19,0l-.38.09-.46.37h0l-.42-.43a.91.91,0,0,1-.29-.51c0-.06,0-.12,0-.19a1.08,1.08,0,0,0-.32-.49.37.37,0,0,0-.35-.15.49.49,0,0,0-.17.31c0,.14-.14.18-.3.11a9.19,9.19,0,0,0-.74-.66.43.43,0,0,0-.52.14.51.51,0,0,0-.07.17,3.15,3.15,0,0,1-.25.75,1.47,1.47,0,0,0-.06.59.54.54,0,0,0,.16.36l.25.3v0a.47.47,0,0,1-.54,0,.57.57,0,0,0-.72.1,1.58,1.58,0,0,1-.7.34.39.39,0,0,0-.18.06.49.49,0,0,0-.23.3,2,2,0,0,1-.16.56,4.17,4.17,0,0,1-.41.43,4.07,4.07,0,0,0-.4.43l-.1.17c-.08.17,0,.24.15.27a2.67,2.67,0,0,1,.36.14.4.4,0,0,1,.15.51c-.38.54-.39.54-.48.84s-.16.25-.46.22a1.09,1.09,0,0,1-.56-.15c-.14-.09-.26-.07-.29,0a.22.22,0,0,0,0,.19.69.69,0,0,1,0,.73c-.08.16,0,.26.12.3s.26.08.29.18-.16.35-.37.39a1,1,0,0,0-.55.18,1.72,1.72,0,0,0-.43-.37h-.19a.6.6,0,0,0,0,.19.39.39,0,0,0,.28.23.4.4,0,0,0,.35-.1,2.48,2.48,0,0,1,.25.3c.14.23.15.26,0,.56s-.14.34.13.43l.19.06a.66.66,0,0,1,.1.37.9.9,0,0,1-.14.56.64.64,0,0,0-.06.18.51.51,0,0,0,0,.17h.19a1.17,1.17,0,0,1,.55-.21.81.81,0,0,0,.37-.15.45.45,0,0,0,.19-.33c0-.31.18-.38.55-.35a.67.67,0,0,1,.19,0,.29.29,0,0,1,0,.34,4.07,4.07,0,0,1-.4.43,1,1,0,0,0-.29.72,1.23,1.23,0,0,0,0,.19c0,.18.1.26.26.16a1.38,1.38,0,0,1,1-.17.44.44,0,0,1,.38.39.46.46,0,0,1-.36.4l-.39.07a.57.57,0,0,0-.16.11c-.09-.1-.19-.15-.29-.11s-.12.14,0,.18a.25.25,0,0,0,.29-.11.52.52,0,0,1,.14.37v.59c0,.16.07.27.18.27a.35.35,0,0,0,.31-.21c.08-.17.07-.38.22-.52l.38-.11a.61.61,0,0,0,.15-.13.43.43,0,0,0,.16-.34,2.75,2.75,0,0,0,0-.4,1,1,0,0,1,.4-.86.48.48,0,0,1,.37-.11.54.54,0,0,1-.07.37.45.45,0,0,0-.07.18.27.27,0,0,0,.14.34.34.34,0,0,0,.36.08,5.2,5.2,0,0,1,.55-.21c.28-.08.28-.11.16-.42a1,1,0,0,1-.15-.56.75.75,0,0,1,.08-.37l.19-.06c.18,0,.26-.1.21-.24a.37.37,0,0,0-.27-.24.49.49,0,0,0-.38.09.45.45,0,0,1-.54,0Zm-3.64-6a.78.78,0,0,0,.26-.28.27.27,0,0,0,0-.32.61.61,0,0,0-.19,0,1,1,0,0,1-.36.12c-.17,0-.17,0-.5-.23s-.43-.23-.51.1a1.74,1.74,0,0,1-.13.36c-.19.37-.1.41.31.43a4.92,4.92,0,0,0,.77,0,.63.63,0,0,0,.35-.16m-7.08-5.36.26-.26a.53.53,0,0,0,.08-.17c.06-.15,0-.21-.18-.24a1.52,1.52,0,0,1-.54-.19c-.21-.1-.28,0-.35.27a.55.55,0,0,1-.51.48c-.16,0-.25.07-.24.2a.35.35,0,0,0,.4.31c.12,0,.23-.1.35-.14a5.12,5.12,0,0,1,.56-.15s.1-.07.17-.11m9.65,1.64a3.38,3.38,0,0,0,.26-.27.27.27,0,0,0,0-.18c0-.11-.12-.16-.27-.17a1,1,0,0,0-.71.23,1.79,1.79,0,0,0-.27.28.27.27,0,0,0,0,.18c0,.11.11.17.27.16a1,1,0,0,0,.72-.23m-2.49,15.49a1.66,1.66,0,0,0,.23-.31.34.34,0,0,0-.07-.35.3.3,0,0,0-.33-.16.62.62,0,0,0-.31.21.53.53,0,0,0,0,.18c0,.07,0,.13,0,.2a.54.54,0,0,0,.08.37c.08.11.32,0,.47-.14m-12-14.54a.43.43,0,0,0-.35-.09l-.13.14c-.16.21-.15.32,0,.47s.31.15.47-.05.15-.33,0-.47m9.31-.84a.28.28,0,0,0-.34-.09.43.43,0,0,0-.22.29.61.61,0,0,0,0,.19.66.66,0,0,0,.29.22.31.31,0,0,0,.33-.15c.16-.19.15-.31,0-.46m8.49,8.66a1.21,1.21,0,0,0,0,.18.79.79,0,0,0,.49.5.55.55,0,0,0,.18,0,.44.44,0,0,0-.07-.34c-.17-.24-.51-.44-.59-.36m-8.49,4.85a.76.76,0,0,0-.16-.06c-.12,0-.19.08-.2.23a1.21,1.21,0,0,0,0,.19.32.32,0,0,0,.13.3c.13.06.33-.14.36-.34a.33.33,0,0,0-.14-.32M98,151a.63.63,0,0,0-.36-.06.42.42,0,0,0-.3.13c-.08.12.1.31.33.36a.36.36,0,0,0,.38-.3.35.35,0,0,0,0-.13m-8.35.79a.55.55,0,0,0,.2-.3l0-.18a.59.59,0,0,0-.19,0,.58.58,0,0,0-.31.18c-.17.16-.28.41-.21.48s.32,0,.48-.19m8.65-10.67a1,1,0,0,0-.18,0,.46.46,0,0,0-.21.48.42.42,0,0,0,.27.22.16.16,0,0,0,.15,0c.12-.1.09-.64,0-.7M88.06,149h-.18a.4.4,0,0,0-.17.29c0,.13.07.18.22.11a.31.31,0,0,0,.19-.27s0-.08-.06-.13m10.22,6.79a.27.27,0,0,0-.32.07.36.36,0,0,0-.11.33.35.35,0,0,0,.33-.08.28.28,0,0,0,.1-.32m-1.27,2a.32.32,0,0,0,.15-.33.67.67,0,0,0-.2,0,.32.32,0,0,0-.14.12c-.11.13-.1.22,0,.27l.18-.06m-.52,1.36a.29.29,0,0,0-.29.19.63.63,0,0,0,0,.19.6.6,0,0,0,.19,0,.3.3,0,0,0,.22-.28l-.09-.1m4.84-4.8h-.18a.39.39,0,0,0-.17.29c0,.13.07.18.22.12a.31.31,0,0,0,.18-.28s0-.08,0-.12m-4,5.08c-.06,0-.13,0-.18,0a.34.34,0,0,0-.18.28c0,.13.07.18.22.11a.31.31,0,0,0,.19-.27.31.31,0,0,0-.05-.12m9-7.92a.31.31,0,0,0-.05.12.28.28,0,0,0,.16.28c.15.07.24,0,.23-.1a.33.33,0,0,0-.17-.28.88.88,0,0,0-.17,0m-8.26,10.26a.26.26,0,0,0,.13-.32c-.07-.07-.16-.07-.28,0a.26.26,0,0,0-.15.31.25.25,0,0,0,.3,0m9.93-9.3a.37.37,0,0,0-.31-.11.31.31,0,0,0,.07.32.31.31,0,0,0,.32.1.27.27,0,0,0-.08-.31m6.32,2.43h-.15c-.07.15,0,.2.13.15a.78.78,0,0,1,0-.14m-1.12,0q-.24-.11-.18.15h.17c0-.05,0-.1,0-.16m-12,11.84v.14c.14.07.19,0,.16-.13h-.15M98.71,166a.77.77,0,0,0,0,.15c.14.07.2,0,.17-.14h-.15m12.58-13.53c-.16-.07-.22,0-.18.16h.17c0-.05,0-.1,0-.16m-13,12.42h-.15c-.07.15,0,.2.13.16s0-.1,0-.15m.28-1.42h-.15c-.07.16,0,.21.14.17v-.16m10.58-11.29,0,.15.11-.09Zm-1.57,1.29c.07-.15,0-.2-.14-.16,0,.05,0,.1,0,.15h.15m-6.76,4.94c-.15-.08-.2,0-.16.13h.15v-.14m-1.68,1.11H99c-.08.15,0,.21.13.16Zm8.59-9.74.14,0-.08-.11Zm-4.92,5q-.24-.12-.18.15h.17a.86.86,0,0,0,0-.16m-3.1,3.1h-.15c-.08.15,0,.21.13.16,0-.05,0-.1,0-.15m4.22-8.17-.16,0,.09.11Zm-4.8,4.79H99c-.07.14,0,.2.13.16v-.15m-3.39,3.4-.15,0,.09.12Zm6.9-7.5.15,0-.09-.11Zm-1.7,1.13.16,0-.09-.11Zm-3.35,3.24,0,.15.11-.09Zm-6.94,2.69,0-.15-.12.1Zm-2,1.28c-.14-.07-.2,0-.16.13h.15v-.14m11.58-12.14c-.16-.08-.22,0-.17.14h.16c0-.05,0-.1,0-.15M92.35,154l0-.15-.12.09Zm-4.07,3.23,0,.16.12-.09ZM90.12,155c-.15-.07-.21,0-.17.13h.15l0-.14M91.51,152q.12-.26-.15-.18c0,.06,0,.11,0,.17h.16m-3.65,3.5-.15,0c-.08.16,0,.22.14.18,0-.06,0-.11,0-.16m1.41-2-.15,0c-.07.16,0,.21.14.17a.76.76,0,0,1,0-.15m.56-1.12c-.14-.07-.2,0-.16.13l.15,0a.76.76,0,0,0,0-.15m-2.41,2.24,0,.16.11-.09Zm-19.91-1.26,0-.15-.12.09Zm26.73-14.75a.52.52,0,0,1,.69.11l.31.23a.57.57,0,0,0,.37-.06,1,1,0,0,0,.29-.26.36.36,0,0,0,.12-.35.49.49,0,0,0-.41-.33c-.52,0-1,0-1.56,0a.51.51,0,0,0-.35.13v0a5.39,5.39,0,0,0,.59.58Zm27,13.68a3.71,3.71,0,0,0,.27-.29.91.91,0,0,0,.11-.16c.08-.15.07-.25,0-.27a.23.23,0,0,0-.18,0,13.86,13.86,0,0,0-2,1.93,1.4,1.4,0,0,0-.1.16c0,.06,0,.13,0,.19s.14,0,.19,0a7.37,7.37,0,0,0,1-.91c.23-.21.48-.43.71-.66M96.52,139.81a1.1,1.1,0,0,0-.44-.36c-.16-.07-.24,0-.25.19a5.24,5.24,0,0,0,0,1,.59.59,0,0,0,0,.19.34.34,0,0,0,.31.19c.11,0,.17-.11.18-.27s0-.39,0-.59a.69.69,0,0,1,.13-.36Zm-.28,11.57a1.37,1.37,0,0,0-.28-.26.82.82,0,0,0-.17-.11.31.31,0,0,0-.34.1c-.11.1-.18.21-.12.35a.44.44,0,0,0,.27.25.32.32,0,0,0,.36-.1,3.57,3.57,0,0,0,.28-.27Zm-1.95-12.72a2.21,2.21,0,0,0-.38.43v.19c.06,0,.13,0,.18,0a.35.35,0,0,0,.24-.26.34.34,0,0,0-.1-.35Zm.82,10.47a.34.34,0,0,0-.35-.1.43.43,0,0,0-.27.24s0,.12,0,.19a.32.32,0,0,0,.35-.11l.28-.26Zm1.4.26a.36.36,0,0,0,.1-.35.43.43,0,0,0-.24-.27.66.66,0,0,0-.2,0,.31.31,0,0,0,.1.35l.27.28Zm1.71-.55a.27.27,0,0,0-.35-.09v.16a.31.31,0,0,0,.35-.11Zm-3.11.25a.29.29,0,0,0,.35.09V149a.28.28,0,0,0-.35.11Zm1.9-4.58c0,.05,0,.1,0,.14l.14,0c.08-.15,0-.2-.13-.16m-3.68,3.81c.16.08.21,0,.17-.14h-.16c0,.05,0,.1,0,.15m.3-.84h.15a.66.66,0,0,1,0-.14c-.15-.08-.21,0-.16.13M101,161a.31.31,0,0,0,.19.06,5.63,5.63,0,0,0,.58,0c.17,0,.22.07.23.24a2.9,2.9,0,0,0,.06.78.42.42,0,0,0,.23.29.35.35,0,0,0,.36-.09c.19-.15.21-.19.06-.51a.81.81,0,0,1-.12-.36c0-.2,0-.4,0-.59s0-.39,0-.59-.06-.26-.18-.25a.37.37,0,0,0-.18.05l-.46.37-.57.13-.23.22a.22.22,0,0,0,.06.22m2.83-3.77a.25.25,0,0,0,0-.31h-.2a1.39,1.39,0,0,1-.71.26.46.46,0,0,0-.3.23c-.09.17,0,.24.16.25a1.06,1.06,0,0,0,.75-.16,3.25,3.25,0,0,0,.27-.26m-.9,6.27a.46.46,0,0,0,.18.3s.11,0,.17,0a.43.43,0,0,0,.14-.3,1.08,1.08,0,0,0,0-.18.32.32,0,0,0-.06-.17c-.07-.09-.17-.07-.28,0a.3.3,0,0,0-.15.31m1.11-4.82c.13-.07.21-.16.16-.3s-.15-.12-.29-.12h-.18c-.24,0-.3.15-.16.33a.32.32,0,0,0,.47.08m1.54-2.7a.34.34,0,0,0-.07-.37.27.27,0,0,0-.33-.1.75.75,0,0,0-.07.39c0,.27.15.36.34.23a.58.58,0,0,0,.13-.15m.32-1.58-.17-.07a.57.57,0,0,0-.18,0,.61.61,0,0,0-.35.07.25.25,0,0,0,.07.3.27.27,0,0,0,.33.11.55.55,0,0,0,.15-.08.3.3,0,0,0,.15-.3m-2.91,2a.38.38,0,0,0,.36.1.7.7,0,0,0,.33-.19.86.86,0,0,1,.13-.14.42.42,0,0,0,.1-.36.44.44,0,0,0-.35.09,5.73,5.73,0,0,0-.56.54Zm0,0a.41.41,0,0,0-.36-.1.39.39,0,0,0-.28.23.46.46,0,0,0,0,.2.3.3,0,0,0,.35-.1c.08-.09.18-.18.27-.27Zm2,4.21a1.48,1.48,0,0,0,.35-.44s0-.12,0-.18a.61.61,0,0,0-.19,0,.39.39,0,0,0-.23.27.35.35,0,0,0,.11.34Zm4-.23-.09-.11-.06.13ZM104.43,163a.3.3,0,0,0-.36-.1V163a.28.28,0,0,0,.35-.1Zm.58-2.28a.29.29,0,0,0-.11.35h.16a.31.31,0,0,0-.09-.36Zm4-5.9-.09-.11-.06.15ZM107.8,156l.1-.09-.14-.06Zm-3.63,3.52-.12.1.15.05Zm1.92-2.39.11-.09-.14-.06Zm1.46-2.33a.3.3,0,0,0-.1.34h.16a.28.28,0,0,0-.1-.33Zm-4.61,4.71,0,.17h.17a.88.88,0,0,0,0-.16l-.17,0m1.48-4.45a.3.3,0,0,0,.35.1V155a.29.29,0,0,0-.35.1Z" transform="translate(0 0)"/><path class="cls-6" d="M152,66.2c0,.13,0,.27,0,.4a.55.55,0,0,1-.06.18c-.07.14-.18.13-.32,0a1.46,1.46,0,0,0-.75-.22c-.27,0-.28,0-.42-.34s-.17-.34-.41-.2a1.35,1.35,0,0,1-.76.17,2.31,2.31,0,0,0-.59,0,3.78,3.78,0,0,0-.33.22.73.73,0,0,1-.36.16,1.31,1.31,0,0,0-.36.17,1.36,1.36,0,0,1-.76.2c-1.06,0-2.12,0-3.18,0a1,1,0,0,1-.38-.11,1.73,1.73,0,0,0-.75-.24l-.59-.06a.62.62,0,0,1-.19-.07,2.06,2.06,0,0,0-.94-.28,1.93,1.93,0,0,1-.94-.27.85.85,0,0,0-.38-.12l-.59,0a.85.85,0,0,1-.38-.12c-.28-.19-.61-.25-.9-.43a1.79,1.79,0,0,0-.75-.24.89.89,0,0,1-.37-.14c-.33-.22-.74-.29-1.06-.53a4.29,4.29,0,0,1-.72-.33,9.17,9.17,0,0,1-.88-.46,4.73,4.73,0,0,1-.71-.36,1.49,1.49,0,0,0-.36-.17c-.31-.12-.57-.34-.89-.44a4.85,4.85,0,0,1-.63-.49,1.42,1.42,0,0,0-.33-.21,3.29,3.29,0,0,1-.83-.54,2.4,2.4,0,0,0-.51-.31,1.45,1.45,0,0,1-.34-.2c-.3-.26-.57-.56-.89-.8a1.48,1.48,0,0,0-.35-.19,1.2,1.2,0,0,1-.34-.21l-1.16-1.08a2.06,2.06,0,0,0-.5-.33,1.4,1.4,0,0,1-.71-.67,2.4,2.4,0,0,0-.44-.65l-1.24-1.31a2.55,2.55,0,0,1-.24-.31c-.39-.53-.39-.54-.67-.69a1.19,1.19,0,0,1-.62-.73.92.92,0,0,0-.19-.35l-.39-.45a1.08,1.08,0,0,1-.21-.34,1.33,1.33,0,0,0-.19-.35c-.08-.1-.16-.21-.25-.31a2.71,2.71,0,0,1-.42-.67,3.19,3.19,0,0,0-.47-.64,2.14,2.14,0,0,1-.3-.51c-.12-.31-.34-.57-.44-.89a5.83,5.83,0,0,1-.37-.7,6.69,6.69,0,0,1-.44-.89,4.64,4.64,0,0,1-.45-.89,8.14,8.14,0,0,1-.43-.89,1.6,1.6,0,0,1-.26-.74,1.42,1.42,0,0,0,0-.2.89.89,0,0,0-.08-.17,1.88,1.88,0,0,1-.28-.95,1.68,1.68,0,0,0-.27-.93,1.09,1.09,0,0,1-.11-.39,1.66,1.66,0,0,0-.24-.74.86.86,0,0,1-.13-.38l-.06-.59a1.42,1.42,0,0,0-.18-.56,1.63,1.63,0,0,1-.17-.57c0-.33,0-.66-.07-1a1.05,1.05,0,0,0-.12-.38,1.25,1.25,0,0,1-.21-.75c0-.67,0-1.33-.07-2a1.33,1.33,0,0,0-.19-.56,1.48,1.48,0,0,1-.13-.58c0-1.06,0-2.13-.08-3.19,0-.18,0-.18-.16-.56a1.66,1.66,0,0,1-.15-.57c0-1.4,0-2.79,0-4.19,0-.26.21-.43.54-.43h.8c2,0,4,0,6,.05a1.25,1.25,0,0,1,.57.13,1.26,1.26,0,0,0,.56.17h.2l10,.09h.2a1.2,1.2,0,0,1,.76.19.84.84,0,0,0,.38.11l.59,0c2.53,0,5.05,0,7.58,0,2,0,4,0,6,0,.6,0,1.2,0,1.8,0a1.87,1.87,0,0,1,1,.24c.14.08.31,0,.56-.07s.23-.1.56,0a.58.58,0,0,0,.18.08,1.2,1.2,0,0,0,.77-.07,1.79,1.79,0,0,1,1-.22,7.85,7.85,0,0,1,1.19,0,.52.52,0,0,1,.31.23,1.33,1.33,0,0,1,0,.19,1.75,1.75,0,0,1,0,.4c-.07,4.38-.06,8.77-.08,13.15,0,.47,0,.93,0,1.4a1.1,1.1,0,0,1-.16.56,1.3,1.3,0,0,0-.14.57l-.06,5c0,.86,0,1.72,0,2.59a1.26,1.26,0,0,1-.14.57,1.25,1.25,0,0,0-.16.57c0,2,0,4,0,6,0,2.53,0,5.05-.05,7.58a1.47,1.47,0,0,1-.2.76.77.77,0,0,0-.12.37,6.82,6.82,0,0,1-.08.79c0,.18-.14.22-.27.15a1.69,1.69,0,0,0-.36-.17.69.69,0,0,1-.53-.52,1.13,1.13,0,0,0-.51-.59.48.48,0,0,0-.55,0l-.34.21a.85.85,0,0,1-.19.06.28.28,0,0,0-.17-.3l-.11.1a.3.3,0,0,0,.31.17M149.2,31.51a.29.29,0,0,0-.18-.32l-.12.11a.31.31,0,0,0,.33.18.29.29,0,0,0,.17.32l.12-.12a.29.29,0,0,0-.32-.17m-11.58,2.36a1.2,1.2,0,0,0,.19,0,.92.92,0,0,0,.54-.13c.09-.09.19-.17.27-.26s.13-.23,0-.3a.55.55,0,0,0-.36,0l-.47.32a.53.53,0,0,1-.18,0c0-.06,0-.13,0-.19a1.29,1.29,0,0,0-.16-.57,1,1,0,0,1-.23-.74c0-.26,0-.53,0-.79a1,1,0,0,0-.37-.68.88.88,0,0,0-.34-.19,1.2,1.2,0,0,0-.2,0,1.6,1.6,0,0,1-.74-.25c-.14-.07-.25-.06-.29.12a3.38,3.38,0,0,0,0,.78c0,.22,0,.23-.21.55a1,1,0,0,0-.17.74c0,.26.06.31.35.42a.81.81,0,0,1,.32.21.81.81,0,0,1-.21.33,5.89,5.89,0,0,1-.58.54.51.51,0,0,1-.18.09.4.4,0,0,1-.36-.08.36.36,0,0,1-.1-.36.67.67,0,0,1,.07-.18,1,1,0,0,1,.1-.17.57.57,0,0,0,.09-.55.46.46,0,0,0-.32-.22.45.45,0,0,1-.37-.4c0-.2,0-.4,0-.59a1.08,1.08,0,0,1,.18-.56c.15-.29.1-.36-.35-.42a1.51,1.51,0,0,1-.38-.09c-.16-.07-.17-.17-.05-.32s.11-.25,0-.32a.42.42,0,0,0-.38,0,3,3,0,0,0-.61.51.23.23,0,0,1-.35,0,.91.91,0,0,0-.17-.09l-.71.28c-.05,0-.12.06-.16.11s0,.22.14.27a1.28,1.28,0,0,1,.52.26.8.8,0,0,0,.36.17l0,0a.35.35,0,0,1-.17.32.47.47,0,0,1-.52,0l-.16-.1a.22.22,0,0,0-.33,0,1,1,0,0,0-.4.83c0,.19,0,.38,0,.57a1.78,1.78,0,0,0-.57,0l-.13.14s.08.12.14.14a.41.41,0,0,0,.36,0,.36.36,0,0,0,.17-.32c.39,0,.78,0,1.17,0,.23,0,.31.07.41.35a1.11,1.11,0,0,0,.18.34l.54.57a1,1,0,0,0,.68.31c.4,0,.42,0,.83.44a.84.84,0,0,1,.19.33c.12.37.13.38.36.25l.17-.1a.48.48,0,0,1,.54,0l.33.2a1.78,1.78,0,0,0,.45-.37.63.63,0,0,0,.16-.35l0,0a.43.43,0,0,1,.41.34.57.57,0,0,0,.18.34,1,1,0,0,0,.32-.21.83.83,0,0,0,.29-.7c0-.06,0-.13,0-.2.27,0,.35-.11.4-.4m13.17-1.16a.28.28,0,0,0-.16-.31l-.12.1a.31.31,0,0,0,.31.17A.89.89,0,0,0,151,33c.17.25.17.26,0,.5a1,1,0,0,0-.14.73.42.42,0,0,0,.35.4.71.71,0,0,0,.38,0l.19-.06c.18-.06.2-.16.06-.29-.23-.45-.23-.45,0-.88l.08-.17a.87.87,0,0,0-.23-.31.76.76,0,0,0-.69-.27h-.2m-9.95-.83a1.7,1.7,0,0,0,0,.39c0,.26.12.35.35.38a.3.3,0,0,0,.34-.14.69.69,0,0,0-.1-.17c-.16-.2-.32-.42-.61-.43a.68.68,0,0,1,.15-.36c.19-.25.19-.26,0-.49a2.53,2.53,0,0,1-.24-.53.35.35,0,0,0-.14-.13.53.53,0,0,0-.37,0c-.12,0-.23.14-.35.19a.22.22,0,0,1-.16,0,.77.77,0,0,0-.35-.12.7.7,0,0,0-.18.34.36.36,0,0,1-.44.29.35.35,0,0,1-.29-.21,1,1,0,0,1-.06-.18c-.1-.26-.22-.3-.4-.13a.7.7,0,0,0-.24.3.4.4,0,0,0,.12.34.9.9,0,0,1,.14.56.77.77,0,0,0,.08.37.4.4,0,0,0,.33.18.36.36,0,0,0,.17.32.38.38,0,0,0,.36,0,.47.47,0,0,0,.14-.14.31.31,0,0,0-.31-.18h-.39a.47.47,0,0,1,.36-.37,1.11,1.11,0,0,1,.19,0,1.13,1.13,0,0,0,.69-.24.57.57,0,0,1,.69,0,.91.91,0,0,0,.49.24M129.3,34.25c0,.06,0,.14,0,.19a1.6,1.6,0,0,0,.36.46.61.61,0,0,0,.54.1.31.31,0,0,0,.16-.32.36.36,0,0,0-.16-.33,5,5,0,0,1-.71-.32c-.13,0-.2.07-.21.22m14.46-3.58H144a.44.44,0,0,0,.35-.15.66.66,0,0,0-.2-.31,1.58,1.58,0,0,0-.15-.12.36.36,0,0,0-.17-.07c-.1,0-.36.27-.41.4s.11.26.39.25m-12.69,3.49a.55.55,0,0,0,.12-.14.42.42,0,0,0-.19-.46.4.4,0,0,0-.34,0,.18.18,0,0,0-.09.13c0,.14.37.49.5.46m1.09,7.91a.28.28,0,0,0,.28.17.37.37,0,0,0,.31-.16.32.32,0,0,0-.29-.17.3.3,0,0,0-.3.16m.43-.78c0,.05.08.11.14.14a.31.31,0,0,0,.19,0c.17,0,.22-.13.12-.23s-.1,0-.16-.06a.22.22,0,0,0-.29.16m20-5.64a.31.31,0,0,0-.35-.11c-.18.06-.19.17,0,.25a.34.34,0,0,0,.35,0s0-.08,0-.12m-2.88-.31s.09,0,.12-.05A.3.3,0,0,0,150,35c-.06-.15-.16-.18-.24-.1a.33.33,0,0,0-.07.33s.06.09.1.14M127,34.43a.58.58,0,0,0,0,.14.29.29,0,0,0,.32.07c.16-.06.18-.16.1-.25a.32.32,0,0,0-.33-.06s-.09.07-.14.1m25.45-3c.13,0,.22-.08.19-.18s-.15-.17-.29-.12-.2.09-.21.19a.23.23,0,0,0,.31.11m-21.69,9.84-.14-.09v.15Zm3.37-2.81.09.11c.16,0,.17-.12,0-.21l-.11.1m.5-1.09.08-.14h-.14Zm16.67-2.11.09.12c.15-.06.16-.13,0-.22l-.11.1m-13.05-.48-.09.13.14,0Zm2.28-1.12c.05.16.12.16.2,0l-.09-.11-.11.08m-.71-.66.12-.1c-.06-.17-.13-.18-.23,0l.11.12m10.28-1.34c.06.16.13.16.22,0a.52.52,0,0,1-.1-.11l-.12.09M147,31.58c-.15.06-.16.14,0,.23l.11-.11-.09-.12m-2.71.12-.13-.08,0,.15Zm1.09-.29.12-.1c-.06-.15-.14-.16-.23,0l.11.12m6-.61c-.16.05-.17.11,0,.2l.12-.09-.09-.11m-4.13.08c.06.18.14.18.23,0a.69.69,0,0,0-.11-.13l-.12.11m-1.19,0c.06.16.13.16.21,0l-.09-.11-.12.09m3.3-.27.11-.1c-.06-.15-.12-.16-.2,0l.09.11m2.28-.92.1.11c.16-.06.17-.12,0-.2l-.12.09m-10.37,0c.06.16.13.17.22,0l-.1-.12-.12.09m-9.77-1.16-.14-.08v.14ZM122.08,55a1.05,1.05,0,0,0,.31.89l.13.15a2.84,2.84,0,0,1,.42.66,1.32,1.32,0,0,0,.53.57.56.56,0,0,0,.18.07.22.22,0,0,0,.3-.14.59.59,0,0,0-.1-.17,5.79,5.79,0,0,1-.5-.61,3.42,3.42,0,0,0-.4-.66c-.19-.19-.36-.39-.54-.58a.57.57,0,0,0-.16-.11,1.33,1.33,0,0,0-.19-.05Zm9.33,8.14v.11l.13,0Zm-.68-.37-.14,0,0,.12Zm-4.25-3a.3.3,0,0,0,.16.31l.11-.1a.33.33,0,0,0-.3-.17Zm0,0a.44.44,0,0,0-.4-.4l0,0a.33.33,0,0,0,.11.29.34.34,0,0,0,.29.11Zm-.4-.4a.31.31,0,0,0-.19-.29l-.09.11a.29.29,0,0,0,.31.14Zm-4.36-4.82a.34.34,0,0,0,.11.29.33.33,0,0,0,.28.11l0,0a.44.44,0,0,0-.11-.29.3.3,0,0,0-.29-.1Zm0,0a.31.31,0,0,0-.16-.33l-.12.11a.27.27,0,0,0,.31.19Zm16-21.18a.75.75,0,0,1-.35-.13c-.27-.2-.38-.17-.62.1a1,1,0,0,0-.21.31.49.49,0,0,0,.21.48,2.21,2.21,0,0,0,.57.06c0-.28.12-.36.4-.4v-.42m-1.23-.83a.34.34,0,0,0,.3-.15.28.28,0,0,0-.27-.17.32.32,0,0,0-.3.15.26.26,0,0,0,.27.17m-4.78-1.57a1.57,1.57,0,0,0,.57,0l.12-.14a.35.35,0,0,0-.14-.13.41.41,0,0,0-.36,0,.34.34,0,0,0-.17.32ZM136,34.7a.26.26,0,0,0-.18-.31l-.11.11a.27.27,0,0,0,.31.17Zm-.19-.91.11-.1-.09-.11c-.16.06-.17.13,0,.21m-4.79-1.6.12-.1a.52.52,0,0,1-.1-.11c-.17.06-.17.13,0,.21" transform="translate(0 0)"/><path class="cls-3" d="M113.89,115.63l-.31.25a.56.56,0,0,1-.17.09c-.15,0-.22,0-.24-.21a1.41,1.41,0,0,0-.37-.69c-.17-.21-.17-.23-.06-.54s.12-.36-.15-.43a1.37,1.37,0,0,1-.66-.42,2.32,2.32,0,0,0-.44-.39l-.39-.08a.7.7,0,0,1-.37-.14,1.16,1.16,0,0,0-.37-.13,1.37,1.37,0,0,1-.68-.39c-.75-.75-1.53-1.47-2.22-2.28a1.22,1.22,0,0,1-.2-.35,1.68,1.68,0,0,0-.35-.7c-.13-.15-.26-.3-.38-.46a.42.42,0,0,1-.08-.18,2,2,0,0,0-.47-.86,1.9,1.9,0,0,1-.47-.87.77.77,0,0,0-.19-.34l-.38-.46a.84.84,0,0,1-.18-.35c-.06-.33-.26-.61-.34-.94a1.85,1.85,0,0,0-.35-.7.92.92,0,0,1-.17-.36c-.08-.39-.31-.73-.38-1.13a4.66,4.66,0,0,1-.27-.74c-.07-.33-.26-.61-.3-1a5,5,0,0,1-.24-.75,1.34,1.34,0,0,0-.14-.38c-.13-.3-.15-.64-.31-.94a6.83,6.83,0,0,1-.11-.79,1.17,1.17,0,0,0-.08-.38,3.58,3.58,0,0,1-.21-1,2,2,0,0,0-.14-.58,1.24,1.24,0,0,1-.09-.38c0-.4,0-.8-.07-1.2a1.82,1.82,0,0,0-.11-.38.85.85,0,0,1-.09-.38l-.06-1.6a2,2,0,0,0-.13-.58,1.47,1.47,0,0,1,0-1,2.63,2.63,0,0,0,.15-.78c0-.6,0-1.2,0-1.79a2.71,2.71,0,0,1,0-.4c.11-.65.11-.65,0-1a1.19,1.19,0,0,1,.08-1,.81.81,0,0,0,.12-.38l0-.59a1,1,0,0,1,.1-.39,1.19,1.19,0,0,0,.11-.38c0-.13,0-.26.05-.39a2.38,2.38,0,0,1,.17-.78,3.26,3.26,0,0,0,.12-.78,1.85,1.85,0,0,1,.15-.57,9.44,9.44,0,0,1,.32-.94,26.09,26.09,0,0,1,.55-1.7,3.84,3.84,0,0,1,.31-.94,7.43,7.43,0,0,1,.32-.94,1.67,1.67,0,0,1,.34-.71,1,1,0,0,0,.11-.17.56.56,0,0,0,.07-.18,2.11,2.11,0,0,1,.47-.87,1.64,1.64,0,0,0,.47-.85,1.05,1.05,0,0,1,.2-.34,1.69,1.69,0,0,0,.35-.71.78.78,0,0,1,.18-.35l.37-.46a1.39,1.39,0,0,0,.28-.52,1.32,1.32,0,0,1,.28-.52l.65-.76a1.06,1.06,0,0,0,.18-.35,1.14,1.14,0,0,1,.39-.68L109.53,68a1.48,1.48,0,0,0,.27-.53,1.45,1.45,0,0,1,.31-.5l2.2-2.31c.13-.13.13-.13.28-.51a1.63,1.63,0,0,1,.3-.51c1-1,2-2,3-3a.46.46,0,0,1,.69.07l.14.14.43.42c1.38,1.44,2.8,2.84,4.19,4.26a1.47,1.47,0,0,1,.32.5,1.13,1.13,0,0,0,.27.52l.14.15,7,7.11.14.14a1.28,1.28,0,0,1,.41.67.9.9,0,0,0,.18.35l.41.43c1.78,1.8,3.54,3.6,5.33,5.38,1.42,1.41,2.82,2.82,4.21,4.25L141,86.35a1.85,1.85,0,0,1,.5.84c.05.15.2.25.45.35s.24.09.36.42a1,1,0,0,0,.08.18,1.18,1.18,0,0,0,.6.5,1.86,1.86,0,0,1,.83.52,6.75,6.75,0,0,1,.82.87.47.47,0,0,1,0,.37.42.42,0,0,1-.1.17,1.89,1.89,0,0,1-.25.31c-3.15,3.05-6.25,6.16-9.36,9.24l-1,1a1.22,1.22,0,0,1-.52.29,1.26,1.26,0,0,0-.5.3l-3.57,3.48L127.5,107a1.31,1.31,0,0,1-.5.31,1.46,1.46,0,0,0-.52.28c-1.44,1.38-2.85,2.79-4.25,4.2-1.79,1.79-3.58,3.57-5.39,5.33a1.42,1.42,0,0,1-.68.39.9.9,0,0,0-.35.18c-.2.17-.4.35-.62.51s-.25,0-.3-.1a1.6,1.6,0,0,0-.12-.37.66.66,0,0,1,0-.74,1,1,0,0,0,.06-.77.49.49,0,0,0-.39-.39c-.13,0-.26,0-.39-.09a1.51,1.51,0,0,1-.18-.09.28.28,0,0,0,.09-.34h-.15a.3.3,0,0,0,.1.34M136.43,89.1a.28.28,0,0,0,.1-.35h-.16a.29.29,0,0,0,.1.35.29.29,0,0,0-.1.35h.16a.3.3,0,0,0-.1-.35m-9.86-6.51.14.13a.82.82,0,0,0,.47.28l.38,0c.17,0,.25-.08.21-.21a.52.52,0,0,0-.22-.29l-.55-.1a1.4,1.4,0,0,1-.17-.09,1.85,1.85,0,0,0,.14-.14,1.08,1.08,0,0,0,.29-.51,1,1,0,0,1,.36-.69c.19-.19.38-.37.56-.57a.92.92,0,0,0,.22-.73,1,1,0,0,0-.11-.38,1,1,0,0,0-.12-.16,1.68,1.68,0,0,1-.35-.7c0-.16-.13-.22-.29-.13a5.78,5.78,0,0,0-.58.53c-.16.15-.16.16-.53.24a1,1,0,0,0-.65.41c-.16.2-.17.26,0,.54a.73.73,0,0,1,.08.38,1,1,0,0,1-.38.08,4.29,4.29,0,0,1-.8,0,.53.53,0,0,1-.18,0,.42.42,0,0,1-.2-.32.35.35,0,0,1,.18-.32.53.53,0,0,1,.17-.08.71.71,0,0,1,.2,0,.65.65,0,0,0,.46-.33.56.56,0,0,0-.08-.38.45.45,0,0,1,0-.55c.13-.15.26-.3.4-.44a.9.9,0,0,1,.52-.27c.31-.1.32-.19,0-.55a1.61,1.61,0,0,1-.2-.33c-.06-.16,0-.24.18-.26s.26-.1.22-.25a.44.44,0,0,0-.27-.26,2.55,2.55,0,0,0-.78-.07c-.17,0-.26-.07-.27-.23a.7.7,0,0,0-.06-.19l-.7-.3a.63.63,0,0,0-.19,0c-.12,0-.17.13-.09.28a1.38,1.38,0,0,1,.19.56.69.69,0,0,0,.13.36v0a.33.33,0,0,1-.34.11.46.46,0,0,1-.34-.4c0-.06,0-.12,0-.18s-.1-.2-.26-.21a1,1,0,0,0-.86.31c-.14.13-.27.27-.41.41a1.39,1.39,0,0,0-.43-.37h-.19a.6.6,0,0,0,0,.19.42.42,0,0,0,.28.24.38.38,0,0,0,.35-.11c.25.3.54.56.79.86s.17.27.05.54a.94.94,0,0,0-.11.37l0,.78a1,1,0,0,0,.27.7c.26.3.28.31.27.89a.88.88,0,0,1-.1.37c-.18.36-.18.36.07.43l.19.05a.48.48,0,0,1,.4.37l.09.38a1.63,1.63,0,0,0,.58,0,.52.52,0,0,0,.36-.13h0a.41.41,0,0,1,0,.53.65.65,0,0,0-.1.36,1,1,0,0,0,1.07-.21.86.86,0,0,0,.13-.14c.22.17.33.16.57,0m10.14,8.49a.29.29,0,0,0,.1-.34h-.15a.33.33,0,0,0,.09.35.72.72,0,0,0-.14.35c-.06.29-.07.3-.35.36a.94.94,0,0,0-.62.42.44.44,0,0,0,0,.53.64.64,0,0,0,.26.28,1.29,1.29,0,0,0,.16.09c.17.09.26,0,.26-.16.15-.48.15-.48.62-.62l.18-.06a.82.82,0,0,0,.06-.38.75.75,0,0,0-.3-.68.86.86,0,0,0-.14-.13m-6.45-7.62a1.2,1.2,0,0,0-.28.27.36.36,0,0,0,0,.52.29.29,0,0,0,.34.13.59.59,0,0,0,0-.19.89.89,0,0,0-.13-.74.76.76,0,0,1,.36-.14c.31,0,.32,0,.37-.32a2.58,2.58,0,0,1,.2-.55.31.31,0,0,0,0-.19.57.57,0,0,0-.24-.29c-.12-.06-.25-.06-.38-.11a.28.28,0,0,1-.11-.13,1,1,0,0,0-.15-.33.81.81,0,0,0-.37.12.35.35,0,0,1-.51-.11.32.32,0,0,1-.07-.35,1.4,1.4,0,0,1,.09-.17c.11-.25.05-.36-.19-.38a.73.73,0,0,0-.39,0c-.1,0-.13.18-.15.32a.93.93,0,0,1-.3.49.75.75,0,0,0-.2.33.36.36,0,0,0,.1.35.35.35,0,0,0-.1.35.39.39,0,0,0,.23.28.67.67,0,0,0,.2,0,.33.33,0,0,0-.09-.35,3.7,3.7,0,0,1-.28-.28.49.49,0,0,1,.52,0,.88.88,0,0,1,.15.12,1.09,1.09,0,0,0,.66.32.55.55,0,0,1,.5.47,1,1,0,0,0,.19.52M120.42,77s-.11.09-.13.15a1.81,1.81,0,0,0-.06.57.62.62,0,0,0,.3.46.31.31,0,0,0,.35-.11.38.38,0,0,0,.12-.35,4.48,4.48,0,0,1-.28-.72q-.12-.15-.3,0m12.75,7.69.14.14a.45.45,0,0,0,.35.14.64.64,0,0,0,.08-.36.68.68,0,0,0,0-.2.33.33,0,0,0-.07-.16.85.85,0,0,0-.57,0c-.15.08-.11.27.09.45m-11.44-6.5a.52.52,0,0,0,.18,0,.41.41,0,0,0,.2-.46.41.41,0,0,0-.25-.23.25.25,0,0,0-.15,0,.8.8,0,0,0,0,.69m-4.81,6.36a.27.27,0,0,0,.07.32.35.35,0,0,0,.33.1.31.31,0,0,0-.08-.32.28.28,0,0,0-.32-.1m.85-.25a.67.67,0,0,0,0,.2.3.3,0,0,0,.14.13c.15.09.25.06.25-.07a.36.36,0,0,0-.07-.17.24.24,0,0,0-.32-.09m18.16,10.19a.3.3,0,0,0-.16-.32c-.18-.08-.27,0-.22.15a.35.35,0,0,0,.27.23s.08,0,.11-.06m-1.81-2.26s.08.06.12.06a.29.29,0,0,0,.28-.17c.07-.14,0-.24-.1-.23a.31.31,0,0,0-.27.17.51.51,0,0,0,0,.17M118.66,75.47a.43.43,0,0,0,0,.13.29.29,0,0,0,.17.29c.15.06.24,0,.24-.11a.3.3,0,0,0-.18-.28.52.52,0,0,0-.18,0m20.11,15.88c.11.09.22.1.27,0s0-.22-.12-.29-.21-.08-.28,0a.22.22,0,0,0,.13.29M116.48,83l0-.16-.12.1Zm4.37.39s0,.1,0,.15.2,0,.16-.13l-.15,0M122,83l.16,0L122,82.8Zm13.28,10.29,0,.15c.15.07.21,0,.17-.14h-.15m-8.89-9.56-.15,0,.09.11Zm2.4.82c-.06.15,0,.2.14.16v-.14l-.14,0m0-1,.16,0c.08-.17,0-.22-.14-.18l0,.16M137,89.85c-.07.15,0,.21.14.17v-.15l-.15,0m-2.11-2.23c-.15-.07-.2,0-.17.14h.15a.77.77,0,0,0,0-.15m-2-1.83,0-.15-.12.09Zm1,.56.15,0c.07-.15,0-.21-.14-.18v.16m4.69,3.82c-.15-.07-.2,0-.16.13l.14,0,0-.15m-3-2.86q-.12.25.15.18s0-.11,0-.17h-.17m-.84-.84c-.07.16,0,.21.14.17a.76.76,0,0,1,0-.15l-.15,0m2.53,2.14h.14c.07-.15,0-.2-.13-.15a.71.71,0,0,0,0,.14m2.26,1a.61.61,0,0,1,0,.14c.15.08.2,0,.16-.12l-.15,0m-7.33-7.35q-.1.24.15.18v-.16l-.16,0m-6.08-7.73,0-.15-.11.09ZM100.62,86.56a1,1,0,0,0-.41.85c0,.07,0,.13,0,.2a2.88,2.88,0,0,1-.17.76,1.48,1.48,0,0,0,0,.78.89.89,0,0,0,.08.17.21.21,0,0,0,.31.11,1.27,1.27,0,0,0,.06-.18,5.27,5.27,0,0,1,.07-.79,3.26,3.26,0,0,0,.19-.76c0-.26,0-.52,0-.78a.4.4,0,0,0,0-.19.75.75,0,0,0-.1-.17Zm.85,12.35-.09.07.12.07Zm-.23-.74-.08-.12,0,.12Zm-.89-5.12a.28.28,0,0,0-.1.33h.15a.34.34,0,0,0-.1-.34Zm0,0a.43.43,0,0,0,0-.56h0a.34.34,0,0,0-.13.28.43.43,0,0,0,.13.28Zm0-.56a.31.31,0,0,0,.07-.34h-.14a.31.31,0,0,0,.12.33Zm.33-6.49a.35.35,0,0,0-.13.28.32.32,0,0,0,.12.28h0a.45.45,0,0,0,.13-.28.33.33,0,0,0-.13-.28Zm0,0a.3.3,0,0,0,.11-.35h-.16a.28.28,0,0,0,.09.36Zm26.28-3.67a.62.62,0,0,1-.15-.34c-.06-.33-.16-.39-.52-.37a.86.86,0,0,0-.36.08.44.44,0,0,0-.19.48,3,3,0,0,0,.35.45c.24-.17.35-.17.57,0l.3-.3m-.28-1.45a.34.34,0,0,0,.31.1.26.26,0,0,0-.07-.31.32.32,0,0,0-.32-.1.29.29,0,0,0,.08.31m-2.28-4.5a1.92,1.92,0,0,0,.43.38l.19,0a.36.36,0,0,0-.28-.43.38.38,0,0,0-.34.1Zm.55,5.67a.29.29,0,0,0,.1-.35h-.17a.28.28,0,0,0,.1.34Zm.51-.78h.15a.61.61,0,0,1,0-.14c-.15-.08-.21,0-.16.13m-2.26-4.52.15,0v-.15c-.15-.08-.21,0-.16.13" transform="translate(0 0)"/><path class="cls-7" d="M41.63,26.45h9c.18,0,.19,0,.56-.16a1.62,1.62,0,0,1,.78-.14.72.72,0,0,1,.38.1.5.5,0,0,0,.54,0,.86.86,0,0,1,.39-.09c1.46,0,2.92-.09,4.38-.08l1,0a1.4,1.4,0,0,0,.56-.17,1.41,1.41,0,0,1,.57-.14l1.4,0,2.59-.05a1.27,1.27,0,0,0,.57-.15,1.22,1.22,0,0,1,.57-.16l4-.06a2.63,2.63,0,0,1,.39.06.52.52,0,0,1,.22.31,6.63,6.63,0,0,1,.08,1c0,.46,0,.93,0,1.39a1.69,1.69,0,0,0,.23.95.69.69,0,0,1,0,.58,1.62,1.62,0,0,0-.22.75c0,1.06,0,2.12-.08,3.18a1.34,1.34,0,0,1-.15.57,1.3,1.3,0,0,0-.17.57l-.06,1.59a1.24,1.24,0,0,1-.15.57,1.59,1.59,0,0,0-.22.76c0,.26,0,.53,0,.79a1.21,1.21,0,0,1-.19.56,1.26,1.26,0,0,0-.13.37,11.9,11.9,0,0,0-.06,1.79.89.89,0,0,1-.19.55,3.88,3.88,0,0,1-.26.31,1.1,1.1,0,0,0-.31.71c0,.13,0,.26,0,.4a1,1,0,0,1-.08.38c-.2.35-.3.74-.51,1.08a.85.85,0,0,0-.14.36,2.36,2.36,0,0,1-.33.93c-.14.23-.2.49-.35.71a9.17,9.17,0,0,1-.46.88,4.79,4.79,0,0,1-.35.72c-.16.21-.2.49-.35.71a2.61,2.61,0,0,0-.26.53c-.1.25-.29.45-.37.71a1,1,0,0,1-.19.35,3.45,3.45,0,0,0-.66,1,.45.45,0,0,1-.11.17l-.78.9a1.08,1.08,0,0,0-.21.34,1.17,1.17,0,0,1-.2.34l-.94,1a3.35,3.35,0,0,0-.54.82,1.54,1.54,0,0,1-.25.32l-1,1a2.2,2.2,0,0,1-.8.58,3.65,3.65,0,0,0-.31.24c-.38.37-.76.74-1.13,1.12s-.76.75-1.16,1.1a1.63,1.63,0,0,1-.51.3,1.48,1.48,0,0,0-.34.21l-.74.67a2.67,2.67,0,0,1-.32.24,2.48,2.48,0,0,0-.83.52,2.08,2.08,0,0,1-.51.32c-.31.11-.56.35-.88.45l-.33.21a3.5,3.5,0,0,1-.64.47c-.25.11-.47.25-.71.37s-.48.22-.71.35-.61.27-.88.46a6.82,6.82,0,0,0-.72.35c-.29.15-.6.25-.89.42a.86.86,0,0,1-.38.1,1.94,1.94,0,0,0-.74.27.89.89,0,0,1-.38.12,1.68,1.68,0,0,0-.75.26.82.82,0,0,1-.37.13,2.32,2.32,0,0,0-.94.31.93.93,0,0,1-.38.1l-.79,0a2.71,2.71,0,0,0-.4,0,2.31,2.31,0,0,0-.35.18.85.85,0,0,1-.38.12l-.59.06a.8.8,0,0,0-.38.1,1.78,1.78,0,0,1-.95.27,2,2,0,0,0-1,.25.42.42,0,0,1-.18.08l-.39,0-2.2.07a1.67,1.67,0,0,0-.39,0,2.37,2.37,0,0,0-.36.17,1,1,0,0,1-.38.11c-1.13,0-2.26.08-3.39.08h-.79a1.23,1.23,0,0,0-.57.17c-.15.09-.25.08-.32-.06a.7.7,0,0,1-.06-.19c-.06-.53,0-1.06,0-1.59,0-.2,0-.4,0-.6a1.26,1.26,0,0,0-.17-.56,1.26,1.26,0,0,1-.14-.57c0-.14,0-.27,0-.4,0-3.06-.05-6.11-.06-9.17,0-1.46,0-2.92,0-4.38a1.34,1.34,0,0,0-.14-.58,1.09,1.09,0,0,1-.18-.56c0-.26,0-.53,0-.8,0-2.06,0-4.11,0-6.17,0-.67,0-1.33,0-2a1.17,1.17,0,0,0-.19-.55,1.31,1.31,0,0,1-.15-.57c0-.93-.05-1.86,0-2.79,0-1.2,0-2.39,0-3.59a1.27,1.27,0,0,0-.06-.39c-.15-.43-.16-.43,0-.73a.82.82,0,0,0,.09-.38c0-.53,0-1.06,0-1.59a1.75,1.75,0,0,0,0-.4,2.31,2.31,0,0,0-.18-.35.64.64,0,0,1-.08-.19,3.56,3.56,0,0,1,0-1.38A.49.49,0,0,1,28,27a5.42,5.42,0,0,1,.8-.08h2.59a1.67,1.67,0,0,0,.39,0,2,2,0,0,0,.36-.17,1.45,1.45,0,0,1,.58-.14h.19c1.4,0,2.79,0,4.19-.05h2.39l2.19,0Zm8.75,33.16a1.4,1.4,0,0,0-.06-.58c-.06-.15-.17-.16-.3,0l-.56.54c-.11.11-.15.23-.08.32a.3.3,0,0,0,.35.08c.24-.09.4-.32.67-.36a.29.29,0,0,0,.18.31l.11-.11a.27.27,0,0,0-.31-.17m1.19-.8a1,1,0,0,1,.25-.5.52.52,0,0,0,0-.69,1.32,1.32,0,0,0-.28-.25c-.13-.09-.23-.06-.27.11a2,2,0,0,0,0,1,.41.41,0,0,0,.38.35.3.3,0,0,0,.17.31l.11-.1a.29.29,0,0,0-.31-.18M32.85,61.19a2.58,2.58,0,0,0,.39,0,.28.28,0,0,0,.25-.2c-.05,0-.09-.1-.14-.12a1.42,1.42,0,0,1-.36-.14l-.33-.2c-.07,0-.26.12-.42.34,0,.05-.06.11-.1.17a.54.54,0,0,0,.33.18,1.21,1.21,0,0,0,.38,0m2.58-.14.16-.14a.49.49,0,0,0-.12-.36.37.37,0,0,0-.35-.12.76.76,0,0,0-.16.11.54.54,0,0,0,.16.32.65.65,0,0,0,.31.19m17.36-3.74a2.1,2.1,0,0,0,0,.36c0,.15.15.2.23.14a.2.2,0,0,0,.1-.14c0-.12,0-.25,0-.37A.28.28,0,0,0,53,57c-.12-.08-.25.1-.25.33m-4.14,2.14a.29.29,0,0,0,0-.14.28.28,0,0,0-.32-.08c-.15.06-.18.17-.1.25a.29.29,0,0,0,.33.07c.06,0,.1-.07.14-.1M31,65.49c.16-.06.17-.13,0-.22l-.13.1.11.12m1.92-6.11.13.08,0-.14Zm12-.39.12.09,0-.15Zm1.28.5.09-.13-.14,0Zm4.39-1.19c.16-.06.17-.13,0-.22l-.12.11.1.11m2.11-2.49-.09-.12c-.16.06-.16.13,0,.22l.11-.1m.4-1.2L53,54.49c-.17.06-.18.14,0,.23l.11-.11" transform="translate(0 0)"/><path class="cls-4" d="M101,46.54l3.66,3.66,2.69,2.67c.13.13.13.14.51.29a1.56,1.56,0,0,1,.65.45.83.83,0,0,1,.2.34.49.49,0,0,0,.39.38.7.7,0,0,1,.33.2c1.07,1,2.13,2,3.16,3l.72.7a1.23,1.23,0,0,0,.52.27,1.45,1.45,0,0,1,.5.31c.33.33.67.64,1,1,.62.6,1.24,1.2,1.87,1.79a1.22,1.22,0,0,0,.5.3,1.22,1.22,0,0,1,.52.29L121.11,65a3.81,3.81,0,0,1,.24.32.55.55,0,0,1-.08.38,6.6,6.6,0,0,1-.64.76l-1,1a1.71,1.71,0,0,0-.51.83.68.68,0,0,1-.41.4A1.6,1.6,0,0,0,118,69c-.75.76-1.53,1.47-2.31,2.2a1.3,1.3,0,0,1-.51.29,1.25,1.25,0,0,0-.52.28l-1.17,1.08a1.15,1.15,0,0,1-.51.3,1.58,1.58,0,0,0-.68.38c-.2.18-.41.35-.6.53a1.32,1.32,0,0,1-.53.26,1.19,1.19,0,0,0-.36.17,11.61,11.61,0,0,0-1.3,1.23A.94.94,0,0,1,109,76c-.13,0-.26,0-.4,0a1.2,1.2,0,0,0-.72.28l-.31.26a.89.89,0,0,1-.33.21c-.38.1-.73.31-1.12.4a1.07,1.07,0,0,0-.36.16,2.3,2.3,0,0,1-.89.43c-.25.06-.49.2-.75.25a9.56,9.56,0,0,1-1,.3,3.89,3.89,0,0,1-.75.25c-.26.05-.49.21-.75.26a2.2,2.2,0,0,0-.56.2c-.25.1-.52.11-.76.23a.87.87,0,0,1-.38.11,3.34,3.34,0,0,0-1.16.24l-.2,0-1.19.07a1.4,1.4,0,0,0-.39.1,1.18,1.18,0,0,1-.38.1L95.28,80a3.21,3.21,0,0,0-1,.19,1.31,1.31,0,0,1-.39,0l-1.4,0a2.16,2.16,0,0,1-1-.16l-.4,0c-.53,0-1.06,0-1.59,0S88.5,80,88,80a1.7,1.7,0,0,1-.58-.14,1.3,1.3,0,0,0-.39-.09l-1,0-.39-.06a2.54,2.54,0,0,0-1-.22,1.7,1.7,0,0,1-.58-.14c-.3-.13-.65-.14-.94-.3l-.39-.08a3.34,3.34,0,0,1-.78-.12c-.25-.11-.51-.16-.76-.25s-.5-.18-.75-.25-.62-.23-1-.3-.49-.18-.75-.26-.61-.25-.93-.33a.88.88,0,0,1-.35-.2,1.78,1.78,0,0,0-.71-.33,1.06,1.06,0,0,1-.35-.18,1.69,1.69,0,0,0-.71-.35.85.85,0,0,1-.36-.17,2.58,2.58,0,0,0-.87-.45.77.77,0,0,1-.34-.19l-.6-.53a1.3,1.3,0,0,0-.69-.37,1.06,1.06,0,0,1-.35-.18L72,74a.85.85,0,0,0-.34-.2,1.82,1.82,0,0,1-.86-.47,1.94,1.94,0,0,0-.85-.5.37.37,0,0,1-.18-.08,1.89,1.89,0,0,1-.31-.25L67.89,71a1.48,1.48,0,0,0-.31-.25,2,2,0,0,0-.37-.14.81.81,0,0,1-.34-.19q-1.26-1.14-2.46-2.34l-.57-.55a1.12,1.12,0,0,0-.51-.28c-.18,0-.25-.12-.19-.28a.56.56,0,0,1,.09-.17c.33-.41.73-.77,1.09-1.15l.42-.43a1.15,1.15,0,0,0,.28-.52,1.24,1.24,0,0,1,.31-.5l.27-.29q3.23-3.27,6.44-6.53l3.09-3.11a1.18,1.18,0,0,0,.31-.5,1.09,1.09,0,0,1,.27-.52c.19-.19.37-.39.56-.57,1.44-1.47,2.89-2.93,4.34-4.4.46-.47.91-1,1.38-1.44a1.32,1.32,0,0,0,.26-.53,1.22,1.22,0,0,1,.3-.5c.64-.68,1.28-1.35,2-2,.85-.83,1.7-1.68,2.51-2.55a1.5,1.5,0,0,0,.23-.33c.2-.4.2-.41.5-.52a.92.92,0,0,0,.34-.21l1.14-1.11a2.42,2.42,0,0,0,.25-.31c.06-.12.08-.25.13-.38a.56.56,0,0,1,.07-.18,3.66,3.66,0,0,1,1-1,.43.43,0,0,1,.37,0,4.31,4.31,0,0,1,.62.51l1.84,1.82a1.26,1.26,0,0,0,.68.39,1.45,1.45,0,0,1,.5.31.93.93,0,0,1,.14.14c1,1,2,2,3,2.92L99.47,45,101,46.54h0M83.76,76.17a1.33,1.33,0,0,0,.37-.45c.06-.15,0-.23-.2-.24h-.77c-.16,0-.28.06-.29.17a.32.32,0,0,0,.19.31c.24.1.52,0,.74.22a.27.27,0,0,0-.1.34h.16a.28.28,0,0,0-.1-.34m1.41.28a.9.9,0,0,1,.53-.17.54.54,0,0,0,.46-.52,1.51,1.51,0,0,0,0-.37c0-.15-.12-.2-.27-.12a2,2,0,0,0-.68.66.41.41,0,0,0,0,.52.3.3,0,0,0-.1.34h.15a.3.3,0,0,0-.09-.34M70.25,64.9c.1.08.19.17.29.24a.28.28,0,0,0,.32,0c0-.06,0-.14,0-.19a1.54,1.54,0,0,1-.15-.35l-.09-.37c0-.08-.27-.11-.54-.06l-.19.05a.53.53,0,0,0,.1.35,1.24,1.24,0,0,0,.27.29m1.92,1.72h.21a.54.54,0,0,0,.18-.34.34.34,0,0,0-.17-.32s-.13,0-.19,0a.45.45,0,0,0-.11.34.63.63,0,0,0,.08.35m14.92,9.63a1.61,1.61,0,0,0-.24.28c-.07.14,0,.25.07.26a.24.24,0,0,0,.17,0c.1-.07.18-.17.28-.24a.31.31,0,0,0,.13-.33c0-.13-.24-.1-.41.06m-4.44-1.41s.06-.09.06-.13a.27.27,0,0,0-.17-.29c-.15-.07-.24,0-.24.11a.29.29,0,0,0,.18.28.47.47,0,0,0,.17,0m-16.74-8.2c.16.07.21,0,.16-.14l-.15,0v.16m5.68-3,0,.15.12-.09Zm8.74,8.19,0,.15.11-.09Zm.56,1.25.14,0L81,73Zm3.93,2.27c.16.07.22,0,.17-.14l-.16,0c0,.06,0,.11,0,.16m3.26-.27c0-.05,0-.1,0-.15-.15-.07-.21,0-.17.14h.15m1.13-.56,0-.16q-.24-.11-.18.15h.16" transform="translate(0 0)"/><path class="cls-3" d="M64.45,152.86H59.27a1.1,1.1,0,0,0-.57.16,1.32,1.32,0,0,1-.56.18l-.79,0-4.19.05a.6.6,0,0,0-.37.11l-.18.08a.76.76,0,0,1-.39.1c-.66,0-1.32,0-2,0l-6.18.07a1.26,1.26,0,0,0-.56.17,1.26,1.26,0,0,1-.57.14l-1.79.05a1.82,1.82,0,0,0-1,.26,1.64,1.64,0,0,1-.38.1c-.53,0-1.06,0-1.59,0l-4.59,0c-.93,0-1.86,0-2.79.06a.94.94,0,0,0-.53.23c-.11.08-.2.17-.31.26s-.39.18-.67-.08c-.1-.1-.18-.2-.28-.29a1.1,1.1,0,0,1-.31-.72c0-.33,0-.66,0-1,0-1.13,0-2.26,0-3.39a1.27,1.27,0,0,0-.15-.57,1.35,1.35,0,0,1-.17-.56c-.05-1.27,0-2.53-.05-3.79,0-3.72,0-7.44,0-11.16s0-7.57,0-11.36a1.68,1.68,0,0,0-.19-.76.89.89,0,0,1-.12-.38l0-.79-.06-3.39a1.23,1.23,0,0,0-.17-.57,1.78,1.78,0,0,1-.15-.57c0-1.09,0-2.56,0-3.38a.39.39,0,0,1,.37-.39l.39,0c1.73,0,3.46,0,5.19,0a1.43,1.43,0,0,1,.94.24.56.56,0,0,0,.18.07c.53.07,1.06,0,1.59.09a1.27,1.27,0,0,1,.38.11,1.65,1.65,0,0,0,.75.23l.79,0a1.26,1.26,0,0,1,.57.17,1.12,1.12,0,0,0,.56.16l.8.06a1.42,1.42,0,0,1,.57.15,1.38,1.38,0,0,0,.56.19l.79.06a1.39,1.39,0,0,1,.75.23.86.86,0,0,0,.38.13,1.75,1.75,0,0,1,.76.22,1.34,1.34,0,0,0,.55.19,1.4,1.4,0,0,1,.57.17,1.67,1.67,0,0,0,.74.25,1,1,0,0,1,.38.11,2,2,0,0,0,.74.28,1.19,1.19,0,0,1,.38.11c.29.16.61.26.89.44s.73.31,1.06.54a5,5,0,0,1,.89.45,4.63,4.63,0,0,1,.71.34,9.25,9.25,0,0,1,.88.47,1.94,1.94,0,0,1,.85.5l.15.12.17.11.18.08c.32.1.56.35.88.46a1,1,0,0,1,.33.21l.91.78a1.14,1.14,0,0,0,.34.19,1.94,1.94,0,0,1,.34.21c.16.12.3.26.45.39a4.69,4.69,0,0,0,1,.68.46.46,0,0,1,.16.11l1.41,1.41c.6.62,1.2,1.25,1.82,1.84a1.42,1.42,0,0,1,.35.49,1.17,1.17,0,0,0,.2.34l.81.87a2.52,2.52,0,0,1,.68,1,.61.61,0,0,0,.12.16l.39.45a2.72,2.72,0,0,1,.67,1,5.91,5.91,0,0,0,.49.63,1.19,1.19,0,0,1,.22.33,2.2,2.2,0,0,0,.3.51,4.21,4.21,0,0,1,.47.64c.1.32.34.57.45.88A1,1,0,0,0,66,132c.13.15.26.3.38.46a1.15,1.15,0,0,1,.21.33c.09.25.26.46.36.71a4.74,4.74,0,0,0,.34.72.81.81,0,0,1,.12.37,1.6,1.6,0,0,0,.26.74,1.5,1.5,0,0,1,.17.57.8.8,0,0,0,.1.38c.19.28.27.61.44.89a1.56,1.56,0,0,1,.25.75,1.21,1.21,0,0,0,.19.55A1.15,1.15,0,0,1,69,139c0,.33,0,.66,0,1a1.77,1.77,0,0,0,.26.95.45.45,0,0,1,.07.18c0,.2.05.4.07.6a1.51,1.51,0,0,0,.21.75,1,1,0,0,1,.15.57c0,.67,0,1.33,0,2,0,.4,0,.8,0,1.2a1.08,1.08,0,0,0,.16.56,1.46,1.46,0,0,1,.15.57c0,.8,0,1.6,0,2.4v2.39a1.23,1.23,0,0,1,0,.19.39.39,0,0,1-.35.4c-.2,0-.4,0-.6,0-1.06,0-2.12,0-3.19,0l-1.59,0ZM48.3,119.32a1.72,1.72,0,0,0,0-.39.43.43,0,0,0-.37-.38,2.58,2.58,0,0,0-.39,0,.64.64,0,0,1-.36-.15c-.27-.21-.34-.18-.63.11s-.39.37-.63.23a.65.65,0,0,0-.73,0c-.24.16-.32.15-.5,0l-.44-.39a3.22,3.22,0,0,0-.53-.25.69.69,0,0,1-.21-.32c-.12-.31-.15-.34-.4-.36h-.39a.3.3,0,0,0-.16-.31l-.12.1a.33.33,0,0,0,.31.18.6.6,0,0,1-.14.36c-.08.1-.15.21-.23.32a.76.76,0,0,0,.16.55,1.48,1.48,0,0,1,.19.35c.12.33.22.4.57.42l.59,0a.79.79,0,0,1,.52.26l.29.28c.15.15.15.15.5,0a.27.27,0,0,1,.34.06.71.71,0,0,1,.23.32c0,.11-.07.21-.22.23l-.79,0a.36.36,0,0,0-.3.2l.13.14a2.17,2.17,0,0,1,.53.26.74.74,0,0,0,.55.19,1.26,1.26,0,0,1,.39,0,1.32,1.32,0,0,1,.34.2.25.25,0,0,0,.35,0,.22.22,0,0,1,.35,0c.27.13.3.12.42-.17s.14-.35.39-.22.41.19.55.13.23-.3.31-.48a1.66,1.66,0,0,1,.22-.32c.14-.16.14-.37.23-.55a.37.37,0,0,1,.31-.2.29.29,0,0,0,.18.32l.11-.12a.28.28,0,0,0-.32-.17.65.65,0,0,0-.25-.46c-.25-.27-.3-.28-.61-.09a.58.58,0,0,1-.33.12ZM43.68,122l.07-.13h-.14Zm1.51.29.14.08v-.14Zm.81,2,.12.09,0-.15Zm1.79,0-.13-.08,0,.14Zm.28-.7.09-.14-.14,0Zm.81-1.42-.11.1c.06.17.13.18.22,0l-.11-.12m1.49,3.3.13.09,0-.15Zm1.72.31-.09.14h.15Zm1.49-1.9.13.08v-.14Zm7.49-.61a1.33,1.33,0,0,0,0,.4.48.48,0,0,0,.36.4l0,0a1.76,1.76,0,0,0,0-.4.47.47,0,0,0-.37-.4Zm-1.63-1.56a.32.32,0,0,0-.15-.29l-.11.09a.34.34,0,0,0,.29.17Zm.4.4a.31.31,0,0,0-.11-.29.34.34,0,0,0-.29-.11l0,0c.05.28.13.36.4.4Zm0,0c.05.29.12.36.4.4l0,0a.36.36,0,0,0-.11-.3.3.3,0,0,0-.29-.1Zm.4.4a.34.34,0,0,0,.11.29.3.3,0,0,0,.29.1l0,0a.38.38,0,0,0-.12-.29.31.31,0,0,0-.28-.11Zm.77.83a.45.45,0,0,0-.4-.4l0,0c0,.29.12.37.4.4Zm.42.76a.41.41,0,0,0,.19.3.44.44,0,0,1,.08-.11.26.26,0,0,0-.3-.15ZM46,119.51l.1.11.11-.09c-.06-.16-.12-.17-.21,0m2.32-.19a.27.27,0,0,0-.3.18l.11.1a.31.31,0,0,0,.16-.31Z" transform="translate(0 0)"/><path class="cls-8" d="M66.36,115l-3.66-3.66a1.18,1.18,0,0,0-.52-.29,1.34,1.34,0,0,1-.52-.26l-.58-.55-3-2.93a.75.75,0,0,0-.35-.19,1.27,1.27,0,0,1-.18-.06,1,1,0,0,1-.34-.2l-1.44-1.39-4.41-4.32a1.2,1.2,0,0,0-.52-.28,1.22,1.22,0,0,1-.5-.3l-1.3-1.24a1.81,1.81,0,0,0-.85-.48,1.08,1.08,0,0,1-.34-.21,14.94,14.94,0,0,1-1.15-1.1l-3.23-3.25c-.66-.66-1.33-1.31-2-1.93a.9.9,0,0,0-.54-.22c-.13,0-.26,0-.4,0-.32,0-.41-.15-.42-.54,0-.13,0-.26,0-.39a1.1,1.1,0,0,1,.29-.73c.22-.25.45-.48.69-.72.81-.78,1.6-1.59,2.39-2.4a1.07,1.07,0,0,0,.3-.5,1.32,1.32,0,0,1,.28-.52c.86-.93,1.76-1.82,2.64-2.72,2.6-2.66,5.24-5.27,7.9-7.88s5.37-5.34,8-8.06A1.52,1.52,0,0,0,63,67a.88.88,0,0,1,.19-.34l.54-.59,2.35-2.44c.13-.14.13-.14.28-.51a1.68,1.68,0,0,1,.3-.52c.76-.78,1.8-1.82,2.4-2.38a.38.38,0,0,1,.53,0,3.85,3.85,0,0,1,.3.27q1.86,1.8,3.67,3.66a1.45,1.45,0,0,1,.49.84.38.38,0,0,0,.08.17c.32.43.72.78,1.06,1.2a1,1,0,0,1,.19.34,1.52,1.52,0,0,0,.37.69c.17.2.35.41.53.6a1.46,1.46,0,0,1,.28.52,1.09,1.09,0,0,0,.28.52l.52.6a1.46,1.46,0,0,1,.3.51,1.52,1.52,0,0,0,.25.53l.52.6a1.31,1.31,0,0,1,.37.7.9.9,0,0,0,.18.35,1.87,1.87,0,0,1,.38.69,1.32,1.32,0,0,0,.26.53,1.46,1.46,0,0,1,.28.52,1.6,1.6,0,0,0,.35.7,1,1,0,0,1,.19.35,2.05,2.05,0,0,0,.32.72,1.19,1.19,0,0,1,.19.35c.09.32.25.61.32.94s.3.73.37,1.13a5.44,5.44,0,0,1,.31.94,5.12,5.12,0,0,1,.26.75,8,8,0,0,1,.29.95,1.88,1.88,0,0,1,.25,1,1.23,1.23,0,0,0,0,.2,1.42,1.42,0,0,0,0,.2,1.34,1.34,0,0,0,.07.18c.16.3.15.65.3,1a1,1,0,0,1,.09.38c0,.4,0,.8.08,1.19a1.19,1.19,0,0,0,.11.38,1.86,1.86,0,0,1,.1.39c0,.2,0,.4,0,.6a5.29,5.29,0,0,0,.21,1.16.65.65,0,0,1,0,.19c0,.67,0,1.33,0,2,0,.86,0,1.72,0,2.59a1.41,1.41,0,0,1-.09.58,1.07,1.07,0,0,0-.1.39c0,.4,0,.79,0,1.19a2.61,2.61,0,0,1-.2,1.17.4.4,0,0,0,0,.19c0,.2,0,.4,0,.6a2.7,2.7,0,0,1-.23,1.16c0,.26-.06.53-.09.79a1.29,1.29,0,0,1-.08.39,2,2,0,0,0-.15.57,5.18,5.18,0,0,1-.11.79c-.16.3-.17.64-.32.94a1,1,0,0,0-.12.38c0,.2,0,.4,0,.59a1.3,1.3,0,0,1-.09.39c-.12.24-.14.51-.25.75a5.17,5.17,0,0,0-.27.75.78.78,0,0,1-.18.35,1.71,1.71,0,0,0-.33.71,1.48,1.48,0,0,1-.29.52.89.89,0,0,0-.19.34c-.07.33-.25.62-.32.94a1.69,1.69,0,0,1-.35.71,1.15,1.15,0,0,0-.26.53,1.32,1.32,0,0,1-.28.52c-.23.24-.45.48-.69.72a1.76,1.76,0,0,0-.48.85.58.58,0,0,1-.08.18c-.12.16-.24.32-.37.47a1.53,1.53,0,0,0-.38.68,1.1,1.1,0,0,1-.3.51l-1.37,1.45-.84.85a1.2,1.2,0,0,0-.28.52,1.56,1.56,0,0,1-.3.51l-1.67,1.71c-.55.57-1.12,1.13-1.68,1.7l-.15.12a.39.39,0,0,1-.53,0,5.6,5.6,0,0,1-.45-.4c-.73-.77-1.51-1.5-2.28-2.23L66.35,115h0M78.65,79.85a1.42,1.42,0,0,0,.25-.3.44.44,0,0,0,0-.54c-.08-.1-.16-.21-.25-.31a.69.69,0,0,1-.15-.35c0-.34-.11-.37-.52-.37s-.54,0-.61-.28a.64.64,0,0,0-.49-.54c-.29-.06-.33-.12-.35-.36l0-.59a3.62,3.62,0,0,0-.2-.55.55.55,0,0,1,.08-.37c.13-.31.13-.35,0-.54a3.45,3.45,0,0,0-.26-.28.3.3,0,0,0,.1-.34H76a.33.33,0,0,0,.09.35.58.58,0,0,1-.35.15l-.39.07a.77.77,0,0,0-.28.5,1.66,1.66,0,0,1-.11.38.5.5,0,0,0,.11.7l.39.44a.75.75,0,0,1,.18.55c0,.13,0,.27,0,.4s0,.22.36.36a.25.25,0,0,1,.19.28.64.64,0,0,1-.06.39c-.06.09-.2.1-.32,0s-.39-.35-.59-.52a.34.34,0,0,0-.35-.08c0,.07,0,.13,0,.2a1.77,1.77,0,0,1,.19.56.73.73,0,0,0,.26.51,1.8,1.8,0,0,1,.26.3,1.72,1.72,0,0,1,.1.39q0,.2.27.21a.23.23,0,0,1,.25.26c.09.27.12.28.41.17s.35-.15.44.12.15.43.29.48a.74.74,0,0,0,.56-.12,1.23,1.23,0,0,1,.39-.07c.2,0,.35-.16.54-.23a.37.37,0,0,1,.36.08.3.3,0,0,0-.1.35h.17a.26.26,0,0,0-.11-.34.69.69,0,0,0,.15-.51c0-.37,0-.41-.37-.49a.65.65,0,0,1-.32-.16Zm-5.16-1.37.15,0-.09-.11Zm.87,1.27,0,.15.11-.09Zm-.84,2,0,.15.11-.1ZM74.77,83l0-.15-.12.08Zm.7-.3.16,0-.09-.12ZM77,82.28h-.15c-.08.17,0,.22.14.17a.81.81,0,0,0,0-.16m-1.28,3.39,0,.16.12-.1Zm1,1.43-.16,0,.1.11Zm2.4-.29,0,.15.11-.09Zm5.72,4.87a1.87,1.87,0,0,0-.26.3.47.47,0,0,0,0,.54h0a1.48,1.48,0,0,0,.26-.3.48.48,0,0,0,0-.55Zm0-2.26a.29.29,0,0,0,.1-.31H84.8a.34.34,0,0,0,.08.32Zm0,.57a.35.35,0,0,0,.13-.28.42.42,0,0,0-.14-.29h0c-.16.24-.17.34,0,.57Zm0,0a.38.38,0,0,0,0,.56h0a.35.35,0,0,0,.13-.28.34.34,0,0,0-.13-.28Zm0,.56a.35.35,0,0,0-.13.28.34.34,0,0,0,.13.28h0a.42.42,0,0,0,.12-.28.38.38,0,0,0-.12-.28Zm0,1.13a.47.47,0,0,0,0-.57h0c-.18.24-.18.35,0,.57Zm-.24.84a.39.39,0,0,0-.08.34l.14,0a.28.28,0,0,0-.11-.31ZM76.88,78.34a.76.76,0,0,1,0,.15H77c.08-.15,0-.2-.13-.16m1.77,1.51a.28.28,0,0,0-.34-.09.76.76,0,0,0,0,.15.29.29,0,0,0,.33-.11Z" transform="translate(0 0)"/><path class="cls-4" d="M152.28,111.22c1.28,0,2.34,0,3.4,0a.74.74,0,0,1,.53.25.76.76,0,0,1,.27.51c0,.33,0,.67.05,1,0,.66,0,1.33.05,2a1.15,1.15,0,0,0,.14.57,1.27,1.27,0,0,1,.15.57c0,1.4,0,2.79,0,4.19a1.2,1.2,0,0,1-.18.56.59.59,0,0,0,0,.56,3.3,3.3,0,0,1,.13.37l-.15.37a.45.45,0,0,0-.05.19c0,.53,0,1.06,0,1.59q0,6.89,0,13.76c0,1.33,0,2.65,0,4,0,.8,0,1.6,0,2.4a1.51,1.51,0,0,1-.21.75.76.76,0,0,0-.09.18,2.6,2.6,0,0,0,0,.4c0,1.59,0,3.19,0,4.78,0,.4,0,.8,0,1.2a1.17,1.17,0,0,0,.19.55,1.07,1.07,0,0,1,.18.56,1.58,1.58,0,0,1-.22.95,1.29,1.29,0,0,0-.18.35.71.71,0,0,1-.19.35l-.17-.07a1.7,1.7,0,0,0-.76-.21c-.2,0-.4,0-.6,0a12.05,12.05,0,0,1-1.59,0c-.6,0-1.2,0-1.79,0s-1.2,0-1.8,0l-6.38,0a1.27,1.27,0,0,1-.76-.18,1.05,1.05,0,0,0-.38-.12l-1,0c-3.06,0-6.12-.07-9.17-.08a1.24,1.24,0,0,1-.57-.15,1.48,1.48,0,0,0-.57-.16h-1c-.4,0-.8,0-1.19,0a1.62,1.62,0,0,0-.78.14.76.76,0,0,1-.93,0,.64.64,0,0,0-.57,0c-.12,0-.23.12-.36.17l-.19,0-.2,0c-3.19,0-6.37.05-9.56.06a4,4,0,0,1-.6,0,.42.42,0,0,1-.36-.4c0-.27,0-.53,0-.8l0-3.59v-1.39a1.27,1.27,0,0,1,.15-.57,1.42,1.42,0,0,0,.18-.56c0-.73,0-1.47.09-2.19a1.19,1.19,0,0,1,.11-.38,2.92,2.92,0,0,0,.17-.36,2.71,2.71,0,0,0,0-.4l.06-1.19a1.1,1.1,0,0,1,.19-.56,1.43,1.43,0,0,0,.16-.57c0-.26,0-.53.06-.79a1.21,1.21,0,0,1,.15-.57,1.87,1.87,0,0,0,.23-.76,1,1,0,0,1,.13-.37,1.29,1.29,0,0,0,.24-.75c0-.13,0-.26,0-.4a.87.87,0,0,1,.11-.38c.17-.28.25-.61.43-.89s.25-.61.43-.9a1.57,1.57,0,0,0,.19-.55,1.4,1.4,0,0,1,.2-.56l.1-.17c.09-.18.16-.37.26-.54a4.17,4.17,0,0,1,.36-.47,3.17,3.17,0,0,0,.38-.7c.23-.33.35-.71.57-1a8.21,8.21,0,0,1,.46-.88,2.72,2.72,0,0,1,.5-.85,2.11,2.11,0,0,0,.42-.67,1.46,1.46,0,0,1,.22-.33l.66-.75a1.85,1.85,0,0,0,.3-.51,1.51,1.51,0,0,1,.22-.32l1-1a2,2,0,0,0,.44-.66,1.12,1.12,0,0,1,.22-.33,5.48,5.48,0,0,1,.4-.44l2.58-2.49a.89.89,0,0,1,.33-.21.85.85,0,0,0,.34-.21l1.59-1.51a1.55,1.55,0,0,1,.51-.31,1.08,1.08,0,0,0,.34-.2l.89-.8a.59.59,0,0,1,.17-.1,3,3,0,0,0,1-.66.45.45,0,0,1,.17-.11,3.43,3.43,0,0,0,1-.66,1.27,1.27,0,0,1,.34-.2,1.29,1.29,0,0,0,.35-.18l.47-.37a1.61,1.61,0,0,1,.51-.29c.25-.09.46-.28.71-.35a2.4,2.4,0,0,0,.53-.27c.23-.14.49-.21.71-.37a1.65,1.65,0,0,1,.75-.23,1,1,0,0,0,.37-.14,1.7,1.7,0,0,1,.75-.24,1,1,0,0,0,.38-.13,2.65,2.65,0,0,1,.54-.25c.26-.07.45-.28.71-.34a7.08,7.08,0,0,1,.79-.09.86.86,0,0,0,.38-.13,1.33,1.33,0,0,1,.74-.26,1.42,1.42,0,0,0,.56-.18,1.22,1.22,0,0,1,.56-.17l.8,0a1.55,1.55,0,0,0,.74-.26,1,1,0,0,1,.38-.11,1.74,1.74,0,0,0,.75-.24,1.13,1.13,0,0,1,.57-.15l1.59-.06a1.25,1.25,0,0,0,.57-.16,1.38,1.38,0,0,1,.57-.15l2-.06h.78M118.47,149a.29.29,0,0,0,.11-.34c0-.05-.08-.09-.13-.14s-.1.05-.12.09a.32.32,0,0,0,0,.35s.09,0,.13,0m-.53-1.64.13.09,0-.14ZM129,118.82a1.21,1.21,0,0,0-.92.3,2.53,2.53,0,0,1-.81.55l-.32.23-.87.81a2.26,2.26,0,0,1-.82.54.82.82,0,0,0-.17.11l-.15.12-.41.43a1,1,0,0,0-.32.89l0,0a1.25,1.25,0,0,0,.19,0,1.18,1.18,0,0,0,.32-.23,2.65,2.65,0,0,1,.79-.58,1,1,0,0,0,.32-.23l.87-.81.43-.41a2.15,2.15,0,0,1,.81-.56,4.74,4.74,0,0,0,1-.94.58.58,0,0,0,0-.19Zm-7.19,6.78a.3.3,0,0,0-.29.18l.1.1a.35.35,0,0,0,.16-.31Zm0,0a.42.42,0,0,0,.4-.4l0,0a.41.41,0,0,0-.4.4Zm.4-.4a.3.3,0,0,0,.29-.19l-.11-.09a.36.36,0,0,0-.15.31ZM123,124a.29.29,0,0,0-.3.19l.12.1A.33.33,0,0,0,123,124Zm.4-.4c-.27,0-.34.12-.4.4l0,0c.28,0,.36-.1.4-.4Zm.4-.39c-.28,0-.36.11-.4.39l0,0a.34.34,0,0,0,.28-.11.41.41,0,0,0,.11-.28Zm.4-.41c-.29,0-.37.12-.4.41l0,0a.43.43,0,0,0,.41-.41Zm4.75-4a.39.39,0,0,0,.32-.16l-.11-.11a.28.28,0,0,0-.17.3Zm-7.8,7.71,0,.13.13,0Z" transform="translate(0 0)"/><path class="cls-5" d="M119.32,108.15c.94.87,1.66,1.65,2.39,2.42a.74.74,0,0,1,.2.55.72.72,0,0,1-.18.55c-.21.26-.43.5-.66.74-.46.49-.92,1-1.38,1.44a1.26,1.26,0,0,0-.3.51,1.21,1.21,0,0,1-.3.51c-1,1-2,2-3,3a1.12,1.12,0,0,1-.53.27.62.62,0,0,0-.42.38,2.32,2.32,0,0,1-.16.36c-.13,0-.25.09-.37.15a.56.56,0,0,0-.17.09c-.41.35-.77.74-1.15,1.11q-4.84,4.88-9.76,9.69c-1,.93-1.88,1.88-2.82,2.82l-1.71,1.67a1.48,1.48,0,0,1-.69.39,1,1,0,0,0-.18.06,3.88,3.88,0,0,0-.31.26l-3.39,3.37c-.28.28-.54.58-.82.87a1.08,1.08,0,0,0-.25.53,1.16,1.16,0,0,1-.28.52,1.53,1.53,0,0,1-.82.52,1.52,1.52,0,0,0-.38.11.66.66,0,0,1-.38.12c0-.06-.06-.11-.08-.17a1.48,1.48,0,0,0-.38-.68c-.14-.14-.28-.29-.43-.42a13.38,13.38,0,0,1-1.14-1.12c-.4-.44-.81-.87-1.24-1.29s-.85-.84-1.27-1.27c-1.5-1.51-3-3-4.49-4.52a1.25,1.25,0,0,1-.42-.67.9.9,0,0,0-.18-.35l-.69-.72c-2.14-2.18-4.27-4.37-6.42-6.54a1.35,1.35,0,0,1-.31-.51,1.13,1.13,0,0,0-.29-.51l-.69-.71-.85-.85a1.63,1.63,0,0,0-.65-.44c-.44-.14-.52-.27-.64-.68a.66.66,0,0,0-.38-.42l-.38-.13a.91.91,0,0,1-.16-.11l-.16-.12-6.81-6.73a4.11,4.11,0,0,1-.38-.45.42.42,0,0,1,0-.54c.17-.2.36-.39.55-.58l2.55-2.52,1-1a1.32,1.32,0,0,1,.51-.3,1.44,1.44,0,0,0,.52-.27c.55-.49,1-1,1.62-1.49a1.11,1.11,0,0,1,.34-.18,2.46,2.46,0,0,0,.38-.14,1.81,1.81,0,0,0,.3-.25c.3-.27.6-.53.89-.81a1.2,1.2,0,0,1,.53-.26,1.32,1.32,0,0,0,.52-.28l.6-.52a1.32,1.32,0,0,1,.51-.3,1.82,1.82,0,0,0,.7-.37,1.06,1.06,0,0,1,.35-.18,1.68,1.68,0,0,0,.38-.12,3.19,3.19,0,0,0,.32-.23c.1-.09.21-.17.3-.26a.86.86,0,0,1,.35-.19c.32-.08.61-.26.93-.33s.62-.25.94-.33a1.46,1.46,0,0,0,.53-.26,1.34,1.34,0,0,1,.54-.25l.19,0c.19-.06.37-.15.56-.19a3.82,3.82,0,0,1,.59-.09,2.88,2.88,0,0,0,.76-.22c.4-.07.75-.26,1.14-.34a8.68,8.68,0,0,1,1-.3,2.61,2.61,0,0,1,1-.24,2.33,2.33,0,0,0,.77-.18,1.29,1.29,0,0,1,.39-.08c.33,0,.66,0,1-.06a2,2,0,0,0,.58-.15,1,1,0,0,1,.39-.07c.46,0,.93,0,1.39-.06a2,2,0,0,0,.77-.16,1.28,1.28,0,0,1,.39-.07q.3,0,.6,0c1.2,0,2.39,0,3.59.06a1,1,0,0,1,.38.09,1,1,0,0,0,.39.09l2.19.06a1.26,1.26,0,0,1,.57.14,1,1,0,0,0,.39.09l1.19.07.2,0a2.7,2.7,0,0,0,1.16.23l.19,0a3.14,3.14,0,0,0,1.17.24,1.26,1.26,0,0,1,.38.1,1.21,1.21,0,0,0,.38.12l.59.07a1.62,1.62,0,0,1,.57.16c.24.11.52.12.75.25a2,2,0,0,0,.57.18c.26.07.49.2.76.25a1.58,1.58,0,0,1,.69.36,1,1,0,0,0,.36.16,1.63,1.63,0,0,1,.7.37,1,1,0,0,0,.36.17,2.38,2.38,0,0,1,.56.21c.23.13.52.12.74.26a6,6,0,0,1,.63.5,1.14,1.14,0,0,0,.35.17,1.22,1.22,0,0,1,.71.34,1.52,1.52,0,0,0,.52.27,1.2,1.2,0,0,1,.52.28l.6.52a1.41,1.41,0,0,0,.71.34,1.19,1.19,0,0,1,.35.19,1.53,1.53,0,0,0,.69.36,1.19,1.19,0,0,1,.51.3c.4.36.78.72,1.17,1.09a1.27,1.27,0,0,0,.52.28,1.76,1.76,0,0,1,.51.3l1.44,1.37.56.55m-50.6,2.78a.29.29,0,0,0,.32-.16,1.23,1.23,0,0,0,0-.2c-.06,0-.12,0-.16,0a.32.32,0,0,0-.24.26s0,.08.06.12m.79-1.53,0,.14.11-.08Zm28-12.32a1.23,1.23,0,0,0-.85-.44,2.49,2.49,0,0,1-1-.18c-.13,0-.26,0-.39-.06l-1.19,0a2.43,2.43,0,0,1-1-.2.67.67,0,0,0-.19,0h-.2c-.2,0-.39,0-.59,0a1.05,1.05,0,0,0-.86.41v0a.57.57,0,0,0,.16.11,1.23,1.23,0,0,0,.39.07,2.49,2.49,0,0,1,1,.14,1.28,1.28,0,0,0,.39.07l1.19,0H95a2.32,2.32,0,0,1,1,.18,4.89,4.89,0,0,0,1.38,0s.11-.06.16-.1Zm-9.87-.28a.32.32,0,0,0-.34-.09.76.76,0,0,0,0,.15.36.36,0,0,0,.32-.11Zm0,0a.44.44,0,0,0,.57,0v0a.4.4,0,0,0-.56,0Zm.57,0a.31.31,0,0,0,.34.07.71.71,0,0,0,0-.14.35.35,0,0,0-.33.12Zm1.41-.24a.29.29,0,0,0-.34-.08v.16a.35.35,0,0,0,.33-.12Zm.57,0c-.22-.16-.32-.16-.57,0v0c.22.18.33.18.56,0Zm.56,0a.37.37,0,0,0-.56,0v0a.35.35,0,0,0,.28.11.44.44,0,0,0,.29-.11Zm.57,0c-.23-.18-.34-.17-.57,0v0a.42.42,0,0,0,.57,0Zm6.2.52a.37.37,0,0,0,.34.11V97a.28.28,0,0,0-.34.09Zm-11-.06-.11.08.13.06Z" transform="translate(0 0)"/></g></g></g></g></svg>