<svg xmlns="http://www.w3.org/2000/svg" viewBox="0 0 111.78 111.45">
    <defs>
        <style>.cls-1{fill:#d2ddc8;}</style>
    </defs>
    <g id="Layer_2" data-name="Layer 2">
        <g id="Layer_1-2" data-name="Layer 1">
            <g id="Layer_2-2" data-name="Layer 2">
                <g id="Layer_1-2-2" data-name="Layer 1-2">
                    <path class="cls-1" d="M21.35,34.25a.64.64,0,0,1,.42-.25.72.72,0,0,1,.5,0c.46.22.91.47,1.35.72.15.08.16.08.49.09a1.16,1.16,0,0,1,.49.1l.3.16a1,1,0,0,0,.32.13.92.92,0,0,0,.33,0,.63.63,0,0,1,.33.09l3.73,2a1,1,0,0,0,.49.11,1.34,1.34,0,0,1,.48.15l.75.41,2.83,1.65c.14.08.15.08.48.12a1.63,1.63,0,0,1,.49.14L39,42a1.33,1.33,0,0,0,.65.16h.13l.15.06c.57.27,1.11.58,1.65.9,1,.56,2,1.13,3,1.67a.55.55,0,0,0,.33.09h.17a.69.69,0,0,1,.55.33.89.89,0,0,0,.35.37l.58.34a.91.91,0,0,0,.48.15,1,1,0,0,1,.65.17,9.12,9.12,0,0,1,1,.6.45.45,0,0,1,.1.31,1.4,1.4,0,0,1-.06.5,1,1,0,0,1-.15.49l-1.8,3.27a1,1,0,0,0-.12.49,1.18,1.18,0,0,1-.12.49c-.06.1-.11.2-.16.3-.39.7-.78,1.39-1.16,2.09a1.06,1.06,0,0,0-.14.48.93.93,0,0,1-.11.49l-.48.9c-1.16,2.08-2.36,4.15-3.54,6.22l-.51.88a1.38,1.38,0,0,0-.18.65.66.66,0,0,1-.08.32c-.17.3-.32.61-.5.9-.71,1.23-1.39,2.47-2.07,3.72a.93.93,0,0,0-.11.49,1.12,1.12,0,0,1-.14.48l-1.73,3.13a1.53,1.53,0,0,0-.24.8.25.25,0,0,1,0,.17c-.22.47-1.73,3.19-2.15,3.87a.27.27,0,0,1-.1.13.44.44,0,0,1-.32,0,1,1,0,0,1-.32-.13L31.91,78l-2.66-1.53c-.74-.43-1.47-.85-2.19-1.31a1,1,0,0,1-.47-.48,1.09,1.09,0,0,0-.23-.25l-1.45-.88a1.47,1.47,0,0,1-.49-.47c-.17-.26-.18-.26-.34-.36l-.86-.55a1.38,1.38,0,0,1-.46-.5.59.59,0,0,0-.23-.24L22,71a1.12,1.12,0,0,1-.46-.5,1,1,0,0,0-.21-.26,1.86,1.86,0,0,1-.52-.66,1.13,1.13,0,0,0-.37-.35.92.92,0,0,1-.22-.26,1.78,1.78,0,0,0-.44-.51.67.67,0,0,1-.22-.25c-.15-.31-.41-.54-.57-.84a5.82,5.82,0,0,1-.47-.71c-.07-.08-.16-.16-.24-.24a1.38,1.38,0,0,1-.34-.38c-.16-.3-.4-.54-.55-.85a3,3,0,0,0-.47-.7,1.63,1.63,0,0,1-.33-.59,2.34,2.34,0,0,0-.41-.74c-.12-.19-.22-.4-.36-.58s-.21-.39-.36-.57a1.21,1.21,0,0,1-.21-.46L15,60.93a2.11,2.11,0,0,0-.24-.44,1.11,1.11,0,0,1-.17-.3c-.1-.27-.18-.54-.26-.81-.22-.82-.45-1.64-.68-2.46a.87.87,0,0,0-.16-.3,1.46,1.46,0,0,1-.26-.79,1.56,1.56,0,0,0,0-.68c-.06-.21-.11-.44-.15-.66a1.06,1.06,0,0,1,0-.5c.07-.28,0-.57.06-.85a2.09,2.09,0,0,0,0-.5l-.06-.34a.48.48,0,0,1,0-.17,2.17,2.17,0,0,0-.05-.84.72.72,0,0,1,0-.5l.06-.16c.1-.29.1-.29-.09-.62a.5.5,0,0,1-.08-.32V48.33a4.91,4.91,0,0,1,.05-.85.82.82,0,0,1,.31-.57l.14-.09c.21-.12.23-.18.18-.4A.81.81,0,0,0,13.4,46a.48.48,0,0,1-.06-.61c.07-.15.15-.3.22-.46a.47.47,0,0,0,0-.33,2.22,2.22,0,0,0-.1-.5c0-.17,0-.28.28-.34a.62.62,0,0,1,.5,0h0c0,.1-.11.2-.15.3a.41.41,0,0,0,.07.45,1.51,1.51,0,0,1,.25.42.44.44,0,0,0,.21.25.72.72,0,0,0,.05.64l.09.14a.23.23,0,0,0,.24-.17.29.29,0,0,0-.07-.4h0a2.68,2.68,0,0,0-.28-.18l.12-.11a2,2,0,0,1,.48-.17.81.81,0,0,0,.63-.5.36.36,0,0,0,0-.46,1.21,1.21,0,0,1-.29-.6c0-.14,0-.22.12-.27s.42-.39.69-.48.18-.1.16-.25a.77.77,0,0,1,.08-.49c.15-.24.26-.5.41-.75a.75.75,0,0,0,.06-.49.8.8,0,0,1,.23-.62c.14-.16.29-.13.36.07s.1.32.16.48a.75.75,0,0,0,.49.43h.17a.62.62,0,0,0,.33-.05c.22-.07.26-.16.15-.34s-.18-.29-.15-.45a.33.33,0,0,1,.22-.24c.22-.11.22-.12.26-.37v-.16a.5.5,0,0,1,.34,0,.34.34,0,0,0,.32-.07,1.68,1.68,0,0,1,.42-.27.55.55,0,0,0,.31-.37.41.41,0,0,0-.14-.3.22.22,0,0,1-.07-.28.36.36,0,0,1,.32,0,.93.93,0,0,0,.31.13.49.49,0,0,0,.17,0v-.14a.41.41,0,0,0-.1-.13c-.15-.22-.15-.22-.09-.47h0a.31.31,0,0,0,.32,0,.38.38,0,0,0,.2-.41,1,1,0,0,1,0-.34,1,1,0,0,1,.33-.55l.29-.16a.34.34,0,0,0,.19-.44l-.07-.11a1.31,1.31,0,0,1-.25-.43A1.28,1.28,0,0,0,22,34.7a.75.75,0,0,0-.38-.52l-.14-.09Zm1.35,33a.24.24,0,0,0,0-.3h-.13a.25.25,0,0,0,.15.26.23.23,0,0,0,0,.31h.14a.23.23,0,0,0-.17-.26m3.19.65-.26-.14a.51.51,0,0,0-.27-.06.42.42,0,0,0-.23.16.37.37,0,0,0-.44.08,1,1,0,0,1-.4.27c-.29.16-.35.33-.25.69a.19.19,0,0,0,.07.14c.07,0,.13.14.25,0a11.38,11.38,0,0,0,.76-1.26l.25.14a.33.33,0,0,0,.48,0h0a.21.21,0,0,0,.26,0c.09-.07.07-.14,0-.16a.22.22,0,0,0-.21.15m-1.18-.67a.7.7,0,0,0-.63,0,.6.6,0,0,0-.13.09.21.21,0,0,0,.16.23.28.28,0,0,0,.39-.07h0a1.34,1.34,0,0,0,.18-.28.24.24,0,0,0,.3,0v-.13a.26.26,0,0,0-.26.16M16.43,46.13a.27.27,0,0,0,0-.3H16.3a.25.25,0,0,0,.15.26.44.44,0,0,0-.06.31,1.59,1.59,0,0,0,.08.33.18.18,0,0,0,.19.17h0a1,1,0,0,0,.45-.19.45.45,0,0,0-.16-.27,5.51,5.51,0,0,0-.58-.34m8.06,19.21-.15-.07a.36.36,0,0,0-.32,0,.91.91,0,0,0,0,.33,1,1,0,0,0,.25.43.57.57,0,0,1,.18.28c0,.13.11.19.23.18h.26a.21.21,0,0,0,.27-.15h0A.2.2,0,0,0,25,66h0a1.67,1.67,0,0,1-.25-.43.76.76,0,0,0-.24-.23m5.76,5.7L30,70.93a.43.43,0,0,0-.16,0,.38.38,0,0,0-.2.23.29.29,0,0,0,.1.28,1.31,1.31,0,0,0,.43.24.38.38,0,0,0,.28-.11.24.24,0,0,0,0-.3.52.52,0,0,0-.21-.23m1.71,1.77c.25.12.34.17.45.21a.19.19,0,0,0,.24-.06c0-.06,0-.12-.06-.15a2.46,2.46,0,0,1-.57-.59c0-.15-.12-.17-.25-.07a.37.37,0,0,0-.06.45l.25.21M13.6,50.57a.33.33,0,0,0,0,.14.59.59,0,0,0,.54.32h.14a1,1,0,0,0,0-.34.31.31,0,0,0-.19-.24.63.63,0,0,0-.46.16M31.48,74.13l.06.16a.33.33,0,0,0,.3.08.29.29,0,0,0,.23-.22V74a.44.44,0,0,0-.32,0,.54.54,0,0,0-.26.16M13.65,49.05a.26.26,0,0,0,0,.29h.13a.85.85,0,0,0,.31-.09l.14-.08a.32.32,0,0,0-.17-.25c-.18-.1-.27-.08-.39.11M31.38,69.49a.34.34,0,0,0,0,.28.29.29,0,0,0,.25-.13.24.24,0,0,0,0-.28.26.26,0,0,0-.24.13M14.48,47.74a.21.21,0,0,0-.24.15h0a.21.21,0,0,0,.06.25.2.2,0,0,0,.23-.16h0v-.25m8.14-10.66H22.5a.34.34,0,0,0-.07.15c0,.15,0,.22.13.18s.08-.06.12-.1a.2.2,0,0,0,0-.25h0m6.17,29.31a.31.31,0,0,0-.09.14c0,.17,0,.22.16.15a.43.43,0,0,0,.11-.12c.07-.12,0-.2,0-.24s-.11,0-.14.07M27,69.7l-.19-.09a.33.33,0,0,0-.14,0c-.05.07,0,.14.06.22a.2.2,0,0,0,.27.06.18.18,0,0,0,0-.22m-1.38-.76c-.15,0-.19,0-.12.16h.14v-.13m-4.26-2.73-.06-.12-.08.1Zm7.13,3.4c0,.15,0,.18.15.1v-.1H28.5m-8.26-4.76.06.12.08-.1ZM23.9,70.1l.06.12.07-.11Zm3.62-1.35h.11l-.1-.07Zm-.6-.32H27c0-.14,0-.18-.15-.11v.13M23.48,37.71l.12-.06-.09-.07Zm2.3,29.58-.06-.12-.08.1ZM23.7,66c-.15,0-.19,0-.11.16h.19V66m-6.2-22.37v.12l.08-.1Zm-.79.35-.07-.12-.07.1Zm4.75,20c0,.14,0,.18.15.11v-.13h-.13m11.22,6c-.14,0-.17,0-.11.15h.11V70m3.11-6.06c-.13,0-.17,0-.1.14h.12v-.12m-.9,2.7c0,.14,0,.18.15.11v-.13H35m-5.85-1.29.12-.06-.09-.07Zm3.06,2c0,.15,0,.18.15.11V67.3h-.13m.71.34c-.14,0-.17,0-.1.14H33v-.17m-18.76-26a.45.45,0,0,0-.29.12,1.1,1.1,0,0,0-.23.44.43.43,0,0,0,0,.16h.15c.12-.07.21-.23.39-.16s-.06.32-.12.47a.51.51,0,0,1-.23.23l-.14.09c-.14,0-.17.14-.08.26a.21.21,0,0,0,.15.07.26.26,0,0,0,.3-.07c.19-.21.31-.47.49-.68s.2-.1.26,0a1.13,1.13,0,0,1,.1.13.35.35,0,0,0,.11.1.23.23,0,0,0,.22-.22.32.32,0,0,0-.09-.29,4,4,0,0,0-.6-.42l-.41-.19M14.39,39a.44.44,0,0,0,0,.32,3.36,3.36,0,0,1,.35.57A.4.4,0,0,0,15,40c.17,0,.21-.07.13-.38a2.14,2.14,0,0,0-.08-.32.62.62,0,0,1,0-.33,3.39,3.39,0,0,0,.17-.48c0-.12,0-.2-.13-.28a.21.21,0,0,0-.28,0h0a1.91,1.91,0,0,0-.29.41c0,.1-.1.2-.14.3m.91-2.35a.63.63,0,0,0-.1.32v.68a.12.12,0,0,0,.07.11l.15-.06a1.05,1.05,0,0,0,.26-.61,1.87,1.87,0,0,1,.18-.8.24.24,0,0,0,0-.28s-.12,0-.15.08-.13.19-.19.28l-.15.3m-2.2,22a.44.44,0,0,0,0-.32l-.3-1.13a.18.18,0,0,0-.14-.22.19.19,0,0,0-.23.14.11.11,0,0,0,0,.08.43.43,0,0,0,0,.16,3.58,3.58,0,0,0,.14.65.85.85,0,0,0,.52.61Zm1.06-14.77a.78.78,0,0,1,.26.41.38.38,0,0,0,.36.26.24.24,0,0,0,.24-.19.29.29,0,0,0,0-.31,1.24,1.24,0,0,0-.26-.19.56.56,0,0,0-.31-.09.31.31,0,0,0-.26.16ZM20,35.73l.14.08c.2.09.28,0,.37-.15a.3.3,0,0,0,0-.29.53.53,0,0,0-.27-.13.21.21,0,0,0-.23.19h0a.39.39,0,0,0,0,.3m-5.66,5a.24.24,0,0,0,.24-.13.24.24,0,0,0,0-.28.25.25,0,0,0-.24.12.37.37,0,0,0,0,.29m5.91-7.3v-.14H20.1c0,.15,0,.19.16.12m.52.2-.11-.07v.13Zm.59.59a.23.23,0,0,0-.31,0v.13a.22.22,0,0,0,.27-.15Zm-4.27-.35-.1-.07v.13Zm4.15,2.43v-.13h-.13c0,.15,0,.19.16.11M20.9,37a.27.27,0,0,0,0-.3h-.12a.24.24,0,0,0,.14.26Zm.12.47c.08-.24.06-.33-.12-.47h0a.28.28,0,0,0,0,.25.34.34,0,0,0,.16.21Zm-7.79,21a.22.22,0,0,0,0,.27h.11a.27.27,0,0,0-.14-.24Z"/>
                    <path class="cls-1" d="M6.15,89a.73.73,0,0,0,.31-.14c.25-.22.45-.52.81-.58.14-.06.18-.14.09-.23L7.22,88a.34.34,0,0,1-.28-.18.51.51,0,0,1,.28-.17.22.22,0,0,0,.15-.08c.08-.07.07-.17,0-.28s-.09-.21,0-.26h.16a1,1,0,0,1,.64.16l.15.08a.49.49,0,0,0,.27-.15c.08-.09.17-.16.25-.24a.43.43,0,0,1,.44,0c.15.08.19,0,.22-.12a.31.31,0,0,0-.1-.31l-.14-.08c-.29,0-.47-.31-.75-.38s-.28-.14-.31-.34a1.24,1.24,0,0,1,0-.34A.36.36,0,0,0,7.86,85H7.19a.39.39,0,0,1-.34-.32,1,1,0,0,0,.49,0l.12-.11-.12-.11a.29.29,0,0,0-.31,0,.31.31,0,0,0-.25.19.9.9,0,0,0-.45.21.38.38,0,0,1-.33,0,.39.39,0,0,1-.24-.4A.6.6,0,0,1,5.9,84l.3-.15a.26.26,0,0,0,.17-.26.48.48,0,0,0,0-.17,1.05,1.05,0,0,0-.2-.27.51.51,0,0,0-.28-.17L5.74,83c-.22.1-.23.1-.34-.19a2.1,2.1,0,0,0-.15-.3.78.78,0,0,1-.18-.47v-.85a.8.8,0,0,0-.22-.45,1.12,1.12,0,0,0-.56-.34l-.12-.12s.06-.11.1-.12a1.2,1.2,0,0,0,.67-.48c.06-.11,0-.19-.12-.23a1.93,1.93,0,0,0-.34,0,.34.34,0,0,1-.38-.25.56.56,0,0,1,.17-.46.88.88,0,0,1,.59-.29h.68a1.82,1.82,0,0,0,.33,0,.85.85,0,0,0,.3-.15.75.75,0,0,1,.33-.1h4.28a1,1,0,0,0,.47-.16,1,1,0,0,1,.49-.12c1,0,2-.07,3.06-.07a.85.85,0,0,0,.49-.12,1.2,1.2,0,0,1,.49-.14l2.72-.06a1,1,0,0,0,.34,0,.85.85,0,0,0,.3-.15,1,1,0,0,1,.49-.12h2a.84.84,0,0,0,.48-.16c.3-.15.3-.15.47-.16h1l.15-.08.29-.17a2.31,2.31,0,0,0,.62-.28h7.84a2.17,2.17,0,0,1,.51,0h.15c.12.07.13.16,0,.29-.13.32-.13.35,0,.63a1,1,0,0,1,.15.48l.06,2.38a1.93,1.93,0,0,0,0,.34,1.4,1.4,0,0,0,.15.3.73.73,0,0,1,.09.32c.06.74,0,1.48.07,2.21a.88.88,0,0,0,.15.48,1.25,1.25,0,0,1,.14.49v3.76a.81.81,0,0,0,.13.48.9.9,0,0,1,.17.47c0,.85.07,1.7.06,2.55a.48.48,0,0,0,0,.17,1.48,1.48,0,0,0,.15.31.23.23,0,0,1,0,.31,1,1,0,0,0-.07.15l.13.31a.38.38,0,0,1,0,.15,1.43,1.43,0,0,0-.18.47.9.9,0,0,0,.16.64.22.22,0,0,1,0,.3h0a.9.9,0,0,0-.17.47,1.93,1.93,0,0,1,0,.34.9.9,0,0,1-.16.29.5.5,0,0,0,0,.63.82.82,0,0,1,.15.47v.17c0,.2.08.26.32.35a.44.44,0,0,1,.3.36v2.56a1.13,1.13,0,0,0,.15.48,1.25,1.25,0,0,1,.14.49c0,.85,0,1.7.08,2.55a.67.67,0,0,0,.1.32,1.19,1.19,0,0,1,.16.48c0,1.07.09,2.15.07,3.23a1,1,0,0,0,.16.47,1,1,0,0,1,.11.49,13,13,0,0,1,0,1.53.53.53,0,0,1-.12.32c-.11.13-.23.25-.35.37s-.12.19,0,.29c.13.28.09.34-.27.35H35a1.23,1.23,0,0,1-.81-.19.81.81,0,0,0-.8,0l-.16.08a.9.9,0,0,1-.48.12H30.53a1.1,1.1,0,0,1-.8-.21.73.73,0,0,0-.33-.08H26a.93.93,0,0,1-.64-.19.9.9,0,0,0-.32-.09h-.85a1.05,1.05,0,0,1-.48-.16,1,1,0,0,0-.48-.15,13,13,0,0,1-1.53-.06.75.75,0,0,1-.32-.1,1.43,1.43,0,0,0-.3-.16.91.91,0,0,0-.33,0,4.07,4.07,0,0,1-.85-.07.42.42,0,0,1-.14-.09c-.13-.12-.12-.32-.27-.42l-.46.17a.49.49,0,0,1-.17,0c-.17,0-.2-.12-.09-.24s.1-.25-.15-.35l-.16-.06-.43-.26a1.12,1.12,0,0,1-.46-.2,1.2,1.2,0,0,0-.48-.17.82.82,0,0,1-.48-.14l-.29-.17a2.41,2.41,0,0,1-.6-.3.66.66,0,0,1-.32-.12,3.83,3.83,0,0,0-.44-.25,1.88,1.88,0,0,1-.45-.22c-.19-.15-.43-.16-.61-.3a1.53,1.53,0,0,0-.46-.23.92.92,0,0,1-.29-.16,3.67,3.67,0,0,0-.52-.44.74.74,0,0,1-.31-.12.9.9,0,0,1-.27-.21,1.64,1.64,0,0,0-.71-.44,1.81,1.81,0,0,1-.29-.19,1.68,1.68,0,0,0-.3-.15c-.19-.09-.19-.09-.33-.36-.06-.1-.12-.21-.23-.24a1.34,1.34,0,0,1-.82-.81.4.4,0,0,0-.23-.23,1.3,1.3,0,0,1-.43-.27L7,101.52a1.38,1.38,0,0,1-.37-.57,2.34,2.34,0,0,0-.2-.27c-.3-.34-.62-.67-.92-1a.79.79,0,0,1-.18-.29A2.31,2.31,0,0,0,5,98.83a1.92,1.92,0,0,1-.36-.56A1,1,0,0,0,4.44,98l-.57-.64c-.07-.08-.13-.18-.2-.27a2.51,2.51,0,0,0-.45-.71,1,1,0,0,1-.2-.28,5.21,5.21,0,0,0-.24-.47,1.08,1.08,0,0,1-.16-.3,3.19,3.19,0,0,0-.23-.45,1.09,1.09,0,0,1-.14-.31,2.1,2.1,0,0,0-.15-.3c-.16-.24-.2-.53-.37-.76A1,1,0,0,1,1.57,93a1,1,0,0,0-.08-.33,1,1,0,0,0-.08-.14c-.17-.23-.21-.53-.38-.76a.72.72,0,0,1-.15-.47,1.19,1.19,0,0,0-.16-.48,1,1,0,0,1-.16-.47V90a1.93,1.93,0,0,0,0-.34,1.46,1.46,0,0,0-.16-.3.85.85,0,0,1-.09-.32v-.45a.85.85,0,0,0-.15-.48A.86.86,0,0,1,0,87.66v-1c0-.17,0-.35.2-.45a.6.6,0,0,1,.82.22l0,0c.09.25.16.29.35.32h.39a.35.35,0,0,1,.31.33h0a.26.26,0,0,0-.24.13.11.11,0,0,0,0,.11.24.24,0,0,0,.24.13h0a.39.39,0,0,0,.33.33h.17c.3,0,.46.09.43.17a.59.59,0,0,1-.18.28c-.08.08-.15.17-.22.25l-.08.16a.31.31,0,0,0,.27.15.77.77,0,0,0,.64-.14c.11-.09.21-.11.28,0a.36.36,0,0,1,0,.32.32.32,0,0,1-.08.14c-.08.11-.12.22-.07.28a.27.27,0,0,0,.31.08L4,89.42a.59.59,0,0,1,.29-.1.23.23,0,0,1,.08.3.4.4,0,0,1-.22.22H4c-.43,0-.43,0-.46.15s.22.19.35.26.15.17,0,.25l-.16,0c-.13,0-.21.12-.16.2a.26.26,0,0,0,.29.12h.34a.92.92,0,0,0,.29-.16.24.24,0,0,1,.3,0h0c.17.14.25.31.18.39a.36.36,0,0,1-.31.1H4.51a.74.74,0,0,0-.44.22,1,1,0,0,0-.29.19,2.37,2.37,0,0,1-.2.46.91.91,0,0,0-.17.28.38.38,0,0,0,0,.33,1.39,1.39,0,0,1,.27.78.35.35,0,0,0,.15.29L4,93.69l.3-.14h.34a1.66,1.66,0,0,0,.94-.29,2.07,2.07,0,0,0,.46-.2l.29-.17h.16a.14.14,0,0,0,.13-.1.41.41,0,0,0-.06-.28.19.19,0,0,1,0-.28h0a.18.18,0,0,0,0-.25h0a.77.77,0,0,1-.15-.3.91.91,0,0,1,0-.33.55.55,0,0,0-.1-.32c-.06-.09-.1-.2-.15-.29s.13-.19.18-.29a.43.43,0,0,0,0-.46.77.77,0,0,1-.22-.45Zm2.73-6.13a.23.23,0,0,0-.15-.26l-.09.09a.58.58,0,0,1,.41.41l.1-.1a.25.25,0,0,0-.27-.14m2.41,3.4a1.82,1.82,0,0,0-.33,0,.49.49,0,0,0-.17,0,.29.29,0,0,0-.15.27c0,.13,0,.23.14.28a.42.42,0,0,0,.31,0c.12,0,.15-.15.16-.28s0-.22,0-.33a.23.23,0,0,0,.27-.15l-.1-.09a.22.22,0,0,0-.14.26m-1.73-2A.34.34,0,0,0,9.4,84a.42.42,0,0,0-.31,0L9,84.07a.29.29,0,0,0,.28.14h.33a.48.48,0,0,0,0,.17,1.2,1.2,0,0,0,.46.46.62.62,0,0,0,.33,0c.12,0,.14-.15.13-.27a.34.34,0,0,0-.31-.31H9.52m22.55,1.35h-.16a2,2,0,0,1-.59.31.27.27,0,0,0-.12.09.11.11,0,0,0,0,.11.23.23,0,0,0,.12.1h.83l.44.25a.42.42,0,0,0,.31,0l.12-.11A.58.58,0,0,0,33,86l-.12-.11a2.76,2.76,0,0,1-.49-.07.37.37,0,0,1-.32-.33.23.23,0,0,0,.27-.15l-.09-.1a.29.29,0,0,0-.15.27m-2.34,2.73h-.49L29,88.1a.46.46,0,0,0-.44-.08c-.1.06-.09.15,0,.26a1,1,0,0,1,.08.14.56.56,0,0,1-.13.28.58.58,0,0,0-.11.3v.61a.22.22,0,0,0-.25.14l.08.09a.25.25,0,0,0,.15-.26h.32c.29,0,.32.08.23.29s-.11.3.08.36a1.72,1.72,0,0,1,.43.21c.13.09.21.09.26-.06a.42.42,0,0,0,0-.31c0-.09-.12-.18-.17-.27s.14-.28.2-.41a.48.48,0,0,0,0-.17h.65c.22,0,.35.16.38.43v.16a.38.38,0,0,0,.36.4,0,0,0,0,0,0,0h.48a.49.49,0,0,0,.31-.09.3.3,0,0,0,.15-.26.24.24,0,0,0,.23-.11.09.09,0,0,0,0-.1.26.26,0,0,0-.23-.11.43.43,0,0,1,0-.16c.25-.29.51-.58.79-.85a.32.32,0,0,0,.08-.14.33.33,0,0,0,0-.14L32.81,88v-.5a.22.22,0,0,0,.26-.15l-.09-.1a.26.26,0,0,0-.15.28h-.51c-.31,0-.43.06-.51.34a.64.64,0,0,1-.16.29l-.48.48-.13.11a.41.41,0,0,1-.47,0l-.29-.18a1.52,1.52,0,0,0-.39.32.43.43,0,0,0-.13.3H29.1a.36.36,0,0,1-.28-.15.17.17,0,0,1,.08-.14,1,1,0,0,1,.53-.39.35.35,0,0,0,.31-.34A.3.3,0,0,0,30,88a.34.34,0,0,0,0-.31l-.12-.12a.29.29,0,0,0-.15.27v.33M9,87.8a1,1,0,0,0,.34,0c.19,0,.23-.19.09-.35l-.12-.12a.21.21,0,0,0-.28,0H9c-.13.08-.32.31-.31.38a.37.37,0,0,0,.29.14m18.92-1.16A.26.26,0,0,0,28,86.4l-.11-.13s-.1.06-.12.11a.23.23,0,0,0,0,.29h0M6.47,93.26c.12,0,.19-.08.17-.16a.18.18,0,0,0-.2-.13h0a.18.18,0,0,0-.18.16.19.19,0,0,0,.26.11M31.17,77.61l.1.11a.31.31,0,0,0,.28-.06q.12-.09-.06-.21a.39.39,0,0,0-.28.06v.1m-.74,32.66c0,.14.11.15.18,0l-.09-.09-.09.07M4.58,93.56c0,.14.11.14.19,0l-.09-.1-.1.08m25.65-2.8-.07.12h.12ZM7.39,89.22l.09-.08c0-.13-.1-.14-.17,0a.27.27,0,0,0,.08.1m2.75-1.89c-.13.05-.14.11,0,.19l.1-.09-.08-.1m19.32-1.28.11.07V86Zm-4.78-2c0,.13.11.14.18,0L24.8,84l-.1.08m-16.36,0,.08.1c.14,0,.15-.11,0-.18l-.1.08m4.2-4.86c-.13,0-.14.11,0,.19l.09-.09-.08-.1m18-.94c0,.13.11.14.19,0l-.09-.1-.1.08M6.25,89a.29.29,0,0,0-.15-.27L6,88.66a3.84,3.84,0,0,0-.83,0,.34.34,0,0,0-.17.25.24.24,0,0,0,.1.29.42.42,0,0,0,.31,0,.29.29,0,0,0,.14-.08l.28-.18h.5Zm1.12-2.93c.07.11.15.09.24,0a.91.91,0,0,1,.18-.46c.1-.12.1-.2,0-.27a.36.36,0,0,0-.43.14,2,2,0,0,0-.06.32.48.48,0,0,0,.08.31M4.73,88.24A.23.23,0,0,0,5,88.3a.12.12,0,0,0,.08-.21A.33.33,0,0,0,4.8,88l-.12.09s0,.09,0,.12m1.1,3.67-.09-.09-.1.07c0,.13.11.14.19,0M3.05,86.8c0-.14-.11-.14-.18,0l.08.1.1-.08m-.93-.2V87h0a.23.23,0,0,0,.24-.1.11.11,0,0,0,0-.11.28.28,0,0,0-.24-.11h0m29.72,3.19a.2.2,0,0,0,0,.11.24.24,0,0,0,.24.13v-.49a.31.31,0,0,0-.24.13"/>
                    <path class="cls-1" d="M111.72,9.12V18a1.19,1.19,0,0,1-.24.64.61.61,0,0,0-.08.32c0,1.7-.08,3.41-.07,5.11v3.57a1.12,1.12,0,0,1-.14.48.76.76,0,0,0-.11.32c0,1,0,3.56,0,4.6a.9.9,0,0,0,.14.48,2.14,2.14,0,0,1,.19.64.68.68,0,0,0,.11.32c.15.25.15.26,0,.43l-.33.39c-.11.13-.13.31-.23.44a.27.27,0,0,1-.31.1.83.83,0,0,1-.3-.14,1,1,0,0,0-.49-.12H103.4a1.6,1.6,0,0,1-1-.19.82.82,0,0,0-.31.11,1,1,0,0,1-.5.07h-2a.91.91,0,0,1-.48-.15.61.61,0,0,0-.64,0,.23.23,0,0,1-.31,0,1.45,1.45,0,0,0-.65-.16H94a1.15,1.15,0,0,1-.65-.17A.73.73,0,0,0,93,35H80.05a1.6,1.6,0,0,0-.65.16.84.84,0,0,1-.49.11H76a.35.35,0,0,1-.27-.17V31a1.2,1.2,0,0,0-.16-.47,1,1,0,0,1-.12-.49.84.84,0,0,1,.12-.48,1.15,1.15,0,0,0,.17-.48v-.5a.66.66,0,0,1,.09-.33l.15-.3v-.51a1.06,1.06,0,0,1,.18-.64,1.28,1.28,0,0,0,.18-.47,1.51,1.51,0,0,1,.21-.64.67.67,0,0,0,.1-.32v-.51a1.19,1.19,0,0,1,.16-.48.84.84,0,0,0,.12-.31,1.77,1.77,0,0,1,0-.51,1.07,1.07,0,0,1,.14-.49,1.1,1.1,0,0,0,.17-.64v-.85a1.51,1.51,0,0,1,.21-.64.68.68,0,0,0,.11-.32v-.51a1,1,0,0,1,.28-.6c.31-.36.31-.3.38-.73a1.22,1.22,0,0,1,.17-.47A1.48,1.48,0,0,0,78.6,18a1.08,1.08,0,0,1,.34-.57l.12-.13.19-.27c.12-.26.25-.51.39-.76a2.1,2.1,0,0,1,.15-.3l.22-.26a2.11,2.11,0,0,0,.34-.58c.07-.22.24-.38.31-.6s.24-.39.33-.6a1.59,1.59,0,0,1,.26-.43L81.7,13a2,2,0,0,0,.37-.57,1.26,1.26,0,0,1,.19-.28c.23-.25.46-.5.7-.74a1.87,1.87,0,0,0,.48-.69l.09-.15a6.43,6.43,0,0,1,1-.93,1.77,1.77,0,0,1,.43-.28.84.84,0,0,0,.28-.18L86.44,8A2.34,2.34,0,0,1,87,7.61a.69.69,0,0,0,.28-.2L88,6.72a1.77,1.77,0,0,1,.7-.47l.28-.2c.22-.18.42-.38.64-.56a1.67,1.67,0,0,1,.28-.18c.22-.09.39-.25.6-.33a2.31,2.31,0,0,0,.71-.45,1.42,1.42,0,0,1,.28-.2,5.4,5.4,0,0,0,.75-.4,1.26,1.26,0,0,0,.53-.32,2,2,0,0,1,.72-.42c.24-.17.52-.24.76-.39s.52-.22.76-.38a1.75,1.75,0,0,1,.63-.22A.66.66,0,0,0,96,2.08c.29-.18.63-.25.92-.44a.9.9,0,0,1,.32-.09,1,1,0,0,0,.48-.15,1.85,1.85,0,0,1,.64-.21.46.46,0,0,0,.32-.11c.28-.19.62-.27.92-.44a.39.39,0,0,1,.15-.06h1.58a1,1,0,0,0,.34,0,.85.85,0,0,0,.3-.15,1.36,1.36,0,0,1,.49-.12h1.35a.92.92,0,0,0,.48-.14,1.37,1.37,0,0,1,.49-.13c2,0,4-.1,6,0h.85a.47.47,0,0,1,.18.28v9ZM94.06,31.18c-.18,0-.27.05-.3.25s0,.29.24.32.28,0,.31-.25,0-.28-.25-.32m-4.43,1.27a.14.14,0,0,0,.17-.12v0c0-.1-.06-.09-.1-.1a.26.26,0,0,0-.27,0,.11.11,0,0,1-.06.11.19.19,0,0,0,.26.1m-.15-2.79-.1-.07v.07Zm2.1,1.7-.08-.11c-.14,0-.15.12,0,.2l.1-.09m.91.08.1-.07c0-.13-.11-.14-.18,0l.08.09m1.7-5.11.09-.08c0-.14-.1-.14-.16,0l.07.1m-10-17.65a.73.73,0,0,0,.62-.16l1-.9a.4.4,0,0,0,.13-.3h-.18a.82.82,0,0,0-.46.16,9.65,9.65,0,0,0-1,.91.48.48,0,0,0-.11.3Zm2.75-2h-.29a.51.51,0,0,0-.27.09.41.41,0,0,0-.13.24h0a1,1,0,0,0,.34,0A.4.4,0,0,0,87,6.68Zm-5.48,5.42a.38.38,0,0,0,.32-.34,1,1,0,0,0,0-.34h0a.42.42,0,0,0-.33.4v.28ZM87.27,6.3a.28.28,0,0,0,.27-.14l-.09-.09a.26.26,0,0,0-.15.26Zm-.34.35a.39.39,0,0,0,.34-.35h-.13a.34.34,0,0,0-.21.31Zm-5.76,5.81a.32.32,0,0,0-.25.15l.09.09a.32.32,0,0,0,.13-.26Zm0,0a.35.35,0,0,0,.34-.35h0a.31.31,0,0,0-.24.1.37.37,0,0,0-.1.24Zm.68-1a.25.25,0,0,0,.24-.09.43.43,0,0,0,.1-.25h0A.37.37,0,0,0,81.85,11.46Zm.71-.65a.3.3,0,0,0-.31.21v.13h0a.36.36,0,0,0,.34-.34Zm0,0a.24.24,0,0,0,.22-.2l-.1-.08a.27.27,0,0,0-.12.27Zm.71-1A.26.26,0,0,0,83,10l.1.08a.26.26,0,0,0,.12-.27Zm0,0c.24,0,.31-.09.34-.34h0c-.23,0-.29.14-.34.34ZM84,9.16a.37.37,0,0,0-.34.34h0a.31.31,0,0,0,.24-.1.3.3,0,0,0,.1-.24Zm.34-.35A.33.33,0,0,0,84,9a.28.28,0,0,0,0,.13h0a.36.36,0,0,0,.26-.09.26.26,0,0,0,.09-.25ZM86,7.43a.3.3,0,0,0,.25-.09.25.25,0,0,0,.08-.25h0a.45.45,0,0,0-.25.09.27.27,0,0,0-.09.24Z"/>
                    <path class="cls-1" d="M59.05,8.15a.38.38,0,0,0-.15.29.51.51,0,0,0,.1.32.45.45,0,0,0,.1.13.38.38,0,0,0,.44.13c.32-.11.59-.35.91-.46a.29.29,0,0,1,.27,0v.16l-.4.32a.39.39,0,0,0-.08.31.92.92,0,0,0,.25.44.57.57,0,0,0,.3.15,1.06,1.06,0,0,0,.5,0,.5.5,0,0,1,.57.25.68.68,0,0,1,.15.47.3.3,0,0,0,.07.29.62.62,0,0,0,.33,0h.16s0,.17-.09.26a.52.52,0,0,0-.14.3.67.67,0,0,0,.3.13,2,2,0,0,0,.34.06h.16c.06.09.12.18.17.27a.55.55,0,0,0,.39.26l.46.12c.34.08.36.08.5-.2a.58.58,0,0,1,.21-.23h0l.11.12a2.11,2.11,0,0,0,.48.17.86.86,0,0,1,.54.37c.23.4.51.75.73,1.16a.9.9,0,0,0,.2.27.84.84,0,0,0,.28.18,1.12,1.12,0,0,1,.26.22,1.44,1.44,0,0,0,.49.46,1,1,0,0,1,.37.34c.62,1,1.24,2,1.83,3.07a1.37,1.37,0,0,0,.29.42l.28.19a1.09,1.09,0,0,1,.23.25l.52.87a1,1,0,0,1,.18.65.88.88,0,0,0,.07.32,1,1,0,0,0,.44.5,1.1,1.1,0,0,1,.36.35l1.14,1.89a1.58,1.58,0,0,0,.31.41,1.26,1.26,0,0,0,.28.19l.13.1a1.34,1.34,0,0,1,.11.14c.09.14.19.28.27.43.36.64.74,1.27,1.12,1.91l1.42,2.66a1.27,1.27,0,0,0,.47.48.79.79,0,0,1,.25.23l.54.87a1.3,1.3,0,0,1,.2.63v.51a.33.33,0,0,1-.15.29,1.92,1.92,0,0,1-.42.28Q76.28,34,74.39,35.15a1.1,1.1,0,0,0-.36.35l-.1.14a.78.78,0,0,1-.25.23c-1.08.63-2.15,1.26-3.22,1.91-.43.27-.88.51-1.32.77l-5,2.9-4.72,2.72-1.61.95a1.44,1.44,0,0,0-.48.47.76.76,0,0,1-.23.24c-.1.06-.19.13-.29.18-.79.45-1.57.92-2.35,1.39l-2.2,1.29-.87.53c-.14.09-.15.1-.34.36a.67.67,0,0,1-.55.35h-.34a1.68,1.68,0,0,0-.3.15l-.29.18a.53.53,0,0,0-.24.23,1.3,1.3,0,0,1-.62.56.62.62,0,0,1-.5,0,.65.65,0,0,1-.37-.32c-.69-1.11-1.32-2.26-2-3.39-.11-.19-.21-.4-.34-.59a.83.83,0,0,1-.09-.49,1,1,0,0,0-.13-.48l-.64-1.2a1.15,1.15,0,0,1-.13-.49,1.23,1.23,0,0,0-.1-.49l-.54-1.07a.84.84,0,0,1-.08-.32,1.93,1.93,0,0,0,0-.34,2.15,2.15,0,0,0-.13-.32c0-.1-.09-.21-.14-.31a1.18,1.18,0,0,1-.12-.49.93.93,0,0,0-.11-.49l-.3-.61a1,1,0,0,1-.12-.49,1.52,1.52,0,0,0-.16-.65.88.88,0,0,1-.07-.33,1.39,1.39,0,0,0-.13-.66,1.17,1.17,0,0,1-.09-.5,1.67,1.67,0,0,0-.15-.65.93.93,0,0,1-.06-.34,1.38,1.38,0,0,0-.12-.66A.62.62,0,0,1,42,35c0-.28-.06-.56-.06-.84a4.18,4.18,0,0,1,0-1,3.87,3.87,0,0,1-.06-.84c-.08-.28,0-.57-.06-.85a2.58,2.58,0,0,1,0-.68V30a1.93,1.93,0,0,1,0-.34,2.4,2.4,0,0,0,.06-1,.48.48,0,0,1,0-.17,3.93,3.93,0,0,1,.12-.67,2.15,2.15,0,0,0,.06-.84,2.22,2.22,0,0,1,.06-.51,1.89,1.89,0,0,0,0-.67,1.46,1.46,0,0,1,0-.51l.51-1.8a1.57,1.57,0,0,1,.22-.45.77.77,0,0,0,.15-.3l.23-.83c.16-.6.32-1.2.52-1.79l.21-.65a5.06,5.06,0,0,1,.26-.44,1.43,1.43,0,0,0,.12-.31c.09-.27.17-.54.28-.81a1.92,1.92,0,0,1,.14-.29,1.11,1.11,0,0,0,.17-.3,5.59,5.59,0,0,1,.26-.63l.36-.57c.12-.2.32-.47.44-.72a2.07,2.07,0,0,0,.43-.73,1.82,1.82,0,0,1,.33-.59,1.41,1.41,0,0,0,.18-.29,1.16,1.16,0,0,1,.33-.37,1.14,1.14,0,0,0,.24-.25,1.94,1.94,0,0,1,.55-.63.67.67,0,0,0,.21-.26,1.38,1.38,0,0,1,.45-.51.67.67,0,0,0,.22-.25,3.91,3.91,0,0,1,.3-.41.9.9,0,0,0,.2-.27,1.35,1.35,0,0,1,.44-.51,1.26,1.26,0,0,0,.32-.4,1,1,0,0,1,.22-.24l1-.66a1,1,0,0,0,.35-.41,1.33,1.33,0,0,1,.35-.36l.28-.2a1.19,1.19,0,0,0,.44-.5,1.36,1.36,0,0,1,.24-.24c.86-.54,1.74-1.08,2.63-1.57a1,1,0,0,1,.81-.09.74.74,0,0,1,.4.29,1.39,1.39,0,0,0,.21.27.3.3,0,0,0,.16,0l.07-.12a1.52,1.52,0,0,1,0-.67c.06-.21.13-.27.34-.27a.47.47,0,0,0,.53-.3l.09-.15a.78.78,0,0,1,.24-.24c.23-.16.49-.28.74-.42.57-.32.58-.32.61-.21a2.81,2.81,0,0,1,0,.49c0,.35,0,.35-.16.38-.46.06-.46.06-.66.41a.86.86,0,0,1-.69.41h-.34a.46.46,0,0,0-.29.15.37.37,0,0,0-.06.32c0,.36,0,.38-.22.58l-.14.1a.33.33,0,0,0-.16.28.57.57,0,0,0,.08.32.77.77,0,0,0,.53.38,2,2,0,0,0,.34.06h.18a.94.94,0,0,0,.4.25A.6.6,0,0,1,59,8.2ZM47.66,39.54l.28-.19a.28.28,0,0,0,.13-.26L47.93,39a1.65,1.65,0,0,0-.32-.07.24.24,0,0,0-.23.18.64.64,0,0,1-.18.27.54.54,0,0,0-.15.29.34.34,0,0,0,.31,0l.3-.14m-.38-1.74A.68.68,0,0,0,47,38c-.11.11-.09.19,0,.25a.87.87,0,0,0,.47.1.41.41,0,0,0,.29-.13.38.38,0,0,0,0-.15.56.56,0,0,0-.12-.29.42.42,0,0,0-.31,0l-.15.06m-1.51,1.48v-.14a.45.45,0,0,0-.2-.21c-.1,0-.17,0-.15.16a.26.26,0,0,0,.19.21h.11m1.14-2.24a.26.26,0,0,0-.27,0,.31.31,0,0,0-.16.24.28.28,0,0,0,.28,0,.25.25,0,0,0,.15-.23M46,34.44a.43.43,0,0,0,0-.16.29.29,0,0,0-.08-.14c-.11-.1-.2-.1-.23,0a.38.38,0,0,0,0,.15.18.18,0,0,0,.21.15h0m-.84-1a.26.26,0,0,0,.19-.25h-.16a.35.35,0,0,0-.14.06c-.12.09-.13.17,0,.24h.16M44.69,35v.12c.12.1.18.08.18-.08h-.13m2.16.85h-.12v.13h.12v-.12m1.15,4c-.1-.09-.15-.07-.15.07H48v-.11m.77.85c.1-.13.07-.19-.1-.19v.14h.14m-6.44-19-.14.07a1,1,0,0,0-.32.37,9.62,9.62,0,0,0-.36,1.27.58.58,0,0,0,0,.32h0l.15-.08a.8.8,0,0,0,.32-.36A8.88,8.88,0,0,0,42.41,22a.44.44,0,0,0,0-.32h0m20-13.27a.33.33,0,0,0,.33.3A.26.26,0,0,0,63,8.53c0-.1-.06-.17-.18-.22a.5.5,0,0,0-.34,0,.28.28,0,0,0,0,.13m.64,3.32a1.08,1.08,0,0,0,.39-.28v-.15c0-.05-.11,0-.16,0a.4.4,0,0,0-.24.18.27.27,0,0,0,0,.3Zm.3-1.63a.43.43,0,0,1,.16,0c.06,0,.06-.09.06-.13a.25.25,0,0,0-.17-.25h-.12a.24.24,0,0,0,.07.3M61.47,8l-.14.08c-.11.1-.1.19,0,.22h.15a.19.19,0,0,0,.15-.22h-.16m-3-.28a.25.25,0,0,0,.16-.26h-.12a.24.24,0,0,0,0,.3Zm.66.4a.24.24,0,0,0,.25.16V8.21a.32.32,0,0,0-.3,0ZM42.64,21.23a.23.23,0,0,0,.17-.25h-.13a.24.24,0,0,0,0,.3ZM63.14,9.29V9.18l-.08.1ZM42.48,21.68a.31.31,0,0,0,.14-.41v0h0l-.11.09A.32.32,0,0,0,42.48,21.68Zm-.77,2a.3.3,0,0,0-.14.25h.12a.24.24,0,0,0,0-.28ZM64.78,11.91a.27.27,0,0,0,.15-.27h-.15a.25.25,0,0,0,0,.31Z"/>
                </g>
            </g>
        </g>
    </g>
</svg>
