<svg xmlns="http://www.w3.org/2000/svg" viewBox="0 0 111.77 188.63"><defs><style>.cls-1{fill:#aada91;}</style></defs><g id="Layer_2" data-name="Layer 2"><g id="Layer_1-2" data-name="Layer 1"><path class="cls-1" d="M90.43,154.36a.6.6,0,0,1-.42.25.72.72,0,0,1-.5,0c-.46-.22-.91-.47-1.35-.72-.15-.08-.16-.08-.49-.09a1,1,0,0,1-.49-.1l-.3-.16a1.27,1.27,0,0,0-.32-.13.91.91,0,0,0-.33,0,.63.63,0,0,1-.33-.09l-3.73-2a1.17,1.17,0,0,0-.49-.11,1.17,1.17,0,0,1-.48-.15l-.75-.41L77.62,149c-.14-.08-.15-.08-.48-.12a1.38,1.38,0,0,1-.49-.14l-3.87-2.15a1.45,1.45,0,0,0-.65-.16H72l-.15-.06c-.57-.27-1.11-.58-1.65-.9-1-.56-2-1.13-3-1.67a.63.63,0,0,0-.33-.09h-.17a.67.67,0,0,1-.55-.33,1,1,0,0,0-.35-.37l-.58-.34a1,1,0,0,0-.48-.15,1,1,0,0,1-.65-.17,6.79,6.79,0,0,1-1-.6.45.45,0,0,1-.1-.31,1.43,1.43,0,0,1,.06-.5,1.08,1.08,0,0,1,.15-.49L65,137.18a1,1,0,0,0,.12-.49,1.18,1.18,0,0,1,.12-.49c.06-.1.11-.2.16-.3.39-.7.78-1.39,1.16-2.09a1,1,0,0,0,.14-.48.93.93,0,0,1,.11-.49l.48-.9c1.16-2.08,2.36-4.15,3.54-6.22l.51-.88a1.35,1.35,0,0,0,.18-.65.72.72,0,0,1,.08-.32c.17-.3.32-.61.5-.9.71-1.23,1.39-2.47,2.07-3.72a.93.93,0,0,0,.11-.49,1.16,1.16,0,0,1,.14-.48l1.73-3.13a1.53,1.53,0,0,0,.24-.8.25.25,0,0,1,0-.17c.22-.47,1.73-3.19,2.15-3.87a.32.32,0,0,1,.1-.13.44.44,0,0,1,.32,0,1.27,1.27,0,0,1,.32.13l.59.32,2.66,1.53c.74.43,1.47.85,2.19,1.31a1,1,0,0,1,.47.48.92.92,0,0,0,.23.25l1.45.88a1.57,1.57,0,0,1,.49.47c.17.26.18.26.34.36l.86.55a1.47,1.47,0,0,1,.46.5.59.59,0,0,0,.23.24l.56.38a1.12,1.12,0,0,1,.46.5.89.89,0,0,0,.21.26A2,2,0,0,1,91,119a1,1,0,0,0,.37.35.92.92,0,0,1,.22.26,1.66,1.66,0,0,0,.44.51.75.75,0,0,1,.22.25c.15.31.41.54.57.84a7.92,7.92,0,0,1,.47.71,2.72,2.72,0,0,0,.24.24,1.75,1.75,0,0,1,.34.38c.16.3.4.54.55.85a2.94,2.94,0,0,0,.47.7,1.63,1.63,0,0,1,.33.59,2.34,2.34,0,0,0,.41.74c.12.19.22.4.36.58s.21.39.36.57a1.28,1.28,0,0,1,.21.46l.21.65a1.7,1.7,0,0,0,.24.44,1.46,1.46,0,0,1,.17.3c.1.27.18.54.26.81.22.82.45,1.64.68,2.46a.87.87,0,0,0,.16.3,1.49,1.49,0,0,1,.26.79,1.56,1.56,0,0,0,0,.68c.06.21.11.44.15.66a1.06,1.06,0,0,1,0,.5c-.07.28,0,.57-.06.85a2.09,2.09,0,0,0,0,.5l.06.34a.49.49,0,0,1,0,.17,2.16,2.16,0,0,0,.05.84.72.72,0,0,1,0,.5l-.06.16c-.1.29-.1.29.09.62a.51.51,0,0,1,.08.32v.68c0,.23,0,.45,0,.68a4.91,4.91,0,0,1-.05.85.8.8,0,0,1-.31.57l-.14.09c-.21.12-.23.18-.18.4a.81.81,0,0,0,.21.46.48.48,0,0,1,.06.61c-.07.15-.15.3-.22.46a.47.47,0,0,0,0,.33,2.33,2.33,0,0,0,.1.5c0,.17,0,.28-.28.34a.62.62,0,0,1-.5,0h0c0-.1.11-.2.15-.3a.42.42,0,0,0-.07-.45,1.38,1.38,0,0,1-.25-.42.47.47,0,0,0-.21-.25.72.72,0,0,0-.05-.64l-.09-.14a.25.25,0,0,0-.24.17.29.29,0,0,0,.07.4l0,0a1.67,1.67,0,0,0,.28.18l-.12.11a1.62,1.62,0,0,1-.48.17.81.81,0,0,0-.63.5.36.36,0,0,0,0,.46,1.25,1.25,0,0,1,.29.6c0,.14,0,.22-.12.27s-.42.39-.69.48-.18.1-.16.25a.76.76,0,0,1-.08.49c-.15.24-.26.5-.41.75a.75.75,0,0,0-.06.49.79.79,0,0,1-.23.62c-.14.16-.29.13-.36-.07s-.1-.32-.16-.48a.75.75,0,0,0-.49-.43h-.17a.74.74,0,0,0-.33.05c-.22.07-.26.16-.15.34s.18.29.15.45a.32.32,0,0,1-.22.24c-.22.11-.22.12-.26.37v.16a.5.5,0,0,1-.34,0,.37.37,0,0,0-.32.07,1.44,1.44,0,0,1-.42.27.57.57,0,0,0-.31.37.37.37,0,0,0,.14.3.22.22,0,0,1,.07.28.31.31,0,0,1-.32,0,1.2,1.2,0,0,0-.31-.13.49.49,0,0,0-.17,0v.14a.41.41,0,0,0,.1.13c.15.22.15.22.09.47h0a.31.31,0,0,0-.32,0,.39.39,0,0,0-.2.41,1,1,0,0,1,0,.34.93.93,0,0,1-.33.55,2.69,2.69,0,0,1-.29.16.34.34,0,0,0-.19.44.41.41,0,0,0,.07.11,1.43,1.43,0,0,1,.25.43,1,1,0,0,0,.11.31.75.75,0,0,0,.38.52l.14.09Zm-1.35-33a.24.24,0,0,0,0,.3h.13a.25.25,0,0,0-.15-.26.23.23,0,0,0,0-.31h-.14a.22.22,0,0,0,.17.26m-3.19-.65.26.14a.43.43,0,0,0,.27.06.38.38,0,0,0,.23-.16.35.35,0,0,0,.44-.08,1.09,1.09,0,0,1,.4-.27c.29-.16.35-.33.25-.69,0,0,0-.09-.07-.14s-.13-.14-.25,0a12.39,12.39,0,0,0-.76,1.26l-.25-.14a.34.34,0,0,0-.48,0l0,0a.21.21,0,0,0-.26,0c-.09.07-.07.14,0,.16a.22.22,0,0,0,.21-.15m1.18.67a.7.7,0,0,0,.63,0,.38.38,0,0,0,.13-.09.21.21,0,0,0-.16-.23.28.28,0,0,0-.39.08s0,0,0,0a1.67,1.67,0,0,0-.18.28.24.24,0,0,0-.3,0v.13a.24.24,0,0,0,.26-.16m8.29,21.11a.27.27,0,0,0,0,.3h.13a.25.25,0,0,0-.15-.26.42.42,0,0,0,.06-.31,2,2,0,0,0-.08-.33.18.18,0,0,0-.19-.17h0a1,1,0,0,0-.45.19.42.42,0,0,0,.16.27,4.19,4.19,0,0,0,.58.34m-8.06-19.21.15.07a.36.36,0,0,0,.32,0,.92.92,0,0,0,0-.33,1,1,0,0,0-.25-.43.53.53,0,0,1-.18-.28c0-.13-.11-.19-.23-.18H86.9a.22.22,0,0,0-.27.16.21.21,0,0,0,.15.27h0a1.86,1.86,0,0,1,.25.43.59.59,0,0,0,.24.23m-5.76-5.7.29.14a.43.43,0,0,0,.16,0,.35.35,0,0,0,.2-.23.3.3,0,0,0-.1-.28,1.64,1.64,0,0,0-.43-.24.41.41,0,0,0-.28.11.23.23,0,0,0,0,.3.47.47,0,0,0,.21.23m-1.71-1.77c-.25-.12-.34-.17-.45-.21a.2.2,0,0,0-.24.06c0,.06,0,.12.06.15a2.46,2.46,0,0,1,.57.59c0,.15.12.17.25.07a.36.36,0,0,0,.06-.45l-.25-.21m18.33,22.24a.33.33,0,0,0,0-.14.61.61,0,0,0-.54-.32h-.14a1,1,0,0,0,0,.34.3.3,0,0,0,.19.24.59.59,0,0,0,.46-.16M80.3,114.48l-.06-.16a.36.36,0,0,0-.3-.08.3.3,0,0,0-.23.22v.16a.44.44,0,0,0,.32,0,.48.48,0,0,0,.26-.16m17.84,25.1a.26.26,0,0,0,0-.29H98a.85.85,0,0,0-.31.09l-.14.08a.3.3,0,0,0,.17.25c.18.1.27.08.39-.11M80.4,119.12a.34.34,0,0,0,0-.28.31.31,0,0,0-.25.13.24.24,0,0,0,0,.28.24.24,0,0,0,.24-.13M97.3,140.87a.21.21,0,0,0,.24-.15v0a.21.21,0,0,0-.06-.25.2.2,0,0,0-.23.17h0v.25m-8.14,10.66h.17a.26.26,0,0,0,.07-.15c0-.15,0-.22-.13-.18s-.08.06-.12.1a.19.19,0,0,0,0,.25l0,0m-6.17-29.31a.26.26,0,0,0,.09-.14c0-.17,0-.22-.16-.15a.43.43,0,0,0-.11.12c-.07.12,0,.2,0,.24s.11,0,.14-.07m1.92-3.35L85,119a.33.33,0,0,0,.14,0c.05-.07,0-.14-.06-.22a.22.22,0,0,0-.27-.06.18.18,0,0,0,0,.22m1.38.76c.15,0,.19,0,.12-.16h-.14v.13m4.26,2.73.06.12.08-.1ZM83.3,119c0-.15,0-.18-.15-.1V119h.13m8.26,4.76-.06-.12-.08.1Zm-3.66-5.25-.06-.12-.07.11Zm-3.62,1.35h-.11l.1.07Zm.6.32h-.12c0,.14,0,.18.15.11v-.13M88.3,150.9l-.12.06.09.07ZM86,121.32l.06.12.08-.1Zm2.08,1.33c.15,0,.19,0,.11-.16H88v.14M94.2,145l0-.12-.08.1Zm.79-.35.07.12.07-.1Zm-4.75-20c0-.14,0-.18-.15-.11v.13h.13m-11.22-6c.14,0,.17,0,.11-.15H79v.12m-3.11,6.06c.13,0,.17,0,.1-.14h-.12v.12m.9-2.7c0-.14,0-.18-.15-.11V122h.12m5.85,1.29-.12.06.09.07Zm-3.06-2c0-.15,0-.18-.15-.11v.13h.13m-.71-.34c.14,0,.17,0,.1-.14h-.12V121M97.54,147a.4.4,0,0,0,.29-.12,1,1,0,0,0,.23-.44.43.43,0,0,0,0-.16h-.15c-.12.07-.21.23-.39.16s.06-.32.12-.47a.51.51,0,0,1,.23-.23l.14-.09c.14-.05.17-.14.08-.26a.26.26,0,0,0-.15-.07.28.28,0,0,0-.3.07c-.19.21-.31.47-.49.68s-.2.1-.26,0a.64.64,0,0,1-.1-.13.52.52,0,0,0-.11-.1.24.24,0,0,0-.22.22.31.31,0,0,0,.09.29,3.59,3.59,0,0,0,.6.42l.41.19m-.17,2.69a.44.44,0,0,0,0-.32,3.36,3.36,0,0,1-.35-.57.4.4,0,0,0-.27-.19c-.17,0-.21.07-.13.38a1.87,1.87,0,0,0,.08.32.62.62,0,0,1,0,.33,4.59,4.59,0,0,0-.17.48c0,.12,0,.2.13.28a.2.2,0,0,0,.28,0l0,0a1.69,1.69,0,0,0,.29-.41c0-.1.1-.2.14-.3M96.48,152a.63.63,0,0,0,.1-.32V151a.12.12,0,0,0-.07-.11l-.15.06a1.05,1.05,0,0,0-.26.61,1.84,1.84,0,0,1-.18.8.24.24,0,0,0,0,.28s.12,0,.15-.08a2.75,2.75,0,0,0,.19-.28l.15-.3m2.2-22a.44.44,0,0,0,0,.32l.3,1.13a.19.19,0,1,0,.37,0,.43.43,0,0,0,0-.16,3.58,3.58,0,0,0-.14-.65.87.87,0,0,0-.52-.61Zm-1.06,14.77a.75.75,0,0,1-.26-.41.38.38,0,0,0-.36-.26.25.25,0,0,0-.24.19.29.29,0,0,0,0,.31,1,1,0,0,0,.26.19.49.49,0,0,0,.31.09.29.29,0,0,0,.26-.16Zm-5.74,8.13-.14-.08c-.2-.09-.28,0-.37.15a.3.3,0,0,0,0,.29.46.46,0,0,0,.27.13.21.21,0,0,0,.23-.19.39.39,0,0,0,0-.3m5.66-5a.28.28,0,0,0-.24.13.24.24,0,0,0,0,.28.24.24,0,0,0,.24-.12.37.37,0,0,0,0-.29m-5.91,7.3v.14h.13c0-.15,0-.19-.16-.12M91,155l.11.07v-.13Zm-.59-.59a.23.23,0,0,0,.31,0v-.13a.23.23,0,0,0-.27.15Zm4.27.35.1.07v-.13Zm-4.15-2.43v.13h.13c0-.15,0-.19-.16-.11m.38-.78a.27.27,0,0,0,0,.3H91a.24.24,0,0,0-.14-.26Zm-.12-.47c-.08.24-.06.33.12.47h0a.28.28,0,0,0,0-.25.37.37,0,0,0-.16-.21Zm7.79-21a.22.22,0,0,0,0-.27h-.11a.27.27,0,0,0,.14.24Z"/><path class="cls-1" d="M105.63,99.62a.73.73,0,0,0-.31.14c-.25.22-.45.52-.81.58-.14.06-.18.14-.09.23a.39.39,0,0,0,.14.08.36.36,0,0,1,.28.18.46.46,0,0,1-.28.17.28.28,0,0,0-.15.08c-.08.07-.07.17,0,.28s.09.21,0,.26h-.16a1,1,0,0,1-.64-.16l-.15-.08a.49.49,0,0,0-.27.15c-.08.09-.17.16-.25.24a.43.43,0,0,1-.44,0c-.15-.08-.19,0-.22.12a.31.31,0,0,0,.1.31.39.39,0,0,0,.14.08c.29,0,.47.31.75.38s.28.14.31.34,0,.23,0,.34a.35.35,0,0,0,.34.31h.67a.39.39,0,0,1,.34.32,1.16,1.16,0,0,0-.49,0l-.12.11a.63.63,0,0,0,.12.11.29.29,0,0,0,.31,0A.28.28,0,0,0,105,104a.82.82,0,0,0,.45-.21.38.38,0,0,1,.33,0,.4.4,0,0,1,.24.4.56.56,0,0,1-.14.46,2.1,2.1,0,0,1-.3.15.27.27,0,0,0-.17.26.49.49,0,0,0,0,.17,1.05,1.05,0,0,0,.2.27.46.46,0,0,0,.28.17l.15-.08c.22-.1.23-.1.34.19a1.4,1.4,0,0,0,.15.3.8.8,0,0,1,.18.47v.85a.77.77,0,0,0,.22.45,1.06,1.06,0,0,0,.56.34l.12.12s-.06.11-.1.12a1.25,1.25,0,0,0-.67.48c-.06.11,0,.19.12.23a1.93,1.93,0,0,0,.34,0,.35.35,0,0,1,.38.25c0,.15,0,.28-.17.46a.84.84,0,0,1-.59.29h-.68a1.82,1.82,0,0,0-.33,0,1.4,1.4,0,0,0-.3.15.64.64,0,0,1-.33.1H101a1.1,1.1,0,0,0-.47.16,1,1,0,0,1-.49.12c-1,0-2,.07-3.06.07a.94.94,0,0,0-.49.12A1,1,0,0,1,96,111l-2.72.06a1,1,0,0,0-.34,0,.85.85,0,0,0-.3.15,1,1,0,0,1-.49.12h-2a.92.92,0,0,0-.48.16c-.3.15-.3.15-.47.16h-1l-.15.08-.29.17a2.67,2.67,0,0,0-.62.28H79.3a2.18,2.18,0,0,1-.51,0h-.15c-.12-.07-.13-.16,0-.29.13-.32.13-.35,0-.63a1,1,0,0,1-.15-.48l-.06-2.38a1.93,1.93,0,0,0,0-.34,2.1,2.1,0,0,0-.15-.3.73.73,0,0,1-.09-.32c-.06-.74,0-1.48-.07-2.21a.91.91,0,0,0-.15-.48,1.2,1.2,0,0,1-.14-.49V100.5a.81.81,0,0,0-.13-.48.9.9,0,0,1-.17-.47c0-.85-.07-1.7-.06-2.55a.49.49,0,0,0,0-.17,1.77,1.77,0,0,0-.15-.31.23.23,0,0,1,0-.31,1,1,0,0,0,.07-.15,2.88,2.88,0,0,1-.13-.31.38.38,0,0,1,0-.15,1.28,1.28,0,0,0,.18-.47.91.91,0,0,0-.16-.64.21.21,0,0,1,0-.3h0a.9.9,0,0,0,.17-.47,1.33,1.33,0,0,1,0-.34,1,1,0,0,1,.16-.29.51.51,0,0,0,0-.63.8.8,0,0,1-.15-.47v-.17c0-.2-.08-.26-.32-.35a.43.43,0,0,1-.3-.36V88.55a1.17,1.17,0,0,0-.15-.48,1.2,1.2,0,0,1-.14-.49c0-.85,0-1.7-.08-2.55a.75.75,0,0,0-.1-.32,1.19,1.19,0,0,1-.16-.48c0-1.07-.09-2.15-.07-3.23a1,1,0,0,0-.16-.47,1,1,0,0,1-.11-.49,13,13,0,0,1,0-1.53.53.53,0,0,1,.12-.32c.11-.13.23-.25.35-.37s.12-.19,0-.29c-.13-.28-.09-.34.27-.35h.17a1.29,1.29,0,0,1,.81.19.81.81,0,0,0,.8,0l.16-.08a1,1,0,0,1,.48-.12h2.22a1.14,1.14,0,0,1,.8.21.62.62,0,0,0,.33.08h3.4a1,1,0,0,1,.64.19.9.9,0,0,0,.32.09h.85a1.19,1.19,0,0,1,.48.16.91.91,0,0,0,.48.15,13.22,13.22,0,0,1,1.53.06.92.92,0,0,1,.32.1,1.08,1.08,0,0,0,.3.16.92.92,0,0,0,.33,0,4.88,4.88,0,0,1,.85.07.42.42,0,0,1,.14.09c.13.12.12.32.27.42l.46-.17a.49.49,0,0,1,.17,0c.17,0,.2.12.09.24s-.1.25.15.35l.16.06.43.26a1.26,1.26,0,0,1,.46.2,1.15,1.15,0,0,0,.48.17.9.9,0,0,1,.48.14,1.69,1.69,0,0,0,.29.17,2.41,2.41,0,0,1,.6.3.7.7,0,0,1,.32.12,2.87,2.87,0,0,0,.44.25,2.35,2.35,0,0,1,.45.22c.19.15.43.16.61.3a1.53,1.53,0,0,0,.46.23,1,1,0,0,1,.29.16,3.11,3.11,0,0,0,.52.44c.1,0,.22.07.31.12a1.39,1.39,0,0,1,.27.21,1.55,1.55,0,0,0,.71.44,2.9,2.9,0,0,1,.29.19,1.68,1.68,0,0,0,.3.15c.19.09.19.09.33.36.06.1.12.21.23.24a1.34,1.34,0,0,1,.82.81.37.37,0,0,0,.23.23,1.48,1.48,0,0,1,.43.27l1.68,1.68a1.44,1.44,0,0,1,.37.57,1.35,1.35,0,0,0,.2.27c.3.34.62.67.92,1a.79.79,0,0,1,.18.29,2.13,2.13,0,0,0,.38.56,1.92,1.92,0,0,1,.36.56.88.88,0,0,0,.18.29l.57.64c.07.08.13.18.2.27a2.31,2.31,0,0,0,.45.71,1.1,1.1,0,0,1,.2.28A3.81,3.81,0,0,0,109,93a1.08,1.08,0,0,1,.16.3,2.38,2.38,0,0,0,.23.45,1.23,1.23,0,0,1,.14.31,1.4,1.4,0,0,0,.15.3c.16.24.2.53.37.76a1,1,0,0,1,.16.48.94.94,0,0,0,.08.33.64.64,0,0,0,.08.14c.17.23.21.53.38.76a.72.72,0,0,1,.15.47,1.19,1.19,0,0,0,.16.48,1,1,0,0,1,.16.47v.34a1.93,1.93,0,0,0,0,.34,1.08,1.08,0,0,0,.16.3.9.9,0,0,1,.09.32V100a.83.83,0,0,0,.15.48.88.88,0,0,1,.16.47v1c0,.17,0,.35-.2.45a.6.6,0,0,1-.84-.25c-.09-.25-.16-.29-.35-.32H110a.35.35,0,0,1-.31-.33h0a.24.24,0,0,0,.24-.13.11.11,0,0,0,0-.11.28.28,0,0,0-.24-.13h0a.4.4,0,0,0-.33-.33h-.17c-.3,0-.46-.09-.43-.17a.64.64,0,0,1,.18-.28c.08-.08.15-.17.22-.25l.08-.16a.33.33,0,0,0-.27-.15.81.81,0,0,0-.64.14c-.11.09-.21.11-.28,0a.36.36,0,0,1,0-.32.39.39,0,0,1,.08-.14c.08-.11.12-.22.07-.28a.28.28,0,0,0-.31-.08l-.15.08a.51.51,0,0,1-.29.1.22.22,0,0,1-.08-.3.4.4,0,0,1,.22-.22h.17c.43,0,.43,0,.46-.15s-.22-.19-.35-.26-.15-.17,0-.25l.16-.05c.13,0,.21-.12.16-.2a.26.26,0,0,0-.29-.12,1.93,1.93,0,0,0-.34,0,1.18,1.18,0,0,0-.29.16.22.22,0,0,1-.3,0h0c-.17-.14-.25-.31-.18-.39a.39.39,0,0,1,.31-.1h.17a.72.72,0,0,0,.44-.22A.92.92,0,0,0,108,97a2.67,2.67,0,0,1,.2-.46.81.81,0,0,0,.17-.28.38.38,0,0,0,0-.33,1.39,1.39,0,0,1-.27-.78.36.36,0,0,0-.15-.29l-.15.06a2,2,0,0,1-.3.14,1,1,0,0,1-.34,0,1.66,1.66,0,0,0-.94.29,2.67,2.67,0,0,0-.46.2,1.69,1.69,0,0,1-.29.17h-.16a.17.17,0,0,0-.13.1.4.4,0,0,0,.06.28.2.2,0,0,1,0,.28l0,0a.18.18,0,0,0,0,.25l0,0a.85.85,0,0,1,.15.3.92.92,0,0,1,0,.33.53.53,0,0,0,.1.32c.06.09.1.2.15.29s-.13.19-.18.29a.43.43,0,0,0,0,.46.77.77,0,0,1,.22.45Zm-2.73,6.13a.23.23,0,0,0,.15.26l.09-.09a.57.57,0,0,1-.41-.41l-.1.1a.25.25,0,0,0,.27.14m-2.41-3.4a1.82,1.82,0,0,0,.33,0,.49.49,0,0,0,.17,0,.28.28,0,0,0,.15-.27c0-.13,0-.23-.14-.28a.42.42,0,0,0-.31,0c-.12,0-.15.15-.16.28s0,.22,0,.33a.24.24,0,0,0-.27.15l.1.09a.22.22,0,0,0,.14-.26m1.73,2a.33.33,0,0,0,.15.27.42.42,0,0,0,.31,0s.08-.08.12-.12a.31.31,0,0,0-.28-.14h-.33a.49.49,0,0,0,0-.17,1.27,1.27,0,0,0-.46-.46.62.62,0,0,0-.33,0c-.12,0-.14.15-.13.27a.34.34,0,0,0,.31.31c.22,0,.45,0,.67,0M79.71,103h.16a2.22,2.22,0,0,1,.59-.31.27.27,0,0,0,.12-.09.11.11,0,0,0,0-.11.29.29,0,0,0-.12-.1h-.83l-.44-.25a.42.42,0,0,0-.31,0s-.08.07-.12.11a.58.58,0,0,0,0,.32l.12.11a4.13,4.13,0,0,1,.49.07.38.38,0,0,1,.32.33.24.24,0,0,0-.27.15l.09.1a.28.28,0,0,0,.15-.27M82,100.33h.49l.28.18a.43.43,0,0,0,.44.08c.1-.06.09-.15,0-.26a.64.64,0,0,1-.08-.14.6.6,0,0,1,.13-.28.55.55,0,0,0,.11-.3V99a.22.22,0,0,0,.25-.14l-.08-.09a.26.26,0,0,0-.15.26h-.32c-.29,0-.32-.08-.23-.29s.11-.3-.08-.36a1.72,1.72,0,0,1-.43-.21c-.13-.09-.21-.09-.26.06a.42.42,0,0,0,0,.31c0,.09.12.18.17.27s-.14.28-.2.41a.49.49,0,0,0,0,.17h-.65c-.22,0-.35-.16-.38-.43v-.16a.38.38,0,0,0-.4-.4,3.84,3.84,0,0,1-.48,0,.56.56,0,0,0-.31.09.31.31,0,0,0-.15.26.24.24,0,0,0-.23.11.09.09,0,0,0,0,.1.24.24,0,0,0,.23.11.43.43,0,0,1,0,.16,10.59,10.59,0,0,1-.79.85.39.39,0,0,0-.08.14.33.33,0,0,0,0,.14,2.61,2.61,0,0,0,.17.28v.5a.22.22,0,0,0-.26.15l.09.1a.26.26,0,0,0,.15-.28h.51c.31,0,.43-.06.51-.34a.64.64,0,0,1,.16-.29l.48-.48.13-.11a.41.41,0,0,1,.47,0l.29.18a1.34,1.34,0,0,0,.39-.32.43.43,0,0,0,.13-.3h.66a.39.39,0,0,1,.28.15s0,.1-.08.14a1,1,0,0,1-.53.39.37.37,0,0,0-.31.34.32.32,0,0,0-.27.14.34.34,0,0,0,0,.31l.12.12a.28.28,0,0,0,.15-.27v-.33m20.76.37a1,1,0,0,0-.34,0c-.19,0-.23.19-.09.35l.12.12a.2.2,0,0,0,.28,0h0c.13-.08.32-.31.31-.38a.37.37,0,0,0-.29-.14m-18.92,1.16a.26.26,0,0,0-.07.29.69.69,0,0,0,.11.13s.1-.06.12-.11a.23.23,0,0,0,0-.29H84m21.31-6.59c-.12,0-.19.08-.17.16a.17.17,0,0,0,.2.13l0,0a.18.18,0,0,0,.18-.16.2.2,0,0,0-.26-.11M80.61,111l-.1-.11a.35.35,0,0,0-.28.06q-.12.1.06.21a.35.35,0,0,0,.28-.06V111m.74-32.66c0-.14-.11-.15-.18,0l.09.09.09-.07M107.2,95.05c0-.14-.11-.14-.19,0l.09.1.1-.08m-25.65,2.8.07-.12H81.5Zm22.84,1.52-.09.08c0,.13.1.14.17,0a.39.39,0,0,0-.08-.1m-2.75,1.89c.13-.05.14-.11,0-.19l-.1.09.08.1M82.3,102.54l-.11-.07v.12Zm4.78,2c0-.13-.11-.14-.18,0l.08.1.1-.08m16.36,0-.08-.1c-.14,0-.15.11,0,.18l.1-.08m-4.2,4.86c.13,0,.14-.11,0-.19l-.09.09.08.1m-18,.94c0-.13-.11-.14-.19,0l.09.1.1-.08m24.28-10.76a.28.28,0,0,0,.15.27l.15.06a3.84,3.84,0,0,0,.83,0,.32.32,0,0,0,.17-.25.24.24,0,0,0-.1-.29.42.42,0,0,0-.31,0,.39.39,0,0,0-.14.08l-.28.18-.5,0Zm-1.12,2.93c-.07-.11-.15-.09-.24,0a.85.85,0,0,1-.18.46c-.1.12-.1.2,0,.27a.36.36,0,0,0,.43-.14,1.65,1.65,0,0,0,.06-.32.48.48,0,0,0-.08-.31m2.65-2.14a.24.24,0,0,0-.28-.06c-.13,0-.16.14-.08.21a.31.31,0,0,0,.29.06s.08-.06.12-.09,0-.09,0-.12M106,96.7l.09.09.1-.07c0-.13-.11-.14-.19,0m2.73,5.09c0,.14.11.14.18,0l-.08-.1-.1.08m.93.2v-.37h0a.25.25,0,0,0-.24.1.11.11,0,0,0,0,.11.25.25,0,0,0,.24.11h0M79.94,98.75a.21.21,0,0,0,0-.11.28.28,0,0,0-.24-.13V99a.29.29,0,0,0,.24-.13"/><path class="cls-1" d="M.06,179.49v-8.85A1.26,1.26,0,0,1,.3,170a.61.61,0,0,0,.08-.32c0-1.7.08-3.41.07-5.11V161a1.16,1.16,0,0,1,.14-.48.76.76,0,0,0,.11-.32c0-1,.05-3.56,0-4.6a.9.9,0,0,0-.14-.48,2.05,2.05,0,0,1-.19-.64.76.76,0,0,0-.11-.32c-.15-.25-.15-.26,0-.43l.33-.39c.11-.13.13-.31.23-.44a.27.27,0,0,1,.31-.1,1,1,0,0,1,.3.14.94.94,0,0,0,.49.12H8.38a1.67,1.67,0,0,1,1,.19.68.68,0,0,0,.31-.11,1.07,1.07,0,0,1,.5-.07h2a1,1,0,0,1,.48.15.61.61,0,0,0,.64,0,.23.23,0,0,1,.31,0,1.33,1.33,0,0,0,.65.16h3.56a1.24,1.24,0,0,1,.65.17.62.62,0,0,0,.32.09H31.73a1.45,1.45,0,0,0,.65-.16.93.93,0,0,1,.49-.11h2.9a.41.41,0,0,1,.27.17v4.09a1.1,1.1,0,0,0,.16.47,1,1,0,0,1,.12.49.8.8,0,0,1-.12.48,1.2,1.2,0,0,0-.17.48v.5a.63.63,0,0,1-.09.33l-.15.3v.51a1,1,0,0,1-.18.64,1.28,1.28,0,0,0-.18.47,1.43,1.43,0,0,1-.21.64.75.75,0,0,0-.1.32v.51a1.19,1.19,0,0,1-.16.48.84.84,0,0,0-.12.31,1.77,1.77,0,0,1-.05.51,1.07,1.07,0,0,1-.14.49,1.18,1.18,0,0,0-.17.64v.85a1.43,1.43,0,0,1-.21.64.76.76,0,0,0-.11.32v.51a1,1,0,0,1-.28.6c-.31.36-.31.3-.38.73a1.11,1.11,0,0,1-.17.47,1.77,1.77,0,0,0-.15.31,1.08,1.08,0,0,1-.34.57l-.12.13-.19.27c-.12.26-.25.51-.39.76a1.4,1.4,0,0,1-.15.3l-.22.26a2.11,2.11,0,0,0-.34.58c-.07.22-.24.38-.31.6s-.24.39-.33.6a1.45,1.45,0,0,1-.26.43l-.45.51a2.15,2.15,0,0,0-.37.57,1.07,1.07,0,0,1-.19.28c-.23.25-.46.5-.7.74a2,2,0,0,0-.48.69l-.09.15a6.43,6.43,0,0,1-.95.93,1.52,1.52,0,0,1-.43.28.84.84,0,0,0-.28.18l-1.25,1.16a2.34,2.34,0,0,1-.55.38.8.8,0,0,0-.28.2l-.74.69a1.77,1.77,0,0,1-.7.47l-.28.2c-.22.18-.42.38-.64.56a1.34,1.34,0,0,1-.28.18c-.22.09-.39.25-.6.33a2.51,2.51,0,0,0-.71.45,1.1,1.1,0,0,1-.28.2,6.72,6.72,0,0,0-.75.4A1.42,1.42,0,0,0,19,185a1.87,1.87,0,0,1-.72.42c-.24.17-.52.24-.76.39s-.52.22-.76.38a1.58,1.58,0,0,1-.63.22.78.78,0,0,0-.32.12c-.29.18-.63.25-.92.44a.9.9,0,0,1-.32.09,1.17,1.17,0,0,0-.48.15,1.79,1.79,0,0,1-.64.21.52.52,0,0,0-.32.11c-.28.19-.62.27-.92.44a.28.28,0,0,1-.15.06H10.48a1,1,0,0,0-.34,0,1.4,1.4,0,0,0-.3.15,1.36,1.36,0,0,1-.49.12H8a1,1,0,0,0-.48.14,1.19,1.19,0,0,1-.49.13c-2,0-4,.1-6,0H.18a.47.47,0,0,1-.18-.28v-9Zm17.66-22.06c.18,0,.27-.05.3-.25s0-.29-.24-.32-.28,0-.31.25,0,.28.25.32m4.43-1.27a.15.15,0,0,0-.17.16c0,.1.06.09.1.1a.26.26,0,0,0,.27,0,.14.14,0,0,1,.06-.11.2.2,0,0,0-.26-.1M22.3,159l.1.07V159Zm-2.1-1.7.08.11c.14,0,.15-.12,0-.2l-.1.09m-.91-.08-.1.07c0,.13.11.14.18,0l-.08-.09m-1.7,5.11-.09.08c0,.14.1.14.16,0l-.07-.1m10,17.65a.77.77,0,0,0-.62.16l-1,.9a.43.43,0,0,0-.13.3H26a.76.76,0,0,0,.46-.16,8.64,8.64,0,0,0,1-.91.46.46,0,0,0,.11-.3Zm-2.75,2h.29a.44.44,0,0,0,.27-.09.38.38,0,0,0,.13-.24h0a1,1,0,0,0-.34,0,.42.42,0,0,0-.34.32Zm5.48-5.42a.39.39,0,0,0-.32.34,1,1,0,0,0,0,.34h0a.42.42,0,0,0,.33-.4v-.28Zm-5.79,5.79a.3.3,0,0,0-.27.14l.09.09a.26.26,0,0,0,.15-.26Zm.34-.35a.4.4,0,0,0-.34.35h.13a.33.33,0,0,0,.21-.31Zm5.76-5.81a.29.29,0,0,0,.25-.15l-.09-.09a.33.33,0,0,0-.13.26Zm0,0a.35.35,0,0,0-.34.35h0a.28.28,0,0,0,.24-.1.37.37,0,0,0,.1-.24Zm-.68,1a.27.27,0,0,0-.24.09.46.46,0,0,0-.1.25h0A.37.37,0,0,0,29.93,177.15Zm-.71.65a.3.3,0,0,0,.31-.21v-.13h0a.37.37,0,0,0-.34.34Zm0,0A.26.26,0,0,0,29,178l.1.08a.26.26,0,0,0,.12-.27Zm-.71,1a.25.25,0,0,0,.25-.16l-.1-.08a.26.26,0,0,0-.12.27Zm0,0c-.24,0-.31.09-.34.34h0C28.4,179.14,28.46,179,28.51,178.8Zm-.71.65a.37.37,0,0,0,.34-.34h0a.35.35,0,0,0-.24.1.31.31,0,0,0-.1.24Zm-.34.35a.33.33,0,0,0,.31-.22.29.29,0,0,0,0-.13h0a.41.41,0,0,0-.26.09.27.27,0,0,0-.09.25Zm-1.69,1.38a.34.34,0,0,0-.25.09.26.26,0,0,0-.08.25h0a.38.38,0,0,0,.25-.09.27.27,0,0,0,.09-.24Z"/><path class="cls-1" d="M66,50.93c0-.1-.09-.21-.14-.31a.43.43,0,0,1,0-.16c0-.13.08-.17.23-.15a1.23,1.23,0,0,0,.65-.16c.22-.09.23-.09.46.07s.27.18.39,0a1.07,1.07,0,0,1,.49-.45,3.07,3.07,0,0,0,.42-.28c0-.11.11-.2.15-.31a.6.6,0,0,1,.2-.27,1.73,1.73,0,0,0,.19-.28,1.07,1.07,0,0,1,.47-.47c.79-.46,1.55-.94,2.37-1.33a.94.94,0,0,1,.33-.08,1.51,1.51,0,0,0,.66-.14c.15-.07.3-.15.46-.21h.17a1.75,1.75,0,0,0,.81-.19,1.56,1.56,0,0,1,.82-.2.72.72,0,0,0,.32-.08l.47-.21a.64.64,0,0,1,.33-.07c.28,0,.56-.08.84-.07a1.86,1.86,0,0,0,.66-.14.63.63,0,0,1,.33-.06,8.51,8.51,0,0,1,1-.06,2.54,2.54,0,0,1,.67-.06,6,6,0,0,1,.85,0,3.75,3.75,0,0,1,.67,0,1,1,0,0,0,.34,0,4.06,4.06,0,0,0,.85-.06c.23,0,.45,0,.67.09a1,1,0,0,0,.34,0,3,3,0,0,1,.84,0,1.46,1.46,0,0,0,.51,0,.91.91,0,0,1,.33,0c.34.06.67.16,1,.21a1,1,0,0,0,.34,0,1,1,0,0,1,.34,0c.44.1.88.21,1.33.3a1.4,1.4,0,0,0,.5,0,1.16,1.16,0,0,1,.81.2,2,2,0,0,0,.61.29l1.47.44a1,1,0,0,1,.32.12c.51.23.51.23.78.23a1,1,0,0,1,.78.28.75.75,0,0,0,.28.18l.49.16a1.18,1.18,0,0,1,.29.16,1.75,1.75,0,0,0,.29.18c.11,0,.21.09.32.12a2.13,2.13,0,0,1,.6.31,2.25,2.25,0,0,0,.61.28,1.48,1.48,0,0,1,.44.25c.23.18.5.27.71.47a3.5,3.5,0,0,1,.58.36,5.7,5.7,0,0,1,.7.47,4.1,4.1,0,0,1,.71.46c.26.11.45.34.7.47a1.66,1.66,0,0,1,.51.44.69.69,0,0,0,.11.13.71.71,0,0,0,.14.1,1.59,1.59,0,0,1,.61.57,1.46,1.46,0,0,0,.6.58,1.36,1.36,0,0,1,.24.24,1.44,1.44,0,0,0,.5.45.67.67,0,0,1,.25.22l.3.41a1.2,1.2,0,0,0,.37.34,1.37,1.37,0,0,1,.37.35c.15.24.32.47.47.7a1.09,1.09,0,0,0,.25.23,1,1,0,0,1,.48.47l.91,1.44a1.06,1.06,0,0,0,.37.33,1.33,1.33,0,0,1,.34.37l1.42,2.33c.09.13.08.13.37.34a1.5,1.5,0,0,1,.35.36c.62,1,1.21,2.06,1.79,3.1.11.19,0,.41-.22.55l-.14.09-.45.25c-1.48.83-3,1.69-4.44,2.52a1,1,0,0,1-.48.15.93.93,0,0,0-.49.11l-.15.08-7.4,4.19-.15.08a1,1,0,0,1-.64.19A.76.76,0,0,0,96,73c-.15.08-.3.15-.45.24-1.87,1.06-3.75,2.12-5.61,3.2q-2.2,1.29-4.43,2.53l-1.33.76a1.53,1.53,0,0,1-.81.23c-.14,0-.25.1-.39.29s-.12.18-.42.21a.49.49,0,0,0-.17,0,1.05,1.05,0,0,0-.54.38,1.73,1.73,0,0,1-.62.58,6.9,6.9,0,0,1-.89.48.44.44,0,0,1-.32,0,.68.68,0,0,1-.12-.12,1.42,1.42,0,0,1-.2-.28c-1.81-3.27-3.69-6.51-5.55-9.76l-.59-1a.94.94,0,0,1-.12-.49,1.16,1.16,0,0,0-.14-.48L71.24,66c-.36-.65-.73-1.29-1.09-1.93a1.16,1.16,0,0,1-.14-.48,1.18,1.18,0,0,0-.12-.49c-.82-1.49-1.67-3-2.52-4.44q-1.62-2.79-3.2-5.61A1.25,1.25,0,0,1,64,52.4a.75.75,0,0,0-.07-.33c-.1-.2-.2-.41-.28-.62s0-.22.14-.22a1.93,1.93,0,0,0,.34,0,.58.58,0,0,1,.61.15,1,1,0,0,0,.63.23.43.43,0,0,0,.41-.25l.15-.3.12-.12a.24.24,0,0,0,.26.15V51a.27.27,0,0,0-.3,0M82.89,75.4a.26.26,0,0,0,.27.17v-.14a.27.27,0,0,0-.32,0,.24.24,0,0,0-.26-.16v.13a.23.23,0,0,0,.31,0m7.55-6.68-.14.08c-.13.09-.28.16-.34.33l-.09.3c0,.14,0,.23.13.23a.5.5,0,0,0,.28-.12c.07-.15.13-.29.21-.43s.07-.08.11-.12l.08.15a1.1,1.1,0,0,0,.36.35.79.79,0,0,1,.48.45l.35.58a.79.79,0,0,0,.56.34,1,1,0,0,0,.34,0l.15-.07a1.5,1.5,0,0,1,.66-.13c.14,0,.21-.06.17-.21a4.25,4.25,0,0,0-.31-.6c-.09-.16-.1-.16-.08-.49a.87.87,0,0,0-.19-.62c-.13-.18-.18-.2-.44-.16a.62.62,0,0,1-.33,0,.91.91,0,0,1,0-.33,4.88,4.88,0,0,1,.2-.65.42.42,0,0,1,.09-.14.37.37,0,0,1,.3-.1.32.32,0,0,1,.23.22v.34a.49.49,0,0,0,.17.44.47.47,0,0,0,.33,0,.35.35,0,0,1,.44.14,3.13,3.13,0,0,1,.29.42.93.93,0,0,1,.11.49c0,.28.07.3.43.16a1.19,1.19,0,0,1,.32-.1c.15,0,.2.06.18.21s0,.24.15.23a.32.32,0,0,0,.27-.16,2.41,2.41,0,0,0,.24-.63c0-.14.11-.2.25-.17h.17l.4-.52a1,1,0,0,0,.07-.15c0-.1-.07-.17-.21-.13a1.46,1.46,0,0,1-.51,0,.62.62,0,0,0-.33,0h0a.27.27,0,0,1,0-.3.38.38,0,0,1,.41-.19h.16a.2.2,0,0,0,.23-.17h0a.83.83,0,0,0-.06-.78c-.08-.15-.17-.28-.25-.43a1.56,1.56,0,0,0,.4-.27v-.16h-.16a.32.32,0,0,0-.25.17.29.29,0,0,0,0,.31c-.3.15-.58.33-.89.47s-.26.08-.45-.08a.81.81,0,0,0-.28-.17l-.64-.2a.89.89,0,0,0-.64.07c-.3.15-.31.16-.79,0a1,1,0,0,1-.28-.17c-.26-.23-.26-.22-.38,0l-.08.14a.43.43,0,0,1-.39.25h-.33a1.11,1.11,0,0,0-.17.47.44.44,0,0,0,0,.32h0a.37.37,0,0,1-.45-.09.5.5,0,0,0-.28-.16.73.73,0,0,0-.15.29.67.67,0,0,0,.09.64l.09.14c-.19.14-.21.23-.13.47M81.08,75.2a.25.25,0,0,0,.26.16v-.13a.26.26,0,0,0-.31,0,.55.55,0,0,0-.25-.2c-.24-.12-.24-.12-.23-.37a.77.77,0,0,0-.2-.6.4.4,0,0,0-.44-.15.8.8,0,0,0-.29.15l-.11.12c-.1.12-.08.21.08.25.36.23.36.23.37.65v.16a.67.67,0,0,0,.3.13.63.63,0,0,0,.63-.09l.14-.09m7.71-3.63a1.18,1.18,0,0,0-.16-.29c-.14-.19-.24-.21-.43-.14a.27.27,0,0,0-.18.25l.14.09a.79.79,0,0,0,.64,0,.62.62,0,0,1,0,.33c0,.27,0,.27.18.38a2.29,2.29,0,0,1,.41.28.22.22,0,0,0,.16,0,.41.41,0,0,0,.29-.13,2.61,2.61,0,0,0,.17-.28.17.17,0,0,1,.13-.07.81.81,0,0,0,.31,0,.62.62,0,0,0,0-.33c0-.23,0-.32.2-.4a.27.27,0,0,1,.3,0l.12.11c.19.15.29.13.36-.07a.62.62,0,0,0,0-.33c0-.09-.11-.15-.23-.2a.77.77,0,0,1-.34-.35.64.64,0,0,0-.22-.24.31.31,0,0,0-.32,0A.3.3,0,0,0,90,70a.35.35,0,0,0-.28.14.43.43,0,0,0,0,.16.29.29,0,0,0,.31,0l.29-.16a.42.42,0,0,1-.1.43l-.13.09a.86.86,0,0,0-.41.47.51.51,0,0,1-.5.32.94.94,0,0,0-.47,0m7.52-6.68a.42.42,0,0,0-.09-.14,1.52,1.52,0,0,0-.46-.18.49.49,0,0,0-.44.15.26.26,0,0,0,0,.31.32.32,0,0,0,.26.17,3.68,3.68,0,0,1,.66-.06c.1,0,.12-.14.06-.25m-8.93,8.9-.14.08A.36.36,0,0,0,87,74a.51.51,0,0,0,.28.15h.16a.19.19,0,0,0,.15,0,.65.65,0,0,0,.13-.47c0-.13-.19-.15-.39,0m7.89-8v.16a.35.35,0,0,0,.34.26.33.33,0,0,0,.25-.15.17.17,0,0,0,0-.14c0-.11-.48-.2-.57-.13M91,60.32a.24.24,0,0,0-.28,0,.33.33,0,0,0-.16.25.26.26,0,0,0,.29,0,.24.24,0,0,0,.15-.24m0,.76L90.87,61a.38.38,0,0,0-.15.09c-.1.1-.1.19,0,.22a.2.2,0,0,0,.15,0,.2.2,0,0,0,.15-.24h0M78.62,73.78a.26.26,0,0,0,.3-.06c.1-.13.07-.22-.08-.21a.27.27,0,0,0-.25.17v.1m2.26-1a.38.38,0,0,0-.08.09.25.25,0,0,0,.08.27c.1.09.19.07.22,0a.28.28,0,0,0-.09-.27.31.31,0,0,0-.13-.06m17.21-9a.31.31,0,0,0-.1-.08.25.25,0,0,0-.27.08c-.09.11-.06.2,0,.22A.25.25,0,0,0,98,64l.06-.14m-17.47,13c-.09.07-.13.16-.07.22a.19.19,0,0,0,.25,0l0,0c.08-.09.11-.16.07-.23a.19.19,0,0,0-.25,0l0,0M92.39,60.27h.13l0-.12ZM91.1,63.8H91c-.1.11-.07.17.07.17l0-.12m.09,1V65h.11ZM79.77,73.52h-.12c-.09.11-.07.17.08.17v-.12m9.85-5.22v-.13h-.12Zm-1.21,1.8c-.1-.09-.16-.06-.16.07h.12v-.11m.8.19v.13c.12.1.18.07.18-.08h-.14m-7,5.38c-.11-.09-.17-.07-.17.08h.12V75.7m2.3-1.24c.09-.11.07-.17-.08-.18v.13l.11,0m2-1.25h.13l0-.11Zm-.68.68a.61.61,0,0,0,0,.12c.11.09.17.07.18-.08h-.13m-4.19,3c.1-.1.07-.16-.07-.16v.12h.11m3-1.82c-.13-.11-.19-.08-.19.09h.14a.19.19,0,0,1,.05-.13m.87-.51c-.1-.09-.16-.07-.16.08h.12v-.12m-2.32,1.61a.21.21,0,0,1,0,.11c.11.1.16.08.16-.07h-.12m-1.3,1.65h-.11c-.1.1-.08.16.07.15v-.12m7.68-4.41c-.11-.1-.17-.07-.17.08h.12v-.12m7.84-3.3h.13V70ZM93,46.41a.92.92,0,0,0-.61-.53l-.16-.05a2.22,2.22,0,0,1-.59-.31,1.3,1.3,0,0,0-.63-.2h-.17a.19.19,0,0,0-.17.19s0,0,0,0l.14.09a4.29,4.29,0,0,1,.63.23,2.59,2.59,0,0,0,.59.32l.64.19a.25.25,0,0,0,.17,0H93Zm-10.37-2v-.09l-.08.09Zm.66,0h.12l-.09-.07Zm4.42.39a.24.24,0,0,0-.25-.15v.12a.27.27,0,0,0,.3,0Zm0,0a.38.38,0,0,0,.46.13h0a.27.27,0,0,0-.2-.17.39.39,0,0,0-.26,0Zm.46.13a.27.27,0,0,0,.27.13v-.12a.27.27,0,0,0-.3,0Zm5.28,1.7a.31.31,0,0,0-.2-.17.3.3,0,0,0-.26,0h0a.27.27,0,0,0,.2.17A.3.3,0,0,0,93.43,46.63Zm0,0a.26.26,0,0,0,.26.17v-.13a.23.23,0,0,0-.31,0ZM90.62,69a.55.55,0,0,1,.31,0c.29,0,.36,0,.42-.35a.81.81,0,0,0,0-.31.37.37,0,0,0-.36-.27,2.48,2.48,0,0,0-.44.2.34.34,0,0,1-.1.46h0l.18.31m1.26.09a.3.3,0,0,0-.16.23.24.24,0,0,0,.28,0,.27.27,0,0,0,.15-.24.23.23,0,0,0-.27,0m4.21-.89a1.26,1.26,0,0,0-.4.28v.16c0,.06.11,0,.16,0a.36.36,0,0,0,.26-.17.27.27,0,0,0,0-.3ZM91.3,67.4a.23.23,0,0,0,.26.15v-.13a.26.26,0,0,0-.31,0Zm.53.59,0,.12h.12c.09-.11.07-.17-.07-.16m4.22-.87,0,.12h.12c.1-.11.08-.16-.07-.16"/><path class="cls-1" d="M59.3,49.43l-5.16-3c-.29-.17-.59-.32-.89-.5a.92.92,0,0,0-.49-.09.65.65,0,0,1-.54-.34c-.17-.26-.18-.27-.34-.37a3.25,3.25,0,0,0-.45-.25,1,1,0,0,0-.33-.06c-.25,0-.25,0-.39-.25a1,1,0,0,0-.36-.34l-1.78-1c-.14-.08-.13-.08-.49-.1a.64.64,0,0,1-.56-.31.94.94,0,0,0-.32-.39l-.44-.26-1.62-.94-1.62-.93q-1.92-1.11-3.82-2.25c-.19-.11-.38-.23-.59-.33a.77.77,0,0,1-.35-.55c0-.18,0-.28.27-.35a1.52,1.52,0,0,1,.67,0,.18.18,0,0,0,.16,0A.44.44,0,0,0,40,36.5a.49.49,0,0,0,0-.17.29.29,0,0,1,.25-.33h0a3.92,3.92,0,0,0,1-.28.33.33,0,0,0,.21-.25,1.93,1.93,0,0,0,0-.34.42.42,0,0,1,.2-.43.31.31,0,0,1,.32,0c.24,0,.29,0,.28-.24a.49.49,0,0,1,.31-.54.84.84,0,0,0,.28-.18.39.39,0,0,0,.1-.31,1.1,1.1,0,0,0-.23-.63.4.4,0,0,1-.17-.28,1.71,1.71,0,0,1,.26-.21c.2-.13.23-.18.23-.41a1,1,0,0,1,.12-.64c.06-.1.12-.2.17-.3a1,1,0,0,0,.1-.49.89.89,0,0,1,.16-.65,2.69,2.69,0,0,1,.16-.29.72.72,0,0,0,0-.5,3,3,0,0,0-.17-.65,5.76,5.76,0,0,0-.3-1c-.06-.11-.15-.13-.26,0a3.81,3.81,0,0,1-.77.62l-.11.12-.21.27c-.09.1-.19.14-.26.08a.42.42,0,0,1-.09-.14.92.92,0,0,1,0-.33,3.86,3.86,0,0,0,0-.68.61.61,0,0,1,.14-.47c.17-.3.35-.58.53-.87a1,1,0,0,1,.37-.35c.21-.1.35-.28.55-.38a1.3,1.3,0,0,0,.51-.45c0-.09.13-.18.19-.28a1.1,1.1,0,0,1,.38-.33,1.1,1.1,0,0,0,.38-.33,1.09,1.09,0,0,1,.37-.34c.3-.16.53-.43.84-.57a.69.69,0,0,0,.24-.24,1,1,0,0,1,.53-.4L47,22.2a1.22,1.22,0,0,0,.29-.17,4.28,4.28,0,0,1,.57-.37,3.91,3.91,0,0,1,.41-.3,2.36,2.36,0,0,0,.42-.28c.14-.1.31-.16.44-.25a3.19,3.19,0,0,1,.42-.3c.21-.09.36-.27.56-.38a3.87,3.87,0,0,0,.43-.27c.18-.13.39-.23.57-.36a.79.79,0,0,1,.29-.18l.81-.26a1.48,1.48,0,0,0,.59-.32,1.73,1.73,0,0,1,.31-.14c.43-.12.87-.24,1.31-.38.7-.21,1.42-.37,2.14-.55a1,1,0,0,1,.34,0,1.4,1.4,0,0,0,.5,0l3-.77a1.1,1.1,0,0,1,.51,0,.65.65,0,0,0,.34,0l.49-.11c.5-.13,1-.25,1.5-.35h.08a1.89,1.89,0,0,0,.67,0,1.71,1.71,0,0,1,.84,0,4,4,0,0,1,.85,0,2.51,2.51,0,0,1,.67,0,5.57,5.57,0,0,0,1,0,1.33,1.33,0,0,1,.65.16,1,1,0,0,0,.33.06,1.08,1.08,0,0,1,.5.08,1.25,1.25,0,0,0,.66.14A1.19,1.19,0,0,1,70,17l.61.3a1,1,0,0,0,.48.12,1,1,0,0,1,.5.08l.3.16a1.2,1.2,0,0,0,.31.13h.34a.48.48,0,0,1,.33.06l.75.39a.93.93,0,0,0,.49.11,1.22,1.22,0,0,1,.5.08,1.06,1.06,0,0,0,.65.13.63.63,0,0,1,.33.06,1.69,1.69,0,0,0,.66.16.89.89,0,0,1,.48.13c1.09.61,2.18,1.22,3.28,1.82a1.16,1.16,0,0,0,.48.14,1,1,0,0,1,.49.12c.25.14.5.27.73.43a.69.69,0,0,1,.24.24,1.71,1.71,0,0,0,.28.42l.11.13c.06.1.11.2.17.29s.22,0,.33,0,.12.13.07.26a4.48,4.48,0,0,1-.21.46l-.51.89a1.15,1.15,0,0,0-.13.48,1.13,1.13,0,0,1-.2.64l-.26.45a1.07,1.07,0,0,1-.46.48.92.92,0,0,0-.25.23c-.27.43-.52.88-.77,1.32a1.17,1.17,0,0,0-.11.49.67.67,0,0,1-.32.57,1,1,0,0,0-.37.34l-1.73,2.93c-.42.74-.85,1.48-1.29,2.21s-.7,1.17-1,1.77c-.24.44-.48.89-.77,1.32a1.35,1.35,0,0,1-.2.27,1.75,1.75,0,0,1-.29.18.61.61,0,0,0-.25.23c-.12.19-.25.37-.36.57C72.62,40,71.78,41.36,71,42.75c-.16.3-.33.6-.5.89-.25.45-.5.89-.76,1.33-.4.69-.8,1.37-1.18,2.07a.77.77,0,0,0-.11.49.93.93,0,0,1-.11.49c-.14.31-.31.6-.48.9L66.19,52a.93.93,0,0,1-.36.35c-.2.11-.2.12-.24.38s-.06.2-.21.13l-.6-.32-3-1.67c-.84-.48-1.7-.93-2.53-1.42M71.63,37.7a.24.24,0,0,0,0-.3H71.5a.24.24,0,0,0,.16.26l-.18.31a4.48,4.48,0,0,0-.6-.35.3.3,0,0,0,0-.26s-.07-.06-.1,0a.25.25,0,0,0-.21.15.38.38,0,0,1-.13-.44,2.92,2.92,0,0,1,.14-.31.32.32,0,0,0-.09-.43h0l-.14-.09a2.51,2.51,0,0,1-.67,0c-.2,0-.3.07-.25.26a.94.94,0,0,0,.21.45,1,1,0,0,1,.19.27l.23.63a1,1,0,0,0,.65.47,1.13,1.13,0,0,0,.48-.11.43.43,0,0,0,.26-.2.23.23,0,0,0,.25,0,.13.13,0,0,0,.06-.1.25.25,0,0,0-.15-.21m-3-.21a.32.32,0,0,0,.3,0A.64.64,0,0,0,69,37.3c.09-.2.06-.28-.14-.37s-.29-.07-.37.13-.06.31.13.39m-2.53-1.84a.21.21,0,0,0,.28,0v-.15a.61.61,0,0,0-.08-.3L66.2,35a.29.29,0,0,0-.24.17c-.09.19-.07.28.1.4m2.11.73a.51.51,0,0,0,.42,0,.15.15,0,0,0,.15-.2.27.27,0,0,0-.09-.12c-.19-.15-.4,0-.49.18a.38.38,0,0,0,0,.15M43.45,31.4c-.06,0-.05.23,0,.42s.11.18.21.15a.47.47,0,0,0,.1-.1.3.3,0,0,0,0-.42.27.27,0,0,0-.12-.06h-.15m-2.14,5.5h.16a.28.28,0,0,0,.08-.15c0-.14,0-.22-.12-.19a.27.27,0,0,0-.12.09.18.18,0,0,0,0,.25l0,0m27.72,3a.43.43,0,0,0,0,.16.29.29,0,0,0,.14.08c.14,0,.22,0,.19-.13a.27.27,0,0,0-.09-.12.19.19,0,0,0-.27,0h0m-.89,1.2c0-.11,0-.2,0-.22a.12.12,0,0,0-.14,0,.28.28,0,0,0-.09.27.31.31,0,0,0,.07.09.2.2,0,0,0,.21-.17m1-5.41h.15a.32.32,0,0,0,.08-.28c0-.1-.1-.13-.21,0a.28.28,0,0,0-.09.27l.07.08M64.5,37.13a.3.3,0,0,0,.29,0,.29.29,0,0,0-.14-.25.24.24,0,0,0-.28,0,.22.22,0,0,0,.13.24M64,35.47l.07.12.07-.1Zm2.15,1.94-.12.06.1.08ZM69.56,34c0,.16,0,.19.16.11V34h-.14m-4,8.44.12-.07-.09-.07Zm2-2.78h.13c0-.14,0-.18-.15-.11v.13m-4,7.53c.14,0,.18,0,.1-.14h-.12v.12m-3.6-26.95L60,20l-.07.1Zm-18,15.91c0,.15,0,.19.15.11v-.13H42m2.08-9.39L44,26.57l-.08.1Zm-4.13,4.68c-.06.1-.13.19-.19.28a.64.64,0,0,0-.08.14.31.31,0,0,0,0,.32.35.35,0,0,0,.27-.17c.28-.48.58-1,.88-1.42a.72.72,0,0,1,.25-.21c.18-.09.22-.18.17-.41a.79.79,0,0,0-.12-.3.37.37,0,0,0-.26.18,6.36,6.36,0,0,0-.61,1c-.09.16-.19.36-.3.55m-2.92,2a.5.5,0,0,0,.28.12.2.2,0,0,0,.15,0,.73.73,0,0,0,.28-.55v-.12a.77.77,0,0,0-.47.07.28.28,0,0,0-.22.22.42.42,0,0,0,0,.31m4.47.37h-.13v.12c.14,0,.18,0,.11-.15m-.14-4.65.08.06V29ZM70.57,37.7a.11.11,0,0,0,.09.06.43.43,0,0,0,.23-.14l-.31-.18a.3.3,0,0,0,0,.26"/><path class="cls-1" d="M36.7,4.91V9.33a.9.9,0,0,0,.14.48,1.34,1.34,0,0,1,.15.48v4.26a.62.62,0,0,0,.09.32.19.19,0,0,0,.08.15.76.76,0,0,1,.08.33v1.7l.06,5.27a1,1,0,0,0,.14.48,1,1,0,0,1,.12.49v1.53a1.52,1.52,0,0,0,.22.81.9.9,0,0,1,.09.32v5.28c0,.79,0,1.58.05,2.38a.76.76,0,0,0,.19.45c.07.09.15.17.23.26a.44.44,0,0,1-.07.58l-.25.23a1,1,0,0,1-.61.27H33.67a1,1,0,0,0-.49.12,1,1,0,0,1-.48.15c-1.08,0-2.15,0-3.23,0H10.25a1.34,1.34,0,0,0-.65.17.63.63,0,0,1-.33.09H8.59L5.7,36c-.16,0-.16,0-.48.13a1.19,1.19,0,0,1-.49.13H1.84A.32.32,0,0,1,1.51,36h0V31.23a1.2,1.2,0,0,1,.21-.8.44.44,0,0,0,.06-.16c.06-.45,0-.9.08-1.36A.9.9,0,0,1,2,28.59,1.47,1.47,0,0,0,2.3,28v-.68a1.16,1.16,0,0,1,.14-.48.9.9,0,0,0,.14-.48v-.68a1.19,1.19,0,0,1,.13-.49,1,1,0,0,0,.16-.47L2.93,24a1,1,0,0,1,.19-.64.76.76,0,0,0,.11-.32,1.48,1.48,0,0,1,.19-.65A1.1,1.1,0,0,0,3.58,22a1.08,1.08,0,0,1,.15-.49,1.43,1.43,0,0,0,.21-.64A.9.9,0,0,1,4,20.51a1.62,1.62,0,0,0,.24-.63,1.19,1.19,0,0,1,.1-.32c.14-.25.22-.52.37-.76s.27-.63.46-.91a3.83,3.83,0,0,1,.39-.75,3.41,3.41,0,0,1,.29-.61,6.72,6.72,0,0,1,.4-.75,1.67,1.67,0,0,1,.42-.73l.11-.13.09-.14A.46.46,0,0,0,7,14.62c.09-.27.3-.48.39-.75a.84.84,0,0,1,.18-.28l.67-.77a.87.87,0,0,0,.16-.3,1.75,1.75,0,0,1,.18-.29c.11-.13.22-.26.34-.38A4,4,0,0,0,9.46,11a.71.71,0,0,1,.1-.14l1.2-1.2c.53-.51,1.06-1,1.57-1.55a1.25,1.25,0,0,1,.42-.3A1.69,1.69,0,0,0,13,7.66l.74-.7a2.31,2.31,0,0,1,.83-.58.33.33,0,0,0,.14-.1L15.19,6A2.2,2.2,0,0,1,16,5.43c.19-.13.36-.28.53-.42a1.07,1.07,0,0,1,.28-.19,1.7,1.7,0,0,0,.46-.29,3.74,3.74,0,0,1,.55-.41c.27-.08.49-.28.75-.38a.85.85,0,0,0,.3-.15l.4-.33a.84.84,0,0,1,.28-.18c.22-.07.4-.22.61-.3a4.85,4.85,0,0,0,.61-.29.75.75,0,0,1,.32-.1,1.6,1.6,0,0,0,.63-.23A1.1,1.1,0,0,1,22.22,2a.9.9,0,0,0,.32-.09c.24-.16.52-.23.76-.38a1.43,1.43,0,0,1,.64-.21,1.1,1.1,0,0,0,.47-.16A1,1,0,0,1,24.9,1h.84a1.52,1.52,0,0,0,.81-.22.46.46,0,0,1,.16-.07h.51a1.2,1.2,0,0,0,.64-.19A.94.94,0,0,1,28.35.4h2.7c.15,0,.18,0,.48-.14A1.37,1.37,0,0,1,32,.13h4L36.3,0a.33.33,0,0,1,.33.3,4.34,4.34,0,0,1,0,.51V4.89ZM8.07,18.7H7.74a.36.36,0,0,0-.33.32v.33a.48.48,0,0,1-.13.3c-.18.24-.15.3.1.55s.31.32.19.53a.58.58,0,0,0,0,.62c.14.21.13.28,0,.43l-.33.38a1.85,1.85,0,0,0-.21.45.5.5,0,0,1-.27.18c-.27.1-.29.13-.31.34a1.73,1.73,0,0,0,0,.33.26.26,0,0,0-.26.14l.09.1a.26.26,0,0,0,.14-.26.52.52,0,0,1,.31.12l.28.19a.61.61,0,0,0,.47-.14,1.59,1.59,0,0,1,.29-.15c.29-.11.34-.19.36-.49v-.51A.74.74,0,0,1,8.35,22l.24-.24c.13-.14.13-.14,0-.44a.24.24,0,0,1,.05-.29.52.52,0,0,1,.27-.19.2.2,0,0,1,.2.19c0,.13,0,.45,0,.67A.32.32,0,0,0,9.3,22l.12-.11a1.62,1.62,0,0,1,.22-.46A.65.65,0,0,0,9.8,21a1,1,0,0,1,0-.34,1.69,1.69,0,0,1,.17-.29.21.21,0,0,0,0-.29.2.2,0,0,1,0-.28l0,0c.1-.22.09-.25-.15-.35s-.3-.13-.19-.33.16-.36.11-.47a.8.8,0,0,0-.41-.27,1,1,0,0,1-.27-.19c-.14-.12-.32-.12-.47-.19a.31.31,0,0,1-.17-.27.24.24,0,0,0,.27-.15l-.1-.1a.24.24,0,0,0-.15.27.62.62,0,0,0-.39.22c-.23.21-.24.25-.07.52a.63.63,0,0,1,.1.29Zm2.29,3.94-.06-.06v.12Zm.24-1.29.07-.11h-.12Zm1.7-.69.07-.11H12.3Zm0-1.53-.08.11h.12Zm-.61-.24-.11-.07v.12Zm-1.21-.69.09.1c.15-.05.15-.12,0-.19l-.11.09m2.84-1.27.08-.11h-.13Zm.27-1.47.11.08v-.13Zm-1.63-1.27.07-.11h-.12Zm-.52-6.4a1,1,0,0,0,.34,0,.4.4,0,0,0,.35-.31h0a1.82,1.82,0,0,0-.33,0,.4.4,0,0,0-.35.31Zm-1.33,1.4a.26.26,0,0,0-.25.13l.08.08a.27.27,0,0,0,.14-.24Zm.34-.35a.3.3,0,0,0-.25.1.3.3,0,0,0-.09.25h0c.25,0,.31-.11.35-.34Zm0,0c.24,0,.31-.1.34-.34h0a.35.35,0,0,0-.25.1A.27.27,0,0,0,10.43,8.84Zm.34-.34A.34.34,0,0,0,11,8.41a.29.29,0,0,0,.09-.25h0a.37.37,0,0,0-.24.1.28.28,0,0,0-.1.24Zm.7-.66a.38.38,0,0,0-.34.34h0c.25,0,.32-.11.34-.35Zm.66-.36a.31.31,0,0,0,.25-.16l-.08-.09a.26.26,0,0,0-.13.25ZM8.23,20.67l.1-.08,0-.09c-.13,0-.14.1,0,.17m-.16-2a.24.24,0,0,0,.15.25l.09-.09a.24.24,0,0,0-.26-.13Z"/><path class="cls-1" d="M52.73,180.46a.36.36,0,0,0,.15-.29.53.53,0,0,0-.1-.32.64.64,0,0,0-.1-.13.38.38,0,0,0-.44-.13c-.32.11-.59.35-.91.46a.25.25,0,0,1-.27-.05v-.16l.4-.32a.39.39,0,0,0,.08-.31.92.92,0,0,0-.25-.44.61.61,0,0,0-.3-.15,1.06,1.06,0,0,0-.5,0,.49.49,0,0,1-.57-.25.67.67,0,0,1-.15-.47.31.31,0,0,0-.07-.29.62.62,0,0,0-.33,0h-.16c-.05,0,0-.17.09-.26a.49.49,0,0,0,.14-.3.81.81,0,0,0-.3-.13,2,2,0,0,0-.34-.06h-.16c-.06-.09-.12-.18-.17-.27a.59.59,0,0,0-.39-.26l-.46-.12c-.34-.08-.36-.08-.5.2a.47.47,0,0,1-.21.23h0l-.11-.12a2.74,2.74,0,0,0-.48-.17.83.83,0,0,1-.54-.37c-.23-.4-.51-.75-.73-1.16a1.05,1.05,0,0,0-.2-.27.84.84,0,0,0-.28-.18.92.92,0,0,1-.26-.22,1.54,1.54,0,0,0-.49-.46.93.93,0,0,1-.37-.34c-.62-1-1.24-2-1.83-3.07a1.37,1.37,0,0,0-.29-.42l-.28-.19a.92.92,0,0,1-.23-.25l-.52-.87a1,1,0,0,1-.18-.65.88.88,0,0,0-.07-.32,1,1,0,0,0-.44-.5.93.93,0,0,1-.36-.35l-1.14-1.89a1.77,1.77,0,0,0-.31-.41,1.73,1.73,0,0,0-.28-.19l-.13-.1a.76.76,0,0,1-.11-.14c-.09-.14-.19-.28-.27-.43-.36-.64-.74-1.27-1.12-1.91L34.47,159a1.35,1.35,0,0,0-.47-.48.61.61,0,0,1-.25-.23l-.54-.87a1.3,1.3,0,0,1-.2-.63v-.51a.33.33,0,0,1,.15-.29,2.36,2.36,0,0,1,.42-.28q1.92-1.11,3.81-2.25a.93.93,0,0,0,.36-.35l.1-.14a.92.92,0,0,1,.25-.23c1.08-.63,2.15-1.26,3.22-1.91.43-.27.88-.51,1.32-.77l5-2.9,4.72-2.72,1.61-.95a1.35,1.35,0,0,0,.48-.47.76.76,0,0,1,.23-.24c.1-.06.19-.13.29-.18.79-.45,1.57-.92,2.35-1.39l2.2-1.29.87-.53c.14-.09.15-.1.34-.36a.7.7,0,0,1,.55-.35,1,1,0,0,0,.34,0,1.68,1.68,0,0,0,.3-.15l.29-.18a.53.53,0,0,0,.24-.23,1.3,1.3,0,0,1,.62-.56.62.62,0,0,1,.5,0,.69.69,0,0,1,.37.32c.69,1.11,1.32,2.26,2,3.39.11.19.21.4.34.59a.83.83,0,0,1,.09.49,1,1,0,0,0,.13.48l.64,1.2a1.19,1.19,0,0,1,.13.49,1.16,1.16,0,0,0,.1.49l.54,1.07a.89.89,0,0,1,.08.32,1.93,1.93,0,0,0,0,.34,1.79,1.79,0,0,0,.13.32c0,.1.09.21.14.31a1.18,1.18,0,0,1,.12.49.93.93,0,0,0,.11.49l.3.61a1,1,0,0,1,.12.49,1.45,1.45,0,0,0,.16.65,1,1,0,0,1,.07.33,1.37,1.37,0,0,0,.13.66,1.23,1.23,0,0,1,.09.5,1.63,1.63,0,0,0,.15.65,1,1,0,0,1,.06.34,1.36,1.36,0,0,0,.12.66.64.64,0,0,1,.07.33c0,.28.06.56.06.84a4.18,4.18,0,0,1,0,1,4,4,0,0,1,.06.84c.08.28,0,.57.06.85a2.57,2.57,0,0,1,0,.68v.84a1.93,1.93,0,0,1,0,.34,2.42,2.42,0,0,0-.06,1,.49.49,0,0,1,0,.17,3.15,3.15,0,0,1-.12.67,2.16,2.16,0,0,0-.06.84,2.22,2.22,0,0,1-.06.51,1.89,1.89,0,0,0,0,.67,1.46,1.46,0,0,1,0,.51l-.51,1.8a1.57,1.57,0,0,1-.22.45.85.85,0,0,0-.15.3l-.23.83c-.16.6-.32,1.2-.52,1.79l-.21.65a3.91,3.91,0,0,1-.26.44,1.66,1.66,0,0,0-.12.31c-.09.27-.17.54-.28.81A1.67,1.67,0,0,1,67,171a1.11,1.11,0,0,0-.17.3,4.39,4.39,0,0,1-.26.63l-.36.57c-.12.2-.32.47-.44.72a2.07,2.07,0,0,0-.43.73,1.63,1.63,0,0,1-.33.59,1.75,1.75,0,0,0-.18.29,1.06,1.06,0,0,1-.33.37,1.14,1.14,0,0,0-.24.25,1.85,1.85,0,0,1-.55.63.75.75,0,0,0-.21.26,1.3,1.3,0,0,1-.45.51.75.75,0,0,0-.22.25,3.08,3.08,0,0,1-.3.41,1.05,1.05,0,0,0-.2.27,1.28,1.28,0,0,1-.44.51,1.38,1.38,0,0,0-.32.4.84.84,0,0,1-.22.24l-1,.66A1.1,1.1,0,0,0,60,180a1.1,1.1,0,0,1-.35.36l-.28.2a1.32,1.32,0,0,0-.44.5,1.36,1.36,0,0,1-.24.24c-.86.54-1.74,1.08-2.63,1.57a.93.93,0,0,1-.81.09.69.69,0,0,1-.4-.29,1.39,1.39,0,0,0-.21-.27.43.43,0,0,0-.16-.05l-.07.12a1.52,1.52,0,0,1,0,.67c-.06.21-.13.27-.34.27a.48.48,0,0,0-.53.3l-.09.15a.69.69,0,0,1-.24.24c-.23.16-.49.28-.74.42-.57.32-.58.32-.61.21a2.72,2.72,0,0,1-.05-.49c0-.35,0-.35.16-.38.46-.06.46-.06.66-.41a.89.89,0,0,1,.69-.41h.34a.41.41,0,0,0,.29-.15.37.37,0,0,0,.06-.32c0-.36,0-.38.22-.58l.14-.1a.32.32,0,0,0,.16-.28.61.61,0,0,0-.08-.32.8.8,0,0,0-.53-.38,2,2,0,0,0-.34-.06H53.4a1,1,0,0,0-.4-.25.53.53,0,0,1-.25-.19Zm11.39-31.39-.28.19a.3.3,0,0,0-.13.26l.14.09a1.14,1.14,0,0,0,.32.07.23.23,0,0,0,.23-.18.71.71,0,0,1,.18-.27.54.54,0,0,0,.15-.29.34.34,0,0,0-.31,0l-.3.14m.38,1.74a.68.68,0,0,0,.26-.18c.11-.11.09-.19,0-.25a1,1,0,0,0-.47-.1.46.46,0,0,0-.29.13.38.38,0,0,0,0,.15.5.5,0,0,0,.12.29.42.42,0,0,0,.31,0l.15-.06m1.51-1.48,0,.14a.41.41,0,0,0,.2.21c.1,0,.17,0,.15-.16a.27.27,0,0,0-.19-.21h-.11M65,151.54a.23.23,0,0,0,.27,0,.31.31,0,0,0,.16-.24.28.28,0,0,0-.28,0,.25.25,0,0,0-.15.23m.81,2.64a.43.43,0,0,0,0,.16.29.29,0,0,0,.08.14c.11.1.2.1.23,0a.38.38,0,0,0,0-.15.18.18,0,0,0-.23-.14h0m.84,1a.26.26,0,0,0-.19.25.43.43,0,0,0,.16,0,.25.25,0,0,0,.14-.06c.12-.09.13-.17,0-.24h-.16m.41-1.55,0-.12c-.12-.1-.18-.08-.18.08h.13m-2.16-.85H65v-.13h-.12a.61.61,0,0,1,0,.12m-1.15-4c.1.09.15.07.15-.07h-.11v.11m-.77-.85c-.1.13-.07.19.1.19v-.14h-.14m6.44,19,.14-.07a.88.88,0,0,0,.32-.37,9.62,9.62,0,0,0,.36-1.27.58.58,0,0,0,0-.32h0l-.15.08a.8.8,0,0,0-.32.36,9.28,9.28,0,0,0-.38,1.27.44.44,0,0,0,0,.32h0m-20,13.27a.33.33,0,0,0-.33-.3.27.27,0,0,0-.24.19c0,.1.06.17.18.22a.5.5,0,0,0,.34,0,.29.29,0,0,0,0-.13m-.64-3.32a1.21,1.21,0,0,0-.39.28v.15c0,.05.11,0,.16,0a.36.36,0,0,0,.24-.18.27.27,0,0,0,0-.3Zm-.3,1.63a.29.29,0,0,1-.16,0c-.06-.05-.06.09-.06.13a.25.25,0,0,0,.17.25h.12a.25.25,0,0,0-.07-.3m1.93,2.08a.29.29,0,0,0,.14-.08c.11-.1.1-.19,0-.22h-.15a.19.19,0,0,0-.15.22v0h.16m3,.28a.27.27,0,0,0-.16.26h.12a.24.24,0,0,0,0-.3Zm-.66-.4a.25.25,0,0,0-.25-.16v.12a.32.32,0,0,0,.3,0Zm16.49-13.06a.25.25,0,0,0-.17.25h.13a.24.24,0,0,0,0-.3Zm-20.5,11.94v.11l.08-.1ZM69.3,166.93a.31.31,0,0,0-.13.43.05.05,0,0,0,0,0h0l.11-.09A.33.33,0,0,0,69.3,166.93Zm.77-2a.29.29,0,0,0,.14-.25h-.12a.24.24,0,0,0,0,.28ZM47,176.7a.28.28,0,0,0-.15.27H47a.26.26,0,0,0,0-.31Z"/></g></g></svg>