<svg xmlns="http://www.w3.org/2000/svg" viewBox="0 0 420.19 425.19"><defs><style>.cls-1{fill:#afd691;}</style></defs><g id="Layer_2" data-name="Layer 2"><g id="Layer_1-2" data-name="Layer 1"><path class="cls-1" d="M17.11,49.89a7,7,0,0,1-.88-3.17c.14-1.41-.22-2.9.79-4.15a.6.6,0,0,0,.05-.46c-.13-.46-.5-1-.39-1.32s.71-.51,1.08-.78c.08-.07.16-.3.11-.37A1.42,1.42,0,0,1,18,37.92a1,1,0,0,0,.06-.9,5.42,5.42,0,0,1-.74-3.68c0-.16,0-.32,0-.48,0-.7.74-1.15.71-1.7s-.51-1.1,0-1.72a1.08,1.08,0,0,0,0-1.33,2,2,0,0,1,.07-2.6c.43-.64.21-1.05-.51-1.54-.87-.59-.87-.59-.27-1.32.21-.25.44-.47.65-.71.35-.4.35-.43-.56-.93-.34-.18-.58-.36-.46-.63a4.07,4.07,0,0,0,.58-1.79c0-.49-.12-1.07-.58-1.21-1.2-.38-1.22-1.27-1.28-2.26-.11-1.89.82-3.36,1.8-4.81a1.44,1.44,0,0,1,.79-.5,5.2,5.2,0,0,1,1.42-.15c2.88.05,5.75.14,8.63.18a4.74,4.74,0,0,0,2.79-.51A.77.77,0,0,1,32,9.28a4.25,4.25,0,0,0,2.77.53c1.56-.08,3.21.43,4.65-.62a6.35,6.35,0,0,1,1.35.34,1.58,1.58,0,0,0,1.35.25,4,4,0,0,1,2.25-.66c1.26.14,2.61-.22,3.78.39a5.93,5.93,0,0,0,2.76.57c5,.08,9.92.14,14.87.25,1.92.05,3.84.16,5.75.31.45,0,.88.49,1.32.5s.87-.4,1.33-.44a4.6,4.6,0,0,1,3.25.45,3.28,3.28,0,0,0,1.84.36,8.13,8.13,0,0,1,4.18.84,4.31,4.31,0,0,0,1.86.32c1.11.06,2.23,0,3.35.09a3,3,0,0,1,1.41.19c1.6,1,3.39.73,5.12.81,1.12.06,2.24.07,3.36.14a3,3,0,0,1,1.38.31,5.18,5.18,0,0,0,2.75.63,17.16,17.16,0,0,1,2.87.18c.92.17,1.78.64,2.7.83a27,27,0,0,0,2.85.29c1.07.91,2.38.81,3.65.88a3,3,0,0,1,1.38.31,5.65,5.65,0,0,0,2.76.63,6.86,6.86,0,0,1,3.7.77A2.9,2.9,0,0,0,124,19c1.12.07,2.24.09,3.36.13a3.64,3.64,0,0,1,1.81.54A2.41,2.41,0,0,0,130,20c1,.12,1.92.1,2.86.28s1.7.86,2.71.82a3.72,3.72,0,0,1,2.24.72,2,2,0,0,0,.89.28,6.22,6.22,0,0,1,3.2.81,3.13,3.13,0,0,0,1.4.26,6.87,6.87,0,0,1,3.23.72,3.24,3.24,0,0,0,1.37.31c.64.08,1.28.1,1.92.15,1,.09,1.65,1,2.67.95.8,0,1.6.08,2.39.13,1.4,1.29,3.44.55,4.93,1.56a3.3,3.3,0,0,0,1.85.36,4.31,4.31,0,0,1,1.82.5,2.48,2.48,0,0,0,1.33.44c2-.23,3.67,1,5.54,1.25a7.28,7.28,0,0,0,3.15,1c1.4.19,2.63,1.05,4.12,1.06.57,0,1.15.5,1.72.76a43.06,43.06,0,0,0,6.74,2.19,29.53,29.53,0,0,1,3.56,1.27,41.57,41.57,0,0,0,4.38,1.83c1.67.44,3,1.78,4.83,2,1.3,1,3.07.81,4.37,1.8a5.59,5.59,0,0,1,3.09,1.15c1.24.82,2.72.87,4,1.53a16.39,16.39,0,0,0,3.48,1.52,14.4,14.4,0,0,1,3,1.35c4.94,2.56,9.89,5.13,14.81,7.73A13.58,13.58,0,0,0,236,56.59c2.47,1.43,5.17,2.43,7.47,4.2a7.82,7.82,0,0,0,2.95,1.48,12.37,12.37,0,0,1,3.06,1.28c2.28,1.15,4.44,2.52,6.76,3.58,2.76,1.25,5,3.35,7.83,4.5a12.33,12.33,0,0,0,3.1,2.21c.75,1.13,2.09,1.42,3.1,2.18s2.31,1.69,3.47,2.52,2.3,1.14,3.14,2.15a1.2,1.2,0,0,0,.38.29,25.39,25.39,0,0,1,4.09,2.44c1.09.9,2.4,1.55,3.47,2.5,1.72.65,2.74,2.17,4,3.35a10.34,10.34,0,0,0,3.1,2.19A8.42,8.42,0,0,1,295,93.71a11.06,11.06,0,0,0,3.82,2.81,7.17,7.17,0,0,1,2.71,1.92,11.82,11.82,0,0,0,4.59,3.33,2.57,2.57,0,0,1,1.46,1.18,18.15,18.15,0,0,0,3.49,4.53,13.65,13.65,0,0,1,2.74,3.3c.17.37.74.55,1.07.87,1,1,2.05,2,3.08,3,.81,2,2.58,3.21,3.9,4.79.82,1,1.9,1.71,2.33,3,.13.37.68.61,1.07.87a6.21,6.21,0,0,1,2.31,2.38,2.86,2.86,0,0,0,1.6,1.65,1,1,0,0,1,.39.28,9.34,9.34,0,0,0,1.74,2.2,10.41,10.41,0,0,1,2.2,1.81,6.81,6.81,0,0,0,2.3,1.67.8.8,0,0,1,.33.35c1.12,2.17,3,3.74,4.63,5.44a2.84,2.84,0,0,1,.63.72c.92,2.12,2.79,3.47,4.16,5.22a13.57,13.57,0,0,1,1.08,1.56c.47.83.89,1.69,1.33,2.54,1.28.53,1.55,2,2.45,2.81,1.87,1.78,3.06,4.07,4.76,6a10.11,10.11,0,0,1,1,1.62,4,4,0,0,0,1.69,1.64,2.29,2.29,0,0,1,1,1c1.44,2.28,3,4.48,4.38,6.81.48.82,1.05,1.57,1.48,2.44A16.53,16.53,0,0,0,367,175a29.83,29.83,0,0,1,2.95,4.31c.73,1.22,1.06,2.68,2.08,3.73s1.12,2.27,2.09,3.19a7.81,7.81,0,0,1,1.49,3,12.31,12.31,0,0,0,2.81,4.4c.33.32.78.76.79,1.16,0,2,1.63,3,2.54,4.46a17.19,17.19,0,0,1,2.3,5.21,7.93,7.93,0,0,0,1.88,3.8,13.68,13.68,0,0,1,1.25,2c.76,1.09.29,2.58,1.31,3.54a12.09,12.09,0,0,1,1.94,3.28c.62,1.11,1,2.35,1.62,3.46a43.76,43.76,0,0,1,1.87,4.88,2.35,2.35,0,0,1,.19.43c.21.93,0,1.92.44,2.82a10.82,10.82,0,0,1,1.2,2.59c.41,2.06,1.61,3.8,2.1,5.81s1.39,3.88,1.81,5.89c.26,1.25,1.2,2.28,1.09,3.63.39.87.8,1.73,1.18,2.61a3.31,3.31,0,0,1,.46,1.33,13.89,13.89,0,0,0,.85,3.68c.33,1.39,1.27,2.61,1.15,4.11.63,1.29,1.26,2.57,1.88,3.86.49,1,1,2,1.46,3s.29,1.89.85,2.72a1.39,1.39,0,0,1,.25.9c-.22,1.66.94,3,.91,4.64a4.1,4.1,0,0,0,.14,1.9c.92,1.65.57,3.42.68,5.14a2,2,0,0,0,.16.94c1.18,1.58.75,3.38.74,5.11a4.72,4.72,0,0,0,.66,2.73c.32,1.87,1.39,3.57,1.17,5.55a1.65,1.65,0,0,0,.1.95c.71,1.1.62,2.46,1.18,3.61a3.86,3.86,0,0,1,.39,1.36c.11,1.27.15,2.55.21,3.83a6.57,6.57,0,0,1,.86,3.19c.12.92.62,1.79.77,2.71a7.44,7.44,0,0,0,.62,2.77,3.13,3.13,0,0,1,.28,1.38c.11,1.58-.22,3.22.71,4.67.05,1.27.12,2.55.16,3.82a8.17,8.17,0,0,0,.57,3.74,4.44,4.44,0,0,1,.21,1.88c0,1.6,0,3.2,0,4.8a4.28,4.28,0,0,0,.17,1.88c.85,1.51.6,3.12.6,4.69,0,3.84-.12,7.68-.2,11.51,0,.13-.2.25-.3.37-.16-.19-.46-.39-.47-.59,0-2.39,0-4.79,0-7.19a2.31,2.31,0,0,0-1.05-2c-.12-.09-.3-.2-.4-.16a.55.55,0,0,0-.29.37c-.15,1.1-.42,2.22.3,3.23a.58.58,0,0,1,0,.84,2.33,2.33,0,0,0-.24,2.68c.38.67.36,1.15-.26,1.6a1.77,1.77,0,0,0-.34.33c-.45.5-.44.5,0,1.6.28.71.17,1.1-.64,1.47-.45.21-.91.4-1,.87a2.17,2.17,0,0,0,0,1.4c.39.73.72,1.35.07,2.12a1.27,1.27,0,0,0-.21.9c.22,2.1-1.15,3.18-2.63,4.19a2.15,2.15,0,0,1-1.8-.33c-.09-.12-.26-.24-.26-.36,0-1.43-.27-2.88.49-4.22a.85.85,0,0,0,.06-.42c0-.41-1-1.15-1.38-1-.56.3-1.13.58-1.68.89-.13.07-.3.22-.31.35a17.69,17.69,0,0,0-.14,4.3,3.32,3.32,0,0,0,.41.85,3.15,3.15,0,0,1,0,2.76c-.3.7-.26.79.35,1s1.07.87,1.7.62,1.16,0,1.76.2c1.2.35,1.4,1.14,1.32,2.18,0,.32,0,.64,0,1l.06-.06a2.94,2.94,0,0,0-2.15,2.8c0,.67-.27.78-.86.47a6,6,0,0,0-4.15-.28.61.61,0,0,0-.44.74,1.33,1.33,0,0,0,.05.45c.06.14.18.31.31.34a3.73,3.73,0,0,1,2.52,2.62c.07.22.49.32.75.47a1,1,0,0,0,.95,1c0,.32,0,.63,0,.95a.72.72,0,0,0,.42.77c.06,0,.3-.19.32-.31a1.48,1.48,0,0,0-.06-.87c-.14-.23-.49-.32-.75-.47a.93.93,0,0,0-.95-1c.17-.25.27-.61.51-.75.54-.31,1.14-.52,1.71-.78a.63.63,0,0,1,.8.22c.3.33.77.64.44,1.17a2.76,2.76,0,0,0-.14,3.12A13.1,13.1,0,0,0,414,384.9a1.5,1.5,0,0,1,0,2.14,2.86,2.86,0,0,0-.24.42c-.17.37-.13,1-.75.9-.29,0-.53-.38-.83-.45a1.39,1.39,0,0,0-.88.08c-.26.13-.2.47.07.77.64.72,1.3,1.41,1.92,2.14a1.84,1.84,0,0,1-.46,2.49c-1.29.85-1.33.87-.73,2.14.18.37.23.68-.19.75a1.39,1.39,0,0,0-1.3,1.64c0,.48,0,1,.08,1.44a.71.71,0,0,0,.24.38c.22.17.47.05.6-.35a1.16,1.16,0,0,1,1-.89c.5-.09.72,0,.89.85a9.87,9.87,0,0,0,.73,2.25,4.43,4.43,0,0,1,.22,1.38.71.71,0,0,1-.42.8,4.28,4.28,0,0,1-2.78.13,1.3,1.3,0,0,1-.73-.59c-.35-.52-.62-1.1-.93-1.64a2.81,2.81,0,0,0-2.74-1.57c-.32,0-.64,0-1,0l.08.08c-.09-.37-.16-.82-.67-.67-.18.05-.26.42-.38.65l.07-.08c-.74-.11-.81-.78-1.1-1.29s-.81-.61-1.57-.31c-1,.38-1,.38-1-.14,0-1.68,0-3.35-.06-5l-.05.05c.57.29.13-.41.48.11a4.44,4.44,0,0,1,.46,1.79,2.65,2.65,0,0,0,1.1,1.5c.12.08.3.16.4.12a.73.73,0,0,0,.31-.36c.38-1-.16-1.84-.56-2.71-.26-.57.21-1.19.9-1.34a13.63,13.63,0,0,0,1.35-.38.47.47,0,0,0,.26-.34,1.62,1.62,0,0,0-.14-.87c-.17-.22-.54-.29-.81-.44-.7-.38-1.42-.72-2.08-1.16a1.11,1.11,0,0,1-.44-.78c0-1.92,0-3.84,0-5.75,0-1.28.08-2.56.07-3.84a6.09,6.09,0,0,0-.22-1.4c-.1-.4-.65-.78-.15-1.2.21-.18.58-.17.89-.24a6.91,6.91,0,0,0,.9-.21.62.62,0,0,0,.39-.8c-.19-.91-1-1.66-.72-2.69a4.21,4.21,0,0,1,.4-.83c.13.09.28.16.4.26.37.31.72.64,1.09.94.12.1.37.24.41.2.2-.2.46-.44.49-.69a8.05,8.05,0,0,0,0-1.9,2.06,2.06,0,0,0-1-1.54,7.27,7.27,0,0,0-3.5-1.37c-1.12,0-2.24-.08-3.35-.11a3.36,3.36,0,0,0-1.8.56c-.32.19-.54.07-.62-.36a.83.83,0,0,1,0-.47,2.22,2.22,0,0,1,.48-.8c.68-.66,1.49-1.24.64-2.33,0,0,.16-.26.25-.38a1.49,1.49,0,0,0-.17-2.13c-.22-.23-.43-.48-.63-.72-.39-.45-.17-.87.1-1.26a1.32,1.32,0,0,0,.07-1.34,1.34,1.34,0,0,0-.27-.4,4,4,0,0,1-1.36-2.93c0-.67-.54-1.11-1.1-1.46-.32-.2-.62-.14-.7.28a4.06,4.06,0,0,0,.34,3.23,2.73,2.73,0,0,1,.42,1.82,3.94,3.94,0,0,0,.6,2.26c.51.88-.06,1.49-.7,2a.67.67,0,0,1-.42.19.43.43,0,0,1-.29-.31c-.05-.62-.06-1.26-.09-1.89a7.47,7.47,0,0,0,0-.95c-.23-1.25-1.12-2.3-1.06-3.63-.73-.86-.79-2.09-1.63-2.89-.28-.26-.61-.4-.76-.19a1.25,1.25,0,0,0-.19.86,2.07,2.07,0,0,0,.46.83,2,2,0,0,1,.29,1.36c0,.85-.27,1-1.12.64-1.06-.45-1.57-.25-1.76.69-.06.31,0,.64-.09.95-.09.55-.32.63-.94.36-.14-.06-.39-.22-.42-.18a1.58,1.58,0,0,0-.46.75,2.67,2.67,0,0,0,.17,1.38,5,5,0,0,1,.65,2.27,3,3,0,0,1-.34,1.84c-.26.39-.42.86-.68,1.24a6.21,6.21,0,0,0-1,3.6c0,.91-1.38,1.44-2.18.87a1.24,1.24,0,0,1-.47-.78,17.92,17.92,0,0,1-.09-3.35,3.86,3.86,0,0,0-1.7-3.71,1.59,1.59,0,0,0-.79-.23c-.08,0-.21.23-.27.37a1.78,1.78,0,0,0-.09.47c0,.32,0,.64-.05.95-.16,2.62-.28,2.7-2.73,3.85-1,.45-1-.2-1.21-.71a.88.88,0,0,0-.31-.35c-.39-.26-.8-.49-1.2-.72.24-.47.73-.48,1.13-.67.13-.06.3-.21.31-.34,0-.3.1-.75-.06-.89-.59-.51-1.34-.85-1.88-1.4a7.66,7.66,0,0,1-1-1.63,1,1,0,0,0-1.29-.18,4.63,4.63,0,0,0-.75.59c-.11.1-.28.28-.25.38a24.93,24.93,0,0,0,.67,2.71,3.78,3.78,0,0,0,.75,1.2c.5.62,1.08,1.18,1.58,1.8a1.62,1.62,0,0,1,.29,1.8,8.08,8.08,0,0,0-1.07,4.08c0,.33-.42.43-.73.48s-.7,0-.77-.4c-.13-.78-.18-1.56-.28-2.35a.84.84,0,0,0-.12-.45c-.87-1-.45-2.5-1.22-3.57a1.47,1.47,0,0,1,.1-1.78,1.47,1.47,0,0,0-.18-2.12c-.34-.33-.69-.67-1-1a2.42,2.42,0,0,0-2.18-.71.69.69,0,0,0-.42-.73c-.26-.12-.36,0-.25.26a.68.68,0,0,0,.71.43,3.36,3.36,0,0,0,.3.86,9.75,9.75,0,0,1,1.23,1.45c.21.43-.33.77-.67,1.08s-.57.31-.83,0a13.37,13.37,0,0,1-.89-1.1c-.17-.26-.24-.58-.4-.85a.33.33,0,0,0-.32-.11c-.14.06-.33.21-.33.32,0,1.28-.09,2.56,0,3.83a3.34,3.34,0,0,0,.45,1.33,3.85,3.85,0,0,1-.11,3.67c-.07.14-.18.26-.24.41a3.27,3.27,0,0,0,.62,3.95c.51.5.46.55.16,2a3.33,3.33,0,0,0-.13.45c0,.31-.08.63-.12.95a6.73,6.73,0,0,0,.7,4.61c.23.38-.23.95-.73,1-.82.06-1.54,0-2-.91a22.92,22.92,0,0,0-1.36-2c-.33-.53-.42-1.28-.85-1.68a4.94,4.94,0,0,1-1.43-4.37c.05-.64.05-1.28.05-1.92a2.25,2.25,0,0,0-.71-1.72c-.88-.77-1.13-1.9-1.72-2.84-.29-.46-.15-.69.37-1.15a5.49,5.49,0,0,1,1.69-.85,1.09,1.09,0,0,0,.23-1.26c-.85-.95-1.69-1.92-2.59-2.83a2.85,2.85,0,0,1-.93-2.57,2.82,2.82,0,0,0,0-1c-.08-.37-.3-.57-.53-.49a.52.52,0,0,0-.3.35c-.09,2.87-.2,5.75-.23,8.62a4.53,4.53,0,0,1-.8,2.69c-.25.35-.18.92-.26,1.39l.07-.07a4.7,4.7,0,0,1-2.65-.86,1.73,1.73,0,0,0-1.8.12,11.91,11.91,0,0,1-1.92,1.38c-.88.38-1.24.75-.72,1.68.09.16-.26.54-.4.83a2.44,2.44,0,0,0,0,2.26c.22.41.38.84.56,1.27l.08-.08c-.27.13-.71.21-.78.41-.57,1.58-2,1.92-3.32,2.36a1.92,1.92,0,0,1-1.77-.47,1.41,1.41,0,0,0-2.09.2c-1.14,1.19-2.69,1.59-4.16,2.15a1.49,1.49,0,0,1-1.18-.65,1.27,1.27,0,0,1-.13-.46,2.22,2.22,0,0,0-1.53-2.15c-.39-.15-.42-1-.1-1.2a10.89,10.89,0,0,0,1.2-.72,1,1,0,0,0,.23-.84,1,1,0,0,0-.55-.65,2.45,2.45,0,0,0-1.39-.05,5.24,5.24,0,0,0-2.42,2.21,2.1,2.1,0,0,0-.27.89c-.06.48,0,1-.1,1.43a7,7,0,0,0,.89,4.11,1.55,1.55,0,0,0,1.51.92h.47l-.07-.08c.16.25.27.62.51.74a5.5,5.5,0,0,0,1.35.37c.36.07.6.21.65.48s-1,1.07-1.4.91a2.44,2.44,0,0,1-.41-.24,1.32,1.32,0,0,0-1.72.15c-.32.28-.48.25-.82,0-1-.67-.94-2-1.77-2.77-.34-.31-.56-.4-1.2-.15a5.58,5.58,0,0,1-.88.27.56.56,0,0,1-.71-.46c-.1-.47-.08-.95-.14-1.41a3.74,3.74,0,0,1,1.38-3.79c.45-.35.24-.68-.53-.89-.31-.09-.63-.09-.94-.16a.64.64,0,0,1-.38-.25c-.14-.24,0-.48.42-.55a1.06,1.06,0,0,0,1-.9,10.72,10.72,0,0,0,0-1.88c0-.61-.31-.83-.87-.92a.68.68,0,0,0-.81.34,6.49,6.49,0,0,1-1.3,2c-.33.33-.79.74-.8,1.13a6.13,6.13,0,0,1-1.18,3.07,6.06,6.06,0,0,0-.6,5.44,2,2,0,0,1-.19,1.73,1.05,1.05,0,0,0,.22,1.3,7.23,7.23,0,0,1,2.25,4.09c.2.94.63,1.77.89,2.67.1.36,0,.69-.28.82s-.7.26-.89.14a5,5,0,0,1-2.5-3.83c-.06-.78-.75-.91-1.41-.94h-.47l.07.08c0-.52.41-.83.63-1.24a2.41,2.41,0,0,0-.87-3.3c-.44-.23-.9.45-1.22.3s-.31-.84-.43-1.29-.31-.89-.47-1.33,0-.79.59-.84c.78-.07,1.59.21,2.32-.23.14-.08.33-.21.34-.33,0-.3.06-.76-.1-.88a20.66,20.66,0,0,0-2-1.23c-.51.35-1,.68-1.52,1.07-.3.25-.53.34-.82.14a2.73,2.73,0,0,0-1.79-.54,1.59,1.59,0,0,0-.89.21,15.89,15.89,0,0,0-2,2,2.66,2.66,0,0,0-.36,1.35c0,.35-.09.71-.42.8-1.73.48-2.47,1.84-3.05,3.35-.05.13-.12.32-.07.39a.76.76,0,0,0,.86.24,8.41,8.41,0,0,0,.87-.37.68.68,0,0,1,.84.2,2.51,2.51,0,0,1,.81,2.14c-.05.48-.42,1-.83,1-1,0-1.91,0-2.86.08a1.18,1.18,0,0,0-.79.45c-.37.51-.62,1.1-1,1.64a1.36,1.36,0,0,0,0,1.34,12.53,12.53,0,0,1,.53,1.32,1.23,1.23,0,0,1-1,1.72c-.79.17-1.53.31-1.84,1.23-.48,1.37-2.05,2-2.38,3.53-.05.25-.4.51-.67.64-.87.41-1.76.76-2.08,1.8,0,.05-.31.06-.31.06-.3-1.36-2.06-1.47-2.39-2.81,0-.13-.23-.3-.33-.29a.47.47,0,0,0-.31.33c-.05,1.5-1,2.21-2.25,2.72-.33.13-.55.23-.84-.06-.44-.46-.93-.88-1.34-1.37a3.55,3.55,0,0,0-3.48-1c-.5.06-.93.55-.78,1s.37.85.55,1.29c.29.74,0,1.4-.71,1.4-2.39,0-4.77,0-7.16-.06a2.76,2.76,0,0,1-1.34-.46,1.82,1.82,0,0,0-2.19-.06,2.17,2.17,0,0,1-.89.32c-.63.08-1.27.09-1.91.12-1.19.05-2.64-.55-3.08,1.32-.05.21-.5.33-.77.49a16.19,16.19,0,0,0-3.33,1.79,7.85,7.85,0,0,1-1.13.74c-.24-.41-.45-.83-.72-1.22a1,1,0,0,0-1.27-.23c-1,.74-2.27,1.12-3.15,2.08-.4.44-.63.32-1-.31-.47-.86-.47-.86-1,0a7.75,7.75,0,0,1-.86,1.12,1.66,1.66,0,0,1-.78.52,5.84,5.84,0,0,1-3.74-.21,1.6,1.6,0,0,0-1.72,0,4.12,4.12,0,0,1-1.38.25.85.85,0,0,1-.83-.39c-.86-1.12-.92-1.19-1.83-.41a21,21,0,0,1-2.08,1.12,1.79,1.79,0,0,1-2.2.07,2.38,2.38,0,0,0-2.68-.11,1,1,0,0,1-1.25-.09,3.55,3.55,0,0,1-.34-.33,2.69,2.69,0,0,0-2.54-1c-.82,0-1.57.09-1.81,1.1a1.58,1.58,0,0,1-.5.79c-.36.3-.78.71-1.19.72-1.75.07-3.51,0-5.26,0a1.63,1.63,0,0,1-.83-.45,2.57,2.57,0,0,0-1.81-.38.64.64,0,0,0-.42-.75c-.05,0-.28.19-.26.25a.62.62,0,0,0,.73.45c-.05.35-.22.66-.54.7a15.34,15.34,0,0,1-4.28.1,1.1,1.1,0,0,1-1-.9,1.82,1.82,0,0,0-.19-.43.91.91,0,0,0-1.23-.27c-.24.18-.22.48,0,.78s.26.68-.21.69c-1.43.06-2.86.05-4.29,0a.64.64,0,0,1-.4-.23c-.18-.2-.1-.47.17-.76s.65-.69.95-1.06a.4.4,0,0,0,.05-.38.74.74,0,0,0-.85-.25,1.52,1.52,0,0,0-.43.19,1.64,1.64,0,0,1-2.17.15c-.34-.25-.64-.29-.78,0a1.43,1.43,0,0,0-.07.89c.14.44.44.83.6,1.27a.66.66,0,0,1-.31.82c-.42.24-1.19.08-1.26-.26s-.15-.93-.25-1.39a1,1,0,0,0-.95-.88c-1.24-.15-1.53.09-1.87,1.49-.22.93-.45,1.16-1.18,1.17-.48,0-1,0-1.44,0-.84,0-.85-.06-.61-1.13,0-.12,0-.35,0-.37-.28-.11-.64-.32-.86-.22-1,.44-2,1-3,1.45a2.25,2.25,0,0,1-2.65-.39c-.23-.22-.44-.46-.68-.68-.52-.46-.71-.51-1.17,0a7.39,7.39,0,0,1-3.72,2,1.27,1.27,0,0,1-.89-.23,2.91,2.91,0,0,1-1.11-1.5,4.07,4.07,0,0,0-.73-1.21,1.74,1.74,0,0,0-1.2-.69c-.48-.06-1-.15-1.36.21s.16.79.29,1.17c.2.56-.07,1.31-.37,1.14a3.25,3.25,0,0,1-.76-.56,1.81,1.81,0,0,1-.56-1.28,3.41,3.41,0,0,0-.1-.95c-.1-.39-.35-.53-.64-.4a5.7,5.7,0,0,1-5.46-.23,1.16,1.16,0,0,0-1.34,0,2.32,2.32,0,0,1-3.4-.26c-.22-.24-.48-.43-.7-.65s-.53-.26-.82.05-.74.59-.67,1.12c0,.15.17.27.23.42s.22.58.33.87l.07-.07c-.32,0-.64,0-.95,0-1.05-.07-1.84.15-2.16,1.34a2,2,0,0,1-1.35,1.25,1.47,1.47,0,0,1-.9-.08c-.24-.11-.16-.43.11-.74.43-.47.85-.94,1.25-1.43.19-.23-.17-1.16-.48-1.18a1.3,1.3,0,0,0-.87.15c-.56.54-.65,1.41-1.31,1.93a2.44,2.44,0,0,1-2.65.26,8.67,8.67,0,0,1-1.07-.94,3.07,3.07,0,0,0-1.69-.75c-1.47-.32-1.52-.49-.92-1.9.23-.55.07-.91-.45-.91a5.88,5.88,0,0,0-1.39.17.54.54,0,0,0-.38.77c.28.73.58,1.44.91,2.15.21.47.73.53,1.11.78a5.75,5.75,0,0,1,1.35,1.3,1.07,1.07,0,0,1,.08.88c-.12.36-.44.34-.79.11-.54-.35-1.12-.64-1.73-.16a3.82,3.82,0,0,1-3.2.44c-.84-.12-1.3-.87-1.88-1.39a1.08,1.08,0,0,0-1.29-.24c-.57.37.06.78.12,1.18a6.14,6.14,0,0,1-3.36,1.4c-1.27,0-2.57.06-3.63-.86l-2.36-.2.06.07a2.57,2.57,0,0,0-1.49-2.75,1.37,1.37,0,0,0-.9.09.61.61,0,0,0-.36.8,12.09,12.09,0,0,0,.58,1.27,18.31,18.31,0,0,1-1.17,2c-.3.4-.87.3-1.35.3-.72,0-.94-.24-.69-.75.36-.71.67-1.45,1.09-2.12.24-.38.27-.59-.16-.74a.73.73,0,0,0-.46,0,3.26,3.26,0,0,0-.86.36,1.24,1.24,0,0,1-1.32.23c-.35-.22-.5-.76-.73-1.17s-.45-.39-.77-.08c-1.23,1.2-1.33,1.64-.57,3.36.17.39.27.64-.11.77-1.19.41-2.2,1.32-3.61,1.07a2.84,2.84,0,0,0-1.36.31,4.75,4.75,0,0,1-4.58-.21,1.22,1.22,0,0,0-1.34.18.74.74,0,0,1-.88.07,3.6,3.6,0,0,0-1.81-.53c-2.24-.06-4.47-.16-6.71-.18-1.58,0-3.2-.21-4.66.67-1,.05-1.91.15-2.87.14-3.67,0-7.35-.07-11-.11a5.23,5.23,0,0,0-3.24.55,1.65,1.65,0,0,1-.91.2q-5-.08-10.07-.18a.9.9,0,0,1-.47-.07c-1.74-1.17-3.71-.69-5.59-.78a2.45,2.45,0,0,0-1.38.23,5.87,5.87,0,0,1-3.26.54c-4,0-8-.1-12-.13a4,4,0,0,0-1.88.19c-1.83,1.07-3.75.44-5.63.41a1.6,1.6,0,0,1-.86-.39,1.33,1.33,0,0,0-1.34-.13c-.45.16-.88.55-1.31.54a9.68,9.68,0,0,0-5,1.48.91.91,0,0,1-.89,0A10.37,10.37,0,0,1,31.61,423a1.11,1.11,0,0,0-1.32-.07l-.42.23A1.54,1.54,0,0,1,28.1,423c-.25-.2-.46-.45-.71-.65-.53-.45-.54-.45-1.61-.05s-1.82.29-2.44-.67a4.06,4.06,0,0,0-.5-.79c-2-1.94-2.26-2.43-2.25-4.38,0-4,.12-8,.16-12a5.36,5.36,0,0,1,.75-2.72,1.83,1.83,0,0,0,0-1.84,5.13,5.13,0,0,1-.61-2.76c.07-4.79.12-9.59.18-14.38a5.64,5.64,0,0,0-.48-2.79,4.07,4.07,0,0,1-.27-1.86c0-3.19.09-6.39.09-9.59,0-1.41.18-2.86-.62-4.19a2.91,2.91,0,0,1-.18-1.4c0-1.44,0-2.88,0-4.32a6.92,6.92,0,0,0-.58-3.72,1.73,1.73,0,0,1-.18-.93c.06-3.19-.24-6.39.1-9.58a3.71,3.71,0,0,1,.53-1.82,1.19,1.19,0,0,0,.12-1.33,4.31,4.31,0,0,1-.55-2.29c0-2.72,0-5.44,0-8.16,0-2.39.05-4.79.12-7.19a4.58,4.58,0,0,0-.52-2.29,3.19,3.19,0,0,1-.29-1.38c0-1.92,0-3.83-.05-5.75,0-.48.15-1.07-.07-1.42-1.1-1.79-.46-3.75-.67-5.63a3.9,3.9,0,0,0-.23-1.39c-1.05-2-.59-4.06-.5-6.11a1.88,1.88,0,0,1,.29-.89,4.29,4.29,0,0,0,.63-2.28c0-.63.08-1.27.09-1.91.06-6.24.1-12.47.19-18.7s.22-12.47.33-18.7q0-1.44.09-2.88a6.62,6.62,0,0,0-.65-3.24,1.78,1.78,0,0,1-.08-1.39c1-1.94.83-4,.86-6.07a3.62,3.62,0,0,0-.49-1.82,2.36,2.36,0,0,1-.06-2.3,6.43,6.43,0,0,0,.7-3.23c.06-4.32.09-8.63.18-12.95q.23-11.5.5-23c0-1.43-.09-2.88.76-4.18.12-.19,0-.63-.15-.89a4.52,4.52,0,0,1-.48-2.31c.07-4.15.12-8.31.18-12.47q.22-16.06.45-32.13a7.19,7.19,0,0,0-.54-3.73,4.3,4.3,0,0,1-.2-1.88c0-2.07,0-4.15,0-6.23a3.63,3.63,0,0,0-.33-1.86,3.17,3.17,0,0,1,0-3.19c.07-.13.18-.32.14-.42-.93-2.49-.31-5.06-.45-7.59a6.29,6.29,0,0,1,.57-2.77,5.55,5.55,0,0,0,.07-4.18A5.8,5.8,0,0,1,19,114.1q.06-4.08.1-8.15c0-1.44,0-2.88,0-4.32a3.4,3.4,0,0,0-.4-1.84,3.37,3.37,0,0,1-.39-1.85q0-3.59.05-7.19c0-2.4,0-4.79.09-7.19a4.19,4.19,0,0,0-.59-2.27,1.7,1.7,0,0,1-.25-.9c0-1.12,0-2.24.13-3.35a4.07,4.07,0,0,1,.47-1.33,4.27,4.27,0,0,0,0-3.66,6.07,6.07,0,0,1-.41-1.36,1.37,1.37,0,0,1,.35-1.32c.11-.09.54.23.83.33a.4.4,0,0,0,.34-.13.71.71,0,0,0,.21-.4c0-1.92.06-3.84.06-5.75,0-.53-.34-.8-.79-1.06-.81-.45-.83-.56-.46-1s.65-.7,1-1,.21-.53,0-.85a2.31,2.31,0,0,1-.41-1.81c.14-1-.45-1.79-.65-2.69.92-1.27.7-2.73.65-4.15a1,1,0,0,0-.9-.94c-.31,0-.63-.06-.95-.09ZM417.46,336c0,.78.05,1.56.11,2.34,0,.12.2.23.3.35.11-.12.26-.22.31-.36a2.3,2.3,0,0,0,0-1.82.79.79,0,0,0-.77-.45c0-.31,0-.62,0-.92a.74.74,0,0,0-.42-.77c-.05,0-.29.19-.3.31a1.45,1.45,0,0,0,.06.86C416.87,335.72,417.21,335.81,417.46,336Zm-13.82,19c.31,0,.63,0,.93,0a.93.93,0,0,0,.81-1.31c-.13-.34-.42-.41-.78-.39s-.66.07-.75.4a9.25,9.25,0,0,0-.16,1.39,1.22,1.22,0,0,1-.92-1,2.84,2.84,0,0,0-1.08-1.51c-.12-.09-.3-.22-.42-.19a.53.53,0,0,0-.28.36,5.43,5.43,0,0,0-.18.91.94.94,0,0,0,0,.47,4.46,4.46,0,0,1,.56,1.28c0,.42-.35.83-.5,1.26a.87.87,0,0,0,.62,1.07c.35.09.71,0,.82-.25C402.68,356.53,403.46,355.89,403.64,354.94Zm-70.36,19a2.4,2.4,0,0,0-.83.29c-1.1.9-1.09,1.18-.06,2.1.11.1.29.2.39.17a.48.48,0,0,0,.28-.34c.08-.75.12-1.51.17-2.27a2.06,2.06,0,0,1,1.18.72c.56.56,1.06,1.18,1.67,1.68a3,3,0,0,0,1.27.52,2.14,2.14,0,0,0,2.06-.91,2.31,2.31,0,0,0-1.24-3.72c-.34-.11-.74.05-.74.36,0,1.51,0,1.5-.55,1.95-.26.21-.49.14-.78-.14a3.74,3.74,0,0,1-.94-2.11c-.23-1.09-.86-1.4-2.14-1.13a1,1,0,0,0-.56,1.16C332.72,372.86,333,373.41,333.28,374Zm70-8.57a.71.71,0,0,0,.84-.23,1.78,1.78,0,0,0,.34-.85,1.67,1.67,0,0,1,1.3-1.72c.42-.12.5-.4.23-.7-.54-.58-1.05-1.17-1.63-1.71a2,2,0,0,0-1.78-.34,1,1,0,0,0-.87,1,2.74,2.74,0,0,0,.13,1.36,5.58,5.58,0,0,1,.8,2.68C402.68,365,403.08,365.2,403.3,365.39ZM299.87,396.17c-.27.52-.42.94.2,1.13a1.26,1.26,0,0,0,1.24-.46,1.32,1.32,0,0,0,.31-.36c.51-1,1-1.91,1.5-2.89a1.59,1.59,0,0,0,.08-.92,2.43,2.43,0,0,0-.41-.8.69.69,0,0,0-.39.12,16.32,16.32,0,0,1-1.81,1.44c-.39.22-1,.22-1.15.66a1.36,1.36,0,0,0,.28,1.32A.7.7,0,0,1,299.87,396.17ZM41.84,418l0-.06c-.41.21-.83.4-1.23.62-.64.36-.72,1.1-.09,1.29,1,.3,1.43,1.21,2.25,1.65.28.15.53,0,.66-.35a1.84,1.84,0,0,1,1.28-1.21c.53-.17.53-.6.12-1s-.65-.68-1-1c-.55-.54-.62-.54-1.56-.1ZM407.21,385.6a6.57,6.57,0,0,0,1-.66,1.27,1.27,0,0,0,.22-2c-.5-.64-.85-.75-1.54-.44l-1.29.57a1.29,1.29,0,0,0-.38,1.26,3,3,0,0,0,1.34,1.28C406.69,385.65,406.88,385.6,407.21,385.6ZM383,365.06c.43,0,.63.08.73,0a7.62,7.62,0,0,0,1.05-.91,1.26,1.26,0,0,0,.06-1.69c-.19-.25-.42-.47-.61-.72s-.48-.32-.8,0a2.39,2.39,0,0,0-.89,2.89A.78.78,0,0,0,383,365.06ZM138.18,417.4a5.19,5.19,0,0,0,.77-.52,1.28,1.28,0,0,0,.41-1.64c-.27-.56-.53-1.12-.82-1.66-.15-.27-.35-.52-.51-.78-.32-.51-.93-.76-1.05-.41s-.25.7-.12.86a4.15,4.15,0,0,1,.8,3.08,2.14,2.14,0,0,0,.21.87C137.9,417.29,138.07,417.33,138.18,417.4Zm279.44-87.57c-.07-.76-.16-1.84-.31-2.92-.05-.36-.39-.46-.76-.42s-.63.2-.53.49a7.07,7.07,0,0,1,.54,1.78,15.1,15.1,0,0,0,.16,3.74c0,.14.19.24.29.35.1-.12.27-.23.29-.36C417.42,331.72,417.49,331,417.62,329.83Zm-68.77,33.84c0,.41,0,.26,0,.1a5.5,5.5,0,0,0-.08-.91,4.89,4.89,0,0,0-.34-.82,2.74,2.74,0,0,0-.75.36c-.94.82-1,1.49-.23,2.33a2.76,2.76,0,0,0,.75.51C348.45,365.36,348.81,364.76,348.85,363.67Zm59.32,27.85c.73.1,1,0,1.22-.29a.56.56,0,0,0-.21-.74,5.55,5.55,0,0,0-1.13-.75.68.68,0,0,0-.83.24c-.29.35-.28,1.06,0,1.21A5.38,5.38,0,0,0,408.17,391.52Zm3.32-36.07c.08.12.21.36.24.35a2.16,2.16,0,0,0,1.45-1.55.62.62,0,0,0-.32-.76c-.08,0-.28.06-.39.14A1.75,1.75,0,0,0,411.49,355.45ZM58.8,422a1.5,1.5,0,0,0,.37,0,1.08,1.08,0,0,0,.46-1.15,1.2,1.2,0,0,0-.7-.44c-.56-.14-.79.06-.89.67S58.09,421.83,58.8,422Zm241.54-31.33h-.77a.68.68,0,0,0-.78.35c-.06.21.12.51.23.74s.2.23.3.34c.25.27.53.36.76.16a6.36,6.36,0,0,0,.89-1C301.13,391,300.58,390.67,300.34,390.65Zm20.51-15.08c.58-.1.82-.41.72-.94s-.35-.84-.91-.73-.79.38-.73.94A.72.72,0,0,0,320.85,375.57ZM296.73,399.1c.16-.14.31-.21.36-.32.32-.73.14-1.11-.6-1.32a.6.6,0,0,0-.78.28c0,.09,0,.29.13.39C296.12,398.47,296.43,398.78,296.73,399.1Zm85.75-41.87a8.05,8.05,0,0,0-.14-1c0-.13-.18-.24-.27-.35-.1.1-.24.18-.28.3a3.1,3.1,0,0,0-.2.85c0,.57.3,1.29.38,1.19A5.72,5.72,0,0,0,382.48,357.23ZM147.14,415a.57.57,0,0,0-.32-.72c-.09,0-.28.08-.39.18a7.13,7.13,0,0,0-.62.61c-.09.11-.25.29-.22.36a.63.63,0,0,0,.72.36C146.94,415.73,147.06,415.64,147.14,415Zm-4.94.33c-.16-.14-.26-.29-.39-.32a1,1,0,0,0-1.11.44,1.09,1.09,0,0,0,0,.81c.11.3.42.31.68,0A11.69,11.69,0,0,0,142.2,415.34ZM17.73,45.39a2.24,2.24,0,0,0-.49.48.5.5,0,0,0,.26.75c.22.09.41-.1.5-.43A.7.7,0,0,0,17.73,45.39Zm7.9,373.86a.49.49,0,0,0,.7.31c.19-.1.5-.33.47-.44-.07-.32-.36-.39-.69-.31S25.63,419,25.63,419.25Zm80.66-1.47a2.69,2.69,0,0,0,.49-.46.49.49,0,0,0-.26-.73c-.22-.09-.4.11-.48.43A.67.67,0,0,0,106.29,417.78Zm309.54-94.32a4.22,4.22,0,0,0,.33.72c.13-.22.37-.43.38-.66s-.22-.67-.32-.67A.48.48,0,0,0,415.83,323.46Zm-2.4,33.08.27.35c.11-.1.29-.19.3-.3s-.16-.23-.25-.34Zm-1.18,46.11c-.07-.09-.16-.27-.2-.26-.38.1-.4.29-.06.47C412,402.88,412.16,402.73,412.25,402.65Zm-12.73-44.37-.31-.22,0,.35Zm-2.74-8.68-.31-.2-.05.35Zm-46.61,15.73.2-.31-.34,0Zm-102.6,48.29.34-.28-.28-.34c-.11.1-.29.18-.31.29S247.48,413.51,247.57,413.62ZM189,415.46l.3-.23c-.08-.09-.15-.24-.25-.27s-.24.13-.26.23S188.9,415.37,189,415.46Zm-45.16,3.11c.1-.08.3-.19.29-.24-.12-.43-.34-.45-.54-.06C143.55,418.32,143.73,418.47,143.82,418.57Zm-97,3.13c.09-.07.27-.16.26-.2-.11-.38-.29-.4-.48-.06C46.56,421.48,46.72,421.61,46.8,421.7ZM18.14,13.17c.09-.07.27-.16.26-.21-.1-.38-.28-.4-.47-.06C17.91,13,18.07,13.08,18.14,13.17Z"/><path class="cls-1" d="M8.65,140.22a14.57,14.57,0,0,1-.06,2.48c-.19.76-.55,1.47-.74,2.23s.08,1.64-.39,2.33a1.2,1.2,0,0,0,0,1.68.75.75,0,0,1,.18.43,13.57,13.57,0,0,1,0,1.43q-.15,7.42-.34,14.85a6.1,6.1,0,0,1-.77,3.67c-.25.35,0,.89.25,1.34A5.54,5.54,0,0,1,7.07,172c-.92,1.25-.74,2.72-.77,4.14-.08,3.67-.14,7.35-.23,11,0,1.42.14,2.89-.82,4.14-.2,1.88-.63,3.76.37,5.58a4.59,4.59,0,0,1,.12,2.82c-.72.9-.72,2.06-1.12,3.08,0,.07-.28.16-.32.12-.35-.32-.83-.6-1-1a4.75,4.75,0,0,1,.13-4.15,3.68,3.68,0,0,0,.41-3.61A6.38,6.38,0,0,1,3.2,191c.06-1.43.13-2.87.16-4.31a1.71,1.71,0,0,0-1.2-1.82,1.14,1.14,0,0,1-.68-1.15c0-1.91.08-3.83.13-5.74a1.91,1.91,0,0,1,.12-.94c1.14-1.74.75-3.71.81-5.59.13-3.35.19-6.7.22-10.06,0-1.57.23-3.18-.6-4.67A3.11,3.11,0,0,1,2,155.26c0-1.27,0-2.55,0-3.83a4,4,0,0,1,.58-2.28A3.78,3.78,0,0,0,3,147.3c.16-1.72-.2-3.54.91-5.09.1-1.11.24-2.22.29-3.33a6.09,6.09,0,0,1,.64-3.24,3,3,0,0,0,.27-1.37c.1-2.24.15-4.47.27-6.7a4,4,0,0,1,.34-1.85,3.33,3.33,0,0,0-.09-3.6,2,2,0,0,1-.14-.93,1.6,1.6,0,0,1,.16-.92c.84-1,.5-2.5,1.36-3.51a2.18,2.18,0,0,1,.35-.33.87.87,0,0,1,.43-.19c.09,0,.24.19.25.3.06.79.12,1.58.12,2.37,0,5-.11,9.9-.12,14.85,0,2-.45,4.13.62,6.09C8.82,140.22,8.68,140.79,8.65,140.22Z"/><path class="cls-1" d="M311.08,93.23a2.71,2.71,0,0,1,2.16.79c1.87,2,3.73,3.9,5.61,5.84.74.77.77,2.19,2.16,2.36.74.59,1.48,1.18,2.24,1.76a18.42,18.42,0,0,1,1.51,1.12c1.61,1.52,3,3.31,5.06,4.27,1.21,1.26,2.41,2.53,3.61,3.79a9.14,9.14,0,0,0,2.55,3.4c1.75,1.66,2.76,3.85,4.23,5.7.19.24.21.62.41.85a15.78,15.78,0,0,1,3.58,5.55,4.43,4.43,0,0,0,.81,1.16,5.38,5.38,0,0,0,.66.69,17.2,17.2,0,0,1,4.53,6.59c.27.61.16.84-.53.89-.31,0-.63,0-.95,0l.06.06c-.12-.23-.19-.6-.36-.65-.49-.14-.57.3-.68.64l.08-.07a6.23,6.23,0,0,0-1.64-.92c-1.34-.31-2.06-1.46-3.15-2.11s-1.47-2-2-3.15a3,3,0,0,0-1.67-1.63,4.82,4.82,0,0,1-2.68-2.6,4.16,4.16,0,0,0-1.8-2.14,4.47,4.47,0,0,1-2.29-2.32,4.27,4.27,0,0,0-.87-1.13c-3-3.06-3-3-4.27-5.54-.43-.86-.72-1.79-1.78-2.11a.71.71,0,0,1-.32-.34c-.52-1-1-2-1.54-3a6.63,6.63,0,0,1-2.28-1.68c-.2-.25-.41-.48-.6-.74a.73.73,0,0,1,.06-.88,2.73,2.73,0,0,0,.39-.85,2.43,2.43,0,0,0-.64-2.19c-.69-.83-2.2-.8-2.31-2.22-.6-.74-1.26-1.44-1.81-2.22-.82-1.16-1.34-2.5-2.48-3.46A30,30,0,0,1,311.48,94a2.54,2.54,0,0,1-.36-.84Z"/><path class="cls-1" d="M353,398.24a3.07,3.07,0,0,1,0,1c-.36,1.1,1.15,2,.33,3.12-.59.84-.36,1.85-.56,2.78a.93.93,0,0,1-1,.81,5.23,5.23,0,0,0-2.25.69.92.92,0,0,1-1.19-.48c-.2-.43-.45-.84-.63-1.28a3.81,3.81,0,0,1-.43-1.34c0-1.11.08-2.23.18-3.34a1.17,1.17,0,0,1,.87-1,1.44,1.44,0,0,0,.92-1.51,1.15,1.15,0,0,0-1.08-1.29,10.74,10.74,0,0,1-1.9-.17,3.31,3.31,0,0,1-1.15-.78.58.58,0,0,1-.17-.81c.37-.52,1-1,1.1-1.53s-.32-1.15-.54-1.72-.5-1.15-.72-1.74a.6.6,0,0,1,.34-.82,1.94,1.94,0,0,1,.89.05.56.56,0,0,1,.3.35,1.62,1.62,0,0,0,1.71,1.35.92.92,0,0,1,.47.08,2.68,2.68,0,0,1,.68.57c.2.26-.12.9-.55,1.17-1,.62-1,.85-.31,1.57a9.74,9.74,0,0,0,1,1,14.37,14.37,0,0,1,1.58,1,12.64,12.64,0,0,1,1,1.58,1.71,1.71,0,0,0,1.16.77Z"/><path class="cls-1" d="M333.76,398.88c.57,1.27,1.16,2.53,1.72,3.81.15.35,0,.61-.36.77-.84.38-1.89.08-2.64.78a.39.39,0,0,1-.39,0,6.43,6.43,0,0,0-2.61-.92c-.34-.08-.35-.48-.5-.74a15,15,0,0,1-1.23-3.5c-.08-.29-.33-.59-.28-.85s.33-.51.55-.73a2,2,0,0,1,2.18-.42,4.15,4.15,0,0,1,1.48,1.11,2.74,2.74,0,0,0,2.15.72Z"/><path class="cls-1" d="M357.09,393.7a.69.69,0,0,1,.32-.88c.5-.29,1.24-.26,1.34-1.09.06-.54-.3-.87-.49-1.29s-.51-1.15-.81-1.7a4.87,4.87,0,0,1-.38-2.76c0-.57.37-.8.88-.59.29.13.56.41.84.41,2,0,2.67,1.31,3.38,2.8a1.46,1.46,0,0,1-.17,1.66,2.5,2.5,0,0,0,.26,2.67c.14.28,0,.58-.4.62-.63.08-1.27,0-1.89.08a3.17,3.17,0,0,0-.81.39,3.21,3.21,0,0,0,.66.52c.33.16.61.34.52.57s-.46.34-.82.33A2.43,2.43,0,0,1,357.09,393.7Z"/><path class="cls-1" d="M337.7,396.3a13.64,13.64,0,0,1,.19-1.43.86.86,0,0,1,1.5-.13,1.06,1.06,0,0,1,.15.43c-.05,1.36.83,2.38,1.32,3.53a2.13,2.13,0,0,0,2.28,1.4,4,4,0,0,1,1.43.08,1,1,0,0,1,.54.68,2.31,2.31,0,0,1-.19,1.85,12.45,12.45,0,0,0-.73,1.23c-.33.6-.34.59-1,.28-.85-.43-1.67-.9-2.54-1.27a1.78,1.78,0,0,1-1-.89c-.47-1-.9-2-1.45-3A4.48,4.48,0,0,1,337.7,396.3Z"/><path class="cls-1" d="M310.69,404.94a7.54,7.54,0,0,1-.24,1.57c-.09.22-.48.35-.75.48s-.56,0-.84-.26a3.46,3.46,0,0,1-1.16-2.52,1,1,0,0,0-.9-.92c-.47-.05-.95,0-1.42-.09a3.14,3.14,0,0,1-.88-.29.59.59,0,0,1-.37-.8,6.85,6.85,0,0,0,.93-3.59c0-.58.42-.79.93-.53l.84.45c1,.49,1.07.8.55,1.84s-.56,1.33.27,2c.12.1.33.09.43.2a1.94,1.94,0,0,1,.56.73c.25.89.74.84,1.39.47a.4.4,0,0,1,.34.1C310.51,404.18,310.61,404.64,310.69,404.94Z"/><path class="cls-1" d="M316.57,393.78c-.06.69-.66,1.07-.92,1.64-.6,1.29-1.32,2.54-1.11,4.07a7.12,7.12,0,0,1,0,1.9,1.91,1.91,0,0,1-.44.76.91.91,0,0,1-.41-.21c-.44-.46-.84-.95-1.28-1.41s-.29-.8-.07-1.25-.53-1.12,0-1.73a3.81,3.81,0,0,0,.56-1.79,2.21,2.21,0,0,1,2.34-1.92c.48,0,1,0,1.44,0Z"/><path class="cls-1" d="M302.56,86.36c1.18.19,1.56,1.55,2.62,1.85a5.89,5.89,0,0,1,2.51,2.06,10.58,10.58,0,0,0,2.37,1.48,1.86,1.86,0,0,1,1,1.48l0,0a13.18,13.18,0,0,1-1.41-.07c-.46-.08-1.07-.1-1.32-.4-1.13-1.34-3-1.71-4.05-3.15a4.37,4.37,0,0,0-1.87-1.39c-.61-.25-.56-.34,0-1.4a3.39,3.39,0,0,0,.15-.45Z"/><path class="cls-1" d="M318.38,404.47a5.78,5.78,0,0,0-.33-1.82c-.64-1.38-.45-2,.68-2.7a1.29,1.29,0,0,1,1.67.33,12.05,12.05,0,0,1,1.61,3.28.6.6,0,0,1-.44.73c-1.09.08-2.18.06-3.27.08Z"/><path class="cls-1" d="M359,405.66c-.1-.12-.26-.23-.29-.37-.25-1.15-1.28-1.79-1.75-2.78a2.51,2.51,0,0,1,0-1.39,1.09,1.09,0,0,1,.94-.9,2.14,2.14,0,0,0,.85-.4.55.55,0,0,1,.83,0,1.84,1.84,0,0,1,.77,1.1c-1,1.35-.58,3.05-1.05,4.53C359.28,405.53,359.12,405.58,359,405.66Z"/><path class="cls-1" d="M303.4,407.89a2.18,2.18,0,0,1-1.64-.58c-.47-.45-.59-1-.15-1.12a6.73,6.73,0,0,0,2.39-1.45c.88-.68,1.3-.63,2,.17.2.23.49.51.49.77s-.37.51-.46.81A1.71,1.71,0,0,1,304,407.9,5,5,0,0,0,303.4,407.89Z"/><path class="cls-1" d="M390,365.75c.09-1.33.14-2,.19-2.59,0-.3.62-.66,1.13-.63.12,0,.33.22.32.32,0,.61-.75,1.1-.5,1.71a5.59,5.59,0,0,0,1.08,1.51,1.57,1.57,0,0,1,.2,2.12c-.25.39-.42.84-.65,1.25a.71.71,0,0,1-.32.32c-.07,0-.25-.11-.31-.21C390.42,368.15,389.81,366.71,390,365.75Z"/><path class="cls-1" d="M324.07,405.31c0-.63,0-.94,0-1.25a2.44,2.44,0,0,1,1.09-1.95c.31-.25.5-.23.83,0,1,.7,1,1.9,1.56,2.81.19.32-.77,1.39-1.13,1.18-.93-.53-1.36-.34-1.57.66,0,.13-.2.23-.3.34-.1-.09-.27-.18-.29-.29C324.18,406.22,324.11,405.61,324.07,405.31Z"/><path class="cls-1" d="M331,392.2l.65,0c.8.05,1.18.41,1.18,1.11,0,.48,0,.95,0,1.42,0,.62-.28,1-.71,1.05a.81.81,0,0,1-.87-.23c-.63-.7-1.27-1.4-1.89-2.11-.2-.23.15-1.2.44-1.22Z"/><path class="cls-1" d="M355.64,382.15a3.14,3.14,0,0,1-2.46-2.61c-.14-.59-.61-1.07-.62-1.75,0-.48,0-.58.35-.27q1.9,1.8,3.79,3.62a1.29,1.29,0,0,1,.15,1.33c-.23.19-.48.18-.8-.06A3.54,3.54,0,0,0,355.64,382.15Z"/><path class="cls-1" d="M384.69,400.69a2.6,2.6,0,0,1-2.87-1.85c-.15-.44-.36-.85-.54-1.28s.05-.76.55-1.14c.84-.64,1.66-.51,1.77.35a7.29,7.29,0,0,0,.86,2.62,3.86,3.86,0,0,1,.15,1.38Z"/><path class="cls-1" d="M346.76,410.12a1.61,1.61,0,0,1-.17.4c-1.35,1.55-3.09,1.36-4.16-.47a1.08,1.08,0,0,1,.09-.85c.14-.26.49-.25.78,0s.51.23.83,0a1.44,1.44,0,0,1,2.07.2A6,6,0,0,1,346.76,410.12Z"/><path class="cls-1" d="M338.29,407a.55.55,0,0,0-.81.1c-.27.29-.55.35-.78.08s-.55-.71-.82-1.07c.38-.67.74-1.34,1.15-2,.16-.27,1.1-.13,1.23.17.32.7.68,1.38.94,2.1.09.24-.08.57-.13.86Z"/><path class="cls-1" d="M18.42,2.53c-.55.06-1.42-1.1-1.35-1.74A.74.74,0,0,1,17.6.1,2.54,2.54,0,0,1,18.55,0a1.62,1.62,0,0,1,.89.24,6.18,6.18,0,0,0,2.65.92c.14,0,.24.21.35.32-.13.09-.24.24-.39.27C20.84,2.05,19.49,1.68,18.42,2.53Z"/><path class="cls-1" d="M312.82,388.69c-.11,1-.19,1.78-.3,2.56a.37.37,0,0,1-.28.25.75.75,0,0,1-.42-.2,2.53,2.53,0,0,1-.57-.75,4.55,4.55,0,0,1,.07-3.25,2.27,2.27,0,0,1,.58-.74.6.6,0,0,1,.43-.18.59.59,0,0,1,.51.61C312.86,387.63,312.83,388.26,312.82,388.69Z"/><path class="cls-1" d="M382.38,391.71a1.43,1.43,0,0,1-.29-.37,2.3,2.3,0,0,0-1.22-1.36c-.51-.24-.49-.67-.12-1.05a2.16,2.16,0,0,1,2.59-.38.58.58,0,0,1,.33.8c-.29.72-.63,1.42-1,2.12C382.65,391.58,382.49,391.63,382.38,391.71Z"/><path class="cls-1" d="M376.2,391.9l-.95.1a1,1,0,0,0-.95.88c-.12.78-.21,1.57-.37,2.34-.08.37-.4.45-.77.39s-.58-.23-.47-.53.43-.84.57-1.29a3.31,3.31,0,0,0,.06-1c0-.63,0-1.27.05-1.91s.41-.63,1-.33,1.09.6,1.61.94c.11.07.11.29.15.44Z"/><path class="cls-1" d="M399,387.43a2.68,2.68,0,0,1-1.26-.21,8.68,8.68,0,0,1-1.64-.89,1.54,1.54,0,0,1-.57-1.66,3.57,3.57,0,0,1,.41-.8,4,4,0,0,1,.41.23c1.13.81,1.74,2.26,3.24,2.61.13,0,.22.22.32.33A3.2,3.2,0,0,1,399,387.43Z"/><path class="cls-1" d="M388.05,374.68c-1,0-1.68-.81-2.51-1.22-.18-.09-.29-.58-.22-.83a1,1,0,0,1,.61-.59,1.52,1.52,0,0,1,2,.81c.22.43.42.86.6,1.3a.38.38,0,0,1,0,.36A1.47,1.47,0,0,1,388.05,374.68Z"/><path class="cls-1" d="M313.59,408c-.15,0-.36.07-.45,0a13.2,13.2,0,0,1-1.32-1.27.9.9,0,0,1,.62-1.37,5.7,5.7,0,0,1,.92,0,1,1,0,0,1,1.06,1.19,2,2,0,0,1-.15.89C314.13,407.72,313.82,407.85,313.59,408Z"/><path class="cls-1" d="M80.27,8.49a.91.91,0,0,1-1-.91,2.41,2.41,0,0,1,.81-2c.43-.4.8-.4,1,.07s.37.83.57,1.24.18.67-.4,1.11A5.35,5.35,0,0,1,80.27,8.49Z"/><path class="cls-1" d="M324.31,391.84c0-.92.4-1.57.6-1.31s.27.24.27.37a3.2,3.2,0,0,0,2.2,3.24,1.43,1.43,0,0,1,.37.29c-.21.14-.41.39-.63.41a2.31,2.31,0,0,1-2.71-2A9.41,9.41,0,0,1,324.31,391.84Z"/><path class="cls-1" d="M379.26,381.47c.16-.25.27-.65.48-.71,1.38-.4,2.73-.47,3.79.77.1.11.23.36.19.39a1.56,1.56,0,0,1-.66.46,1.9,1.9,0,0,1-1.73-.36,2.91,2.91,0,0,0-2.15-.63Z"/><path class="cls-1" d="M389.16,379.75c.52.77.41.8-.05.75a6,6,0,0,1-2.8-1.37c-.17-.12-.17-.56-.14-.84s.94-.61,1.16-.41c.45.4.91.8,1.33,1.24A3.43,3.43,0,0,1,389.16,379.75Z"/><path class="cls-1" d="M397.16,373.14c-.26-.31-.3-.63,0-.74a1.21,1.21,0,0,1,.87-.06,2.15,2.15,0,0,1,1.35,1.76c0,.34-.07.66-.42.74s-.73.06-.86-.1A11.35,11.35,0,0,1,397.16,373.14Z"/><path class="cls-1" d="M388.27,405.34c0,1-.72,1.34-1.36.93a4.56,4.56,0,0,1-.73-.6.74.74,0,0,1,0-1.19c.6-.66,1-.71,1.54-.12A4.78,4.78,0,0,1,388.27,405.34Z"/><path class="cls-1" d="M375.08,400.53a3.68,3.68,0,0,0-2.21.56.43.43,0,0,1-.35-.07c-.07-.28-.21-.64-.1-.87a3.8,3.8,0,0,1,.83-1.09,1,1,0,0,1,1.72.62,5.74,5.74,0,0,1,0,.93Z"/><path class="cls-1" d="M353.5,142.85l-.84.35c-.65.28-1,.19-1-.26,0-.77,0-1.54.08-2.3a.43.43,0,0,1,.27-.34c.11,0,.27.1.39.19a2.56,2.56,0,0,1,1,2.43Z"/><path class="cls-1" d="M350,386.26c-.25.55-.49,1.11-.73,1.66s-.64.44-1,.05a1.73,1.73,0,0,1-.54-1.66c.11-.48,1.24-.68,2-.37C349.86,386,349.92,386.15,350,386.26Z"/><path class="cls-1" d="M352.43,373.34a5.4,5.4,0,0,1,2.29.25.71.71,0,0,1,.42.75c0,.32-.07.65-.39.76a1.2,1.2,0,0,1-.88-.05,2.69,2.69,0,0,1-1.37-1.78Z"/><path class="cls-1" d="M364.81,390.65a.69.69,0,0,1,.61-.57.7.7,0,0,1,.83.25,1.81,1.81,0,0,1,.15,1.77c0,.14-.23.35-.31.33A2,2,0,0,1,364.81,390.65Z"/><path class="cls-1" d="M379.82,404.27c0-.3,0-.61.09-.91a.73.73,0,0,1,.24-.38c.2-.14.45,0,.71.23.53.51.61.72.41,1.14s-.4.82-.58,1.24-.41.57-.52.43a2.05,2.05,0,0,1-.29-.83C379.83,404.89,379.84,404.58,379.82,404.27Z"/><path class="cls-1" d="M330.15,385.45a2.35,2.35,0,0,1,2.43,1,.78.78,0,0,1,.17.43.47.47,0,0,1-.33.26c-.77.06-1.54.09-2.31.13l.07.08c0-.67,0-1.33,0-2Z"/><path class="cls-1" d="M318.3,404.37a1,1,0,0,1-.85.91,5.27,5.27,0,0,1-1.37-.09c-.31,0-.58-.76-.43-1.17a.64.64,0,0,1,.69-.44,2.76,2.76,0,0,1,.85.24c.41.19.8.43,1.19.65Z"/><path class="cls-1" d="M166.35,419.05c-.26,0-.73,0-1.2-.1-.14,0-.25-.19-.38-.29.1-.1.18-.24.3-.29a4.65,4.65,0,0,1,2.34-.11c.38.05.59.29.5.48a.56.56,0,0,1-.39.25A11,11,0,0,1,166.35,419.05Z"/><path class="cls-1" d="M379.89,399.66c-.75-.05-1.5-.06-2.24-.18-.42-.06-.46-.37-.19-.69.78-.94,1.08-1,1.77-.24a1.67,1.67,0,0,1,.61,1.17Z"/><path class="cls-1" d="M17.74,66c.08-.36.17-.79.3-1.22,0-.09.24-.23.27-.21s.29.21.3.33a21.34,21.34,0,0,1,0,2.26c0,.23-.3.43-.46.65-.09-.13-.23-.24-.26-.37C17.84,67,17.8,66.55,17.74,66Z"/><path class="cls-1" d="M294.68,79.84a7.83,7.83,0,0,1,.72.57c.28.27.3.55.09.73a.73.73,0,0,1-.4.2,2.89,2.89,0,0,1-.93,0,4,4,0,0,1-.8-.41,3.38,3.38,0,0,1,.53-.75A2.66,2.66,0,0,1,294.68,79.84Z"/><path class="cls-1" d="M333.83,399c0-.74.07-1.48.13-2.22a.46.46,0,0,1,.31-.31.57.57,0,0,1,.38.17c1.29,1.06.88,1.07-.09,2a2.39,2.39,0,0,1-.8.31Z"/><path class="cls-1" d="M298.75,83.43a2.51,2.51,0,0,1,2.85,2l.06,0a2.46,2.46,0,0,1-2.84-2Z"/><path class="cls-1" d="M344.86,407.37c-.29.09-.47-.06-.51-.46-.05-.59.11-.78.77-.89a.73.73,0,0,1,.44,0c.31.17.31.44,0,.73S345.09,407.18,344.86,407.37Z"/><path class="cls-1" d="M348.71,139c.29,0,.59,0,.89,0s.69.08.74.39-.2.53-.4.72a3.11,3.11,0,0,1-.75.45,3.12,3.12,0,0,1-.4-.74,4.37,4.37,0,0,1,0-.89Z"/><path class="cls-1" d="M286.46,75.36a1.74,1.74,0,0,1-.45-.11.72.72,0,0,1-.39-.8.62.62,0,0,1,.15-.39c.22-.18.49-.11.77.16l.33.34c.3.3.32.56,0,.73A1.12,1.12,0,0,1,286.46,75.36Z"/><path class="cls-1" d="M.65,326.62c-.19,0-.34,0-.38,0a1.58,1.58,0,0,1-.22-1.35,3.41,3.41,0,0,1,.42-.8,2.51,2.51,0,0,1,.35.84A7.79,7.79,0,0,1,.65,326.62Z"/><path class="cls-1" d="M377.12,386.49a2.22,2.22,0,0,1,0,.45c-.1.28-.22.55-.33.83a2.41,2.41,0,0,1-.37-.66,2.71,2.71,0,0,1,0-.9c.05-.35.27-.6.48-.51A.61.61,0,0,1,377.12,386.49Z"/><path class="cls-1" d="M28.72,2.85a4.6,4.6,0,0,1-.83-.25c-.29-.15.32-.47.91-.44a1.18,1.18,0,0,1,.46,0,8.17,8.17,0,0,1,.79.38c-.28.09-.56.2-.85.28A2,2,0,0,1,28.72,2.85Z"/><path class="cls-1" d="M158,419.82a3.29,3.29,0,0,1-.84-.34c-.16-.14.5-.5,1.1-.46a3.34,3.34,0,0,1,.88.22.45.45,0,0,1,.19.28.77.77,0,0,1-.39.26A7.24,7.24,0,0,1,158,419.82Z"/><path class="cls-1" d="M418.71,365.15a1.59,1.59,0,0,1-.4,1.29,1.81,1.81,0,0,1-.32-1.3,2.22,2.22,0,0,1,.05-.45.8.8,0,0,1,.22-.39c.16-.15.33,0,.42.42A3.46,3.46,0,0,1,418.71,365.15Z"/><path class="cls-1" d="M.65,330.79a.54.54,0,0,1-.35-.24c-.11-.27.06-.47.42-.52a.81.81,0,0,1,.44.07c.12.08.29.29.26.36A.6.6,0,0,1,.65,330.79Z"/><path class="cls-1" d="M4.93,208a.64.64,0,0,1,.2-.39c.23-.15.4,0,.48.43a.64.64,0,0,1-.39.77S5,208.54,5,208.4A.85.85,0,0,1,4.93,208Z"/><path class="cls-1" d="M17.86,53.13a2.85,2.85,0,0,1-.28.24,1.82,1.82,0,0,1-.45-.51.45.45,0,0,1,.3-.69c.24-.06.41.16.44.49C17.88,52.8,17.86,52.94,17.86,53.13Z"/><path class="cls-1" d="M25.37,1.88A.61.61,0,0,1,25,1.63c-.11-.25.09-.39.51-.41s.63.1.66.38c0,.09-.2.25-.34.3A.84.84,0,0,1,25.37,1.88Z"/><path class="cls-1" d="M252.26,53.78c-.32,0-.64,0-.95-.09a1.05,1.05,0,0,1-.93-.91l-.09.08a12,12,0,0,1,1.22.12.87.87,0,0,1,.69.87Z"/><path class="cls-1" d="M252.2,53.85a8.39,8.39,0,0,1,1.23.1.88.88,0,0,1,.67.89l.06-.07a11.9,11.9,0,0,1-1.2-.13.94.94,0,0,1-.7-.86Z"/><path class="cls-1" d="M254.1,54.84c.44,0,.88.08,1.31.16.13,0,.33.24.31.29a.58.58,0,0,1-.72.32.93.93,0,0,1-.84-.84Z"/><path class="cls-1" d="M279.76,70.64c.44,0,.89.07,1.33.15.12,0,.33.23.31.29-.1.29-.36.38-.69.33a1,1,0,0,1-.87-.85Z"/><path class="cls-1" d="M338.83,391.29c-.07-.3.11-.62.4-.59a.47.47,0,0,1,.35.66,3.35,3.35,0,0,1-.41.67A4.46,4.46,0,0,1,338.83,391.29Z"/><path class="cls-1" d="M353.05,398.32c.06-.44.09-.89.18-1.33,0-.13.24-.34.28-.32a.64.64,0,0,1,.34.75,1,1,0,0,1-.88.82Z"/><path class="cls-1" d="M355.5,398.82c-.07,0-.29-.06-.29-.11a3.29,3.29,0,0,1,0-.83c0-.07.23-.19.27-.16a.79.79,0,0,1,.27.35A.54.54,0,0,1,355.5,398.82Z"/><path class="cls-1" d="M356.66,405.89c-.36-.05-.61-.3-.45-.44a1.3,1.3,0,0,1,.8-.23c.1,0,.25.19.29.32s-.11.24-.21.29A1.44,1.44,0,0,1,356.66,405.89Z"/><path class="cls-1" d="M385.3,189.55a.93.93,0,0,1,.82.85.54.54,0,0,1-.35.69c-.07,0-.28-.18-.29-.3-.07-.43-.08-.87-.11-1.31Z"/><path class="cls-1" d="M384.61,400.77a1,1,0,0,1,.87.84.59.59,0,0,1-.37.72s-.25-.2-.27-.32c-.08-.44-.1-.88-.15-1.32Z"/><path class="cls-1" d="M385.82,386.32a8.43,8.43,0,0,0,0,.87.63.63,0,0,1-.42.7c-.05,0-.26-.18-.26-.28a1.39,1.39,0,0,1,.1-.82c.12-.2.44-.27.68-.4Z"/><path class="cls-1" d="M393.74,205a.91.91,0,0,1-.83-.72,9.83,9.83,0,0,1-.08-1.21l-.08.08a.91.91,0,0,1,.81.74,9.39,9.39,0,0,1,.1,1.19Z"/><path class="cls-1" d="M401.13,393.3c-.3,0-.6,0-.9,0s-.71-.12-.7-.42.41-.39.74-.35a.85.85,0,0,1,.81.85Z"/><path class="cls-1" d="M414.2,409.71c-.36,0-.59-.28-.44-.4a1.52,1.52,0,0,1,.79-.2c.09,0,.23.17.28.29s-.12.22-.22.26A1.1,1.1,0,0,1,414.2,409.71Z"/><path class="cls-1" d="M419.18,355.07a.48.48,0,0,1,.19-.39c.22-.13.39.05.47.45a.7.7,0,0,1-.37.8A6.69,6.69,0,0,1,419.18,355.07Z"/><polygon class="cls-1" points="419.73 409.51 419.4 409.6 419.45 409.34 419.73 409.51"/><polygon class="cls-1" points="419.05 383.29 419.15 383.66 418.87 383.62 419.05 383.29"/><path class="cls-1" d="M413,371.47a.69.69,0,0,1,.7.45c.1.27,0,.36-.27.22a.65.65,0,0,1-.37-.73Z"/><polygon class="cls-1" points="413.36 374.99 413.25 374.68 413.53 374.73 413.36 374.99"/><polygon class="cls-1" points="412.08 410.31 411.72 410.41 411.77 410.11 412.08 410.31"/><path class="cls-1" d="M405.75,400.09c0,.35-.15.72-.46.72s-.45-.38-.44-.74l-.07.08,1.05,0Z"/><polygon class="cls-1" points="405.19 409.04 405.3 409.36 405 409.31 405.19 409.04"/><polygon class="cls-1" points="404.11 198.03 403.78 198.18 403.84 197.81 404.11 198.03"/><path class="cls-1" d="M401.11,219.59a.61.61,0,0,1,.66.4c.13.33,0,.45-.21.22a2.65,2.65,0,0,1-.37-.71Z"/><path class="cls-1" d="M401.19,219.5a.69.69,0,0,1-.7-.43c-.13-.33,0-.45.24-.22a2.46,2.46,0,0,1,.38.74Z"/><polygon class="cls-1" points="395.08 381.94 395.19 382.31 394.89 382.28 395.08 381.94"/><polygon class="cls-1" points="394.72 401.2 394.81 401.49 394.51 401.43 394.72 401.2"/><polygon class="cls-1" points="396.94 211.52 396.84 211.18 397.12 211.22 396.94 211.52"/><polygon class="cls-1" points="396.23 209.4 395.91 209.52 395.96 209.2 396.23 209.4"/><polygon class="cls-1" points="391.68 401.33 391.96 401.24 391.89 401.55 391.68 401.33"/><path class="cls-1" d="M393.66,205.05a.67.67,0,0,1,.71.45c.12.32,0,.44-.25.22a3.1,3.1,0,0,1-.38-.75Z"/><polygon class="cls-1" points="391.15 373.44 391.47 373.32 391.42 373.65 391.15 373.44"/><polygon class="cls-1" points="389.76 397.45 390.07 397.36 390.01 397.67 389.76 397.45"/><path class="cls-1" d="M392.83,203a.66.66,0,0,1-.72-.44c-.13-.32,0-.45.24-.23a2.82,2.82,0,0,1,.4.75Z"/><path class="cls-1" d="M388.64,361.19c-.08-.09-.23-.22-.21-.26.19-.37.37-.34.47.05C388.91,361,388.73,361.12,388.64,361.19Z"/><polygon class="cls-1" points="389.55 196.59 389.64 196.92 389.37 196.87 389.55 196.59"/><polygon class="cls-1" points="386.59 367.9 386.45 367.54 386.78 367.58 386.59 367.9"/><path class="cls-1" d="M385.89,386.39a.6.6,0,0,1,.4-.69s.25.19.23.23a.64.64,0,0,1-.7.39Z"/><path class="cls-1" d="M385.37,189.48c-.64,0-.89-.41-.94-1l-.08.08a.93.93,0,0,1,.95,1Z"/><polygon class="cls-1" points="381.78 374.06 381.94 374.4 381.57 374.36 381.78 374.06"/><path class="cls-1" d="M384.43,188.5a.68.68,0,0,1-.69-.44c-.11-.3,0-.42.24-.2a2.23,2.23,0,0,1,.37.72Z"/><polygon class="cls-1" points="380.58 377.12 380.88 377.01 380.82 377.34 380.58 377.12"/><path class="cls-1" d="M380.45,379l.25-.24c.07.1.21.23.19.28C380.72,379.44,380.56,379.41,380.45,379Z"/><path class="cls-1" d="M379.84,399.72a.56.56,0,0,1,.68.43c0,.06-.2.26-.24.24a.68.68,0,0,1-.39-.73Z"/><path class="cls-1" d="M379.18,381.39a2.55,2.55,0,0,1-.43.72c-.28.25-.4.12-.22-.24a.74.74,0,0,1,.73-.4Z"/><polygon class="cls-1" points="377.67 378.02 377.98 377.88 377.92 378.22 377.67 378.02"/><path class="cls-1" d="M376.11,392a2.28,2.28,0,0,1,.68.47c.2.27,0,.42-.24.18a2.35,2.35,0,0,1-.35-.73Z"/><polygon class="cls-1" points="376.76 395.34 376.47 395.44 376.53 395.15 376.76 395.34"/><polygon class="cls-1" points="376.35 407.05 376.25 406.73 376.52 406.78 376.35 407.05"/><path class="cls-1" d="M375,400.61a.66.66,0,0,1,.73.39c.13.29,0,.39-.24.25a.72.72,0,0,1-.42-.72Z"/><polygon class="cls-1" points="378.34 178.12 378.46 178.5 378.13 178.45 378.34 178.12"/><polygon class="cls-1" points="374.05 386.65 373.73 386.8 373.78 386.43 374.05 386.65"/><polygon class="cls-1" points="376.63 175.49 376.32 175.62 376.37 175.29 376.63 175.49"/><polygon class="cls-1" points="370.19 377.65 370.31 378.04 370 378 370.19 377.65"/><polygon class="cls-1" points="369.82 398.85 369.92 399.19 369.64 399.14 369.82 398.85"/><polygon class="cls-1" points="372.49 169.57 372.83 169.41 372.78 169.78 372.49 169.57"/><polygon class="cls-1" points="368.87 382.66 369.21 382.52 369.17 382.86 368.87 382.66"/><path class="cls-1" d="M371.27,167.24a.68.68,0,0,1,.69.44c.13.34,0,.46-.25.22a2.61,2.61,0,0,1-.36-.75Z"/><path class="cls-1" d="M371.35,167.15a.66.66,0,0,1-.71-.41c-.14-.32,0-.45.23-.23a2.69,2.69,0,0,1,.4.73Z"/><path class="cls-1" d="M366.43,397.58a2.72,2.72,0,0,1,.68.43c.18.24,0,.36-.25.2a.63.63,0,0,1-.35-.71Z"/><polygon class="cls-1" points="366.6 374.06 366.26 374.21 366.31 373.86 366.6 374.06"/><path class="cls-1" d="M366.51,397.5a.64.64,0,0,1-.76-.41c-.12-.3,0-.42.26-.28a.77.77,0,0,1,.42.77Z"/><polygon class="cls-1" points="364.69 373.99 364.35 374.11 364.41 373.76 364.69 373.99"/><path class="cls-1" d="M364.06,396.31c-.06-.09-.18-.19-.16-.27s.15-.16.23-.24c.07.1.21.2.2.29S364.16,396.24,364.06,396.31Z"/><polygon class="cls-1" points="366.38 142.84 366.23 142.49 366.58 142.53 366.38 142.84"/><polygon class="cls-1" points="359.47 397.95 359.12 398.09 359.16 397.76 359.47 397.95"/><polygon class="cls-1" points="359.6 150.01 359.7 150.34 359.39 150.29 359.6 150.01"/><polygon class="cls-1" points="355.27 395.89 355.56 395.76 355.5 396.11 355.27 395.89"/><polygon class="cls-1" points="356.71 147.43 356.59 147.13 356.9 147.18 356.71 147.43"/><path class="cls-1" d="M354.38,143.91a.68.68,0,0,1,.7.45c.11.3,0,.39-.28.22a.7.7,0,0,1-.35-.75Z"/><path class="cls-1" d="M353.43,142.92a1,1,0,0,1,.95,1l.07-.08a.93.93,0,0,1-.95-1Z"/><polygon class="cls-1" points="346.81 382.29 347.14 382.16 347.1 382.49 346.81 382.29"/><path class="cls-1" d="M345.59,380a.69.69,0,0,1,.73.41c.15.34,0,.47-.23.25a2.8,2.8,0,0,1-.42-.74Z"/><path class="cls-1" d="M348.72,138v1l.05-.05c-.62,0-.88-.42-.94-1l-.08.07h1Z"/><polygon class="cls-1" points="342.84 406.02 342.99 406.37 342.63 406.32 342.84 406.02"/><polygon class="cls-1" points="335.67 387.94 335.29 388.07 335.33 387.74 335.67 387.94"/><path class="cls-1" d="M330.22,385.38a.69.69,0,0,1-.69-.43c-.12-.29,0-.37.25-.22a.71.71,0,0,1,.37.72Z"/><polygon class="cls-1" points="322.87 388.92 322.71 388.56 323.06 388.59 322.87 388.92"/><polygon class="cls-1" points="320.63 410.9 320.52 410.58 320.86 410.64 320.63 410.9"/><polygon class="cls-1" points="315.72 401.96 316.08 401.83 316.02 402.18 315.72 401.96"/><path class="cls-1" d="M307.74,409.07a.67.67,0,0,1,.43-.73c.32-.12.42,0,.26.26a.76.76,0,0,1-.77.39Z"/><polygon class="cls-1" points="307.39 390.27 307.67 390.15 307.61 390.46 307.39 390.27"/><path class="cls-1" d="M307.66,409a2.21,2.21,0,0,1-.4.67c-.25.21-.4,0-.18-.21a2.24,2.24,0,0,1,.66-.38Z"/><polygon class="cls-1" points="300.23 410.33 300.59 410.22 300.54 410.53 300.23 410.33"/><path class="cls-1" d="M301.6,85.39a.94.94,0,0,1,1,1l0,0a.88.88,0,0,1-.93-1Z"/><path class="cls-1" d="M298.82,83.37a.7.7,0,0,1-.75-.42s.2-.25.27-.23a.57.57,0,0,1,.41.71Z"/><path class="cls-1" d="M292.11,78.53a2.32,2.32,0,0,1,.72.42c.19.21,0,.35-.26.22a.65.65,0,0,1-.39-.72Z"/><path class="cls-1" d="M292.18,78.45a.69.69,0,0,1-.74-.39c-.13-.26,0-.36.25-.26a.63.63,0,0,1,.42.73Z"/><polygon class="cls-1" points="283.85 73.04 284.21 72.93 284.17 73.23 283.85 73.04"/><path class="cls-1" d="M279.84,70.56a2.57,2.57,0,0,1-.72-.44c-.2-.23-.06-.35.26-.2a.63.63,0,0,1,.38.72Z"/><polygon class="cls-1" points="276.51 67.94 276.66 68.27 276.3 68.22 276.51 67.94"/><path class="cls-1" d="M250.38,52.78a3.46,3.46,0,0,1-.76-.42c-.2-.2-.06-.33.27-.21a.59.59,0,0,1,.4.71Z"/><path class="cls-1" d="M173.16,418.32a.69.69,0,0,1,.43-.74c.29-.11.39,0,.26.28a.67.67,0,0,1-.76.39Z"/><path class="cls-1" d="M173.09,418.25a.53.53,0,0,1-.44.66c-.06,0-.16-.15-.24-.23l.75-.36Z"/><path class="cls-1" d="M166.4,416.29a.7.7,0,0,1,.75.43c.11.28,0,.38-.27.26a.67.67,0,0,1-.41-.76Z"/><path class="cls-1" d="M136.59,419.56a.93.93,0,0,1-1,.95l.07.06a.9.9,0,0,1,1-.94Z"/><path class="cls-1" d="M135.61,420.51a.55.55,0,0,1-.45.68c-.06,0-.25-.21-.23-.25a.67.67,0,0,1,.75-.37Z"/><path class="cls-1" d="M17,49.81l-.39.76c-.47-.66.12-.59.47-.68Z"/><polygon class="cls-1" points="13.16 240.32 13.47 240.19 13.42 240.51 13.16 240.32"/><polygon class="cls-1" points="4.23 204.67 4.54 204.52 4.49 204.88 4.23 204.67"/><polygon class="cls-1" points="4.31 212.16 4.44 212.51 4.14 212.48 4.31 212.16"/><polygon class="cls-1" points="0.27 320.78 0.6 320.63 0.55 321 0.27 320.78"/></g></g></svg>