<svg xmlns="http://www.w3.org/2000/svg" viewBox="0 0 27.49 29.21"><defs><style>.cls-1{fill:#00ac69;}</style></defs><g id="Layer_2" data-name="Layer 2"><g id="Layer_1-2" data-name="Layer 1"><path class="cls-1" d="M1.8,0a.66.66,0,0,1,.27.06.37.37,0,0,0,.38,0A.55.55,0,0,1,3,.09c.25.12.25.12.39.12.6,0,1.21,0,1.81.06a.79.79,0,0,1,.26.08.82.82,0,0,0,.25.12A.86.86,0,0,0,6,.5l1,0a.91.91,0,0,1,.53.15.77.77,0,0,0,.39.11l.56,0a.77.77,0,0,1,.39.11,1,1,0,0,0,.53.13,1.29,1.29,0,0,1,.67.18.47.47,0,0,0,.26.08h.28a1,1,0,0,0,.53-.12c.16-.08.17-.07.36.1l.1.1a.66.66,0,0,0,.35.21.68.68,0,0,1,.24.12,1,1,0,0,0,.52.19.61.61,0,0,1,.26.08c.2.13.43.18.63.29a1.24,1.24,0,0,0,.52.18.49.49,0,0,1,.26.1c.23.15.51.22.74.38a4.42,4.42,0,0,1,.61.32,1.72,1.72,0,0,1,.6.35l.22.16a.75.75,0,0,0,.13.06c.08,0,.17.07.25.12a2.53,2.53,0,0,0,.37.18.75.75,0,0,1,.25.13c.15.11.34.15.48.27l.33.26a1.14,1.14,0,0,0,.23.15,1,1,0,0,1,.35.22c.38.34.73.71,1.12,1l.11.08.12.07a1.75,1.75,0,0,1,.55.42,1.14,1.14,0,0,1,.31.46.37.37,0,0,0,.07.12.76.76,0,0,0,.08.11c.22.23.45.46.67.7s.71.74,1.08,1.09c.14.13.26.26.39.4l.17.22a1.89,1.89,0,0,0,.47.68l.27.31a.83.83,0,0,1,.08.12,2.45,2.45,0,0,0,.46.69,1.46,1.46,0,0,1,.13.25.8.8,0,0,0,.13.24c.15.18.2.41.34.6a2.89,2.89,0,0,1,.33.45,3.23,3.23,0,0,0,.25.49c.09.27.27.49.37.75s.24.4.3.62a.52.52,0,0,0,.06.13.86.86,0,0,1,.2.51,1.24,1.24,0,0,0,.14.38,1.17,1.17,0,0,1,.13.4,1,1,0,0,0,.12.39.86.86,0,0,1,.16.53,2.72,2.72,0,0,1,0,.28c0,.2-.11.31-.34.34a2.74,2.74,0,0,0-.28.05,1.41,1.41,0,0,0-.24.13,1.15,1.15,0,0,1-.25.12.44.44,0,0,0-.24.13l-.51.48a.84.84,0,0,1-.35.21c-.22.06-.27.23-.28.42a1.06,1.06,0,0,1-.19.52.47.47,0,0,0-.08.26c0,.22,0,.22-.24.63a.36.36,0,0,0,0,.27c0,.08.1.16.15.24a.29.29,0,0,1-.17.43l-.41.07a.32.32,0,0,0-.1.1.3.3,0,0,0,0,.26,1.42,1.42,0,0,0,.14.23.35.35,0,0,1,0,.39,3.2,3.2,0,0,0-.19.37c-.06.2-.06.2-.27.27s-.27.18-.26.43a.68.68,0,0,0,.11.39c.19.29.14.37,0,.63a.76.76,0,0,0-.1.39,2.62,2.62,0,0,0,0,.28.37.37,0,0,0,.3.4c.18.08.2.12.11.3s-.08.15,0,.24a.66.66,0,0,1,.14.39.59.59,0,0,1,0,.13.34.34,0,0,0,.22.32c.23.12.24.11.3.26a1.51,1.51,0,0,0,.41.56c.15.15.13.26-.1.43a.72.72,0,0,1-.39.14h-.55L19,29h-.27a1.23,1.23,0,0,0-.53.15c-.18.08-.28.07-.53-.05a.87.87,0,0,0-.26-.08l-.84,0c-1.57,0-3.15,0-4.73,0h-.83c-.7,0-1.39,0-2.09,0a.69.69,0,0,0-.39.11,1.29,1.29,0,0,1-.54.12H7.61A1,1,0,0,1,7.08,29,.48.48,0,0,0,6.82,29c-.37,0-.74,0-1.11,0s-.75,0-1.12,0H2.64a1,1,0,0,0-.53.13.91.91,0,0,1-.4.1,7.45,7.45,0,0,1-1.25,0A.46.46,0,0,1,.11,29c-.12-.16-.15-.17,0-.36a.6.6,0,0,0,.1-.25,2.64,2.64,0,0,0,0-.28c0-.46,0-.93,0-1.39l0-1c0-.33,0-.65,0-1a2.72,2.72,0,0,0,0-.28c0-.37,0-.74,0-1.11s0-.65,0-1,0-.56,0-.84,0-.65,0-1v-.83c0-.61,0-1.21,0-1.81s0-1,0-1.53c0-.7,0-1.39,0-2.09a1.08,1.08,0,0,1,.15-.53.5.5,0,0,0,.07-.27c0-.18,0-.37,0-.55a1.26,1.26,0,0,0-.14-.53.2.2,0,0,1,0-.13,2.51,2.51,0,0,0,.17-.81c0-.23,0-.46,0-.69l0-4.59a.77.77,0,0,0-.1-.4,2.77,2.77,0,0,1-.1-.26.61.61,0,0,1,0-.14c0-1.53,0-3.06,0-4.59C.2.74.21.64.21.55S.33.26.58.24L1,.2a.28.28,0,0,0,.13,0A.52.52,0,0,0,1.26.11.93.93,0,0,1,1.8,0M3.26,9.44a.84.84,0,0,0-.39,0s-.06.06-.09.09.05.08.09.09a.28.28,0,0,0,.25,0,.24.24,0,0,0,.12-.22,1.09,1.09,0,0,0,.4,0,.39.39,0,0,0,.08-.1s-.05-.08-.09-.09a.31.31,0,0,0-.25,0,.26.26,0,0,0-.12.23m1.1,1.93a.26.26,0,0,0,.22-.12.47.47,0,0,0,0-.26.66.66,0,0,0,0-.14.29.29,0,0,0-.12-.23.34.34,0,0,0-.13.22,4.86,4.86,0,0,0,0,.54.18.18,0,0,0-.2.09c0,.09,0,.14.1.1a.18.18,0,0,0,.09-.2m-.84-.84a.29.29,0,0,0,.26-.24.62.62,0,0,0,0-.38c0-.12-.1-.14-.19-.09s-.27.21-.27.28a.36.36,0,0,0,.11.22.38.38,0,0,1,.11.23.21.21,0,0,0-.22.12l.08.08a.24.24,0,0,0,.12-.22M5.75,3.31l.27,0a.35.35,0,0,0,.25-.1c.09-.09.21-.16.26-.3a.32.32,0,0,0,0-.37l-.18-.2a.37.37,0,0,0-.49,0,.92.92,0,0,1-.35.19.22.22,0,0,0-.13-.23.24.24,0,0,0-.13.23l-.28,0c-.19,0-.21,0-.28-.25s-.25-.38-.31-.61a.26.26,0,0,0-.07-.11.28.28,0,0,0-.11-.08,2.05,2.05,0,0,0-.55,0,.47.47,0,0,0-.26.08l-.24.14-.24-.13a.35.35,0,0,0-.39,0A1.13,1.13,0,0,1,2,1.64c-.28,0-.35.1-.37.3a5.3,5.3,0,0,0,0,.69.38.38,0,0,0,.3.4L2,3.1a.3.3,0,0,1,.06.37l-.15.24.13.23a.35.35,0,0,1,0,.39c-.05.08-.1.15-.14.23a.32.32,0,0,0,0,.14A.24.24,0,0,0,2,4.92c.08,0,.17.07.25.12a.18.18,0,0,1,.09.1.33.33,0,0,1,0,.26c0,.08-.1.15-.14.23a.32.32,0,0,0,0,.27c0,.12.12.14.21,0,.55-.3.61-.23.92-.59l.11-.08.13,0a4.69,4.69,0,0,0,0,.53.27.27,0,0,0,.23.28A.18.18,0,0,0,4,6a.53.53,0,0,0,0-.12,2,2,0,0,1-.16-.36.32.32,0,0,0-.28-.24A.37.37,0,0,1,3.78,5,.8.8,0,0,0,4,4.86a.81.81,0,0,1,.63-.18h.28a.3.3,0,0,0,.22-.13.61.61,0,0,0,0-.27.31.31,0,0,0-.22-.14A.26.26,0,0,1,4.72,4a.6.6,0,0,1,.16-.22.58.58,0,0,1,.35-.19,1.23,1.23,0,0,0,.27,0,.33.33,0,0,0,.27-.27ZM2.16,17.76a.48.48,0,0,0,0,.12c0,.05,0,.08.07.12a1.42,1.42,0,0,1,.14.23,2.76,2.76,0,0,1,.06.4.56.56,0,0,0,0,.12.32.32,0,0,0,.1.1.31.31,0,0,0,.25,0c.08-.05.08-.13,0-.22-.13-.25-.14-.31,0-.49a1.09,1.09,0,0,0,.14-.23.31.31,0,0,0,0-.25s-.07,0-.1,0l-.24.12a1.28,1.28,0,0,0-.24-.11c-.08,0-.14,0-.16.15M6.9,3.59c0,.11.06.17.14.17a.26.26,0,0,0,.12,0A.9.9,0,0,0,7.4,3.4a.28.28,0,0,0,0-.25s-.06,0-.09,0a.47.47,0,0,0-.21.16c-.07.11-.18.19-.16.33M3.33,12.76l.27,0,.11-.09a.24.24,0,0,0-.06-.08.37.37,0,0,0-.25-.07c-.17,0-.35.08-.31.16a.22.22,0,0,0,.24.1m-.51,9.7a.24.24,0,0,0,.13-.2A.25.25,0,0,0,2.84,22a.22.22,0,0,0-.13.2.22.22,0,0,0,.11.22m1.36.5s.06.08.1.09a.19.19,0,0,0,.13,0c.12,0,.15-.1.09-.16a.26.26,0,0,0-.12-.05.17.17,0,0,0-.2.12M2.84,6.14c-.11,0-.11.09,0,.16l.08-.08-.07-.08m5-1.81.07-.08-.11,0Zm-2-.07c0,.11.08.11.14,0L5.9,4.19l-.07.07M4.5,8.81l.08-.06c0-.12-.09-.12-.15,0l.07.08M2,10.61l-.06.09h.11Zm5.21-8,.07.08c.11,0,.12-.09,0-.15l-.08.07M1.15,15.77l.06-.09H1.1Zm1.69,4.6-.06.09h.1Zm.28,1.1c-.11,0-.12.09,0,.15l.08-.07-.07-.08M6.46,24l-.06.08h.1ZM3,24.88c0,.11.08.12.14,0l-.07-.08a.46.46,0,0,1-.07.07m9.23-23.6s.05-.05.07-.07a.16.16,0,0,0-.22-.08L12,1.18c0,.07,0,.11.14.12a.25.25,0,0,0,.12,0m10.05,6,0,.08.09,0Zm.84,1.1v.08l.08,0ZM2.41,2.17a1.48,1.48,0,0,0,.66,0s.06-.05.09-.08A.43.43,0,0,0,3.06,2a.75.75,0,0,0-.26,0A.39.39,0,0,0,2.54,2a.22.22,0,0,0-.12.22ZM4,1.74a.14.14,0,0,0-.2-.09c-.09,0-.14.07-.15.13a.17.17,0,0,0,.21.09c.1,0,.16-.06.14-.13M5.75,3.31a.19.19,0,0,0-.13-.22l-.07.08a.18.18,0,0,0,.22.11Zm-.46-.66a.14.14,0,0,0,.09,0,.27.27,0,0,0,.11-.2h-.3a.26.26,0,0,0,.1.2M2.42,2.19a.19.19,0,0,0-.22.12l.08.08a.19.19,0,0,0,.13-.22Z"/></g></g></svg>