<svg xmlns="http://www.w3.org/2000/svg" viewBox="0 0 29.71 29.47"><defs><style>.cls-1{fill:#00ac69;}</style></defs><g id="Layer_2" data-name="Layer 2"><g id="Layer_1-2" data-name="Layer 1"><path class="cls-1" d="M.82,19.71V16.09c0-.88,0-1.76,0-2.64,0-.13,0-.13-.11-.4a1.11,1.11,0,0,1-.1-.54.59.59,0,0,1,.07-.26.35.35,0,0,0,0-.38A.54.54,0,0,1,.6,11.6c0-1-.06-2-.06-3.06,0-.23,0-.47,0-.7a.93.93,0,0,0-.12-.39.93.93,0,0,1-.09-.4l0-1,0-1.8a1.07,1.07,0,0,0-.1-.4A.78.78,0,0,1,0,3.47C0,2.54,0,1.62,0,.69,0,.6,0,.51,0,.41A.35.35,0,0,1,.26.27,3.22,3.22,0,0,1,1,.21h1A1.17,1.17,0,0,0,2.59,0a.47.47,0,0,1,.4,0A1.09,1.09,0,0,0,3.52.2C4.26.2,5,.23,5.74.26a.77.77,0,0,1,.4.11.92.92,0,0,0,.39.11L7.65.53a.82.82,0,0,1,.4.1,1,1,0,0,0,.52.15c.19,0,.37,0,.56,0A.92.92,0,0,1,9.52,1,.73.73,0,0,0,9.78,1a8.66,8.66,0,0,0,1.25,0,.58.58,0,0,1,.38.13l.21.18a.74.74,0,0,0,.5.22l.28,0a.51.51,0,0,1,.27.06c.24.14.51.21.75.35a.59.59,0,0,0,.26.1,1.64,1.64,0,0,1,.64.23c.16.1.34.14.5.25a6.09,6.09,0,0,1,.62.32,3.17,3.17,0,0,1,.49.24c.15.11.35.14.5.25a2.53,2.53,0,0,0,.37.18,4.66,4.66,0,0,0,.5.25.84.84,0,0,1,.24.14,2.52,2.52,0,0,0,.69.46.26.26,0,0,1,.11.07l.63.55a1,1,0,0,0,.24.15.66.66,0,0,1,.24.14l.72.65a2.83,2.83,0,0,0,.57.38.92.92,0,0,1,.22.17l.68.7a1.69,1.69,0,0,1,.4.56l.17.22.79.79c.26.26.52.53.76.81A1.13,1.13,0,0,1,24,10a1,1,0,0,0,.15.24l.47.51a1.88,1.88,0,0,1,.16.23,2,2,0,0,0,.37.58,1.29,1.29,0,0,1,.22.35c.08.22.25.39.31.62s.1.16.16.23a2.83,2.83,0,0,1,.32.45,4.59,4.59,0,0,0,.26.49,4.66,4.66,0,0,0,.25.5,5.07,5.07,0,0,0,.32.61,3.85,3.85,0,0,0,.24.5c.1.21.18.43.29.63a.61.61,0,0,1,.08.27,1.16,1.16,0,0,0,.18.51.66.66,0,0,1,.09.27,1.23,1.23,0,0,0,.17.52.59.59,0,0,1,.1.26,1.66,1.66,0,0,0,.21.65.5.5,0,0,1,.07.27c0,.18,0,.37,0,.55a.89.89,0,0,0,0,.28c0,.08.08.16.12.25a.5.5,0,0,1,.08.26c0,.14,0,.28.05.41a.5.5,0,0,0,.07.27,1.37,1.37,0,0,1,.19.66,1.27,1.27,0,0,0,.17.66.21.21,0,0,1,.05.13,1.27,1.27,0,0,1,0,.28c0,.51,0,1,.05,1.53a.83.83,0,0,0,0,.27,1.12,1.12,0,0,0,.11.25.65.65,0,0,1,.08.27c0,.79.05,1.57.06,2.36v.56a.89.89,0,0,0,.12.39c.07.11.06.18,0,.23l-.13,0c-.37,0-.74,0-1.11,0-.14,0-.28,0-.42,0a.85.85,0,0,0-.39.12.82.82,0,0,1-.4.1H26.9l-6.4,0H17.43a.78.78,0,0,0-.39.1.93.93,0,0,1-.4.12h-.56l-4.31,0-1.39,0a.87.87,0,0,0-.39.14,1.12,1.12,0,0,1-.4.1c-.65,0-1.3,0-1.95,0-.83,0-1.67,0-2.5,0a1.08,1.08,0,0,0-.27.05c-.3.1-.3.1-.51,0a.64.64,0,0,0-.27-.07H3a1.33,1.33,0,0,0-.28,0l-.25.12-.12.06a2.44,2.44,0,0,1-1,0,.31.31,0,0,1-.19-.18,2.51,2.51,0,0,1-.06-.55c0-.6,0-1.21,0-1.81a1.32,1.32,0,0,0,0-.28A1,1,0,0,0,1,26.37.9.9,0,0,1,.87,26a.61.61,0,0,1,0-.14c0-1,0-1.95,0-2.92,0-.56,0-1.11,0-1.67s0-1,0-1.53ZM24,13.6a.9.9,0,0,0-.4,0c-.11,0-.11.12,0,.22l.38.38c.07.08.16.11.22.06a.19.19,0,0,0,.05-.24c-.06-.17-.22-.29-.25-.47a.22.22,0,0,0,.22-.13l-.08-.08a.21.21,0,0,0-.12.22m-.56-.83a.69.69,0,0,1-.35-.18.37.37,0,0,0-.48,0,1,1,0,0,0-.17.19c-.06.09,0,.16.08.19a1.34,1.34,0,0,0,.66,0,.28.28,0,0,0,.24-.26.2.2,0,0,0,.22-.12l-.07-.08a.23.23,0,0,0-.13.22m1.67,13.07a2.48,2.48,0,0,0,0-.27.2.2,0,0,0-.14-.17l-.09.09a.92.92,0,0,1-.09.25l-.14.23c0,.05.08.19.23.3l.12.07a.36.36,0,0,0,.13-.23,1.22,1.22,0,0,0,0-.27M25,24l-.1-.11a.34.34,0,0,0-.25.08.25.25,0,0,0-.08.25s.05.07.07.11a.29.29,0,0,0,.22-.12A.46.46,0,0,0,25,24M22.37,11.92a2.11,2.11,0,0,0,.25,0c.11,0,.14-.11.1-.17a.3.3,0,0,0-.1-.07h-.26a.23.23,0,0,0-.23.09c-.05.08.07.18.24.18m1.49,2.89a.38.38,0,0,0-.1,0,.2.2,0,0,0-.05.23c0,.11.11.12.17.07a.21.21,0,0,0,.05-.23s-.05-.07-.07-.1m4.22,12.31c0-.11-.09-.12-.15,0a.27.27,0,0,0,.07.08l.08-.07m-4.27-1.34.06-.09h-.1Zm-.27-8.36.06-.09h-.1Zm.35-.89-.09-.06v.09Zm-.83-3.07c0-.11-.09-.11-.15,0a.27.27,0,0,0,.07.08l.08-.07M21.32,12l-.08.06c0,.11.09.12.15,0L21.32,12m-.84-.28-.08.07c0,.11.09.11.15,0a.27.27,0,0,0-.07-.08"/></g></g></svg>