<svg xmlns="http://www.w3.org/2000/svg" viewBox="0 0 28.6 27.19"><defs><style>.cls-1{fill:#aada91;}</style></defs><g id="Layer_2" data-name="Layer 2"><g id="Layer_1-2" data-name="Layer 1"><path class="cls-1" d="M15.62,4.44c0-.2.05-.21.25-.28A.37.37,0,0,0,16.09,4a.57.57,0,0,0-.15-.23.83.83,0,0,0-.36-.19c-.1,0-.16-.09-.16-.17l.12-.25-.12-.25s0-.08.05-.1.26-.08.37-.17a4.53,4.53,0,0,0,.49-.49c.08-.09.07-.15,0-.24S16,1.6,15.8,1.46a.36.36,0,0,0-.27-.05c-.12,0-.14.1-.08.19a.82.82,0,0,1,.12.25.25.25,0,0,1-.06.25.26.26,0,0,1-.25.07A2.12,2.12,0,0,1,14.9,2a2,2,0,0,0-.26-.08l-.12-.08-.2-.19a.44.44,0,0,1-.11-.25.87.87,0,0,0,.39,0s.06-.06.09-.09a.32.32,0,0,0-.1-.1.31.31,0,0,0-.25,0,.26.26,0,0,0-.12.23l-.41,0a.73.73,0,0,1-.4-.11.74.74,0,0,0-.52-.16l-.41,0A.21.21,0,0,1,12.37,1a.2.2,0,0,1-.06-.24.25.25,0,0,1,.2-.16,3,3,0,0,1,.42,0c1.62,0,3.25,0,4.87,0a.72.72,0,0,0,.26-.08.82.82,0,0,1,.4-.13H20a.75.75,0,0,1,.39.12.71.71,0,0,0,.39.11h1.67c.12,0,.16,0,.39-.13a.93.93,0,0,1,.4-.12H24.9l1.39,0a1.24,1.24,0,0,0,.53-.16l.12,0a5.81,5.81,0,0,1,1.25,0,.35.35,0,0,1,.18.2.3.3,0,0,1,0,.13c0,.24,0,.47,0,.7,0,.74,0,1.48,0,2.23s0,1.76,0,2.64c0,1.07,0,2.14,0,3.2a.84.84,0,0,0,.08.27c.09.19.09.19,0,.38a.65.65,0,0,0-.08.27c0,.32,0,.65,0,1l0,3.2c0,.7,0,1.4,0,2.09a1,1,0,0,1-.11.4c-.11.25-.11.25-.11.39,0,.51,0,1,0,1.54,0,.18,0,.37,0,.55a.26.26,0,0,1-.13.21.27.27,0,0,1-.14-.23.47.47,0,0,0-.13-.24l-.4-.39c-.11-.12-.22-.09-.29.08s-.12.24-.27.27a.31.31,0,0,1-.26-.08.27.27,0,0,0-.36,0c-.08.06-.16,0-.25,0a.38.38,0,0,0-.5,0c-.17.12-.18.11-.36,0a.44.44,0,0,0-.24-.11l0,0a.53.53,0,0,0-.11-.24.37.37,0,0,1-.09-.22.35.35,0,0,1,.23-.12c.11,0,.15-.1.12-.16s-.07-.06-.1-.09l-.53,0a.43.43,0,0,0-.25.07.3.3,0,0,0-.13.22l0,0h-.3l0,0a3.37,3.37,0,0,1,0-.55.6.6,0,0,1,.1-.25c.11-.19.1-.23-.06-.31s-.29-.2-.36-.38a.34.34,0,0,0-.19-.18c-.25-.11-.26-.11-.31-.24a1.12,1.12,0,0,0-.11-.25.85.85,0,0,1-.19-.65c0-.18,0-.37,0-.55a.2.2,0,0,0,.22-.12l-.08-.08a.19.19,0,0,0-.13.22,1.22,1.22,0,0,0-.38,0,1.27,1.27,0,0,0-.23.12c-.16.08-.19,0-.22-.18s0-.17,0-.26H22a.31.31,0,0,0,.13,0c.1-.05.09-.13,0-.22a.93.93,0,0,1-.17-.38.47.47,0,0,0-.1-.1.28.28,0,0,0-.14.2,3.49,3.49,0,0,0,0,.56l-.13,0a2.86,2.86,0,0,1-.41-.36c-.13-.11-.17-.11-.35,0a.42.42,0,0,1-.25.09l0,0c0-.42-.05-.49-.15-.49a.87.87,0,0,0-.32.25,1.18,1.18,0,0,1-.22.17,2.67,2.67,0,0,0-.26.09,1.14,1.14,0,0,0-.23.15.47.47,0,0,1-.26.08h-.28a.74.74,0,0,1-.52-.13c-.1-.07-.17-.08-.22,0a.36.36,0,0,0,0,.27.68.68,0,0,0,.17.21c.14.13.21.15.35.05a.52.52,0,0,1,.38-.09.23.23,0,0,1,.12.23.21.21,0,0,1-.12.23.75.75,0,0,1-.26.05,2.75,2.75,0,0,0-.41,0,.29.29,0,0,0-.26.27,1,1,0,0,1-.14.52.28.28,0,0,0,0,.37c0,.07,0,.15-.05.23s-.19.21-.28.31a.56.56,0,0,0-.13.24c-.07.23-.15.25-.42.27a.52.52,0,0,1-.27-.05l-.23-.14c-.17-.09-.35-.08-.37,0s0,.16.11.23l.19.2c.11.12.11.21,0,.34a.65.65,0,0,1-.34.23.43.43,0,0,0-.23.14.51.51,0,0,0,.14.23.68.68,0,0,0,.34.21l0,0v.29h0a.44.44,0,0,0-.24.11l-.2.19a.51.51,0,0,1-.22.17.37.37,0,0,1-.25-.07c-.08-.06-.15,0-.18.1a.3.3,0,0,0,.2.32c.28.14.29.15.32.39s0,.28.12.38a.73.73,0,0,0,.25-.1.23.23,0,0,1,.12-.06.3.3,0,0,1,.33.18.87.87,0,0,0,.19.37.67.67,0,0,0,.47.25h.28a3.51,3.51,0,0,0,.56,0l.36-.21h.13a.58.58,0,0,1,.14,0,1.22,1.22,0,0,0,.36.18c.11,0,.11,0,.38-.14a.76.76,0,0,1,.39-.1c.13,0,.16,0,.39.13a.16.16,0,0,0,.25,0,.27.27,0,0,1,.36,0,1.19,1.19,0,0,0,.26.11c.18.08.22.15.23.31s0,.18,0,.28a.18.18,0,0,0,.07.1c.07.05.14,0,.17-.1a1,1,0,0,1,.3-.46.45.45,0,0,1,.12-.06.21.21,0,0,1,.14.2l0,.41c0,.26.05.32.28.42s.22.14.11.29-.26.23-.45.09a.28.28,0,0,0-.26-.07.42.42,0,0,0-.12,0,.3.3,0,0,0,0,.1c.09.29.09.3,0,.49s-.07.27-.19.36-.07.06-.4.09a.34.34,0,0,0-.3.24.91.91,0,0,1-.43.53c-.07,0-.17.05-.25.09A1.94,1.94,0,0,0,20,25c-.09.05-.15,0-.19-.1s0-.1,0-.14a.43.43,0,0,0-.09-.1.15.15,0,0,0-.15.15c0,.19,0,.37,0,.56a.65.65,0,0,1,0,.13c-.05.11-.12.12-.22,0-.32-.17-.32-.18-.61,0a.62.62,0,0,1-.25.11.67.67,0,0,0-.25.13l-.11.08a2.35,2.35,0,0,0-.69.45c-.15.12-.21.13-.35,0s-.17-.17-.09-.46c0-.09,0-.15-.11-.17a.34.34,0,0,0-.26.06.86.86,0,0,1-.36.2.2.2,0,0,0-.13-.22l-.07.07a.2.2,0,0,0,.22.12v.3a.2.2,0,0,0-.22.12l.08.08a.2.2,0,0,0,.12-.22.33.33,0,0,1,.27.27.72.72,0,0,0,.12.25c.06.09.1.18.05.23a.25.25,0,0,1-.25.08.79.79,0,0,1-.4-.1,2.27,2.27,0,0,0-.5-.23,1.24,1.24,0,0,0-.64-.23.59.59,0,0,1-.26-.1,1.81,1.81,0,0,0-.37-.18c-.18-.06-.32-.2-.5-.25a1.44,1.44,0,0,1-.37-.19,4.59,4.59,0,0,1-.5-.24c-.19-.13-.42-.18-.62-.31s-.42-.18-.61-.33a2.38,2.38,0,0,1-.59-.35,1,1,0,0,0-.47-.28l-.23-.15L10,23.77a.52.52,0,0,0-.25-.11.84.84,0,0,1-.24-.14L8.87,23a.55.55,0,0,0-.24-.12.5.5,0,0,1-.25-.13l-.79-.78a1.15,1.15,0,0,0-.35-.22,1.07,1.07,0,0,1-.5-.46,1.82,1.82,0,0,0-.49-.67,1.08,1.08,0,0,0-.46-.3.28.28,0,0,1-.18-.19c0-.14-.05-.28-.08-.41a.78.78,0,0,0-.33-.24s-.08-.05-.12-.08-.27-.25-.39-.39a.62.62,0,0,1-.2-.36c-.06-.4,0-.28-.18-.51,0-.08-.09-.16-.13-.25s-.11-.23-.25-.3-.2-.1-.28-.29a1.36,1.36,0,0,0-.23-.34,1.39,1.39,0,0,1-.36-.59,1.9,1.9,0,0,1-.27-.48.72.72,0,0,0-.14-.24c-.06-.07-.11-.15-.18-.22A.84.84,0,0,1,2.26,15a2.15,2.15,0,0,0-.19-.37.37.37,0,0,1,0-.39A1,1,0,0,0,2.14,14L2,13.78c-.07-.12-.08-.27-.16-.38a.75.75,0,0,1-.14-.24.89.89,0,0,1,0-.28,2.46,2.46,0,0,1,0-.28.7.7,0,0,0-.15-.38.89.89,0,0,1-.12-.39,1.1,1.1,0,0,0-.19-.52.47.47,0,0,1-.08-.26,2.19,2.19,0,0,0,0-.27A1.19,1.19,0,0,0,1,10.53a.79.79,0,0,1-.11-.39c0-.1,0-.19,0-.28A.65.65,0,0,0,.7,9.47a1.14,1.14,0,0,1-.14-.39.86.86,0,0,0,0-.28c0-.08-.08-.16-.12-.24a.66.66,0,0,1-.09-.27c0-.32,0-.64,0-1a.79.79,0,0,0-.13-.39A.8.8,0,0,1,0,6.67c0-.51,0-1,0-1.53A.78.78,0,0,1,0,5a.3.3,0,0,1,.26-.27l.28,0c.13,0,.19-.08.27-.28a.37.37,0,0,1,.28-.26.2.2,0,0,0,.13.22.6.6,0,0,1,.08-.08.2.2,0,0,0-.22-.13.65.65,0,0,1,0-.13.25.25,0,0,1,.22-.12.24.24,0,0,1,.27.24,1.89,1.89,0,0,0,.08.4.18.18,0,0,0,.09.1,2.53,2.53,0,0,1,.37.18,2.62,2.62,0,0,1,.3.28.21.21,0,0,0,.24.06.32.32,0,0,1,.37,0,.53.53,0,0,0,.38.13c.23,0,.46,0,.69,0a.29.29,0,0,0,.23-.13A.46.46,0,0,0,4.17,5c-.21-.09-.25-.15-.23-.3s.07-.17.15-.13a3.63,3.63,0,0,0,.5.22A.29.29,0,0,1,4.72,5l0,.56a.26.26,0,0,0-.23.12.28.28,0,0,0,0,.25s.06.07.09.1a.23.23,0,0,0,.13-.22V5.54a.67.67,0,0,0,.28,0c.17,0,.18,0,.28-.25s.14-.27.38,0A1.16,1.16,0,0,0,6,5.47a.52.52,0,0,0,.14-.37.44.44,0,0,1,.07-.26c.1-.14.25-.1.38-.11a.32.32,0,0,1,.14,0,.21.21,0,0,1,.11.07c0,.07,0,.13-.14.16a.33.33,0,0,0-.22.14.25.25,0,0,0,.2.14l.28,0a.27.27,0,0,1,.12.06c.08,0,.08.13,0,.22s-.08.19.16.27a1.07,1.07,0,0,1,.45.31.35.35,0,0,1,.09.26l0,0-.26,0a.57.57,0,0,0-.35.18.48.48,0,0,0-.15.22.3.3,0,0,0,.2.14.41.41,0,0,1,.28.26.5.5,0,0,0,0,.13.29.29,0,0,0,.22.13A.19.19,0,0,0,8,7.36c0-.08.06-.17.1-.25l.23-.33a.5.5,0,0,0,0-.13l0,0a.58.58,0,0,1,.14,0,2.3,2.3,0,0,1,.41.35c.13.11.16.12.34,0a1.21,1.21,0,0,1,.52-.13A.3.3,0,0,0,10,6.65c0-.18,0-.36,0-.54s.1-.22.26-.26a.62.62,0,0,1,.27,0l.12,0c.12,0,.14.11.05.2s-.08.24.09.29a.84.84,0,0,1,.36.19.41.41,0,0,0,.24.11l0,0a.4.4,0,0,0,.1.24l.64.66a.36.36,0,0,1,.09.24l0,0a.66.66,0,0,0-.34.2.7.7,0,0,0-.15.23.24.24,0,0,0,.22.12l.27,0h0a.22.22,0,0,1-.13.22L12,8.6l-.27,0a.31.31,0,0,0-.3.24c-.1.21-.1.22-.26.28A.51.51,0,0,0,11,9.3a.26.26,0,0,0,.05.12c.06.1.07.17,0,.23a.41.41,0,0,1-.11.07c-.24.11-.26.14-.3.4a.59.59,0,0,0,0,.13c0,.19-.08.25-.24.27s-.22,0-.3-.2-.1-.27-.25-.18a.29.29,0,0,1-.36,0s-.07-.06-.11-.07a.26.26,0,0,0-.26,0c-.07.05-.06.14,0,.22s.08.17,0,.22a.28.28,0,0,1-.13,0l-.27,0c-.06-.22-.12-.27-.32-.28H8.07A.76.76,0,0,1,8.24,10c.06-.08,0-.15-.07-.19a1,1,0,0,0-.39,0,.21.21,0,0,0-.17.14.45.45,0,0,0,.06.12.72.72,0,0,0,.42.28c.05.21.12.27.32.28h.24a.24.24,0,0,0,.12.22.6.6,0,0,0,.27.07,2,2,0,0,1,.54,0,.43.43,0,0,1,.1.09s0,.08-.09.1a2.72,2.72,0,0,0-.25.11.16.16,0,0,0-.09.09.27.27,0,0,0,0,.26c.05.07.13.06.22,0a.29.29,0,0,1,.12-.07.3.3,0,0,1,.26,0c.11,0,.1.11,0,.22a1.06,1.06,0,0,0-.18.37.27.27,0,0,1-.2.16.25.25,0,0,1-.25-.06C9,12,9,12,9,12.16a.34.34,0,0,0,.05.26,1,1,0,0,0,.08.11.89.89,0,0,0,.46.28.36.36,0,0,1,.21.33.67.67,0,0,1-.08.39.75.75,0,0,1-.07.12c-.09.16,0,.24.17.25H10a.19.19,0,0,0,.13.22l.08-.08a.21.21,0,0,0-.23-.12.29.29,0,0,1,.14-.22.39.39,0,0,1,.39,0c.18.12.18.11.36,0a.42.42,0,0,1,.5,0,.7.7,0,0,0,.51.16.63.63,0,0,1,.37.17c.07.05.13.13.2.18l.22.17a2,2,0,0,1,.5.23s.08,0,.1-.05a.31.31,0,0,0,0-.25c-.13-.2-.31-.34-.44-.53a.3.3,0,0,1,.12-.45,1,1,0,0,0,.36-.2,2,2,0,0,1,.43-.34l.4-.07.13,0a.23.23,0,0,0,.13-.23,1.22,1.22,0,0,0,0-.27h.29a.19.19,0,0,0,.09.2c.08,0,.12,0,.09-.09s-.11-.1-.2-.09a.2.2,0,0,0-.08-.2.14.14,0,0,0-.09,0,.21.21,0,0,0-.09.2l-.12-.05a.28.28,0,0,1-.12-.34.28.28,0,0,1,.2-.15c.13,0,.26,0,.39-.06a.33.33,0,0,0,.17-.2,2.33,2.33,0,0,0,0-.53,2.17,2.17,0,0,1,0-.26.35.35,0,0,0-.06-.25.3.3,0,0,0-.22-.13l0,0a.44.44,0,0,0-.11-.25,1,1,0,0,0-.57-.37c-.1,0-.11-.13,0-.22a1.8,1.8,0,0,1,.19-.2.65.65,0,0,0,.2-.63c0-.16-.05-.2-.25-.29s-.26-.15,0-.38l.18-.2c.09-.09.09-.16,0-.24s-.08-.18,0-.23a.27.27,0,0,1,.26,0,1.41,1.41,0,0,1,.24.13l.11,0c.08-.08.07-.13-.09-.5,0-.09,0-.15.13-.18a.94.94,0,0,1,.41,0,.75.75,0,0,1,.12.07c.21.12.28.11.3,0a.24.24,0,0,0-.09-.25l-.11-.07c-.21-.1-.27-.14-.3-.25a1.13,1.13,0,0,1,0-.41A.79.79,0,0,1,16,5.27l.27,0c.09,0,.18-.25.13-.35a.76.76,0,0,0-.17-.22.46.46,0,0,0-.35-.2l-.28,0ZM26.75,17.8a.19.19,0,0,0,.21-.12l-.07-.08a.21.21,0,0,0-.12.22.2.2,0,0,0-.22.12l.07.08a.23.23,0,0,0,.13-.22m-3.33-3.62a.19.19,0,0,0,.12.22l.09-.08a.2.2,0,0,0-.23-.12.2.2,0,0,0-.12-.22l-.08.08a.2.2,0,0,0,.22.12M16.71,3.31a.2.2,0,0,0,.22-.12l-.08-.08a.23.23,0,0,0-.12.22.21.21,0,0,0-.22.12l.08.08a.2.2,0,0,0,.12-.22m6.71-1.12a.2.2,0,0,0,.12.22l.08-.07a.2.2,0,0,0-.22-.12v-.3a.2.2,0,0,0,.22-.13l-.08-.08a.21.21,0,0,0-.12.23.19.19,0,0,0-.19.08.14.14,0,0,0,0,.09.21.21,0,0,0,.19.08M9.47,14.74a4.86,4.86,0,0,0,.54,0,.35.35,0,0,0,.23-.14.28.28,0,0,0-.23-.12,1.2,1.2,0,0,0-.27,0,.28.28,0,0,0-.25.27.2.2,0,0,0-.22.12l.07.07a.19.19,0,0,0,.13-.21M8.09,8.6a.31.31,0,0,0,.12.23.31.31,0,0,0,.25,0,.43.43,0,0,0,.1-.09.22.22,0,0,0-.22-.13H8.07A.5.5,0,0,0,8,8.5a.27.27,0,0,0-.33-.12.3.3,0,0,0-.15.32c0,.11.1.13.19.08a.93.93,0,0,1,.34-.18M25.07,3a.92.92,0,0,0,.37,0,.26.26,0,0,0,0-.47.42.42,0,0,0-.12,0,.18.18,0,0,0-.12-.22.6.6,0,0,1-.08.08.18.18,0,0,0,.22.12.7.7,0,0,1-.18.34.43.43,0,0,0-.1.24.21.21,0,0,0-.21.12.6.6,0,0,0,.08.08A.2.2,0,0,0,25.07,3M23.4,15.59a1,1,0,0,0,0-.39c0-.12-.12-.13-.21,0a.73.73,0,0,0-.24.31c.09.13.23.1.36.11h.13a.76.76,0,0,1-.17.35c-.06.08-.05.15.07.19a.74.74,0,0,0,.39,0,.18.18,0,0,0,.17-.14.39.39,0,0,0-.06-.11.6.6,0,0,0-.42-.28M2.44,9a.67.67,0,0,1,.06.12.43.43,0,0,0,.28.28,1.08,1.08,0,0,1,.35.22,4.59,4.59,0,0,0,.61.55.33.33,0,0,0,.26,0,.2.2,0,0,0,.14-.2.22.22,0,0,0,0-.14c-.07-.16-.18-.31-.25-.48s-.07-.15-.3-.26a.45.45,0,0,1-.26-.29c-.07-.19-.12-.23-.29-.25l-.13,0H2.77a.64.64,0,0,0-.39.08c-.08.05-.07.06.06.35M16.8,4.42h.28a1.11,1.11,0,0,0,.32-.25A.47.47,0,0,0,17.47,4c0-.09-.08-.13-.19-.13A.32.32,0,0,0,17,4c-.13.11-.24.06-.37,0s-.07,0-.11,0a.21.21,0,0,0-.07.25.33.33,0,0,0,.32.2M8.65,14.71a.34.34,0,0,0,.23-.13v-.13c0-.17-.06-.21-.25-.25a.59.59,0,0,0-.38.05.34.34,0,0,0-.08.09.45.45,0,0,0,.15.21c.1.08.19.19.33.16M25.37,4.15l.27,0A.3.3,0,0,0,25.87,4a.3.3,0,0,0,0-.26.3.3,0,0,0-.1,0,1.13,1.13,0,0,1-.64.2.28.28,0,0,0-.23.12.32.32,0,0,0,.22.14h.27M5.88,6.43c-.16,0-.24,0-.26.21s0,.24.2.26.25,0,.27-.2,0-.24-.21-.27M5,8.08a.33.33,0,0,0-.22.11,1.63,1.63,0,0,0-.17.2.22.22,0,0,0,0,.11.19.19,0,0,0,.23.09.75.75,0,0,0,.32-.21.26.26,0,0,0,.09-.22A.19.19,0,0,0,5,8.08M8,11a.7.7,0,0,0-.25-.29l-.11-.06a.3.3,0,0,0-.13.21.66.66,0,0,0,0,.38.87.87,0,0,0,.08.1c.09,0,.37-.25.37-.34M22.49,3.72a.45.45,0,0,0-.15-.21.28.28,0,0,0-.21-.09c-.09.05-.1.12-.08.22s.06.16.14.19a.25.25,0,0,0,.24,0s0-.06.06-.09m4.07.14a2.09,2.09,0,0,0,.25,0,.2.2,0,0,0,.1-.08c0-.06,0-.12-.1-.15a2.46,2.46,0,0,0-.26,0,.2.2,0,0,0-.23.09c-.05.08.07.17.24.16m-7.43,18-.09-.1a.3.3,0,0,0-.23.06c-.07.05-.06.13.05.17a.24.24,0,0,0,.23-.05s0-.05,0-.08M16.41,12a.22.22,0,0,0,0-.14c-.05-.13-.12-.14-.18,0a.18.18,0,0,0,0,.13c0,.11.05.16.13.15s.07-.06.08-.1m-.83-.3a.24.24,0,0,0-.1-.24.32.32,0,0,0-.1.1.25.25,0,0,0,0,.13q0,.16.15.12l.07-.11m-10.93-1a.19.19,0,0,0-.19-.12.22.22,0,0,0-.21.1.22.22,0,0,0,.2.12.18.18,0,0,0,.2-.1m2-1.58c.05,0,.09,0,.13,0s.06-.05.09-.08,0-.12-.13-.14A.17.17,0,0,0,6.51,9c0,.07,0,.12.13.14M2.14,7.93A.18.18,0,0,0,2,7.81a.25.25,0,0,0-.21.1A.22.22,0,0,0,1.94,8a.18.18,0,0,0,.2-.1m1.12-.28a.2.2,0,0,0-.19-.12.26.26,0,0,0-.21.1.25.25,0,0,0,.2.12.19.19,0,0,0,.2-.1m3.27-.26a.2.2,0,0,0,.24.08s.07-.06.1-.09a.36.36,0,0,0-.07-.1.21.21,0,0,0-.24,0s0,.06,0,.09m9.53,17.85s0-.07,0-.09a.22.22,0,0,0-.22,0c-.11,0-.13.1-.07.16a.24.24,0,0,0,.22,0s.07,0,.1-.07M26.68,6a.2.2,0,0,0-.19-.11.24.24,0,0,0-.21.1.23.23,0,0,0,.4,0M3.53,5.68s-.06-.09-.1-.1a.22.22,0,0,0-.14,0c-.11,0-.15.1-.08.17a.25.25,0,0,0,.12,0,.16.16,0,0,0,.2-.11M23.31,4s0-.08-.09-.09a.22.22,0,0,0-.14,0c-.12,0-.15.1-.08.16s.07,0,.11,0,.18,0,.2-.12m-.52-2.21-.06-.08c-.12,0-.12.09,0,.15l.08-.07m-5.38.63c.11,0,.12-.09,0-.15l-.08.07.07.08m3.9,0c.11,0,.12-.09,0-.15l-.08.07a.27.27,0,0,1,.07.08m-.48.49-.09-.06V3ZM22,4.3c0-.11-.1-.11-.16,0l.08.08L22,4.3m2.42.34c.11,0,.11-.08,0-.14l-.08.07a.46.46,0,0,1,.07.07M2.44,5.7l-.09-.06v.1Zm4.46.55c0-.1-.09-.11-.14,0l.06.08.08-.07m2.52,1.4c-.05-.11-.1-.12-.16,0l.07.08.09-.07M8.3,7.93c0-.11-.09-.11-.15,0L8.22,8l.08-.06m-1.67.28c0-.12-.1-.12-.16,0l.07.08.09-.07m4.11.19-.09.07c0,.11.1.11.16,0a.27.27,0,0,1-.07-.08M6,9.81l-.06.09H6ZM8.51,12l-.08.06c0,.11.09.12.15,0L8.51,12M23,13.29c.12,0,.12-.09,0-.15l-.09.07.07.08m-8.69.19.09.06v-.1Zm-3.56.77-.08.06c0,.12.1.12.16,0l-.08-.08m-.2,1.2c0-.1-.09-.11-.15,0l.07.08.08-.07m10.59,7c0-.11-.09-.11-.15,0l.07.08.08-.07M0,3.54a.57.57,0,0,0,0,.13c0,.13.11.15.2.09l.23-.14.42-.06a.29.29,0,0,0,.2-.16,1.1,1.1,0,0,1,.29-.47l.19-.2a.89.89,0,0,0,.15-.38.44.44,0,0,1,.08-.11,4.53,4.53,0,0,1,.49-.49.24.24,0,0,1,.25-.07.42.42,0,0,1,.13,0A1.2,1.2,0,0,0,3.15,2l.24.14a.41.41,0,0,0,.26.09l.69,0c.23,0,.46,0,.69,0l.13,0a1.78,1.78,0,0,0,.36.19.34.34,0,0,0,.14,0c.12,0,.14-.12.06-.21s-.07-.23,0-.36a.63.63,0,0,1,.62-.21c.18,0,.22.06.3.24s0,.09,0,.13a.29.29,0,0,0,.36.09c.06-.06,0-.13,0-.23-.18-.33-.07-.51.32-.52h.83a.71.71,0,0,0,.39-.13.79.79,0,0,1,.52-.14h.28A.25.25,0,0,0,9.67,1a.23.23,0,0,0-.2-.15L8.78.8A.68.68,0,0,1,8.39.69.78.78,0,0,0,8,.57H7.72A.82.82,0,0,0,7.19.7a.39.39,0,0,1-.39,0A1.17,1.17,0,0,0,6.14.57L3.37.55H3.09a.51.51,0,0,0-.26.09.32.32,0,0,1-.37,0A.5.5,0,0,0,2.19.57H1.5a.59.59,0,0,0-.39.11A1,1,0,0,1,.72.81L.31.85A.37.37,0,0,0,0,1.24a.63.63,0,0,0,.22.49.78.78,0,0,0,.35.21A.67.67,0,0,1,.69,2a.53.53,0,0,1,.07.62c-.07.07-.14,0-.18-.07A.53.53,0,0,0,.46,2.3a.27.27,0,0,0-.25-.06A.22.22,0,0,0,0,2.43c0,.18,0,.37,0,.39,0,.35,0,.53,0,.72M23.7,18.1l-.13,0a.77.77,0,0,1-.44-.64.66.66,0,0,0,0-.14.29.29,0,0,0-.13-.23.46.46,0,0,0-.15.22c-.06.18-.07.18-.28.27l-.12.06a.2.2,0,0,0-.09.24.22.22,0,0,0,.14.21,1.57,1.57,0,0,1,.48.25,1.86,1.86,0,0,0,.25.1c.12.06.23.14.35.21a.42.42,0,0,0,.13,0l0,0v-.58ZM12.83,5.56a.5.5,0,0,0-.13,0c-.09,0-.16.1-.24.14s-.07,0-.11,0a.68.68,0,0,1-.12-.24A.24.24,0,0,0,12,5.31s-.1,0-.14,0-.14.1-.07.2c.2.3.17.44-.11.71a2,2,0,0,0-.26.32.3.3,0,0,0,0,.13l0,0a3,3,0,0,0,.52,0,.31.31,0,0,0,.3-.21.53.53,0,0,1,.34-.36.27.27,0,0,0,.22-.28,2.17,2.17,0,0,0,0-.26ZM14.5,2.77a2.53,2.53,0,0,0-.67,0,.23.23,0,0,0-.11.08.57.57,0,0,0,0,.26.32.32,0,0,0,.22.13l.28,0a.42.42,0,0,1,.25.1c.08.06.16.09.23,0s.08-.25,0-.37a.89.89,0,0,1-.19-.36ZM12.34,4.68a.26.26,0,0,0,.16-.19.23.23,0,0,0-.07-.24.33.33,0,0,0-.37,0l-.1.09c-.16.13-.2.23-.13.3a.32.32,0,0,0,.25.08,1.09,1.09,0,0,0,.26,0m-.13-1.33a.3.3,0,0,0-.19.32c0,.11.1.14.19.1a1.22,1.22,0,0,1,.36-.18c.11,0,.16-.09.15-.16a.25.25,0,0,0-.24-.1.82.82,0,0,0-.27,0m-8.58.54a.42.42,0,0,0-.12,0,1.64,1.64,0,0,0-.22.14,3.78,3.78,0,0,1-.35.17.73.73,0,0,0,0,.09s.06.07.1.08a.63.63,0,0,0,.5-.06c.13-.08.12-.22.13-.34a.57.57,0,0,0,0-.13l0,0M12.71,2c-.06,0-.14,0-.21.08l-.09.09a.34.34,0,0,0-.05.11c0,.08.06.12.15.13a.24.24,0,0,0,.28-.2A.14.14,0,0,0,12.71,2m-8,1a.28.28,0,0,0-.27.26,1.2,1.2,0,0,0,0,.27.29.29,0,0,0,.13.23.36.36,0,0,0,.13-.23,5,5,0,0,0,0-.55ZM11,3.11a.26.26,0,0,0-.34.1.26.26,0,0,0,0,.26c.05,0,.13,0,.21-.05a.5.5,0,0,0,.16-.22A.31.31,0,0,0,11,3.11m3.79,7.19a1,1,0,0,0-.39,0c-.12,0-.12.11,0,.2a.86.86,0,0,0,.3.24c.13-.09.1-.23.11-.36a.56.56,0,0,0,0-.13Zm1.67,8.9a1.09,1.09,0,0,0,0,.4l.1.09s.08-.06.09-.1a.25.25,0,0,0,0-.25.27.27,0,0,0-.23-.13Zm0-.28a1.42,1.42,0,0,0,.41,0l.09-.1s-.06-.08-.1-.1a.33.33,0,0,0-.26,0,.27.27,0,0,0-.12.23Zm4.2-4.72a.24.24,0,0,0-.22.12.31.31,0,0,0,0,.25.32.32,0,0,0,.1.1.22.22,0,0,0,.12-.22v-.27ZM12.27,7.77a5.42,5.42,0,0,0,0,.57h0l.12,0a.24.24,0,0,0,.14-.18.26.26,0,0,0-.15-.3.42.42,0,0,0-.12,0ZM7.81,6.38a.35.35,0,0,0,.1.21.34.34,0,0,0,.22.07h.24l0,0C8.29,6.45,8.23,6.4,8,6.4a1.92,1.92,0,0,0-.24,0Zm2.37-1.6a.22.22,0,0,0-.12.21.19.19,0,0,0,.11.21.2.2,0,0,0,.12-.2.29.29,0,0,0-.11-.22m5.44-.34a1.33,1.33,0,0,0-.4,0,.45.45,0,0,0-.09.1.43.43,0,0,0,.1.09.31.31,0,0,0,.25,0,.28.28,0,0,0,.12-.23Zm-2.77-.29a.26.26,0,0,0,.1.21.23.23,0,0,0,.12-.2A.18.18,0,0,0,13,4a.18.18,0,0,0-.11.19M4.73,3a.86.86,0,0,0,.39,0s.06-.06.09-.1,0-.08-.09-.09a.27.27,0,0,0-.25,0,.23.23,0,0,0-.12.22ZM17.12,26.84s-.07.05-.1.08a.3.3,0,0,0,.06.23s.06,0,.09,0a.16.16,0,0,0,.08-.22c0-.09-.06-.15-.13-.13M11.77.68l.07.07.08-.06c0-.1-.09-.11-.15,0M13.8,2c-.11,0-.11.09,0,.15l.08-.07L13.8,2m.68.76a.22.22,0,0,0,.22-.11l-.07-.08a.21.21,0,0,0-.13.21ZM3.61,3.87a.21.21,0,0,0,.23-.12l-.08-.09a.24.24,0,0,0-.13.23Zm9.91.07L13.44,4l.06.08c.11,0,.12-.09,0-.15M5.4,4.6h.09l0-.11Zm7.41.94A.2.2,0,0,0,13,5.42.3.3,0,0,0,13,5.34a.2.2,0,0,0-.12.22ZM21.9,17.05c-.11,0-.12.08,0,.14l.08-.07-.06-.07m2.08,1a.2.2,0,0,0,.12.22.3.3,0,0,0,.08-.08A.2.2,0,0,0,24,18.1Zm-.28.56a.2.2,0,0,0,.12.22.3.3,0,0,0,.08-.08.19.19,0,0,0-.22-.12Zm1.12,0a.21.21,0,0,0-.23.12l.08.08a.2.2,0,0,0,.13-.22ZM6.52,22.42h.09l0-.09Zm16.81.24h-.11l.05.1Z"/></g></g></svg>