<svg xmlns="http://www.w3.org/2000/svg" viewBox="0 0 29.52 29.53"><defs><style>.cls-1{fill:#45c2b1;}</style></defs><g id="Layer_2" data-name="Layer 2"><g id="Layer_1-2" data-name="Layer 1"><path class="cls-1" d="M1.66,16.45c0,.24-.21.26-.38.33a.21.21,0,0,0-.13.22v.13a1.38,1.38,0,0,0,.28.31.39.39,0,0,0,.24.12l.83,0a.28.28,0,0,1,.13,0c.12,0,.22.18.36.13s.16-.09.25-.13a.3.3,0,0,1,.35.11s0,.09.05.13a.3.3,0,0,0-.28.24,1.13,1.13,0,0,1-.19.36.42.42,0,0,0-.09.24.5.5,0,0,1-.13,0l-.22-.15c-.09-.06-.16,0-.19.08a.7.7,0,0,0,0,.51.19.19,0,0,0,.23.09c.09,0,.17,0,.2-.13a1,1,0,0,0,0-.39.65.65,0,0,1,.33.19.36.36,0,0,0,.24.09c0,.19.08.25.28.28a.26.26,0,0,0,.13.22.31.31,0,0,0,.12.05c.19,0,.37,0,.55,0a.32.32,0,0,1,.3.24s0,.09,0,.13a.26.26,0,0,0,.22.13.22.22,0,0,0,.24-.11c.06-.12.09-.26.21-.34L6,19.53h.14a.61.61,0,0,0,0,.13.26.26,0,0,0,.32.12.23.23,0,0,0,.16-.17.24.24,0,0,0-.12-.31.61.61,0,0,0-.13,0,.87.87,0,0,0,0-.28c0-.18,0-.22-.24-.28a.66.66,0,0,1-.24-.11,2.68,2.68,0,0,1-.3-.28c-.08-.08-.16-.11-.22-.07a.21.21,0,0,0-.06.25.67.67,0,0,0,.06.12.8.8,0,0,1,.11.23.78.78,0,0,1-.27.3.33.33,0,0,1-.24.1l-1.1,0a.26.26,0,0,0-.07-.21.24.24,0,0,0-.2-.07.36.36,0,0,1,.24-.28.4.4,0,0,0,.23-.12A.36.36,0,0,0,4,18.36l-.26-.28a.44.44,0,0,1-.11-.24H4a.69.69,0,0,1,.39.12c.09.07.17.09.23.05s.08-.22,0-.38a2.58,2.58,0,0,1-.19-.37c-.06-.16-.07-.16-.29-.26s-.19-.11-.1-.3a.15.15,0,0,0,0-.24c-.08-.09-.08-.17,0-.22a.32.32,0,0,1,.27,0l.11.08a.94.94,0,0,1,.36.57l.1.1a.61.61,0,0,0,.27,0,.23.23,0,0,0,.12-.23,2.62,2.62,0,0,1,0-.28.19.19,0,0,0,.21-.12l-.07-.08a.2.2,0,0,0-.12.22.8.8,0,0,1-.42-.3c-.09-.07-.1-.14,0-.22A1,1,0,0,0,5,15.72a2.3,2.3,0,0,0,0-.26c0-.13,0-.27,0-.4H5a.35.35,0,0,1,.24.1c.2.17.22.16.5.17a.39.39,0,0,0,.38-.3c0-.18,0-.36,0-.54a2.69,2.69,0,0,0,.4,0l.09-.1a.43.43,0,0,0-.1-.09.25.25,0,0,0-.25,0,.29.29,0,0,0-.12.22.8.8,0,0,1-.25-.11c-.17-.12-.18-.13-.35,0a.9.9,0,0,1-.53.1l0,0c0-.13,0-.26,0-.39a2.48,2.48,0,0,1,0-.27,1.39,1.39,0,0,1,.23-.31.19.19,0,0,1,.23-.05.66.66,0,0,0,.35.16.2.2,0,0,0,.13.22l.08-.08a.21.21,0,0,0-.23-.12,5,5,0,0,0,0-.55.88.88,0,0,1,.2-.64.34.34,0,0,0,0-.26c0-.12-.09-.15-.18-.11a1.63,1.63,0,0,1-.38.17.33.33,0,0,0-.26.28l0,0a3.74,3.74,0,0,0-.58,0l0,0v-.14c0-.34,0-.36.4-.41.13,0,.28,0,.36-.15a1.25,1.25,0,0,0,.09-.25c.05-.12.12-.14.22-.06s.32,0,.31-.2a1.18,1.18,0,0,0,0-.27.28.28,0,0,0-.2-.17l-.27,0a.38.38,0,0,1-.31-.22.36.36,0,0,0-.13-.23.4.4,0,0,0-.23.09.77.77,0,0,1-.25.1.34.34,0,0,0-.26.28l0,0H4.22a.32.32,0,0,0-.32.32c0,.08,0,.16,0,.25l0,0a.42.42,0,0,1-.25-.1,1.11,1.11,0,0,0-.36-.18c-.17,0-.19-.16-.06-.28a2.79,2.79,0,0,0,.35-.42s0-.08,0-.13v0a.35.35,0,0,1,.24.1c.09.08.17.1.23.06a.26.26,0,0,0,.09-.25.62.62,0,0,0-.08-.4.94.94,0,0,1-.19-.65c0-.18,0-.37,0-.55h.27a.24.24,0,0,0,.22-.13.45.45,0,0,0,0-.26l-.09-.09a.21.21,0,0,0-.12-.05,14.79,14.79,0,0,0-1.63,0,.28.28,0,0,0-.24.11.27.27,0,0,0,0,.25.26.26,0,0,0,.19.16A.63.63,0,0,0,3,8.57s.09,0,.12-.07a.58.58,0,0,1,.38-.11.38.38,0,0,1,.26.06.32.32,0,0,1,.15.21H3.64a.24.24,0,0,0-.23.12.61.61,0,0,0-.05.12.63.63,0,0,0,0,.27.38.38,0,0,1-.09.25c-.06.07-.1.15-.15.22l0,.41v0a1.93,1.93,0,0,0-.41.06,1,1,0,0,0-.38.39.28.28,0,0,0,0,.13,1.12,1.12,0,0,1-.1.4c-.08.14-.23.12-.36.15l-.14,0a.25.25,0,0,0-.2.16.3.3,0,0,0,0,.26l.15.24a1.88,1.88,0,0,1-.14.24.47.47,0,0,0-.08.26,1.24,1.24,0,0,1,0,.27s-.06.08-.09.11-.13-.05-.14-.16c0-.32,0-.65,0-1A.83.83,0,0,0,1,11.2a.72.72,0,0,1-.13-.38c0-.7,0-1.4,0-2.09L.89,4A.77.77,0,0,1,1,3.6a.78.78,0,0,0,.09-.4c0-.92,0-1.85,0-2.78,0,0,0-.09,0-.14A.32.32,0,0,1,1.39,0l.14,0h.14C2.46,0,3.25,0,4,0,4.5,0,5,0,5.42,0s.84,0,1.26,0S7.79,0,8.35,0h2.92c.41,0,.83,0,1.25,0C14,0,15.49,0,17,0l1.25,0a1,1,0,0,1,.53.14A.47.47,0,0,0,19,.28l1.81.06a1,1,0,0,1,.39.11.9.9,0,0,0,.4.11l2.64,0h.56a1,1,0,0,1,.66.16l.13,0,.28,0L27.82.9a.5.5,0,0,1,.27.07,2,2,0,0,0,.66.19.29.29,0,0,1,.2.17.86.86,0,0,1,0,.28c0,.18,0,.37,0,.55s-.12.31-.35.35l-.14,0a.31.31,0,0,0-.23.12.27.27,0,0,0,.21.14l.27,0a.28.28,0,0,1,.18.43l-.13.24a1.14,1.14,0,0,0,.26.32l.1.1a.62.62,0,0,1,.12.39.92.92,0,0,1-.11.39c-.11.18-.1.18,0,.36a.7.7,0,0,1,.1.26,3.29,3.29,0,0,1,0,.83.36.36,0,0,1-.11.25.76.76,0,0,1-.45.31c-.17.06-.19.12-.08.3a.49.49,0,0,1,.1.25l0,.28a.5.5,0,0,0-.13,0,.28.28,0,0,0-.11.33.3.3,0,0,0,.31.16c.11,0,.13-.11.08-.19a.88.88,0,0,1-.17-.35c.15,0,.24-.1.37-.16s.15,0,.16.13a5.06,5.06,0,0,1,0,.55c0,.36,0,.73,0,1.1a.27.27,0,0,1-.1.24c-.08,0-.13-.07-.16-.17A.44.44,0,0,0,28.88,9a3.17,3.17,0,0,0-.49-.48.37.37,0,0,0-.12-.07.8.8,0,0,0-.53,0,.7.7,0,0,0-.3.27.56.56,0,0,0,0,.12.21.21,0,0,0,.24.09.46.46,0,0,0,.24-.12c.1-.08.17-.08.22,0a.33.33,0,0,1,0,.26.16.16,0,0,1-.09.09,2.59,2.59,0,0,0-.38.17.63.63,0,0,1-.38.14l-.54,0-.11.09s0,.07,0,.09a.29.29,0,0,0,.12.07.82.82,0,0,1,.36.18,2.48,2.48,0,0,0,.37.17.26.26,0,0,1,.12.23l0,0H27a1.15,1.15,0,0,0-.26,0,.25.25,0,0,0-.18.15.81.81,0,0,0,0,.38.2.2,0,0,0-.22.13l.08.08a.2.2,0,0,0,.12-.22l.3,0,0,0a4.86,4.86,0,0,1,0,.54c0,.25-.25.35-.48.2s-.2-.13-.35,0-.17.08-.22,0a.33.33,0,0,1,0-.26c0-.08.09-.15.14-.23a.75.75,0,0,0-.16-.35.3.3,0,0,1,0-.13l0-.55a.25.25,0,0,0,.23-.12.42.42,0,0,0,0-.12.2.2,0,0,0-.11-.23.22.22,0,0,0-.14.21v.28a3.62,3.62,0,0,0-.57,0,.81.81,0,0,0,0-.27.33.33,0,0,0,0-.14c0-.09-.12-.11-.22-.11a.2.2,0,0,0-.23.11.34.34,0,0,0,0,.26.25.25,0,0,0,.23.13,2.43,2.43,0,0,0,.27,0,2.64,2.64,0,0,1,0,.28.31.31,0,0,1,0,.13c-.06.09-.14.1-.23,0s-.17-.09-.25,0-.24.08-.35,0A.87.87,0,0,1,24,10.2l.06-.12a.75.75,0,0,0,.15-.38.88.88,0,0,1,0-.28,1.12,1.12,0,0,1,.13-.24c.07-.1.06-.17-.07-.21a.19.19,0,0,0-.13,0,.64.64,0,0,0-.25.12.6.6,0,0,1-.52.1.34.34,0,0,1-.29-.25c-.1-.24-.1-.23-.28-.14a.16.16,0,0,1-.24,0,.89.89,0,0,0-.25-.14,1.18,1.18,0,0,0-.27,0,.71.71,0,0,1-.38-.15.69.69,0,0,0-.39-.12l-1.11,0a.65.65,0,0,0-.49.21l-.21.19a.47.47,0,0,1-.12.07.21.21,0,0,1-.15-.18l0-.28a.23.23,0,0,0-.15-.19l-.09.1a1.09,1.09,0,0,1-.37.57,1.24,1.24,0,0,1-.21.19.57.57,0,0,1-.37.16A.58.58,0,0,1,17.52,9,.45.45,0,0,0,17.27,9a.37.37,0,0,1,.39-.3h.13a.27.27,0,0,0,.25-.1.37.37,0,0,0-.12-.22l-.11-.09c-.08-.08-.14-.07-.24,0a.55.55,0,0,1-.37.14l-.54,0s-.09,0-.1.09,0,.13.13.15a.85.85,0,0,1,.35.19.42.42,0,0,0,.25.1v.13c0,.28-.05.32-.15.37a.6.6,0,0,1-.27.06,2.93,2.93,0,0,0-.41,0,.5.5,0,0,0-.13,0,.21.21,0,0,0-.13.23.42.42,0,0,0,0,.12c.05.09.13.08.22,0a.35.35,0,0,1,.12-.07.48.48,0,0,1,.27,0c.11.06.21.17.35.15s.16-.1.24-.13a.36.36,0,0,1,.27,0,.28.28,0,0,1,.08.11,1.4,1.4,0,0,1,.06.41.82.82,0,0,0,0,.27.28.28,0,0,0,.15.21.32.32,0,0,0,.27,0l.12-.07a.41.41,0,0,1,.61.06.43.43,0,0,1,.14.23.29.29,0,0,1-.24.1h-.14a.6.6,0,0,0-.38.15,1.08,1.08,0,0,1-.38.17,1.77,1.77,0,0,0-.41.36l-.2.2-.11.09c-.08.08-.17.09-.22,0a.29.29,0,0,1,0-.26c0-.08.1-.16.15-.24a.38.38,0,0,0,.08-.25,4.72,4.72,0,0,0,0-.84c0-.1-.22-.23-.32-.18a.26.26,0,0,0-.12.05,3,3,0,0,1-.62.31c-.18.1-.22.08-.3-.09a.3.3,0,0,0-.14-.23.28.28,0,0,0-.14.22.58.58,0,0,1-.12.25c-.09.09-.09.16,0,.21a.21.21,0,0,0,.13.05l.55,0a.25.25,0,0,1,.2.14l-.1.1a.72.72,0,0,0-.37.18c-.24.2-.25.26-.1.44a.44.44,0,0,1,.11.25.21.21,0,0,0-.22.12l.08.07a.21.21,0,0,0,.12-.21.61.61,0,0,0,.13,0,1.7,1.7,0,0,0,.22-.15.31.31,0,0,1,.46.1,1.75,1.75,0,0,0,.11.24c.07.09.07.09.37.13l.14,0a.35.35,0,0,1,.21.15.3.3,0,0,1-.12.35l-.13.05a.21.21,0,0,0-.12-.23l-.08.09a.2.2,0,0,0,.22.12.33.33,0,0,0,.1.25l.2.18a.23.23,0,0,0,.12.08.27.27,0,0,0,.26,0c.08,0,.08-.13,0-.22s-.08-.19.15-.28.25-.13.24-.29-.05-.16-.14-.16c-.31.09-.38,0-.39-.27a.38.38,0,0,1,.08-.26c.06-.06.14,0,.24,0s.15.08.26-.17a.47.47,0,0,1,.07-.12.22.22,0,0,1,.24-.09c.16,0,.16.08.05.29a.37.37,0,0,0-.07.12.27.27,0,0,0,.05.26c.05.06.14.05.22,0l.2-.2a.42.42,0,0,1,.22-.13l.12.07a2,2,0,0,0,.37.17s.07.07.1.1a.43.43,0,0,1-.1.09c-.17.06-.36,0-.53.11a2.14,2.14,0,0,0-.42.37l-.09.1c-.08.09-.1.17,0,.23a.25.25,0,0,0,.25,0,1.49,1.49,0,0,0,.25-.13c.08,0,.16,0,.18.12a7.58,7.58,0,0,1,0,.83c0,.16.06.25.23.3a1.58,1.58,0,0,1,.36.2c.18.12.28.11.5,0a.77.77,0,0,1,.39-.14h.14a.39.39,0,0,0,.25-.08.75.75,0,0,1,.24-.14.82.82,0,0,1,.41,0,.22.22,0,0,1,.12.05c.07.06.06.13,0,.22l-.3.3-.19.19c-.08.08-.12.17-.08.23a.21.21,0,0,0,.25.06l.12-.06.23-.15.42,0a.93.93,0,0,1-.18.34c-.05.09,0,.16.09.19a1.2,1.2,0,0,0,.38,0,.19.19,0,0,0,.17-.15.6.6,0,0,0-.06-.11c-.12-.12-.23-.27-.42-.27a.5.5,0,0,1,0-.13.37.37,0,0,1,.22-.14,2.76,2.76,0,0,0,.4-.06c.12,0,.13-.11.06-.2s-.18-.2-.27-.3-.09-.16,0-.22A.27.27,0,0,1,23.1,14a1.09,1.09,0,0,1,.26,0,.81.81,0,0,0,.37-.15c.15-.07.15-.07.25.19a.31.31,0,0,0,.28.24,1.93,1.93,0,0,0,0,.24c0,.2.06.26.29.32a1,1,0,0,0,0,.39c0,.09.12.12.21.14A.18.18,0,0,0,25,15.2a.67.67,0,0,0-.06-.12.62.62,0,0,0-.42-.28.37.37,0,0,1,.23-.28.94.94,0,0,0,.23-.1.24.24,0,0,0,.06-.23A.22.22,0,0,0,24.9,14a1,1,0,0,0-.38,0,.44.44,0,0,1,.1-.23.73.73,0,0,0,.19-.34h0a.37.37,0,0,0,.27-.23.41.41,0,0,1,.45-.34h.13a.2.2,0,0,0,.12.22l.08-.08a.2.2,0,0,0-.22-.12.37.37,0,0,0-.09-.25c-.08-.08-.1-.17-.06-.23s.22-.09.37,0a1.62,1.62,0,0,0,.36.21c.22.07.23.09.25.27a2.48,2.48,0,0,1,0,.27l-.13,0a.2.2,0,0,0-.09.07.29.29,0,0,0,.16.42,1,1,0,0,0,.38,0s.08,0,.11-.07,0-.12-.09-.17-.33-.1-.36-.31h.26c.18,0,.26-.1.3-.35v-.13c0-.27.1-.3.32-.15a.42.42,0,0,0,.24.09.21.21,0,0,0,.12.22l.08-.08a.2.2,0,0,0-.22-.12.42.42,0,0,1,.12-.24c.13-.18.13-.19,0-.35s-.13-.35,0-.49l.27-.3c.11-.13.12-.17,0-.34a.45.45,0,0,1-.09-.25l0,0,.42,0a.39.39,0,0,0,.42-.28.3.3,0,0,1,.17-.21.33.33,0,0,1,.26,0,.24.24,0,0,1,.1.1,4.61,4.61,0,0,0,.22.51.6.6,0,0,1,.06.27,2.61,2.61,0,0,1,0,.28c0,.41,0,.83,0,1.25a.79.79,0,0,1-.08.26.87.87,0,0,0-.14.39c0,.6,0,1.2,0,1.81a1.35,1.35,0,0,1-.23.78A.49.49,0,0,0,29,16a.5.5,0,0,0,.08.12.83.83,0,0,1,.11.53.57.57,0,0,1-.08.26c-.15.29-.15.29-.13.39a.62.62,0,0,0,.11.25.19.19,0,0,1,0,.26.19.19,0,0,0,0,.25.67.67,0,0,1,.06.12.94.94,0,0,1,0,.68,2,2,0,0,0-.13.25,1.26,1.26,0,0,0,0,.27c0,.61,0,1.21,0,1.81a.35.35,0,0,1-.05.13c0,.08-.08.16-.13.24l.13.24a.37.37,0,0,1,0,.39,1.57,1.57,0,0,0-.14.25,1.39,1.39,0,0,0,0,.41c0,.14,0,.28,0,.42a.62.62,0,0,1-.12.39.17.17,0,0,0,0,.24,1.41,1.41,0,0,1,.13.24,1.32,1.32,0,0,1,0,.28v.7a.89.89,0,0,0,.16.52.68.68,0,0,1,.11.39v1.12a.68.68,0,0,1-.11.39.77.77,0,0,0-.14.39c0,.32,0,.64,0,1a.68.68,0,0,1-.4.53.5.5,0,0,1-.13,0,9.2,9.2,0,0,1-1.39,0,.4.4,0,0,1-.26-.08.35.35,0,0,0-.38,0,.44.44,0,0,1-.4,0,1.17,1.17,0,0,0-.66-.16l-1,0h-1a1,1,0,0,1-.54-.12.76.76,0,0,0-.39-.13l-.42,0h-.83l-1,0a.87.87,0,0,1-.52-.15.65.65,0,0,0-.27-.08h-.55c-1.86,0-3.72,0-5.58,0-1,0-1.95,0-2.92,0a.86.86,0,0,1-.39-.13.78.78,0,0,0-.4-.11c-1.2,0-2.41,0-3.62,0l-3.48,0h-.7a.59.59,0,0,1-.48-.22L1,28.12a.22.22,0,0,1,0-.25.42.42,0,0,0,0-.51.79.79,0,0,1-.17-.52.57.57,0,0,0-.08-.26.75.75,0,0,1-.07-.12.42.42,0,0,1,0-.52l.06-.12a.87.87,0,0,0-.1-.25.48.48,0,0,1-.07-.26c0-.14,0-.28,0-.42a1.21,1.21,0,0,1,.22-.79.62.62,0,0,0,0-.27,1.11,1.11,0,0,1-.23-.64A.27.27,0,0,0,.43,23a.25.25,0,0,0-.13.22c0,.93,0,1.86,0,2.78,0,.38,0,.75,0,1.12a7.85,7.85,0,0,0,0,1,.5.5,0,0,0,.12.39c.08.1.1.16,0,.21a.3.3,0,0,1-.13,0,.22.22,0,0,1-.23-.13.61.61,0,0,1,0-.13,1.27,1.27,0,0,1,0-.28c0-1.07,0-2.13,0-3.2s0-2,0-2.93c0,0,0-.08.06-.12s.12,0,.13.16a1.3,1.3,0,0,0,.09.39.23.23,0,0,0,.09.08s.08-.06.09-.1a1.28,1.28,0,0,0,0-.27c0-.14,0-.28,0-.42a1.57,1.57,0,0,1,.18-.37.36.36,0,0,0,0-.27,1.49,1.49,0,0,0-.14-.24.47.47,0,0,1-.08-.26.69.69,0,0,1,.15-.52.88.88,0,0,0,.11-.39,5.48,5.48,0,0,0,0-.7c0-.23,0-.46,0-.7a.68.68,0,0,0-.11-.39c-.09-.16-.09-.16,0-.36a.62.62,0,0,0,.09-.26c0-.23,0-.47,0-.7s0-.55,0-.83A.63.63,0,0,1,1,15.34,1.84,1.84,0,0,0,1.16,15a.39.39,0,0,1,.1-.08s.08.06.09.1a2.67,2.67,0,0,1,0,.69.87.87,0,0,1-.14.53c-.09.09-.08.17,0,.22a.32.32,0,0,0,.14,0l.27,0ZM12,19.79a.21.21,0,0,0,.22-.11l-.07-.08a.19.19,0,0,0-.12.21.26.26,0,0,0-.23.12l.08.08a.2.2,0,0,0,.12-.22m2-1.11a.19.19,0,0,0,.22-.12l-.08-.08a.2.2,0,0,0-.12.22.2.2,0,0,0-.22.12.6.6,0,0,0,.08.08.2.2,0,0,0,.12-.22m9.19-.28a.2.2,0,0,0,.22-.12l-.08-.08a.2.2,0,0,0-.11.22.21.21,0,0,0-.23.12l.08.08a.21.21,0,0,0,.12-.22m-2.51,0a.2.2,0,0,0,.22-.12l-.07-.08a.21.21,0,0,0-.12.22.24.24,0,0,0-.22.12l.08.07a.19.19,0,0,0,.11-.21m-12-.84a.22.22,0,0,0,.22-.11l-.08-.08a.2.2,0,0,0-.12.22c-.19,0-.25.08-.28.28a1.28,1.28,0,0,0-.39,0l-.1.1a.43.43,0,0,0,.1.09.25.25,0,0,0,.25,0,.27.27,0,0,0,.12-.22.24.24,0,0,0,.2-.08.28.28,0,0,0,.08-.2M10,11.71a.19.19,0,0,0,.13.22l.08-.08a.2.2,0,0,0-.22-.12.19.19,0,0,0-.13-.22l-.08.08a.18.18,0,0,0,.22.12M9.19,9.2a.22.22,0,0,0,.22-.11L9.33,9a.19.19,0,0,0-.12.21A.21.21,0,0,0,9,9.34l.09.09a.21.21,0,0,0,.12-.23M7.53,7.25a.19.19,0,0,0,.13.22l.08-.08a.21.21,0,0,0-.22-.12.19.19,0,0,0-.13-.22.6.6,0,0,1-.08.08.18.18,0,0,0,.22.12m0-1.67a.21.21,0,0,0,.13.23l.08-.09a.2.2,0,0,0-.22-.12.21.21,0,0,0-.12-.21l-.08.07a.19.19,0,0,0,.21.12M20.89,24a.21.21,0,0,0-.12-.22l-.07.08a.21.21,0,0,0,.22.11.25.25,0,0,0,.12.23.27.27,0,0,0,.26,0s.06-.06.09-.09a.23.23,0,0,0-.22-.13h-.28m-.81-5a.18.18,0,0,0,.11.22l.08-.08a.19.19,0,0,0-.21-.12.27.27,0,0,0-.37-.24.43.43,0,0,0-.1.09.23.23,0,0,0,.22.13,2.43,2.43,0,0,1,.27,0m-7.82-5.28a.21.21,0,0,0-.13-.21l-.08.08a.19.19,0,0,0,.22.11,1.33,1.33,0,0,0,0,.4l.1.09s.07-.05.09-.09a.31.31,0,0,0,0-.25.24.24,0,0,0-.21-.13m-.56-1.41h.24c.19,0,.26-.06.32-.28a.81.81,0,0,0,.41,0c.09,0,.12-.12.13-.22a.26.26,0,0,0-.11-.23.45.45,0,0,0-.12.06.6.6,0,0,0-.3.44.52.52,0,0,1-.23-.1c-.22-.17-.31-.14-.32.12v.26a.5.5,0,0,0-.13,0,.26.26,0,0,0-.12.33.3.3,0,0,0,.32.16c.12,0,.14-.1.09-.19a.9.9,0,0,1-.18-.35M10.6,9.2a.24.24,0,0,0,.12.22l.08-.08a.22.22,0,0,0-.22-.11.6.6,0,0,0-.29-.43.45.45,0,0,0-.12-.06.19.19,0,0,0-.1.21c0,.1,0,.18.13.21a1.09,1.09,0,0,0,.4,0m3.9,8.64a.2.2,0,0,0,.12.22L14.7,18a.2.2,0,0,0-.22-.13.58.58,0,0,0-.29-.42.47.47,0,0,0-.12-.07.2.2,0,0,0-.1.22.24.24,0,0,0,.13.22.91.91,0,0,0,.4,0M10.86,19a.2.2,0,0,0-.12-.22.6.6,0,0,0-.08.08.24.24,0,0,0,.22.12.27.27,0,0,0,.13.22.54.54,0,0,0,.25.06.67.67,0,0,0,.26,0l.11-.08s-.07-.07-.11-.08a2.08,2.08,0,0,0-.66-.05m7.27,1.39-.13,0a.27.27,0,0,0-.12.32.33.33,0,0,0,.32.15c.11,0,.14-.1.08-.19a.91.91,0,0,1-.17-.34,1.08,1.08,0,0,0,.4,0s.07-.07.1-.1-.06-.08-.1-.09a.25.25,0,0,0-.25,0,.22.22,0,0,0-.13.22m1.09-5.57a.2.2,0,0,0-.12-.23l-.08.09a.2.2,0,0,0,.22.12V15a.32.32,0,0,0,.31.32h.24a.33.33,0,0,1-.27.27,2.73,2.73,0,0,1-.4.05l-.36.21-.13.05a.31.31,0,0,0-.22.3,1.89,1.89,0,0,0,0,.41c0,.21.08.3.31.39a.36.36,0,0,1,.25.28.27.27,0,0,0-.22.13.28.28,0,0,0,0,.25s.06.07.09.1a.21.21,0,0,0,.12-.22v-.27a.27.27,0,0,0,.23-.13.28.28,0,0,0,0-.12c0-.14,0-.28,0-.42a.59.59,0,0,1,.2-.49.6.6,0,0,1,.34-.22.87.87,0,0,0,.35-.2.53.53,0,0,0,.16-.23.27.27,0,0,0-.22-.13h-.27c0-.08,0-.16,0-.25s-.11-.28-.31-.3a2.08,2.08,0,0,0-.25,0M9.49,18.42c-.21,0-.31.17-.43.29A.38.38,0,0,0,9,19a.57.57,0,0,0,0,.13c0,.11.12.12.22,0l.18-.19a.58.58,0,0,0,.1-.38.66.66,0,0,0,0-.14.21.21,0,0,0,.22-.12l-.09-.07a.17.17,0,0,0-.11.21M15.62,17a3.62,3.62,0,0,0-.57,0,.27.27,0,0,0-.13-.22.28.28,0,0,0-.13,0h-.27a.31.31,0,0,0-.23.12.26.26,0,0,0,.22.13h.55a.82.82,0,0,0,0,.41.14.14,0,0,0,.09.09.39.39,0,0,0,.26,0c.1,0,.12-.13.13-.23a2.44,2.44,0,0,0,0-.27,1.09,1.09,0,0,0,.4,0,.22.22,0,0,0,.13-.21.19.19,0,0,0-.1-.22.45.45,0,0,0-.12.06c-.14.12-.28.23-.29.43M14,16.19h-.14c-.31,0-.48.17-.64.39a.42.42,0,0,0,0,.12.57.57,0,0,0,0,.13c0,.11.11.12.21.06a1.42,1.42,0,0,1,.35-.17c.19-.07.21-.12.23-.28a1.22,1.22,0,0,0,0-.27.19.19,0,0,0,.21-.11L14.07,16a.19.19,0,0,0-.12.21m0-4.48h.82l.13,0c.12,0,.13-.11,0-.21a.71.71,0,0,0-.58-.31.59.59,0,0,0-.26.07.21.21,0,0,0-.12.23c0,.09,0,.18,0,.27a.18.18,0,0,0-.2.09c0,.08,0,.13.09.09s.09-.11.09-.2m3.92,3.9a.2.2,0,0,0,.12.22l.08-.08a.24.24,0,0,0-.22-.12.32.32,0,0,0-.26-.27l-.27,0a.48.48,0,0,1-.25-.09c-.19-.11-.19-.12-.36,0s-.26.09-.37.17,0,.06-.06.09.06.08.1.09l.27,0a.41.41,0,0,1,.34.19.48.48,0,0,0,.11.25c.06.05.14,0,.22,0l.3-.28a.39.39,0,0,1,.25-.12m-2.53-.55a.33.33,0,0,0,.29-.25c.09-.25.1-.26.26-.16s.17.08.24,0l.11-.08.29-.3a.3.3,0,0,0,.11-.23.26.26,0,0,0-.25-.1.57.57,0,0,1-.13,0c-.23,0-.32-.14-.37-.34s-.11-.14-.17-.09a.28.28,0,0,0-.08.11c0,.14,0,.28,0,.42a2.86,2.86,0,0,1-.35.43c-.12.13-.12.18,0,.35a.52.52,0,0,1,.11.25.82.82,0,0,0-.27,0,.58.58,0,0,0-.14,0,.23.23,0,0,0-.12.22c0,.11,0,.19.11.23a.33.33,0,0,0,.26,0,.22.22,0,0,0,.13-.23,1.22,1.22,0,0,0,0-.27M7.24,13.94l.55,0a.42.42,0,0,1,.25.1c.17.11.32.12.32-.2a2.8,2.8,0,0,1,0-.41.51.51,0,0,0-.17-.36A.87.87,0,0,0,8,12.92l-.12-.06c-.21,0-.29-.2-.36-.37a.3.3,0,0,0-.45-.13l-.11.08-.3.28c-.11.09-.26.1-.36.19s0,.06,0,.09l.1.09.55,0a.48.48,0,0,1,.26.06,1.12,1.12,0,0,0,.63.22.27.27,0,0,1,.22.13.28.28,0,0,1-.23.12l-.27,0-.13.05a.22.22,0,0,0-.11.23.2.2,0,0,0-.22.12l.07.09a.24.24,0,0,0,.13-.23M4.73,3.37a.26.26,0,0,0-.12-.23l-.13-.05a1.4,1.4,0,0,1-.41,0C4,3,3.91,3,3.83,2.91a.16.16,0,0,0-.12,0,.71.71,0,0,0-.36.55A.55.55,0,0,0,3.53,4a.5.5,0,0,0,.22.16A.36.36,0,0,0,4,4a.93.93,0,0,0,.23-.35c.07-.22.08-.22.27-.26l.28,0a.37.37,0,0,0,.1.25c.12.17.12.18,0,.36s-.1.36-.28.46l-.41.08L4,4.56l-.1.1a.77.77,0,0,0,.1.66l.1.1.09.1a.82.82,0,0,1,.16.22L4.26,6a.78.78,0,0,0,0,.54l.1.1a.42.42,0,0,0,.25.09A3,3,0,0,0,5,6.7a.86.86,0,0,1,.65.17c.1,0,.16,0,.19-.09a.32.32,0,0,0-.19-.33c-.51-.08-.51-.08-.73-.31A.47.47,0,0,1,4.83,6,.22.22,0,0,1,5,5.88l.27,0a.26.26,0,0,0,.23-.14.34.34,0,0,0,0-.26,1.3,1.3,0,0,0-.15-.23c-.1-.15-.1-.32,0-.37s.15,0,.24.07A.34.34,0,0,0,6,5l.1-.1a.81.81,0,0,0,0-.41c-.05-.13-.09-.17-.3-.25A1.12,1.12,0,0,1,5.48,4c-.11-.11-.12-.14,0-.35a.28.28,0,0,0,0-.12.58.58,0,0,0-.28-.3A.2.2,0,0,0,5,3.26a.38.38,0,0,1-.25.11M4,21.19c.3,0,.35-.05.44-.25s.09-.2.27-.28.27-.13.16-.27-.25-.25-.32-.22l-.25.12c-.12-.08-.14-.23-.2-.34a.2.2,0,0,0-.24-.11.31.31,0,0,0-.21.15.3.3,0,0,0,0,.13.63.63,0,0,0,.12.52.18.18,0,0,1,0,.25c-.08.08-.09.17,0,.22a.28.28,0,0,0,.25.08M5.31,8.75c0,.3,0,.33.18.5l.39.39a.67.67,0,0,0,.38.13.86.86,0,0,0,.27,0,.92.92,0,0,0,.39-.37.29.29,0,0,0,0-.26c0-.09-.13-.08-.22,0l-.31.27c-.08.08-.15.07-.24,0a2.47,2.47,0,0,1-.48-.49.35.35,0,0,1-.07-.12.61.61,0,0,1,0-.13c0-.11-.11-.15-.17-.1a.21.21,0,0,0-.08.24m5.75,2.86a.39.39,0,0,1-.06.13c-.09.1-.08.17.05.22a.31.31,0,0,0,.34-.16,1.76,1.76,0,0,1,.17-.37l.08-.12a.69.69,0,0,0-.16-.22l-.29-.3a.22.22,0,0,0-.35,0,2.46,2.46,0,0,0-.39.4.45.45,0,0,0-.06.12.27.27,0,0,0,.22.13l.27,0q.16,0,.18.15M3.62,4.93a.64.64,0,0,0-.06-.3c-.05-.1-.11-.1-.2,0a1,1,0,0,0-.31.44c-.06.15-.07.16-.29.26a.47.47,0,0,0-.2.17.42.42,0,0,0,.09.37l.09.1c.15.13.25.13.3,0a1.14,1.14,0,0,1,.28-.46.81.81,0,0,0,.09-.1.69.69,0,0,0,.21-.45M6.05,21.59A.45.45,0,0,0,6,21.47a1,1,0,0,0-.32-.24.34.34,0,0,0-.34.16.69.69,0,0,0,0,.13,1.29,1.29,0,0,1-.22.63.29.29,0,0,0,0,.26c0,.12.1.12.2.05a2.09,2.09,0,0,1,.37-.17c.15-.05.15-.09.07-.29a.56.56,0,0,1,0-.12.48.48,0,0,1,.23-.13.18.18,0,0,0,.16-.16M7,12l.28,0a.26.26,0,0,0,.25-.26c0-.05,0-.09,0-.14s-.08-.35-.15-.32a.31.31,0,0,0-.14.23c0,.12-.1.16-.17.11S7,11.53,7,11.5a.35.35,0,0,0-.12-.24.33.33,0,0,0-.23.11l-.09.1a.24.24,0,0,0-.09.24.42.42,0,0,0,0,.13.27.27,0,0,0,.23.14L7,12m1.2-4.37A.68.68,0,0,0,8,7.8c-.11.13-.09.22.08.3s.24.1.3.25a.46.46,0,0,0,.55.3.32.32,0,0,0,.23-.13.44.44,0,0,0-.23-.15c-.19-.08-.19-.08-.26-.29a.78.78,0,0,0-.34-.42.42.42,0,0,0-.12,0m1.76,7.63a1.47,1.47,0,0,1,.49-.23l.1-.1s-.07-.08-.11-.09a2.48,2.48,0,0,1-.37-.17c-.15-.11-.16-.11-.36,0s-.36.07-.53.12a.21.21,0,0,0-.11.07c0,.07,0,.13.12.17a1.18,1.18,0,0,0,.27,0c.15,0,.25.1.38.16l.12,0m-.61-5.21H9l-.13,0a.27.27,0,0,0-.22.15.33.33,0,0,0,0,.14.22.22,0,0,0,.28.21.55.55,0,0,0,.24-.12.77.77,0,0,1,.38-.14H10a.36.36,0,0,0,.23-.13.32.32,0,0,0-.23-.13c-.18,0-.37,0-.68,0m1.29,3.06-.28,0a.52.52,0,0,0-.36.19.42.42,0,0,0-.15.22c0,.06.21.15.36.14a.5.5,0,0,0,.27-.07l.24-.13.12,0c.23.08.27.07.29-.08a.25.25,0,0,0-.22-.29l-.27,0M5.2,7.74a3.13,3.13,0,0,1,.48-.25s.06-.07.08-.1-.06-.08-.1-.09a1.33,1.33,0,0,0-.4,0,.72.72,0,0,1-.51-.14c-.1-.07-.18-.08-.22,0a.29.29,0,0,0,0,.26.18.18,0,0,0,.1.09c.16.08.33.15.49.24a.35.35,0,0,0,.11,0M3.1,6.42a2.32,2.32,0,0,0-.31,0,.18.18,0,0,0-.12,0c-.09,0-.09.12,0,.2A.66.66,0,0,0,3.24,7c.1,0,.33-.1.34-.17a.39.39,0,0,0,0-.26.9.9,0,0,0-.1-.09l-.35,0m6.84,6.22a1.92,1.92,0,0,0-.18-.22c-.11-.11-.21-.07-.28.1s-.19.29-.37.35-.13.11-.06.2.26.27.3.25a.62.62,0,0,0,.22-.17,2.34,2.34,0,0,0,.37-.4.41.41,0,0,0,0-.11M6.58,5.31a1.15,1.15,0,0,0-.26,0,.29.29,0,0,0-.16.2.28.28,0,0,0,.06.25.69.69,0,0,0,.29.27.42.42,0,0,0,.12,0,.55.55,0,0,0,.2-.17.41.41,0,0,0,.1-.38c0-.08-.23-.17-.35-.17M19.22,18.42l.37,0a.38.38,0,0,0,.15-.21.2.2,0,0,0-.09-.24.46.46,0,0,0-.26,0,2,2,0,0,1-.48.26c-.11,0-.15.1-.11.16a.18.18,0,0,0,.11.08,2.32,2.32,0,0,0,.31,0M6.75,7.81l-.4,0-.1.08s0,.08,0,.1a.26.26,0,0,0,.11.07,1.49,1.49,0,0,1,.48.26.44.44,0,0,0,.26,0,.2.2,0,0,0,.07-.24A.25.25,0,0,0,7,7.86a2.18,2.18,0,0,0-.29-.05m5.9,3.36a1.15,1.15,0,0,0,.26,0,.24.24,0,0,0,.15-.19.23.23,0,0,0-.07-.24.27.27,0,0,0-.35,0l-.11.08c-.16.15-.2.24-.13.31a.36.36,0,0,0,.25.08m5,3.33a.62.62,0,0,0,.27,0c.09,0,.16-.08.16-.16a.23.23,0,0,0-.06-.12,1.23,1.23,0,0,0-.31-.24.41.41,0,0,0-.25.06.2.2,0,0,0-.08.23c0,.15.1.22.27.23m-.28,3.39a.2.2,0,0,0-.23.08.36.36,0,0,0,0,.11.65.65,0,0,0,.17.2.4.4,0,0,0,.36.1c.11,0,.13-.11.07-.19a.66.66,0,0,0-.41-.3M22,17.33c-.11,0-.18.05-.17.13a.31.31,0,0,0,.05.12,1.22,1.22,0,0,0,.3.26.35.35,0,0,0,.25-.05s0-.06.06-.09a.41.41,0,0,0-.15-.21c-.11-.08-.2-.19-.34-.16M8.54,6.52c0-.08-.14-.21-.28-.3a.39.39,0,0,0-.26,0c-.14,0-.15.11-.06.22a1.34,1.34,0,0,0,.31.27.34.34,0,0,0,.26,0,.38.38,0,0,0,0-.1m4.74,13.56a2.13,2.13,0,0,0-.25,0c-.11,0-.14.1-.1.18s.2.25.28.26a.29.29,0,0,0,.21-.1.32.32,0,0,0,.15-.21c0-.09-.13-.17-.29-.16M9.22,14.47a.27.27,0,0,0,.22-.13.57.57,0,0,0,0-.13c0-.18-.08-.23-.26-.22s-.23.08-.2.26.09.24.25.22m8.3,7.87c0-.15,0-.23-.21-.26s-.24,0-.26.2,0,.24.2.26.23,0,.27-.2m-4.61-9.23.27,0a.34.34,0,0,0,.18-.34c0-.11-.11-.13-.21-.08a1.52,1.52,0,0,1-.36.18c-.11,0-.16.1-.12.17a.22.22,0,0,0,.24.09m4.46,10.31a.48.48,0,0,0,.27,0l.11-.08a.43.43,0,0,0-.1-.09.49.49,0,0,0-.27-.05c-.18,0-.32.09-.25.17a.23.23,0,0,0,.24.09m-1-.05c0-.12-.22-.23-.32-.19s-.08.05-.12.08a.39.39,0,0,0,.13.23.45.45,0,0,0,.23.13.21.21,0,0,0,.08-.25m-10-2.76a.3.3,0,0,0-.13-.21.42.42,0,0,0-.25,0s-.07.06-.07.09.28.36.36.32a.18.18,0,0,0,.09-.22m11.23-1a.29.29,0,0,0-.13,0,.23.23,0,0,0-.1.07c0,.06.06.21.17.3s.16.08.21,0a.49.49,0,0,0,0-.11.22.22,0,0,0-.19-.27m-3.32-.05a2.28,2.28,0,0,0,.26,0,.17.17,0,0,0,.09-.08c0-.05,0-.12-.1-.15a2.11,2.11,0,0,0-.26,0,.23.23,0,0,0-.22.09c-.05.09.06.18.23.18M12.51,19a.2.2,0,0,0-.09-.22.31.31,0,0,0-.23-.05s-.08,0-.11.07.06.2.18.3.16.08.21,0a.36.36,0,0,0,0-.11m.28-.85a.17.17,0,0,0-.09-.22.33.33,0,0,0-.24,0,.18.18,0,0,0-.11.08c0,.07.2.36.31.36a.31.31,0,0,0,.09-.07.36.36,0,0,0,0-.11m-2-.58a.23.23,0,0,0-.13-.22.24.24,0,0,0-.26,0c0,.06,0,.14.06.22a.55.55,0,0,0,.22.17c.08,0,.12-.09.11-.2m6-.57h.26a.17.17,0,0,0,.09-.08c0-.06,0-.12-.11-.15a2.09,2.09,0,0,0-.25,0,.22.22,0,0,0-.23.09c-.05.08.07.16.24.16m3.51-.25a.22.22,0,0,0-.09-.23l-.12.06a.39.39,0,0,0-.1.08.46.46,0,0,0-.14.22s.05.07.08.08a.31.31,0,0,0,.25,0,.2.2,0,0,0,.12-.21m2.54-.53a.18.18,0,0,0-.22.1.29.29,0,0,0,0,.24s.05.07.07.1.38-.24.36-.34-.09-.11-.19-.1M6.94,6.73a.57.57,0,0,0,0-.13.32.32,0,0,0-.21-.13.19.19,0,0,0-.23.07.42.42,0,0,0,.11.22l.1.09.11.06a.2.2,0,0,0,.13-.18m14.21,8.89A.21.21,0,0,0,21,15.4a.36.36,0,0,0-.25,0s-.07,0-.1.07.26.38.35.36a.17.17,0,0,0,.11-.2M9.73,7.18c0-.1-.1-.13-.19-.08a.7.7,0,0,0-.19.16c-.07.08-.08.15,0,.2a.15.15,0,0,0,.11,0,.2.2,0,0,0,.22-.08.4.4,0,0,0,.07-.24m4.73,1.17a.24.24,0,0,0-.38-.18.12.12,0,0,0-.06.08c0,.11.27.35.36.31a.15.15,0,0,0,.08-.21m.76,4.6-.08-.1a.34.34,0,0,0-.24.06c-.07.06-.06.13,0,.18a.26.26,0,0,0,.24-.05s0-.06,0-.09m10.58.89.09-.08a.26.26,0,0,0-.05-.23c-.06-.07-.13-.06-.17.05a.24.24,0,0,0,0,.23s.05,0,.08,0m-15.21-1a.26.26,0,0,0,.21-.1.23.23,0,0,0-.2-.13.23.23,0,0,0-.21.11.21.21,0,0,0,.2.12M8.33,12a.42.42,0,0,0,0-.12s-.06-.05-.09-.07a.15.15,0,0,0-.09.22.6.6,0,0,0,.06.11c.09,0,.13,0,.15-.14M19,13.93a.22.22,0,0,0,.2-.11A.21.21,0,0,0,19,13.7a.2.2,0,0,0-.2.11.19.19,0,0,0,.19.12M9.4,11.31a.21.21,0,0,0-.19-.12.25.25,0,0,0-.21.1.22.22,0,0,0,.2.12.19.19,0,0,0,.2-.1M7.69,10.16l-.08-.09a.27.27,0,0,0-.22,0c-.07.06-.06.13.05.18a.22.22,0,0,0,.22-.05.14.14,0,0,0,0-.09M20.9,7a.25.25,0,0,0,.21-.11.21.21,0,0,0-.2-.11.26.26,0,0,0-.21.1.2.2,0,0,0,.2.12M8.18,5.42a.25.25,0,0,0,0,.09.22.22,0,0,0,.23.06c.1-.05.12-.12.06-.17a.21.21,0,0,0-.23-.05s-.06.05-.1.07m.6-.86a.18.18,0,0,0-.11.19.26.26,0,0,0,.1.21.22.22,0,0,0,.12-.2.19.19,0,0,0-.11-.2M8.33,16.18a.26.26,0,0,0-.1-.21.25.25,0,0,0-.12.2.18.18,0,0,0,.11.2.19.19,0,0,0,.11-.19m1.93,0c.05,0,.1,0,.13,0s.07,0,.1-.08,0-.12-.14-.15a.2.2,0,0,0-.23.08.18.18,0,0,0,.14.16m-6.45-14a.23.23,0,0,0,0-.1A.2.2,0,0,0,3.54,2c-.12,0-.14.12-.08.18a.23.23,0,0,0,.24.05s.07-.05.11-.07m.62-.45a.22.22,0,0,0-.1-.21.22.22,0,0,0-.12.19.2.2,0,0,0,.1.21.21.21,0,0,0,.12-.19m-.94-.49a.2.2,0,0,0-.12.19.25.25,0,0,0,.11.22.23.23,0,0,0,.12-.2.19.19,0,0,0-.11-.21m8.67,15.63a.25.25,0,0,0-.09,0,.2.2,0,0,0-.06.22c0,.11.11.13.17.07a.21.21,0,0,0,.05-.23s-.05-.06-.07-.1M6,17.69s-.06-.07-.09-.08a.29.29,0,0,0-.23,0c-.08.06-.06.13,0,.17a.22.22,0,0,0,.22,0s0-.05,0-.09M2,18a.25.25,0,0,0,0,.09.2.2,0,0,0,.23.06c.11,0,.13-.12.07-.18a.29.29,0,0,0-.24-.05s-.07.05-.1.08m19.87.56-.08-.09a.3.3,0,0,0-.23.06c-.07.05-.06.12,0,.17a.24.24,0,0,0,.23-.05s0-.06,0-.09m-4.35.7a.23.23,0,0,0,.2-.1.21.21,0,0,0-.19-.12.23.23,0,0,0-.21.11.19.19,0,0,0,.2.11M6.05,23a.19.19,0,0,0-.19-.11.23.23,0,0,0-.2.1.22.22,0,0,0,.19.12.21.21,0,0,0,.2-.11m11.76,1a.26.26,0,0,0-.1-.21.25.25,0,0,0-.12.2.18.18,0,0,0,.1.2.2.2,0,0,0,.12-.19M4.67,2.68c0-.1-.08-.11-.15,0a.46.46,0,0,1,.07.07l.08-.06M7.47,3.8l-.08-.1-.09.08.08.09.09-.07M6.56,4l-.06.09h.1ZM8,4.63c0-.1-.09-.11-.15,0l.07.07L8,4.63m2.51,2c0-.12-.09-.12-.15,0l.07.08.08-.07m-8.08.83-.07-.08c-.11,0-.12.09,0,.14l.08-.06m1.11,0L3.5,7.33c-.1,0-.11.09,0,.15l.08-.07m24.17.06.06-.09h-.11Zm-6.68.15L21,7.71h.1Zm-10.79.62-.07-.07c-.11,0-.12.08,0,.14l.08-.07m2.35.27.09.06v-.1Zm-8.28.76-.09.07c0,.11.1.12.16,0l-.07-.08m11.42.29-.08.06c0,.11.09.12.15,0l-.07-.08m-1.11.27-.08.07c0,.11.09.11.15,0l-.07-.08m-8,.65-.08-.1-.1.08.08.09.1-.07m-5,.27a.27.27,0,0,1-.07-.08c-.12,0-.12.09,0,.16l.09-.08m6,.07c.11,0,.11-.09,0-.15l-.08.07.06.08m1.21,1.61c0-.11-.1-.12-.16,0l.07.08.09-.07m6,.07c.12-.05.12-.1,0-.16l-.08.07.07.09m1.13.4L16,13c0,.12.09.12.15,0A.27.27,0,0,0,16,12.9m-1.19.91.09.06,0-.11Zm-7.66.85c0-.12-.09-.12-.14,0a.27.27,0,0,0,.07.08l.07-.06m4.19,0a.27.27,0,0,1-.07-.08c-.12,0-.12.09,0,.15l.09-.07m7,.29c0-.11-.09-.11-.15,0a.27.27,0,0,0,.07.08l.08-.06m-2.5.83-.07-.09c-.12.05-.12.1,0,.16l.08-.07m7.8,0-.07-.08c-.11,0-.11.09,0,.14l.08-.06m-8.45.63c.11,0,.11-.1,0-.16l-.08.07.07.09m2.8.13-.08.06c0,.1.09.11.15,0a.46.46,0,0,0-.07-.07m-11.15.54-.08.08c0,.12.1.12.16,0l-.08-.09m2.51.3-.07.06c0,.1.08.11.14,0l-.07-.07m10.4.07-.08-.08c-.11,0-.12.09,0,.15l.09-.07m-6.43.28c0-.1-.08-.11-.14,0a.46.46,0,0,0,.07.07l.07-.06m-3.14.34c.11,0,.11-.08,0-.14L10.1,18l.07.07m-3.82.22-.06-.08c-.11,0-.12.09,0,.15l.08-.07m9.76,0L16,18.19c-.12,0-.12.1,0,.16a.6.6,0,0,1,.08-.08m-1.49.35c.1,0,.11-.08,0-.14l-.08.06Zm-13.29.49L1.27,19c-.11,0-.12.09,0,.15l.08-.07m15.33,0L16.6,19c-.11,0-.11.09,0,.15a.27.27,0,0,0,.08-.07M21.05,19l-.06.09h.1ZM7.19,19.4c-.05-.12-.1-.12-.16,0l.07.08.09-.07m-4.83.34c.11,0,.12-.09,0-.15l-.08.07.07.08m10.4-.07-.07-.08c-.11,0-.11.09,0,.14l.08-.06m-5.86.56c0-.1-.09-.11-.15,0a.46.46,0,0,1,.07.07.24.24,0,0,0,.08-.06m-2,.9c.11,0,.11-.09,0-.15l-.08.07.07.08m14.85-.06c0-.1-.08-.11-.14,0l.07.07.07-.06m.76.06.06-.09h-.11Zm-18.12.28.06-.1h-.1Zm4.2-.15a.27.27,0,0,0-.08.07c0,.11.09.12.15,0l-.07-.08m10.85.14.06-.09h-.1Zm1.39,0c.11,0,.12-.08,0-.14l-.08.07.06.07m-5.63.2.09.06v-.1Zm-8.78.3c0-.11-.08-.11-.15,0l.07.08.08-.06m3.07.55c0-.11-.09-.11-.15,0a.46.46,0,0,1,.07.07l.08-.06M21.12,23c0-.11-.09-.12-.15,0l.07.08.08-.07m3.54.06.06-.09h-.1Zm-19.57.48.09.06v-.1Zm12.13.58c0-.1-.09-.11-.15,0l.07.08.08-.06m7.52.27-.1-.06v.1Zm-8.51,1.1.1.06v-.1Zm3.35.56.09.06,0-.1ZM3.09,16.2c0,.1.08.15.15.15l.09-.11c0-.45,0-.45.15-.64s.08-.17,0-.21a.29.29,0,0,0-.13,0,.28.28,0,0,0-.21.14,1.38,1.38,0,0,0,0,.4,2.53,2.53,0,0,0,0,.28M1.15,13.4c0,.21.14.3.28.41a.41.41,0,0,0,.11.07.34.34,0,0,0,.11-.23.76.76,0,0,0,0-.26c-.06-.2-.13-.26-.26-.23s-.22.05-.23.24M5,15.07a5.42,5.42,0,0,0,0-.57l0,0a.51.51,0,0,1-.24-.1.3.3,0,0,0-.22-.1c-.09,0-.1.24,0,.35A1,1,0,0,0,4.9,15s.08,0,.12,0Zm-.54-4.19c0,.2.16.31.29.43a.33.33,0,0,0,.24.1.3.3,0,0,0,.13,0c.11,0,.11-.11,0-.21a1.3,1.3,0,0,0-.31-.26l-.26,0H4.45Zm.28,1.69a1,1,0,0,1-.62-.17l-.11,0a.18.18,0,0,0-.08.23.24.24,0,0,0,.15.19,1.09,1.09,0,0,0,.26,0,.45.45,0,0,0,.25-.07.33.33,0,0,0,.13-.21ZM3.62,10.34v-.26c0-.26-.11-.28-.33-.12a.67.67,0,0,1-.23.1v0c.05.21.13.28.32.29h.24Zm.29,1.09a.63.63,0,0,0,.29.43.67.67,0,0,0,.12.06.2.2,0,0,0,.11-.22c0-.09,0-.18-.14-.21a1.07,1.07,0,0,0-.4,0Zm-.25,2.76a.24.24,0,0,0,.1.24s.08,0,.1-.09a.23.23,0,0,0,0-.25s-.07,0-.1,0a.67.67,0,0,0-.06.12M27.6,10.32c0,.19.08.25.28.28l0,0a.21.21,0,0,0-.08-.2.28.28,0,0,0-.2-.08ZM3.13,12.4c0,.11.09.12.15,0a.27.27,0,0,0-.07-.08l-.08.06m2.18.15a.2.2,0,0,0,.12.21l.07-.08a.22.22,0,0,0-.22-.11ZM4,13.18,4,13.25l.06.08c.1,0,.11-.09,0-.15M1.66,16.45a.2.2,0,0,0,.22-.12l-.08-.08a.24.24,0,0,0-.12.22ZM.48,18.25H.39l0,.1Zm13,10.91h.11l0-.09Zm7-15,.11-.08s-.06-.07-.1-.09a.51.51,0,0,0-.37,0,.33.33,0,0,0-.21.12.27.27,0,0,0,.2.12.58.58,0,0,0,.37,0m0-1.25a.21.21,0,0,0-.22-.06c-.11,0-.13.11-.07.17a.23.23,0,0,0,.23,0s.06,0,.1-.07,0-.06,0-.08m2.85-3.29a.25.25,0,0,0-.2-.12.23.23,0,0,0-.21.11.2.2,0,0,0,.19.11.27.27,0,0,0,.22-.1M22,9.52a.23.23,0,0,0-.21.1.2.2,0,0,0,.19.12.2.2,0,0,0,.21-.1A.21.21,0,0,0,22,9.52M20.2,9.4a.21.21,0,0,0,.22.06c.11,0,.13-.11.07-.17a.23.23,0,0,0-.23,0s-.06,0-.09.07,0,.07,0,.09M21.88,9l-.08.07.07.08c.11,0,.11-.09,0-.15m4.86,1.88a.23.23,0,0,0,.22-.12l-.08-.08a.22.22,0,0,0-.11.22ZM16.87,11c-.11,0-.12.09,0,.15l.08-.07L16.87,11M24.8,13.4a.19.19,0,0,0-.12-.21l-.09.08a.21.21,0,0,0,.22.12Zm-2.71.13.07.08.07-.06c0-.11-.08-.12-.14,0m.83,0,.07.07.08-.06c0-.11-.09-.11-.15,0m1.32.7a.35.35,0,0,0,.3-.3.34.34,0,0,0-.3.3M4.8,5.17c0,.11.1.11.16,0L4.88,5.1l-.08.07M6.13,19.53a.33.33,0,0,0,.29-.29.32.32,0,0,0-.29.29"/></g></g></svg>