<svg xmlns="http://www.w3.org/2000/svg" viewBox="0 0 29.17 28.65"><defs><style>.cls-1{fill:#aada91;}</style></defs><g id="Layer_2" data-name="Layer 2"><g id="Layer_1-2" data-name="Layer 1"><path class="cls-1" d="M29,6.16V11c0,.28,0,.56,0,.84a.86.86,0,0,0,.13.38.53.53,0,0,1,0,.53.68.68,0,0,0-.13.39c0,.14,0,.28,0,.42a.67.67,0,0,0,.09.26c.09.18.09.18,0,.37a.85.85,0,0,0-.1.4c0,.56,0,1.12,0,1.67,0,.13,0,.13.13.39a.51.51,0,0,1,0,.52.8.8,0,0,0-.14.39c0,.14,0,.28,0,.42v3.06c0,1.21,0,2.42,0,3.62,0,.19,0,.37,0,.56a.58.58,0,0,1-.24.47c-.11.11-.22.09-.35,0a1.21,1.21,0,0,1-.27-.48.24.24,0,0,0-.1-.1.42.42,0,0,0-.27,0,.26.26,0,0,0-.11.07.23.23,0,0,1-.35,0,3.59,3.59,0,0,0-.6-.57.32.32,0,0,0-.27-.05,1.41,1.41,0,0,0-.24.13.35.35,0,0,1-.38,0,.26.26,0,0,1-.14-.23c-.08-.18-.12-.2-.29-.09a.42.42,0,0,1-.51,0,.56.56,0,0,0-.24-.13.33.33,0,0,0-.26.05,1,1,0,0,0-.35.42.33.33,0,0,1-.14.24.62.62,0,0,1-.24-.1.3.3,0,0,0-.39,0,.79.79,0,0,1-.51.17h-.28a.79.79,0,0,0-.39.13.71.71,0,0,1-.52.15H21.2a.53.53,0,0,0-.36.17,3,3,0,0,0-.4.39,4.68,4.68,0,0,0-.57.61c-.06.09,0,.16.09.19a3.3,3.3,0,0,1,.78.27.61.61,0,0,0,.13,0l.28,0c.11,0,.17.08.17.15a.29.29,0,0,1-.07.12.6.6,0,0,1-.21.18,2.34,2.34,0,0,0-.5.25.59.59,0,0,1-.39.1l-.83,0a.77.77,0,0,1-.4-.11c-.15-.11-.34-.14-.5-.24a1,1,0,0,0-.52-.17l-.28,0a.72.72,0,0,1-.38-.13.94.94,0,0,0-.4-.13,1.1,1.1,0,0,1-.39-.12c-.24-.15-.52-.21-.75-.37a.56.56,0,0,0-.26-.07.79.79,0,0,1-.5-.22L14.72,26a.72.72,0,0,0-.24-.14,4.52,4.52,0,0,1-.49-.25,2.59,2.59,0,0,1-.38-.17,1.59,1.59,0,0,0-.37-.18c-.13-.06-.24-.16-.36-.21a2.64,2.64,0,0,1-.38-.18c-.15-.11-.34-.14-.5-.24l-.36-.2c-.17-.07-.33-.18-.5-.25a.8.8,0,0,1-.24-.13l-.51-.47a1.29,1.29,0,0,0-.48-.28c-.07-.06-.16-.1-.22-.16-.27-.27-.53-.53-.8-.78C8.45,22,8,21.53,7.62,21.1a.8.8,0,0,1-.13-.24.82.82,0,0,0-.23-.35L5.5,18.73a.93.93,0,0,1-.23-.35.56.56,0,0,0-.13-.24c-.09-.1-.18-.21-.28-.31-.29-.3-.58-.6-.85-.92a.44.44,0,0,1-.08-.11,1.44,1.44,0,0,0-.28-.48,1.48,1.48,0,0,1-.37-.58A2.76,2.76,0,0,1,3,15.13a1.75,1.75,0,0,1-.23-.5c-.17-.22-.24-.5-.39-.74a1.17,1.17,0,0,1-.16-.52.58.58,0,0,0-.09-.26.87.87,0,0,1-.14-.39,1.07,1.07,0,0,0-.17-.52.8.8,0,0,1-.11-.4c0-.18,0-.37,0-.55a.92.92,0,0,0-.11-.4.75.75,0,0,1-.15-.38,1.31,1.31,0,0,0,0-.28,2.66,2.66,0,0,0,0-.28,1.41,1.41,0,0,0-.13-.24.48.48,0,0,1-.09-.26l0-.69A.72.72,0,0,0,1,8.33.88.88,0,0,1,.8,7.94a.91.91,0,0,0-.18-.52.73.73,0,0,1-.09-.26,1.21,1.21,0,0,0-.16-.52.91.91,0,0,1-.1-.4c0-1,0-2-.05-3.06a.79.79,0,0,0-.1-.4A.83.83,0,0,1,0,2.38a5.45,5.45,0,0,1,0-.7.5.5,0,0,1,.08-.26,1.59,1.59,0,0,0,.18-.37.5.5,0,0,1,0-.13C.36.84.41.76.45.67A2.44,2.44,0,0,1,.35.43C.33.35.39.29.5.27a3,3,0,0,1,.42,0h.84a.78.78,0,0,0,.39-.1A1,1,0,0,1,2.69,0h.42a.89.89,0,0,1,.53.13A.65.65,0,0,0,3.9.21c.42,0,.84,0,1.26,0A1,1,0,0,0,5.55.1a.53.53,0,0,1,.53,0,1,1,0,0,0,.39.12l2.79,0h2.09c.55,0,1.11,0,1.67,0s.83,0,1.25,0a1.17,1.17,0,0,1,.27,0,1.19,1.19,0,0,1,.25.13.5.5,0,0,0,.26.08c.19,0,.37,0,.56,0,1.3,0,2.6,0,3.9,0h2.08c.65,0,1.3,0,1.95,0a.63.63,0,0,0,.4-.12.76.76,0,0,1,.39-.12,7.61,7.61,0,0,1,.83,0c.93,0,1.86,0,2.79,0a.79.79,0,0,1,.39.11c.16.1.16.09.37,0s.16,0,.18.09,0,.37,0,.56l0,2.78c0,.79,0,1.58,0,2.37m-13.38-4a.18.18,0,0,0-.22.12l.08.08a.2.2,0,0,0,.12-.22h.3a3.62,3.62,0,0,0,0,.57.19.19,0,0,0-.19.09s0,.07,0,.09a.19.19,0,0,0,.19.08.3.3,0,0,1-.25.27,2.36,2.36,0,0,1-.28,0c-.18,0-.24.07-.27.24a.57.57,0,0,1,0,.13,2.82,2.82,0,0,1,.27.48c0,.17.16.19.29.07a.86.86,0,0,0,.23-.33.62.62,0,0,1,.11-.25l.35-.42a.75.75,0,0,0,.07-.64.87.87,0,0,0-.27-.3.35.35,0,0,0-.25-.1.21.21,0,0,0-.09-.2.14.14,0,0,0-.09,0,.2.2,0,0,0-.08.2m1.06,2.19a.3.3,0,0,0-.13-.21h-.13c-.18,0-.23.08-.21.26s.07.23.25.2.24-.08.22-.25m-.27,2.55a.18.18,0,0,0-.1-.21l-.11,0A.52.52,0,0,0,16,7l-.07.11a.24.24,0,0,0,.22.1c.17,0,.23-.06.24-.23M16,5.15a.4.4,0,0,0-.18-.3c-.08-.08-.16-.08-.21,0a.21.21,0,0,0,0,.11c0,.19.13.3.32.27s.07,0,.11-.06m6.61,19.51c.05,0,.19-.05.3-.17s.08-.16,0-.21a.3.3,0,0,0-.1,0,.26.26,0,0,0-.28.32s.05.07.07.1m4.81-.61a.9.9,0,0,0-.09-.1.23.23,0,0,0-.14,0c-.12,0-.15.09-.09.16a.26.26,0,0,0,.12.05c.11,0,.18,0,.2-.12M18.22,3.2s.09-.06.1-.1a.19.19,0,0,0,0-.13c0-.12-.1-.15-.16-.08a.14.14,0,0,0-.05.11.16.16,0,0,0,.11.2m1.22.13c-.1,0-.15.06-.14.13a.14.14,0,0,0,.09.09.25.25,0,0,0,.22,0,.3.3,0,0,0,0-.08.17.17,0,0,0-.21-.09M15.18,4.81l-.08-.09a.3.3,0,0,0-.23,0c-.07.06,0,.13.06.17a.2.2,0,0,0,.22-.05s0,0,0-.08m2.87,2.68a.25.25,0,0,0-.11-.21.24.24,0,0,0-.12.2.18.18,0,0,0,.11.2.2.2,0,0,0,.12-.19m-1,1,.06-.09H17Zm.49-2.31.1.06v-.1Zm-3.83-1c.12,0,.13-.09,0-.16l-.09.08.08.08m7.61-.62-.1-.06v.1Zm-2.78-.28-.07-.08c-.11,0-.12.08,0,.15l.09-.07m7-.28c0-.11-.08-.12-.14,0l.06.08L25.53,4M7.91,17.59l-.06.09H8Zm18.65,6.27c.12,0,.12-.09,0-.15l-.09.07.07.08m-7.5,2.37-.06.09h.1Zm5,1,.28,0h.13a.29.29,0,0,0,.23-.13.31.31,0,0,0-.23-.12c-.46,0-.91,0-1.37,0a.58.58,0,0,1-.25-.09c-.14-.09-.22-.08-.36,0a.89.89,0,0,0-.16.22.32.32,0,0,0,.23.11,5.45,5.45,0,0,0,1,0h.51m2.61,1.25a.51.51,0,0,0,0-.25.2.2,0,0,0-.1-.08.57.57,0,0,0-.51,0s0,0-.07.08a.69.69,0,0,0,.25.31.24.24,0,0,0,.24.06.32.32,0,0,0,.21-.15m-1.56-3.32.07.08.08-.06c0-.11-.09-.12-.15,0m-3.24,2V27.1l-.1,0ZM16,2.93a.11.11,0,0,0,0-.08.27.27,0,0,0-.19-.11V3a.21.21,0,0,0,.19-.1"/></g></g></svg>