<svg xmlns="http://www.w3.org/2000/svg" viewBox="0 0 29.53 28.7"><defs><style>.cls-1{fill:#45c2b1;}</style></defs><g id="Layer_2" data-name="Layer 2"><g id="Layer_1-2" data-name="Layer 1"><path class="cls-1" d="M24.52,18.08a.45.45,0,0,0-.25.12c-.21.18-.37.42-.67.47-.12,0-.14.12-.07.19a.24.24,0,0,0,.11.06.34.34,0,0,1,.23.15.35.35,0,0,1-.23.14.29.29,0,0,0-.12.07c-.06,0-.06.14,0,.22s.07.18,0,.22l-.13,0a.77.77,0,0,1-.53-.13l-.12-.07a.39.39,0,0,0-.22.13l-.2.19c-.12.13-.24.07-.36,0s-.16,0-.18.1a.22.22,0,0,0,.08.25.26.26,0,0,0,.11.07c.24,0,.39.25.62.31a.27.27,0,0,1,.25.28c0,.09,0,.18,0,.27a.28.28,0,0,0,.27.26,5.27,5.27,0,0,1,.56,0,.31.31,0,0,1,.27.27,1.07,1.07,0,0,0-.4,0s-.06.06-.09.1l.09.09a.33.33,0,0,0,.26,0,.24.24,0,0,0,.12-.22.68.68,0,0,0,.37-.18.3.3,0,0,1,.26,0,.32.32,0,0,1,.21.32c0,.13,0,.28-.12.37l-.25.13a.23.23,0,0,0-.14.21.65.65,0,0,0,0,.14.72.72,0,0,0,.17.22.44.44,0,0,0,.22.14l.13-.06c.18-.09.18-.09.28.15a1.15,1.15,0,0,0,.12.25.64.64,0,0,1,.15.38c0,.23,0,.46,0,.69a.56.56,0,0,0,.17.37.92.92,0,0,0,.47.29l.09.09s-.05.09-.08.1a1,1,0,0,0-.55.39c-.05.09,0,.16.1.19a2.66,2.66,0,0,0,.28,0,.29.29,0,0,1,.31.21c0,.12,0,.22-.14.37a.66.66,0,0,1-.48.24l-.56,0a1.17,1.17,0,0,0-.27,0,1.15,1.15,0,0,0-.25.12.5.5,0,0,1-.26.08h-.28l-3.2,0a.85.85,0,0,0-.39.12,1,1,0,0,1-.4.11c-.83,0-1.67,0-2.5,0a.79.79,0,0,0-.4.1.89.89,0,0,1-.4.12l-2.22,0a.89.89,0,0,0-.28,0,.82.82,0,0,0-.25.12.78.78,0,0,1-.4.09l-1.67,0a.72.72,0,0,0-.39.13c-.24.12-.24.12-.38.13l-.7,0a.31.31,0,0,0-.13,0,.52.52,0,0,0-.13.06l-.23.14a2,2,0,0,0-.51.23l-.13,0-.14,0-3.34,0c-.93,0-1.86,0-2.78,0a2,2,0,0,1-.42,0l-.12-.05c-.1-.05-.11-.13,0-.23.11-.26.11-.29,0-.51a.93.93,0,0,1-.12-.4c0-.65,0-1.3,0-1.94a.86.86,0,0,0,0-.28A1.15,1.15,0,0,0,2.05,25,.61.61,0,0,1,2,24.75c0-.61,0-1.21-.05-1.81a.85.85,0,0,0-.12-.39,1,1,0,0,1-.12-.4c0-.32,0-.65,0-1,0-.7,0-1.39,0-2.09a.73.73,0,0,0-.11-.4.7.7,0,0,1-.14-.38c0-.7,0-1.39,0-2.09a.34.34,0,0,0,0-.14,1.42,1.42,0,0,0-.12-.25.21.21,0,0,1,0-.25.54.54,0,0,0,.07-.13,1.12,1.12,0,0,1-.11-.25.27.27,0,0,1,0-.12.93.93,0,0,0,.15-.39.8.8,0,0,0-.13-.52.18.18,0,0,1,0-.25.73.73,0,0,0,.15-.39,1.18,1.18,0,0,1,0-.27A.89.89,0,0,1,1.55,13a.41.41,0,0,0,0-.5.63.63,0,0,1-.13-.39.68.68,0,0,0,0-.14c0-.16-.06-.21-.26-.29a.33.33,0,0,1-.24-.3,1.24,1.24,0,0,1,0-.27c0-.61,0-1.21,0-1.81a.8.8,0,0,0-.13-.39,1.14,1.14,0,0,1-.11-.4c0-.7,0-1.39-.06-2.09a.87.87,0,0,0-.08-.26.79.79,0,0,1-.13-.39C.28,4.9.23,4,.25,3.14a.86.86,0,0,0-.13-.39.82.82,0,0,1-.1-.4c0-.42,0-.84,0-1.25A.4.4,0,0,1,.12.84,2,2,0,0,1,.4.54C.49.45.5.38.43.3S.36,0,.65,0H.78a1.13,1.13,0,0,1,.67.16.7.7,0,0,0,.66,0L2.23.11a1,1,0,0,1,.4-.1H4.44A1,1,0,0,1,5.1.17a.5.5,0,0,0,.27.07H6.9c.42,0,.83,0,1.25,0a.88.88,0,0,1,.53.15.47.47,0,0,0,.26.08l.69,0a1.11,1.11,0,0,1,.4.13c.23.11.25.12.39.12.41,0,.83,0,1.25,0a.62.62,0,0,1,.26.09c.08,0,.16.1.24.13a1.33,1.33,0,0,0,.28,0,4,4,0,0,1,.69.06.37.37,0,0,1,.12.07c.1.1.09.26.22.34l.38-.14a.29.29,0,0,1,.13,0c.14,0,.16.1.07.2s-.08.2.12.29a.5.5,0,0,1,.13.05c.13.06.24.14.36.21a.93.93,0,0,1,.38.17.79.79,0,0,0,.39.13.69.69,0,0,1,.39.12l.24.14a1.72,1.72,0,0,1,.49.24c.08,0,.18,0,.26.09a3.35,3.35,0,0,0,.36.21,1.62,1.62,0,0,1,.37.19c.15.11.35.13.5.24a1,1,0,0,0,.37.18.72.72,0,0,1,.24.14,2.44,2.44,0,0,0,.43.35c.08,0,.17.06.25.11a1.19,1.19,0,0,1,.23.16,1.23,1.23,0,0,0,.58.37l.23.15.25.13c.15.07.15.07.27.29a.35.35,0,0,0,.18.2,1.07,1.07,0,0,1,.67.66.35.35,0,0,0,.19.19,1.15,1.15,0,0,1,.35.22l1.38,1.38a1.19,1.19,0,0,1,.3.46c.05.07.1.15.16.22.25.28.51.54.76.82A1.14,1.14,0,0,1,25,10a1.44,1.44,0,0,0,.31.46,1.42,1.42,0,0,1,.29.47.83.83,0,0,0,.15.23c.15.18.31.34.46.52s.11.15.16.22a1.72,1.72,0,0,0,.38.58,1.88,1.88,0,0,1,.16.23,1.85,1.85,0,0,0,.19.37,1.41,1.41,0,0,1,.13.24,1.18,1.18,0,0,0,.19.37.85.85,0,0,1,.11.26.7.7,0,0,0,.13.24c.13.2.16.44.3.63a.86.86,0,0,1,.13.39.76.76,0,0,0,.06.26.54.54,0,0,0,.07.13c.14.18.17.43.31.61a.69.69,0,0,1,.12.39,1.06,1.06,0,0,0,.13.39.87.87,0,0,1,.14.39c0,.09,0,.18,0,.28a1.26,1.26,0,0,0,0,.27,1.19,1.19,0,0,0,.13.25.61.61,0,0,1,.08.26c0,.14,0,.28,0,.42a.88.88,0,0,0,.13.39.76.76,0,0,1,.13.39l0,.83c0,.13,0,.28-.16.37a.44.44,0,0,1-.26.06.41.41,0,0,1-.43-.27c-.07-.2-.13-.24-.28-.26a2.4,2.4,0,0,1-.28,0,.31.31,0,0,1-.26-.28l0,0A.24.24,0,0,0,28,20a.14.14,0,0,0,0-.09.24.24,0,0,0-.2-.11l0,0a.34.34,0,0,0-.27-.27h-.13c-.25,0-.38-.08-.36-.14a.7.7,0,0,1,.15-.23.91.91,0,0,0,.18-.21.45.45,0,0,0,.06-.12.27.27,0,0,0-.22-.13.7.7,0,0,0-.52.12c-.09.07-.17.08-.22,0a.29.29,0,0,1,0-.26.26.26,0,0,1,.07-.11c.06-.09.09-.18.05-.24a.25.25,0,0,0-.25-.06l-.12.07a.52.52,0,0,1-.24.08.18.18,0,0,1-.07-.24.27.27,0,0,1,.18-.18.32.32,0,0,1,.14,0c.35,0,.35,0,.38-.13s-.19-.15-.29-.21-.12-.13,0-.2l.12-.05c.11,0,.17-.09.14-.16a.23.23,0,0,0-.25-.1,1.24,1.24,0,0,0-.27,0,.94.94,0,0,0-.24.13.17.17,0,0,1-.24,0c-.14-.12-.21-.25-.15-.32a.28.28,0,0,1,.25-.08l.14,0a.57.57,0,0,0,.36-.18.91.91,0,0,0,.18-.21c.07-.12.07-.26.16-.37a1,1,0,0,0,.14-.24.32.32,0,0,0,0-.27,1.12,1.12,0,0,1-.22-.64.31.31,0,0,0-.12-.23l-.13,0a1.28,1.28,0,0,1-.24.11,1.33,1.33,0,0,1-.28,0c-.34,0-.33,0-.77.24a3,3,0,0,0-.38.15,1.14,1.14,0,0,1-.23.15l-.13,0a.23.23,0,0,0-.11.08c0,.06,0,.14.05.23a.17.17,0,0,1,0,.24.16.16,0,0,0,0,.24.6.6,0,0,1,.13.25.8.8,0,0,1,0,.27.47.47,0,0,0,.08.26,1.83,1.83,0,0,1,.13.24,1.82,1.82,0,0,0-.15.23.33.33,0,0,0,0,.38.69.69,0,0,1,.18.36Zm-2.23,5a.19.19,0,0,0,.12.21l.07-.07a.19.19,0,0,0-.21-.12.2.2,0,0,0-.12-.22.6.6,0,0,0-.08.08.2.2,0,0,0,.22.12m-2-2.79a.82.82,0,0,0,.27,0,.61.61,0,0,0,.13,0,.21.21,0,0,0,.12-.22.18.18,0,0,0-.11-.22.39.39,0,0,0-.26,0,.23.23,0,0,0-.12.23,1.22,1.22,0,0,0,0,.27.2.2,0,0,0-.22.12l.08.08a.2.2,0,0,0,.12-.22M21.73,22a.27.27,0,0,0,.12.22.25.25,0,0,0,.25,0,.21.21,0,0,0,.1-.09A.25.25,0,0,0,22,22h-.27a.58.58,0,0,0,0-.14,1.06,1.06,0,0,0-.38-.38.39.39,0,0,0-.26,0c-.1,0-.12.12-.12.22s.09.24.26.25a3.37,3.37,0,0,0,.55,0M3.31,20.87a.58.58,0,0,0,.14,0,1.77,1.77,0,0,1,.47-.25A.28.28,0,0,0,4,20.51a.08.08,0,0,0,0-.09.25.25,0,0,0-.1-.08l-.28,0-.4,0-.36-.2a.39.39,0,0,0-.26,0s-.06.06-.09.09a.44.44,0,0,0,0,.26s.06.06.1.09.27,0,.4.06a.32.32,0,0,1,.26.27.2.2,0,0,0-.22.12l.07.08a.21.21,0,0,0,.12-.22m1.95-2.23.4,0,.23.14a.34.34,0,0,0,.11.07.27.27,0,0,0,.25,0c.08,0,.08-.12,0-.21s0-.08-.07-.11a.54.54,0,0,1,.11-.23.4.4,0,0,0,.09-.25,4.68,4.68,0,0,0,0-.53.19.19,0,0,0,.21-.12.46.46,0,0,0-.07-.07.21.21,0,0,0-.12.21l-.27,0c-.23,0-.26-.06-.18-.23s.09-.25-.06-.3a1.49,1.49,0,0,1-.36-.17c-.1-.08-.17-.08-.21.05a.31.31,0,0,0,0,.25c0,.08.09.15.14.23s-.12.22-.17.33a.3.3,0,0,0,0,.13l-.53,0c-.19,0-.29-.13-.32-.35a.66.66,0,0,1,0-.14.28.28,0,0,0-.09-.23A.27.27,0,0,0,4.1,17H3.71a.41.41,0,0,0-.25.07.22.22,0,0,0-.12.21.23.23,0,0,0-.2.09.14.14,0,0,0,0,.09.23.23,0,0,0,.2.09s0,.09,0,.13c-.19.25-.43.46-.64.69a.37.37,0,0,0-.07.12.14.14,0,0,0,0,.11,1.76,1.76,0,0,0,.14.23c0,.14,0,.27,0,.41a.2.2,0,0,0-.22.12l.08.08a.21.21,0,0,0,.12-.22c.14,0,.28,0,.41,0s.36-.05.42-.28a.58.58,0,0,1,.14-.24l.39-.39.1-.09a.36.36,0,0,1,.39,0l.24.14a1,1,0,0,0,.31-.26.34.34,0,0,0,.11-.25l.41,0h.13A.27.27,0,0,1,6,18a.75.75,0,0,1-.07.12.79.79,0,0,1-.43.31.3.3,0,0,0-.25.28.25.25,0,0,0-.22.12A.28.28,0,0,0,5,19s.07.06.1.1a.22.22,0,0,0,.12-.22v-.27m17,.3A.82.82,0,0,0,22,19c-.16,0-.19.15-.07.29l.09.09a.16.16,0,0,0,.24,0c.11-.07.26-.26.25-.32a.3.3,0,0,0-.24-.11m-15.47.95a.22.22,0,0,0-.06.24.43.43,0,0,0,.09.1s.08-.05.1-.09a.22.22,0,0,0,0-.24s-.06,0-.09,0M24.2,14.5c-.09,0-.16.06-.14.13s.11.12.21.09.14-.07.14-.13a.16.16,0,0,0-.21-.09M4.05,27.41,4,27.31a.3.3,0,0,0-.23.06c-.07.05-.05.11,0,.17A.31.31,0,0,0,4,27.49s0-.06,0-.08M4.66.69c0-.11-.09-.12-.15,0l.07.08L4.66.69M25.84,14.34c0-.11-.09-.11-.16,0l.08.08.08-.07m-21,2.29.06-.09-.1,0Zm18.69,1.24-.08.07c0,.11.09.12.14,0l-.06-.08m-2.25,1.55c.11,0,.11-.09,0-.15l-.08.07a.27.27,0,0,0,.07.08m-15.8,1-.1-.06v.1Zm3.9,1.68c0-.11-.08-.11-.14,0l.06.08.08-.06m13.38,0-.06-.08c-.11,0-.12.09,0,.15l.08-.07m-3.43,4c.11,0,.11-.09,0-.15a.27.27,0,0,1-.08.07l.07.08m-14.68.77c0-.11-.1-.11-.16,0l.07.08.09-.07m19.86-8.8a.22.22,0,0,0,.12.22.31.31,0,0,0,.12.05,2.57,2.57,0,0,0,.68,0,.26.26,0,0,0,.14-.21.21.21,0,0,0-.08-.24.37.37,0,0,0-.26,0,.34.34,0,0,0-.11.07l-.23.15-.4,0Zm-.92,2.4c-.06-.09-.12-.08-.19,0a.75.75,0,0,1-.15.38c-.08.09-.09.16,0,.22a.31.31,0,0,0,.35-.11.84.84,0,0,0,0-.27.35.35,0,0,0-.06-.25m2.17-1.75a.2.2,0,0,0-.23-.05c-.11,0-.13.11-.06.17a.23.23,0,0,0,.23,0s.07,0,.1-.08a.25.25,0,0,0,0-.09m-.92-3,.07.08.08-.06c0-.11-.09-.11-.15,0m2.23,4.17c0,.11.09.12.15,0l-.07-.08-.08.06m.76.17v-.31l0,0a.22.22,0,0,0-.19.09.08.08,0,0,0,0,.09.19.19,0,0,0,.19.08ZM3.51,17.44a.14.14,0,0,0,0-.09.21.21,0,0,0-.19-.1v.3a.24.24,0,0,0,.19-.11"/></g></g></svg>