<svg xmlns="http://www.w3.org/2000/svg" viewBox="0 0 28.96 30.56"><defs><style>.cls-1{fill:#ffc557;}</style></defs><g id="Layer_2" data-name="Layer 2"><g id="Layer_1-2" data-name="Layer 1"><path class="cls-1" d="M8.33,11.72a.32.32,0,0,0,.21-.12.34.34,0,0,0,.07-.24v-.13A.3.3,0,0,0,8.54,11a.37.37,0,0,0-.21-.12l0,0a.33.33,0,0,1,.24-.29.39.39,0,0,0,.3-.39.66.66,0,0,1,0-.14,1.22,1.22,0,0,0,0-.27c0-.12,0-.12-.17-.36a.32.32,0,0,1-.07-.25.31.31,0,0,1,.25-.27A.38.38,0,0,0,9,9.17a.72.72,0,0,1,.19.34.19.19,0,0,0,.15.16.24.24,0,0,0,.11-.23V9.31c0-.2-.11-.37-.29-.37a1.13,1.13,0,0,0-.26,0,.94.94,0,0,0,0-.41,1.16,1.16,0,0,0-.14-.24A1.12,1.12,0,0,1,8.6,8c0-.12,0-.12-.31-.25a.37.37,0,0,1-.19-.18,1.41,1.41,0,0,0-.18-.37.59.59,0,0,1-.12-.51.58.58,0,0,1,0-.14c.06-.12.15-.23.2-.35a1.14,1.14,0,0,1,.17-.37.16.16,0,0,0,0-.24A1.3,1.3,0,0,1,8,5.26c0-.12,0-.12-.3-.24a1.83,1.83,0,0,1-.24-.13c-.1-.08-.17-.08-.22,0a.31.31,0,0,0,0,.13l0,.28,0,0a1.42,1.42,0,0,1-.41,0A1.64,1.64,0,0,1,6.5,5a.94.94,0,0,1-.1-.1.18.18,0,0,0-.24,0,2.58,2.58,0,0,1-.37.19.29.29,0,0,0-.23.3,1.27,1.27,0,0,1,0,.28.18.18,0,0,1-.08.11c-.06,0-.12,0-.17-.12S5.15,5.37,5,5.33a.71.71,0,0,0-.41,0,1,1,0,0,0-.24.14.7.7,0,0,1-.4.1.5.5,0,0,1-.27-.07l-.12-.07a.16.16,0,0,0-.24,0c-.08.06-.16.09-.24.14a1.06,1.06,0,0,0-.57.37.27.27,0,0,1-.23.1.44.44,0,0,1-.08-.11s0-.09,0-.13a.36.36,0,0,0-.33-.21c-.28,0-.55,0-.83,0a1,1,0,0,0-.53.15c-.09.07-.16,0-.2-.08a1.9,1.9,0,0,1,0-.41,1,1,0,0,0-.13-.54A.5.5,0,0,1,0,4.46c0-1,0-1.95,0-2.92,0-.09,0-.19,0-.28A.39.39,0,0,1,.29.84,1.8,1.8,0,0,0,.74.51.7.7,0,0,1,1.09.3,2.58,2.58,0,0,0,1.46.11.64.64,0,0,1,1.73,0C1.87,0,2,0,2.14,0L2.7,0C3.12,0,3.53,0,4,0a2.62,2.62,0,0,1,.56,0,2.84,2.84,0,0,0,.41,0c.93,0,1.86,0,2.79,0l.83,0a.64.64,0,0,1,.38.15c.07.06.13.13.2.2a.5.5,0,0,0,.37.17c.27,0,.55,0,.83,0,.47,0,.93,0,1.39,0a13.27,13.27,0,0,1,1.67,0h.42a1.12,1.12,0,0,1,.4.1c.26.11.26.11.4.11l.41,0c2.6,0,5.2.05,7.8,0h.7A1.6,1.6,0,0,1,24,1a.37.37,0,0,0,.39,0,.57.57,0,0,1,.66,0,.21.21,0,0,0,.25,0,.79.79,0,0,1,.4-.1h.84a1,1,0,0,1,.53.15.77.77,0,0,0,.26.07l1.12,0a2.51,2.51,0,0,1,.27,0,.39.39,0,0,1,.15.23,2.45,2.45,0,0,1,0,.27c0,1.44,0,2.88,0,4.32,0,.65,0,1.3,0,2S29,9.33,29,10c0,.37,0,.74,0,1.11a1.41,1.41,0,0,1-.16.67.79.79,0,0,0,0,.67.58.58,0,0,1,0,.66.67.67,0,0,0-.06.12.32.32,0,0,0,0,.14.59.59,0,0,0,0,.13c0,1.58,0,3.16,0,4.74,0,.51,0,1,0,1.53s0,.84,0,1.25c0,.61,0,1.21,0,1.81a.92.92,0,0,1-.14.39c0,.14.1.26.14.39a19,19,0,0,1,0,2.5.63.63,0,0,1-.16.38c-.06.07-.13.13-.19.21a.69.69,0,0,0-.18.36,1.72,1.72,0,0,1-.22.65.36.36,0,0,0,0,.27.37.37,0,0,0,.07.12,5.7,5.7,0,0,0,.46.52.83.83,0,0,1,.24.63c0,.09,0,.18,0,.28a.29.29,0,0,1-.27.26,1.24,1.24,0,0,1-.27,0,.89.89,0,0,0-.53.12.8.8,0,0,1-.4.11H25.79a1,1,0,0,1-.53-.14.44.44,0,0,0-.27-.07h-.41a.6.6,0,0,0-.27.07.94.94,0,0,1-.93,0,.78.78,0,0,0-.39-.12c-.7,0-1.39,0-2.09,0a1.24,1.24,0,0,0-.66.16.54.54,0,0,1-.27.07h-.28a.64.64,0,0,0-.51.17.58.58,0,0,1-.38.14h-.28c-1.49,0-3,0-4.46,0a.82.82,0,0,0-.4.1c-.16.08-.17.07-.38,0a.64.64,0,0,0-.27-.07l-2.09,0c-.37,0-.74,0-1.11,0a1.09,1.09,0,0,1-.4-.12.77.77,0,0,0-.25-.1,1.65,1.65,0,0,1-.65-.24.53.53,0,0,0-.26-.08c-.42,0-.83,0-1.25,0a.59.59,0,0,1-.38-.16,2.73,2.73,0,0,0-.31-.27s-.08-.06-.12-.06a.77.77,0,0,0-.54.06.76.76,0,0,1-.38.16c-1,0-1.95,0-2.92,0a.78.78,0,0,1-.4-.09.27.27,0,0,0-.26,0c-.2.07-.21.07-.38,0A.64.64,0,0,0,1,29.3a4.64,4.64,0,0,1-.83-.06A.29.29,0,0,1,0,29.06a.36.36,0,0,1,0-.14c0-.37,0-.74,0-1.11a.87.87,0,0,1,.14-.53L.28,27c.07-.18.08-.18.28-.28s.22-.14.23-.31,0-.27,0-.41a.42.42,0,0,1,.07-.27,1.33,1.33,0,0,0,.22-.64c0-.18.07-.23.25-.3a.4.4,0,0,0,.29-.27.4.4,0,0,1,.27-.29.43.43,0,0,0,.28-.43v-.7A.2.2,0,0,0,2.41,23l-.08-.07a.19.19,0,0,0-.11.21A.24.24,0,0,1,2,23a.33.33,0,0,1,0-.26.18.18,0,0,1,.09-.1c.11-.07.26-.09.32-.22A.89.89,0,0,0,2.5,22a.25.25,0,0,1,0-.12c0-.1.12-.11.22,0s.17.07.22,0a.31.31,0,0,0,0-.25c-.05-.12-.17-.22-.12-.36S3,21.11,3,21a.42.42,0,0,0,0-.12H3c.21-.06.27-.14.27-.35l0-.5h0a5,5,0,0,1,.55,0,.28.28,0,0,1,.23.13.33.33,0,0,1,0,.26,1.42,1.42,0,0,1-.14.23.76.76,0,0,0-.07.53c0,.11.1.16.17.12a.71.71,0,0,0,.34-.4l0-.41c0-.26,0-.3.09-.39L4.71,20a.19.19,0,0,1,.24,0c.22.09.27.07.29-.07a.21.21,0,0,0-.1-.23A.41.41,0,0,0,5,19.54c-.21-.11-.23-.11-.29-.26a3.67,3.67,0,0,0-.26-.48.32.32,0,0,1,.11-.35l.13-.05a.18.18,0,0,0,.12.21l.09-.07a.2.2,0,0,0-.22-.13A.34.34,0,0,1,5,18.13l.24,0a.23.23,0,0,0,.12.22l.08-.07a.21.21,0,0,0-.22-.12c0-.1,0-.2,0-.3h0a1.08,1.08,0,0,1,.4,0,1.12,1.12,0,0,1,.24.13S6,18,6,18a.33.33,0,0,0,.05-.26c-.07-.11-.14-.23-.22-.34a1.13,1.13,0,0,1,0-.41c0-.13.09-.2.26-.27l.13-.06a.27.27,0,0,0,0-.45l-.13,0,0,0a.57.57,0,0,0,0-.14l-.23-.34a1.12,1.12,0,0,0-.17-.37c-.13-.21-.12-.21-.12-.38v-.27c0-.55,0-.59.36-1a.47.47,0,0,0,.1-.1.66.66,0,0,0,.11-.24c.06-.18.17-.2.29-.09a1,1,0,0,1,.27.47c0,.12.11.13.2.07a2,2,0,0,0,.4-.37,1.14,1.14,0,0,1,.58-.36,2,2,0,0,0,.32-.25.18.18,0,0,0,0-.25c-.06-.08-.1-.16-.06-.24a1.31,1.31,0,0,0,.19-.64ZM23.94,9.48h.29v.41a.82.82,0,0,1-.11.39c-.12.18-.11.22,0,.35l.19.19a.28.28,0,0,1,.09.23.21.21,0,0,1-.24.09H24a.47.47,0,0,0-.26.08,3,3,0,0,1-.35.21c-.27.11-.32.23-.28.53a.3.3,0,0,0,.13.23.31.31,0,0,0,.25,0,.29.29,0,0,0,.15-.22.25.25,0,0,1,.16-.18.27.27,0,0,1,.12.23,1.24,1.24,0,0,0,0,.27c0,.12.09.17.17.13l.25-.09a.55.55,0,0,1,.12.24.32.32,0,0,0,.28.25l0,0c0,.09,0,.18,0,.27s.08.25.24.17l.12-.07.12-.06a1.34,1.34,0,0,1,.4,0c.08,0,.12.06.24.3s.09.15.3.24a.36.36,0,0,1,.25.27.2.2,0,0,0-.21.13l.07.08a.21.21,0,0,0,.12-.22.42.42,0,0,0,.26-.1.51.51,0,0,1,.37-.15,1.18,1.18,0,0,1,.27,0,.29.29,0,0,1,.2.17s0,.09.05.13a.43.43,0,0,0,.09.1.17.17,0,0,0,.14-.17,1.16,1.16,0,0,1,.34-.74l.09-.1a.19.19,0,0,0,0-.25,1,1,0,0,1-.13-.53,7.77,7.77,0,0,0,0-.83.45.45,0,0,0-.09-.25l-.26-.33a.58.58,0,0,1-.17-.37c0-.23,0-.46-.05-.69a.93.93,0,0,0-.12-.39c-.05-.08-.09-.16-.13-.24S27.19,9,27,8.94s-.26-.15-.3-.41c0,0,0-.09,0-.14A.58.58,0,0,0,26.53,8a1.12,1.12,0,0,0-.22-.16L26.19,8c-.27.17-.32.17-.61,0a.42.42,0,0,0-.25-.1V7.52a.48.48,0,0,0,.25-.09c.17-.11.17-.11.36,0a.82.82,0,0,0,.4.1.38.38,0,0,0,.26-.08c0-.06,0-.14,0-.23A.71.71,0,0,1,26.45,7a.32.32,0,0,0-.29-.25,5.07,5.07,0,0,0-.55,0l0,0c0-.14,0-.28,0-.42a.59.59,0,0,1,0-.13.25.25,0,0,1,.13-.23.33.33,0,0,1,.26,0,2.43,2.43,0,0,0,.35.2A.23.23,0,0,0,26.63,6a.5.5,0,0,0,0-.12c-.06-.12-.12-.24,0-.36a.39.39,0,0,0,.1-.25.33.33,0,0,0-.08-.25,1.82,1.82,0,0,1-.15-.23,1.73,1.73,0,0,0-.22-.5.32.32,0,0,1,.1-.1,1,1,0,0,0,.24-.11s0-.07,0-.1l-.11-.08h-.28a.61.61,0,0,0-.37.15.69.69,0,0,1-.39.12l-1.1,0h-.14a.31.31,0,0,1-.13,0A1.82,1.82,0,0,1,23.87,4a.4.4,0,0,0-.26-.08A1.57,1.57,0,0,1,23,3.7a.36.36,0,0,0-.27,0,1,1,0,0,0-.38.39c0,.13,0,.27-.07.4a.33.33,0,0,1-.26.28.19.19,0,0,0-.13-.22.6.6,0,0,0-.08.08.2.2,0,0,0,.22.12s0,.1,0,.13a1.18,1.18,0,0,1,.26.72,5.66,5.66,0,0,0-.58,0,1.05,1.05,0,0,0,0-.4c0-.1-.12-.12-.22-.14a.18.18,0,0,0-.21.11.39.39,0,0,0,.06.11.6.6,0,0,0,.43.29.45.45,0,0,1-.12.25c-.12.17-.12.22,0,.35s.28.2.45,0a.57.57,0,0,0,.21-.48.61.61,0,0,0,0-.14.7.7,0,0,1,.34.18.36.36,0,0,0,.24.09v.24a.37.37,0,0,0,.07.23.34.34,0,0,0,.21.09l0,.13a.3.3,0,0,0,.33.12.33.33,0,0,0,.16-.33c0-.11-.11-.13-.2-.07a.78.78,0,0,1-.34.17V6.19c0-.2-.06-.27-.28-.32V5.32a.59.59,0,0,0-.1-.26c-.11-.19-.09-.23.07-.3a1.43,1.43,0,0,0,.38-.17.13.13,0,0,1,.2.1.39.39,0,0,0,.12.24.33.33,0,0,0,.23-.11A2.73,2.73,0,0,1,24,4.55a.27.27,0,0,1,.26,0,.41.41,0,0,1,.11.07c.09.11.11.26.19.37a1.16,1.16,0,0,1,.14.24,1.13,1.13,0,0,1,.06.41.42.42,0,0,1-.24-.12,1.8,1.8,0,0,1-.2-.19c-.23-.24-.27-.21-.46-.08a.8.8,0,0,1-.25.11c-.11,0-.16.09-.13.16s.06.07.1.09a.39.39,0,0,1,.24.12c.11.15.14.34.25.49a1,1,0,0,1,.13.25c.08.22.1.22.29.24l.27,0v.13c0,.23.06.41.33.45a.35.35,0,0,1,.23.27.21.21,0,0,0-.22.13.19.19,0,0,0,.22.13c0,.1,0,.19,0,.28a.59.59,0,0,1,0,.13c0,.12-.12.13-.22,0S24.9,8.06,24.8,8s-.16-.09-.22,0a.2.2,0,0,0-.06.12c0,.13,0,.27,0,.41a.83.83,0,0,0,0,.27.79.79,0,0,0,.14.23.38.38,0,0,1,0,.38.2.2,0,0,1-.22.13l-.27,0a.21.21,0,0,0-.09-.19.08.08,0,0,0-.09,0A.18.18,0,0,0,24,9.5a.2.2,0,0,0-.22.11l.07.08a.21.21,0,0,0,.13-.21M12.25,8.08a.2.2,0,0,0,.12.22l.08-.08a.2.2,0,0,0-.22-.12V7.8a.36.36,0,0,0,.24-.09l.19-.18.2-.18a.33.33,0,0,1,.25-.07.31.31,0,0,1,.25.26.23.23,0,0,0-.22.13l.08.08a.23.23,0,0,0,.13-.22h.38c.31,0,.31,0,.47.33a.39.39,0,0,0,.28.23l0,0c0,.33,0,.65,0,1a.55.55,0,0,1-.12.39.75.75,0,0,0-.07.12c-.09.14-.1.31,0,.37s.14,0,.24,0,.18-.08.22.19a2.7,2.7,0,0,0,0,.28.25.25,0,0,0,.17.19.29.29,0,0,0,.26,0c.08,0,.16-.11.24-.14a.33.33,0,0,1,.26,0,.19.19,0,0,1,.1.1.39.39,0,0,1,0,.26,1.28,1.28,0,0,0-.21.78c0,.33,0,.65,0,1a.32.32,0,0,0,0,.14,1.31,1.31,0,0,0,.25.33c.1.1.1.1.36,0l.26-.1a.32.32,0,0,0,.22-.31s0-.09,0-.14a.28.28,0,0,1,.08-.25c.07-.06.13,0,.32.15a1.91,1.91,0,0,0,.33.25,1.25,1.25,0,0,1,.49.24l.13,0a.2.2,0,0,0,.24-.1.75.75,0,0,0-.07-.12L18,12.27a.36.36,0,0,1,0-.49,1,1,0,0,1,.43-.34.29.29,0,0,0,.13,0l.09-.09L18.45,11a1.28,1.28,0,0,1,.11-.24.24.24,0,0,0-.08-.24.55.55,0,0,1-.12-.24.2.2,0,0,0,.22-.12l-.08-.09a.2.2,0,0,0-.12.22.4.4,0,0,1-.29-.26c-.08-.22-.08-.22-.26-.29a.92.92,0,0,1-.24-.13,13.11,13.11,0,0,1-1-1,.29.29,0,0,1-.07-.12.17.17,0,0,1,0-.12l.13-.24c0-.14,0-.28.06-.41a.18.18,0,0,1,.07-.11c.07,0,.14,0,.17.1a1,1,0,0,0,.2.36.64.64,0,0,0,.62.22A.28.28,0,0,0,18,8.24.41.41,0,0,0,18,8,.76.76,0,0,0,18,7.88c-.09,0-.17-.07-.26-.11a.26.26,0,0,1-.12-.23c0-.1,0-.19.12-.23a1.13,1.13,0,0,1,.41-.06.61.61,0,0,0,.26.4.51.51,0,0,0,.33.15h.25a.26.26,0,0,0,.12.23.31.31,0,0,0,.25,0s.06-.07.09-.1a.19.19,0,0,0-.21-.12h-.27V7.41a.68.68,0,0,0-.3-.58c-.1-.08-.17-.08-.22,0s-.1.35-.32.39c0-.29,0-.57,0-.86l0,0,.13,0a.28.28,0,0,0,.15-.2,1.41,1.41,0,0,0,0-.41c-.05-.07-.09-.15-.15-.22a3.36,3.36,0,0,1-.34-.41.3.3,0,0,1,0-.13l0,0a.32.32,0,0,0,.28-.25.51.51,0,0,1,.1-.24l.18-.21a1.71,1.71,0,0,1,.18-.2.25.25,0,0,0,.07-.25.27.27,0,0,0,0-.12.26.26,0,0,0-.22-.13,1.1,1.1,0,0,0,0-.4l-.1-.09s-.07.06-.09.1a.25.25,0,0,0,0,.25.23.23,0,0,0,.22.12.32.32,0,0,1-.26.29.77.77,0,0,0-.25.1c-.19.13-.2.13-.37,0A.89.89,0,0,0,17,3.92a.29.29,0,0,0-.28-.28c0-.09,0-.18,0-.27a.3.3,0,0,0,0-.13,1,1,0,0,0-.26-.31.32.32,0,0,0-.24-.09.2.2,0,0,0-.23.12.46.46,0,0,0,0,.26l.07.12c.11.15.1.2,0,.34a.68.68,0,0,1-.47.24.8.8,0,0,0-.27,0,.72.72,0,0,0-.24.14.67.67,0,0,1-.39.1h-.4v0l0-.28a.33.33,0,0,0-.1-.24,1.1,1.1,0,0,0-.3-.27.39.39,0,0,0-.26,0,.24.24,0,0,0-.1.1,1.23,1.23,0,0,1-.37.56.79.79,0,0,0-.26.46c0,.08-.09.16-.14.23a1.12,1.12,0,0,0-.13.24.94.94,0,0,1-.18.36.68.68,0,0,0-.09.39.39.39,0,0,0,.07.26.27.27,0,0,0,.22.13l0,0a.38.38,0,0,1-.11.25L12,6.77a.48.48,0,0,1-.22.14l-.12-.07a.69.69,0,0,0-.52-.12.2.2,0,0,0-.23.11.56.56,0,0,0,0,.12.27.27,0,0,0,.06.26,1.21,1.21,0,0,0,.2.19.41.41,0,0,0,.11.07l.25-.13c.12,0,.22.12.35.12l.25-.13s.08,0,.09.09a1.1,1.1,0,0,1,.05.4.22.22,0,0,0-.19.09.06.06,0,0,0,0,.08.2.2,0,0,0,.19.09m.54,3.63a.26.26,0,0,0,.24-.37s-.06-.07-.09-.1a.21.21,0,0,0-.13.21v.27a.21.21,0,0,0-.22.13l.08.08a.21.21,0,0,0,.12-.22M7.51,16.19l-.13,0a.28.28,0,0,0-.09.35.24.24,0,0,0,.24.11c.12,0,.17-.07.14-.16s-.17-.22-.18-.36a.24.24,0,0,0,.22-.12L7.63,16a.23.23,0,0,0-.12.22M10,8.38a2.09,2.09,0,0,0,0-.25A.45.45,0,0,0,10,8a.18.18,0,0,0-.08-.09c-.07,0-.13,0-.16.11a.28.28,0,0,0,.27.33.37.37,0,0,0,.1.25.87.87,0,0,1,.19.37.18.18,0,0,0,.08.11c.07,0,.14,0,.16-.12a.34.34,0,0,1,.15-.23.25.25,0,0,1,.15.2.6.6,0,0,0,.12.24.63.63,0,0,1,.16.52,5,5,0,0,0,0,.55.32.32,0,0,0,0,.14.87.87,0,0,0,.09.11.25.25,0,0,0,.09,0c.09-.11.08-.26.17-.37.19-.31.2-.31,0-.62s-.08-.17.17-.28.22-.11.24-.29a.61.61,0,0,0,0-.14.35.35,0,0,0-.17-.34.36.36,0,0,0-.27,0l-.24.14A1,1,0,0,1,11,8.33L10.54,8c-.09-.09-.17-.09-.21,0s-.11.36-.33.4m9.77-3.92a2.44,2.44,0,0,1,0,.27c0,.15,0,.2.18.35a.51.51,0,0,0,.23.15A.23.23,0,0,0,20.31,5a1.22,1.22,0,0,0,0-.27h.13a.51.51,0,0,0,.49-.22.92.92,0,0,0,.17-.22.39.39,0,0,0,0-.26A.24.24,0,0,0,21,4a1,1,0,0,1-.25-.11c-.11-.09-.13-.24-.2-.36a.44.44,0,0,0-.08-.11,1.69,1.69,0,0,0-.32-.27,2.48,2.48,0,0,0-.27,0c-.14,0-.28,0-.42,0a1.39,1.39,0,0,1-.36-.19.34.34,0,0,0-.26,0c-.12.05-.13.12,0,.22l.28.3a.39.39,0,0,1,0,.51A.61.61,0,0,0,19,4a.4.4,0,0,0,0,.11c.15.12.35.13.48.26a.35.35,0,0,0,.25.1M26.18,20.9l-.55,0a.27.27,0,0,0-.23.13.31.31,0,0,0,.09.36l.13.05h0a4.87,4.87,0,0,1,0,.54.53.53,0,0,1-.08.25.27.27,0,0,0,0,.36.53.53,0,0,1,.12.25c-.21,0-.32.15-.43.3a.45.45,0,0,0-.06.12.24.24,0,0,0,.24.11.23.23,0,0,0,.22-.13.94.94,0,0,0,0-.41.74.74,0,0,0,.26,0,.3.3,0,0,0,.27-.26,1.32,1.32,0,0,1,.1-.39c.07-.12.22-.15.33-.23a.27.27,0,0,0,.08-.1.28.28,0,0,0,0-.13,1.44,1.44,0,0,1,.22-.63.38.38,0,0,0-.08-.49,2.64,2.64,0,0,1-.35-.4s0-.09,0-.13a.73.73,0,0,0,.41,0,.22.22,0,0,0,.09-.1.57.57,0,0,0,0-.26c-.14-.18-.2-.41-.34-.6a.3.3,0,0,0-.11-.07.27.27,0,0,0-.32.17.65.65,0,0,0,.05.53,1.3,1.3,0,0,1,.19.37l-.26,0-.13,0a.17.17,0,0,0-.09.08.51.51,0,0,0,0,.25c.08.15.24.26.24.45ZM21.12,6.24V6.05a1,1,0,0,0-.37-.4.29.29,0,0,0-.26,0s-.07.06-.1.09a.39.39,0,0,0,0,.26,1.83,1.83,0,0,0,.13.24c.05.09,0,.16-.1.19a.69.69,0,0,0-.25.1c-.35.28-.37.35-.06.63a.34.34,0,0,0,.25.08.25.25,0,0,0,.23-.12A1.3,1.3,0,0,1,21,6.43a.32.32,0,0,0,.1-.19M11.17,4c-.05,0-.1,0-.14,0a.82.82,0,0,0-.4.36.32.32,0,0,0,0,.38A1.16,1.16,0,0,0,11,5a.33.33,0,0,0,.26,0c.12,0,.13-.11,0-.21s-.07-.17,0-.23a.38.38,0,0,1,.26-.07c.26,0,.34.06.42.27A.39.39,0,0,0,12.1,5a.3.3,0,0,0,.13-.23V4.59c0-.18-.11-.38-.3-.38A1.05,1.05,0,0,1,11.29,4s-.08,0-.12,0m8.28,1.34c0-.15,0-.16-.26-.26S19,5,18.93,4.74l-.06-.12c-.06-.08-.14-.08-.23,0s-.22.26-.1.44a1.38,1.38,0,0,1,.13.53.3.3,0,0,0,.13.22.36.36,0,0,0,.27,0,1,1,0,0,0,.38-.38.65.65,0,0,0,0-.14m7.8,22s0-.09-.05-.12a1,1,0,0,0-.28-.3.3.3,0,0,0-.37,0l-.11.09-.4.38a.17.17,0,0,0-.06.12c0,.07.05.14.16.14a.89.89,0,0,0,.53-.08c.17-.09.17-.08.38,0s.17.05.21-.07a.71.71,0,0,0,0-.14M9.44,6.24s0-.07,0-.16A.39.39,0,0,0,9.35,6c-.07,0-.12,0-.17.12-.14.28-.15.28-.38.32a1.18,1.18,0,0,0-.27,0,.25.25,0,0,0-.16.2.22.22,0,0,0,.08.24A.6.6,0,0,0,8.56,7,1,1,0,0,0,9,7a.75.75,0,0,0,.32-.24.61.61,0,0,0,.15-.48M8.05,20.49a.57.57,0,0,0,0-.13.5.5,0,0,0,0-.13c0-.07-.13-.06-.22,0a.65.65,0,0,1-.39.1,1.58,1.58,0,0,0-.53.07.43.43,0,0,0-.1.09s.07.07.11.08a1.64,1.64,0,0,0,.54.08.64.64,0,0,1,.38.12c.1.07.17.07.21,0a.55.55,0,0,0,.06-.26M13.15,9s0,.08,0,.12a.58.58,0,0,0,.19.19l.11.07a1.71,1.71,0,0,0,.23-.13c.11-.08.25-.09.35-.17s.13-.28,0-.35a.12.12,0,0,0-.1,0c-.13,0-.22.15-.36.16a2.44,2.44,0,0,0-.39.05s-.07,0-.11.08M18.34,9a.76.76,0,0,0-.26,0c-.1,0-.16.06-.17.14A.6.6,0,0,0,18,9.2l.3.26a.51.51,0,0,0,.25-.05.2.2,0,0,0,.08-.23A.24.24,0,0,0,18.47,9l-.13,0m-10-4.23.11,0a.18.18,0,0,0,.1-.23c-.05-.19-.09-.24-.27-.21s-.23.09-.2.26.1.24.26.22M10,4.45a.3.3,0,0,0-.13-.22H9.71c-.19,0-.24.08-.22.26s.08.23.26.21.24-.08.22-.25m4.49,7.68v-.2s-.05-.08-.09-.1-.14,0-.16.12a3.17,3.17,0,0,1-.17.37.53.53,0,0,0,0,.12.18.18,0,0,0,.24.07c.13,0,.2-.13.21-.38m-1-3.58a.41.41,0,0,0,.31-.17c.08-.08.08-.16,0-.21a.22.22,0,0,0-.11-.05.25.25,0,0,0-.23.09.34.34,0,0,0-.06.24s0,.07.07.1M23.3,9.66a.73.73,0,0,0-.05-.09.25.25,0,0,0-.25,0,.29.29,0,0,0-.14.2c0,.1,0,.18.07.23a.27.27,0,0,0,.22-.09.8.8,0,0,0,.15-.21m-10.66.18a.51.51,0,0,0-.21.15.37.37,0,0,0-.09.22l.09.09a.36.36,0,0,0,.25-.06.27.27,0,0,0,.08-.1.25.25,0,0,0,0-.24s-.06,0-.09-.06m11,.62a.47.47,0,0,0-.05-.24.39.39,0,0,0-.08-.1.39.39,0,0,0-.08.1.47.47,0,0,0-.05.24c0,.17.06.35.13.35s.13-.19.13-.35m-4.21,2.12a.23.23,0,0,0-.08-.23l-.12.06-.11.07a.54.54,0,0,0-.15.21.19.19,0,0,0,.19.11.22.22,0,0,0,.23-.1s0-.08,0-.12M7.93,21.27s-.08,0-.1.08A.29.29,0,0,0,8,21.7a.26.26,0,0,0,.26,0c0-.06,0-.14-.06-.22a.87.87,0,0,0-.22-.17m-2.54-.19a.2.2,0,0,0,.24.08.87.87,0,0,0,.11-.09A.31.31,0,0,0,5.67,21a.25.25,0,0,0-.25,0s0,.06,0,.09m7-2.33a.18.18,0,0,0-.15.16.2.2,0,0,0,.1.23c.07,0,.11-.06.14-.16a.19.19,0,0,0-.09-.23m14-.1a.26.26,0,0,0,.21-.1.23.23,0,0,0-.4,0,.19.19,0,0,0,.19.11m1.65-3.33c0-.1-.05-.15-.13-.15s-.11.11-.09.21.07.15.14.16a.18.18,0,0,0,.08-.22m-8.44-4a.2.2,0,0,0-.24-.08s-.07.06-.11.09,0,.07.07.09a.25.25,0,0,0,.25,0s0-.06,0-.09m-5.85,0a.23.23,0,0,0-.25-.08s-.06.06-.1.09a.36.36,0,0,0,.07.1.25.25,0,0,0,.25,0s0-.06,0-.09M14,10.7a.25.25,0,0,0,0,.09.19.19,0,0,0,.22.06c.11,0,.13-.11.07-.17a.21.21,0,0,0-.23,0s-.06,0-.1.07m5.57-.26a.25.25,0,0,0,0,.25.87.87,0,0,0,.08.1s.09,0,.1-.09a.21.21,0,0,0,0-.24s-.06,0-.1,0M10,9.52a.41.41,0,0,0,0-.11.19.19,0,0,0-.09-.09c-.07,0-.12,0-.14.13a.18.18,0,0,0,.08.22q.11,0,.15-.15M9.43,8.4a.22.22,0,0,0,0-.11.12.12,0,0,0-.08-.09c-.06,0-.11,0-.13.13a.19.19,0,0,0,.07.22q.11,0,.15-.15M10,6.18a.48.48,0,0,0,0-.12L9.9,6c-.07,0-.12,0-.14.13a.19.19,0,0,0,.08.22c.07,0,.12,0,.14-.14m1.57-.81-.08.06c0,.11.09.11.14,0l-.06-.08m-1.19.35.09.06v-.1ZM21,3.41l-.09.07c0,.12.1.13.16,0L21,3.41m-8.38.16c.1,0,.11-.09,0-.15l-.08.07.07.08M10.42,6.91l.06-.1h-.11Zm10,1.95c.11,0,.11-.08,0-.14l-.08.06a.27.27,0,0,0,.07.08m-8.06.41-.08.06c0,.11.08.12.14,0l-.06-.08m1.46.64c0-.11-.09-.12-.15,0l.07.09.08-.08m-4.19.28c0-.11-.09-.11-.15,0l.07.08a.27.27,0,0,0,.08-.07m1.13,0-.07-.08c-.11,0-.12.09,0,.15l.08-.07m8.35,0c0-.11-.09-.11-.14,0l.06.08.08-.06m-7,.55c0-.1-.09-.11-.16,0l.08.07.08-.06m7,0c0-.11-.09-.11-.15,0l.07.07.08-.06M11,11.22l-.07.06c0,.11.08.12.14,0L11,11.22m-1.6.36-.06-.07c-.11,0-.12.08,0,.14l.08-.07m1.11.28c0-.1-.09-.11-.14,0l.06.08.08-.07m4.47.83-.07-.08c-.12,0-.12.1,0,.16l.08-.08M6.25,14l-.09.09c0,.13.11.13.18,0L6.25,14m17.49.09.09.06V14ZM6.81,15.69l-.06.09.1,0Zm5.23.89.08.06,0-.1Zm-3.85.64.05-.1h-.1Zm-.34,1,.09.06v-.1Zm-.78,3.43c.13,0,.13-.09,0-.15L7,21.61l.07.08m.56.55.07-.09-.11,0ZM3.31,20.08c0-.13,0-.27,0-.41a.58.58,0,0,1,.21-.49l.18-.2c.17-.18.17-.22.16-.51a.33.33,0,0,0-.21-.32,2.23,2.23,0,0,1-.48-.26.29.29,0,0,0-.13,0,.26.26,0,0,0-.26.26,6.37,6.37,0,0,0,0,1.38.47.47,0,0,0,.11.25c.13.12.23.3.44.3ZM0,12.84A.5.5,0,0,0,.08,13c.05.06.11,0,.15-.09a1,1,0,0,1,.11-.25.88.88,0,0,0,.16-.51c0-.37,0-.73,0-1.09a.6.6,0,0,0-.06-.27l-.09-.1a.31.31,0,0,0-.25,0,.21.21,0,0,0-.07.11A10.59,10.59,0,0,0,0,12c0,.24,0,.56,0,.87m4.12,3,.27,0a.49.49,0,0,1,.26.1A.22.22,0,0,0,5,16a.65.65,0,0,0,.23-.48,2,2,0,0,0,0-.54.32.32,0,0,0-.1-.1.31.31,0,0,0-.09.07c-.08.11-.09.27-.22.34a1.86,1.86,0,0,1-.25.1.76.76,0,0,0-.41.53l0,0M3.9,17.31a.44.44,0,0,0,.11.24c.06.07.14.13.2.2a.23.23,0,0,0,.25.07l.11-.05c.08-.06.07-.14,0-.22a.39.39,0,0,1,0-.49c.12-.19.11-.25,0-.3a1.06,1.06,0,0,1-.37-.18c-.1-.08-.16-.08-.2.05a.69.69,0,0,0,0,.13c0,.09,0,.19,0,.48,0-.11,0,0,0,.07M.46,14.39c-.05-.1-.12-.09-.21,0a.56.56,0,0,0-.21.47c0,.13.08.16.17.09s.29-.22.28-.43a.42.42,0,0,0,0-.12m4.81,3.46a1.21,1.21,0,0,1,.17-.62c0-.09,0-.15-.09-.19s-.31.07-.32.17a2.3,2.3,0,0,0,0,.26.35.35,0,0,0,.06.25.24.24,0,0,0,.22.12ZM3,20.92a1.08,1.08,0,0,0,0-.4l-.1-.08s-.07,0-.09.09a.27.27,0,0,0,0,.26.25.25,0,0,0,.22.12Zm2.53-4.46a.9.9,0,0,0-.4,0,.45.45,0,0,0-.09.1s.06.08.1.09a.31.31,0,0,0,.25,0,.24.24,0,0,0,.12-.22Zm0,0h.24c.2,0,.26-.06.32-.28l0,0H5.87a.28.28,0,0,0-.31.28Zm2.05-3.87a.23.23,0,0,0-.23,0c-.07.06-.06.12,0,.18a.3.3,0,0,0,.23-.05s0-.06,0-.08,0-.08-.08-.09M7.23,5.3a1,1,0,0,0,0,.39s.07.06.1.09.08,0,.09-.09a.3.3,0,0,0,0-.26.27.27,0,0,0-.23-.11Zm-.7.63L6.45,6l.06.07c.11,0,.12-.08,0-.14m1.82,5a.2.2,0,0,0-.22.12l.08.08a.2.2,0,0,0,.12-.22Zm0,.83a.19.19,0,0,0-.12-.21l-.08.08a.23.23,0,0,0,.22.12ZM4.17,15.91A.2.2,0,0,0,4,16l.08.08a.25.25,0,0,0,.12-.23Zm-.78.68a.27.27,0,0,0,.07.08l.08-.06c0-.11-.09-.12-.15,0M2.3,21.08h.1l0-.1Zm-.17.51-.1,0,0,.1ZM13.64,4.76s-.09,0-.13,0A2.19,2.19,0,0,1,13,5a.18.18,0,0,0-.11.08c0,.07,0,.15.07.23s.19.19.29.29a.58.58,0,0,0,.35.21c.13,0,.24.13.37.18s.14,0,.17-.12a.52.52,0,0,1,.11-.25l.19-.21.38-.4c.08-.08.1-.16.05-.22a.25.25,0,0,0-.26,0c-.12.06-.23.15-.35.22a.75.75,0,0,1-.53,0,.28.28,0,0,1-.14-.22ZM15.58,9.2a.2.2,0,0,0,.21-.13.69.69,0,0,0,.05-.13,2.7,2.7,0,0,1,.06-.41c0-.08.1-.16.13-.24s0-.15-.12-.18a.85.85,0,0,1-.37-.18.58.58,0,0,0-.38-.11l-.42,0a.65.65,0,0,0-.13,0,.24.24,0,0,0-.13.22l0,0,.26,0c.16,0,.17,0,.34.17a.45.45,0,0,1,.15.21.31.31,0,0,1-.07.23c-.05.09,0,.16.08.19s.33.12.37.31Zm.87-5.32a.22.22,0,0,0,0,.14,1.58,1.58,0,0,0,.15.24,2.59,2.59,0,0,1,.17.38.8.8,0,0,0,.29.29c.08,0,.15,0,.18-.12a1.48,1.48,0,0,0,0-.42,1.76,1.76,0,0,0-.14-.23A.42.42,0,0,1,17,3.9a.28.28,0,0,1-.2-.08.24.24,0,0,1-.08-.2.3.3,0,0,0-.26.26M15.39,5.15a.33.33,0,0,0-.05.24.17.17,0,0,0,.07.1c.09,0,.36-.18.36-.3a.15.15,0,0,0,0-.09l-.11,0a.21.21,0,0,0-.23.09m-2.88,1a1.35,1.35,0,0,0,.4,0L13,6a.43.43,0,0,0-.1-.09.25.25,0,0,0-.25,0,.24.24,0,0,0-.12.22Zm1.41-1.65c-.2,0-.25.08-.28.28l0,0c.2,0,.26-.08.28-.28ZM17.8,5a.19.19,0,0,0-.12-.22.6.6,0,0,0-.08.08.21.21,0,0,0,.23.12ZM14.2,4.2a.26.26,0,0,0-.21.07.27.27,0,0,0-.07.21l0,0c.2,0,.26-.08.29-.28Zm3.32,1.39a.19.19,0,0,0-.12-.21l-.07.07a.19.19,0,0,0,.21.12Zm0,0a.19.19,0,0,0,.13.22l.08-.08a.23.23,0,0,0-.23-.12Zm.54.86A.22.22,0,0,0,18,6.21a.6.6,0,0,1-.08.08.19.19,0,0,0,.21.12ZM15.59,9.21a.19.19,0,0,0-.21.13l.07.08a.2.2,0,0,0,.13-.22ZM17,9.77a.19.19,0,0,0-.12-.21.3.3,0,0,0-.08.08.2.2,0,0,0,.22.12Zm0,0a.19.19,0,0,0,.11.22l.08-.08A.19.19,0,0,0,17,9.77Zm.33.7.07.07.07-.06c0-.1-.08-.11-.14,0m7.47,1a.42.42,0,0,0-.12,0,.27.27,0,0,0-.12.33.32.32,0,0,0,.32.15c.11,0,.13-.1.07-.19a1.09,1.09,0,0,1-.17-.34Zm0,1.37H25c.18,0,.24-.08.26-.24a.19.19,0,0,0-.09-.23.47.47,0,0,0-.12.07.66.66,0,0,0-.3.43ZM25,10.08a.43.43,0,0,0-.1.09s0,.07.06.09a.25.25,0,0,0,.25,0s0-.06,0-.09a.22.22,0,0,0-.24-.08m-.21,1.35a.2.2,0,0,0,.22-.12.6.6,0,0,0-.08-.08.2.2,0,0,0-.12.22ZM25,6.58a.4.4,0,0,0,.07-.24,2.67,2.67,0,0,1,0-.4A.4.4,0,0,0,25,5.7a.3.3,0,0,0-.22-.13q0,.57,0,1.14A.3.3,0,0,0,25,6.58m.42-2c0,.11.08.11.14,0l-.07-.08-.07.07m-2.79-.27.06.08.08-.07c0-.11-.08-.11-.14,0m2.86.76-.08.07.07.09c.11,0,.12-.1,0-.16m.15,1.62a.2.2,0,0,0-.22.12.6.6,0,0,0,.08.08.2.2,0,0,0,.12-.22Zm.55,14.19a.22.22,0,0,0,.11.2l.07-.06a.21.21,0,0,0-.2-.12Zm-.57.57a.19.19,0,0,0,.22-.13l-.08-.09a.2.2,0,0,0-.13.23ZM20.32,4.35s0-.09,0-.13A.3.3,0,0,0,20.18,4a.48.48,0,0,0-.22.15.75.75,0,0,0-.21.34.34.34,0,0,1,.24.09.81.81,0,0,0,.34.19c0-.14,0-.28,0-.41"/></g></g></svg>