<svg xmlns="http://www.w3.org/2000/svg" viewBox="0 0 29.5 29.42"><defs><style>.cls-1{fill:#00ac69;}</style></defs><g id="Layer_2" data-name="Layer 2"><g id="Layer_1-2" data-name="Layer 1"><path class="cls-1" d="M.56,14.23c0-2.31,0-4.58,0-6.86A1.12,1.12,0,0,1,.69,7a.78.78,0,0,0,.12-.39V6c0-.6,0-1.2,0-1.81A.65.65,0,0,0,.72,4c-.1-.18-.1-.19,0-.38A.65.65,0,0,0,.8,3.31,2.46,2.46,0,0,1,.82,3a1.83,1.83,0,0,0-.18-.94.5.5,0,0,1,0-.27l.06-.13a1,1,0,0,0,.13-.53,7.87,7.87,0,0,1,0-1A.42.42,0,0,1,1.09,0l.27,0C2.62,0,3.87,0,5.12,0L8.33,0h4.59l1.39,0a1,1,0,0,1,.53.15.47.47,0,0,0,.26.08l1,0a.86.86,0,0,1,.39.13.74.74,0,0,0,.4.11l4,0a1.07,1.07,0,0,1,.65.18.5.5,0,0,0,.27.07,2.61,2.61,0,0,1,.28,0,.83.83,0,0,0,.27,0,.85.85,0,0,0,.25-.13.51.51,0,0,1,.52,0,.73.73,0,0,0,.39.12l.56,0c.23,0,.46,0,.69,0a.84.84,0,0,1,.66.18,1.12,1.12,0,0,0,.25.11.3.3,0,0,1,.13.46c-.14.26-.13.26,0,.36a1,1,0,0,0,.34.24h.14c.27,0,.29.07.61-.24.13-.14.26-.27.4-.4s.18-.13.34,0a1.13,1.13,0,0,0,.53.14.18.18,0,0,1,.18.15.2.2,0,0,1-.06.12.65.65,0,0,1-.47.26,1.26,1.26,0,0,0-.27,0,.28.28,0,0,0-.11.08c0,.07,0,.13.15.16h.13a5.19,5.19,0,0,0,.56,0,.64.64,0,0,1,.59.3.46.46,0,0,1,.09.39.34.34,0,0,1-.22.15.34.34,0,0,0-.22.14.48.48,0,0,0,.16.23,1,1,0,0,0,.36.2.68.68,0,0,1,.41.35.27.27,0,0,1,.06.12,2.64,2.64,0,0,1,0,.28V6.75a1.06,1.06,0,0,1-.12.53.21.21,0,0,0,0,.26.21.21,0,0,1,0,.26.77.77,0,0,0-.11.39c0,.93,0,1.86,0,2.79,0,1.34,0,2.69,0,4,0,.37,0,.74,0,1.11,0,1,0,2,0,3.06,0,.14,0,.28,0,.42a1.12,1.12,0,0,1-.15.53.35.35,0,0,0,0,.39c.05.13.12.24,0,.38a.62.62,0,0,0-.11.4c0,.14,0,.28,0,.42a1.21,1.21,0,0,0,.17.66.44.44,0,0,1,0,.4c-.05.13-.1.25,0,.38a1,1,0,0,1,0,.8c-.13.29-.12.29,0,.52a.85.85,0,0,1,.12.53,1,1,0,0,1-.13.67.52.52,0,0,1-.06.13A.59.59,0,0,0,29,26c0,.7,0,1.4-.05,2.09a.93.93,0,0,1-.12.4,1.61,1.61,0,0,0-.15.53.32.32,0,0,1-.26.27,12.93,12.93,0,0,1-1.39,0c-.51,0-1,0-1.54,0a.76.76,0,0,1-.39-.1.87.87,0,0,0-.39-.14.82.82,0,0,1-.52-.18l-.25-.11c-.19-.07-.18-.08-.26-.29s-.13-.22-.3-.24a2.84,2.84,0,0,0-.41,0,.75.75,0,0,0-.39.12.75.75,0,0,1-.52.15c-.39,0-.39,0-.66-.18a.42.42,0,0,0-.51,0,.6.6,0,0,1-.38.14,1.17,1.17,0,0,0-.27,0,1.2,1.2,0,0,0-.24.15.48.48,0,0,1-.25.09.66.66,0,0,1-.53-.13.17.17,0,0,0-.24,0,.65.65,0,0,1-.38.16c-.56,0-1.11,0-1.67,0a1.12,1.12,0,0,1-.53-.15.68.68,0,0,0-.39-.12,7.61,7.61,0,0,0-.83,0,.66.66,0,0,1-.39-.11c-.2-.14-.43-.18-.62-.32a.62.62,0,0,0-.39-.1,1.11,1.11,0,0,0-.8.18c-.12.06-.26.09-.38.16s-.21.12-.36,0a.71.71,0,0,0-.39-.12H11a.76.76,0,0,0-.39.1.69.69,0,0,1-.39.14H9.81c-1.53,0-3.06,0-4.59,0H4.66a.88.88,0,0,0-.28,0,1.36,1.36,0,0,0-.25.11.78.78,0,0,1-.4.09H2.34a.77.77,0,0,1-.4-.1.92.92,0,0,0-.4-.11H1.13a1.16,1.16,0,0,0-.67.15l-.13,0a.26.26,0,0,1-.3-.21.59.59,0,0,1,0-.13c0-.14,0-.28,0-.42l0-4a.93.93,0,0,1,.09-.4.82.82,0,0,0,.12-.25.83.83,0,0,0,0-.27c0-.37,0-.75,0-1.12a.7.7,0,0,1,.14-.38,1,1,0,0,0,.1-.4V19.35c0-1.35,0-2.7,0-4V14.23M3.05,12a.2.2,0,0,0-.12-.22l-.08.08a.22.22,0,0,0,.22.11.2.2,0,0,0,.12.22l.08-.07A.21.21,0,0,0,3.05,12m12.56,1.09a.19.19,0,0,0,.13.22.22.22,0,0,0,.13-.22l.12,0a.25.25,0,0,0,.13-.31.27.27,0,0,0-.16-.17.26.26,0,0,0-.32.13l0,.12a.22.22,0,0,0-.19.09.07.07,0,0,0,0,.09.21.21,0,0,0,.19.08m-1.39.3a.2.2,0,0,0-.22.12l.08.08a.21.21,0,0,0,.11-.22.21.21,0,0,0,.23-.12l-.08-.08a.2.2,0,0,0-.12.22M7,13.93a.26.26,0,0,0,.23-.12.5.5,0,0,0,0-.13.19.19,0,0,0-.12-.22.21.21,0,0,0-.13.21v.27a.19.19,0,0,0-.22.13l.08.08A.2.2,0,0,0,7,13.93m-4.16-.82H2.52a.22.22,0,0,0-.22.12.24.24,0,0,0,.22.12h.27a.18.18,0,0,0,.12.22L3,13.51a.19.19,0,0,0-.23-.12v-.3A.2.2,0,0,0,3,13l-.08-.09a.22.22,0,0,0-.12.23M20.9,1.4a1.36,1.36,0,0,0-.4,0s-.06.06-.09.09.06.08.1.09a.27.27,0,0,0,.25,0,.23.23,0,0,0,.12-.22.2.2,0,0,0,.22-.12L21,1.19a.21.21,0,0,0-.13.21M15.59,12a.86.86,0,0,0,.39,0,.21.21,0,0,0,.1-.09.43.43,0,0,0-.1-.09.31.31,0,0,0-.25,0,.25.25,0,0,0-.12.22.2.2,0,0,0-.22.12.3.3,0,0,0,.08.08.2.2,0,0,0,.12-.22m-2.21,3.09H12.8a.21.21,0,0,0-.12-.22l-.07.08a.19.19,0,0,0,.21.12l0,.12a.27.27,0,0,0,.18.15.26.26,0,0,0,.3-.15l0-.12a.21.21,0,0,0,.22-.12l-.08-.08a.21.21,0,0,0-.12.22m-1.13,9.2a.21.21,0,0,0-.12-.23l-.09.08a.21.21,0,0,0,.23.13.53.53,0,0,0,0,.12.27.27,0,0,0,.33.12.29.29,0,0,0,.15-.32c0-.11-.1-.13-.19-.07a1.09,1.09,0,0,1-.34.17M7,20.06a.19.19,0,0,0,.12.21l.07-.07A.19.19,0,0,0,7,20.08a5.61,5.61,0,0,0,0-.58l.27,0a.48.48,0,0,1,.25.09c.18.11.18.12.34,0a1,1,0,0,1,.37-.15l.33-.22.13,0a1,1,0,0,0,0,.39c0,.12.11.12.2.05a.82.82,0,0,0,.24-.3c-.09-.13-.23-.11-.36-.12H8.62v-.3a.2.2,0,0,0,.22-.12.6.6,0,0,0-.08-.08.2.2,0,0,0-.12.22H8.09l-.28,0c-.14,0-.22-.06-.29-.25a.53.53,0,0,0-.16-.23A1.82,1.82,0,0,1,6.68,18a.54.54,0,0,0-.37-.15L6,17.8s-.07-.06-.11-.09a.2.2,0,0,1,.19-.13,3,3,0,0,1,.42,0,.67.67,0,0,1,.49.21,1.31,1.31,0,0,0,.31.27.32.32,0,0,0,.27,0s.07-.05.1-.08a.34.34,0,0,0,.06-.12c0-.27,0-.55,0-.83a.58.58,0,0,1,.09-.26.91.91,0,0,0,.18-.37.33.33,0,0,1,.28-.26.21.21,0,0,0,.12.23l.08-.08a.2.2,0,0,0-.22-.12c0-.18-.08-.23-.25-.28a1,1,0,0,1-.36-.19.68.68,0,0,0-.39-.11,2.84,2.84,0,0,1-.41,0,.3.3,0,0,1-.26-.27.26.26,0,0,0,.23-.12.34.34,0,0,0-.05-.37l-.09-.11a.48.48,0,0,0-.22-.15.24.24,0,0,0-.12.22c0,.09,0,.18,0,.27a.37.37,0,0,0-.25.1,2.54,2.54,0,0,1-.29.28c-.14.11-.23.11-.29-.08A1.59,1.59,0,0,0,5.4,15c-.05-.09,0-.16.1-.19a.42.42,0,0,0,.24-.12c0-.06,0-.2-.17-.32a.52.52,0,0,0-.24-.13.41.41,0,0,1-.23-.13.4.4,0,0,1,.12-.23.6.6,0,0,1,.22-.16.34.34,0,0,1,.26,0,2.43,2.43,0,0,0,.35.2.25.25,0,0,0,.25-.06.23.23,0,0,0,.06-.25.29.29,0,0,0-.18-.18l-.13,0-1.1,0a.76.76,0,0,0-.51.14c-.11.09-.17.09-.22,0a.53.53,0,0,1,0-.12l0-.55a4.94,4.94,0,0,0,.86,0,.2.2,0,0,0,.12.22L5.22,13A.2.2,0,0,0,5,12.83a2.26,2.26,0,0,0,0-.26c0-.21-.07-.26-.22-.18a1.65,1.65,0,0,1-.36.16.32.32,0,0,0-.23.28l-.27,0a.28.28,0,0,0-.27.25c0,.14,0,.28,0,.42a.66.66,0,0,1-.12.38.63.63,0,0,0-.13.24.28.28,0,0,0,.06.25.25.25,0,0,0,.36,0,.56.56,0,0,0,.13-.24S4,14.08,4,14s.13,0,.16.14a.64.64,0,0,0,.11.25.71.71,0,0,1,.17.51.45.45,0,0,1-.05.26.3.3,0,0,1-.23.14v-.27A.23.23,0,0,0,4,14.84a.51.51,0,0,0-.23.15.49.49,0,0,0-.19.35,1.4,1.4,0,0,1-.41-.05A1.14,1.14,0,0,1,3,15.14a.28.28,0,0,0-.26-.05.21.21,0,0,0-.18.18c-.07.38,0,.61.48.62a1.09,1.09,0,0,1,.4,0c.05,0,.07.06.11.09s0,.08-.08.09a1.54,1.54,0,0,0-.57.37l-.49.5c-.11.12-.1.19,0,.35l.19.21c.11.13.11.19,0,.34l-.27.32a.29.29,0,0,0,.12.45l.13,0a1.3,1.3,0,0,1,.23.15c.22.18.22.29,0,.38s-.26.11-.16.27a1,1,0,0,1,.16.52.55.55,0,0,0,.16.37c.17.21.3.21.39,0s.23-.26.42-.28a.49.49,0,0,1,.27.05.25.25,0,0,1,.14.22c.08.19.17.23.29.12l.1-.09a.78.78,0,0,1,.33-.24c.08,0,.15.1.24.14a.33.33,0,0,0,.26,0,.18.18,0,0,0,.1-.09.39.39,0,0,0,0-.26.24.24,0,0,0-.07-.12l-.29-.31c-.08-.09-.09-.17,0-.22a.27.27,0,0,1,.26,0,1.5,1.5,0,0,1,.23.15.35.35,0,0,0,.39,0,1,1,0,0,1,.52-.17.5.5,0,0,1,.27,0,.28.28,0,0,1,.15.22.49.49,0,0,0-.35.19.54.54,0,0,0-.15.22.22.22,0,0,0,.22.12H7m8.9-5.3a.76.76,0,0,0,.53-.1.72.72,0,0,1,.24-.14.8.8,0,0,1,.27,0,.72.72,0,0,0,.47-.26c.08-.08.1-.16,0-.21A.29.29,0,0,0,17.3,14a.71.71,0,0,0-.53.08l-.11.08c-.18.14-.2.09-.51,0-.09-.08-.16-.08-.21,0a.28.28,0,0,0,0,.13,2.53,2.53,0,0,0,0,.55.21.21,0,0,0-.23.12l.08.09a.2.2,0,0,0,.13-.23m-6.13,7.8a.69.69,0,0,1,.13.05.29.29,0,0,1,.14.21c0,.13,0,.27,0,.41a4,4,0,0,1,.23.34.42.42,0,0,1,0,.13.19.19,0,0,0-.21.12l.08.07a.17.17,0,0,0,.11-.21.42.42,0,0,0,.26-.1.69.69,0,0,1,.37-.16.77.77,0,0,0,.52-.16c.15-.09.15-.09.34.1l.2.19a.59.59,0,0,0,.38.14,3.32,3.32,0,0,0,.55,0l.36-.22.13-.05a.32.32,0,0,0,.23-.31,2.84,2.84,0,0,0,0-.41.61.61,0,0,0,0-.14q-.06-.18-.18-.12c-.09,0-.16.1-.25.13a1.8,1.8,0,0,0-.38.16c-.15.11-.22.07-.28-.11a.82.82,0,0,0-.21-.36.67.67,0,0,0-.49-.21c-.51,0-1,0-1.53,0a.28.28,0,0,0-.13,0,1.22,1.22,0,0,0-.32.28.37.37,0,0,0-.1.24.23.23,0,0,0-.22.12l.07.08a.21.21,0,0,0,.13-.22m1.51-.82a2.85,2.85,0,0,0,.79,0,.26.26,0,0,0,.11-.07.29.29,0,0,0,0-.38,1.14,1.14,0,0,0-.3-.28.36.36,0,0,0-.27,0l-.35.21a.41.41,0,0,1-.27,0,2.44,2.44,0,0,1-.43-.35c-.14-.13-.27-.13-.5,0s-.22.09-.29-.1a.43.43,0,0,0-.14-.23.61.61,0,0,0-.24.15c-.13.13-.25.27-.37.41a.3.3,0,0,0,.11.45c.13.05.25.12.38.18s.15.08.26-.18.11-.19.29-.09a.75.75,0,0,0,.39.12.85.85,0,0,1,.39.12l.24.14.18,0M24.14,27l.24-.15a2,2,0,0,1,.26-.09.29.29,0,0,0,.09-.1.27.27,0,0,0,0-.26c0-.08-.12-.05-.22,0a.7.7,0,0,1-.53.13,1,1,0,0,1-.36-.19.36.36,0,0,0-.49.06.94.94,0,0,0-.1.1c-.08.08-.1.16-.05.22a.2.2,0,0,0,.12.06l.69.05.24.14.12,0m.12-25.8c-.16,0-.24,0-.26.21s0,.25.21.27.25,0,.27-.21,0-.24-.22-.27m-12,17.26a.22.22,0,0,0-.1-.22.29.29,0,0,0-.24,0,.23.23,0,0,0-.1.07c0,.09.24.37.33.35s.12-.09.11-.18M13,14.33a.49.49,0,0,0-.14-.21c-.07-.06-.15-.11-.21-.08s-.11.12-.08.22a.3.3,0,0,0,.14.19.28.28,0,0,0,.24,0s0-.06.05-.09M27.19,2.86a.53.53,0,0,0-.16-.2c-.08-.07-.15-.08-.2,0a.22.22,0,0,0,0,.11A.27.27,0,0,0,27.1,3c.11,0,.14-.09.09-.17M6,2.93S6,2.86,6,2.84a.53.53,0,0,0-.49,0s-.07.05-.1.08a.32.32,0,0,0,.2.14c.23,0,.47,0,.48-.13m12,8.81-.11,0c-.06.06-.05.13,0,.21l.09.09a.25.25,0,0,0,.21.08c.1,0,.1-.23,0-.33a.24.24,0,0,0-.23-.09m-10,2.76a.23.23,0,0,0-.11-.21.23.23,0,0,0,0,.4.2.2,0,0,0,.12-.19m4.73,6.71c-.09,0-.16.06-.14.13a.15.15,0,0,0,.21.1c.09,0,.14-.07.15-.14a.17.17,0,0,0-.22-.09M15,12.44a.25.25,0,0,0,0-.09.22.22,0,0,0-.23-.06c-.1,0-.12.12-.06.17a.21.21,0,0,0,.23,0s.07,0,.1-.07M2.37,14l-.09.07c.05.1.1.11.16,0L2.37,14M13,12.05l-.07.06c0,.11.08.11.14,0L13,12.05M7.37,14.42c.1,0,.11-.08,0-.14l-.08.06.07.08m6.22-2.85-.07-.08c-.11,0-.12.09,0,.16l.08-.08m-7.34.07.06-.09h-.1Zm-2.49-.43-.08.07c0,.11.09.11.15,0l-.07-.08m14.14-1,.09.05,0-.1Zm4.81,17.48a.27.27,0,0,1-.08.07c0,.11.09.11.15,0l-.07-.08M15.26,14.92l-.06-.08c-.11,0-.12.09,0,.14l.08-.06m-1.2,12,.06-.09H14Zm-.29-11.42c.12,0,.12-.09,0-.15l-.08.07.06.08m4.28,9.69a.27.27,0,0,0-.07-.08c-.11,0-.12.09,0,.15l.08-.07m-3.08,0-.09-.05v.1Zm-3.7-.76c.12,0,.12-.1,0-.16l-.09.07.08.09m.27-.57c.11,0,.12-.08,0-.14l-.08.07.06.07M9.05,22.36,9,22.42c0,.12.09.12.16,0a.6.6,0,0,0-.08-.08M3.21,3.14l-.06.09h.1Zm21.72,18.8.05-.09h-.1ZM12.66,22c.11,0,.12-.09,0-.14l-.08.06.07.08m4.4-.64.1.06v-.1ZM25.78,21l-.06.09h.1ZM2.09,20.69,2,20.75c0,.1.09.11.15,0l-.07-.08M25,1.54,25,1.46c-.11,0-.12.09,0,.14L25,1.54m-7.8,17.85c0-.12-.09-.12-.15,0a.27.27,0,0,0,.07.08l.08-.06m-2.86-.09-.06.09h.11Zm-3.55.08-.06-.09c-.11.05-.12.1,0,.16l.08-.07M19.29,18l.1.06v-.1ZM7.59,29.22a.28.28,0,0,0,.11-.08.31.31,0,0,0-.07-.09.28.28,0,0,0-.25,0s0,.05,0,.08a.22.22,0,0,0,.24.07M27,.88s-.07.06-.11.09,0,.07.07.09a.25.25,0,0,0,.25,0s0-.06,0-.09A.22.22,0,0,0,27,.88M9.28,29.41h.1l0-.09Zm-2.61-13a.53.53,0,0,1,.24.11.25.25,0,0,0,.22.1.43.43,0,0,0,.21-.15.35.35,0,0,0,.09-.22.36.36,0,0,0-.24-.09H7.06a.41.41,0,0,0-.25.07.21.21,0,0,0-.12.21Zm-3,2.85c-.16,0-.24,0-.26.2s0,.23.21.25.24,0,.26-.2,0-.22-.21-.25m3.74-2.21a.29.29,0,0,0-.24,0s-.06.05-.1.08.25.38.34.36.12-.1.11-.2a.19.19,0,0,0-.11-.21M3.65,15.44a.26.26,0,0,0,.18.14.28.28,0,0,0,.31-.14.56.56,0,0,0,0-.12,2.72,2.72,0,0,1-.57,0,.56.56,0,0,0,0,.12m2.46,1A.21.21,0,0,0,6,16.24a.28.28,0,0,0-.25,0s-.06.06-.09.1a.21.21,0,0,0,.22.12h.26Zm.58,0H6.11l0,0,0,.12a.21.21,0,0,0,.18.14.26.26,0,0,0,.3-.14.42.42,0,0,0,0-.12ZM4.88,15.12c-.11,0-.12.09,0,.14L5,15.2l-.07-.08m1.81.22a.35.35,0,0,0-.3-.3.34.34,0,0,0,.3.3m-.41.34c-.11,0-.12.08,0,.14l.08-.07-.06-.07m5,7.14a.9.9,0,0,0,.31-.24c.07-.08.08-.16,0-.21a.28.28,0,0,0-.25,0,.76.76,0,0,0-.3.24.24.24,0,0,0-.06.11c0,.08,0,.13.15.14s.1,0,.13,0m4.65-9.71a.34.34,0,0,0-.3-.3v.3h.3"/></g></g></svg>