<svg xmlns="http://www.w3.org/2000/svg" viewBox="0 0 29.78 28.95"><defs><style>.cls-1{fill:#008375;}</style></defs><g id="Layer_2" data-name="Layer 2"><g id="Layer_1-2" data-name="Layer 1"><path class="cls-1" d="M0,25.21c0-.59,0-1.42,0-2.26a1.37,1.37,0,0,1,.2-.79.5.5,0,0,0,0-.27.29.29,0,0,0-.07-.12.53.53,0,0,1,0-.53A1.92,1.92,0,0,0,.24,21a1.27,1.27,0,0,0,0-.28c0-.46,0-.93,0-1.39,0-1.49,0-3,0-4.46,0-.18,0-.37,0-.55a.93.93,0,0,0-.12-.4.91.91,0,0,1-.1-.4Q0,10,0,6.41c0-.32,0-.65,0-1,0-.93,0-1.86,0-2.79C0,2,0,1.35,0,.7A.39.39,0,0,1,.44.29l.42,0h4a.92.92,0,0,0,.4-.11.91.91,0,0,1,.4-.1L9.31,0h1c.42,0,.84,0,1.26,0a1.08,1.08,0,0,1,.53.14.48.48,0,0,0,.26.07c.65,0,1.3,0,1.95,0h3.34a1.27,1.27,0,0,0,.54-.14.48.48,0,0,1,.26-.07l.42,0C20.23,0,21.62,0,23,0c.55,0,1.11,0,1.67,0s.93,0,1.39,0a.68.68,0,0,1,.39.12A.92.92,0,0,0,27,.28a5,5,0,0,0,.55,0l.14,0a2,2,0,0,1,.25-.13c.14,0,.25.06.37.08l.26-.11a.43.43,0,0,1,.09.1.72.72,0,0,1-.09.65.17.17,0,0,0,0,.25,1.16,1.16,0,0,1,.18.37,1.34,1.34,0,0,0,.12.24.86.86,0,0,1,.1.41c0,.55,0,1.11.05,1.67a.78.78,0,0,0,.12.39,1,1,0,0,1,.11.4c0,.18,0,.37,0,.55,0,1.26,0,2.51.05,3.76a.56.56,0,0,0,.07.26.83.83,0,0,1,.13.54l0,4.73c0,.79,0,1.58,0,2.37a1.12,1.12,0,0,0,.14.53.3.3,0,0,1,0,.26.44.44,0,0,0,0,.52,1.07,1.07,0,0,1,.1.4c0,.37,0,.74,0,1.11a1,1,0,0,1-.13.53.53.53,0,0,0-.08.27.74.74,0,0,0,.12.53.58.58,0,0,1,0,.53c-.12.24-.12.25-.12.39,0,.74,0,1.48,0,2.23s0,1.2,0,1.81a.5.5,0,0,1-.08.26,1.19,1.19,0,0,0-.13.25,1.18,1.18,0,0,0,0,.27.5.5,0,0,1-.07.27c-.05.08-.09.16-.13.24l.12.25a.5.5,0,0,1,0,.13,2.51,2.51,0,0,1,0,.55.28.28,0,0,1-.11.24l-.13,0c-.19-.08-.19-.09-.37,0a.59.59,0,0,1-.26.07c-.7,0-1.4.06-2.09,0-.28,0-.56,0-.84,0a.88.88,0,0,0-.38.14.74.74,0,0,1-.4.11H24.4a5,5,0,0,0-.55,0c-.56,0-1.12,0-1.67,0-.33,0-.65,0-1,0a.65.65,0,0,0-.26.08.88.88,0,0,1-.4.11c-1.76,0-3.52,0-5.29,0a.84.84,0,0,1-.53-.13.65.65,0,0,0-.26-.08H11.25c-2.83,0-5.66,0-8.49,0H.53a1.33,1.33,0,0,1-.28,0,.3.3,0,0,1-.2-.17.86.86,0,0,1,0-.27C0,27.5,0,26.76,0,26v-.81m3.33-6a.26.26,0,0,0,.22-.12.33.33,0,0,0,0-.26s-.06-.06-.09-.09a.23.23,0,0,0-.13.22v.27a.2.2,0,0,0-.23.12.6.6,0,0,1,.08.08.19.19,0,0,0,.13-.22M2,17.57a.17.17,0,0,0,.11.22l.12,0a.68.68,0,0,0,.4,0,.22.22,0,0,0,.12-.22.2.2,0,0,0-.12-.23.63.63,0,0,0-.52,0,.18.18,0,0,0-.11.22m.69.63-.1,0a.2.2,0,0,0,0,.23c0,.12.11.14.17.07a.26.26,0,0,0,.06-.24s-.06-.07-.08-.1m-.18,1a.26.26,0,0,0,.21-.1.23.23,0,0,0-.2-.12.18.18,0,0,0-.2.11.19.19,0,0,0,.19.11m1.31,2.13a.18.18,0,0,0-.18-.12.24.24,0,0,0-.21.1.19.19,0,0,0,.19.12.22.22,0,0,0,.2-.1m.23.5s-.08,0-.09.07a.26.26,0,0,0,0,.23c0,.12.1.12.16,0a.23.23,0,0,0,0-.23s0-.05-.08-.08m1.1-.72L5.21,21h-.1Zm-1.58-.89c0-.12-.1-.12-.17,0l.08.09.09-.07m1.59-2.6-.06.1h.1ZM3.22,16,3.14,16c0,.11.08.11.14,0L3.22,16m.62-.2-.1-.05v.09ZM2.72,14.36l-.09,0v.1Z"/></g></g></svg>