<svg xmlns="http://www.w3.org/2000/svg" viewBox="0 0 30.06 29.52"><defs><style>.cls-1{fill:#00ac69;}</style></defs><g id="Layer_2" data-name="Layer 2"><g id="Layer_1-2" data-name="Layer 1"><path class="cls-1" d="M10.49.25h6A1.08,1.08,0,0,0,17,.09.59.59,0,0,1,17.27,0c.61,0,1.21,0,1.81,0a1,1,0,0,1,.41.09.78.78,0,0,0,.39.12H20c1.16,0,2.32,0,3.48,0s2.32,0,3.48,0a.5.5,0,0,1,.27.07.35.35,0,0,0,.38,0A.6.6,0,0,1,27.9.29h.41a.67.67,0,0,1,.5.21l.2.19a.69.69,0,0,1,.19.51,1.1,1.1,0,0,1-.14.53.33.33,0,0,0,0,.39.75.75,0,0,0,.07.12.53.53,0,0,1,0,.53.45.45,0,0,0,0,.51.93.93,0,0,1,.12.4.71.71,0,0,0,0,.14v.27c0,2.09.05,4.18,0,6.27a1.32,1.32,0,0,0,0,.28.92.92,0,0,0,.13.24.49.49,0,0,1,0,.53l-.06.12a.31.31,0,0,0,0,.13,5.25,5.25,0,0,0,0,.56c0,1.11,0,2.23,0,3.34,0,1.54,0,3.07,0,4.6a.82.82,0,0,0,.1.4.88.88,0,0,1,.11.4c0,.88,0,1.76,0,2.64,0,1.72,0,3.44,0,5.16a2.48,2.48,0,0,1,0,.27.33.33,0,0,1-.21.16,2,2,0,0,1-.42,0c-1.06,0-2.13,0-3.2,0H23.59a.71.71,0,0,0-.4.09.67.67,0,0,1-.12.06.54.54,0,0,1-.27.07l-.42,0H19.32c-2,0-4,0-6,0H1.49a.33.33,0,0,1-.36-.33l0-.42A.79.79,0,0,0,1,28.37.8.8,0,0,1,.86,28c0-1.39,0-2.78-.06-4.18a.84.84,0,0,0-.1-.39A1.14,1.14,0,0,1,.59,23c0-.6,0-1.21,0-1.81a2,2,0,0,0,0-.42.94.94,0,0,0-.13-.24.44.44,0,0,1,0-.4c0-.09.08-.17.11-.25a.32.32,0,0,0,0-.14c0-.51,0-1,0-1.53,0-.13,0-.13-.11-.39a1.12,1.12,0,0,1-.1-.4V15.75a1.08,1.08,0,0,1,.14-.53,1.39,1.39,0,0,0,.06-.13,2.46,2.46,0,0,0,0-.28c0-1.72,0-3.43,0-5.15a2.62,2.62,0,0,0,0-.28A1.12,1.12,0,0,0,.4,8.85c-.09-.2.12-.34.1-.52s0-.1,0-.14S.4,8,.36,7.94a.33.33,0,0,1,0-.13c0-.28,0-.56,0-.84,0-1.2,0-2.41-.06-3.62a.65.65,0,0,0-.08-.26A.83.83,0,0,1,0,2.56c0-.51,0-1,0-1.53A.86.86,0,0,1,0,.75.29.29,0,0,1,.23.57,1.24,1.24,0,0,1,.5.54c1,0,2,0,2.93,0A1,1,0,0,0,4,.36.68.68,0,0,1,4.22.29l.28,0c1.35,0,2.69,0,4,0,.65,0,1.3,0,2,0Zm14,17.26a.17.17,0,0,0,.21-.11.27.27,0,0,0-.07-.08.19.19,0,0,0-.12.21.21.21,0,0,0-.21.12l.08.07a.18.18,0,0,0,.11-.21m-3.37-1.9a.26.26,0,0,0-.09-.24.32.32,0,0,0-.1.1.19.19,0,0,0,0,.13c0,.11.06.16.14.13a.67.67,0,0,0,.06-.12M19.29,16l.09.06v-.1Zm5.57,0L25,16v-.11Zm-.78,3.15.06-.09h-.09ZM2.7,28.54l-.1-.06v.1Zm2.37,0,.1.06v-.1ZM29.83,13.68c0,.18,0,.37,0,.55a.75.75,0,0,0,.07.12c.06,0,.11-.06.11-.17l0-2.9s0-.09,0-.14A.42.42,0,0,0,30,11l-.08-.08-.07.12c0,.5,0,1,0,1.52,0,.36,0,.73,0,1.1m.2-3.6A.29.29,0,0,0,30,10c0-.12-.08-.15-.12-.09a.25.25,0,0,0,0,.24.16.16,0,0,0,.07.07l.08-.09m0-1.29s0-.06-.06-.09a.19.19,0,0,0-.09.23s0,.08.05.12S30,9,30,8.91a.5.5,0,0,0,0-.12"/></g></g></svg>