<svg xmlns="http://www.w3.org/2000/svg" viewBox="0 0 28.97 29.15"><defs><style>.cls-1{fill:#aada91;}</style></defs><g id="Layer_2" data-name="Layer 2"><g id="Layer_1-2" data-name="Layer 1"><path class="cls-1" d="M2.79.74a2.66,2.66,0,0,1,0-.28.31.31,0,0,1,0-.13c.06-.09.13-.09.23,0A1,1,0,0,0,3.6.47c.19,0,.2,0,.3.25S4,1,4.18.86A.93.93,0,0,1,4.71.73a2,2,0,0,0,.42,0A1.88,1.88,0,0,0,5.36.55.52.52,0,0,1,5.61.44.82.82,0,0,0,5.86.32,1,1,0,0,1,6.39.18c.74,0,1.48,0,2.22,0a.65.65,0,0,1,.27.08A1.2,1.2,0,0,0,9.4.46l.41,0a.28.28,0,0,1,.13,0,1.31,1.31,0,0,0,.66.2,1.37,1.37,0,0,1,.66.19.61.61,0,0,0,.26.08l.42,0a.51.51,0,0,1,.26.09c.19.13.43.17.63.29a1.18,1.18,0,0,0,.52.17.64.64,0,0,1,.26.1c.23.15.52.2.74.37a3.32,3.32,0,0,1,.51.23c.19.13.43.17.61.32a3.75,3.75,0,0,1,.49.25,1,1,0,0,0,.25.12c.22.08.4.24.62.31a3,3,0,0,1,.45.34,1.3,1.3,0,0,0,.23.15,2.38,2.38,0,0,1,.58.37,1.29,1.29,0,0,0,.35.22.72.72,0,0,1,.24.14c.21.18.4.39.62.56a1.41,1.41,0,0,0,.24.13.61.61,0,0,1,.24.15l.82.75a1.27,1.27,0,0,0,.34.23,1,1,0,0,1,.5.47,1.77,1.77,0,0,0,.31.46l.86.91a1.73,1.73,0,0,1,.17.21c.27.38.27.38.47.48a.86.86,0,0,1,.43.52.7.7,0,0,0,.13.24l.28.32a.68.68,0,0,1,.14.23.85.85,0,0,0,.13.25c.06.07.11.14.18.21a1.75,1.75,0,0,1,.29.47,2.36,2.36,0,0,0,.33.45,1.42,1.42,0,0,1,.21.36,5.92,5.92,0,0,1,.3.62,3.26,3.26,0,0,1,.27.48,5.18,5.18,0,0,1,.3.63,2.51,2.51,0,0,1,.31.61,5.25,5.25,0,0,1,.31.63,1.2,1.2,0,0,1,.18.52.61.61,0,0,0,0,.13.5.5,0,0,0,.05.13,1.27,1.27,0,0,1,.2.65,1.19,1.19,0,0,0,.19.66.64.64,0,0,1,.07.27,1.1,1.1,0,0,0,.17.52.62.62,0,0,1,.09.26c0,.14,0,.28,0,.41a1.17,1.17,0,0,0,.13.4,1,1,0,0,1,.12.39c0,.23,0,.46.05.7a.65.65,0,0,0,.08.26.85.85,0,0,1,.15.53c0,.46,0,.92.05,1.39a1,1,0,0,0,.13.39,1.06,1.06,0,0,1,.09.4c0,.74,0,1.48.05,2.23a1,1,0,0,0,.12.39,1.12,1.12,0,0,1,.1.4c0,1,0,1.95,0,2.92,0,.19-.15.3-.38.3H28c-1.39,0-2.79,0-4.18,0a.92.92,0,0,1-.4-.08.9.9,0,0,0-.39-.13h-.14l-7-.07h-.14a.79.79,0,0,1-.53-.13.63.63,0,0,0-.26-.07l-.42,0c-1.76,0-3.53,0-5.29,0-1.39,0-2.78,0-4.17,0H3.88a1.3,1.3,0,0,1-.66-.17.44.44,0,0,0-.39.05c-.16.07-.16.07-.39,0,0,0-.08-.05-.13-.05a.84.84,0,0,0-.54.05,1.2,1.2,0,0,1-.67.15,4.63,4.63,0,0,1-.83,0,.34.34,0,0,1-.21-.16.65.65,0,0,1,0-.13A1.32,1.32,0,0,1,0,28c.05-3.06,0-6.12.05-9.18,0-.33,0-.65,0-1a.78.78,0,0,1,.12-.39A1,1,0,0,0,.27,17c0-1.16,0-2.32,0-3.48,0-.61,0-1.21,0-1.81a.9.9,0,0,1,.09-.4.93.93,0,0,0,.12-.4c0-1.39,0-2.78,0-4.17,0-1.76,0-3.53,0-5.29A1.08,1.08,0,0,1,.75.94.61.61,0,0,0,.83.68C.85.49.86.31.89.13S1,0,1.08,0a.82.82,0,0,0,.25.12A.5.5,0,0,1,1.7.5a.76.76,0,0,0,.35.42.37.37,0,0,0,.39,0L2.67.76l.14,0a.19.19,0,0,0,.12.21L3,.86A.19.19,0,0,0,2.79.74M4.76,25a.2.2,0,0,0,.12.22A.3.3,0,0,0,5,25.11.2.2,0,0,0,4.74,25a.19.19,0,0,0-.13-.22l-.08.08a.21.21,0,0,0,.23.12m8.08-1.65a.57.57,0,0,0-.13,0,.63.63,0,0,0-.38.09l-.19.18c-.08.08-.08.16,0,.21a.35.35,0,0,0,.25,0l.32-.22.13,0a.65.65,0,0,0,0,.14.83.83,0,0,0,.11.4.69.69,0,0,1,.16.51c0,.19,0,.37,0,.56a.63.63,0,0,0,.25.47.7.7,0,0,0,.24.13.32.32,0,0,0,.14,0,1.15,1.15,0,0,1,.52.18c.1.05.17,0,.2-.08a2.54,2.54,0,0,0,0-.55.56.56,0,0,1,.14-.38.7.7,0,0,0,.12-.52c0-.18,0-.22-.24-.3a.49.49,0,0,1-.23-.14.61.61,0,0,1,.15-.23,3.69,3.69,0,0,1,.41-.38l.12-.06a.27.27,0,0,1,.25.06.25.25,0,0,1,.08.25.61.61,0,0,1-.05.12l-.08.12a.44.44,0,0,0-.06.39.38.38,0,0,0,.22.15.3.3,0,0,1,.26.28c0,.13,0,.27,0,.41a.81.81,0,0,1-.12.39c-.11.2-.07.25.24.29a1.19,1.19,0,0,1,.27.07c.1.05.12.12,0,.22s-.07.18,0,.22a.27.27,0,0,0,.26,0,1.78,1.78,0,0,0,.42-.35.17.17,0,0,1,.25,0,.47.47,0,0,0,.12.07l.5-.2s.08,0,.1-.08,0-.15-.09-.18a1.09,1.09,0,0,1-.37-.19.52.52,0,0,0-.25-.11h0a.25.25,0,0,1,.11-.22.33.33,0,0,1,.37,0,1.05,1.05,0,0,1,.11.07.15.15,0,0,0,.23,0,.68.68,0,0,0,.28-.58v-.4a1.08,1.08,0,0,0,.4,0l.08-.1s-.05-.08-.09-.09a.27.27,0,0,0-.26,0,.27.27,0,0,0-.12.22c-.27,0-.54,0-.81,0s-.22-.05-.29-.24a.56.56,0,0,0-.13-.24c-.12-.13-.24-.27-.37-.4a.67.67,0,0,0-.48-.21c-.28,0-.29,0-.58-.31a.76.76,0,0,1-.13-.23c-.08-.26-.09-.27-.25-.18l-.11.07a.35.35,0,0,1-.38,0l-.24-.14a1,1,0,0,0-.31.26.38.38,0,0,0-.11.24v0a.3.3,0,0,1-.28-.24.41.41,0,0,0-.13-.23.55.55,0,0,0-.22.14.54.54,0,0,0-.2.49.57.57,0,0,0,0,.13c-.19,0-.24.08-.28.29m-9.2.81a.21.21,0,0,0,.12.22l.08-.07a.23.23,0,0,0-.22-.13.51.51,0,0,0-.1-.24c-.12-.18-.12-.19,0-.35a.68.68,0,0,0,.1-.52.31.31,0,0,0-.24-.28.62.62,0,0,0-.27,0l-.13,0c-.12,0-.14.11,0,.21.16.31.16.31,0,.61l-.06.12A.82.82,0,0,0,3,24c.19.17.2.17.49.18a.57.57,0,0,0,.13,0m7,.58a1.22,1.22,0,0,0,0-.27c0-.19-.08-.25-.24-.27a.21.21,0,0,0-.24.1s0,.09.07.12.22.29.43.3a.41.41,0,0,1-.11.24c-.13.18-.13.19,0,.35a1.56,1.56,0,0,1,.17.37.22.22,0,0,0,.1.09.34.34,0,0,0,.26,0c.08,0,.15-.1.24-.13a.14.14,0,0,1,.11,0,.72.72,0,0,0,.24.09.47.47,0,0,0,.13-.24.25.25,0,0,1,.31-.2.23.23,0,0,1,.2.14.65.65,0,0,1,0,.13c.07.18.16.21.29.09a.54.54,0,0,0,.16-.21.3.3,0,0,0-.08-.24.59.59,0,0,1-.1-.39.48.48,0,0,0-.06-.26.24.24,0,0,0-.22-.12.29.29,0,0,0-.13-.23.27.27,0,0,0-.25,0s-.06.06-.1.09a.23.23,0,0,0,.22.13h.27a.33.33,0,0,1-.25.26.51.51,0,0,1-.13,0,.73.73,0,0,0-.48.16.38.38,0,0,1-.48,0,.66.66,0,0,0-.35-.16m8.06-1.66a.29.29,0,0,0,0-.13,1.54,1.54,0,0,0-.25-.32.43.43,0,0,0-.38-.07c-.09,0-.11.12-.11.22A.24.24,0,0,0,18,23a3.64,3.64,0,0,1,.49.22q.13,0,.15-.15M8.56,25.55H8.42a.3.3,0,0,0-.24.11.41.41,0,0,0,.14.21.28.28,0,0,0,.1.09.31.31,0,0,0,.12.05c.07,0,.26-.19.28-.28s-.07-.19-.26-.18m8.85-2.44a.87.87,0,0,0-.08.1.32.32,0,0,0,.13.33.33.33,0,0,0,.24,0,.2.2,0,0,0,.07-.09c0-.1-.26-.34-.36-.33m-.76-5.52a.2.2,0,0,0-.19-.12.25.25,0,0,0-.21.11.22.22,0,0,0,.2.13.2.2,0,0,0,.2-.12m-.3.55s-.05-.08-.09-.1a.22.22,0,0,0-.14,0c-.11,0-.15.1-.08.16s.07,0,.11.05.18,0,.2-.11m-14,3.94a.2.2,0,0,0,.24.07c.12,0,.13-.12,0-.17a.23.23,0,0,0-.25,0s0,.06,0,.09m2,.21s-.07,0-.09,0a.2.2,0,0,0-.06.22c0,.1.11.12.17.07a.26.26,0,0,0,.05-.23s-.05-.06-.07-.1m15.89.63a.25.25,0,0,0,0-.09.18.18,0,0,0-.22,0c-.11,0-.13.11-.07.17a.21.21,0,0,0,.23.05s.07-.05.1-.08M2.49,25c-.1,0-.16.06-.14.13a.15.15,0,0,0,.21.09c.08,0,.13-.07.14-.14A.17.17,0,0,0,2.49,25m15.15-6.87.09.06v-.1Zm-2.36,2L15.22,20c-.11,0-.12.09,0,.15l.08-.07m-.35.76-.06.09H15ZM3.29,22.34l-.06-.08c-.11,0-.12.09,0,.15l.08-.07m9.12.33.05-.09h-.09Zm-1.6.78c0-.1-.08-.11-.14,0l.07.07.07-.06m.5.47-.09.07c0,.12.1.12.16,0l-.07-.08m-7.18.93c0-.11-.09-.11-.16,0l.08.08a.27.27,0,0,1,.08-.07m2.14.07c.11-.05.11-.1,0-.16l-.08.07.06.09m1.89-.09.1.06v-.1ZM7.4,25l-.08.06c0,.11.09.12.16,0A.6.6,0,0,0,7.4,25m-4.2.42c.11,0,.12-.08,0-.14l-.08.07.06.07m2.88-.05c0-.13-.1-.13-.16,0l.08.09.08-.07m.83,0c0-.11-.09-.12-.15,0l.07.08.08-.06m-2.3.19-.08.06c0,.11.09.12.15,0l-.07-.07M3,26.24,3,26.16c-.12,0-.12.08,0,.14L3,26.24m7.25,0c0-.11-.09-.12-.16,0l.08.09a.27.27,0,0,1,.08-.07m6.82.81.1.06V27ZM23.69,8.54a.74.74,0,0,0-.21-.62,1.09,1.09,0,0,1-.1-.11,1.8,1.8,0,0,1-.29-.46,1.08,1.08,0,0,0-.37-.4.42.42,0,0,0-.12,0,.15.15,0,0,0-.21.09l.06.13a3.62,3.62,0,0,1,.36.42,2.18,2.18,0,0,0,.28.46l.38.4a.19.19,0,0,0,.1.08.32.32,0,0,0,.14,0ZM17.18,2.86V2.78l-.1,0Zm.47.26h.1l0-.08Zm3,2.08A.19.19,0,0,0,20.51,5l-.08.07a.24.24,0,0,0,.21.12Zm0,0a.33.33,0,0,0,.28.28l0,0a.22.22,0,0,0-.08-.2.28.28,0,0,0-.2-.08Zm.28.28a.23.23,0,0,0,.14.2l.06-.08a.23.23,0,0,0-.22-.1Zm3,3.36a.28.28,0,0,0-.08-.2.24.24,0,0,0-.2-.08l0,0a.3.3,0,0,0,.07.21A.23.23,0,0,0,24,8.8Zm0,0A.21.21,0,0,0,24.1,9,.3.3,0,0,0,24.18,9,.18.18,0,0,0,24,8.82ZM12.82,23.59a.42.42,0,0,1,.24.09c.2.14.27.12.44-.07a.74.74,0,0,0,.14-.22.31.31,0,0,0-.14-.33,1.36,1.36,0,0,0-.4,0c0,.19-.09.25-.28.27v.3m.86.58a.26.26,0,0,0-.21.1.19.19,0,0,0,.19.12.24.24,0,0,0,.21-.1.2.2,0,0,0-.19-.12M17,25.26a1.35,1.35,0,0,0-.4,0l-.09.1s.06.08.1.09a.27.27,0,0,0,.25,0,.24.24,0,0,0,.12-.22ZM14,22.74a.2.2,0,0,0,.13.22.3.3,0,0,1,.08-.08.2.2,0,0,0-.22-.12Zm.14.63-.08.07.06.08c.11,0,.12-.09,0-.15m3.34,1.12-.08.07a.46.46,0,0,0,.07.07c.11,0,.12-.08,0-.14"/></g></g></svg>