<svg xmlns="http://www.w3.org/2000/svg" viewBox="0 0 30 29.48"><defs><style>.cls-1{fill:#aada91;}</style></defs><g id="Layer_2" data-name="Layer 2"><g id="Layer_1-2" data-name="Layer 1"><path class="cls-1" d="M30,26.27c0,.89,0,1.63,0,2.38,0,.14,0,.2-.17.36a.48.48,0,0,1-.36.19l-.69,0-1.39,0a.82.82,0,0,0-.4.1.88.88,0,0,1-.4.11H23.64a.76.76,0,0,1-.39-.13.47.47,0,0,0-.4,0,1.39,1.39,0,0,1-.26.1l-.25-.11-.13,0c-.37,0-.75,0-1.12,0q-4.8,0-9.6,0H7a1,1,0,0,1-.52-.15L6.38,29,6.1,29H2.76l-.83,0a.77.77,0,0,0-.39.14.83.83,0,0,1-.39.12,1.09,1.09,0,0,1-.66-.15A.85.85,0,0,0,.24,29,.56.56,0,0,1,0,28.84a.26.26,0,0,1,.05-.12,1.1,1.1,0,0,0,.14-.53c0-.14,0-.28,0-.42a8.22,8.22,0,0,1,0-1.11c0-.42,0-.84,0-1.25s0-.84,0-1.26c0-1.48,0-3,0-4.45a.86.86,0,0,1,.12-.53.65.65,0,0,0,.08-.27c0-.23,0-.46,0-.69,0-2.14,0-4.27.06-6.4a.88.88,0,0,1,.1-.4A1,1,0,0,0,.71,11v-.7c0-.27,0-.55,0-.83a1.11,1.11,0,0,0-.1-.54.54.54,0,0,1,0-.65.47.47,0,0,0,0-.4L.53,7.64a.61.61,0,0,1,0-.13.71.71,0,0,1,0-.14c0-2.23,0-4.46,0-6.68a3,3,0,0,1,0-.42A.28.28,0,0,1,.75,0a5.24,5.24,0,0,1,.56,0L3.82,0h1a1,1,0,0,1,.4.1.9.9,0,0,0,.39.13c.51,0,1,0,1.53.06a.79.79,0,0,1,.26.08c.09,0,.17.09.26.12a2.48,2.48,0,0,0,.27,0l.84,0a.79.79,0,0,1,.39.13.88.88,0,0,0,.39.11l.56,0a1,1,0,0,1,.4.11,1.21,1.21,0,0,0,.52.16.66.66,0,0,1,.27.09,1.34,1.34,0,0,0,.24.12,1.26,1.26,0,0,0,.28,0l.27,0a.6.6,0,0,1,.27.07c.2.13.43.18.62.31s.43.17.63.3a1.06,1.06,0,0,0,.39.13.92.92,0,0,1,.39.14l.12.07c.12.06.25.11.37.18a2.85,2.85,0,0,1,.33.25,2.34,2.34,0,0,0,.49.27c.23.16.5.24.73.39s.43.18.62.32a1.91,1.91,0,0,1,.59.36,1.61,1.61,0,0,0,.47.29,1.14,1.14,0,0,1,.23.15l.52.46a1.65,1.65,0,0,0,.36.22.83.83,0,0,1,.23.15l.71.66a1.41,1.41,0,0,0,.46.3,1.19,1.19,0,0,1,.23.16l.31.28,1.74,1.8a.75.75,0,0,1,.15.24.62.62,0,0,0,.14.23l1.05,1.11a1,1,0,0,1,.22.35.72.72,0,0,0,.14.24l.56.62a.37.37,0,0,1,.07.12,2,2,0,0,0,.46.69.44.44,0,0,1,.08.11,2.3,2.3,0,0,0,.46.7,1.76,1.76,0,0,1,.14.23,1,1,0,0,0,.12.25l.26.33a1.07,1.07,0,0,1,.21.36c.06.17.19.31.24.49a1.62,1.62,0,0,0,.19.37c.1.16.15.34.26.5a1.17,1.17,0,0,1,.16.52.64.64,0,0,0,.1.26,1.21,1.21,0,0,1,.16.52.73.73,0,0,0,.09.26,1.88,1.88,0,0,1,.18.38c.05.18.19.32.23.5a3.45,3.45,0,0,1,.07.55.58.58,0,0,0,.09.26.89.89,0,0,1,.18.52,1.06,1.06,0,0,0,.13.39.92.92,0,0,1,.11.4c0,.18,0,.37,0,.55a1.1,1.1,0,0,0,.18.52.79.79,0,0,1,.08.26,1.27,1.27,0,0,0,.17.53.79.79,0,0,1,.1.4c0,.37,0,.74,0,1.11a.84.84,0,0,0,.12.39,1.12,1.12,0,0,1,.1.4c0,.47,0,.93,0,1.39v.55M3.63,2.66a.21.21,0,0,0,.24.07s.07,0,.1-.08,0-.08-.06-.09a.23.23,0,0,0-.25,0s0,.06,0,.09m1.15-.37-.06.09h.1ZM24.69,10a.89.89,0,0,0-.21-.64,1.61,1.61,0,0,1-.39-.57c-.05-.07-.1-.15-.16-.22L23.36,8A1.56,1.56,0,0,1,23,7.42a.44.44,0,0,0-.08-.11.48.48,0,0,0-.09-.11c-.09-.1-.2-.19-.29-.29a.71.71,0,0,0-.63-.22l0,0a.61.61,0,0,0,0,.13.57.57,0,0,0,.16.22,1.85,1.85,0,0,1,.4.56,1.12,1.12,0,0,0,.16.22l.57.61.29.3a1.51,1.51,0,0,1,.38.56,3.71,3.71,0,0,0,.66.71.58.58,0,0,0,.14,0ZM20,5a.2.2,0,0,0-.13-.2.46.46,0,0,1-.07.07A.28.28,0,0,0,20,5Zm0,0a.3.3,0,0,0,.28.28l0,0c0-.17-.12-.25-.28-.28Zm.28.28a.21.21,0,0,0,.13.2l.07-.07a.27.27,0,0,0-.22-.11Zm.81.58a.2.2,0,0,0-.13-.21l-.07.08a.23.23,0,0,0,.23.11Zm.28.28c0-.19-.08-.24-.28-.28l0,0c0,.19.07.25.27.28Zm.28.28c0-.2-.08-.25-.28-.28l0,0a.26.26,0,0,0,.08.19.3.3,0,0,0,.2.08Zm.28.28c0-.2-.08-.26-.28-.28l0,0a.3.3,0,0,0,.28.29ZM24.71,10a.25.25,0,0,0,.11.22l.07-.08a.18.18,0,0,0-.2-.12ZM19.32,4.56l-.09,0,0,.09Z"/></g></g></svg>