<svg xmlns="http://www.w3.org/2000/svg" viewBox="0 0 29.49 29.78"><defs><style>.cls-1{fill:#870f54;}</style></defs><g id="Layer_2" data-name="Layer 2"><g id="Layer_1-2" data-name="Layer 1"><path class="cls-1" d="M21.85,29.76H14.61a1.08,1.08,0,0,1-.53-.14.5.5,0,0,0-.27-.07c-1.39,0-2.78-.07-4.17-.06H8.52c-.6,0-1.2,0-1.8,0a1,1,0,0,1-.4-.12.89.89,0,0,0-.26-.09c-.8,0-2.91,0-3.76,0a.67.67,0,0,0-.39.12,1.68,1.68,0,0,1-.53.15.59.59,0,0,0-.26.1c-.2.12-.21.12-.35,0l-.32-.28c-.11-.08-.25-.1-.36-.19A.2.2,0,0,1,0,28.89a.8.8,0,0,1,.11-.25.72.72,0,0,0,.1-.4c0-.19,0-.37,0-.56s0-.46,0-.69c0-.47,0-.93,0-1.39s0-.84,0-1.26,0-.74,0-1.11V23a1.23,1.23,0,0,1,.15-.8.63.63,0,0,0-.09-.25.82.82,0,0,1-.06-.41c0-.56,0-1.11,0-1.67a.85.85,0,0,1,.12-.39.47.47,0,0,0,0-.52.2.2,0,0,1,0-.26,1.25,1.25,0,0,0,.13-.53L.53,16c0-.28,0-.56,0-.84a1,1,0,0,1,.14-.53.5.5,0,0,0,.08-.26c0-.51,0-1,0-1.53,0-.79,0-1.58,0-2.37,0-2.23,0-4.45,0-6.68a1.19,1.19,0,0,0-.13-.53.85.85,0,0,1-.09-.41V.66a.61.61,0,0,1,0-.14A.34.34,0,0,1,.71.3L1,.26c.24,0,.47,0,.7,0,.79,0,1.58,0,2.37,0A.86.86,0,0,0,4.43.1a.77.77,0,0,1,.4-.1.7.7,0,0,1,.4.1,1,1,0,0,0,.39.14c.14,0,.27,0,.41,0A.65.65,0,0,1,6.3.35l.25.12L7,.52a.83.83,0,0,1,.53.15,1,1,0,0,0,.38.14A1.43,1.43,0,0,1,8.4,1a.57.57,0,0,0,.26.08l.41,0a.87.87,0,0,1,.39.14.89.89,0,0,0,.26.09l.42,0a.89.89,0,0,1,.39.12,1,1,0,0,0,.53.14c.23,0,.46,0,.7,0a1.18,1.18,0,0,1,.52.17.41.41,0,0,0,.26.09l.41,0a.74.74,0,0,1,.49.22c.3.26.26.26.6.32a.92.92,0,0,1,.39.14,1.15,1.15,0,0,0,.25.12.94.94,0,0,1,.47.28l.1.09.23.16a5.2,5.2,0,0,1,.62.32.8.8,0,0,1,.24.13l.22.17a1.5,1.5,0,0,0,.47.28c.18.06.32.2.49.26s.32.19.49.26a1.65,1.65,0,0,1,.36.22l.41.37a1.89,1.89,0,0,0,.47.3.66.66,0,0,1,.22.15l.62.57a1.48,1.48,0,0,0,.56.4l.12.08a5.51,5.51,0,0,1,.7.67,1.38,1.38,0,0,1,.22.35,1.14,1.14,0,0,0,.15.23l.95,1a1.77,1.77,0,0,1,.31.46,1.12,1.12,0,0,0,.16.22l.57.61a1.7,1.7,0,0,1,.39.57,1.88,1.88,0,0,0,.16.23c.15.18.31.35.45.53a.94.94,0,0,1,.16.23c.07.17.2.31.26.48a2.26,2.26,0,0,0,.37.59.82.82,0,0,1,.16.22,5.92,5.92,0,0,0,.33.61,1.29,1.29,0,0,0,.28.48,1.62,1.62,0,0,1,.35.59c.13.2.19.43.31.62s.19.43.31.62a1.24,1.24,0,0,1,.18.52.59.59,0,0,0,.1.26c.15.23.21.51.36.75a.77.77,0,0,1,.08.27,1.09,1.09,0,0,0,.11.39,1.12,1.12,0,0,1,.18.52.45.45,0,0,0,.09.26c.16.24.22.51.36.75a.35.35,0,0,1,.05.13c0,.19,0,.37,0,.56l0,.69a2.66,2.66,0,0,0,0,.28,1.19,1.19,0,0,0,.13.25,1.07,1.07,0,0,1,.1.4c0,.37,0,.74,0,1.11a.88.88,0,0,0,.11.39,1,1,0,0,1,.11.4c0,1.63.08,3.25,0,4.87,0,.23,0,.47,0,.7a.43.43,0,0,1-.23.14l-.27,0H27.28l-5.43,0ZM3.8,15.32c0-.16,0-.23-.2-.26s-.24,0-.26.2,0,.23.2.25.23,0,.26-.19m-1-3.63c0,.09.06.14.13.14s.08-.05.09-.09a.22.22,0,0,0,0-.22.25.25,0,0,0-.09,0,.18.18,0,0,0-.09.21m2.33-.1.06-.08-.1,0ZM3.7,13.28l.09-.06c0-.12-.1-.12-.16,0l.07.08M3.63,14l.06.08c.11,0,.11-.09,0-.15L3.63,14m4.18,1.39.07.07c.11,0,.12-.08,0-.13l-.08.06M22.25,7.2a.59.59,0,0,0,.13.5l.74.79a.3.3,0,0,0,.24.1h0s0-.09,0-.13a.72.72,0,0,0-.13-.38,6.91,6.91,0,0,0-.75-.78.33.33,0,0,0-.24-.1ZM23.9,9.45a1.93,1.93,0,0,0,0-.24A.36.36,0,0,0,23.82,9a.26.26,0,0,0-.19-.1v0a.82.82,0,0,0,0,.27.32.32,0,0,0,.26.28ZM19.47,5a.31.31,0,0,0,.28.26.82.82,0,0,0,.27,0l0,0A.32.32,0,0,0,19.68,5h-.24ZM24.2,9.7a.24.24,0,0,0,.12.22l.07-.07a.19.19,0,0,0-.21-.12Zm-.28-.28a.33.33,0,0,0,.28.28l0,0s0-.08,0-.11a.28.28,0,0,0-.26-.17ZM19.16,4.71a.21.21,0,0,0-.12-.2L19,4.58a.3.3,0,0,0,.22.1Zm0,0a.28.28,0,0,0,.28.28l0,0a.23.23,0,0,0-.07-.2.32.32,0,0,0-.21-.08Zm.83.56a.28.28,0,0,0,.08.2.3.3,0,0,0,.2.08l0,0A.29.29,0,0,0,20,5.27Zm.54.58a.27.27,0,0,0-.17-.25l-.11,0,0,0a.31.31,0,0,0,.28.28Zm0,0a.22.22,0,0,0,.13.2l.06-.08a.21.21,0,0,0-.21-.1Zm.81.58a.2.2,0,0,0-.13-.21.27.27,0,0,1-.07.08.23.23,0,0,0,.23.11Zm0,0c0,.19.07.25.27.27l0,0c0-.19-.08-.24-.28-.28Zm.53.58a.3.3,0,0,0-.28-.28l0,0a.29.29,0,0,0,.09.2.26.26,0,0,0,.19.08Zm.29.27A.3.3,0,0,0,22.06,7l-.11,0,0,0a.3.3,0,0,0,.08.21.21.21,0,0,0,.2.08Zm1.12,1.38a.3.3,0,0,0,.08.21.21.21,0,0,0,.2.07v0a.32.32,0,0,0-.08-.21.23.23,0,0,0-.2-.08Z"/></g></g></svg>