<svg xmlns="http://www.w3.org/2000/svg" viewBox="0 0 30.2 28.98"><defs><style>.cls-1{fill:#008375;}</style></defs><g id="Layer_2" data-name="Layer 2"><g id="Layer_1-2" data-name="Layer 1"><path class="cls-1" d="M27.49,25.07a.53.53,0,0,1-.12.25c-.12.16-.12.24.05.3a1,1,0,0,1,.36.2c.14.12.26.26.39.39a.15.15,0,0,1,0,.25,7.4,7.4,0,0,1-.69.68.54.54,0,0,1-.37.15l-.42,0a1.84,1.84,0,0,1-.41,0c-.08-.05-.16-.09-.24-.15a1,1,0,0,0-.53-.12.26.26,0,0,1-.21-.14.33.33,0,0,1,0-.13l0,0a1,1,0,0,0,.41-.06c.1,0,.11-.14.11-.24s0-.18-.13-.22a1.88,1.88,0,0,1-.38-.18.47.47,0,0,0-.12-.07.73.73,0,0,0-.23.12.85.85,0,0,1-.26.11.32.32,0,0,0-.21.32c0,.14,0,.28,0,.41s0,.2-.1.25-.15,0-.22-.07l-.2-.2c-.08-.07-.16-.11-.23-.07a.21.21,0,0,0-.06.25c.06.17.2.3.26.48s.11.22.29.12.3-.12.5,0l.12.07a.35.35,0,0,0,.39,0,1.1,1.1,0,0,1,.65-.19,5.9,5.9,0,0,1,.84,0,.36.36,0,0,1,.23.14,1.37,1.37,0,0,0,.15.38c.11.17.09.21-.1.28a1.15,1.15,0,0,0-.25.12.71.71,0,0,1-.52.17h-.56a.77.77,0,0,0-.38.14.68.68,0,0,1-.39.11c-.84,0-1.67,0-2.51,0H18.16c-.28,0-.56,0-.84,0a1.07,1.07,0,0,1-.52-.17.5.5,0,0,0-.26-.08H11.8a.81.81,0,0,1-.52-.15.17.17,0,0,0-.24,0,.64.64,0,0,1-.4.11l-.83,0a.83.83,0,0,1-.53-.15A.47.47,0,0,0,9,28.43a1.48,1.48,0,0,1-.64-.23.5.5,0,0,0-.27,0L8,28.28c-.23.13-.32.14-.51,0s-.16-.1-.24-.13a1.33,1.33,0,0,0-.28,0c-.56,0-1.11,0-1.67,0H3.76a1.72,1.72,0,0,0-.68.07l-.25.13-.26-.12a.58.58,0,0,0-.26-.06c-.14,0-.28,0-.42,0A.53.53,0,0,1,1.53,28c-.31-.29-.61-.58-.89-.89a.37.37,0,0,1-.12-.24.33.33,0,0,1,.16-.35c.28-.15.28-.15.32-.4a.83.83,0,0,1,.18-.51.67.67,0,0,0,.09-.26.72.72,0,0,0-.07-.41.47.47,0,0,0-.07-.12.17.17,0,0,1,0-.25.47.47,0,0,0,.07-.12.67.67,0,0,0,.07-.4.48.48,0,0,0-.09-.26,1.49,1.49,0,0,1-.14-.24,1.12,1.12,0,0,1,0-.41c0-.19,0-.37,0-.56,0-.7,0-1.39,0-2.09a.75.75,0,0,1,.13-.39.57.57,0,0,0,.12-.39l0-1A1.22,1.22,0,0,0,1.11,18c-.1-.18-.09-.24,0-.52a.15.15,0,0,0,0-.24.53.53,0,0,1,0-.53c.1-.17.1-.17,0-.37a.56.56,0,0,1,0-.53.77.77,0,0,0,.11-.39l0-1.11a5.9,5.9,0,0,0,0-.84.77.77,0,0,0-.11-.39.93.93,0,0,1-.12-.4q0-.56,0-1.11a1,1,0,0,1,.14-.53.47.47,0,0,0,.08-.26c0-.42,0-.83,0-1.25s0-.56,0-.84.11-.35.32-.37a2.66,2.66,0,0,0,.28,0,1.41,1.41,0,0,0,.24-.13.68.68,0,0,1,.39-.11H3.78a.21.21,0,0,1,.2.14.26.26,0,0,1-.24.12H3.19a1.27,1.27,0,0,0-.28,0,.15.15,0,0,0-.11.08c0,.06,0,.13.13.15a1.86,1.86,0,0,1,.41.08s.06.06.09.09a.43.43,0,0,1-.1.09,3.93,3.93,0,0,1-.69.06c-.11,0-.16.1-.12.16a.18.18,0,0,0,.11.08,2.4,2.4,0,0,0,.28,0c.2,0,.3.13.32.36a1.26,1.26,0,0,0,0,.28,1.5,1.5,0,0,0,.15.23.62.62,0,0,0,.22.17l.12-.05A1.15,1.15,0,0,1,4,10.07a.22.22,0,0,1,.25.07.29.29,0,0,1-.12.22.48.48,0,0,1-.35.19,1.07,1.07,0,0,0-.4.1.43.43,0,0,0-.1.09.37.37,0,0,0,0,.26.27.27,0,0,0,.37.06,1.83,1.83,0,0,1,.24-.13.3.3,0,0,1,.26,0,.22.22,0,0,1,.14.22l0,.28a.2.2,0,0,0-.22.12l.08.08a.2.2,0,0,0,.12-.22l.27,0a.22.22,0,0,1,.21.13.5.5,0,0,1-.16.22.86.86,0,0,1-.36.2.85.85,0,0,0-.33.24c-.08.08-.11.16-.06.22a.26.26,0,0,0,.26.05l.12-.06c.2-.12.2-.12.36,0s.25.1.37.16a1.35,1.35,0,0,1,.32.26l.29.3a.76.76,0,0,1,.08.11.65.65,0,0,1,0,.13,2.44,2.44,0,0,0-.54,0c-.1,0-.19,0-.23.13a.44.44,0,0,0,0,.26.42.42,0,0,0,.22.15.38.38,0,0,1,.28.27.38.38,0,0,0,.15.22.32.32,0,0,0,.13-.23,7.48,7.48,0,0,0,0-.82.78.78,0,0,1,.36.19.37.37,0,0,0,.5-.06l.1-.1c.11-.13.1-.19,0-.34a.52.52,0,0,0-.21-.18c-.12-.07-.26-.08-.37-.16a1.85,1.85,0,0,0-.37-.19c-.18,0-.22-.12-.23-.29a1.08,1.08,0,0,0-.15-.53c-.1-.16-.08-.2.13-.28a.34.34,0,0,0,.22-.14.36.36,0,0,0,0-.27.29.29,0,0,0-.22-.15.29.29,0,0,1-.22-.15.3.3,0,0,1,0-.26.22.22,0,0,1,.22-.13l0,0a.28.28,0,0,0,.14.22.46.46,0,0,0,.26.07l.7,0a.3.3,0,0,0,.13,0c.12,0,.22-.15.37-.14a.8.8,0,0,0,.24.13.3.3,0,0,0,.26,0,.18.18,0,0,0,.09-.1.28.28,0,0,0,0-.25.2.2,0,0,0-.11-.09.42.42,0,0,1-.24-.12s0-.14,0-.23a.67.67,0,0,0,.11-.39c0-.51,0-1,0-1.53v0l.13,0c.15-.1.26-.25.41-.36a.58.58,0,0,1,.38-.15l.27,0a.71.71,0,0,0,.52-.16,1.07,1.07,0,0,1,.52-.14.27.27,0,0,0,.26-.27l0-.28v0a.44.44,0,0,0,.24-.11l.2-.19c.22-.22.23-.23.46-.09a.41.41,0,0,0,.5,0,.68.68,0,0,1,.39-.13h.41a1.12,1.12,0,0,1,.41,0,1,1,0,0,1,.24.14.7.7,0,0,0,.4.09A.49.49,0,0,0,13.54,6c.21-.19.39-.4.61-.57a.49.49,0,0,1,.25-.1.76.76,0,0,1,.53.12s.08.06.12.06a.54.54,0,0,0,.25-.09c.15-.1.35-.11.49-.24s.16-.09.24,0,.18.08.23,0a.25.25,0,0,0,0-.25s-.06-.07-.1-.09a.59.59,0,0,0-.26-.07h-.28a.79.79,0,0,0-.39.13.56.56,0,0,1-.38.14,2.45,2.45,0,0,1-.27,0,.27.27,0,0,1-.18-.19,2.45,2.45,0,0,1,0-.27.3.3,0,0,1,.21-.32.51.51,0,0,0,.24-.13.69.69,0,0,0-.09-.25c0-.07,0-.15.07-.23l.48-.5c.08-.08.11-.16.06-.22a.25.25,0,0,0-.25-.07L15,2.86c-.08.05-.15.12-.23.16a2.16,2.16,0,0,1-.27,0c-.26,0-.29.06-.41.3s-.06.13-.3.25-.22.13-.24.31,0,.27,0,.41v.28s0,.09,0,.14a.25.25,0,0,1-.16.2.2.2,0,0,1-.25,0c0-.06,0-.14.06-.23.15-.3.07-.48-.2-.5h-.13l-.42,0-.13,0a1.3,1.3,0,0,0-.37-.19,2.75,2.75,0,0,0-.41,0c-.24,0-.24,0-.51.17a.76.76,0,0,1-.26.11.34.34,0,0,0-.26.28l0,0a.29.29,0,0,1-.28-.21.47.47,0,0,0-.33-.35.31.31,0,0,1-.23-.27l0,0,.56,0,.13,0c.12,0,.12-.11,0-.21a.66.66,0,0,0-.59-.29H9.2a.48.48,0,0,0-.26.06.32.32,0,0,0-.15.22l0,0a.34.34,0,0,1-.29-.25c0-.1-.06-.19-.15-.23a.39.39,0,0,0-.26,0A.28.28,0,0,0,8,3.07a2.7,2.7,0,0,1,0,.28.56.56,0,0,1,0,.12l-.1.1a.33.33,0,0,1-.26,0c-.07,0-.06-.14,0-.22a.16.16,0,0,0,0-.24,1.14,1.14,0,0,0-.32-.26.3.3,0,0,0-.13,0c-.33,0-.65,0-1,0a.57.57,0,0,0-.39.12c-.08.09-.16.1-.21,0a.25.25,0,0,1,0-.25.22.22,0,0,1,.1-.09.33.33,0,0,1,.13,0l.28,0c.32,0,.64,0,1,0a.74.74,0,0,0,.39-.11.94.94,0,0,1,.24-.13,1.33,1.33,0,0,1,.28,0,4,4,0,0,0,.69,0A.13.13,0,0,0,8.7,2a2,2,0,0,0-.27-.31c-.08-.08-.11-.16-.07-.22a.24.24,0,0,1,.26-.06.67.67,0,0,1,.12.06A1.42,1.42,0,0,0,9,1.62a1.4,1.4,0,0,0,.41.06.51.51,0,0,1,.25.11,1.1,1.1,0,0,1,.26.31.33.33,0,0,1,0,.13,1.09,1.09,0,0,0-.4,0l-.08.1s.06.08.1.09a.25.25,0,0,0,.25,0,.27.27,0,0,0,.11-.23.88.88,0,0,0,.28,0c.19,0,.21,0,.28-.26a.34.34,0,0,1,.15-.22.49.49,0,0,1,.27-.06.68.68,0,0,1,.39.11,1.18,1.18,0,0,0,.37.19c.11,0,.15.1.11.18a.37.37,0,0,0-.07.25c0,.08,0,.08.38.1s.32.1.2.33a.7.7,0,0,0-.09.53.28.28,0,0,0,.15.22s.09,0,.13,0a.36.36,0,0,0,.25-.11A1.2,1.2,0,0,0,13,3.15c0-.09,0-.18,0-.28a.67.67,0,0,0-.13-.38c-.09-.17-.09-.17.15-.27a.85.85,0,0,0,.25-.13c.15-.1.21-.08.35,0l.31.28a.73.73,0,0,0,.54.07l.24-.14a.77.77,0,0,1,.39-.11h.56a.38.38,0,0,0,.4-.3s0-.09,0-.14c0-.24.09-.32.16-.28s.12.13.11.24a.57.57,0,0,0,0,.13.25.25,0,0,0,.1.25c.06,0,.21-.06.32-.19s.1-.16,0-.25a.16.16,0,0,1-.05-.23l.09-.11c.15-.16.23-.18.35-.08l.2.18a.55.55,0,0,0,.24.15.43.43,0,0,0,.14-.23.3.3,0,0,1,.31-.23l.27,0A1.08,1.08,0,0,0,18.85,1c.16-.09.17-.08.27.16s.18.21.3.09a2.12,2.12,0,0,1,.43-.35,1.89,1.89,0,0,0,.5-.23.21.21,0,0,1,.12-.05l.56,0h.69a.74.74,0,0,0,.52-.16A.62.62,0,0,1,22.5.29c.23,0,.46,0,.69,0a.73.73,0,0,0,.38-.14A.61.61,0,0,1,24,0h.28c.55,0,1.11,0,1.66,0h.28c.33,0,.65,0,1,0h1a1,1,0,0,1,.52.17,1.12,1.12,0,0,0,.25.11.5.5,0,0,1,.25.13c.1.09.19.19.29.29A1,1,0,0,1,29.7,1c.05.18.16.34.21.51a.7.7,0,0,1,0,.14A2.45,2.45,0,0,1,30,2c0,.89,0,1.77,0,2.65a.38.38,0,0,1-.28.41.33.33,0,0,0-.24.31,2.48,2.48,0,0,0,0,.27c0,.14,0,.28,0,.42a.5.5,0,0,1-.12.39.88.88,0,0,0-.15.52,1,1,0,0,1-.17.66.75.75,0,0,0-.07.12s0,.09,0,.14a7.66,7.66,0,0,0,0,.83c0,.23,0,.46,0,.7a.77.77,0,0,1-.07.26c-.05.08-.09.17-.13.25l.13.24a.31.31,0,0,1,.06.13c0,.37,0,.74,0,1.11,0,.15.08.26.15.38a.39.39,0,0,1,0,.5l-.18.21a.69.69,0,0,0-.16.22.75.75,0,0,0,.07.12,1,1,0,0,1,.13.53.41.41,0,0,0,.09.26,1.88,1.88,0,0,1,.14.24.3.3,0,0,1,0,.13c0,.33,0,.65,0,1a1.1,1.1,0,0,1-.12.39c-.12.24-.12.26-.12.39l0,2.36c0,.19,0,.37,0,.56a.62.62,0,0,1-.09.26,1.41,1.41,0,0,0-.13.24,1.32,1.32,0,0,0,0,.28.66.66,0,0,0,0,.14.87.87,0,0,0,.14.52.38.38,0,0,1,0,.51,3.54,3.54,0,0,0-.35.42.36.36,0,0,0,0,.27.75.75,0,0,0,.07.12.82.82,0,0,1,.18.65v1a.77.77,0,0,0,.14.39c.09.16.05.23-.15.26l-.28,0a.19.19,0,0,0-.12-.21l-.08.07a.22.22,0,0,0,.22.13,1.22,1.22,0,0,0,0,.27c0,.18,0,.2.25.29s.18.07.22.16a.63.63,0,0,1,0,.52.29.29,0,0,1-.09.1.31.31,0,0,1-.13,0c-.37,0-.74,0-1.11,0,0-.21-.16-.31-.29-.42l-.12-.07a.2.2,0,0,0-.1.22.22.22,0,0,0,.13.21,1.07,1.07,0,0,0,.4,0m-1.41-.54A.22.22,0,0,0,26,24.3l-.08.09a.21.21,0,0,0,.23.12.2.2,0,0,0,.12.22l.08-.08a.22.22,0,0,0-.22-.12m-20.35.56a.18.18,0,0,0-.12-.22l-.08.07a.2.2,0,0,0,.22.13.24.24,0,0,0,.12.22L6,25.21a.2.2,0,0,0-.22-.12M16.34,8.65a.2.2,0,0,0-.21.11l.07.08a.22.22,0,0,0,.12-.22.19.19,0,0,0,.21-.11l-.07-.08a.24.24,0,0,0-.12.22M8,12a.21.21,0,0,0-.12-.22l-.07.08A.19.19,0,0,0,8,12a.19.19,0,0,0,.12.21l.08-.07A.2.2,0,0,0,8,12m2.25,2.79a.85.85,0,0,0-.39,0,.32.32,0,0,0-.1.1.43.43,0,0,0,.1.09.31.31,0,0,0,.25,0,.24.24,0,0,0,.12-.22.22.22,0,0,0,.23-.13l-.09-.08a.21.21,0,0,0-.12.23m4.44-8.64a.23.23,0,0,0-.12-.22.28.28,0,0,0-.25,0s-.06.07-.1.1a.21.21,0,0,0,.22.12h.27a.25.25,0,0,0,.12.23.33.33,0,0,0,.26,0s.06-.06.1-.09a.25.25,0,0,0-.23-.13h-.27M6.87,25.9a.21.21,0,0,0,.11.22A.6.6,0,0,0,7.06,26a.19.19,0,0,0-.21-.12,1.22,1.22,0,0,0,0-.27.61.61,0,0,0,0-.13.26.26,0,0,0-.23-.12c-.1,0-.18,0-.22.11a.3.3,0,0,0,0,.26c0,.09.13.11.23.12a1.17,1.17,0,0,0,.27,0m3.62-3.06a.53.53,0,0,0,0,.12.25.25,0,0,0,.31.13.29.29,0,0,0,.17-.17.25.25,0,0,0-.13-.31l-.12,0a.5.5,0,0,0,0-.13.31.31,0,0,0-.35-.11l-.24.13c-.15,0-.25-.09-.37-.14s-.09,0-.13,0a.2.2,0,0,0-.21.14.66.66,0,0,0,.08.65s0,.08.07.12a.49.49,0,0,1-.11.23l-.06.12a.32.32,0,0,0,.17.34,1.24,1.24,0,0,1,.37.17c.1.07.18.08.22,0a.3.3,0,0,0,0-.26c0-.08-.09-.15-.14-.23a1,1,0,0,1,.17-.36.61.61,0,0,0,0-.13.34.34,0,0,1,.29-.25M7.42,24.53l0,0a.37.37,0,0,1-.1.26c-.07.08-.09.17,0,.22a.35.35,0,0,0,.26.07h.14c.17,0,.23-.05.29-.24s.19-.26.43-.28h.14a.82.82,0,0,1,.53.12c.1.07.18.09.23,0a.27.27,0,0,0,0-.26.83.83,0,0,0-.15-.23.4.4,0,0,1-.08-.26c0-.33,0-.65,0-1a.68.68,0,0,0-.26-.47.55.55,0,0,0-.23-.14,1,1,0,0,0-.42,0,.25.25,0,0,0-.18.19,1.06,1.06,0,0,1-.29.46,2.08,2.08,0,0,0-.27.32c0,.3-.27.47-.45.68a.23.23,0,0,0-.06.12.2.2,0,0,0,.06.12.81.81,0,0,0,.43.32m5.84,0c.31,0,.63,0,.94,0a.82.82,0,0,0,.27,0,.2.2,0,0,0,.1-.08.3.3,0,0,0,0-.37,1.35,1.35,0,0,0-.4-.35,1.53,1.53,0,0,1-.48-.23.71.71,0,0,0-.65,0c-.11.07-.2.17-.35.17l0,0a1.09,1.09,0,0,0-.07-.4.18.18,0,0,0-.09-.1.46.46,0,0,0-.26,0,.42.42,0,0,0-.12.08c-.28.17-.3.18-.61,0-.1-.09-.17-.08-.21.05a.53.53,0,0,0,0,.12,3.39,3.39,0,0,0,0,.55h-.27a.27.27,0,0,0-.26.25,1.56,1.56,0,0,0,0,.68A.21.21,0,0,0,11,25a.23.23,0,0,0,.23-.11,2.72,2.72,0,0,0,.11-.25c.08-.12.23-.13.34-.2a.2.2,0,0,0,.08-.1.43.43,0,0,0-.1-.09c-.17-.06-.35-.11-.38-.33a.3.3,0,0,0,.25-.09c.08-.07.16-.11.23-.07A.44.44,0,0,1,12,24a.39.39,0,0,1,.12.24,5.07,5.07,0,0,1,0,.55c0,.22.14.33.27.45a.52.52,0,0,0,.24.13.76.76,0,0,1,.26.11,1.09,1.09,0,0,0,.23.14.72.72,0,0,0,.41,0c.16,0,.21-.16.1-.28l-.09-.1a1,1,0,0,1-.26-.32.94.94,0,0,1,0-.41ZM7.36,14a.62.62,0,0,0-.52.11.68.68,0,0,1-.39.13l-.13,0a.3.3,0,0,0-.23.13.68.68,0,0,0,.14.23l.11.09c.08.07.15.06.24,0s.17-.09.22,0a.3.3,0,0,1,0,.26s-.06.07-.1.09l-.13,0a.58.58,0,0,1-.51-.1.71.71,0,0,0-.24-.13.27.27,0,0,0-.25.07.25.25,0,0,0,0,.36.24.24,0,0,0,.12.07l.41.05a4.05,4.05,0,0,0,.35.21.3.3,0,0,0,.26,0,1,1,0,0,0,.3-.27.37.37,0,0,0,.1-.26s0-.09,0-.13c0-.24.06-.27.32-.39a.33.33,0,0,0,.2-.18.27.27,0,0,0-.05-.25.25.25,0,0,0-.24-.1M16,4.46l.37,0a.26.26,0,0,0,.21-.14s-.06-.08-.1-.09A1,1,0,0,1,16,3.94c-.06-.07-.14-.12-.2-.18a.16.16,0,0,0-.24,0,1.71,1.71,0,0,0-.2.18.4.4,0,0,0-.05.38.36.36,0,0,0,.23.13,3,3,0,0,0,.44,0M14.63,25.34a.61.61,0,0,0,0-.13,1,1,0,0,0-.39-.38.29.29,0,0,0-.26.05c-.06.06,0,.14.05.22s.26.27.39.39a.45.45,0,0,0,.12.06.18.18,0,0,0,.12-.21M11.45,22h.2l.1-.09a.13.13,0,0,0,0-.09.17.17,0,0,0-.11-.06c-.19,0-.31-.19-.48-.27a.57.57,0,0,0-.13,0c-.11,0-.17.06-.16.15a.27.27,0,0,0,.06.12.65.65,0,0,0,.54.24M11.17,2.78a.46.46,0,0,0-.26.07c-.09,0-.07.12,0,.19a.84.84,0,0,1,.37.17c.1.07.18.08.22,0a.3.3,0,0,0,0-.26.22.22,0,0,0-.1-.09.76.76,0,0,0-.27-.06m6,.32a.21.21,0,0,0-.08-.25l-.12.07L16.82,3a.33.33,0,0,0-.11.23c.05.1.27.09.36,0a.39.39,0,0,0,.06-.11M12.34,22.75c0-.06-.05-.2-.19-.3a.17.17,0,0,0-.11-.06c-.08,0-.12.06-.14.16a.2.2,0,0,0,.1.22.29.29,0,0,0,.24.05s.07-.05.1-.07M11.2,7.43a.5.5,0,0,0,.22-.16c.08-.09.11-.17.05-.22a.25.25,0,0,0-.37.31.26.26,0,0,0,.1.07M9.85,16a.55.55,0,0,0-.24-.3.39.39,0,0,0-.11-.06.21.21,0,0,0-.11.21c0,.1,0,.18.12.22a.43.43,0,0,0,.25,0L9.85,16m7.78,9.19a.17.17,0,0,0-.18-.11.26.26,0,0,0-.21.1.24.24,0,0,0,.19.12.2.2,0,0,0,.2-.11M12.81,7.07a.2.2,0,0,0,0,.08.2.2,0,0,0,.22.06c.1,0,.12-.11.06-.16a.19.19,0,0,0-.22,0,.23.23,0,0,0-.1.07M15.67,8.2s-.05-.08-.09-.09a.19.19,0,0,0-.13,0c-.12,0-.15.09-.09.16a.22.22,0,0,0,.11.05.17.17,0,0,0,.2-.12m1-2.47a.22.22,0,0,0,.25.08s.07-.06.1-.09,0-.08-.07-.09a.23.23,0,0,0-.25,0s0,.06,0,.09M10.37,17.94l-.08-.1a.3.3,0,0,0-.23.06c-.07.07-.05.14.06.18a.22.22,0,0,0,.23,0s0-.06,0-.09m-.83-4.11s0-.07,0-.09a.19.19,0,0,0-.22-.05c-.11,0-.13.1-.07.16a.25.25,0,0,0,.22.05s.07-.05.1-.07M8.67,14l-.08.06c0,.11.09.12.16,0L8.67,14m1.93-1c.11,0,.12-.08,0-.14l-.08.07.06.07m-.53-3.77L10,9.32c0,.11.1.11.16,0l-.07-.08M22.89,27.1l-.06.09h.1ZM10.14,7.66a.46.46,0,0,1-.07-.07c-.11,0-.12.08,0,.14l.08-.07m-5,18.12c0-.1-.09-.11-.15,0l.07.08.08-.07m19.7-.48c.11-.05.11-.1,0-.16l-.07.07.06.09m3.43-.63c0-.12-.09-.12-.15,0a.27.27,0,0,1,.07.08l.08-.07M14.53,6.75l-.08.06c0,.11.09.12.15,0l-.07-.08M12,6.18l-.08.07c0,.12.09.12.15,0L12,6.18m4-.46c-.05-.12-.1-.12-.16,0l.07.09L16,5.72M7.08,23.28c0-.11-.1-.11-.16,0l.07.08.09-.07m8.62-2-.09-.06v.1Zm12.48-2-.08.06c0,.12.09.12.15,0a.27.27,0,0,0-.07-.08M9,18.26,9,18.18c-.11,0-.11.09,0,.14L9,18.26m3.06-.56L12,17.64v.1Zm-3.4-.08-.08.06c0,.11.08.11.14,0l-.06-.08M1.85,1.68H1.59a.21.21,0,0,0-.21.12.39.39,0,0,0,0,.24.63.63,0,0,0,.12.23.37.37,0,0,1,.1.23l0,0a.44.44,0,0,1,.25.11l.3.28c.12.12.16.12.34,0s.13-.08.53-.11l0,0V2.66a1.18,1.18,0,0,0,0-.27.74.74,0,0,0-.15-.21.56.56,0,0,1-.1-.24l0,0-.51,0A.37.37,0,0,1,2,1.87a.35.35,0,0,1-.12-.21Zm8.64,2.76a.38.38,0,0,1-.26.29.89.89,0,0,0-.52.41s0,.08,0,.13a.78.78,0,0,0,0,.4.18.18,0,0,0,.09.1l.13,0a.27.27,0,0,0,.25-.08,1.06,1.06,0,0,0,.32-.43c.07-.2.08-.21.26-.28A.37.37,0,0,0,11,4.88a.68.68,0,0,0-.14-.23.53.53,0,0,0-.35-.19ZM13.25.05a.29.29,0,0,0-.13.05A.16.16,0,0,0,13,.32a.32.32,0,0,0,.33.17,1.29,1.29,0,0,1,.77-.21c.46,0,.92,0,1.38,0a.31.31,0,0,0,.12,0s0-.06.06-.08L15.58,0c-.41,0-.82,0-1.23,0a10,10,0,0,0-1.1,0M9.63,3.63a.27.27,0,0,0-.1-.21.32.32,0,0,0-.23-.08H8.79l0,0a.61.61,0,0,1,0,.13,4,4,0,0,1-.23.34,1.42,1.42,0,0,1-.23.48.5.5,0,0,0,0,.13.25.25,0,0,0,.34.27.18.18,0,0,0,.1-.09c0-.08.06-.17.1-.25A4,4,0,0,0,9.05,4a1.86,1.86,0,0,1,.1-.25.28.28,0,0,1,.1-.09,1.1,1.1,0,0,1,.4-.05ZM.69,20.24c-.06-.12-.13-.24-.2-.36a3.31,3.31,0,0,1,0-.55c0-.23,0-.46,0-.69a.21.21,0,0,0-.07-.11c-.06,0-.12,0-.15.13a2.51,2.51,0,0,0,0,.27,1.74,1.74,0,0,1-.14.38.19.19,0,0,0,0,.13,1.15,1.15,0,0,1,.12.25c0,.13,0,.27,0,.41a.57.57,0,0,0,.34.4c.08,0,.15,0,.18-.13a.29.29,0,0,0,0-.13M7.27,1.94a.47.47,0,0,0,.12-.23.2.2,0,0,0-.09-.24s-.09,0-.12,0a.32.32,0,0,1-.36,0c-.09-.07-.17,0-.2.07A1.22,1.22,0,0,1,6.44,2c-.07.09-.08.16,0,.2a.46.46,0,0,0,.26.06.58.58,0,0,0,.57-.27M2.11,7a2.61,2.61,0,0,1,0-.28A.39.39,0,0,0,2,6.44,3.23,3.23,0,0,0,1.5,6c-.08-.07-.15,0-.18.09a.64.64,0,0,0,0,.41c0,.14.18.19.31.24s.23.15.35.22a.59.59,0,0,0,.14,0ZM3,2.77c0,.19-.2.31-.26.48s.07.32.17.33a2.48,2.48,0,0,0,.27,0,.33.33,0,0,0,.25-.1.25.25,0,0,0-.07-.23A.55.55,0,0,1,3.23,3,.3.3,0,0,0,3,2.79ZM7.13,7l.82,0a.22.22,0,0,0,.2-.12s-.06-.08-.1-.09a1.41,1.41,0,0,1-.37-.18l-.12-.07a.65.65,0,0,0-.21.16A.51.51,0,0,0,7.14,7ZM3.94,3.12c-.09,0-.08.12,0,.22a1,1,0,0,1,.18.37.28.28,0,0,0,.36.11c.07,0,.06-.13,0-.22a1.3,1.3,0,0,1-.17-.38.21.21,0,0,0-.23-.12.3.3,0,0,0-.13,0M.7,14.8a.31.31,0,0,0-.12-.23.3.3,0,0,0-.13.21,2.3,2.3,0,0,0,0,.26.58.58,0,0,1-.09.25c-.06.09-.07.17,0,.23a.21.21,0,0,0,.24,0,.38.38,0,0,0,.13-.22c0-.09,0-.18,0-.2a1.11,1.11,0,0,0,0-.33M9.92,6.41a.31.31,0,0,0-.25-.27A2,2,0,0,1,9.31,6l-.11,0a.18.18,0,0,0-.08.23.27.27,0,0,0,.28.23,4.69,4.69,0,0,0,.53,0ZM16.7.2s.05-.05.08-.08L16.68,0h-.27a.27.27,0,0,0-.24.08c-.05.07.09.14.27.14a.46.46,0,0,0,.26,0M5.45,10.3a2.5,2.5,0,0,0,.67-.05s.07-.05.1-.08-.06-.08-.1-.09a.63.63,0,0,0-.52,0,.24.24,0,0,0-.13.22Zm-.62-1a.19.19,0,0,0-.23-.11.22.22,0,0,0-.12,0c-.07.05,0,.2.15.31a.45.45,0,0,0,.12.06.17.17,0,0,0,.12-.19.42.42,0,0,0,0-.12M4.37,6.86c-.08-.07-.17-.1-.22,0a.24.24,0,0,0,0,.26.27.27,0,0,0,.35.1s0-.06.07-.1a.62.62,0,0,0-.17-.22m25,20.1s-.06-.07-.08-.11-.07,0-.08.06a.36.36,0,0,0-.06.25c0,.18.09.34.14.31a.21.21,0,0,0,.09-.24,2.44,2.44,0,0,0,0-.27M1.76,7.65c-.05-.07-.12-.06-.2,0l-.09.09A.2.2,0,0,0,1.4,8c0,.1.23.1.33,0a.26.26,0,0,0,.08-.23s0-.08-.05-.1m5.65.16a.28.28,0,0,0-.12-.23.3.3,0,0,0-.26,0s-.06.06-.09.09a.21.21,0,0,0,.21.13h.27Zm17.83,19a.26.26,0,0,0-.12-.23.27.27,0,0,0-.26,0,.45.45,0,0,0-.09.1.21.21,0,0,0,.22.12h.27ZM8.44,6.27s0-.08-.09-.1a.29.29,0,0,0-.13,0c-.12,0-.16.07-.13.15a.67.67,0,0,0,.12.06.19.19,0,0,0,.23-.1M7.05,5.9A.28.28,0,0,0,6.94,6s0,.08.09.1a.21.21,0,0,0,.24,0s0-.07,0-.1a.22.22,0,0,0-.24,0m23.14,4s-.05,0-.07-.08a.17.17,0,0,0-.09.22s0,.09.06.11.1,0,.11-.12a.53.53,0,0,0,0-.13M3.94,2a.19.19,0,0,0-.12.19.23.23,0,0,0,.11.21A.2.2,0,0,0,4,2.23.26.26,0,0,0,3.94,2m8.81-.4a.22.22,0,0,0,.09.24s.08-.05.1-.09a.2.2,0,0,0,0-.24s-.06,0-.09,0a.6.6,0,0,0-.06.11M6.64,9.88c0,.1.09.11.15,0a.46.46,0,0,0-.07-.07l-.08.06M27.9,28.77l-.08.07.07.07.08-.06-.07-.08M2.69,7.51a.22.22,0,0,0,.11.22l.08-.08a.19.19,0,0,0-.21-.12Zm0,0c0-.19-.08-.25-.28-.28l0,0a.24.24,0,0,0,.08.2.23.23,0,0,0,.2.08ZM7.14,7A.17.17,0,0,0,7,7.06c0,.08,0,.13.09.09S7.13,7,7.13,7Zm-5,0c0,.19.08.25.28.28l0,0c0-.2-.09-.25-.28-.28ZM12,5.08c-.11,0-.12.09,0,.14l.08-.06L12,5.08M1.38,4.62h.09l0-.1Zm5.56-.56.1,0L7,4ZM1.45,3.52l0-.1-.1.05Zm.12-1a.17.17,0,0,0-.2.12l.07.08a.22.22,0,0,0,.11-.22Zm1.85-.17h-.1l0,.1Zm2.39-.26c0,.1.09.11.15,0L5.89,2l-.08.06M2.67,1.94a.24.24,0,0,0,.22-.12l-.08-.09A.21.21,0,0,0,2.69,2Zm-.84-.28A.19.19,0,0,0,2,1.54L2,1.46a.21.21,0,0,0-.12.22ZM13.71,1.3V1.21l-.1,0Zm-.45,23.23a.17.17,0,0,0-.12-.2l-.08.07a.22.22,0,0,0,.22.11Zm-.54-.84a.19.19,0,0,0-.21.12l.08.08a.21.21,0,0,0,.11-.22Zm-4,0a.68.68,0,0,0-.18-.2c-.1-.08-.17-.08-.21,0a1.09,1.09,0,0,1-.17.36c-.07.09-.09.17,0,.22a.3.3,0,0,0,.25.06,1,1,0,0,0,.38-.37.36.36,0,0,0,0-.11m-1.29.77a.26.26,0,0,0,.23-.12.27.27,0,0,0,0-.26s-.06-.06-.09-.09a.23.23,0,0,0-.13.22,1.22,1.22,0,0,0,0,.27Zm3.07-1.65a.34.34,0,0,0,.3-.3.34.34,0,0,0-.3.3"/></g></g></svg>