<svg xmlns="http://www.w3.org/2000/svg" viewBox="0 0 28.95 29.22"><defs><style>.cls-1{fill:#ffc557;}</style></defs><g id="Layer_2" data-name="Layer 2"><g id="Layer_1-2" data-name="Layer 1"><path class="cls-1" d="M6.94,15c.15,0,.25.11.36.18a.32.32,0,0,0,.46-.13,1,1,0,0,0,0-.41c0-.12-.11-.15-.2-.1a.41.41,0,0,1-.24.07.32.32,0,0,1-.12-.25c-.1-.19-.1-.19-.06-.61,0-.12-.16-.22-.1-.36s.15-.23.17-.37,0-.09,0-.14,0-.27,0-.41l.12,0a.3.3,0,0,0,.14-.33,1.45,1.45,0,0,0-.36-.38.49.49,0,0,0-.24-.08,2.71,2.71,0,0,0-.4,0,.39.39,0,0,1-.24-.06.34.34,0,0,1-.14-.22.21.21,0,0,0,.23-.12l-.08-.08a.19.19,0,0,0-.13.22.21.21,0,0,0-.21.12.46.46,0,0,0-.07.26.56.56,0,0,1,0,.13c0,.16.09.23.21.3a.92.92,0,0,1,.36.17c.16.08.17.08.27-.16s.18-.23.37,0a.53.53,0,0,1,.19.34.61.61,0,0,0-.13,0,2,2,0,0,0-.42.35.18.18,0,0,1-.24.05.38.38,0,0,0-.24-.08.4.4,0,0,0-.12.23c0,.12-.1.16-.19.11A2.81,2.81,0,0,0,5.4,13L5,12.65c-.14-.11-.17-.1-.27.14s-.1.21-.29.12a.29.29,0,0,0-.12-.07.34.34,0,0,0-.26,0,.28.28,0,0,0-.14.23,2.51,2.51,0,0,1,0,.27.59.59,0,0,1-.21.35c-.19.18-.25.14-.43-.07a.49.49,0,0,1-.16-.37A2.47,2.47,0,0,0,3,12.72a.35.35,0,0,0-.34-.16.24.24,0,0,0-.12.07c-.21.12-.33.07-.33-.2s0-.51.35-.29l.12.06A.28.28,0,0,0,3,12c0-.14,0-.24-.19-.31s-.26-.11-.31-.24a1.18,1.18,0,0,0-.19-.37.9.9,0,0,1-.09-.53.5.5,0,0,1,0-.13c.06-.12.15-.23.2-.36a2.53,2.53,0,0,1,.18-.37.79.79,0,0,0,.11-.39l0-.42a.27.27,0,0,1,.27-.25,1.31,1.31,0,0,1,.28,0l0,0A.71.71,0,0,0,3.59,9a.5.5,0,0,0,.34.15h.25a.38.38,0,0,1-.11.24l-.37.4a.25.25,0,0,0-.07.25.23.23,0,0,0,.15.2.29.29,0,0,0,.26,0,1.15,1.15,0,0,0,.37-.39.82.82,0,0,0,0-.41.3.3,0,0,0-.28-.24l.06-.41a1.82,1.82,0,0,1,.15-.23.61.61,0,0,0,.09-.39.42.42,0,0,0-.07-.27c0-.08-.09-.15-.14-.23a.44.44,0,0,1,.08-.1l.25-.11a.2.2,0,0,0,.11-.23.28.28,0,0,0,0-.12C4.58,7,4.5,7,4.41,7.1a.16.16,0,0,1-.25,0C4,7,4,7,3.89,7.22a.89.89,0,0,1-.05.13,1.32,1.32,0,0,1-.39.39.5.5,0,0,1-.13,0l0,0a.66.66,0,0,0,0-.14c0-.31,0-.31-.2-.5a1.59,1.59,0,0,1-.38-.57.27.27,0,0,0-.21-.16.66.66,0,0,0-.14,0c-.11,0-.13.12-.06.22a.23.23,0,0,1,0,.25c-.07.13-.11.24,0,.37a.42.42,0,0,1,0,.51.37.37,0,0,0-.07.12A2.53,2.53,0,0,1,2,8.49a.69.69,0,0,0-.05.13l0,0a.34.34,0,0,0-.3.3l0,0-.28,0a.28.28,0,0,0-.27.26,2.36,2.36,0,0,1,0,.28A.87.87,0,0,1,.66,10,.29.29,0,0,1,.4,9.92c-.05-.06,0-.15,0-.24a.41.41,0,0,0,0-.51C.25,9,.24,8.85.35,8.67s.13-.2,0-.36a1,1,0,0,1-.12-.4c0-.37,0-.74,0-1.11a.71.71,0,0,0-.12-.39.31.31,0,0,1,0-.26,1,1,0,0,0,.15-.52c0-.51,0-1,0-1.53a1,1,0,0,0-.15-.53A.5.5,0,0,1,0,3.31C0,3.17,0,3,0,2.89s0-.55,0-.83a.68.68,0,0,1,.11-.4,1.24,1.24,0,0,0,.17-.37A1,1,0,0,1,.66.89C.78.81.92.78,1,.71A.85.85,0,0,1,1.56.55l.28,0A.87.87,0,0,0,2.23.39a.47.47,0,0,1,.52,0l.12.06a.65.65,0,0,0,.66,0L3.65.36a.82.82,0,0,1,.67,0l.25.11L4.83.34A.76.76,0,0,1,5.1.28c.64,0,1.29,0,1.94,0A1.05,1.05,0,0,0,7.57.09.41.41,0,0,1,8,.08,1.92,1.92,0,0,1,8.21.2a.35.35,0,0,0,.14,0c.32,0,.65,0,1,0h.56c.12,0,.14,0,.39-.11a1,1,0,0,1,.4-.11h.83a10.44,10.44,0,0,1,1.12,0,.79.79,0,0,1,.53.13.65.65,0,0,0,.26.08l.7,0,2.78,0c2.65,0,5.29,0,7.94,0h1a.6.6,0,0,1,.27.06c.18.09.18.09.5,0a2.41,2.41,0,0,1,.62.29.2.2,0,0,1,.06.11.25.25,0,0,1-.07.25.37.37,0,0,1-.12.07.42.42,0,0,0-.34.38l-.21.36a.58.58,0,0,0,0,.14c0,.24,0,.45.3.54.12,0,.14.12.08.18a.27.27,0,0,1-.12.06,2.66,2.66,0,0,1-.28,0,.33.33,0,0,0-.22.14.5.5,0,0,0,.16.22,1.42,1.42,0,0,0,.36.21c.17.06.17.06.26.29a2.53,2.53,0,0,0,.2.36.29.29,0,0,1,.05.13,5.23,5.23,0,0,1,0,1,1.18,1.18,0,0,1,0,.27,1.19,1.19,0,0,1-.13.25A.7.7,0,0,0,27,6a1,1,0,0,0,.14.66c.07.09.09.16,0,.24s-.09.23.08.3.25.12.18.27l-.06.13a.7.7,0,0,0-.07.4.41.41,0,0,0,.09.26,1.38,1.38,0,0,1,.14.24,2,2,0,0,1,.09.26l.07.12a.77.77,0,0,1,.14.38c0,.61,0,1.21,0,1.81,0,.79,0,1.58,0,2.37a1.32,1.32,0,0,0,0,.28A.83.83,0,0,0,28,14a.8.8,0,0,1,.11.4,1.06,1.06,0,0,0,.13.39.78.78,0,0,1,.12.39c0,.37,0,.74,0,1.12a1.06,1.06,0,0,0,.16.52.6.6,0,0,1,.07.27l0,.41a.77.77,0,0,0,.14.39.77.77,0,0,1,.11.39c0,.65,0,1.3,0,1.95a.91.91,0,0,1-.1.4,1.1,1.1,0,0,0-.12.39c0,1.09,0,2.35,0,3.07a1.1,1.1,0,0,0,.15.52,1.12,1.12,0,0,1,0,.13.68.68,0,0,1,0,.14c0,.23,0,.46,0,.69,0,.47,0,.93,0,1.4a1,1,0,0,1-.12.39.45.45,0,0,0,0,.52.24.24,0,0,1,0,.26c-.06.12-.11.25-.18.38a.31.31,0,0,1-.21.16l-.27,0c-.6,0-1.21,0-1.81,0H25.25a1.13,1.13,0,0,0-.53.15c-.18.09-.27.09-.52,0a.93.93,0,0,0-.26-.1l-.41,0a.81.81,0,0,1-.4-.12,1,1,0,0,0-.53-.14c-.41,0-.83,0-1.25,0a1.12,1.12,0,0,1-.52-.17.19.19,0,0,0-.24.05l-.19.19a.94.94,0,0,1-.12.09.22.22,0,0,1-.25,0,.68.68,0,0,0-.39-.13.92.92,0,0,1-.39-.11,1.49,1.49,0,0,0-.24-.14,1.33,1.33,0,0,0-.28,0h-.28a.65.65,0,0,1-.54-.38l-.06-.12c-.12-.27-.12-.27-.39-.15l-.13.06a.44.44,0,0,0-.36.37.73.73,0,0,1-.24.33.56.56,0,0,1-.37.15.66.66,0,0,1-.53-.15.89.89,0,0,0-.39-.12h-.55A.77.77,0,0,1,14.5,28a.79.79,0,0,0-.53-.15h-.13c-.14,0-.29,0-.39.12a.44.44,0,0,0-.11.25l-.1.09a.2.2,0,0,1-.14-.19c0-.19,0-.37,0-.56a1.08,1.08,0,0,0,.4,0,.22.22,0,0,0,.14-.2.2.2,0,0,0-.1-.23l-.12.06a.64.64,0,0,0-.3.43c-.41,0-.82,0-1.24,0a.63.63,0,0,0-.39.11,1.12,1.12,0,0,1-.24.13,1.26,1.26,0,0,1-.27,0,.71.71,0,0,0-.38.15l-.2.19a.54.54,0,0,1-.22.15L10,28.27a.67.67,0,0,0-.52-.14.59.59,0,0,0-.13,0c-.12.07-.24.15-.36.21a2.54,2.54,0,0,0-.38.16c-.28.17-.4.16-.61,0l-.21-.19c-.13-.12-.18-.13-.35,0a1.08,1.08,0,0,1-.53.12.19.19,0,0,0-.12-.21l-.08.07a.21.21,0,0,0,.22.12.33.33,0,0,1-.27.27,1.23,1.23,0,0,1-.27,0,1.12,1.12,0,0,1-.41,0,1.2,1.2,0,0,1-.24-.15c-.18-.11-.26-.11-.5,0a.77.77,0,0,1-.38.14.74.74,0,0,0-.51.19.39.39,0,0,1-.5-.06.53.53,0,0,0-.39-.07.36.36,0,0,0-.16.22.24.24,0,0,1-.16.21.45.45,0,0,1-.39-.05L2.66,29a.83.83,0,0,0-.54,0l-.24.12a.79.79,0,0,1-.67,0,1.55,1.55,0,0,0-.65-.21.29.29,0,0,1-.26-.28,2.48,2.48,0,0,1,0-.27V26.57c0-.83,0-1.66,0-2.49s0-1.38,0-2.08c0-.51,0-1,0-1.52s0-.74,0-1.11c0-.78,0-1.57,0-2.35a.52.52,0,0,1,.07-.27.3.3,0,0,0,0-.37.61.61,0,0,1-.08-.26,5.75,5.75,0,0,1,0-.83A.29.29,0,0,1,.55,15a.2.2,0,0,0,.12.22.27.27,0,0,1,.08-.07A.21.21,0,0,0,.53,15a.51.51,0,0,0-.1-.25.41.41,0,0,1-.12-.36c0-.13,0-.15.27-.26s.16-.09.25-.29.12-.21.29-.23a.75.75,0,0,1,.26,0v0c0,.13,0,.26,0,.39v.38a.4.4,0,0,0,.07.24.33.33,0,0,0,.21.13v0a.59.59,0,0,1,0,.13l-.23.33c0,.05,0,.09,0,.14a.22.22,0,0,0,.14.2.33.33,0,0,0,.26,0,1.14,1.14,0,0,0,.31-.27A.36.36,0,0,0,2.21,15c0-.09,0-.19,0-.28l0,0a.33.33,0,0,0,.3-.31l0,0a.29.29,0,0,1,.23.13.48.48,0,0,1,0,.27c0,.23,0,.46,0,.69a.61.61,0,0,1,0,.13c0,.1-.12.11-.21,0s-.18-.09-.23,0a.26.26,0,0,0,0,.26c0,.08.1.15.14.23s0,.16-.12.18A.31.31,0,0,1,2,16.33a.76.76,0,0,0-.23-.13.62.62,0,0,0-.22.17.5.5,0,0,0-.16.22s0,.09,0,.14.23.26.42.16a1.59,1.59,0,0,1,.37-.18,2,2,0,0,1,.42,0,.67.67,0,0,1,.49.21c.15.14.18.19.19.35l0,.28a.24.24,0,0,0-.23.13.53.53,0,0,0,0,.12.18.18,0,0,0,.11.23.22.22,0,0,0,.14-.2,1.29,1.29,0,0,0,0-.28h.39a.66.66,0,0,1,.48.18c.2.18.2.29,0,.36a1.28,1.28,0,0,0-.24.11.88.88,0,0,1-.34.19.32.32,0,0,0-.24.28,1.09,1.09,0,0,0-.4,0s-.06.06-.08.09.05.08.09.09a.28.28,0,0,0,.25,0,.21.21,0,0,0,.12-.21l.26,0a.33.33,0,0,1,.3.37.8.8,0,0,1-.18.49.32.32,0,0,0-.08.25.2.2,0,0,0-.22.12l.08.09a.26.26,0,0,0,.12-.23l.85,0,0,0a.38.38,0,0,0,.11.24.3.3,0,0,1,.08.22.49.49,0,0,1-.23.11c-.15.05-.17.13-.09.29a.75.75,0,0,1,.09.25.73.73,0,0,1-.13.62.32.32,0,0,0-.09.24.17.17,0,0,0-.19.09.06.06,0,0,0,0,.08.18.18,0,0,0,.19.09,1.26,1.26,0,0,0,0,.39c0,.12.11.12.2,0a.62.62,0,0,0,.23-.3C4.55,22,4.41,22,4.28,22a.56.56,0,0,0-.13,0,.94.94,0,0,0,0-.29,3.25,3.25,0,0,0,.54,0A.49.49,0,0,0,5,21.6a.87.87,0,0,0,.36-.55L5.4,21a.34.34,0,0,1,.09.08c.07.12,0,.26.07.39a.34.34,0,0,0,.26.28c.19.07.19.08.28.26s.12.26.26.18a.25.25,0,0,1,.35,0,.37.37,0,0,0,.25.09.66.66,0,0,1,0,.14.57.57,0,0,1-.2.48l-.19.2c-.11.13-.09.23.07.29a.56.56,0,0,1,.24.13.76.76,0,0,0,0,.11c-.11.26-.07.32.19.33a2.44,2.44,0,0,0,.54,0c.11,0,.17-.1.14-.17a1.16,1.16,0,0,1-.18-.5.83.83,0,0,0-.18-.5.68.68,0,0,1-.12-.24c-.07-.18-.09-.22-.28-.24A.36.36,0,0,1,7.2,22a.37.37,0,0,0,.29-.39c0-.09,0-.18,0-.26s.11-.15.17-.21A4,4,0,0,0,8,20.82a.42.42,0,0,0,.09-.24l0-.27,0,0a.43.43,0,0,0,.25-.1,1.19,1.19,0,0,1,.23-.16A2.16,2.16,0,0,1,8.8,20l.14,0a.29.29,0,0,0,.2-.16.21.21,0,0,0-.05-.25c-.06,0-.15,0-.24.06a.57.57,0,0,1-.38.11H8.05l0,0c0-.22-.21-.28-.38-.34s-.07-.05-.11-.08a.87.87,0,0,1,.11-.09l.13,0,.83,0,.11-.08c0-.06,0-.13-.11-.16a2.4,2.4,0,0,0-.28,0,.49.49,0,0,1-.25-.1.73.73,0,0,1-.34-.71.53.53,0,0,0,0-.12c0-.13-.12-.14-.22-.06a1.12,1.12,0,0,1-.24.13,1.38,1.38,0,0,0-.57.37,1,1,0,0,1-.35.22c-.22.09-.22.1-.25.29l0,.27,0,0a2.53,2.53,0,0,1-.55,0l-.13-.05c-.09,0-.1-.12,0-.21a.73.73,0,0,0,.12-.39c0-.14,0-.28,0-.42a.35.35,0,0,1,.12-.23.75.75,0,0,1,.13.06.2.2,0,0,0,.24,0,.85.85,0,0,1,.52-.16A2,2,0,0,0,7,17.77a.23.23,0,0,0,.18-.17.21.21,0,0,0-.06-.25.29.29,0,0,0-.26-.05.79.79,0,0,0-.23.14.41.41,0,0,1-.26.09,5.77,5.77,0,0,1-.83,0,.14.14,0,0,1-.14-.17.82.82,0,0,1,.4-.36l.56,0s.1,0,.13,0a1,1,0,0,0,.4-.37.28.28,0,0,0,0-.27.2.2,0,0,0-.22-.12s-.1,0-.14,0l-.36.21a.74.74,0,0,0-.37.17c-.1.09-.17.1-.21,0a.34.34,0,0,1,0-.26.18.18,0,0,1,.1-.09,1.06,1.06,0,0,0,.47-.27.5.5,0,0,0,.19-.36c0-.09,0-.18,0-.27a.52.52,0,0,1,.06-.13A.24.24,0,0,1,6.68,15l0,0a.22.22,0,0,0,.11.2.07.07,0,0,0,.09,0A.21.21,0,0,0,7,15Zm.56,9.45a.19.19,0,0,0,.21-.12l-.07-.08a.2.2,0,0,0-.12.22c-.09,0-.17,0-.2.09s0,.12.09.09.1-.11.09-.2M4.72,10.56a.28.28,0,0,0-.23.12.61.61,0,0,0,0,.13.19.19,0,0,0,.11.22.19.19,0,0,0,.15-.19.82.82,0,0,0,0-.27c.09,0,.17,0,.19-.1s0-.13-.09-.1a.18.18,0,0,0-.1.19M4.73,25a.21.21,0,0,0,.13.22l.07-.08a.22.22,0,0,0-.22-.11.58.58,0,0,1,.09-.23c.16-.25.14-.3-.11-.32H4.43c0-.09,0-.18,0-.27A.45.45,0,0,1,4.53,24c.14-.23.09-.31-.17-.32a3.41,3.41,0,0,0-.55,0c-.11,0-.14.11-.07.2a3.13,3.13,0,0,0,.58.57.61.61,0,0,0,.13,0v.24c0,.19.06.24.28.31m3.62-2.76a1.22,1.22,0,0,0,.27,0,.21.21,0,0,0,.2-.14A.45.45,0,0,0,8.76,22a.86.86,0,0,0-.31-.26.23.23,0,0,0-.25,0,.16.16,0,0,0,0,.23.53.53,0,0,1,.12.25.26.26,0,0,0-.23.12.61.61,0,0,0,0,.13.2.2,0,0,0,.11.23.23.23,0,0,0,.15-.2,1.22,1.22,0,0,0,0-.27M4.15,11.41a2.17,2.17,0,0,0,0-.26c0-.2-.14-.3-.35-.3H3.66a.23.23,0,0,0-.23.11.18.18,0,0,0,.16.15.81.81,0,0,1,.34.19.36.36,0,0,0,.24.09,1.84,1.84,0,0,0,0,.66.76.76,0,0,0,.08.11c.09,0,.39-.27.36-.35a.57.57,0,0,0-.15-.22.52.52,0,0,0-.35-.18m4.19,3.05a.38.38,0,0,0,.24-.11c.06-.06.13-.12.19-.19a.36.36,0,0,0,.06-.37c0-.1-.12-.12-.22-.11a.25.25,0,0,0-.22.13.76.76,0,0,0-.06.26,2.68,2.68,0,0,0,0,.4.18.18,0,0,0-.2.09c0,.09,0,.14.09.1a.18.18,0,0,0,.1-.2m-3,12,0,.27c0,.19,0,.21-.24.29l-.12.05a.32.32,0,0,0-.1.1l.1.09a.62.62,0,0,0,.52,0c.12-.1.11-.24.13-.37a.34.34,0,0,0-.06-.26.24.24,0,0,0-.22-.12,2,2,0,0,0,0-.42A.24.24,0,0,0,5,25.93a.25.25,0,0,0-.24.11.61.61,0,0,0,0,.12.6.6,0,0,1-.13.25.2.2,0,0,0,0,.23c.06.09.26.09.38,0a.8.8,0,0,1,.36-.2M7,27l0,0a.33.33,0,0,0,.25.27.3.3,0,0,0,.25-.07l.1-.08c.18-.17.2-.24.07-.44a.53.53,0,0,1-.11-.24.2.2,0,0,0,.22-.12l-.08-.08a.19.19,0,0,0-.12.22l-.27,0A.25.25,0,0,1,7,26.33a.48.48,0,0,1,.15-.22.71.71,0,0,1,.33-.22.8.8,0,0,0,.25-.11,1.45,1.45,0,0,1,.35-.18c.17-.05.2-.17.09-.28L8,25.15c-.11-.11-.25-.08-.38-.09a2.43,2.43,0,0,1-.27,0,.45.45,0,0,0-.25.07.31.31,0,0,0-.14.22l0,0-.53,0a.34.34,0,0,0-.3.21s0,.09,0,.12a.5.5,0,0,1-.3.23c-.11,0-.15.1-.12.16a.39.39,0,0,0,.1.08c.19,0,.33.11.36.31a.22.22,0,0,0-.19.09s0,.06,0,.08a.2.2,0,0,0,.19.1.57.57,0,0,0,0,.26.65.65,0,0,0,0,.13.26.26,0,0,0,.09.09.51.51,0,0,0,.25.05c.16-.07.27-.23.46-.24M6,8.42l-.11,0a2.09,2.09,0,0,1-.37.17.28.28,0,0,0-.2.17.39.39,0,0,0,0,.26.94.94,0,0,1,.22.62.29.29,0,0,0,.12.24.56.56,0,0,0,.22-.13,2,2,0,0,0,.38-.39.42.42,0,0,0,0-.12,1.22,1.22,0,0,1-.2-.35c0-.13,0-.27,0-.4A.28.28,0,0,0,6,8.42M5.94,22.53a.59.59,0,0,0-.37.13l-.09.1c-.13.16-.15.2-.06.34s.11.24.16.37.11.13.19.07a.86.86,0,0,0,.28-.29c.07-.11.09-.25.16-.36a.5.5,0,0,0,.1-.23.46.46,0,0,0-.37-.13m-4.28-4.7V18s0,.09,0,.13a.31.31,0,0,0,.15.22.43.43,0,0,0,.38-.07,1.56,1.56,0,0,0,.23-.34c0-.09-.06-.34-.14-.35l-.28,0a.31.31,0,0,0-.25.06.2.2,0,0,0-.11.22M19.47,27.6a.3.3,0,0,0,0-.13s-.05-.08-.07-.12a1.63,1.63,0,0,1-.25-.47.18.18,0,0,0-.09-.1.57.57,0,0,0-.26,0c-.08,0-.18.26-.14.34l.06.11a1.45,1.45,0,0,1,.26.47.23.23,0,0,0,.21.13c.17,0,.25,0,.27-.21M5.42,7.44l-.24.1A.33.33,0,0,0,5,7.88a.81.81,0,0,0,.25.3c.08.08.16.08.21,0a1.73,1.73,0,0,0,.1-.24A3.87,3.87,0,0,1,5.8,7.6a.3.3,0,0,0,0-.25c0-.06-.13,0-.22,0l-.12.07M10,20.1a.29.29,0,0,0-.19-.3.33.33,0,0,0-.24,0,.19.19,0,0,0-.09.09.75.75,0,0,0,0,.51.39.39,0,0,0,.08.1.86.86,0,0,0,.33-.2.37.37,0,0,0,.1-.23M5.27,11.71c-.17,0-.22,0-.24.23a.25.25,0,0,0,.2.27.23.23,0,0,0,.3-.28c0-.16-.09-.22-.26-.22m2.05-1.12a.34.34,0,0,0-.32.18,1.41,1.41,0,0,0,0,.41s0,.08.08.1.13,0,.15-.13a1.16,1.16,0,0,1,.18-.35c.06-.1.05-.16-.07-.21M20.05,27.72a.48.48,0,0,0-.06-.24l-.07-.11-.09.09a.34.34,0,0,0-.06.24c0,.17.07.34.14.34s.14-.16.14-.32M8.41,26.21a.43.43,0,0,0-.17,0c-.09,0-.12.1-.15.18a.17.17,0,0,0,.08.23c.07,0,.15,0,.22-.08l.09-.09c.1-.14.06-.23-.07-.25M5,11.11c0,.16,0,.24.2.26a.19.19,0,0,0,.13,0,.14.14,0,0,0,.1-.08c0-.09-.19-.37-.3-.36a.18.18,0,0,0-.1.07.35.35,0,0,0,0,.11m3.57,1.37c0-.19-.15-.21-.26-.1l-.09.09a.32.32,0,0,0-.1.22.2.2,0,0,0,.24.08c.16,0,.23-.13.21-.29M.87,15.9c-.1,0-.18,0-.23.07s0,.2.17.3.16.07.21,0a.22.22,0,0,0,.05-.11.23.23,0,0,0-.2-.27m13,5.56a.2.2,0,0,0-.1-.22.32.32,0,0,0-.25,0c-.11,0-.12.1-.06.19a1.54,1.54,0,0,0,.17.19c.09.09.15.1.2,0a.36.36,0,0,0,0-.11m-3.33-2.84a.2.2,0,0,0,.21-.1.21.21,0,0,0-.19-.12.2.2,0,0,0-.21.1.21.21,0,0,0,.19.12m0,3.92a.25.25,0,0,0-.11-.21.23.23,0,0,0-.12.2.22.22,0,0,0,.11.22.2.2,0,0,0,.12-.21M5.81,24c-.09,0-.16.06-.14.13s.11.12.21.09.13-.06.14-.13A.15.15,0,0,0,5.81,24M4.89,9S4.82,9,4.8,9a.18.18,0,0,0,0,.22c0,.11.11.12.17.06a.24.24,0,0,0,0-.22s0-.07-.08-.1M2.69,6s0-.08-.08-.09a.24.24,0,0,0-.22,0c-.13,0-.13.1,0,.16a.26.26,0,0,0,.23,0L2.69,6M27,4.72a.25.25,0,0,0-.11-.22.23.23,0,0,0-.12.2.23.23,0,0,0,.11.21A.17.17,0,0,0,27,4.72M10.78,26.87a.21.21,0,0,0-.19-.12.28.28,0,0,0-.21.11.24.24,0,0,0,.2.12.22.22,0,0,0,.2-.11m-6.63.94a.26.26,0,0,0,.21-.1.22.22,0,0,0-.19-.12A.21.21,0,0,0,4,27.7a.2.2,0,0,0,.19.11M26.4,1.24c0-.12-.09-.12-.15,0l.07.09.08-.07m-25,2.21.1.06v-.1Zm25,.29-.08-.09c-.12.05-.13.1,0,.17l.09-.08m-20.62,7-.08-.09c-.12.05-.13.1,0,.17l.09-.08M3.55,11.82l-.07-.08c-.11,0-.12.09,0,.15l.08-.07m4.3,0,.09.06,0-.1Zm-4.17.55.09.06v-.1Zm5.45.29a.27.27,0,0,1-.07-.08c-.12,0-.12.09,0,.15l.09-.07M8,13.78c0-.11-.1-.12-.16,0l.07.08L8,13.78m1.88,4.1c-.1,0-.11.08,0,.14L10,18l-.07-.08m.61.08c0-.1-.08-.11-.14,0l.06.08L10.5,18M3.74,20.52l0-.08H3.7Zm.09.79c0-.12-.1-.13-.17,0l.08.09.09-.08m1.86.9c.1,0,.11-.09,0-.15l-.08.07.07.08m7.6-.07-.09-.06v.11Zm-8.14.19-.08.07c0,.11.09.12.14,0l-.06-.09M4.38,26c0-.11-.09-.11-.15,0l.07.08L4.38,26m5.29.83-.09-.06v.1Zm-4.54.9c.11,0,.12-.08,0-.14l-.08.07.07.07m1.4,0,.06-.09-.1,0ZM15,27.71l-.07-.08c-.11,0-.11.09,0,.15l.08-.07M1.37,13.62c.21.06.19.08.28.27a.8.8,0,0,0,.11.25c.12.18.12.19,0,.36a.5.5,0,0,0-.11.26v0h.57l0,0a.34.34,0,0,1,.3-.31l0,0a.37.37,0,0,1,.09-.25A.28.28,0,0,0,2.68,14a.46.46,0,0,0-.16-.21c-.13-.1-.14-.11-.34,0s-.15.06-.25-.19-.13-.23-.29-.21l-.13,0a.26.26,0,0,0-.13.22ZM1.94,8.9h-.3l0,0a.67.67,0,0,1-.19.35.32.32,0,0,0,0,.37c0,.09.12.1.23.08s.17,0,.21-.13a1.28,1.28,0,0,0,.05-.27c0-.13,0-.26,0-.4ZM6.38,29a.24.24,0,0,0-.18.14.38.38,0,0,0,.23.11,3,3,0,0,0,.52,0q.15,0,.18-.12A.25.25,0,0,0,6.9,29l-.26,0H6.38m-.26-8.64a.24.24,0,0,0-.22.11.61.61,0,0,0,0,.13.19.19,0,0,0,.11.22.56.56,0,0,0,.5,0c.12-.06.12-.13,0-.2s-.34-.11-.38-.32ZM.51,11.05l-.09-.11S.35,11,.34,11a.39.39,0,0,0-.07.26c0,.19.08.35.16.31a.22.22,0,0,0,.1-.25,2.45,2.45,0,0,0,0-.27m6.83,9a.35.35,0,0,0-.11,0,.28.28,0,0,0-.21.11.27.27,0,0,0,.21.11.22.22,0,0,0,.2-.11.24.24,0,0,0-.09-.08m.71.24v-.58l0,0L8,19.8a.27.27,0,0,0-.14.3.21.21,0,0,0,.14.18.53.53,0,0,0,.12,0ZM6.4,19.47v.58l0,0,.12,0a.3.3,0,0,0,.14-.3.28.28,0,0,0-.14-.18l-.12,0ZM1.94,8.6v.3l0,0H2.2a.22.22,0,0,0,.23-.13.22.22,0,0,0-.23-.12H1.92Zm1.4-.81a.9.9,0,0,0-.4,0s-.06.06-.09.09A.43.43,0,0,0,3,8,.25.25,0,0,0,3.2,8a.29.29,0,0,0,.12-.22Zm4.8,21.39a.41.41,0,0,0,.11-.07A.31.31,0,0,0,8.18,29a.31.31,0,0,0-.25,0s0,0,0,.08a.23.23,0,0,0,.25.07m1.53-.08a.43.43,0,0,0-.1-.09.2.2,0,0,0-.13,0c-.12,0-.16.06-.14.13l.12.05a.23.23,0,0,0,.25-.08m17.43-27,.09,0,0-.1ZM3.32,8.6a.17.17,0,0,0,.2-.11l-.07-.08a.22.22,0,0,0-.11.22Zm-3,1.85h.1l0-.1Zm6.15,3v.09l.11,0Zm-6.16.31c0,.11.08.12.14,0l-.06-.08-.08.06m3.91.32h.09l0-.1ZM6.66,15H7l0,0a.2.2,0,0,0-.08-.2.1.1,0,0,0-.09,0,.22.22,0,0,0-.09.2Zm-1.29.18h.1l0-.1Zm.34.47c-.11,0-.12.08,0,.13l.08-.06-.06-.07m-.62.93h.1l0-.1Zm-1.42.52.07.09.09-.07c-.05-.12-.1-.13-.16,0m2.71,2.38a.25.25,0,0,0-.07-.2.3.3,0,0,0-.21-.08l0,0c0,.2.1.26.28.28Zm-1.95.26a.19.19,0,0,0,.22-.12l-.08-.08a.2.2,0,0,0-.12.22Zm1-.19c-.12,0-.12.08,0,.13l.08-.06-.06-.07m.68.75c.19,0,.24-.08.27-.28l0,0c-.19,0-.25.08-.28.28ZM7,21.56c0,.11.09.11.15,0l-.07-.08Zm10.39,6.36-.09.07.07.08.09-.06ZM7,25.33a.27.27,0,0,0,.12.22.31.31,0,0,0,.25,0s.06-.06.09-.09a.2.2,0,0,0-.21-.13H6.94Zm-.64,1.25a.22.22,0,0,0-.22-.14,2.81,2.81,0,0,1,0,.29.24.24,0,0,0,.21-.15m.62.42a.21.21,0,0,0,.22-.12l-.08-.08A.24.24,0,0,0,7,27Z"/></g></g></svg>