<svg xmlns="http://www.w3.org/2000/svg" viewBox="0 0 28.41 29.2"><defs><style>.cls-1{fill:#45c2b1;}</style></defs><g id="Layer_2" data-name="Layer 2"><g id="Layer_1-2" data-name="Layer 1"><path class="cls-1" d="M14.48,3.86h.14c.12,0,.27,0,.34.14a.53.53,0,0,1-.16.23l-.1.1c-.2.22-.2.26.07.37.1,0,.16.08.16.16A.34.34,0,0,1,14.7,5a.3.3,0,0,0-.12.46,1,1,0,0,1,.14.23.36.36,0,0,1,0,.27.29.29,0,0,1-.1.09l-.27,0c-.13,0-.27,0-.41,0s-.16.08-.15.15l.11.08c.23,0,.46,0,.69.05a.33.33,0,0,1,.17.2,2,2,0,0,1,0,.69s-.05.07-.07.11c-.16.28-.16.29,0,.34a.5.5,0,0,0,.38-.1c.18-.1.18-.11.28.13a.33.33,0,0,0,.15.19.4.4,0,0,0,.22-.16.63.63,0,0,0,.19-.36A1,1,0,0,1,16,6.92a1.1,1.1,0,0,0,.14-.53.27.27,0,0,1,.13-.22.71.71,0,0,1,.41.65.6.6,0,0,1-.06.27l-.14.24a1.79,1.79,0,0,0,.12.24.79.79,0,0,1,.08.26.64.64,0,0,1-.15.52.76.76,0,0,0-.1.53.28.28,0,0,0,0,.12c.05.1.12.1.22,0a.43.43,0,0,1,.24-.1.21.21,0,0,1,.24.1l-.06.13L17,9.35c-.22.24-.22.27,0,.37a.83.83,0,0,1,.34.21.49.49,0,0,1,.2.36c0,.18,0,.37,0,.55a.21.21,0,0,0-.22.12l.08.08a.2.2,0,0,0,.12-.22.29.29,0,0,1,.26.27.26.26,0,0,1-.08.25l-.19.21-.09.1a.39.39,0,0,0-.08.5.86.86,0,0,1,.11.24,1.88,1.88,0,0,0-.14.24.42.42,0,0,0,0,.13.22.22,0,0,0,.08.25l.29.3c.1.11.11.18,0,.36s-.1.26-.17.38-.1.15-.15.23a.3.3,0,0,0,.18.44.37.37,0,0,1,.22.14.26.26,0,0,1-.2.16.33.33,0,0,0-.25.29,1.27,1.27,0,0,1-.2.65.18.18,0,0,0,.18.14c.37,0,.74,0,1.11,0a.26.26,0,0,1,.23.13.39.39,0,0,1,0,.26c0,.05-.05.08-.07.12l-.14.24a2,2,0,0,0,0,.42.21.21,0,0,0,.09.1.26.26,0,0,0,.36,0,1.36,1.36,0,0,0,.11-.25A.24.24,0,0,1,19.2,17h.14a2.77,2.77,0,0,0,.62.31.88.88,0,0,1,.4.54.14.14,0,0,0,.08.1c.07,0,.13,0,.17-.13s0-.09.05-.13a.28.28,0,0,1,.09-.1.45.45,0,0,1,.26,0,.29.29,0,0,1,.14.22,1.15,1.15,0,0,0,.22.65.69.69,0,0,1,.1.25c.05.16.12.17.31.06a.39.39,0,0,1,.5,0,1,1,0,0,1,.31.45c0,.16.06.16.28.26s.21.15.09.29a.6.6,0,0,1-.34.22c-.13,0-.27,0-.41.07s-.14.11-.07.19a2.9,2.9,0,0,0,.58.58.33.33,0,0,0,.14,0h0v.29h0a1.18,1.18,0,0,0-.42.05.83.83,0,0,0-.23.15.47.47,0,0,1-.26.08c-.19,0-.37,0-.56,0l-.28,0s-.07.06-.1.09,0,.12.14.15a.78.78,0,0,0,.14,0c.31,0,.31,0,.6.3s.23.21.46.08a.52.52,0,0,1,.13-.06.31.31,0,0,1,.25.05.2.2,0,0,1-.07.23.37.37,0,0,0-.1.25l0,0a2.66,2.66,0,0,0-.28,0c-.19,0-.22,0-.28.24s-.23.27-.43.29-.37,0-.55,0h-.28c-.16,0-.34.07-.36.16a.4.4,0,0,0,.06.38c.11.15.09.21,0,.35s-.19.2-.29.29a.72.72,0,0,1-.35.22.7.7,0,0,0-.35.21l-.29.3a.44.44,0,0,0-.16.22.94.94,0,0,0,0,.41.33.33,0,0,0,.14.22l.13,0,0,0a.58.58,0,0,0,.09.23c.05.06.09.13.14.2l-.14.21a.54.54,0,0,0-.09.22l0,0H19a.42.42,0,0,0-.34.17,1.65,1.65,0,0,1-.4.35,1.86,1.86,0,0,1-.25.1.8.8,0,0,0-.29.26c-.09.09-.07.16,0,.2l.13,0,.53,0,0,0c0,.15-.12.25-.16.38s0,.15.13.17.28,0,.42,0h.56a.83.83,0,0,1,.27,0,1.16,1.16,0,0,1,.24.14.7.7,0,0,0,.39.11,3,3,0,0,1,.42,0c.12,0,.16.09.12.14a.15.15,0,0,1-.12.07,7.8,7.8,0,0,1-1,0c-.88,0-1.76,0-2.64,0a.48.48,0,0,1-.26-.09c-.2-.12-.21-.12-.36,0a.83.83,0,0,1-.4.11c-.74,0-1.48,0-2.23,0H11a.71.71,0,0,0-.39.12.84.84,0,0,1-.53.13.92.92,0,0,1-.67-.14L9.3,29l-.14,0c-.32,0-.65,0-1,0a.6.6,0,0,1-.39-.12,1.38,1.38,0,0,0-.39-.13c-.14,0-.29,0-.38-.14s-.07-.17-.12-.25-.06-.06-.09-.09a.9.9,0,0,0-.1.09,1.89,1.89,0,0,1-.11.25c-.08.12-.24.13-.36.2l-.12.07a.7.7,0,0,1-.39.12,4.09,4.09,0,0,1-.7,0,.3.3,0,0,1-.28-.26c0-.09,0-.18,0-.27a.33.33,0,0,0-.15-.23.34.34,0,0,0-.26,0,.75.75,0,0,0-.12.07c-.24.16-.32.17-.5.06l-.24-.15A1.57,1.57,0,0,1,3,27.91a.33.33,0,0,0-.39,0l-.23.15a1.54,1.54,0,0,0-.5.24.27.27,0,0,1-.26,0,.29.29,0,0,1-.18-.19,1,1,0,0,0-.19-.37.82.82,0,0,1-.12-.25C1,27.37,1,27.36.81,27.26S.6,27.12.58,27a3.18,3.18,0,0,1,0-.69.85.85,0,0,1,.12-.39l.06-.13a.51.51,0,0,0-.22-.15C.28,25.48.25,25.33.41,25a.14.14,0,0,0,0-.24s0-.08-.07-.12a.56.56,0,0,1-.07-.26c0-.47,0-.93,0-1.39,0-.28,0-.56,0-.84a.8.8,0,0,0,0-.27,1.19,1.19,0,0,0-.13-.25A.5.5,0,0,1,0,21.4c0-1,0-1.95,0-2.93a.58.58,0,0,1,.06-.26,1.46,1.46,0,0,0,.18-.38,2.28,2.28,0,0,0,0-.69A.75.75,0,0,0,.17,17c-.11-.2-.12-.21,0-.37a.42.42,0,0,0,0-.51A.35.35,0,0,1,.07,16a.33.33,0,0,1,0-.26.28.28,0,0,1,.2-.17l.41-.06a.33.33,0,0,0,.15-.22.78.78,0,0,0-.09-.54c-.12-.17-.12-.18,0-.36a.42.42,0,0,0,0-.51c-.12-.19-.08-.24.26-.27a.77.77,0,0,0,.58-.33.18.18,0,0,0,0-.25,1.11,1.11,0,0,0-.32-.25l-.14,0L1,12.68c0-.08,0-.14.15-.16a1.3,1.3,0,0,0,.4-.09.19.19,0,0,0,.11-.09.25.25,0,0,0,0-.25c-.05-.08-.14-.08-.23,0s-.16.09-.24,0l-.39-.4c-.12-.12-.1-.21.07-.29s.24-.12.27-.27A.23.23,0,0,0,1,10.88S1,10.79.94,10.76a.33.33,0,0,1-.1-.25c0-.23,0-.47,0-.7a1.84,1.84,0,0,0,0-.41A1.62,1.62,0,0,0,.61,9a.41.41,0,0,1,0-.27.21.21,0,0,1,.08-.11.71.71,0,0,0,0-.9.2.2,0,0,1-.06-.12s0-.08.05-.12c.17-.28.16-.35,0-.63s-.1-.28,0-.5A.6.6,0,0,0,.83,6c0-.14,0-.28,0-.42a.36.36,0,0,1,.1-.25A.38.38,0,0,0,1,5.08.35.35,0,0,0,.78,5a.13.13,0,0,1-.12-.19c0-.12.16-.23.16-.38a1.24,1.24,0,0,1,0-.27A.42.42,0,0,1,1,3.87l.29-.3a.32.32,0,0,0,.09-.24c0-.17,0-.2-.24-.29a.26.26,0,0,1-.18-.17.25.25,0,0,1,.24-.1.88.88,0,0,1,.28,0,.74.74,0,0,1,.24.11c.11.08.18.07.21-.06a.25.25,0,0,0-.07-.25l-.12-.07a.61.61,0,0,0-.13,0c-.3,0-.31,0-.39-.12L1,2.17a.47.47,0,0,1-.07-.12c.16-.27.25-.59.43-.86C1.4,1.1,1.29.85,1.2.84L.79.77S.71.72.68.7.71.57.83.56l.41,0h.84A.77.77,0,0,0,2.47.4a1,1,0,0,1,.4-.11l3.06,0,2,0A1.07,1.07,0,0,0,8.41.08.63.63,0,0,1,8.68,0l2,0h1a.44.44,0,0,1,.26.07.24.24,0,0,1,0,.23c-.05.09,0,.17.1.18a2.06,2.06,0,0,0,.7,0c.12,0,.15-.1.09-.19s-.09-.18,0-.22A.35.35,0,0,1,12.93,0l.27,0c.13,0,.23.15.38.11L13.83,0c.18,0,.26.05.21.28a.14.14,0,0,0,0,.11.47.47,0,0,0,.12.07l1.94.06a.53.53,0,0,1,.27.08c.2.1.2.1.37,0a.82.82,0,0,1,.4-.1h.42a1.16,1.16,0,0,0,.65-.2.41.41,0,0,1,.39,0,.85.85,0,0,0,.25.13,1.17,1.17,0,0,0,.27,0h.42a1,1,0,0,0,.53-.14.79.79,0,0,1,.4-.1h3.34l2.37,0a1.29,1.29,0,0,0,.66-.16A.66.66,0,0,1,27.12,0a.81.81,0,0,1,.53.13,1.42,1.42,0,0,0,.25.12.26.26,0,0,1,.18.2,3,3,0,0,1,0,.41c0,.42,0,.84,0,1.26s0,1.11,0,1.67,0,1.11,0,1.67c0,1.16,0,2.32,0,3.48,0,.88,0,1.76,0,2.65a.33.33,0,0,1-.35.34.6.6,0,0,1-.39-.1.72.72,0,0,0-.37-.18c-.18-.06-.2-.12-.11-.29a.14.14,0,0,0,0-.24c-.09-.16-.09-.16,0-.36a.67.67,0,0,0,.09-.26,2.94,2.94,0,0,0,0-.42c0-.22,0-.25-.32-.39s-.14-.07-.06-.31l0-.12a1.63,1.63,0,0,1-.17-.38c0-.21.16-.32.21-.49a.32.32,0,0,0,0-.14A.9.9,0,0,0,26.6,8a.67.67,0,0,1-.11-.53.82.82,0,0,1,.18-.36.53.53,0,0,0,.08-.27c0-.27,0-.55,0-.83a.88.88,0,0,1,0-.28,1.41,1.41,0,0,1,.13-.24A.76.76,0,0,0,27,5a.6.6,0,0,0-.1-.25.67.67,0,0,1-.15-.38.89.89,0,0,0,0-.28.63.63,0,0,0-.13-.24.16.16,0,0,1,0-.24c.09-.19.09-.2-.15-.28a.89.89,0,0,1-.35-.21,1.18,1.18,0,0,0-.43-.34.3.3,0,0,1-.23-.14.23.23,0,0,1,.2-.15c.11,0,.16-.08.16-.16a.24.24,0,0,0-.25-.11.84.84,0,0,1-.27,0c-.12,0-.15-.11-.09-.2s.08-.17,0-.23-.23-.09-.38,0a.41.41,0,0,0-.11.07.71.71,0,0,1-.4.11c-.37,0-.74,0-1.11,0a.68.68,0,0,0-.39.13.17.17,0,0,1-.24,0,1.12,1.12,0,0,0-.24-.13,1.32,1.32,0,0,0-.28,0h-.56a.73.73,0,0,0-.38.14.69.69,0,0,1-.39.12l-.42,0a.38.38,0,0,1-.25-.09.26.26,0,0,0-.36,0,.7.7,0,0,1-.4.1c-.14,0-.16,0-.39-.13s-.22-.13-.38-.13a2.61,2.61,0,0,0-.28,0,.79.79,0,0,0-.4.1.72.72,0,0,1-.24.14,1.17,1.17,0,0,1-.27,0h-.28a.58.58,0,0,0-.38.15,3.92,3.92,0,0,0-.31.28.32.32,0,0,1-.25.09.48.48,0,0,1-.25-.09c-.15-.11-.21-.09-.35,0a.72.72,0,0,0-.22.35.28.28,0,0,1-.15.21A.31.31,0,0,1,15,3c0-.11-.09-.16-.16-.13a.14.14,0,0,0-.08.1.59.59,0,0,0,0,.14,1.33,1.33,0,0,1,0,.28.83.83,0,0,1-.15.23.37.37,0,0,0-.1.25.2.2,0,0,0-.22.13.3.3,0,0,1,.08.08.2.2,0,0,0,.13-.22M18.4,24.5c-.19,0-.25.08-.28.28a.22.22,0,0,0-.22.11L18,25a.19.19,0,0,0,.12-.21.3.3,0,0,0,.2-.08.28.28,0,0,0,.08-.2.19.19,0,0,0,.21-.12l-.07-.08a.2.2,0,0,0-.12.22m.54-.84a.26.26,0,0,0-.13-.22.25.25,0,0,0-.25,0s-.07.06-.1.09a.22.22,0,0,0,.22.13H19a.3.3,0,0,0,.25.28.82.82,0,0,0,.27,0,.35.35,0,0,0,.23-.12.35.35,0,0,0-.22-.14,5,5,0,0,0-.55,0m-.14-1.12a4.48,4.48,0,0,0-.77,0c-.12,0-.14.1-.08.19a1.12,1.12,0,0,0,.17.2.15.15,0,0,0,.25,0,.86.86,0,0,1,.23-.13,1.23,1.23,0,0,1,.27,0l.41,0s.09-.05.11-.09,0-.12-.13-.15l-.46,0m1.46-.68-.05-.12a.62.62,0,0,0-.82-.25.73.73,0,0,0-.08.09l.1.1a1.52,1.52,0,0,1,.48.23c.14.08.35.05.37-.05m-1-3.25a.25.25,0,0,0,.21-.11.23.23,0,0,0-.2-.12.18.18,0,0,0-.2.11.2.2,0,0,0,.19.12m.46-.91s0-.07,0-.09a.2.2,0,0,0-.23-.06c-.11,0-.13.11-.07.17a.21.21,0,0,0,.23.05s.06-.05.1-.07M15.85,8.84c0-.09-.06-.15-.13-.13s-.07,0-.1.08a.3.3,0,0,0,.06.23l.08,0a.18.18,0,0,0,.09-.22m-14.6,1.5-.08.06c0,.11.09.12.15,0l-.07-.08M13.3,9,13.24,9,13.15,9a.27.27,0,0,1,.07.08L13.3,9m4.12,19.13-.09.08c0,.12.1.12.17,0l-.08-.09M13.72,7.34l.09.06,0-.1ZM13.31,6l-.06-.08c-.12,0-.12.09,0,.15L13.31,6m.28-1.38c0-.11-.09-.12-.15,0l.07.08.08-.06m3.9,18.11c0-.1-.09-.11-.15,0l.07.07.08-.06m.56-.56L18,22.05c-.11,0-.12.09,0,.15l.08-.07m0-.84L18,21.21c-.1,0-.11.09,0,.15l.08-.07M1,16.06,1,16H.92Zm.65-1.73c0-.12-.1-.12-.16,0l.08.09a.27.27,0,0,1,.08-.07M26.2,25a.35.35,0,0,1-.1.25.26.26,0,0,0,0,.35c.09.14.07.14-.18.26a.32.32,0,0,0-.23.31.8.8,0,0,1-.14.52c-.09.09-.09.16,0,.21a.28.28,0,0,0,.13,0c.09,0,.18,0,.27,0a.24.24,0,0,1,.19.14l-.11.09a2.7,2.7,0,0,0-.41.06.63.63,0,0,0-.41.34c0,.08,0,.15.11.18a.36.36,0,0,1,.24.13c0,.07-.06.13-.16.15a.58.58,0,0,0-.25.12,1,1,0,0,1-.37.18c-.11,0-.15.11-.1.17s.07.05.11.08c.7,0,2.21,0,3.32,0a.32.32,0,0,0,.14,0,.42.42,0,0,0,.17-.2c0-.46,0-.92,0-1.38s0-1,0-1.53a.86.86,0,0,0-.14-.53.66.66,0,0,1-.11-.39.57.57,0,0,0-.13-.38c-.1-.16-.11-.17,0-.36a.71.71,0,0,0,.08-.53.2.2,0,0,0-.06-.12c-.06-.06-.14,0-.22,0l-.6.57A.58.58,0,0,1,27,24a.3.3,0,0,0-.17.44l.15.23a1,1,0,0,1-.26.31.37.37,0,0,1-.25.1l-.28,0ZM16.42,4.75c0-.21-.07-.27-.21-.2l-.36.17c-.17.06-.19.11-.08.28a2.39,2.39,0,0,1,.15.37.31.31,0,0,0,.34.12.32.32,0,0,0,.15-.21,1.3,1.3,0,0,1,0-.18,3.23,3.23,0,0,0,0-.35m2.82,22a.61.61,0,0,1,0,.13l-.15.23c0,.08,0,.15.06.23s.22.2.33.14a1.27,1.27,0,0,1,.37-.18c.12,0,.16-.1.12-.17a.26.26,0,0,0-.11-.07,2,2,0,0,1-.48-.26.58.58,0,0,0-.14,0Zm1.28-2.17s-.07.05-.1.08a.44.44,0,0,0,0,.26.34.34,0,0,0,.21.14A.58.58,0,0,0,21,25a.24.24,0,0,0,.15-.2.19.19,0,0,0-.1-.23.55.55,0,0,0-.25-.07,1.26,1.26,0,0,0-.27,0m2.17-1.1a.32.32,0,0,0-.36,0l-.18.19a.75.75,0,0,0-.07.12.31.31,0,0,0,.23.11.76.76,0,0,0,.26,0,.32.32,0,0,0,.22-.12v-.13c0-.1,0-.19-.11-.21m.17-2.3a.76.76,0,0,0,0,.26.25.25,0,0,0,.13.23.34.34,0,0,0,.37-.05l.1-.08a.54.54,0,0,0,.15-.22.31.31,0,0,0-.23-.12,3.25,3.25,0,0,0-.54,0Zm1.79,4a.7.7,0,0,0-.53,0q-.14.07,0,.21a.73.73,0,0,0,.34.22.22.22,0,0,0,.3-.19.18.18,0,0,0-.11-.23M21.44,28.4a.34.34,0,0,0-.09-.24,1.7,1.7,0,0,1-.19-.19.15.15,0,0,0-.23,0,.7.7,0,0,0-.23.31s.07.06.11.07a2.35,2.35,0,0,0,.65,0Zm2.28-10.55c-.17,0-.24,0-.27.21s0,.24.2.26.23,0,.27-.2,0-.24-.2-.27m-2.16,9.38A.23.23,0,0,0,21.7,27a.18.18,0,0,0-.12-.2.49.49,0,0,0-.23.15c-.11.14-.09.25,0,.27s.12,0,.16,0m-2.35-1.36a1.73,1.73,0,0,0,.68-.05.76.76,0,0,0,.09-.09s-.06-.07-.1-.08a.78.78,0,0,0-.4,0,.29.29,0,0,0-.13.05.23.23,0,0,0-.12.22Zm2.76-1a.23.23,0,0,0,0-.24.1.1,0,0,0-.09-.06c-.11,0-.35.27-.31.35a.16.16,0,0,0,.22.08.33.33,0,0,0,.21-.13m.61-2.35c0,.2.15.31.29.43A.45.45,0,0,0,23,23c.09,0,.11-.11.1-.21s0-.19-.13-.22a1.09,1.09,0,0,0-.4,0ZM15.33,6.4a.26.26,0,0,0-.21.1.2.2,0,0,0,.2.12.19.19,0,0,0,.2-.1.2.2,0,0,0-.19-.12m6.82,21.35a.2.2,0,0,0,.22.05c.11,0,.13-.11.06-.17a.26.26,0,0,0-.23-.05s-.06.05-.09.08,0,.07,0,.09m2.52.17a.23.23,0,0,0-.23-.05c-.11,0-.12.11-.06.16a.21.21,0,0,0,.23,0s.06,0,.09-.07,0-.07,0-.09M23.48,13.38a.28.28,0,0,0-.13,0c-.11,0-.14.09-.08.15a.22.22,0,0,0,.11.05.15.15,0,0,0,.2-.11.43.43,0,0,0-.1-.09m3-2.84a.19.19,0,0,0,.23-.12l-.08-.08a.19.19,0,0,0-.13.22Zm-.28.28a.28.28,0,0,0,.2-.08.21.21,0,0,0,.08-.2l0,0c-.19,0-.25.09-.28.28ZM21.46,28.38a.19.19,0,0,0,.13.22l.08-.08a.21.21,0,0,0-.23-.12Zm4.72-17.26v-.3l0,0A.2.2,0,0,0,26,11a.19.19,0,0,0,.22.13Zm-7.8,16.7a.21.21,0,0,0,.22-.12l-.08-.08a.21.21,0,0,0-.12.22Zm4.34-1.59c-.11,0-.12.08,0,.14l.08-.06-.07-.08M21.24,26l.07.08.08-.07c0-.1-.09-.11-.15,0m-.84-.28.07.08.08-.06c0-.11-.09-.11-.15,0M26.2,11.1a.21.21,0,0,0,.12.23l.09-.09a.21.21,0,0,0-.23-.12Zm0,14a.18.18,0,0,0-.12-.22l-.08.07a.23.23,0,0,0,.22.13Zm1.75-2.39c0,.11.09.11.15,0L28,22.6l-.08.07m-5.09-1.81a.19.19,0,0,0,.21-.12L23,20.66a.18.18,0,0,0-.12.21Zm-1.23-3c-.11,0-.12.09,0,.14l.08-.06-.06-.08m-.92-1.33.06.08.08-.06c0-.11-.09-.11-.14,0m-2.79-.85c0,.11.09.11.15,0L18,15.63l-.08.06"/></g></g></svg>