<svg xmlns="http://www.w3.org/2000/svg" viewBox="0 0 29.79 28.98"><defs><style>.cls-1{fill:#008375;}</style></defs><g id="Layer_2" data-name="Layer 2"><g id="Layer_1-2" data-name="Layer 1"><path class="cls-1" d="M26.47,26.75a.51.51,0,0,1-.2.35.56.56,0,0,1-.36.18c-.42,0-.84,0-1.25,0-.14,0-.15,0-.39.14a.86.86,0,0,1-.39.13,1.34,1.34,0,0,0-.28,0,2.23,2.23,0,0,0-.27,0,1.92,1.92,0,0,0-.25.12.52.52,0,0,1-.27.07l-3.48.07a1,1,0,0,0-.39.13,1.16,1.16,0,0,1-.41.09h-.69l-2.65.05c-.14,0-.14,0-.39.11a1.12,1.12,0,0,1-.4.1l-3.63.06a1.13,1.13,0,0,0-.52.15l-.13.05a.34.34,0,0,1-.14,0c-.51,0-1,0-1.53,0-.93,0-1.86,0-2.79,0a.48.48,0,0,0-.26.07l-.13.06a.53.53,0,0,1-.52,0,.93.93,0,0,0-.4-.12c-.18,0-.37,0-.55,0a.93.93,0,0,0-.4.09.86.86,0,0,1-.53.15,6.41,6.41,0,0,1-1,0,.34.34,0,0,1-.19-.18c-.05-.13-.11-.25-.17-.38a.81.81,0,0,1-.09-.4l-.06-3.07a.92.92,0,0,0-.11-.39.93.93,0,0,1-.12-.4v-.28c0-.65,0-1.3,0-1.95a1,1,0,0,0-.1-.4.75.75,0,0,1-.12-.39l0-.83c0-1.95,0-3.91,0-5.86,0-.27,0-.55,0-.83a1,1,0,0,0-.13-.53.5.5,0,0,1-.07-.27c0-.28,0-.55,0-.83q0-1.74-.06-3.48a.92.92,0,0,0-.11-.4.79.79,0,0,1-.1-.4L.27,4.77A1.28,1.28,0,0,0,.11,4.1.5.5,0,0,1,.06,4C0,3.55,0,1,0,.35A.19.19,0,0,1,0,.22.34.34,0,0,1,.23.05,1.33,1.33,0,0,1,.51,0l.56,0h2.5C4.27,0,5,0,5.66,0a.88.88,0,0,1,.53.15.65.65,0,0,0,.26.08l1.4,0a1.12,1.12,0,0,1,.53.13.63.63,0,0,0,.39.11l.84,0a1.07,1.07,0,0,1,.52.17.48.48,0,0,0,.26.07l.56,0a.83.83,0,0,1,.52.17,1.39,1.39,0,0,0,.26.1,1.45,1.45,0,0,1,.66.2,1.07,1.07,0,0,0,.4.1.79.79,0,0,1,.26.08,1.44,1.44,0,0,0,.52.19.61.61,0,0,1,.26.08c.24.16.51.22.75.37s.43.17.62.3l.27.08a1.28,1.28,0,0,1,.39.13c.24.15.51.22.74.38s.41.22.63.3a1.42,1.42,0,0,1,.47.29,2.19,2.19,0,0,0,.59.35,4.59,4.59,0,0,0,.49.26c.17.07.32.2.49.26a1,1,0,0,1,.34.24c.14.12.27.25.42.37a1.15,1.15,0,0,0,.35.22.83.83,0,0,1,.23.15,4.62,4.62,0,0,1,.52.46l1.49,1.47a1,1,0,0,0,.24.14,1.13,1.13,0,0,1,.51.46,1.14,1.14,0,0,0,.31.45c.13.13.25.27.37.41a.92.92,0,0,1,.2.36c.07.23.25.39.3.63a1.59,1.59,0,0,0,.25.33l.18.21a.75.75,0,0,1,.07.12,1.72,1.72,0,0,0,.38.58.54.54,0,0,1,.18.36l0,.14c.05.25.05.25.32.41a.39.39,0,0,1,.19.19c.06.18.18.33.25.5a3.29,3.29,0,0,0,.26.49c.11.2.21.41.31.62a.65.65,0,0,1,0,.53,1.27,1.27,0,0,1-.07.12c-.1.17-.09.22,0,.36a.71.71,0,0,0,.34.24.4.4,0,0,1,.3.4c0,.14,0,.28,0,.42a.47.47,0,0,0,.11.25l.28.32c.09.11.08.21-.06.35a.5.5,0,0,1-.36.19l0,0c0-.09,0-.18,0-.27s-.05-.23-.23-.29a1.15,1.15,0,0,1-.36-.2.36.36,0,0,0-.24-.09.61.61,0,0,0-.3-.43.45.45,0,0,0-.12-.06.19.19,0,0,0-.1.21c0,.17.07.24.25.26a.62.62,0,0,0,.27,0,.57.57,0,0,1,0,.14,1.58,1.58,0,0,1-.27.31.69.69,0,0,0-.24.62c0,.15.07.26.22.3a1,1,0,0,1,.46.31c.07.08.09.16,0,.24s-.14.44-.3.62a.15.15,0,0,0,0,.24.63.63,0,0,1,.14.38c0,.23,0,.46,0,.7a.61.61,0,0,0,.15.37.67.67,0,0,1,.1.53c0,.17-.16.21-.28.1l-.32-.27a.6.6,0,0,0-.52-.1.33.33,0,0,0-.13,0,.91.91,0,0,0-.21.18c-.13.14-.12.22,0,.3s.25.13.29.26a.27.27,0,0,1-.05.26c-.12.17-.11.18,0,.37a.56.56,0,0,1,0,.12.49.49,0,0,1-.23.14.3.3,0,0,0-.2.18,1.3,1.3,0,0,1-.19.37.47.47,0,0,0-.07.38.32.32,0,0,0,.22.16.18.18,0,0,1,.17.17.25.25,0,0,1-.24.11.84.84,0,0,0-.27,0s-.07.06-.11.09a.31.31,0,0,0,.07.09.45.45,0,0,0,.12.06c.2.09.2.09.25.29l0,0a.26.26,0,0,0-.22.12.33.33,0,0,0,0,.38,1.09,1.09,0,0,1,.14.23.74.74,0,0,1,0,.53c0,.08-.1.16-.14.23a.29.29,0,0,0,.14.44,1.27,1.27,0,0,1,.36.2c.07.05.13.12.2.18a.6.6,0,0,0,.48.21h.14ZM12,3.9a.19.19,0,0,0,.11.21L12.19,4A.21.21,0,0,0,12,3.91a.2.2,0,0,0-.13-.22l-.08.09A.21.21,0,0,0,12,3.9m-2.53.84h.24a.32.32,0,0,0,.22-.07.3.3,0,0,0,.1-.21.29.29,0,0,0,.28-.23,1.09,1.09,0,0,1,.17-.36.4.4,0,0,0-.11-.58l-.1-.08c-.09-.07-.16,0-.2.07a8,8,0,0,0,0,1.2H9.81c-.21,0-.27.07-.32.28-.09,0-.17,0-.2.08s0,.13.09.1a.16.16,0,0,0,.09-.19m1.11,0A.6.6,0,0,0,11,4.44a.39.39,0,0,0,.06-.11.17.17,0,0,0-.21-.1c-.16,0-.23.08-.24.25a2.44,2.44,0,0,0,0,.27.2.2,0,0,0-.22.12l.07.08a.2.2,0,0,0,.12-.22M25.09,16.44a.24.24,0,0,0,.12.22l.08-.08a.21.21,0,0,0-.21-.13.34.34,0,0,0-.09-.24L24.8,16a.14.14,0,0,0-.23,0,.78.78,0,0,0-.25.32.35.35,0,0,0,.23.12,3.25,3.25,0,0,0,.54,0M11.53,6.13h.14A.34.34,0,0,0,11.91,6a.63.63,0,0,0-.16-.23.72.72,0,0,0-.35-.2.55.55,0,0,1-.24-.12c-.08-.08-.16-.1-.23,0l-.11.09a.4.4,0,0,0-.14.22.36.36,0,0,0,.24.13,2.43,2.43,0,0,1,.35.2.48.48,0,0,0,.26.07M5.12,4.44a1.1,1.1,0,0,0,.26,0s.08,0,.1-.08a.29.29,0,0,0,0-.24.22.22,0,0,0-.19-.16,1.08,1.08,0,0,0-.4,0,.33.33,0,0,0-.15.2.2.2,0,0,0,.08.23.35.35,0,0,0,.25.07M3.18,3.89a3.92,3.92,0,0,0-.4,0c-.1,0-.15.07-.15.14s.07.07.11.08a2.13,2.13,0,0,1,.64.18c.09.09.16.07.2,0s0-.32-.13-.34l-.27,0m22.09,8.26a.61.61,0,0,0-.07-.1.49.49,0,0,0-.51,0s-.05,0-.08.09a1.12,1.12,0,0,0,.16.22.26.26,0,0,0,.23.09.49.49,0,0,0,.27-.3M3,2.63l-.11-.08a.32.32,0,0,0-.25.07.27.27,0,0,0-.07.25.35.35,0,0,0,.08.1.33.33,0,0,0,.23-.11A.37.37,0,0,0,3,2.63m22.91,10.5a.23.23,0,0,0-.09-.23l-.12,0a.66.66,0,0,0-.18.19.41.41,0,0,0-.07.11.25.25,0,0,0,.22.11c.17,0,.23-.06.24-.23M5,5.86a.26.26,0,0,0-.1-.21.22.22,0,0,0-.12.2.19.19,0,0,0,.1.2A.2.2,0,0,0,5,5.86m20.82,8.53a.21.21,0,0,0,0-.37.15.15,0,0,0-.09.21c0,.1.06.15.14.16M24.4,25.27s.08-.06.1-.1a.2.2,0,0,0,0-.13c0-.13-.1-.16-.17-.08a.42.42,0,0,0,0,.12c0,.11,0,.17.12.19M8,7a.22.22,0,0,0,0-.14c0-.13-.11-.14-.17,0a.31.31,0,0,0,0,.13c0,.12,0,.17.13.16S8,7.07,8,7M8,3.87h.13a.39.39,0,0,0,.1-.08c0-.06,0-.1-.13-.13a.19.19,0,0,0-.22.07A.13.13,0,0,0,8,3.87m1.29,0c.11-.05.12-.1,0-.17l-.09.08.07.09M13.45,4l.09.06,0-.1ZM6.9,4.61c0-.11-.08-.12-.14,0l.06.08a.27.27,0,0,0,.08-.07m7.8,0-.09-.06v.1ZM10,2.38l-.09,0v.1ZM8,4.82l-.06.08H8Zm.56,0-.08.06c0,.11.09.11.15,0l-.07-.07M23.56,25.16l0,.09h.09ZM9.82,5.15l.1.06v-.1Zm2,.09c.12,0,.12-.1,0-.16l-.08.07.07.09m13.45,13.3-.08-.06,0,.1Zm.42-.57.1.06v-.1ZM14.15,5.73c0-.11-.09-.12-.15,0l.07.08.08-.06m-10.4.34c.11,0,.11-.09,0-.15L3.69,6l.06.08M4,11.64c.11,0,.11-.08,0-.14a.46.46,0,0,0-.07.07l.06.07M3.56,9.36c0-.11-.09-.12-.15,0l.07.08.08-.06M8.23,7.88,8.18,8h.09Zm-3-.2c0-.11-.09-.12-.15,0l.07.08a.27.27,0,0,0,.08-.07m-.64.06c.11,0,.11-.09,0-.14l-.08.06.06.08M28.5,18.65a.38.38,0,0,0,.17-.21.9.9,0,0,0,0-.4.76.76,0,0,0-.08-.11s-.08.05-.1.08,0,.25-.21.28-.09-.25-.1-.38a.39.39,0,0,1,.06-.26s0-.09.07-.12.06-.17-.06-.22a.29.29,0,0,0-.13,0,.22.22,0,0,0-.18.18c-.05.22,0,.45-.07.68s-.1.15-.18.11l-.13-.05a.53.53,0,0,0-.12,0,.2.2,0,0,0-.06.25.25.25,0,0,0,.19.17,3.42,3.42,0,0,0,.59.05l.36,0m1,2a.36.36,0,0,0-.13-.23,2.82,2.82,0,0,1-.49-.25.3.3,0,0,0-.26,0c-.14.05-.12.13.05.32s.14.13.2.2a.6.6,0,0,1,.12.24c0,.14,0,.28.07.41s.11.13.21.14.18,0,.21-.12a1.39,1.39,0,0,0,0-.41c0-.09,0-.18,0-.27m.29,2a.6.6,0,0,0-.06-.27c-.09-.16-.16-.33-.25-.49s-.06,0-.09-.05L29.3,22a.87.87,0,0,0,.06.53,1.54,1.54,0,0,1,.2.65.19.19,0,0,0,.14.18s.07-.07.08-.11a2.62,2.62,0,0,0,0-.28c0-.09,0-.18,0-.27M22.31,6.12a.35.35,0,0,0,.12.24c.22.23.44.46.67.68l.11.08h.11a.21.21,0,0,0,0-.25.41.41,0,0,0-.07-.11l-.37-.4a.69.69,0,0,0-.62-.22ZM27.61,17a.57.57,0,0,1-.35-.18.32.32,0,0,0-.37,0c-.09,0-.1.13-.09.23s.05.18.14.21a1.09,1.09,0,0,0,.26,0,.56.56,0,0,0,.26-.07.24.24,0,0,0,.12-.22Zm-.74,8.11h-.13c-.19,0-.23.08-.21.25s0,.17.14.2a.29.29,0,0,0,.24,0,.18.18,0,0,0,.09-.23.39.39,0,0,0-.13-.21m2-5.82a.22.22,0,0,0-.12.19.18.18,0,0,0,.11.2.18.18,0,0,0,.11-.18.26.26,0,0,0-.1-.21m-1.2,7.59.08.08.08-.06c0-.12-.09-.12-.16,0m-.52,0h.1l0-.1Zm-.66-.17a.2.2,0,0,0,.22-.12l-.08-.08a.2.2,0,0,0-.12.22Zm3.17-1.5h.09l0-.1Zm-3.94,0,.08.09.08-.07c0-.12-.09-.13-.16,0m-.05-.7a.22.22,0,0,0,.12.22l.07-.08a.18.18,0,0,0-.2-.12Zm-.28-.28c.05.2.1.25.28.28v0a.25.25,0,0,0-.09-.2.28.28,0,0,0-.2-.08ZM22.29,6.15a.2.2,0,0,0-.11-.2L22.11,6a.24.24,0,0,0,.2.11Z"/></g></g></svg>