<svg xmlns="http://www.w3.org/2000/svg" viewBox="0 0 28.84 29.23"><defs><style>.cls-1{fill:#ffc557;}</style></defs><g id="Layer_2" data-name="Layer 2"><g id="Layer_1-2" data-name="Layer 1"><path class="cls-1" d="M16.73,8a1.84,1.84,0,0,0,0,.41l.15.24a.33.33,0,0,1,0,.38,1.52,1.52,0,0,0-.23.5,1.09,1.09,0,0,1-.39.38.39.39,0,0,1-.26,0,.26.26,0,0,1-.14-.23,2.48,2.48,0,0,0,0-.27.3.3,0,0,0-.28-.26l-.13,0-.42,0A.19.19,0,0,0,14.92,9L14.84,9a.23.23,0,0,0,.22.13.35.35,0,0,0,.1.25l.29.29c.11.12.1.2,0,.34a.77.77,0,0,1-.47.26l-.1.1a.21.21,0,0,0,.17.15,6.19,6.19,0,0,1,1,.06s.06.05.1.08a.45.45,0,0,1-.09.1l-.25.11s0,.06-.06.1a1.89,1.89,0,0,1,.11.25.2.2,0,0,1-.08.08.25.25,0,0,1-.12,0l-.55.05a.29.29,0,0,0-.25.27,5.15,5.15,0,0,0,0,.55.33.33,0,0,1-.13,0c-.11-.06-.22-.14-.33-.21a.55.55,0,0,0-.26,0c-.09,0-.1.12-.08.23a.25.25,0,0,0,.15.2,1.09,1.09,0,0,0,.26,0,.36.36,0,0,0,.25-.06.23.23,0,0,0,.12-.22.42.42,0,0,0,.25-.09c.18-.12.24-.11.31.05a.66.66,0,0,0,.18.35,2.36,2.36,0,0,1,.35.43.33.33,0,0,1-.12.35l-.13,0a.25.25,0,0,0-.12-.23.45.45,0,0,0-.26,0h-.13a.3.3,0,0,0-.24.12.38.38,0,0,0,.22.13,5,5,0,0,0,.55,0,3.62,3.62,0,0,0,0,.57.47.47,0,0,1-.25-.11c-.17-.12-.18-.12-.35,0a2.37,2.37,0,0,1-.36.17s-.05.06-.08.09.06.08.1.09a1.38,1.38,0,0,0,.67,0,.29.29,0,0,0,.25-.27.81.81,0,0,1,.51.43.58.58,0,0,1,0,.53,2.6,2.6,0,0,1-.21.36.47.47,0,0,1-.36.37c-.11,0-.14.1-.1.19a1.22,1.22,0,0,1,.16.37,1.27,1.27,0,0,0,0,.28.37.37,0,0,0,.15.22,1.14,1.14,0,0,0,.41,0,.34.34,0,0,0,.22-.15.5.5,0,0,0,0-.13l0,0,.26,0a.5.5,0,0,0,.34-.17.75.75,0,0,0,.27-.42.28.28,0,0,1,.27-.22l0,0a1.19,1.19,0,0,0,.18.64.14.14,0,0,1,0,.11,1.89,1.89,0,0,1-.11.25c.09.11.24.12.36.18a.41.41,0,0,1,.11.07l.3.28a.67.67,0,0,0,.12.06.17.17,0,0,0,.12-.2.38.38,0,0,0-.09-.24c-.11-.16-.11-.17,0-.35a.44.44,0,0,0,.11-.25v0l.39,0,.33-.21a.28.28,0,0,1,.13,0,.3.3,0,0,0,.08.2.24.24,0,0,0,.2.07.2.2,0,0,0,.12.22l.08-.08a.21.21,0,0,0-.22-.12.26.26,0,0,0-.08-.2.28.28,0,0,0-.2-.08.87.87,0,0,1,.27-.41.59.59,0,0,1,.33-.15h.25a.22.22,0,0,0,.13.22l.08-.08a.2.2,0,0,0-.22-.12.64.64,0,0,1,.19-.34.41.41,0,0,0,.08-.24h.3a.2.2,0,0,0,.12.21l.08-.07a.2.2,0,0,0-.22-.12.34.34,0,0,1,.26-.28.55.55,0,0,0,.24-.12,1.8,1.8,0,0,0,.2-.19c.1-.09.09-.15,0-.2a.74.74,0,0,0-.4,0,.59.59,0,0,0-.34.21.53.53,0,0,0-.19.36v.27a1.49,1.49,0,0,0-.42,0c-.07.05-.16.09-.23.15s-.26.07-.39.08a.26.26,0,0,1-.25-.09c0-.06,0-.14.07-.23a.7.7,0,0,1,.34-.21l.28,0a.34.34,0,0,0,.24-.11.69.69,0,0,1-.05-.13c-.09-.19-.09-.21.09-.29s.23-.11.29-.26.11-.27.25-.19a.94.94,0,0,0,.24.13.86.86,0,0,0,.28,0l.68,0c.11,0,.16-.11.12-.17a.27.27,0,0,0-.1-.08l-.41,0c-.1,0-.21-.24-.17-.33a.75.75,0,0,1,.07-.12.93.93,0,0,0,.18-.51c0-.19.06-.35.28-.41s.24-.13.25-.29a2.45,2.45,0,0,0,0-.27c0-.18,0-.37,0-.55l0,0a.55.55,0,0,0,.24-.12,5,5,0,0,1,.42-.37.35.35,0,0,1,.38,0,3.86,3.86,0,0,1,.49.5.7.7,0,0,1,.13.24.92.92,0,0,0,.13.24,2.24,2.24,0,0,1,.41.56,4.67,4.67,0,0,0,.27.49,1.69,1.69,0,0,0,.37.58l.17.22a4.05,4.05,0,0,0,.32.62,1.55,1.55,0,0,0,.37.58.62.62,0,0,1,.18.36l0,.14a.47.47,0,0,0,.08.26c.13.2.18.43.31.62s.15.34.24.5a1.73,1.73,0,0,1,.22.65.59.59,0,0,0,.1.26,1.1,1.1,0,0,1,.17.52.61.61,0,0,0,.08.27c.15.23.22.51.37.74a.5.5,0,0,1,.08.27l0,.83a.89.89,0,0,0,0,.28,1.42,1.42,0,0,0,.12.25.79.79,0,0,1,.08.26c0,.23,0,.46.05.7a1,1,0,0,0,.13.39.91.91,0,0,1,.1.4c0,.69,0,1.39,0,2.09,0,.23,0,.46,0,.69a1,1,0,0,0,.11.4.89.89,0,0,1,.12.39c0,.28,0,.56,0,.84a.79.79,0,0,1-.14.53.8.8,0,0,0-.09.26,5.69,5.69,0,0,1-.07.83.37.37,0,0,1-.16.21l-.42.07-.36.2a.41.41,0,0,1-.27,0,2.1,2.1,0,0,0-.37-.18,3,3,0,0,0-.42,0H24.85c-.19,0-.37,0-.56,0s-.22-.05-.3-.23-.12-.27-.27-.17a.48.48,0,0,1-.63,0,.17.17,0,0,0-.24,0c-.09.09-.17.09-.24,0s-.23-.09-.31.08-.22.27-.41.29H19.66c-1.2,0-2.41,0-3.62,0a.81.81,0,0,0-.4.09.78.78,0,0,1-.39.12c-1.81,0-3.63.06-5.44,0H4.66a1,1,0,0,1-.52-.14.21.21,0,0,0-.25,0,.41.41,0,0,1-.51,0,1.19,1.19,0,0,0-.25-.13,1.27,1.27,0,0,0-.28,0l-.41,0-.25.13a.19.19,0,0,1-.25,0,.17.17,0,0,0-.25,0,.88.88,0,0,1-.53.14H.89a.56.56,0,0,1-.38-.17.55.55,0,0,1-.23-.34,1.24,1.24,0,0,0-.17-.37A.64.64,0,0,1,0,27.5c0-.09,0-.18,0-.28,0-.65,0-1.3,0-1.95S0,23.79,0,23,0,21.65,0,21V18.86c0-1.53,0-3.06,0-4.59a.92.92,0,0,1,.11-.4c.11-.24.12-.25.12-.39s0-.47,0-.7v-.69A.63.63,0,0,1,.4,11.7c.09-.17.09-.18,0-.37a.54.54,0,0,1-.09-.26c0-.05,0-.1,0-.14,0-1.58,0-3.16,0-4.74,0-.65,0-1.3,0-1.95a.89.89,0,0,0-.12-.39L.09,3.72a.51.51,0,0,1,.15-.23l.29-.3a.88.88,0,0,0,.24-.33,1.82,1.82,0,0,1-.15-.23.36.36,0,0,1,0-.27.18.18,0,0,1,.09-.1.38.38,0,0,1,.26,0,.37.37,0,0,1,.12.07c.17.11.21.12.35,0a2.07,2.07,0,0,0,.46-.52s0-.08,0-.13a.21.21,0,0,0-.12-.23.65.65,0,0,0-.14,0,.2.2,0,0,0-.21.13,2,2,0,0,1-.13.25c-.06.11-.29.1-.36,0A.26.26,0,0,1,.87,1.7C.79,1.43.57,1.22.52.94A1.39,1.39,0,0,1,.32.58.27.27,0,0,1,.52.27a1.83,1.83,0,0,0,.65-.2L1.3,0a.32.32,0,0,1,.14,0H3a1,1,0,0,1,.4.11.79.79,0,0,0,.39.11l2,.05a.91.91,0,0,1,.4.1,1.08,1.08,0,0,0,.53.15l.7,0a.81.81,0,0,1,.52.15.89.89,0,0,0,.26.09c.42,0,.84,0,1.26.06A.88.88,0,0,1,9.77,1a.78.78,0,0,0,.39.12l.42,0a.62.62,0,0,1,.26.09,1.07,1.07,0,0,0,.52.17.84.84,0,0,1,.27.08,1.15,1.15,0,0,0,.51.19.86.86,0,0,1,.39.13,1.23,1.23,0,0,0,.52.17.51.51,0,0,1,.27.09c.15.1.33.15.49.24a2.52,2.52,0,0,0,.49.25,1,1,0,0,1,.47.5.34.34,0,0,0,.28.27.75.75,0,0,1,.25.13l.31.28a.64.64,0,0,0,.38.15.81.81,0,0,1,.27,0,1.31,1.31,0,0,1,.34.24,1,1,0,0,0,.46.29l.12.07.11.08a2.51,2.51,0,0,0,.44.35c.08.05.17.06.25.11a2.44,2.44,0,0,1,.43.35.56.56,0,0,0,.24.13.75.75,0,0,1,.25.13l.61.57a1.52,1.52,0,0,0,.67.48,3.65,3.65,0,0,1,.43.35,1.08,1.08,0,0,1,.3.46.49.49,0,0,0,.14.24l.57.61a.34.34,0,0,1,.11.25l0,0a3.39,3.39,0,0,1-.55,0A.48.48,0,0,1,21,8.49c-.17-.11-.17-.1-.36,0s-.15.07-.26-.19a.41.41,0,0,0-.17-.2.93.93,0,0,1-.55-.38.62.62,0,0,1-.11-.25c0-.11-.09-.15-.17-.13s-.07.06-.08.1a.39.39,0,0,1-.12.24.3.3,0,0,1-.24-.08.37.37,0,0,0-.38,0l-.23.14a2.92,2.92,0,0,1-.36-.17.32.32,0,0,0-.33.17c0,.14,0,.27-.05.41s-.1.15-.18.11a1.83,1.83,0,0,0-.24-.13,1.12,1.12,0,0,0-.41,0,1.92,1.92,0,0,0,0-.24c0-.2-.06-.27-.27-.32a.21.21,0,0,0-.12-.22l-.08.08a.21.21,0,0,0,.21.13.65.65,0,0,1-.09.23c-.16.24-.14.3.12.32h.25M12,14.74a.24.24,0,0,0-.12-.22l-.08.08a.2.2,0,0,0,.22.12.53.53,0,0,0,0,.12.29.29,0,0,0,.3.14.23.23,0,0,0,.17-.15.35.35,0,0,0,0-.11.4.4,0,0,1,.24.1.25.25,0,0,0,.22.1.37.37,0,0,0,.21-.16l.08-.1a.23.23,0,0,0,.06-.25.36.36,0,0,0,0-.11.16.16,0,0,0-.1-.08.31.31,0,0,0-.25,0,1,1,0,0,0-.37.37.61.61,0,0,0,0,.13H12m.83-2.51v-.3a1.12,1.12,0,0,0,.41,0,.9.9,0,0,0,.09-.1s-.06-.08-.1-.09a.3.3,0,0,0-.26,0,.26.26,0,0,0-.12.23.2.2,0,0,0-.19.09.06.06,0,0,0,0,.08.2.2,0,0,0,.19.09.24.24,0,0,0,.12.23l.13,0a.2.2,0,0,0,.23-.12.23.23,0,0,0-.22-.13h-.28m-3.6,1.68a.78.78,0,0,0-.4,0,.22.22,0,0,0-.13.21.2.2,0,0,0,.1.22l.12-.07a.63.63,0,0,0,.29-.42.21.21,0,0,0,.21-.12l-.07-.08a.2.2,0,0,0-.12.22m1.11,12.26a5.61,5.61,0,0,0-.82,0,.25.25,0,0,0-.12,0,.43.43,0,0,0-.1.09.43.43,0,0,0,.1.09,1.89,1.89,0,0,0,.67,0,.29.29,0,0,0,.13-.05.23.23,0,0,0,.12-.22.22.22,0,0,0,.23-.13l-.08-.08a.21.21,0,0,0-.13.23M15.9,8.59a.23.23,0,0,0,.12.22.25.25,0,0,0,.25,0,.43.43,0,0,0,.1-.09.23.23,0,0,0-.22-.13h-.28a.28.28,0,0,0-.09-.24c-.11-.13-.23-.26-.35-.38a.36.36,0,0,1-.11-.24.2.2,0,0,0,.22-.12.6.6,0,0,1-.08-.08.21.21,0,0,0-.12.22l-.14,0a.29.29,0,0,0-.1.35.71.71,0,0,0,.52.41l.28,0M14.76,26.17c.42,0,.84,0,1.25,0l.14,0a.61.61,0,0,1,.13,0l.12.07a1.16,1.16,0,0,0,.24.14,1.17,1.17,0,0,0,.27,0c.28,0,.31.08.19.32A.27.27,0,0,0,17,27a.27.27,0,0,0,.17.2,1.27,1.27,0,0,1,.37.18.65.65,0,0,0,.38.13.8.8,0,0,1,.51.19l.12.06a.25.25,0,0,0,.25-.06s0-.09,0-.12-.08-.18,0-.24.21-.08.38,0,.24.13.46-.08a1.24,1.24,0,0,1,.21-.18c.15-.07.25.06.37.11a.5.5,0,0,0,.13,0,2,2,0,0,0,.55,0,.51.51,0,0,0,.25-.11c.18-.11.18-.11.36,0a.69.69,0,0,0,.39.12,2.81,2.81,0,0,0,.41,0,.29.29,0,0,0,.13.23.31.31,0,0,0,.25,0,.32.32,0,0,0,.1-.1.24.24,0,0,0-.22-.12h-.27a.68.68,0,0,0,0-.14,1.79,1.79,0,0,1-.22-.34.28.28,0,0,1,.05-.25,9,9,0,0,1,.85-.9.25.25,0,0,0,.08-.23.28.28,0,0,0-.11-.08.87.87,0,0,1-.36-.18.5.5,0,0,1-.17-.21.33.33,0,0,1,.08-.24.42.42,0,0,0,0-.12c-.06-.13-.14-.24-.19-.37s-.18-.29-.39-.3-.46,0-.69,0l-.13,0a.37.37,0,0,1-.12-.07l-.24-.14-.4-.05,0,0v-.42a.6.6,0,0,1,.11-.39s0-.08.07-.12a.8.8,0,0,0,.08-.4.28.28,0,0,0-.09-.25.33.33,0,0,0-.24.07c-.09.05-.16,0-.2-.1s0-.46-.05-.69a.3.3,0,0,0-.32-.19.45.45,0,0,0-.12.06,2.1,2.1,0,0,1-.5.24.89.89,0,0,0-.31.27.33.33,0,0,0-.1.25l0,.28,0,0c-.16,0-.23-.12-.28-.25s-.15-.28-.4-.31a1,1,0,0,1-.51-.18.67.67,0,0,0-.12-.06.33.33,0,0,0-.26,0c-.12.06-.22.17-.36.19a2.75,2.75,0,0,1-.41,0,2.77,2.77,0,0,0-.41,0l-.13,0c-.13.05-.14.11-.07.21a1.36,1.36,0,0,1,.11.25.27.27,0,0,1-.17.32,1.67,1.67,0,0,0-.66.18c-.13.07-.2,0-.34-.11a1,1,0,0,1-.2-.36c0-.11-.09-.16-.16-.12a.2.2,0,0,0-.08.1c0,.21-.19.29-.37.35s-.15.12-.09.21a.24.24,0,0,1,.05.23c0,.09-.24.1-.37,0s-.21-.18-.36-.18a1.29,1.29,0,0,0,0-.39l-.1-.09s-.08.05-.09.09a.25.25,0,0,0,0,.25.24.24,0,0,0,.22.12,1.27,1.27,0,0,1,0,.28c0,.18-.05.2-.25.29s-.24.1-.15.28l.06.12a.39.39,0,0,1-.13.23.63.63,0,0,1-.35.21.67.67,0,0,0-.12.06s0,.06-.06.09l.1.1a.82.82,0,0,1,.37.16.62.62,0,0,0,.25.11.31.31,0,0,0,.26-.07c.18-.13.28-.1.45.1,0,0,0,.08.07.12a.21.21,0,0,1-.19.15A2.77,2.77,0,0,1,13,25a.73.73,0,0,0-.5.21l-.09.11c-.08.09-.07.18.06.21A1,1,0,0,1,13,26a.33.33,0,0,1,0,.38.31.31,0,0,1-.38,0l-.23-.16a.59.59,0,0,0-.13,0c0-.09,0-.17-.09-.2s-.13,0-.1.09a.21.21,0,0,0,.2.09.3.3,0,0,1-.11.24l-.29.3c-.08.08-.1.17,0,.22a.25.25,0,0,0,.25.05c.13-.05.22-.16.37-.15l.24.13a.59.59,0,0,0,.13,0,.37.37,0,0,0,.26-.1c.06-.06.14-.11.2-.18a.7.7,0,0,1,.62-.23.35.35,0,0,1,.24.12.34.34,0,0,1-.22.15l-.12.06a.19.19,0,0,0-.1.24.22.22,0,0,0,.14.21l.37.17c.18.1.2.09.29-.13a.75.75,0,0,1,.2-.35.46.46,0,0,1,.23-.14l.12.07c.09.07.18.08.22,0a.27.27,0,0,0,0-.25.31.31,0,0,0-.23-.14.31.31,0,0,1-.25-.29Zm1.16-4.75a.82.82,0,0,0,.27,0c.1,0,.15-.08.16-.16s-.06-.08-.1-.09A1,1,0,0,1,16,21c-.1-.07-.1-.07-.14-.36s-.1-.33-.3-.21a.9.9,0,0,1-.24.12c-.27.09-.25.15-.06.36a3.41,3.41,0,0,0,.39.37.42.42,0,0,0,.25.1m-.85-6.14h.26a.28.28,0,0,0,.12,0c.1,0,.1-.11,0-.21a1.09,1.09,0,0,1-.17-.36c-.05-.15-.12-.16-.3,0a.39.39,0,0,1-.49,0c-.1-.07-.16-.09-.22,0a.24.24,0,0,0,0,.35l.25.1c.12.06.23.14.34.2s.09,0,.14,0m4,5.57a1.15,1.15,0,0,0,.26,0,.14.14,0,0,0,.1-.07c.05-.06,0-.14-.05-.22a.67.67,0,0,0-.46-.24h-.27a.21.21,0,0,0-.11.08c0,.05,0,.13.06.21a.67.67,0,0,0,.47.24m-8.88,6.42a1.26,1.26,0,0,0,.27,0,.26.26,0,0,0,.14-.21.2.2,0,0,0-.09-.24.44.44,0,0,0-.26-.05.34.34,0,0,0-.11.07l-.11.08a.35.35,0,0,0-.14.23c0,.09.14.17.3.16m1.24-13.12a.3.3,0,0,0-.13-.22h-.13c-.19,0-.23.08-.21.26s.08.22.26.2.23-.09.21-.25m5,4.18a.2.2,0,0,0-.12-.21.31.31,0,0,0-.25,0l-.1.09a.4.4,0,0,0,0,.25.2.2,0,0,0,.23.1c.17,0,.23-.09.2-.26m-.08,8.47s-.08.05-.1.09a.54.54,0,0,0,0,.48.39.39,0,0,0,.08.1.3.3,0,0,0,.13-.2c0-.21,0-.47-.11-.47M9.73,25s0-.07-.05-.1-.13-.06-.21,0l-.09.1c-.07.07-.11.14-.08.21s.23.1.34,0A.24.24,0,0,0,9.73,25m7.74-7.93a.45.45,0,0,0-.15-.21c-.08-.06-.15-.1-.21-.08s-.11.2,0,.33a.25.25,0,0,0,.34.05.25.25,0,0,0,0-.09M13,13.34a.51.51,0,0,0,.25-.05l.1-.08-.09-.09a.51.51,0,0,0-.25-.06c-.16,0-.34.06-.34.13s.18.14.33.15m9.55-1s-.07-.07-.11-.08a.34.34,0,0,0-.34.13.32.32,0,0,0,0,.24.13.13,0,0,0,.09.07c.1,0,.35-.27.33-.36m-8.95-1.12-.08-.09a.34.34,0,0,0-.23,0c-.07.06-.06.13,0,.17a.24.24,0,0,0,.23,0s0-.06,0-.09m1.69,8.39a.19.19,0,0,0-.19-.12.25.25,0,0,0-.21.11.25.25,0,0,0,.2.13.2.2,0,0,0,.2-.12M13.62,20a.24.24,0,0,0,.24-.09s-.06-.08-.1-.1a.2.2,0,0,0-.13,0c-.11,0-.15.06-.13.14a.67.67,0,0,0,.12.06m-.92.41a.23.23,0,0,0-.25,0s-.07,0-.1.08.05.08.09.1a.25.25,0,0,0,.25,0v-.1m4.75,0-.08-.1a.3.3,0,0,0-.23.06c-.07.06-.05.13.05.17a.23.23,0,0,0,.23,0s0-.06,0-.09M13,21s-.05-.08-.08-.09a.26.26,0,0,0-.23.05c-.07,0-.06.12.05.16a.24.24,0,0,0,.23,0s0,0,0-.08m8.37.54a.25.25,0,0,0-.09,0,.17.17,0,0,0-.05.21c0,.11.1.13.16.07a.22.22,0,0,0,.05-.22s-.05-.07-.07-.1m-9.15,1a.2.2,0,0,0,.23-.09c0-.07,0-.12-.14-.14a.18.18,0,0,0-.23.08.19.19,0,0,0,.14.15m9.5.31a.26.26,0,0,0-.1-.21.22.22,0,0,0-.12.2.2.2,0,0,0,.11.2.19.19,0,0,0,.11-.19m1.92,4.32-.07-.07c-.11,0-.11.07,0,.13l.08-.06m-.56-.55c0-.12-.09-.12-.16,0l.08.08.08-.07M11.29,26.5l-.07.06c0,.11.08.12.14,0l-.07-.08m-.83-1.67-.08.06c0,.1.09.11.15,0a.46.46,0,0,1-.07-.07m12.89-.47c0-.12-.1-.12-.16,0l.08.08.08-.07M10.8,24.08,10.74,24c-.11,0-.12.08,0,.14l.08-.06m.84-.57-.06-.08c-.12,0-.12.09,0,.16l.08-.08m10.8-.35-.05.09h.09ZM21,23c.11,0,.12-.08,0-.14l-.08.06L21,23m-5.77-.9c0-.11-.09-.11-.15,0l.07.08.08-.07m-1.38-.27-.07-.08c-.11,0-.12.08,0,.14l.08-.06m9-.58.09.06v-.1Zm-4.87,0c0-.12-.1-.12-.17,0l.08.09.09-.08m-3.07,0-.07-.08c-.11,0-.12.09,0,.15l.08-.07m6.12-1.95L21,19.28v.1Zm-4.73,0-.07-.08c-.1,0-.11.08,0,.14l.08-.06m-3.35,0-.1-.06v.1Zm7.11-.3.09.06V19Zm-1.4-.28.1.06v-.1Zm-3.26-.05-.06.08h.1Zm-4.76-2.1.07-.09h-.11Zm-1.59-.34c0-.1-.09-.11-.14,0l.06.07a.24.24,0,0,0,.08-.06M20.84,16c0-.11-.09-.12-.15,0l.07.09.08-.08m-7.61-.21.06-.1h-.1Zm-3.61-.42-.06.09h.1Zm2-.2c0-.11-.09-.11-.15,0l.07.08.08-.06m2.14-.77c.13,0,.13-.1,0-.16l-.09.08.07.08m-3.52-.07-.07-.09c-.12,0-.12.1,0,.16l.09-.07M11.92,14,11.86,14c-.11,0-.12.09,0,.15l.08-.07m.83-.27c0-.11-.08-.12-.14,0l.07.08.07-.06m-2.29-.09-.06.1h.1ZM1.24,3.23l.06-.09H1.2ZM21.73,9.15c.21,0,.28.19.29.39a2.48,2.48,0,0,0,0,.27.42.42,0,0,0,.22.15.81.81,0,0,0,.27,0,.24.24,0,0,0,.23-.11.34.34,0,0,0,0-.37c-.24-.27-.5-.52-.76-.77a.34.34,0,0,0-.24-.11l0,0a5.61,5.61,0,0,0,0,.58ZM28.3,29.23l.27,0,.14,0c.12,0,.16-.09.12-.15a.2.2,0,0,0-.12-.06,10.41,10.41,0,0,0-1.91,0,.31.31,0,0,0-.13,0l-.12.07a.37.37,0,0,0,.12.07,5,5,0,0,0,.95.06l.68,0m-6-18.39a.88.88,0,0,0,0-.4c-.05-.11-.12-.11-.22,0a3.11,3.11,0,0,0-.47.49.26.26,0,0,0-.07.11.24.24,0,0,0,.05.25c.06.05.15,0,.23,0l.29-.29a.44.44,0,0,1,.25-.11Zm-5.86,5.57a1.22,1.22,0,0,0,0-.27.61.61,0,0,0,0-.13.22.22,0,0,0-.22-.12c-.1,0-.19,0-.23.11a.34.34,0,0,0,0,.26.25.25,0,0,0,.23.13h.27Zm5.32-7.24a1.35,1.35,0,0,0-.4,0l-.09.09a.43.43,0,0,0,.1.09.28.28,0,0,0,.25,0,.22.22,0,0,0,.12-.21ZM17,14.74a.23.23,0,0,0-.12-.22.33.33,0,0,0-.26,0,.76.76,0,0,0-.09.09.21.21,0,0,0,.22.12H17Zm.56.82a.23.23,0,0,0,.22-.12.33.33,0,0,0,0-.26s-.06-.06-.09-.1a.23.23,0,0,0-.13.23v.27Zm1.12.57a.2.2,0,0,0-.13-.21l-.08.07a.21.21,0,0,0,.22.12ZM17,14.72a.19.19,0,0,0,.13.22l.07-.08a.2.2,0,0,0-.22-.12Zm3.2-1.32-.08.06.06.08c.12,0,.12-.08,0-.14m-3.7.06c0,.12.09.12.15,0l-.07-.09-.08.07m.56-.26.07.07.07-.06c0-.11-.08-.12-.14,0M14,23.54a.2.2,0,0,0,.06.12l.28.3c.08.08.07.15,0,.24a2,2,0,0,0-.36.41.29.29,0,0,0,0,.26.24.24,0,0,0,.22.13c.17,0,.19,0,.28-.22a.6.6,0,0,1,.12-.24,2.68,2.68,0,0,1,.28-.3l.29-.3c.08-.08.09-.16,0-.21a.17.17,0,0,0-.11-.06l-.41-.05-.35-.22h-.22a.14.14,0,0,0-.08.14m3.26-.47a.17.17,0,0,0,.17-.14l-.09-.1a1,1,0,0,1-.49-.22.29.29,0,0,0-.26,0c-.12,0-.13.1,0,.2a.77.77,0,0,0,.45.29h.26m-3.54,2.65a.34.34,0,0,0-.06.24s.05.06.08.1A.31.31,0,0,0,14,26a.76.76,0,0,0,.09-.09.34.34,0,0,0,.06-.12c0-.07-.05-.12-.15-.13a.24.24,0,0,0-.23.08m2.93-1.83c.1,0,.18,0,.23-.06s0-.14-.09-.21l-.09-.08c-.14-.11-.23-.08-.25.08a.23.23,0,0,0,.2.27m2.09-.57a.24.24,0,0,0,.15-.22.18.18,0,0,0-.11-.21.53.53,0,0,0-.23.16c-.12.14-.1.25.06.28h.13m.94-.63a1.17,1.17,0,0,0-.05-.11l-.07-.11a.6.6,0,0,0-.21-.14.21.21,0,0,0-.12.19.22.22,0,0,0,.11.22.53.53,0,0,0,.12,0,.2.2,0,0,0,.22-.08m-2.42-.45a.25.25,0,0,0,.13.23.43.43,0,0,0,.25.07h.14A.27.27,0,0,0,18,22.4a.38.38,0,0,0-.22-.13,5,5,0,0,0-.55,0Zm0,0a.31.31,0,0,0-.12-.23.27.27,0,0,0-.26,0,.76.76,0,0,0-.09.09.2.2,0,0,0,.22.13h.27Zm-1.11,3a1,1,0,0,0,.39,0s.06-.06.09-.09-.06-.08-.1-.09a.31.31,0,0,0-.25,0,.22.22,0,0,0-.11.22Zm2.11,1.88,0-.09-.1,0Zm-3.51-1a.2.2,0,0,0-.12-.23l-.08.09a.2.2,0,0,0,.22.12Zm1.42-.84a.21.21,0,0,0-.23.12l.08.08a.22.22,0,0,0,.13-.22Zm4.89-.94v-.1l-.11,0Zm-1.18,0H20l0-.1Zm-3.53-.05h-.11l.05.1Zm2.12-.23h.1l0-.1Zm1.88-.43a.2.2,0,0,0-.22.12l.08.07a.19.19,0,0,0,.12-.21Zm-4.61.05-.09.08.08.09.09-.08-.08-.09m2.93-1.47a.21.21,0,0,0,.13.22l.07-.08a.18.18,0,0,0-.22-.11Z"/></g></g></svg>