<svg xmlns="http://www.w3.org/2000/svg" viewBox="0 0 28.65 29.18"><defs><style>.cls-1{fill:#870f54;}</style></defs><g id="Layer_2" data-name="Layer 2"><g id="Layer_1-2" data-name="Layer 1"><path class="cls-1" d="M3.89,28.11c-.21.05-.21.05-.28.26a.33.33,0,0,1-.15.21.57.57,0,0,1-.23-.15l-.09-.1c-.24-.22-.29-.21-.38.05a.69.69,0,0,1-.21.35.55.55,0,0,1-.36.17,13.25,13.25,0,0,1-1.67,0,.33.33,0,0,1-.22-.15,2.51,2.51,0,0,1,0-.27l0-1.67a.88.88,0,0,0-.11-.39A.82.82,0,0,1,0,26c0-1.58,0-3.16,0-4.73a1,1,0,0,1,.16-.53.46.46,0,0,0,.07-.26c0-.56,0-1.11,0-1.67,0-1.07,0-2.13,0-3.2a.86.86,0,0,1,.13-.39.79.79,0,0,0,.1-.4c0-.55,0-1.11,0-1.67a.66.66,0,0,0-.11-.39.92.92,0,0,1-.11-.4V11c0-.15,0-.16.14-.53a.48.48,0,0,0,0-.12,1.29,1.29,0,0,1-.15-.67A1.06,1.06,0,0,1,.47,9a.5.5,0,0,0,0-.27.42.42,0,0,0-.08-.12.86.86,0,0,1-.13-.39c0-.69,0-1.39,0-2.09s0-1.48,0-2.22a.5.5,0,0,1,.07-.27l.12-.24c0-.08-.1-.16-.14-.24a.69.69,0,0,1,0-.13.61.61,0,0,1,0-.14c0-.65,0-1.3,0-1.95A2.51,2.51,0,0,1,.29.7.46.46,0,0,1,.51.55,7,7,0,0,1,1.63.5,2,2,0,0,0,2.29.35c.13,0,.26.1.39.06A1.79,1.79,0,0,1,3.07.28H5l8.07,0c1.16,0,2.32,0,3.48,0,.13,0,.13,0,.4-.11l.13,0a.92.92,0,0,1,.67,0c.09,0,.17.09.25.11a1.32,1.32,0,0,0,.28,0c.56,0,1.11,0,1.67.05a.76.76,0,0,1,.39.13.78.78,0,0,0,.39.12c.42,0,.84,0,1.25,0,.11,0,.18.07.17.15a.2.2,0,0,1-.06.12.9.9,0,0,1-.33.25l-.13,0a.87.87,0,0,0-.11.09c0,.07.06.13.16.15s.47,0,.64.22a.55.55,0,0,1,.14.23l-.06.12c-.1.18-.1.19.12.28s.24.1.15.27-.08.21.13.28a3.2,3.2,0,0,1,.37.19.17.17,0,0,0,.12,0,.69.69,0,0,1,.25-.09.3.3,0,0,1,.1.25.76.76,0,0,0,.5.76l.13.05a.28.28,0,0,1,.17.2.7.7,0,0,1-.05.53c-.15.24-.14.27.07.46s.32.19.5.08.15-.11.23-.15h.14a.2.2,0,0,1,.22.13.41.41,0,0,1,0,.27.83.83,0,0,1-.08.12.53.53,0,0,0-.11.24.31.31,0,0,0,.08.26c.17.26.16.26.14.37a.62.62,0,0,1-.11.25.54.54,0,0,0-.13.38v.84a.78.78,0,0,0,0,.14c0,.16.05.22.24.3a.39.39,0,0,1,.29.41c0,.14,0,.28,0,.42a.23.23,0,0,0,.14.2.43.43,0,0,0,.09-.1.69.69,0,0,0,.05-.13c0-.11.1-.16.17-.12a.26.26,0,0,1,.07.11,1,1,0,0,0,.11.26.76.76,0,0,0,.71.36c.18,0,.22,0,.3.24s.13.25.19.37a.75.75,0,0,1,.07.12s0,.09,0,.14a1.34,1.34,0,0,1-.2.93.38.38,0,0,0,.06.38l.29.31.28.3a.41.41,0,0,1,.11.25c0,.47,0,.93,0,1.39s0,1,0,1.53a.78.78,0,0,0,.09.4.9.9,0,0,1,.13.39c0,.38,0,.75,0,1.12a.8.8,0,0,1-.14.53.57.57,0,0,0-.08.26c0,.18,0,.37,0,.55,0,1.35,0,2.69,0,4a.7.7,0,0,0,.13.39.19.19,0,0,1,0,.25.53.53,0,0,0-.14.38s0,.09,0,.14a1.22,1.22,0,0,1-.24.77.41.41,0,0,0,0,.27,1.33,1.33,0,0,1,.23.64.57.57,0,0,0,.08.26.64.64,0,0,1,.11.24.54.54,0,0,1-.07.13.75.75,0,0,0-.12.39c0,.28,0,.55,0,.83a.53.53,0,0,1-.21.49.67.67,0,0,1-.34.23,1.85,1.85,0,0,0-.37.19l-.12.06h-.14l-1.53,0a.58.58,0,0,0-.38.15,4,4,0,0,1-.32.26.31.31,0,0,1-.13.06,2.48,2.48,0,0,1-.27,0H22.64a1,1,0,0,1-.4-.11.92.92,0,0,0-.4-.11H14.05a.73.73,0,0,0-.39.11c-.17.08-.17.09-.39,0A.72.72,0,0,0,13,29c-.69,0-1.39,0-2.09,0l-4.17,0a.78.78,0,0,1-.4-.12.76.76,0,0,0-.39-.1H4.43A1,1,0,0,1,4,28.59c-.12-.05-.12-.05-.15-.5a2.43,2.43,0,0,1,.27,0A.23.23,0,0,0,4.36,28a.21.21,0,0,0-.22-.12H3.87a.49.49,0,0,0-.1-.25c-.12-.17-.12-.18,0-.35a.39.39,0,0,0,.1-.25h.29c0,.2.08.26.28.28a.19.19,0,0,0,.13.22.3.3,0,0,1,.08-.08.19.19,0,0,0-.22-.13.22.22,0,0,0-.08-.2.24.24,0,0,0-.2-.08.2.2,0,0,0-.09-.19.1.1,0,0,0-.09,0,.18.18,0,0,0-.08.19.88.88,0,0,0-.28,0c-.18,0-.22.05-.29.25a.35.35,0,0,1-.27.28.34.34,0,0,0-.22.15.29.29,0,0,0,.23.13,7.66,7.66,0,0,0,.83,0ZM5,23.91a.2.2,0,0,0,.22-.12l-.08-.08a.2.2,0,0,0-.12.22c-.2,0-.25.08-.28.28H4.43v-.28a.89.89,0,0,1,.06-.4c.07-.14.23-.15.34-.22a.73.73,0,0,0,.08-.09s-.06-.08-.1-.1a2.7,2.7,0,0,0-.41-.05A.26.26,0,0,1,4.29,23c-.06-.07,0-.14.09-.18s.25-.09.29-.24,0-.21-.14-.37L4.34,22a.55.55,0,0,1-.18-.51c0-.26.1-.33.31-.21a.77.77,0,0,0,.38.12.4.4,0,0,0,.42-.28.67.67,0,0,1,.21-.35l.19-.2a.83.83,0,0,0,.07-.13.21.21,0,0,0-.18-.15,1.67,1.67,0,0,1-.4-.07A.22.22,0,0,1,5,20c0-.1,0-.18.13-.21a.81.81,0,0,1,.41,0,.64.64,0,0,1,.25.12l.2.19a.67.67,0,0,0,.62.22l.13,0c.13-.05.14-.11.05-.22a.92.92,0,0,1-.13-.24,1.85,1.85,0,0,1,0-.41v-.28l.1-.1c.07,0,.13.06.14.16a2.66,2.66,0,0,1,0,.28c0,.17.06.2.19.35a.82.82,0,0,0,.22.16s.09,0,.12-.07c.19-.14.44-.16.62-.31s.15-.06.24,0a1.12,1.12,0,0,1,.3.46.29.29,0,0,0,.3.22c.23,0,.46,0,.7,0a.59.59,0,0,0,.13,0,.18.18,0,0,0,.11-.08c0-.06,0-.13-.11-.16A2.7,2.7,0,0,0,9.36,20a.4.4,0,0,1-.16-.21,1.19,1.19,0,0,1,0-.42.86.86,0,0,1,.26-.31A.47.47,0,0,1,9.58,19a.19.19,0,0,1,.12.21.38.38,0,0,1-.09.25c-.08.09-.09.17,0,.22a.34.34,0,0,0,.12.06c.18,0,.37,0,.51.16s.15.34.23.5,0,.16-.12.18a.86.86,0,0,0-.36.2.44.44,0,0,1-.25.11.5.5,0,0,0,0-.13.32.32,0,0,0-.21-.15,1.28,1.28,0,0,0-.39,0,.32.32,0,0,0-.17.33c0,.11.1.13.2.08a1.17,1.17,0,0,1,.62-.18,2.53,2.53,0,0,0,0,.28c0,.18,0,.22.24.29a.39.39,0,0,1,.23.14.41.41,0,0,1,0,.27A.32.32,0,0,1,10,22c-.25.1-.25.17,0,.38l.39.39a1,1,0,0,1,.08.11c.08.09.06.16-.07.2a.34.34,0,0,1-.26-.05.87.87,0,0,1-.22-.17c-.36-.33-.25-.28-.73-.29a.25.25,0,0,0-.11-.22.41.41,0,0,0-.25-.07H8.41A.39.39,0,0,1,8,21.93a.26.26,0,0,0-.16-.19.31.31,0,0,0-.25,0,.24.24,0,0,0-.12.22H7.38a.68.68,0,0,0-.39.11,1.06,1.06,0,0,1-.35.18c-.11,0-.15.08-.15.16s.07.07.11.08a.91.91,0,0,1,.45.27l.09.1c.18.17.26.18.31.05a.3.3,0,0,0,0-.26,1.42,1.42,0,0,0-.14-.23c0-.14.11-.22.16-.34a.51.51,0,0,0,0-.13.35.35,0,0,1,.28.25.75.75,0,0,0,.19.35c.16.19.21.21.44.07a.45.45,0,0,1,.25-.09l.53,0a.42.42,0,0,0,.09.24c.13.19.12.24,0,.31a.82.82,0,0,0-.23.11c-.12.1-.1.25-.11.37a2.43,2.43,0,0,0,0,.27.39.39,0,0,0,.06.26.34.34,0,0,0,.22.13l0,0a.43.43,0,0,1-.1.25c-.12.18-.12.19,0,.36a.53.53,0,0,1,.11.24.22.22,0,0,0-.22.12l.08.08A.19.19,0,0,0,9.16,25h1c.23,0,.24,0,.51.17a.42.42,0,0,0,.12.08.81.81,0,0,0,.41,0,1.78,1.78,0,0,0,.36-.19c.08,0,.18-.05.26-.09a1.14,1.14,0,0,0,.32-.26l.21-.18a.62.62,0,0,1,.25-.11.72.72,0,0,0,.24-.14l.39-.4a.45.45,0,0,0,.06-.12.21.21,0,0,0-.19-.14c-.28-.05-.56,0-.83,0-.11,0-.17-.06-.18-.14s.06-.07.1-.08a.6.6,0,0,0,.24-.12c0-.15-.08-.24-.13-.35s0-.09,0-.13l0,0a.66.66,0,0,1,.14,0,.69.69,0,0,1,.39.1.7.7,0,0,0,.24.13,1.18,1.18,0,0,0,.27,0,.26.26,0,0,0,.25-.09c0-.06,0-.14-.07-.22a.44.44,0,0,1-.11-.25.26.26,0,0,0,.22-.13.25.25,0,0,0,0-.25s-.06-.06-.09-.09a.21.21,0,0,0-.12.22c0,.09,0,.18,0,.27l-.13,0L13,22.34l-.36-.18a.29.29,0,0,1-.05-.37.89.89,0,0,1,.41-.36.68.68,0,0,0,.24-.12c.08-.06.08-.06.12-.38a.57.57,0,0,1,0-.13l.06-.13a1.12,1.12,0,0,0,.22-.64c0-.16.06-.2.25-.28s.25-.11.15-.27a1,1,0,0,1-.14-.53c0-.18,0-.37,0-.55a.52.52,0,0,1,.16-.37.37.37,0,0,0,.1-.25.42.42,0,0,0,.24-.09.78.78,0,0,1,.35-.18.16.16,0,0,0,.15-.16.36.36,0,0,0-.22-.13.32.32,0,0,1-.24-.28.22.22,0,0,0,.22-.13.38.38,0,0,0,.06-.26c0-.05,0-.09,0-.14s-.06-.22-.25-.29a.36.36,0,0,1-.22-.16.62.62,0,0,1-.05-.4.43.43,0,0,1,.05-.12c.05-.1.13-.1.22,0,.29.14.39.13.62-.08a.44.44,0,0,0,.14-.22A.31.31,0,0,0,15,15l-.27,0a.28.28,0,0,1-.22-.31.5.5,0,0,1,.12-.24.15.15,0,0,0,0-.24.18.18,0,0,1-.05-.24c.07-.11.26-.28.31-.26a.18.18,0,0,1,.09.1,2.79,2.79,0,0,1,.07.4.29.29,0,0,0,.16.21.33.33,0,0,0,.26,0l.24-.14.24.13a1.19,1.19,0,0,0,.26.11.28.28,0,0,1,.18.19.47.47,0,0,0,.13.24.26.26,0,0,0,.23-.1l.39-.4a.55.55,0,0,0,.12-.24q0-.16.15-.18a.39.39,0,0,1,.14.23.44.44,0,0,0,.31.25.18.18,0,0,1,.11.08c0,.06,0,.13-.14.16a.55.55,0,0,0-.24.12l-.21.19-.49.49a.24.24,0,0,0-.1.23c0,.1.21.11.37,0l.12-.08a.66.66,0,0,1,.53-.1.29.29,0,0,1,.26.27,2.36,2.36,0,0,0,0,.28c0,.1.08.16.15.16l.09-.1c.06-.28.25-.36.51-.34a.43.43,0,0,1,.27.08.78.78,0,0,0,.51.18h.41a.33.33,0,0,1-.23.28.61.61,0,0,0-.13,0,.39.39,0,0,0-.1.08.15.15,0,0,0,.15.15,7.36,7.36,0,0,0,1.05,0A.38.38,0,0,0,21,16.6a.33.33,0,0,0,.13-.21l0,0a.37.37,0,0,0,.21-.12.34.34,0,0,0,.07-.24,4.17,4.17,0,0,0,0-.5,1.22,1.22,0,0,0,.27,0,.27.27,0,0,0,.27-.25.68.68,0,0,0-.09-.52c-.11-.18-.11-.19,0-.36a.82.82,0,0,0,.12-.25.52.52,0,0,1,.21-.34.7.7,0,0,1,.35-.21.63.63,0,0,0,.34-.22.42.42,0,0,0,.13-.22.31.31,0,0,0-.25-.11h-.13a.5.5,0,0,0-.27.07,1.22,1.22,0,0,1-.35.2,2.59,2.59,0,0,0-.38.17.2.2,0,0,1-.11,0,.19.19,0,0,1-.07-.24,1.92,1.92,0,0,1,.12-.25c.08-.16.08-.16-.17-.26s-.23-.12-.25-.29,0-.27,0-.41a.6.6,0,0,0-.12-.39c-.1-.17-.07-.22.11-.28a.43.43,0,0,0,.23-.14.57.57,0,0,0-.15-.23L21,10.83c-.09-.09-.1-.16,0-.24l.28-.31a.18.18,0,0,0,0-.24c-.08-.11-.13-.23,0-.35s.19-.21.28-.31a.34.34,0,0,0,0-.38.27.27,0,0,0-.23-.12s0-.09,0-.12.09-.15.14-.23,0-.16-.09-.19a.69.69,0,0,0-.8.31c-.05.09,0,.16.08.19a2.09,2.09,0,0,0,.66,0,.33.33,0,0,1-.27.27,2.66,2.66,0,0,1-.28,0,.48.48,0,0,0-.25.09c-.18.12-.25.12-.36,0l-.49-.49a.7.7,0,0,0-.23-.15,1.08,1.08,0,0,1-.24-.12c-.12-.09-.12-.24-.19-.36L19,7.91c0-.09.07-.17.11-.25s0-.08,0-.1a.71.71,0,0,0-.25-.11,1.14,1.14,0,0,1-.23-.15.58.58,0,0,0-.26-.09.75.75,0,0,0-.4.06l-.13.07-.12.06a.54.54,0,0,1-.22-.15.81.81,0,0,1-.09-.1c-.07-.08-.05-.16,0-.24a.39.39,0,0,0,.1-.25.2.2,0,0,0-.11-.23.34.34,0,0,0-.26,0,1.88,1.88,0,0,0-.24.14.3.3,0,0,1-.38,0,1,1,0,0,0-.65-.19h-.13c-.19,0-.36-.07-.42-.29a.85.85,0,0,0-.44-.51s-.09,0-.13,0a.23.23,0,0,0-.12-.22l-.08.08a.23.23,0,0,0,.22.12.48.48,0,0,1-.1.23,1.59,1.59,0,0,0-.15.21c0,.08,0,.17-.07.25l-.22.32a.42.42,0,0,0,0,.12l0,0a.36.36,0,0,0-.28.41l0,.42a.35.35,0,0,1-.1.25l-.19.2a.47.47,0,0,1-.25.11,1.18,1.18,0,0,0-.65.2.26.26,0,0,1-.12,0,.25.25,0,0,1-.3-.2.19.19,0,0,1,.1-.24l.25-.12a.21.21,0,0,0,.12-.22.23.23,0,0,0-.1-.24c-.08,0-.17-.07-.25-.12s-.05-.06-.07-.09a.43.43,0,0,1,.1-.09c.32-.19.32-.19.09-.44l-.18-.21a.38.38,0,0,1,.05-.5l.19-.21a.52.52,0,0,0,.14-.22.41.41,0,0,0-.07-.11.19.19,0,0,1,0-.25c.11-.2.11-.21,0-.35a.35.35,0,0,1-.08-.26.41.41,0,0,1,.11-.25,1,1,0,0,1,.45-.31.25.25,0,0,0,.2-.16.29.29,0,0,0,0-.26,1.54,1.54,0,0,1-.24-.5.34.34,0,0,0-.22-.15,7.55,7.55,0,0,0-.83,0c-.16,0-.21-.05-.29-.24s-.11-.25-.27-.14-.35.12-.51.22-.21.12-.36,0a.38.38,0,0,0-.5,0,.67.67,0,0,1-.52.16,1.84,1.84,0,0,1-.41,0,.34.34,0,0,1-.19-.18C8.84,2,8.84,2,8.72,1.88a.94.94,0,0,0-.1-.1c-.09-.08-.17-.08-.22,0s-.1.26-.18.37A1,1,0,0,0,8,2.52c0,.16-.15.16-.3,0s-.13-.13-.21-.19-.16-.17-.5-.18a.4.4,0,0,0-.26.08c-.11.08-.2.18-.31.27a1.17,1.17,0,0,1-.36.21c-.17.06-.17.07-.26.29s-.1.15-.17.15a.24.24,0,0,1-.11-.24.79.79,0,0,1,.1-.4.75.75,0,0,0,.07-.12.37.37,0,0,0,0-.38.25.25,0,0,0-.23-.13.24.24,0,0,0-.07-.2.26.26,0,0,0-.21-.08.19.19,0,0,0-.12-.21l-.08.08a.2.2,0,0,0,.22.12.24.24,0,0,0,.07.2.32.32,0,0,0,.21.08.29.29,0,0,1-.14.22A.33.33,0,0,1,5,2.07a.26.26,0,0,0-.36,0,.49.49,0,0,1-.26.1,1.4,1.4,0,0,0-.4.07,1.56,1.56,0,0,0-.41.36c-.12.11-.21.08-.29-.1s-.1-.24-.26-.16a1,1,0,0,1-.53.13c-.18,0-.37,0-.55,0a.32.32,0,0,0-.31.22,1,1,0,0,1-.12.25.52.52,0,0,0-.11.24.75.75,0,0,0,.07.12l.07.12a.57.57,0,0,1-.12.23.41.41,0,0,0-.09.26c0,.23,0,.46,0,.69A.63.63,0,0,1,1.22,5c-.13.14-.13.34-.23.5A.68.68,0,0,0,.82,6v.55A.61.61,0,0,0,1,6.93a.6.6,0,0,1,.12.24A.82.82,0,0,1,1,7.7C.82,8,.84,8,.82,8.08A.65.65,0,0,0,1,8.59c.12.15.13.34.23.5s.14.21,0,.35a.55.55,0,0,0-.08.39.33.33,0,0,0,.23.15.32.32,0,0,1,.22.15.7.7,0,0,1,0,.53,1.12,1.12,0,0,1-.13.24.39.39,0,0,0,.07.5l.4.39a.59.59,0,0,0,.23.14,1.17,1.17,0,0,1,.56.39c.1.11.11.1.35.21a.28.28,0,0,1,.17.43c-.05.08-.11.15-.15.23a.36.36,0,0,0,0,.27.29.29,0,0,0,.1.09,1.89,1.89,0,0,0,.4.08.29.29,0,0,1,.26.27l0,0c-.05,0-.1,0-.13,0a1.06,1.06,0,0,0-.38.38.53.53,0,0,0-.08.25l-.23.33a.44.44,0,0,0,0,.26.22.22,0,0,0,.1.09,1.34,1.34,0,0,0,.4.06l0,0a.37.37,0,0,1-.1.25.75.75,0,0,0-.15.24.8.8,0,0,0,0,.27.47.47,0,0,1-.08.26,1.88,1.88,0,0,0-.14.24.87.87,0,0,0,0,.53c.07.12.15.24.21.36a.29.29,0,0,1-.16.33,1.06,1.06,0,0,0-.46.29c-.12.12-.12.21,0,.35a1.8,1.8,0,0,1,.19.2c.13.13.13.22,0,.34a.85.85,0,0,1-.33.24.39.39,0,0,0-.32.38c0,.1,0,.19,0,.28a2.62,2.62,0,0,0,0,.28c0,.13,0,.28.12.37a.67.67,0,0,0,.39.1.29.29,0,0,1,.23.13.27.27,0,0,1-.21.13,2.66,2.66,0,0,0-.28,0c-.1,0-.16.08-.16.15s.06.08.1.09a.93.93,0,0,1,.25.1,1.15,1.15,0,0,0,.64.22.2.2,0,0,1,.13,0,.76.76,0,0,1,.09.09l-.09.1a1,1,0,0,0-.47.26c-.16.17-.14.29.06.44a1.2,1.2,0,0,0,.24.15l.13,0a.29.29,0,0,1,.12.45,1.62,1.62,0,0,0-.23.5s0,.07-.08.11c-.12.21-.07.26.23.31.13,0,.28,0,.37.14a.89.89,0,0,1,.09.39.28.28,0,0,0,0,.13.43.43,0,0,0,.09.1s.08-.06.09-.1.12-.35.33-.39a1,1,0,0,0,0,.39.16.16,0,0,0,.08.1.39.39,0,0,0,.24.06l.1-.09a.33.33,0,0,0-.09-.22.44.44,0,0,1-.11-.24c.2,0,.26-.08.28-.28M13.07,5.8a1.35,1.35,0,0,0,.4,0l.09-.1s-.06-.08-.1-.09a.28.28,0,0,0-.25,0,.26.26,0,0,0-.13.22c-.09,0-.16,0-.19.09S12.9,6,13,6a.19.19,0,0,0,.09-.19M8.34,23.91c0,.09,0,.17.09.2s.13,0,.09-.09a.17.17,0,0,0-.19-.09.23.23,0,0,0-.12-.22.25.25,0,0,0-.25,0s-.07.06-.1.09a.21.21,0,0,0,.21.13h.27M3.59,25.33a.21.21,0,0,0-.12-.23l-.08.08a.18.18,0,0,0,.22.12.25.25,0,0,0,.12.23.25.25,0,0,0,.25,0s.07-.06.1-.09a.22.22,0,0,0-.22-.13H3.59m2.23-1.7.12,0a.27.27,0,0,0,.12-.33.33.33,0,0,0-.32-.15c-.11,0-.13.1-.07.19a.91.91,0,0,1,.17.34.2.2,0,0,0-.22.12l.08.08a.2.2,0,0,0,.12-.22m2.8-2.23a.31.31,0,0,0,.12.23.33.33,0,0,0,.26,0,.45.45,0,0,0,.09-.1.21.21,0,0,0-.22-.12H8.61a1.22,1.22,0,0,0,0-.27c0-.16-.09-.23-.26-.27a.68.68,0,0,0-.4,0c-.1,0-.12.13-.12.23a.22.22,0,0,0,.13.22,1.1,1.1,0,0,0,.26.06l.41,0m-5.17,5a.45.45,0,0,0,.26,0l.09-.08a.34.34,0,0,0-.08-.09.51.51,0,0,0-.25-.05.51.51,0,0,0-.36.12c0,.07.17.14.34.14m24.61,1c0-.09-.27-.16-.49-.13a.33.33,0,0,0-.21.12.3.3,0,0,0,.21.13.66.66,0,0,0,.39,0l.1-.08M8.59,24.79a.41.41,0,0,0,0-.11.16.16,0,0,0-.09-.09c-.06,0-.11,0-.13.12a.19.19,0,0,0,.07.23c.08,0,.12-.05.15-.15M3,24.62a.2.2,0,0,0-.19-.12.28.28,0,0,0-.22.11.2.2,0,0,0,.2.12A.19.19,0,0,0,3,24.62m3-3.41a.2.2,0,0,0-.12.2.25.25,0,0,0,.11.21.25.25,0,0,0,.12-.2A.23.23,0,0,0,6,21.21m9.15-1.9a.2.2,0,0,0,0,.24s0,.07.08.1.09,0,.11-.09a.21.21,0,0,0,0-.24h-.1m3.74-2.21a.2.2,0,0,0-.2-.12.26.26,0,0,0-.21.1.2.2,0,0,0,.2.12.24.24,0,0,0,.21-.1m-1.63-.39c-.1,0-.16.06-.14.13s.11.11.2.09.14-.07.15-.14a.17.17,0,0,0-.21-.08M13.53,2.32a.32.32,0,0,0-.1-.1.19.19,0,0,0-.13,0c-.12,0-.15.09-.09.16a.26.26,0,0,0,.12.05.15.15,0,0,0,.2-.11m-.24,4.75L13.23,7c-.11,0-.11.08,0,.14l.08-.06M16.83,6c.11,0,.12-.09,0-.15a.27.27,0,0,0-.08.07.27.27,0,0,0,.07.08m-1-.9c0-.11-.09-.12-.16,0l.08.08.08-.07m1.12-.84-.07-.08c-.12,0-.12.09,0,.14l.09-.06M1,3.45c0-.11-.09-.12-.16,0L1,3.52A.27.27,0,0,1,1,3.45M14.6,2.67l.06-.09h-.11Zm-2.42-.62L12.11,2c-.11,0-.12.09,0,.15l.08-.07M21.93,16c0-.11-.09-.12-.16,0a.6.6,0,0,1,.08.08l.08-.07M21,17.29a.27.27,0,0,1-.08.07c0,.11.09.11.15,0L21,17.29m-1.11.56-.08.07c0,.1.09.11.15,0l-.07-.08M21,18c.11,0,.12-.09,0-.14l-.08.06L21,18m-6.67,1-.07.06c0,.11.08.11.14,0a.27.27,0,0,0-.07-.08M18,19l-.06.09.1,0ZM8,20.17l-.07-.09c-.11,0-.12.09,0,.16A.27.27,0,0,1,8,20.17M5.21,21.83l-.07-.07c-.1,0-.11.08,0,.14l.08-.07m.28.57c0-.11-.1-.12-.16,0a.27.27,0,0,1,.07.08l.09-.07m2.22,2.51c0-.11-.08-.12-.14,0a.27.27,0,0,0,.07.08l.07-.06m19.72,1.58-.08.06c0,.12.09.12.15,0l-.07-.08m-25.29.65c0-.11-.09-.12-.15,0a.46.46,0,0,1,.07.07l.08-.06M13.62,9.7c.2,0,.21-.06.29-.25s.1-.25.26-.17a.77.77,0,0,0,.38.14,1.33,1.33,0,0,1,.28,0,1.76,1.76,0,0,1,.23.14l.12.08c.09,0,.34-.05.36-.14a1.43,1.43,0,0,0,0-.41.74.74,0,0,1,.14-.52c.08-.1.08-.17,0-.22a.49.49,0,0,0-.27-.06.48.48,0,0,0-.26.06c-.09,0-.09.12,0,.22a.75.75,0,0,1,.07.12.54.54,0,0,1-.15.22,1.18,1.18,0,0,1-.22.17.5.5,0,0,1-.27,0,1,1,0,0,1-.42-.53c-.06-.18-.12-.21-.3-.24a.82.82,0,0,0-.27,0,.26.26,0,0,0-.21.15.32.32,0,0,0,0,.27,1.76,1.76,0,0,0,.14.23,1.87,1.87,0,0,1-.12.25.14.14,0,0,0,0,.11,1,1,0,0,1,.19.37Zm.81,7.14a.3.3,0,0,0-.21-.15,1.28,1.28,0,0,0-.39,0,.55.55,0,0,0-.22.32.76.76,0,0,1-.13.23l-.05.12a.65.65,0,0,0,.16.21.51.51,0,0,0,.34.19l.27,0a.57.57,0,0,0,0-.13,1.09,1.09,0,0,0,0-.26c0-.08-.09-.15-.13-.23s0-.2.19-.21h.26l-.05-.12m.05-9.93a.5.5,0,0,1,0,.13l-.07.12a.61.61,0,0,0-.17.36c0,.09,0,.18,0,.27a.29.29,0,0,0,.07.12c.06,0,.14,0,.22,0l.38-.39A.75.75,0,0,0,15,7.35a.39.39,0,0,0-.06-.11c-.13-.13-.22-.3-.43-.31Zm6.94,8.39a.31.31,0,0,0,0-.13.22.22,0,0,0-.09-.1A.75.75,0,0,0,21,15a1.82,1.82,0,0,0-.23.15c-.11.09-.25.09-.36.17a.31.31,0,0,0-.14.22h1.14l0-.27m-6-4a.17.17,0,0,0,.06.11,1.17,1.17,0,0,0,.3.24.32.32,0,0,0,.24,0s0-.06.05-.1a.89.89,0,0,0-.26-.29.23.23,0,0,0-.24-.06c-.09,0-.15,0-.15.14m.83,1.67a.39.39,0,0,0,.06.11,1.48,1.48,0,0,0,.31.25.33.33,0,0,0,.24-.05s0-.06,0-.09-.15-.2-.25-.29a.27.27,0,0,0-.24-.07c-.1,0-.16.06-.16.14m-3-2.3a.28.28,0,0,0-.21.09l-.09.09c-.08.08-.09.15,0,.2l.11,0a.22.22,0,0,0,.27-.19.18.18,0,0,0-.06-.23m1.31-.08a.45.45,0,0,0-.24.06.21.21,0,0,0-.1.23.49.49,0,0,0,0,.11c.05.07.13.06.21,0a.4.4,0,0,0,.18-.3l-.09-.09M3.89,13.88A.24.24,0,0,0,4,14.1a.39.39,0,0,0,.26.06H4.4A.28.28,0,0,0,4.63,14a.29.29,0,0,0-.22-.13H3.87Zm17.26.57a.48.48,0,0,1,.1-.23c.06-.08.11-.15.09-.22s-.23-.11-.34,0a.26.26,0,0,0,0,.43l.12,0Zm-12,9.74a1.26,1.26,0,0,0,.39,0s.06-.06.09-.09a.43.43,0,0,0-.1-.09.29.29,0,0,0-.24,0,.24.24,0,0,0-.12.22ZM8.07,18.65a.25.25,0,0,0-.22.11.23.23,0,0,0,.2.12.23.23,0,0,0,.21-.11.2.2,0,0,0-.19-.12m12-2.76c0,.08,0,.16,0,.24a.33.33,0,0,0,.29-.34c0-.08,0-.16,0-.24a.32.32,0,0,0-.28.34M3.59,15.27a1.15,1.15,0,0,0,.41,0l.09-.1S4,15.06,4,15a.34.34,0,0,0-.26,0,.26.26,0,0,0-.12.23Zm16.46-.8a.26.26,0,0,0-.21.1.23.23,0,0,0,.2.13.21.21,0,0,0,.2-.11.21.21,0,0,0-.19-.12M4,14.47a.29.29,0,0,0-.24.06c-.06.05,0,.12.06.16a.21.21,0,0,0,.23,0s0-.06,0-.09L4,14.47M15.78,13.2a.23.23,0,0,0-.4,0,.2.2,0,0,0,.2.11.23.23,0,0,0,.2-.1m-4.51-.91a.24.24,0,0,0-.12.19.2.2,0,0,0,.11.2.17.17,0,0,0,.11-.18.26.26,0,0,0-.1-.21m3.19-5.36c0-.2-.08-.25-.28-.28l0,0c0,.2.08.25.28.28Zm.76.94h-.1l0,.11ZM13.64,9.72a.24.24,0,0,0-.2.07.3.3,0,0,0-.08.2h0c.2,0,.26-.09.28-.28Zm-.28.27a.2.2,0,0,0-.22.13l.08.08a.18.18,0,0,0,.12-.22ZM8.14,3.18h.11l-.05-.1Zm-5,0a.27.27,0,0,1,.07.08l.08-.07c0-.11-.09-.12-.15,0m12.11,7.5h-.1l.05.11Zm-3.26,1a.21.21,0,0,0,.22-.12l-.08-.08a.2.2,0,0,0-.12.22Zm0,0a.21.21,0,0,0-.22.11l.08.08a.19.19,0,0,0,.12-.21Zm3.14.43.11,0-.05-.1Zm-1.95.83h.1l0-.1Zm7.5.26.07.08.09-.07c0-.11-.1-.11-.16,0m.5,1.25a.19.19,0,0,0,.13.21l.08-.07a.22.22,0,0,0-.22-.13Zm-15.8.73h.1l0-.1Zm8.06.52c0,.11.09.11.15,0a.27.27,0,0,1-.07-.08l-.08.07m6.13,0,.07.08.08-.06c0-.11-.09-.12-.15,0m-10,2.23.07.08.08-.07c0-.11-.09-.11-.15,0m-.83.28.06.08.08-.07c0-.11-.09-.11-.14,0m-3.91,2.5c0,.1.09.11.15,0l-.07-.07-.08.06m5.86,1.66c0,.11.08.12.14,0l-.07-.08-.07.06m1.59.45a.22.22,0,0,0-.13-.23l-.07.09a.2.2,0,0,0,.22.12Zm8.92-6.41a.21.21,0,0,0-.13-.23l-.08.08a.21.21,0,0,0,.23.13Z"/></g></g></svg>