<svg xmlns="http://www.w3.org/2000/svg" viewBox="0 0 29.81 29.27"><defs><style>.cls-1{fill:#008375;}</style></defs><g id="Layer_2" data-name="Layer 2"><g id="Layer_1-2" data-name="Layer 1"><path class="cls-1" d="M23.16,28.73a.48.48,0,0,0-.26.09.58.58,0,0,1-.38.14l-.7,0L19,29h-.56a.69.69,0,0,0-.39.14.45.45,0,0,1-.39,0c-.29-.1-.29-.11-.5,0a.63.63,0,0,1-.27.06H16.1a.84.84,0,0,1-.54-.14.44.44,0,0,0-.51,0,.92.92,0,0,1-.4.11h-.14l-4.73,0c-1.08,0-7.15,0-8.21,0A1.08,1.08,0,0,1,1,29.08.63.63,0,0,0,.77,29,3.31,3.31,0,0,1,.22,29a.35.35,0,0,1-.17-.21,2.51,2.51,0,0,1,0-.27c0-.42,0-.84,0-1.25,0-2.37,0-4.74,0-7.11,0-1.62,0-3.25,0-4.87,0-1.07,0-2.13,0-3.2,0-.42,0-.84,0-1.25a1.36,1.36,0,0,1,.12-.54.25.25,0,0,0,0-.25.53.53,0,0,1,0-.53c.12-.26.11-.26.11-.4V6.59c0-.33,0-.65,0-1a.65.65,0,0,0-.08-.26A1,1,0,0,1,.06,5L0,1.06a5.89,5.89,0,0,1,0-.84A.35.35,0,0,1,.23,0L.37,0H.65C2,0,3.25,0,4.55,0,5.29,0,6,0,6.78,0q3.83,0,7.65,0c.33,0,.65,0,1,0h.28c.55,0,1.11,0,1.67,0h2.08a.49.49,0,0,1,.27.05l.25.1L20.22.1l.13.06a.85.85,0,0,0,.39.12h2.92c1.07,0,2.13,0,3.2,0,.6,0,1.21,0,1.81,0A.52.52,0,0,1,29,.47a.63.63,0,0,1,.19.36c0,.05,0,.09,0,.14,0,.46,0,.93,0,1.39V8.07c0,1,0,1.95,0,2.92a1,1,0,0,1-.15.53.52.52,0,0,0-.07.27C29,13,29,14.2,29,15.41c0,2.36,0,4.73,0,7.1,0,1.76,0,3.53,0,5.29a7.85,7.85,0,0,1,0,1,.37.37,0,0,1-.2.17l-.14,0a6.29,6.29,0,0,1-1,0,.35.35,0,0,1-.14,0s-.07-.05-.11-.07a.34.34,0,0,1,0-.26,2.53,2.53,0,0,1,.2-.36c.05-.18.18-.32.22-.5s-.13-.25-.19-.37-.14-.28-.41-.31a1.28,1.28,0,0,1-.51-.17c-.08,0-.16,0-.19.12a.85.85,0,0,1-.4.54c-.12.08-.27.08-.36.2a1.92,1.92,0,0,0-.12.25.23.23,0,0,1-.22.14.62.62,0,0,1-.13,0L25,28a.4.4,0,0,0-.11,0,.27.27,0,0,0-.07.26,1.14,1.14,0,0,0,.27.31c.09.09.15.1.24,0a.47.47,0,0,1,.12-.07.34.34,0,0,1,.26,0,.22.22,0,0,1,.16.19c0,.12,0,.19-.12.23a.5.5,0,0,1-.13,0A4,4,0,0,1,25,29a13,13,0,0,1-1.53,0,.29.29,0,0,1-.29-.24.58.58,0,0,0,.14,0l.22-.16c.12-.08.26-.1.37-.18a.25.25,0,0,0,.08-.25c0-.12-.09-.13-.19-.08a.7.7,0,0,1-.52.13.66.66,0,0,1-.38-.14c-.11-.07-.18-.07-.22.05a.28.28,0,0,0,0,.25.36.36,0,0,0,.23.14.37.37,0,0,1,.26.29m-1.4-.58a.2.2,0,0,0,.12.22.6.6,0,0,1,.08-.08.21.21,0,0,0-.22-.13c0-.09,0-.17-.09-.19s-.13,0-.1.09.11.1.21.09M22.23,11a.2.2,0,0,0-.19-.11.27.27,0,0,0-.22.1.25.25,0,0,0,.2.12.23.23,0,0,0,.21-.11M25,12.75l.06-.09h-.1Zm-.26,1.55-.06.09h.1Zm1.37,9,.06-.08-.1,0Zm-3.52,1.34-.07-.09c-.12,0-.13.1,0,.17l.09-.08M29.77,8.56l-.07-.11-.08.1a.75.75,0,0,0,0,.26c0,.18.08.33.14.27a.29.29,0,0,0,.08-.25.63.63,0,0,0,0-.27m-3.5,20,.07.08.09-.07c0-.11-.1-.12-.16,0"/></g></g></svg>