<svg xmlns="http://www.w3.org/2000/svg" viewBox="0 0 28.05 30.04"><defs><style>.cls-1{fill:#00ac69;}</style></defs><g id="Layer_2" data-name="Layer 2"><g id="Layer_1-2" data-name="Layer 1"><path class="cls-1" d="M21.09,15a.4.4,0,0,0,.09.22,2.39,2.39,0,0,1,.13.21,2.39,2.39,0,0,1-.13.21.4.4,0,0,0-.09.22v0a.32.32,0,0,0-.26.26c0,.13,0,.27-.06.4a.33.33,0,0,1-.34.15l-.23-.12-.12,0a.22.22,0,0,0-.08.24.35.35,0,0,0,.16.2l.4.05a.39.39,0,0,1,.24.12,1.25,1.25,0,0,1,.26.3.61.61,0,0,1,0,.13.19.19,0,0,0-.22.12l.08.09a.21.21,0,0,0,.13-.23h.13c.32,0,.32,0,.58.29.08.09.09.15,0,.24a5,5,0,0,1-.6.54h-.13a.21.21,0,0,1-.22-.12l-.11-.24a.73.73,0,0,0-.09-.08.87.87,0,0,0-.09.11,4.79,4.79,0,0,0,0,.93l0,0-.55,0a.23.23,0,0,0-.23.12.36.36,0,0,0,0,.27s.06.06.09.1a1.4,1.4,0,0,0,.41.05l0,0a.51.51,0,0,0,.1.24,1.07,1.07,0,0,1,.15.22,1.15,1.15,0,0,1,0,.26v.14l0,0a.39.39,0,0,1-.25-.1.57.57,0,0,0-.49-.17.63.63,0,0,0-.37.13l-.2.19a.88.88,0,0,1-.33.24c-.25.11-.29.17-.3.38a1.1,1.1,0,0,0,.21.89.46.46,0,0,1,0,.26.21.21,0,0,1-.09.1l-.12,0c-.24.09-.24.09-.15.27s.17.33,0,.6a.42.42,0,0,0-.1.25.21.21,0,0,0-.22.13l.08.08a.21.21,0,0,0,.12-.23l.12,0a.27.27,0,0,1-.07.5l-.26,0c-.27,0-.31.1-.16.32a.44.44,0,0,1,.09.24h0a.57.57,0,0,0-.25.11c-.21.14-.29.09-.31-.19,0-.13,0-.28-.13-.38s-.12.08-.15.33-.13.38-.44.4a1.17,1.17,0,0,0-.69.43.15.15,0,0,1-.24,0,.21.21,0,0,0-.24,0,.52.52,0,0,1-.24.08.44.44,0,0,1-.13-.24s-.05-.07-.08-.11-.14,0-.16.16a.34.34,0,0,1-.16.21.57.57,0,0,1-.15-.22c-.09-.19-.13-.21-.3-.24a3.49,3.49,0,0,0-.56,0,.26.26,0,0,0-.11.07c-.06.05,0,.13,0,.21s.33.32.48.5a.22.22,0,0,1,.07.23.28.28,0,0,1-.25.05.34.34,0,0,1-.12-.06c-.27-.19-.46-.46-.72-.66a.32.32,0,0,0-.37,0,.26.26,0,0,0,0,.36.23.23,0,0,0,.12.06.84.84,0,0,1,.35.21.57.57,0,0,1,.15.23.31.31,0,0,1-.21.15c-.2.07-.2.08-.25.28a.21.21,0,0,0-.23.12l.08.08a.2.2,0,0,0,.12-.22,2,2,0,0,1,.42,0l.22.16c.18.11.2.11.51,0,.09-.1.17-.08.21,0a.33.33,0,0,1,0,.26.6.6,0,0,1-.18.21.58.58,0,0,1-.36.17l-.83,0s-.09.05-.11.08,0,.13.12.16a2.66,2.66,0,0,0,.28,0c.17,0,.22.06.29.25a1.1,1.1,0,0,0,.32.45,1.4,1.4,0,0,0,.37.17s.06.06.09.1a.43.43,0,0,1-.1.09,1.13,1.13,0,0,1-.41,0,5.06,5.06,0,0,0-.55,0,1.56,1.56,0,0,0-.37.17l-.13,0a2.62,2.62,0,0,1-.56,0c-.17,0-.22-.05-.3-.23s-.11-.25-.28-.15-.42.17-.62.29a.2.2,0,0,1-.13,0,1.3,1.3,0,0,1-.25-.1l-.25.13a.76.76,0,0,1-.27,0l-1.66,0a.9.9,0,0,0-.52.17.57.57,0,0,1-.26.08l-1.52,0a1,1,0,0,0-.39.13,1,1,0,0,1-.4.1l-2.22,0-.83,0a1.09,1.09,0,0,0-.52.15.66.66,0,0,1-.27.06H.83a.66.66,0,0,1-.57-.34c-.07-.12-.09-.26-.16-.38S0,29.1.06,29a.79.79,0,0,0,.13-.39.77.77,0,0,1,.11-.39c.11-.15.1-.16,0-.36s0-.17.08-.2a1.94,1.94,0,0,1,.54,0,.36.36,0,0,0,.27-.06.29.29,0,0,0,.12-.23l0,0a.22.22,0,0,1,.22.13.61.61,0,0,1,.05.12c0,.1,0,.19,0,.28a.3.3,0,0,0,.14.22.27.27,0,0,0,.14-.22A.82.82,0,0,1,2,27.59a.78.78,0,0,0,.15-.38,2.46,2.46,0,0,1,0-.28,2.08,2.08,0,0,1,.27-.32c.08-.09.15-.11.23,0s.23.1.35,0l.1-.1a.47.47,0,0,0,.1-.38A.36.36,0,0,0,3,25.91c-.22-.05-.27-.23-.29-.42a.63.63,0,0,1,.11-.39c.11-.16.1-.23,0-.35s-.26-.27-.4-.39-.17-.08-.21.05a.58.58,0,0,0-.06.26.76.76,0,0,1,0,.27.93.93,0,0,1-.29.3.45.45,0,0,1-.25.09,1.68,1.68,0,0,1-.55,0,.31.31,0,0,1-.21-.16.47.47,0,0,0-.36-.37.36.36,0,0,1-.22-.32c0-.19,0-.37,0-.56s-.1-.25-.16-.38l.12-.25s0-.08,0-.13S0,23,.1,22.76a.67.67,0,0,0,.06-.12,1.32,1.32,0,0,0,0-.28c0-.46,0-.92.06-1.39a.78.78,0,0,1,.12-.39.92.92,0,0,0,.11-.39c0-.19,0-.37,0-.56a.92.92,0,0,1,.11-.4,1.18,1.18,0,0,0,.17-.52.62.62,0,0,1,.09-.26A4.52,4.52,0,0,0,1.1,18c0-.13.13-.24.19-.37a1,1,0,0,1,.11-.25,1,1,0,0,0,.19-.51.6.6,0,0,1,.07-.27,1.89,1.89,0,0,0,.23-.5c.07-.12.14-.24.22-.36a1.42,1.42,0,0,1,.36-.58l.09-.1a.63.63,0,0,0,.13-.24.72.72,0,0,1,.12-.25c.11-.15.15-.34.25-.5a4.71,4.71,0,0,1,.36-.42.42.42,0,0,0,.1-.25,1.18,1.18,0,0,1,.22-.65c.07-.11.08-.26.17-.37A4,4,0,0,1,4.18,12c.06-.08.1-.16.16-.23,0-.23.23-.4.3-.62a.72.72,0,0,1,.12-.25l.34-.43a.72.72,0,0,0,.12-.25A.59.59,0,0,1,5.36,10c.5-.55,1-1.06,1.57-1.58l.59-.59a.77.77,0,0,0,.2-.5,1,1,0,0,0-.15-.66.75.75,0,0,1-.07-.12.34.34,0,0,1,0-.26.29.29,0,0,1,.09-.1A.7.7,0,0,1,8,6.12H8a.55.55,0,0,0,.12.24,1,1,0,0,1,.19.36c0,.17.15.18.29,0a1.24,1.24,0,0,0,.18-.22C9,6.11,9,6.11,9.14,6l.31-.28a.5.5,0,0,1,.12-.08,2.08,2.08,0,0,0,.67-.47l.12-.08a2.11,2.11,0,0,0,.69-.45.72.72,0,0,1,.24-.14,1.25,1.25,0,0,0,.35-.21l.42-.37a1.74,1.74,0,0,1,.46-.3c.13,0,.24-.14.36-.2s.26-.1.38-.18.42-.18.61-.32.43-.17.62-.31.42-.19.62-.3a2.3,2.3,0,0,0,.5-.24A.61.61,0,0,1,15.87,2a1,1,0,0,0,.52-.17.94.94,0,0,1,.4-.13,1.12,1.12,0,0,0,.39-.13.94.94,0,0,1,.52-.15l.42,0a.8.8,0,0,0,.27,0,1.92,1.92,0,0,0,.25-.12.5.5,0,0,1,.26-.08l.42,0A.79.79,0,0,0,19.71,1,1.27,1.27,0,0,1,20.1.84a1.15,1.15,0,0,0,.4-.12.88.88,0,0,1,.38-.14c.65,0,1.3,0,1.95,0s1.11,0,1.66,0A.86.86,0,0,0,25,.39.68.68,0,0,1,25.4.26l.42,0a.48.48,0,0,0,.25-.09A1,1,0,0,1,26.6,0h.14c.32,0,.36,0,.51.34l.13.24a.84.84,0,0,1,.08.27c0,.64.06,1.29.05,1.94a1,1,0,0,0,.13.53.91.91,0,0,1,.1.4c0,.6,0,1.2,0,1.8q0,3.56,0,7.09a1.32,1.32,0,0,0,0,.28,2,2,0,0,0,.13.25.61.61,0,0,1,.05.12.68.68,0,0,1,0,.14c0,.37,0,.74,0,1.11,0,1.3,0,2.59,0,3.89,0,.28,0,.56,0,.83a.37.37,0,0,1-.14.23,2.28,2.28,0,0,1-.69,0,.29.29,0,0,1-.2-.31.57.57,0,0,1,.11-.25c.09-.08.08-.15,0-.24l-.48-.49c-.21-.22-.21-.22,0-.45l.1-.1a.66.66,0,0,0,.17-.75.19.19,0,0,0-.09-.11.33.33,0,0,0-.26,0,.37.37,0,0,0-.12.07c-.21.15-.3,0-.31-.22s0-.28,0-.42a.4.4,0,0,0-.09-.25.36.36,0,0,1-.08-.24.47.47,0,0,1,.24-.13.21.21,0,0,0,.11-.08.23.23,0,0,0,.07-.24.21.21,0,0,0-.07-.11.29.29,0,0,0-.25-.07.49.49,0,0,0-.24.14.31.31,0,0,1-.24.1v0c0-.45,0-.45-.15-.5a.94.94,0,0,0-.4-.07,2.63,2.63,0,0,1-.56,0,.32.32,0,0,1-.22-.13s0-.09,0-.14a.26.26,0,0,1,.1-.24l.09-.1.19-.2.06-.13a.19.19,0,0,0-.2-.13.48.48,0,0,0-.26.09c-.15.11-.21.1-.34,0a.57.57,0,0,1-.23-.48v-.42a1.15,1.15,0,0,0-.05-.41.76.76,0,0,0-.13-.23c-.12-.17-.08-.36-.13-.54s-.09-.16-.17-.13a.42.42,0,0,0-.12.08.6.6,0,0,0-.23.47.64.64,0,0,0,.09.4.71.71,0,0,1,.18.51.65.65,0,0,0,.13.38c.07.1.08.17,0,.22a.31.31,0,0,1-.12,0l-.28,0a.48.48,0,0,0-.25.09c-.19.13-.23.11-.31-.05a.36.36,0,0,0-.23-.31,1.59,1.59,0,0,1-.37-.18.19.19,0,0,0-.25,0c-.13.12-.22.26-.17.32a.44.44,0,0,0,.24.13.29.29,0,0,1,.12.45l-.16.23s0,.09,0,.13l0,0a.33.33,0,0,0-.3.31l0,0a.42.42,0,0,1-.25-.09c-.21-.14-.3-.09-.31.17V15a.2.2,0,0,0,.09.24.21.21,0,0,0,.22-.07.33.33,0,0,1,.25-.1Zm2.52-4.16a.2.2,0,0,0-.22.12l.08.08a.19.19,0,0,0,.13-.21.19.19,0,0,0,.19-.09c0-.08,0-.13-.09-.09s-.09.1-.09.19M4.09,13.65A.2.2,0,0,0,4,13.43l-.08.08a.19.19,0,0,0,.21.12.19.19,0,0,0,.13.22l.08-.08a.2.2,0,0,0-.22-.12m15.32.28a.2.2,0,0,0-.12-.22l-.08.08a.25.25,0,0,0,.23.12.22.22,0,0,0,.11.22l.08-.08a.2.2,0,0,0-.22-.12m-1.11.28a.2.2,0,0,0-.12-.22l-.08.07a.19.19,0,0,0,.22.13.21.21,0,0,0,.12.22.6.6,0,0,1,.08-.08.2.2,0,0,0-.22-.12m7.52,0a.23.23,0,0,0-.07-.2.28.28,0,0,0-.21-.08.9.9,0,0,0,0-.4s-.06-.07-.09-.1-.08.06-.09.1a.27.27,0,0,0,0,.26.23.23,0,0,0,.22.12c0,.19.09.25.28.28a.22.22,0,0,0,.12.22l.08-.08a.19.19,0,0,0-.22-.12m-7-.86h.23c.2,0,.26-.06.32-.28.19,0,.31.17.46.26s.09,0,.13,0,.17-.05.16-.14a.18.18,0,0,0-.05-.11c-.06-.07-.13-.12-.19-.18a.29.29,0,0,0-.48.19H19.2c-.2,0-.27.07-.32.28a.2.2,0,0,0-.22.12l.08.08a.2.2,0,0,0,.12-.22M18,12.53a.22.22,0,0,0-.11-.22l-.13,0a.19.19,0,0,0-.22.11.21.21,0,0,0,.21.13H18c0,.09,0,.18,0,.27a.19.19,0,0,0,.13.21.44.44,0,0,0,.22-.16l.09-.1c.09-.13.1-.32,0-.38s-.15,0-.23.06a.44.44,0,0,1-.25.11M13.86,6.12A.53.53,0,0,1,13.61,6c-.17-.11-.22-.11-.35,0a.87.87,0,0,0-.17.22.44.44,0,0,0,.14.22.94.94,0,0,1,.1.1.35.35,0,0,0,.38.06c.1,0,.13-.12.13-.23a.82.82,0,0,0,0-.27A.2.2,0,0,0,14.06,6L14,5.9a.2.2,0,0,0-.12.22M19.71,15l-.27,0a.25.25,0,0,1-.13,0c-.11-.05-.11-.13,0-.22s.08-.18,0-.23a.3.3,0,0,0-.26,0,.22.22,0,0,0-.09.1.61.61,0,0,0-.05.4c0,.17.11.24.27.26l.14,0a.58.58,0,0,0,.26-.06.25.25,0,0,0,.13-.23.6.6,0,0,0,.43-.29.45.45,0,0,0,.06-.12.18.18,0,0,0-.22-.1c-.1,0-.18,0-.21.13a.91.91,0,0,0,0,.4m-2.51-2a.21.21,0,0,0,.12.22l.08-.08a.2.2,0,0,0-.22-.12,2.25,2.25,0,0,0,0-.26.25.25,0,0,0,0-.13c-.06-.12-.15-.22-.2-.34A2.32,2.32,0,0,0,16.8,12a1.7,1.7,0,0,1-.19-.35.28.28,0,0,0-.29-.22h-.53a.37.37,0,0,0-.1-.25c-.16-.16-.32-.33-.49-.48a.49.49,0,0,0-.26-.1c-.27,0-.55,0-.82,0l0,0a.34.34,0,0,0-.27-.27.59.59,0,0,0-.13,0,1,1,0,0,1-.52-.17c-.08,0-.15,0-.23.06s-.21.22-.15.34a.29.29,0,0,1,0,.36.64.64,0,0,0-.12.25.38.38,0,0,1-.28.28c-.23.09-.24.19,0,.38s.15.12.35,0a.17.17,0,0,1,.24,0l.1.09c.2.23.21.32,0,.62-.1.08-.1.16,0,.24.17.29.19.33,0,.62a.82.82,0,0,0-.12.25.82.82,0,0,1-.12.25c-.08.09-.08.17,0,.22a.27.27,0,0,0,.12.06.57.57,0,0,0,.4,0s.06-.06.09-.08l-.12-.25a.26.26,0,0,1,.05-.12.64.64,0,0,1,.44-.31l.28,0a.84.84,0,0,1-.17.34c-.06.09,0,.16.07.2a.32.32,0,0,0,.32-.16.28.28,0,0,0-.12-.33l-.12,0v-.26a.45.45,0,0,0-.09-.25c-.14-.24-.12-.3.16-.32.46,0,.5-.19.51-.59l0,0a.32.32,0,0,1,.27.26.71.71,0,0,1,0,.14c0,.2-.05.37-.28.42a.23.23,0,0,0-.18.16.27.27,0,0,0,.23.14.37.37,0,0,1,.23.31,2.36,2.36,0,0,0,0,.28.3.3,0,0,0,.32.2c.12,0,.14-.11.08-.2a.3.3,0,0,1,0-.37c.11-.15.1-.15.11-.53a.19.19,0,0,0,.19-.08.07.07,0,0,0,0-.09.22.22,0,0,0-.19-.09.73.73,0,0,1,.19-.33.36.36,0,0,0,.09-.24l.27,0a.25.25,0,0,1,.23.12.39.39,0,0,1,0,.26.75.75,0,0,1-.07.12c-.1.18-.09.23.08.3a1,1,0,0,1,.24.11,1.16,1.16,0,0,0,.24.14,1.07,1.07,0,0,0,.4,0m2.6-1.38-.38,0a.28.28,0,0,0-.13,0l-.1.1a.35.35,0,0,0,0,.25.2.2,0,0,0,.24.09.66.66,0,0,0,.25-.1c.17-.09.18-.09.27.15s.14.25.42.27a.35.35,0,0,0,.39-.29,2.51,2.51,0,0,1,0-.27.29.29,0,0,1,.27-.26h.41a.57.57,0,0,1,.38.11c.1.06.17.09.23,0a.26.26,0,0,0,.05-.12.2.2,0,0,0-.11-.23.31.31,0,0,0-.12-.05l-.55,0c-.18,0-.21,0-.29-.23a.44.44,0,0,0-.15-.23.32.32,0,0,0-.15.21.53.53,0,0,1-.12.25,1.14,1.14,0,0,0-.17.37c0,.11-.1.15-.19.1a1.83,1.83,0,0,0-.24-.13l-.29,0m-8.18-1.21a1.18,1.18,0,0,0,0-.27.24.24,0,0,0-.19-.16.27.27,0,0,0-.31.2,1.13,1.13,0,0,0,0,.41.32.32,0,0,0,.21.15.19.19,0,0,0,.23-.08.37.37,0,0,0,.09-.25m10.79,0a.34.34,0,0,0-.23-.13,3.85,3.85,0,0,0-.83,0,.17.17,0,0,0-.11.06c-.07.07,0,.13.08.18s.32.17.49.22a2,2,0,0,1,.5-.25s.06-.06.1-.09m-10-1.22a.24.24,0,0,0-.18.38l.09.1a.53.53,0,0,0,.26,0,.23.23,0,0,0,.09-.24c0-.17-.08-.23-.26-.2m5,1.89a.25.25,0,0,0-.13-.22h-.13c-.18,0-.23.08-.21.26s.08.23.25.21.24-.09.22-.26m3.08,2.78a.21.21,0,0,0,.22-.1.35.35,0,0,0,.06-.24c0-.11-.11-.13-.2-.07a1.45,1.45,0,0,0-.19.17l-.06.11a.17.17,0,0,0,.17.13m1.57-1.57s-.07.06-.09.09a.53.53,0,0,0,0,.49s.05.07.07.11a.3.3,0,0,0,.13-.21c0-.24,0-.47-.11-.48M10.13,27.42s-.06-.08-.1-.09a.22.22,0,0,0-.14,0c-.12,0-.15.1-.08.16a.26.26,0,0,0,.12.05c.11,0,.18,0,.2-.12M4.55,25s0-.06,0-.08a.22.22,0,0,0-.23-.06c-.1,0-.12.11-.06.16a.24.24,0,0,0,.23.06s.06-.05.09-.08m5.63-13a.21.21,0,0,0,.24-.09s-.05-.08-.09-.1a.2.2,0,0,0-.13,0c-.11,0-.16.07-.13.15a.6.6,0,0,0,.11.06M5.45,24.55a.22.22,0,0,0-.09-.24.32.32,0,0,0-.1.1.27.27,0,0,0,0,.13q0,.16.15.12a.39.39,0,0,0,.06-.11m-1.72-.43a.25.25,0,0,0,0-.09A.22.22,0,0,0,3.46,24c-.12.05-.14.12-.07.18a.23.23,0,0,0,.24.05s.07-.05.1-.08M24.82,14.3s0,.07,0,.09a.22.22,0,0,0,.23.06c.1,0,.12-.12.06-.17a.23.23,0,0,0-.23,0s-.06,0-.09.07m-10.51.63s0-.07,0-.09a.2.2,0,0,0-.22-.06c-.11,0-.13.12-.07.17a.26.26,0,0,0,.24.06s.06,0,.09-.08m-9.17,0-.06-.08c-.1,0-.11.09,0,.15a.46.46,0,0,1,.07-.07m7.94,0,.1.06v-.1Zm2.52-.29.09.06v-.1Zm-3.21,0-.06-.08c-.11,0-.12.08,0,.14l.08-.06m-8.17.06c.12,0,.12-.09,0-.15l-.09.07Zm15.83.75.09.06,0-.1Zm-7.38-2.21-.06-.08c-.11,0-.12.09,0,.15l.08-.07m11.9-.77c.11,0,.11-.09,0-.15l-.07.07.06.08m-3.26-.06c0-.12-.09-.12-.15,0l.07.08.08-.06M19.64,16l-.07-.08c-.11,0-.11.09,0,.15l.08-.07m-7.59-4L12,12.1c0,.1.09.11.16,0L12.05,12m-.77-.75c0-.11-.1-.11-.16,0l.07.08.09-.07M12.39,11l-.06-.08c-.11,0-.12.09,0,.15l.08-.07M22.06,10c.11,0,.11-.09,0-.15L22,9.87l.07.08m-4.38-.07-.06-.08c-.11,0-.11.09,0,.15l.07-.07m7.17-.21.06-.1h-.1Zm-2.79-.28c.11,0,.12-.08,0-.14L22,9.32a.46.46,0,0,1,.07.07M11.49,27.64l-.08.06c0,.11.09.12.15,0l-.07-.08m-.77-.2-.1-.06v.1Zm.55-.56-.09-.05,0,.09Zm.5-18.2-.09.07c0,.11.1.12.16,0l-.07-.08M6.17,26.11,6.23,26h-.1ZM4,25.41l-.08.06c0,.1.09.11.15,0L4,25.41m2-.28-.06.09.1,0ZM2.36,23.55c0-.11-.09-.12-.15,0l.07.09a.27.27,0,0,1,.08-.07m21.85-6.82a2.43,2.43,0,0,0-.54,0,.46.46,0,0,0-.26.07,1,1,0,0,0-.28.29.3.3,0,0,0,0,.26.3.3,0,0,0,.33.15,1.12,1.12,0,0,0,.24-.13,2.48,2.48,0,0,1,.37-.17.63.63,0,0,0,.29-.29c0-.07,0-.15-.12-.17M.76,26.44a.19.19,0,0,0,.18-.15s0-.08-.07-.12A.91.91,0,0,0,.66,26a.33.33,0,0,0-.38,0A.59.59,0,0,0,0,26.3a.22.22,0,0,0,.19.15H.48l.28,0M27,28.65a.45.45,0,0,0,.12-.06c0-.07,0-.14-.13-.17a1.87,1.87,0,0,1-.48-.26.4.4,0,0,0-.26.05.19.19,0,0,0-.09.23c0,.09.06.18.16.2a2.76,2.76,0,0,0,.37,0,2.32,2.32,0,0,0,.31,0M24.17,15.3a1.11,1.11,0,0,0,0,.26.5.5,0,0,0,0,.13.23.23,0,0,0,.2.13.19.19,0,0,0,.23-.08.54.54,0,0,0,.07-.38c0-.25-.08-.32-.32-.14a.43.43,0,0,1-.24.1Zm-18.69-7a.33.33,0,0,0,.25-.1l.39-.39c.08-.08.12-.16.09-.23s-.24-.08-.36,0l-.11.09a.71.71,0,0,0-.24.62Zm18.67,7a.31.31,0,0,0-.09-.21l-.25-.26a.29.29,0,0,0-.22-.08l0,0a1.29,1.29,0,0,0,0,.28c0,.2.08.24.27.27a1.22,1.22,0,0,0,.27,0Zm-2.76-.86a.35.35,0,0,1-.3.31l0,0V15l0,0a.93.93,0,0,0,.37,0,.25.25,0,0,0,.16-.17.25.25,0,0,0-.13-.3l-.13,0Zm-.84,4.74a.64.64,0,0,1-.19.34.36.36,0,0,0-.09.24l0,0a.93.93,0,0,0,.37,0,.23.23,0,0,0,.15-.17.23.23,0,0,0-.12-.3l-.12,0Zm3-4.43a.9.9,0,0,1,.18-.35c.06-.09,0-.15-.07-.19a.32.32,0,0,0-.33.15.28.28,0,0,0,.12.33.5.5,0,0,0,.13,0Zm2.23,2.78a.63.63,0,0,0-.29-.42.41.41,0,0,0-.11-.07.17.17,0,0,0-.1.21c0,.1,0,.18.13.21a1.27,1.27,0,0,0,.39.05ZM2.06,26.34c0-.09-.24-.35-.34-.36s-.06.05-.08.08a.25.25,0,0,0,.2.37.2.2,0,0,0,.22-.09M21.8,16.5a.22.22,0,0,0-.12.2.23.23,0,0,0,.11.21.21.21,0,0,0,.12-.2.28.28,0,0,0-.11-.21M4.66,9.19a.34.34,0,0,0-.26.28.88.88,0,0,0,0,.28l0,0a.32.32,0,0,0,.28-.32V9.17ZM3.53,10.84a.3.3,0,0,0,.2-.1.41.41,0,0,0,.07-.22v-.24l0,0a.32.32,0,0,0-.26.28c0,.09,0,.18,0,.27Zm0,0c-.19,0-.26.15-.27.32a1.93,1.93,0,0,0,0,.24l0,0a.32.32,0,0,0,.25-.29,2.48,2.48,0,0,0,0-.27ZM2.41,12.79a.28.28,0,0,0,.25-.28l0-.27,0,0a.3.3,0,0,0-.25.28,1.23,1.23,0,0,0,0,.27Zm0,0c-.19,0-.26.14-.27.33s0,.15,0,.23l0,0A.33.33,0,0,0,2.4,13c0-.07,0-.15,0-.23Zm-.28.56A.24.24,0,0,0,2,13.5a.29.29,0,0,0,0,.24s.05,0,.08.08a.26.26,0,0,0,.1-.22,2.11,2.11,0,0,1,0-.25Zm23.4,2a.23.23,0,0,0-.22.12.25.25,0,0,0,0,.25s.06.07.09.1a.21.21,0,0,0,.14-.22,2.43,2.43,0,0,1,0-.27Zm-3.48.07a.21.21,0,0,0-.12.19.23.23,0,0,0,.11.21.2.2,0,0,0,.11-.2.23.23,0,0,0-.1-.2m.28-.55a.2.2,0,0,0-.23-.05c-.11,0-.13.11-.06.16a.26.26,0,0,0,.23.05s.07-.05.1-.07,0-.07,0-.09m.84.82c-.11,0-.11.08,0,.14l.07-.07-.06-.07M2.69,12.24a.21.21,0,0,0,.2-.13L2.82,12a.36.36,0,0,0-.11.22ZM21.1,15.86a.2.2,0,0,0,.12.22A.6.6,0,0,0,21.3,16a.19.19,0,0,0-.21-.12ZM3.27,11.42a.19.19,0,0,0-.21.12l.07.08a.3.3,0,0,0,.12-.22ZM4.11,10a.26.26,0,0,0-.25.17.35.35,0,0,0,0,.11l0,0c.2,0,.25-.07.28-.27Zm.28-.28a.26.26,0,0,0-.21.07.27.27,0,0,0-.07.21l0,0a.29.29,0,0,0,.28-.29Zm20.23,6.51h-.09l0,.11Zm1.1.08v-.1l-.1,0ZM4.64,9.17c.19,0,.25-.07.28-.28l0,0a.31.31,0,0,0-.25.18l0,.1ZM1,27a.27.27,0,0,0,.17.25l.11,0,0,0c0-.2-.08-.25-.28-.28ZM4.92,8.89a.22.22,0,0,0,.19-.08.29.29,0,0,0,.09-.2l0,0c-.19,0-.24.08-.28.27ZM1,27a.2.2,0,0,0-.12-.22.6.6,0,0,0-.08.08A.2.2,0,0,0,1,27ZM5.2,8.61a.29.29,0,0,0,.28-.28l0,0c-.19,0-.24.08-.28.29ZM.25,26.86c0,.12.1.12.16,0l-.07-.09-.09.07m0-1.67c0,.12.09.12.15,0l-.07-.09-.08.07M8,6.11A.2.2,0,0,0,8.19,6l-.07-.07a.21.21,0,0,0-.12.2ZM18,24.78a.18.18,0,0,0,.12.22l.09-.08a.2.2,0,0,0-.23-.13Zm6.32-7.12h-.1l0,.1Zm1.48-.13a.21.21,0,0,0,.12.21l.08-.07a.24.24,0,0,0-.22-.12Zm-6.08,5.72.07.08.08-.06c0-.11-.09-.12-.15,0m-.27-1.13c0,.11.09.12.15,0l-.07-.08-.08.06m1.06-1.53a.21.21,0,0,0,.12.23.6.6,0,0,1,.08-.08.21.21,0,0,0-.22-.12ZM14.68,12a.65.65,0,0,0,0-.13,1.59,1.59,0,0,0-.13-.22c-.08-.11-.1-.25-.18-.36s-.12-.07-.21,0a.9.9,0,0,0-.24.31.36.36,0,0,0,.15.34,3,3,0,0,0,.67,0Zm.86-.56a.22.22,0,0,0-.23.13.36.36,0,0,0,0,.27.16.16,0,0,0,.09.09,1.41,1.41,0,0,0,.41.07,5.61,5.61,0,0,1,0-.58l-.27,0m-.21,1.2a.1.1,0,0,0,0,.09.24.24,0,0,0,.19.11v-.31a.27.27,0,0,0-.2.11m-2-1.22a.2.2,0,0,0,.12.22.3.3,0,0,0,.08-.08.2.2,0,0,0-.22-.12Zm0,0a.2.2,0,0,0-.11-.22l-.08.08a.19.19,0,0,0,.21.12Zm.86-.84a.23.23,0,0,0-.22.12l.08.08a.23.23,0,0,0,.12-.22Z"/></g></g></svg>