<svg xmlns="http://www.w3.org/2000/svg" viewBox="0 0 27.49 29.21"><defs><style>.cls-1{fill:#aada91;}</style></defs><g id="Layer_2" data-name="Layer 2"><g id="Layer_1-2" data-name="Layer 1"><path class="cls-1" d="M25.69,29.2a.52.52,0,0,1-.27-.05.35.35,0,0,0-.38,0,.56.56,0,0,1-.53,0,.87.87,0,0,0-.39-.12c-.6,0-1.21,0-1.81-.06a.5.5,0,0,1-.26-.08,1.92,1.92,0,0,0-.25-.12,1.27,1.27,0,0,0-.28,0l-1,0a1,1,0,0,1-.53-.15.77.77,0,0,0-.39-.11l-.56,0a.88.88,0,0,1-.39-.11,1.13,1.13,0,0,0-.53-.14,1.2,1.2,0,0,1-.67-.17.47.47,0,0,0-.26-.08h-.28a1.1,1.1,0,0,0-.53.11c-.17.09-.17.08-.36-.1L16,27.8a.7.7,0,0,0-.35-.21.85.85,0,0,1-.25-.13.93.93,0,0,0-.51-.18.48.48,0,0,1-.26-.09c-.2-.13-.43-.17-.63-.29a1.61,1.61,0,0,0-.52-.18.58.58,0,0,1-.26-.09c-.23-.16-.51-.22-.74-.39a4.37,4.37,0,0,1-.61-.31,1.75,1.75,0,0,1-.6-.36L11,25.41l-.13-.05-.25-.12a1.81,1.81,0,0,0-.37-.18.75.75,0,0,1-.25-.13c-.15-.11-.34-.15-.48-.27l-.33-.26A.83.83,0,0,0,9,24.25,1,1,0,0,1,8.61,24c-.38-.34-.73-.72-1.12-1.05l-.11-.08-.13-.06a1.86,1.86,0,0,1-.54-.43A1.17,1.17,0,0,1,6.4,22a.75.75,0,0,0-.07-.12.44.44,0,0,0-.08-.11L5.57,21c-.34-.38-.7-.74-1.07-1.09a4.89,4.89,0,0,1-.39-.4l-.17-.22a1.81,1.81,0,0,0-.47-.68l-.27-.32a.44.44,0,0,1-.08-.11,2.45,2.45,0,0,0-.46-.69,2,2,0,0,1-.13-.25A.8.8,0,0,0,2.4,17c-.15-.18-.2-.42-.34-.6A2.89,2.89,0,0,1,1.73,16a4.66,4.66,0,0,0-.25-.5c-.09-.26-.27-.48-.37-.74a5.18,5.18,0,0,1-.3-.63A.67.67,0,0,0,.75,14a.86.86,0,0,1-.2-.51,1.09,1.09,0,0,0-.15-.39,1.27,1.27,0,0,1-.12-.39,1.15,1.15,0,0,0-.12-.4A.82.82,0,0,1,0,11.78a2.62,2.62,0,0,1,0-.28c0-.2.11-.31.34-.34a2.74,2.74,0,0,0,.28-.05A1.41,1.41,0,0,0,.87,11a1.15,1.15,0,0,1,.25-.12.7.7,0,0,0,.24-.13l.51-.48A.8.8,0,0,1,2.22,10c.22-.06.27-.22.28-.42a1.06,1.06,0,0,1,.19-.51.57.57,0,0,0,.08-.26c0-.23,0-.23.24-.64a.34.34,0,0,0,0-.26,1.94,1.94,0,0,0-.15-.24A.29.29,0,0,1,3,7.27l.41-.07a.32.32,0,0,0,.1-.1.3.3,0,0,0,0-.26,1.49,1.49,0,0,0-.14-.24.33.33,0,0,1,0-.38c.06-.12.14-.24.19-.37s.06-.2.27-.28.27-.17.26-.42a.68.68,0,0,0-.11-.39c-.19-.29-.14-.38,0-.63a.78.78,0,0,0,.1-.39,2.53,2.53,0,0,0,0-.28c0-.2-.08-.36-.3-.4s-.2-.13-.11-.3.08-.15,0-.25a.66.66,0,0,1-.14-.38A.68.68,0,0,1,3.6,2a.35.35,0,0,0-.22-.32c-.23-.11-.24-.1-.3-.26A1.47,1.47,0,0,0,2.67.86C2.52.71,2.54.6,2.77.43A.64.64,0,0,1,3.16.29h.55l4.73,0h.28A1.07,1.07,0,0,0,9.25.11c.18-.08.27-.08.53,0A.67.67,0,0,0,10,.24l.83,0c1.58,0,3.16,0,4.74,0h.83c.7,0,1.39,0,2.09,0a.79.79,0,0,0,.39-.11A1.29,1.29,0,0,1,19.46,0h.42a1.08,1.08,0,0,1,.53.14.47.47,0,0,0,.26.08c.37,0,.74,0,1.11,0s.75,0,1.12,0c.65,0,1.3,0,2,0a1.12,1.12,0,0,0,.53-.13.92.92,0,0,1,.4-.11A7.46,7.46,0,0,1,27,0a.49.49,0,0,1,.35.19c.12.16.15.17,0,.36a.7.7,0,0,0-.1.26,2.46,2.46,0,0,0,0,.28c0,.46,0,.92,0,1.39s0,.65,0,1,0,.65,0,1a2.53,2.53,0,0,0,0,.28c0,.37,0,.74,0,1.11s0,.65,0,1,0,.55,0,.83,0,.65,0,1v.83c0,.6,0,1.21,0,1.81s0,1,0,1.53c0,.7,0,1.39,0,2.09a1.12,1.12,0,0,1-.15.53.48.48,0,0,0-.07.26c0,.19,0,.37,0,.56a1.3,1.3,0,0,0,.14.53.29.29,0,0,1,0,.13,2.7,2.7,0,0,0-.16.8c0,.23,0,.47,0,.7l0,4.59a.77.77,0,0,0,.1.4,1.14,1.14,0,0,1,.09.26.59.59,0,0,1,0,.14c0,1.53,0,3.06,0,4.59,0,.09,0,.18,0,.28s-.12.29-.38.31l-.41,0a.35.35,0,0,0-.14,0,.67.67,0,0,0-.12.06.85.85,0,0,1-.54.1m-1.46-9.43a.86.86,0,0,0,.39,0s.06-.06.09-.09-.05-.08-.09-.1a.27.27,0,0,0-.25,0,.24.24,0,0,0-.12.22,1.35,1.35,0,0,0-.4,0l-.09.1s.06.08.1.1a.28.28,0,0,0,.25,0,.23.23,0,0,0,.12-.22m-1.1-1.93a.24.24,0,0,0-.22.12.34.34,0,0,0-.05.26v.13a.33.33,0,0,0,.12.23.28.28,0,0,0,.14-.21,5,5,0,0,0,0-.55.16.16,0,0,0,.2-.09c0-.08,0-.13-.1-.09s-.1.1-.09.2m.84.84a.3.3,0,0,0-.27.23.74.74,0,0,0,0,.39c0,.11.1.13.19.08s.27-.21.27-.27a.36.36,0,0,0-.11-.22.38.38,0,0,1-.11-.23.22.22,0,0,0,.22-.12l-.08-.08a.23.23,0,0,0-.12.22M21.74,25.9l-.27,0a.37.37,0,0,0-.25.09.75.75,0,0,0-.26.3.33.33,0,0,0,0,.38l.18.2a.38.38,0,0,0,.49,0,.8.8,0,0,1,.35-.19.23.23,0,0,0,.13.23.25.25,0,0,0,.13-.23l.27,0c.2,0,.22,0,.29.24s.25.39.31.62a.26.26,0,0,0,.07.11.28.28,0,0,0,.11.08,2.5,2.5,0,0,0,.55.05.57.57,0,0,0,.26-.08l.24-.14.24.13a.35.35,0,0,0,.39,0,1,1,0,0,1,.51-.19c.28,0,.35-.1.37-.31s0-.46,0-.69a.4.4,0,0,0-.3-.4.29.29,0,0,1-.12-.07.29.29,0,0,1-.06-.36l.15-.24c-.05-.08-.09-.16-.13-.24a.31.31,0,0,1,0-.38c0-.08.1-.15.14-.24s0-.08,0-.13a.22.22,0,0,0-.14-.22l-.24-.12a.24.24,0,0,1-.1-.1.45.45,0,0,1,0-.26c0-.09.11-.16.15-.24a.3.3,0,0,0,0-.26c0-.12-.12-.14-.21,0-.55.29-.61.22-.92.58a.31.31,0,0,1-.11.09L24,24a4.73,4.73,0,0,0,0-.53.27.27,0,0,0-.23-.28.18.18,0,0,0-.23.08s0,.08,0,.11a2,2,0,0,1,.17.36A.3.3,0,0,0,24,24a.34.34,0,0,1-.26.28.82.82,0,0,0-.25.12.77.77,0,0,1-.63.17l-.28,0a.27.27,0,0,0-.22.13.57.57,0,0,0,0,.26.27.27,0,0,0,.22.15.26.26,0,0,1,.2.15.69.69,0,0,1-.16.22c-.11.08-.2.18-.35.18a2.23,2.23,0,0,0-.27,0,.32.32,0,0,0-.27.26Zm3.59-14.45a.57.57,0,0,0,0-.13l-.07-.11a1.16,1.16,0,0,1-.14-.24,1.67,1.67,0,0,1-.06-.39.26.26,0,0,0,0-.12s-.05-.09-.09-.1a.31.31,0,0,0-.25,0c-.09,0-.08.12,0,.21.13.26.14.32,0,.5a.88.88,0,0,0-.14.23.31.31,0,0,0,0,.25l.1,0,.24-.12a1,1,0,0,0,.24.11c.08,0,.13,0,.16-.15M20.58,25.62c0-.12,0-.18-.13-.18a.27.27,0,0,0-.12.06.9.9,0,0,0-.24.31.28.28,0,0,0,0,.24s.07,0,.1.05a.45.45,0,0,0,.21-.15c.07-.11.18-.2.15-.33m3.58-9.17h-.27l-.11.09s0,.07.06.09a.43.43,0,0,0,.25.07c.17,0,.35-.08.31-.16a.2.2,0,0,0-.24-.1m.51-9.7a.21.21,0,0,0-.13.2.24.24,0,0,0,.11.21.2.2,0,0,0,.13-.2.23.23,0,0,0-.11-.21m-1.36-.5s-.06-.08-.1-.1a.29.29,0,0,0-.13,0c-.12,0-.15.09-.09.16a.17.17,0,0,0,.12,0,.15.15,0,0,0,.2-.11m1.33,16.82c.12,0,.12-.1,0-.16l-.08.07.06.09m-5,1.8-.07.09h.1Zm2,.08c0-.11-.08-.12-.14,0l.06.08.08-.06M23,20.4l-.08.06c0,.11.09.12.15,0L23,20.4m2.5-1.81.06-.08-.11,0Zm-5.21,8-.07-.08c-.12,0-.12.09,0,.16a.6.6,0,0,1,.08-.08m6.06-13.18-.06.1h.11ZM24.65,8.84l.06-.09h-.1Zm-.28-1.11c.11,0,.12-.09,0-.15l-.08.07a.27.27,0,0,0,.07.08M21,5.21l.06-.08-.1,0Zm3.42-.88c0-.11-.08-.12-.14,0a.27.27,0,0,0,.07.08l.07-.06M15.22,27.92a.27.27,0,0,0-.07.08.16.16,0,0,0,.22.08l.11-.06c0-.07,0-.11-.14-.12l-.12,0m-10-6v-.09l-.08,0Zm-.84-1.1v-.09l-.08,0ZM25.08,27a1.85,1.85,0,0,0-.66,0s-.06.06-.09.09a.43.43,0,0,0,.1.09,1.09,1.09,0,0,0,.26,0,.48.48,0,0,0,.26-.06.24.24,0,0,0,.12-.22Zm-1.56.44c0,.09.1.11.2.09s.14-.07.15-.14a.17.17,0,0,0-.21-.08c-.1,0-.16.06-.14.13M21.74,25.9a.2.2,0,0,0,.12.22l.08-.08a.2.2,0,0,0-.22-.12Zm.45.66h-.08a.24.24,0,0,0-.11.2h.3a.24.24,0,0,0-.11-.2m2.88.46a.2.2,0,0,0,.22-.12l-.08-.09a.2.2,0,0,0-.13.22Z"/></g></g></svg>