<svg xmlns="http://www.w3.org/2000/svg" viewBox="0 0 29.19 29.5"><defs><style>.cls-1{fill:#ffc557;}</style></defs><g id="Layer_2" data-name="Layer 2"><g id="Layer_1-2" data-name="Layer 1"><path class="cls-1" d="M24.76,26.76c0,.21-.22.26-.4.33a.21.21,0,0,0-.13.22.66.66,0,0,1,0,.14,4.72,4.72,0,0,0,.37.41.19.19,0,0,1,0,.25,3.59,3.59,0,0,1-.38.4c-.12.11-.17.12-.36,0a.19.19,0,0,0-.25,0,.56.56,0,0,1-.24.13.37.37,0,0,0-.23.14.35.35,0,0,0,0,.13c.07.1.07.17,0,.21l-.13.05a3.32,3.32,0,0,1-.55,0c-1.62,0-3.25,0-4.87,0H17.1a.89.89,0,0,0-.4.11.88.88,0,0,1-.39.11H14.64a.89.89,0,0,1-.54-.13.72.72,0,0,0-.26-.08c-.74,0-1.48,0-2.23,0s-1.76,0-2.64,0a1.14,1.14,0,0,1-.4-.11A.74.74,0,0,0,8.18,29H6.78L4.14,29a1.22,1.22,0,0,1-.67-.17.46.46,0,0,0-.26-.07l-1.11,0a.78.78,0,0,1-.53-.16.9.9,0,0,0-.39-.1,4.05,4.05,0,0,1-.7,0,.4.4,0,0,1-.21-.16,1.24,1.24,0,0,1,0-.27c0-.47,0-.93,0-1.39a1.33,1.33,0,0,0-.12-.4.93.93,0,0,1,0-.8A.93.93,0,0,0,.21,25c0-1.54,0-3.07,0-4.6,0-2.18,0-4.36.06-6.54a.82.82,0,0,1,.13-.53.65.65,0,0,0,.08-.27c0-.09,0-.18,0-.28l0-2.5c0-.88,0-1.76,0-2.65a1.14,1.14,0,0,1,.11-.4.84.84,0,0,0,.1-.39c0-1,0-2,0-3.06,0-.79,0-1.58,0-2.37A10.29,10.29,0,0,1,.82.29.32.32,0,0,1,1.09,0l.27,0H7.77C9,0,10.27,0,11.53,0H15.7l1.53,0h1.53c.61,0,1.21,0,1.81,0a1.3,1.3,0,0,1,.67.16l.13,0h.14c.65,0,1.29,0,1.94,0A1,1,0,0,1,24,.44a.23.23,0,0,0,.25,0,.23.23,0,0,1,.26,0,.61.61,0,0,0,.39.11c.42,0,.84,0,1.26,0a5.06,5.06,0,0,1,.55,0A.41.41,0,0,1,27,.68c.19.14.43.17.62.3a.39.39,0,0,0,.51,0,.22.22,0,0,1,.25,0,.33.33,0,0,0,.38,0,.23.23,0,0,1,.12,0c.08,0,.23.14.3.27a.29.29,0,0,1-.06.37.24.24,0,0,1-.11.06.35.35,0,0,1-.14,0c-.42,0-.83,0-1.25,0a.36.36,0,0,0-.24.11.75.75,0,0,0,.06.13.49.49,0,0,1,0,.63.5.5,0,0,0,0,.13,1.75,1.75,0,0,1,.23.5,6.37,6.37,0,0,1,.39.73c.1.17.1.18-.16.27a.36.36,0,0,0-.26.28,1.27,1.27,0,0,0,0,.28c0,.29,0,.28-.19.65a.33.33,0,0,0,0,.38,1.07,1.07,0,0,1,.17.8.66.66,0,0,1-.12.38c-.17.24-.16.19-.14.51a.76.76,0,0,0,.16.38.34.34,0,0,1,.06.26c0,.14,0,.13-.28.27A.35.35,0,0,0,27,8.7c0,.09,0,.19,0,.28a1.18,1.18,0,0,0,0,.27.89.89,0,0,0,.14.25.6.6,0,0,1,.1.39,2.81,2.81,0,0,0,0,.41.49.49,0,0,0,.1.26c.11.18.11.23,0,.35a2.06,2.06,0,0,0-.35.43c-.06.13-.11.26-.17.38a.23.23,0,0,0-.06.12.25.25,0,0,0,.06.13c.14.18.14.43.3.61a.6.6,0,0,1,.11.39.65.65,0,0,1,0,.14l0,0c-.36,0-.36,0-.53-.1s-.24-.11-.45.11a.15.15,0,0,0,0,.23,1,1,0,0,1,.18.37.47.47,0,0,0,.13.24l.19.2c.2.24.21.2,0,.44s-.1.09-.36.2-.16.08-.25.3c0,0,0,.09,0,.12a5.17,5.17,0,0,0-.38.74.36.36,0,0,0,0,.11.31.31,0,0,0,.25.11,2.44,2.44,0,0,0,.27,0c.32,0,.65,0,1,0a.32.32,0,0,1,.25.08c0,.06,0,.18-.18.32a.46.46,0,0,1-.24.12l-.82,0a.26.26,0,0,0-.23.12L26,17l.09.1a1.65,1.65,0,0,1,.26.32c-.05.08-.09.16-.14.23a.32.32,0,0,0,.28.48l.28,0s.07.05.11.08a.7.7,0,0,1-.06.09c-.12.07-.27.08-.35.21s-.06.17-.1.25a.36.36,0,0,1-.1.07.81.81,0,0,1-.1-.09.61.61,0,0,1,0-.13c0-.11-.11-.16-.17-.12s-.06.07-.09.1a2.77,2.77,0,0,0,0,.41,1.88,1.88,0,0,0,.14.24.6.6,0,0,1,.1.25l0,0a.23.23,0,0,0-.19.1.17.17,0,0,0,0,.1.23.23,0,0,0,.19.1l0,0A.33.33,0,0,1,26,20c-.09.1-.19.2-.28.31s-.12.14,0,.35a.34.34,0,0,1,.06.26c0,.13,0,.14-.28.25a.29.29,0,0,0-.2.17.34.34,0,0,0,0,.26c0,.09.09.16.13.24l-.12.24a.47.47,0,0,0-.08.26,2.23,2.23,0,0,1,0,.27,1.19,1.19,0,0,1-.13.25.75.75,0,0,0-.12.38c0,.37,0,.73,0,1.1a.68.68,0,0,1-.11.39s0,.08-.07.12a.35.35,0,0,0,0,.38,1.41,1.41,0,0,0,.13.24c0,.08-.09.16-.13.24a.29.29,0,0,0,.15.44.31.31,0,0,1,.23.14.4.4,0,0,1-.12.23,1.84,1.84,0,0,1-.22.17l-.12,0a.26.26,0,0,0-.13-.22l-.13,0a.2.2,0,0,0-.23.12.21.21,0,0,0,.22.13h.27m.29-7a.19.19,0,0,0,.12.21l.07-.07A.21.21,0,0,0,25,19.8a1.29,1.29,0,0,0,0-.39s-.06-.06-.09-.09-.08.06-.09.09a.31.31,0,0,0,0,.25.23.23,0,0,0,.22.12M3.29,2.23a.66.66,0,0,0,0-.14.51.51,0,0,0-.06-.25.29.29,0,0,0-.09-.1.3.3,0,0,0-.26,0c-.09.05-.08.12,0,.21a1,1,0,0,1,.17.37s.06.06.09.09a.22.22,0,0,0,.15-.18M4,4.81a.49.49,0,0,0-.18-.2l-.12-.07a.22.22,0,0,0-.09.24A.24.24,0,0,0,3.91,5C4,5,4.06,4.9,4,4.81M2.71,27.29s0-.08,0-.11-.13-.06-.21,0a.74.74,0,0,0-.16.19c-.06.08,0,.15.07.17a.29.29,0,0,0,.24,0,.21.21,0,0,0,.1-.22M26.1,14.1c-.05-.12-.1-.12-.16,0l.07.08.09-.06M3.16,5.22l.06-.09h-.1Zm.64-2c0-.12-.1-.13-.17,0l.08.09.09-.07M2.41,1.83l-.07-.09c-.13,0-.13.1,0,.16l.09-.07M1.76,25.3c.11,0,.12-.09,0-.15l-.08.07.07.08m.77-.08.09.06v-.1Zm-.42.85L2,26v.1Zm-.34,1.31-.08.06c0,.11.09.11.15,0l-.07-.08M29.18,7.82c0-.11-.06-.17-.12-.18a.76.76,0,0,0-.08.11.32.32,0,0,0,0,.14,2.44,2.44,0,0,0,0,.27,1.33,1.33,0,0,1,0,.28.59.59,0,0,1-.13.23.17.17,0,0,0,0,.25.58.58,0,0,1,.11.24.3.3,0,0,1-.06.26c-.17.24-.13.27.07.45a.2.2,0,0,0,.12.06c.08,0,.13-.07.13-.18,0-.32,0-.64,0-1s0-.62,0-.94m-.81-3.37a.43.43,0,0,1,.24.1.23.23,0,0,0,.22.07.31.31,0,0,0,.08-.24,4.7,4.7,0,0,0,0-.53s0-.07-.07-.11l-.08,0a2.4,2.4,0,0,0-.11.23,2.3,2.3,0,0,1-.21.33.61.61,0,0,0,0,.13Zm0,10.08a.3.3,0,0,0-.22.13.66.66,0,0,0,0,.14c0,.18.08.23.26.21s.24-.09.21-.26-.09-.23-.26-.22m.13-.68a.56.56,0,0,0,.17.21l.12.07c.08,0,.11-.1.1-.21s-.1-.26-.26-.23-.17.08-.13.16m-1.14,1.52a1.41,1.41,0,0,0-.41,0,.42.42,0,0,0-.12.08s0,.06,0,.07a.58.58,0,0,0,.52,0,.73.73,0,0,0,.08-.09l-.1-.09m1.51-4.75s-.06.06-.1.09,0,.08.06.1a.21.21,0,0,0,.24,0l0-.1a.18.18,0,0,0-.23-.09m-1.58,2.47a.24.24,0,0,0,.07.2.32.32,0,0,0,.21.08l0,0a.3.3,0,0,0-.08-.2.26.26,0,0,0-.19-.08Zm.28.28a.19.19,0,0,0,.12.21l.07-.07a.24.24,0,0,0-.22-.12Zm.73,2.08h-.1l0,.1ZM27.35,8.8h.1l0-.1Zm.36,8.39v-.1l-.1,0ZM26.16,19.5v.3l0,0a.19.19,0,0,0,.22-.13.21.21,0,0,0-.22-.13Zm2.23-15a.21.21,0,0,0-.2.12l.06.07a.19.19,0,0,0,.12-.21ZM28.3,2.91l-.1,0,0,.1Z"/></g></g></svg>