<svg xmlns="http://www.w3.org/2000/svg" viewBox="0 0 28.99 29.5"><defs><style>.cls-1{fill:#00ac69;}</style></defs><g id="Layer_2" data-name="Layer 2"><g id="Layer_1-2" data-name="Layer 1"><path class="cls-1" d="M29,14.19c0,1.44,0,2.88,0,4.32,0,1.21,0,2.41,0,3.62,0,.42,0,.84,0,1.25,0,1.35,0,2.69,0,4a1.08,1.08,0,0,1-.05.27,1.77,1.77,0,0,0-.19.8,1.06,1.06,0,0,1-.17.52.22.22,0,0,0,0,.24c.07.1,0,.17-.09.19a.67.67,0,0,1-.65-.15l-.21-.18L27.52,29a.37.37,0,0,0-.39,0c-.12.08-.22.18-.32.26s-.24.12-.32,0-.14-.27-.27-.18l-.22.17a.82.82,0,0,1-.22.16l-.26-.11-.12,0a1.13,1.13,0,0,1-.54.13c-.83,0-1.67,0-2.5,0H16.51l-3.48,0-2.65,0a1,1,0,0,1-.4-.12.57.57,0,0,0-.26-.08l-1.39,0c-2.13,0-4.27,0-6.4,0-.56,0-1.12,0-1.67,0A.31.31,0,0,1,.05,29a.83.83,0,0,1,.05-.54.33.33,0,0,0,0-.38A.51.51,0,0,1,0,27.82c0-.05,0-.09,0-.14s0-.28,0-.42c0-.41,0-.83,0-1.25s0-.65,0-1,0-.75,0-1.12c0-2.74.05-5.47,0-8.21,0-1.49,0-3,0-4.46,0-.37,0-.74,0-1.11a.78.78,0,0,1,.09-.4A1.13,1.13,0,0,0,.27,9.2V3.5c0-.61,0-1.21,0-1.81A.77.77,0,0,1,.44,1.3a.23.23,0,0,0,0-.25.65.65,0,0,1,0-.13A.29.29,0,0,1,.61.8l.7,0A.58.58,0,0,0,1.57.71a.82.82,0,0,1,.26-.1l.25.11a1.48,1.48,0,0,0,.55.06A.8.8,0,0,0,3,.67L3.16.62A.6.6,0,0,1,3.43.56H3.7l3.76,0c1.4,0,2.79,0,4.18,0A1,1,0,0,1,12,.68a.66.66,0,0,0,.27.09h.27l4.32,0,1.39,0c.23,0,.47,0,.7,0,1.16,0,2.32,0,3.48,0h3.62a1,1,0,0,0,.4-.11,2,2,0,0,1,.26-.09c.65,0,1.3,0,1.94,0A.28.28,0,0,1,29,.83a2.45,2.45,0,0,1,0,.27V3.47c0,2.14,0,4.27,0,6.41,0,1.44,0,2.87,0,4.31ZM10.86,17.5a.2.2,0,0,0,.22-.12.2.2,0,0,0-.22-.13c0-.19,0-.36,0-.54a.54.54,0,0,1,.09-.25c.12-.2.12-.2,0-.36a.39.39,0,0,1,0-.49.92.92,0,0,0,.13-.24.23.23,0,0,0,0-.24c-.06-.05-.14,0-.22,0s-.2.19-.3.27a.42.42,0,0,1-.12.08.42.42,0,0,1-.25,0s-.07-.06-.1-.09a.42.42,0,0,1,0-.25.41.41,0,0,1,.1-.09l.13-.05a.32.32,0,0,0,.24-.28H11a.69.69,0,0,1,.39.12,1,1,0,0,0,.37.17.75.75,0,0,1,.25.13c.1.09.16.08.2-.05s0-.08,0-.13a10.28,10.28,0,0,0,0-1.11c0-.12-.08-.17-.16-.14s-.23.17-.38.16l0,0a.47.47,0,0,0-.11-.25.88.88,0,0,1-.14-.23.8.8,0,0,1,0-.27c0-.26-.13-.33-.32-.21a.46.46,0,0,1-.25.1l-.27,0a1,1,0,0,0-.64.19,1.36,1.36,0,0,1-.25.11c-.12,0-.15.11-.09.17a.26.26,0,0,0,.11.07.78.78,0,0,0,.53-.09c.22-.13.28-.12.32,0a.34.34,0,0,1-.18.34l-.13,0q-.22.12-.06.3l.29.29a.38.38,0,0,1,.11.25,1.11,1.11,0,0,1-.63-.18c-.09-.05-.15,0-.2.08-.06.4,0,.81,0,1.21l0,0a.22.22,0,0,1-.22-.12.35.35,0,0,1,0-.13l0-.83a.25.25,0,0,0-.13-.22.94.94,0,0,0-.1.1,1,1,0,0,0,0,.13c-.07.18-.12.19-.3.1l-.12-.06a.87.87,0,0,0-.22.17l-.09.1c-.12.15-.11.35-.23.5s-.08.17,0,.22a.2.2,0,0,0,.13,0h.28c0,.09,0,.17.09.2s.12,0,.09-.09a.18.18,0,0,0-.2-.09.61.61,0,0,1,0-.12A.27.27,0,0,1,9,15.6a.28.28,0,0,1,.16.19,1.06,1.06,0,0,1,0,.25.19.19,0,0,1,0,.13.78.78,0,0,1-.21.32c-.16.15-.16.18-.33.2a.26.26,0,0,0-.12-.23.3.3,0,0,0-.26,0,.45.45,0,0,0-.09.1.21.21,0,0,0,.22.13h.27a3.25,3.25,0,0,0,0,.54.61.61,0,0,0,0,.13.26.26,0,0,0,.21.14.22.22,0,0,0,.23-.09c.05-.08.08-.16.12-.24a.26.26,0,0,1,.44,0l.11.24a.24.24,0,0,0,.21.14.66.66,0,0,0,.14,0s.07,0,.11-.07l.22-.15.41,0v.29a.21.21,0,0,0-.22.12l.08.08a.2.2,0,0,0,.12-.22m-2.77,0H7.82a.22.22,0,0,0-.22.13.2.2,0,0,0,.22.13h.27a.29.29,0,0,0,.13.23.39.39,0,0,0,.26.06h.69a.24.24,0,0,0,.22-.13.25.25,0,0,0-.22-.12,10.09,10.09,0,0,0-1.1,0v-.29a.21.21,0,0,0,.23-.13l-.09-.08a.2.2,0,0,0-.12.22m-3.36-1.4H5c.18,0,.23-.05.28-.24a1,1,0,0,1,.11-.26c.12-.2.1-.27-.05-.3a.24.24,0,0,0-.24.08.37.37,0,0,0-.07.12c0,.19-.19.31-.28.47a.59.59,0,0,0,0,.14,1.08,1.08,0,0,0-.4,0l-.08.1s0,.08.09.1a.33.33,0,0,0,.26,0,.24.24,0,0,0,.12-.22m8.08-1.94c0,.36,0,.59,0,.82s0,.55,0,.82a.3.3,0,0,0,.13.23.3.3,0,0,0,.13-.23l0-.82a1.13,1.13,0,0,1,.18-.65.39.39,0,0,0,0-.39l-.06-.12c-.11-.19-.1-.27,0-.5a.46.46,0,0,0,.07-.39.19.19,0,0,0-.21-.13c-.1,0-.18,0-.22.12a.63.63,0,0,0-.06.27c0,.37,0,.73,0,1m4.73,2.57V15.9c0-.05,0-.1,0-.14s-.1-.14-.2-.07a.7.7,0,0,0-.26.84l.07.12c.09.17.09.18,0,.36a.82.82,0,0,0-.08.53.23.23,0,0,0,.06.12c.06.05.13,0,.22-.05a.63.63,0,0,0,.23-.48v-.38M5,11a.57.57,0,0,0,0-.13.5.5,0,0,0,0-.13c0-.14-.09-.14-.21-.07a.72.72,0,0,1-.38.13l-.69,0a.34.34,0,0,0-.14,0s-.07.05-.1.08,0,.08,0,.1a.59.59,0,0,0,.24.11.84.84,0,0,1,.24.14.22.22,0,0,0,.24,0,.42.42,0,0,1,.5,0c.2.13.31,0,.31-.21m8.09,6c0-.11,0-.2,0-.29a.18.18,0,0,0-.13-.18l-.11.09a1.67,1.67,0,0,1-.22.49.36.36,0,0,0,0,.27.21.21,0,0,0,.09.1.36.36,0,0,0,.25,0,.18.18,0,0,0,.09-.1A.75.75,0,0,0,13.1,17M15.6,14v.56a.59.59,0,0,0,0,.13.32.32,0,0,0,.13.23.34.34,0,0,0,.13-.22,6.61,6.61,0,0,0,0-1.09.42.42,0,0,0,0-.12.87.87,0,0,0-.09-.11s-.07.06-.08.1a1.17,1.17,0,0,0-.07.52m-2.49-1.57a.16.16,0,0,0,.2-.12.66.66,0,0,0,0-.5c0-.11-.1-.12-.2,0a.86.86,0,0,0-.24.3.36.36,0,0,0,0,.25.18.18,0,0,0,.22.11M9.39,18.8a.73.73,0,0,0-.05-.09.34.34,0,0,0-.24-.06,1.26,1.26,0,0,0-.31.25.39.39,0,0,0-.06.11c0,.08,0,.13.16.15a.3.3,0,0,0,.24-.07.73.73,0,0,0,.26-.29m3.83-9-.09.1a2.81,2.81,0,0,0,0,.41,1,1,0,0,0,.08.11s.06,0,.08,0a.56.56,0,0,0,0-.52.31.31,0,0,0-.09-.07m8.53,5.33a.69.69,0,0,0,0,.25l.09.1s.06-.06.08-.1a.66.66,0,0,0,.06-.25c0-.14-.07-.34-.13-.35s-.14.19-.14.35m2.8,4.08a.59.59,0,0,0-.13,0,.73.73,0,0,0-.08.09.18.18,0,0,0,.24.1s.07-.05.11-.07,0-.13-.14-.14M3.16,19a.2.2,0,0,0-.05.24s.06.07.08.11.09-.05.1-.09a.21.21,0,0,0,0-.25s-.07,0-.1,0M7.5,16.42a.25.25,0,0,0-.11-.22.22.22,0,0,0-.12.2.19.19,0,0,0,.11.21.21.21,0,0,0,.12-.19M6,14.83a.25.25,0,0,0,0,.09.2.2,0,0,0,.22.06c.1-.05.12-.11.06-.17a.25.25,0,0,0-.22-.05s-.07.05-.1.07m2.58-.55-.08-.09a.26.26,0,0,0-.23.06c-.07.06-.06.13,0,.17a.24.24,0,0,0,.23-.05s0-.06,0-.09m0-.56-.08-.09a.26.26,0,0,0-.23.06c-.07.06-.06.13,0,.17a.21.21,0,0,0,.23,0s0-.06,0-.1m-4.2-2a.21.21,0,0,0-.24,0,.28.28,0,0,0-.11.08s.06.08.1.1a.21.21,0,0,0,.24,0s0-.07,0-.1m-1-1.49a.25.25,0,0,0-.11-.21.21.21,0,0,0-.12.2.2.2,0,0,0,.11.22.22.22,0,0,0,.12-.21M5.19,7.94s0-.07,0-.09a.3.3,0,0,0-.23-.06c-.1,0-.12.11-.06.17a.19.19,0,0,0,.22,0s.07,0,.1-.07M3.24,7.37a.25.25,0,0,0,0-.09.2.2,0,0,0-.21,0c-.11,0-.12.11-.07.17a.26.26,0,0,0,.23,0s.06,0,.09-.08M8,4.82a.9.9,0,0,0-.09-.1.23.23,0,0,0-.14,0c-.12,0-.15.09-.09.15a.26.26,0,0,0,.12,0A.15.15,0,0,0,8,4.82M3.42,2.32l.09.05v-.1ZM3,2.61,2.9,2.55v.11Zm.22,4.1-.07.07c0,.11.08.11.14,0l-.07-.08m1.19,2c0-.11-.09-.12-.16,0l.08.08.08-.06m1,.89.06-.09h-.1Zm1.33-.08.09.06v-.1Zm6.4,1.68.1.06v-.11Zm-9.95.21-.06.09h.11Zm12.61.08-.06-.08c-.11,0-.12.09,0,.15l.08-.07m-5.08.76-.06.09h.1Zm-6.06,2-.07-.08c-.11,0-.11.09,0,.16a.6.6,0,0,1,.08-.08m.48-.07-.06.09h.1Zm8.57.06.09.06v-.1Zm-9,1.13c0-.11-.1-.12-.16,0l.07.08.09-.07m1.59-.08-.07.06c0,.11.08.11.14,0a.27.27,0,0,0-.07-.08M6,16.06c.12,0,.12-.09,0-.16L5.91,16l.07.08m15.9.68-.07.07c0,.11.08.11.14,0ZM4.4,17.11c0-.11-.09-.11-.15,0l.07.08a.27.27,0,0,1,.08-.07m11.43,0-.08-.1-.1.09.09.09Zm-3.08.84-.06-.08c-.1,0-.11.09,0,.15l.07-.07m2.78.84c0-.11-.07-.12-.13,0l.06.08.07-.06m5.52-.08-.06.09h.1Zm4,.08L25,18.7c-.12,0-.12.09,0,.15l.09-.07m-20.72.35c.12,0,.12-.1,0-.16L4.23,19l.08.09m21,.21c0-.11-.08-.11-.14,0l.06.08.08-.06M19.7.11S19.64,0,19.6,0a.3.3,0,0,0-.13,0c-.12,0-.16.08-.12.14a.2.2,0,0,0,.11.06A.24.24,0,0,0,19.7.11M9.76,15.83a.18.18,0,0,0,.12.21L10,16a.2.2,0,0,0-.22-.12Zm.62,1,.06.08.08-.07c0-.11-.08-.11-.14,0m1.33-2.92-.12,0a.29.29,0,0,0-.13.34.32.32,0,0,0,.33.15c.11,0,.14-.1.09-.19a1.08,1.08,0,0,1-.19-.35Zm-.78.41a.46.46,0,0,1,.07.07l.08-.06c0-.1-.09-.11-.15,0"/></g></g></svg>