<?xml version="1.0" encoding="utf-8"?>
<!-- Generator: Adobe Illustrator 25.0.1, SVG Export Plug-In . SVG Version: 6.00 Build 0)  -->
<svg version="1.1" id="Layer_1" xmlns="http://www.w3.org/2000/svg" xmlns:xlink="http://www.w3.org/1999/xlink" x="0px" y="0px"
	 viewBox="0 0 29.2 29.5" style="enable-background:new 0 0 29.2 29.5;" xml:space="preserve">
<style type="text/css">
	.st0{fill:#008375;}
</style>
<g id="Layer_2_1_">
	<g id="Layer_1-2">
		<path class="st0" d="M4.4,2.7c0.1-0.2,0.2-0.3,0.4-0.3C4.9,2.4,5,2.3,5,2.2c0,0,0-0.1,0-0.1C4.9,1.9,4.7,1.8,4.6,1.6
			c-0.1-0.1-0.1-0.2,0-0.2c0,0,0,0,0,0C4.7,1.2,4.8,1.1,5,1c0.1-0.1,0.2-0.1,0.3,0c0.1,0.1,0.2,0.1,0.2,0c0-0.1,0.1-0.2,0.2-0.2
			c0.1,0,0.2-0.1,0.2-0.1c0,0,0-0.1,0-0.1S5.9,0.3,6,0.3h0.1c0.2,0,0.4,0,0.6,0c1.6,0,3.2,0,4.9,0h0.6c0.1,0,0.3,0,0.4-0.1
			c0.1-0.1,0.3-0.1,0.4-0.1h1.7c0.2,0,0.4,0,0.5,0.1c0.1,0,0.2,0.1,0.3,0.1c0.7,0,1.5,0,2.2,0s1.8,0,2.6,0c0.1,0,0.3,0.1,0.4,0.1
			c0.1,0.1,0.2,0.1,0.4,0.1h1.4H25c0.2,0,0.5,0.1,0.7,0.2c0.1,0.1,0.2,0.1,0.3,0.1h1.1c0.2,0,0.4,0,0.5,0.1C27.7,1,27.9,1,28,1
			c0.2,0,0.5,0,0.7,0c0.1,0,0.2,0.1,0.2,0.2c0,0.1,0,0.2,0,0.3c0,0.5,0,0.9,0,1.4c0,0.1,0.1,0.3,0.1,0.4c0.1,0.3,0.1,0.5,0,0.8
			c-0.1,0.1-0.1,0.3-0.1,0.4c0,1.5,0,3.1,0,4.6c0,2.2,0,4.4,0,6.5c0,0.2,0,0.4-0.1,0.5c0,0.1-0.1,0.2-0.1,0.3c0,0.1,0,0.2,0,0.3
			c0,0.8,0,1.7,0,2.5v2.6c0,0.1,0,0.3-0.1,0.4c-0.1,0.1-0.1,0.3-0.1,0.4c0,1,0,2,0,3.1v2.4c0,0.4,0,0.7,0,1.1c0,0.1-0.1,0.2-0.3,0.3
			H28c-1.2,0-2.3,0-3.5,0c-1,0-2,0-2.9,0c-1.3,0-2.5,0-3.8,0h-4.3h-1.5h-1.5H8.6c-0.2,0-0.4-0.1-0.6-0.2c0,0-0.1,0-0.1,0H7.7
			c-0.7,0-1.3,0-2,0c-0.2,0-0.4-0.1-0.5-0.1c-0.1,0-0.2,0-0.2,0c-0.1,0.1-0.2,0-0.3,0C4.6,29,4.4,29,4.3,29c-0.4,0-0.8,0-1.2,0
			c-0.2,0-0.4,0-0.6,0c-0.1,0-0.2,0-0.3-0.1c-0.2-0.1-0.4-0.2-0.6-0.3c-0.1-0.1-0.4-0.1-0.5,0c-0.1,0.1-0.2,0.1-0.3,0
			c-0.1-0.1-0.3-0.1-0.4,0c0,0-0.1,0-0.1,0c-0.1,0-0.2-0.1-0.3-0.3C0,28.2,0,28.1,0.1,28l0.1-0.1c0,0,0.1,0,0.1,0c0.4,0,0.8,0,1.2,0
			c0.1,0,0.2,0,0.2-0.1c0,0,0-0.1-0.1-0.1c-0.1-0.2-0.1-0.4,0-0.6c0,0,0-0.1,0-0.1c-0.1-0.2-0.2-0.3-0.2-0.5
			c-0.2-0.2-0.2-0.5-0.4-0.7s-0.1-0.2,0.2-0.3c0.2,0,0.3-0.2,0.3-0.3c0,0,0,0,0-0.1c0-0.1,0-0.2,0-0.3c0-0.2,0.1-0.5,0.2-0.7
			c0.1-0.1,0.1-0.3,0-0.4c-0.2-0.2-0.2-0.5-0.2-0.8c0-0.1,0-0.3,0.1-0.4c0.2-0.2,0.1-0.2,0.1-0.5c0-0.1-0.1-0.3-0.2-0.4
			c-0.1-0.1-0.1-0.2-0.1-0.3c0-0.1,0-0.1,0.3-0.3c0.1,0,0.2-0.2,0.2-0.3c0-0.1,0-0.2,0-0.3c0-0.1,0-0.2,0-0.3C2.1,20.1,2,20.1,2,20
			c-0.1-0.1-0.1-0.3-0.1-0.4c0-0.1,0-0.3,0-0.4c0-0.1,0-0.2-0.1-0.3c-0.1-0.2-0.1-0.2,0-0.4c0.1-0.1,0.3-0.3,0.3-0.4
			c0.1-0.1,0.1-0.3,0.2-0.4s0.1-0.1,0.1-0.1c0,0,0-0.1-0.1-0.1c-0.1-0.2-0.2-0.4-0.3-0.6c-0.1-0.1-0.1-0.3-0.1-0.4c0,0,0-0.1,0-0.1
			l0,0c0.3,0,0.4,0,0.5,0.1s0.2,0.1,0.5-0.1s0.1-0.2,0-0.2c-0.1-0.1-0.2-0.2-0.2-0.4c0-0.1-0.1-0.2-0.1-0.2
			c-0.1-0.1-0.1-0.1-0.2-0.2c-0.2-0.2-0.2-0.2,0-0.4c0.1-0.1,0.1-0.1,0.3-0.2s0.2-0.1,0.2-0.3c0,0,0-0.1,0.1-0.1
			c0.1-0.2,0.3-0.5,0.4-0.7c0,0,0-0.1,0-0.1c-0.1-0.1-0.1-0.1-0.2-0.1c-0.1,0-0.2,0-0.3,0c-0.3,0-0.7,0-1,0c-0.1,0-0.2,0-0.2-0.1
			s0-0.2,0.2-0.3c0.1-0.1,0.1-0.1,0.2-0.1h0.8c0.1,0,0.2,0,0.2-0.1c0,0,0-0.1-0.1-0.1c0,0,0-0.1-0.1-0.1c-0.1-0.1-0.2-0.2-0.3-0.3
			L3,11.8c0.1-0.2,0-0.4-0.3-0.5c-0.1,0-0.2,0-0.3,0c0,0-0.1-0.1-0.1-0.1s0-0.1,0.1-0.1s0.3-0.1,0.3-0.2c0-0.1,0.1-0.2,0.1-0.2
			c0,0,0.1-0.1,0.1-0.1c0,0,0.1,0.1,0.1,0.1c0,0,0,0.1,0,0.1S3.1,11,3.2,11s0-0.1,0.1-0.1c0-0.1,0-0.3,0-0.4c0-0.1-0.1-0.2-0.1-0.2
			C3.1,10.2,3,10.1,3,10l0,0c0.1,0,0.1,0,0.2-0.1c0,0,0-0.1,0-0.1c0-0.1-0.1-0.1-0.2-0.1l0,0c0-0.1,0-0.2,0.1-0.2
			c0.1-0.1,0.2-0.2,0.3-0.3C3.5,9,3.5,9,3.4,8.8C3.3,8.7,3.3,8.6,3.3,8.5c0-0.1,0-0.1,0.3-0.2c0.2,0,0.2-0.2,0.2-0.4c0,0,0,0,0-0.1
			c0-0.1-0.1-0.2-0.1-0.2s0.1-0.2,0.1-0.2c0-0.1,0.1-0.2,0.1-0.3c0-0.1,0-0.2,0-0.3c0-0.1,0.1-0.2,0.2-0.2C4,6.5,4.1,6.4,4.1,6.2
			c0-0.4,0-0.7,0-1.1c0-0.1,0-0.3,0.1-0.4l0.1-0.1c0.1-0.1,0.1-0.3,0-0.4c0-0.1-0.1-0.2-0.1-0.2s0.1-0.2,0.1-0.2
			c0.1-0.1,0.1-0.3-0.1-0.4c0,0,0,0-0.1,0C4.1,3.3,4,3.2,4,3.2C4,3.1,4,3,4.1,3l0.2-0.2L4.4,2.7C4.4,2.9,4.5,3,4.5,3h0.1
			c0.1,0,0.2,0,0.2-0.1c0-0.1-0.1-0.1-0.2-0.1H4.4 M4.1,9.7c0-0.1,0-0.2-0.1-0.2c0,0,0,0,0,0v0.1C4,9.7,4.1,9.7,4.1,9.7
			c0,0.1,0,0.2,0.1,0.3c0,0,0.1,0.1,0.1,0.1s0.1-0.1,0.1-0.1c0-0.1,0-0.2,0-0.2C4.3,9.8,4.3,9.7,4.1,9.7 M25.9,27.3c0,0,0,0.1,0,0.1
			c0,0.1,0,0.2,0.1,0.2c0,0,0,0.1,0.1,0.1c0.1,0,0.2,0,0.2,0c0.1,0,0.1-0.1,0-0.2c-0.1-0.1-0.1-0.2-0.2-0.4c0,0-0.1-0.1-0.1-0.1
			C26,27.1,25.9,27.2,25.9,27.3 M25.2,24.7c0,0.1,0.1,0.1,0.2,0.2l0.1,0.1c0.1-0.1,0.1-0.1,0.1-0.2c0-0.1-0.1-0.2-0.2-0.2
			c0,0,0,0,0,0C25.2,24.5,25.1,24.6,25.2,24.7 M26.5,2.2c0,0,0,0.1,0,0.1c0,0.1,0.1,0.1,0.2,0c0.1-0.1,0.1-0.1,0.2-0.2
			c0-0.1,0-0.1-0.1-0.2c-0.1,0-0.2,0-0.2,0C26.4,2,26.4,2.1,26.5,2.2 M3.1,15.4c0,0.1,0.1,0.1,0.2,0H3.1L3.1,15.4 M26,24.3L26,24.3
			L26,24.3L26,24.3z M25.3,26.3c0,0.1,0.1,0.1,0.2,0H25.3L25.3,26.3 M26.7,27.7L26.7,27.7C26.9,27.7,26.9,27.6,26.7,27.7L26.7,27.7
			 M27.4,4.2c-0.1,0-0.1,0.1,0,0.2V4.2C27.5,4.2,27.5,4.2,27.4,4.2 M26.7,4.3L26.7,4.3L26.7,4.3L26.7,4.3z M27.1,3.4L27.1,3.4
			L27.1,3.4L27.1,3.4z M27.4,2.1L27.4,2.1C27.5,1.9,27.4,1.9,27.4,2.1L27.4,2.1 M0.7,25c-0.1,0-0.1,0-0.2-0.1
			c-0.1-0.1-0.1-0.1-0.2-0.1c-0.1,0.1-0.1,0.2-0.1,0.2c0,0.2,0,0.4,0,0.5c0,0,0,0.1,0.1,0.1s0.1,0,0.1,0c0-0.1,0.1-0.1,0.1-0.2
			c0.1-0.1,0.1-0.2,0.2-0.3C0.8,25.2,0.8,25.1,0.7,25L0.7,25z M0.8,15C0.9,15,1,14.9,1,14.9v-0.1c0-0.2-0.1-0.2-0.3-0.2
			s-0.2,0.1-0.2,0.3S0.6,15,0.8,15 M0.7,15.7c0-0.1-0.1-0.2-0.2-0.2c0,0-0.1-0.1-0.1-0.1c-0.1,0-0.1,0.1-0.1,0.2s0.1,0.3,0.3,0.2
			S0.7,15.8,0.7,15.7 M1.8,14.1c0.1,0,0.3,0,0.4,0c0,0,0.1-0.1,0.1-0.1s0-0.1,0-0.1c-0.2-0.1-0.4-0.1-0.5,0l-0.1,0L1.8,14.1
			 M0.3,18.9C0.3,18.9,0.4,18.8,0.3,18.9c0.1-0.1,0.1-0.2,0-0.2c-0.1,0-0.2,0-0.2,0v0.1C0.1,18.9,0.2,18.9,0.3,18.9 M1.9,16.3
			c0-0.1-0.1-0.2-0.3-0.2c0,0,0,0,0,0l0,0c0,0.1,0,0.1,0.1,0.2C1.8,16.4,1.8,16.3,1.9,16.3z M1.6,16.1c0-0.1,0-0.2-0.1-0.2L1.4,16
			C1.5,16.1,1.5,16.1,1.6,16.1L1.6,16.1z M3,9.7L3,9.7 M0.8,25c0.1,0,0.2,0,0.2-0.1c0,0,0,0-0.1-0.1C0.8,24.9,0.8,25,0.8,25L0.8,25z
			"/>
	</g>
</g>
</svg>
