<svg xmlns="http://www.w3.org/2000/svg" viewBox="0 0 28.44 29.24"><defs><style>.cls-1{fill:#008375;}</style></defs><g id="Layer_2" data-name="Layer 2"><g id="Layer_1-2" data-name="Layer 1"><path class="cls-1" d="M3.63,3.37a1,1,0,0,0,.53-.13c.17-.13.18-.12.36,0a.55.55,0,0,0,.25.1,1.29,1.29,0,0,0,.28,0,.41.41,0,0,1-.26.28l-.13.05a.24.24,0,0,0-.14.22.57.57,0,0,0,0,.13,1.76,1.76,0,0,0,.14.23c.09.11.1.26.18.37a.35.35,0,0,0,.1.08,1,1,0,0,1,.38.17c.1.07.17.08.22,0a.28.28,0,0,0,0-.13.63.63,0,0,0,0-.39c-.07-.14-.23-.14-.34-.21A.88.88,0,0,1,5.13,4L5.24,4c.31-.05.63,0,1-.06,0,0,.08,0,.11-.07s0-.13-.1-.17a2.48,2.48,0,0,0-.27,0,.47.47,0,0,1-.26-.08l-.23-.15L5,3.36a.3.3,0,0,1,.26-.26.75.75,0,0,1,.53.08c.2.13.23.12.35,0L6.37,3a.33.33,0,0,1,.23-.11.65.65,0,0,1,.13.23A.29.29,0,0,0,7,3.34a1.22,1.22,0,0,0,.27,0A1.11,1.11,0,0,1,8,3.56a.59.59,0,0,0,.52,0s.08-.06.11-.09a.43.43,0,0,0-.1-.09l-.12,0c-.19-.08-.2-.11-.11-.28l.07-.13a.54.54,0,0,0-.15-.22.57.57,0,0,0-.36-.18l-.28,0,0,0a.48.48,0,0,1,.09-.26c.12-.17.12-.21,0-.35s-.26-.21-.44,0L7,2.06c-.13.13-.2.12-.34,0a.62.62,0,0,1-.17-.22.56.56,0,0,1,0-.12A.67.67,0,0,0,6.6,1.6q0-.14-.12-.18a.82.82,0,0,1-.26-.1A1.14,1.14,0,0,0,6,1.17a1.12,1.12,0,0,0-.41,0H5.17a.7.7,0,0,0-.39.11c-.18.09-.22.08-.3-.09S4.38.91,4.22.86A.34.34,0,0,1,4,.71.24.24,0,0,1,4.21.58h.55a5,5,0,0,1,.55,0c.19,0,.32.18.49.22A.22.22,0,0,0,6.05.74.22.22,0,0,0,6,.63.28.28,0,0,1,6,.39c0-.08.23-.07.38,0a.94.94,0,0,0,.51.17,7.7,7.7,0,0,1,1,0,.31.31,0,0,1,.28.25A.2.2,0,0,0,7.89,1L8,1.06A.21.21,0,0,0,8.09.84c.44,0,.44,0,.53.12l.31.29c.08.08.16.1.24,0a.26.26,0,0,1,.36,0,.19.19,0,0,0,.25,0,.71.71,0,0,1,.53-.11.8.8,0,0,1,.26.09,1.16,1.16,0,0,0,.24.14l.28,0a.65.65,0,0,1,.37.16,2.87,2.87,0,0,0,.44.34c.08.05.18.05.26.1a2.86,2.86,0,0,1,.42.36.56.56,0,0,0,.24.13.49.49,0,0,1,.25.12l.4.38a1.14,1.14,0,0,0,.57.37c.05,0,.08.05.12.07a1.49,1.49,0,0,0,.24.14,1.4,1.4,0,0,0,.41.05,1,1,0,0,1,.41.06c.21.11.21.1.49,0a.16.16,0,0,1,.12,0c.32.15.32.16.52.17a3,3,0,0,1,.42,0,.6.6,0,0,1,.24.12,12.46,12.46,0,0,1,.9.88,1.63,1.63,0,0,0,.31.27c.08,0,.07,0,.4.1l.14,0,.12.07a12.34,12.34,0,0,1,.92.85A.58.58,0,0,0,20,6.4a1.38,1.38,0,0,1,.46.29l.11.1L20.8,7c.7.75,1.42,1.48,2.14,2.2a.77.77,0,0,1,.22.34.75.75,0,0,0,.15.24l.54.63a.75.75,0,0,1,.13.25,1,1,0,0,0,.14.24,2.06,2.06,0,0,1,.35.43c.09.21.22.41.32.61a2.92,2.92,0,0,0,.25.5,2.59,2.59,0,0,0,.17.38,1.24,1.24,0,0,1,.18.52.48.48,0,0,0,.09.26l.17.22a.9.9,0,0,1,.29.61.53.53,0,0,0,.08.26c.16.24.22.52.37.75a.61.61,0,0,1,.08.27,1.28,1.28,0,0,0,.05.27c0,.08.09.16.13.24a.9.9,0,0,1,.13.39,2.72,2.72,0,0,1,0,.28.71.71,0,0,0,.21.5.83.83,0,0,1,.31.74,1.24,1.24,0,0,0,.2.65.61.61,0,0,1,.08.26c0,.14,0,.28,0,.42a.71.71,0,0,0,.15.38.82.82,0,0,1,.1.4,13.67,13.67,0,0,1,0,1.81.31.31,0,0,1-.27.26c-.18,0-.37,0-.55,0a.16.16,0,0,0-.16.16l.1.09a.29.29,0,0,1,.24.11c0,.07,0,.14-.12.17l-.14,0-.12.08-.2.19a.39.39,0,0,0,0,.5c.09.18.08.25,0,.37l-.19.2c-.06.07-.1.16-.15.23a.86.86,0,0,0,0,.42.27.27,0,0,0,.18.18c.14,0,.28,0,.41.07s.15.11.09.2-.1.17-.07.25a.68.68,0,0,0,.17.21c.11.1.12.11.37,0s.45,0,.59.17.09.17,0,.22a1.83,1.83,0,0,1-.24.13c-.1,0-.1.13,0,.22l.48.5a.58.58,0,0,1,.19.36,5.89,5.89,0,0,1,0,.84.3.3,0,0,1-.26.27.21.21,0,0,0-.12-.22L28,28.3a.23.23,0,0,0,.22.13.46.46,0,0,0,.1.25c.08.09.09.17,0,.22a.35.35,0,0,1-.25.09l-.28,0h-1a1.84,1.84,0,0,0-.41,0,1.92,1.92,0,0,0-.25.12.5.5,0,0,1-.27.08H23.25a1.08,1.08,0,0,1-.4-.11.89.89,0,0,0-.4-.11h-.69a1.17,1.17,0,0,0-.66.16.94.94,0,0,1-.68,0,1.12,1.12,0,0,0-.25-.11.88.88,0,0,0-.28,0h-.14a1,1,0,0,0-.53.12.9.9,0,0,1-.4.09h-.28a1.12,1.12,0,0,1-.4-.1.88.88,0,0,0-.39-.11l-4.17,0-2.22,0a.79.79,0,0,1-.53-.14.57.57,0,0,0-.25-.08l-.42,0a.58.58,0,0,1-.39-.13,1.07,1.07,0,0,0-.53-.13,1.92,1.92,0,0,1-.41-.05c-.08,0-.16-.09-.24-.13s-.26-.09-.51,0a.4.4,0,0,1-.51,0L7.26,28a.65.65,0,0,0-.39-.13,3.55,3.55,0,0,1-.55-.06.37.37,0,0,1-.15-.22,7.61,7.61,0,0,1,0-.83.45.45,0,0,0-.09-.25.27.27,0,0,1,0-.36c.1-.15.09-.16-.17-.26-.09,0-.18-.08-.21-.17a.3.3,0,0,1,0-.26.83.83,0,0,1,.08-.12.75.75,0,0,0,.1-.65.38.38,0,0,0-.22-.16c-.13,0-.27,0-.4-.08a.43.43,0,0,1-.1-.09l.1-.1A.88.88,0,0,0,5.69,24c.12-.13.11-.22,0-.3a.46.46,0,0,1-.37-.36.28.28,0,0,0-.2-.18,1,1,0,0,1-.45-.3.41.41,0,0,1,0-.5c.17-.27.16-.27.15-.38a.6.6,0,0,0-.1-.25c-.11-.17-.1-.18.13-.28A.32.32,0,0,0,5,21.31a.29.29,0,0,0-.23-.41v0A.3.3,0,0,1,5,20.64a2.66,2.66,0,0,1,.28,0l.13,0c.11,0,.11-.1,0-.21A.83.83,0,0,1,5.31,20c0-.31,0-.31-.13-.38a.9.9,0,0,0-.24-.12.22.22,0,0,1-.1-.09.41.41,0,0,1,0-.27A.37.37,0,0,1,5,19a2.83,2.83,0,0,0,.4-.08s.09,0,.1-.09a.39.39,0,0,0,0-.26,2.94,2.94,0,0,0-.36-.42A.53.53,0,0,1,5,17.76a2.61,2.61,0,0,1,0-.28c0-.13,0-.28.12-.38A.92.92,0,0,1,5.4,17a.38.38,0,0,0,.19-.34s0-.09,0-.13a.22.22,0,0,0-.11-.24.32.32,0,0,0-.38,0,.26.26,0,0,1-.24.08.55.55,0,0,1-.29-.29.23.23,0,0,1,0-.11,2.69,2.69,0,0,1,.27-.32c.13-.14.11-.24-.07-.29a.89.89,0,0,1-.58-.54c-.06-.3-.3-.3-.53-.32a.28.28,0,0,1-.23-.13.33.33,0,0,1,.23-.14c.11,0,.15-.1.12-.17A.12.12,0,0,0,3.7,14a1.24,1.24,0,0,1-.57-.39.28.28,0,0,0-.22-.11l-.12.06-.13.06a.28.28,0,0,1-.12-.23c0-.14,0-.28,0-.42a.71.71,0,0,0,0-.14.32.32,0,0,0-.27-.26l0,0c0-.14,0-.27,0-.41a.73.73,0,0,0-.11-.38.32.32,0,0,1-.07-.24.68.68,0,0,1,.24-.12.29.29,0,0,0,.17-.33.27.27,0,0,0-.17-.18l-.13,0A.29.29,0,0,1,2,10.42l.07-.11a.38.38,0,0,0,0-.5c-.07-.08-.11-.16-.08-.23s.08-.16.12-.24l-.13-.23a.37.37,0,0,1,0-.38,4.73,4.73,0,0,1,.37-.4.44.44,0,0,0,.11-.25l0,0A.21.21,0,0,0,2.71,8a.14.14,0,0,0,0-.09.24.24,0,0,0-.19-.11l0,0a.75.75,0,0,1,.17-.61.6.6,0,0,0,.06-.11.65.65,0,0,0,0-.13V7A.55.55,0,0,0,3,6.87a1,1,0,0,1,.36-.19c.11,0,.15-.1.12-.16s-.07,0-.11-.08l-.54,0c-.1,0-.19,0-.23-.11s0-.14.13-.16a.5.5,0,0,0,.35-.37.27.27,0,0,1,.2-.17,1.18,1.18,0,0,1,.27,0,.29.29,0,0,0,.24-.1.3.3,0,0,0-.1-.22l-.19-.2c-.12-.13-.1-.23,0-.29a.32.32,0,0,0,.24-.13.48.48,0,0,0-.09-.23A.67.67,0,0,1,3.64,4a3.08,3.08,0,0,0,0-.68Zm3.09,20.9c-.2,0-.26.09-.28.28a.2.2,0,0,0-.22.11l.07.09a.23.23,0,0,0,.13-.22.3.3,0,0,0,.2-.08.25.25,0,0,0,.07-.2.2.2,0,0,0,.22-.12l-.07-.08a.24.24,0,0,0-.12.22M7.83,5A.2.2,0,0,0,8,5.24L8,5.16A.19.19,0,0,0,7.81,5a.44.44,0,0,1,.11-.24c.16-.22.11-.3-.15-.33a1.14,1.14,0,0,0-.26,0,.38.38,0,0,0-.2.15.19.19,0,0,0,0,.13c0,.17.07.21.26.23l.26,0M6.58,4.2A.62.62,0,0,0,6,4.51c-.07.09,0,.18.07.21a1,1,0,0,1,.37.17c.09.08.15.08.23,0,.23-.17.3-.27.28-.43s-.07-.22-.25-.26H6.58M9.37,9.39l.1-.1A.34.34,0,0,0,9.39,9,.25.25,0,0,0,9.14,9,.28.28,0,0,0,9,9a.35.35,0,0,0,.11.23.47.47,0,0,0,.23.12m-1.3,6.23A.27.27,0,0,0,8,15.4a.24.24,0,0,0-.13.2.22.22,0,0,0,.11.21.18.18,0,0,0,.12-.19m2.69,8.16a.2.2,0,0,0-.12.19.26.26,0,0,0,.1.21.24.24,0,0,0,.12-.2.19.19,0,0,0-.1-.2m-4.47-.29a.22.22,0,0,0-.12.2.23.23,0,0,0,.11.21.21.21,0,0,0,.12-.2.23.23,0,0,0-.11-.21M8,14.62l-.08-.09a.29.29,0,0,0-.24.05c-.07.06-.06.12,0,.17a.24.24,0,0,0,.23,0,.25.25,0,0,0,0-.09m2.2.5-.08.06c0,.11.09.12.15,0l-.07-.08m-3.55.93c0-.1-.09-.11-.15,0l.07.08.08-.07M4.06,5.92A.46.46,0,0,0,4,6c0,.1.08.11.14,0l-.07-.08m4.53-1.3-.1-.06v.1ZM5.82,17.72l-.07-.09c-.12,0-.12.1,0,.16l.09-.07m5.75,1.18c.12,0,.12-.09,0-.15l-.09.07a.27.27,0,0,1,.07.08M0,24.86c0-1,0-1.95,0-2.93a1.29,1.29,0,0,1,.13-.53.17.17,0,0,0,0-.12A.52.52,0,0,1,.13,21c.08-.17.15-.34.22-.51s.06-.05.1-.08.08.06.09.1a.6.6,0,0,0,.12.24.13.13,0,0,0,.09,0s.08-.07.08-.11c.05-.22,0-.46,0-.69l.1-.1a.18.18,0,0,1,.15.17.88.88,0,0,1,0,.28,2.72,2.72,0,0,0,0,.28.34.34,0,0,0,.13.22.29.29,0,0,0,.13-.23,2.66,2.66,0,0,1,0-.28c0-.11.09-.16.16-.12a.21.21,0,0,1,.07.11,3,3,0,0,1,0,.42.73.73,0,0,1-.09.4.62.62,0,0,0-.16.37,2.62,2.62,0,0,0,0,.56.28.28,0,0,0,0,.12l.14.25c.07.12.07.28.2.36l.25.11a.29.29,0,0,1,.09.1.7.7,0,0,1,0,.53L2,23.9c-.05.09.07.3.18.32l.41.07a.3.3,0,0,1,.18.33.61.61,0,0,1,0,.12.52.52,0,0,0-.11.24.47.47,0,0,0,.07.12,1.14,1.14,0,0,1,.16.38.78.78,0,0,0,.65.45c.17,0,.17,0,.52.18a.14.14,0,0,0,.11,0,1,1,0,0,1,.66-.17,2.64,2.64,0,0,1,.28,0c.11,0,.17.08.14.14a.18.18,0,0,1-.11.08.59.59,0,0,1-.14,0c-.3,0-.3,0-.38.14a.52.52,0,0,0-.08.39l0,.13c0,.13.11.15.21.05s.28-.15.38-.11a.45.45,0,0,1,.23.32.45.45,0,0,0,.06.12.75.75,0,0,1,.07.12.61.61,0,0,1,0,.12.52.52,0,0,1-.17.22.61.61,0,0,1-.37.17l-1.25,0a.66.66,0,0,0-.38.14.89.89,0,0,1-.39.12c-.33,0-.65,0-1,0-.13,0-.21.08-.29.26a.3.3,0,0,1-.3.23l-.28,0a.81.81,0,0,1-.53-.11,1.23,1.23,0,0,0-.25-.14C0,28.31,0,28.27,0,27.92v-.56c0-.83,0-1.67,0-2.5H0m3.87,1.91a.26.26,0,0,0-.1-.21.22.22,0,0,0-.12.19.2.2,0,0,0,.1.21.2.2,0,0,0,.12-.19M1.39,0H1L.7,0C.5,0,.3.12.31.32S.3.59.29.73A.76.76,0,0,1,.24,1l-.12.25a1.09,1.09,0,0,0,.1.25c0,.09.06.18.1.26a.31.31,0,0,0,.19.18.79.79,0,0,1,.37.17c.11.09.16.1.21,0a.5.5,0,0,0,0-.13,7.5,7.5,0,0,1,0-.82A.43.43,0,0,1,1.3.89,2.3,2.3,0,0,0,1.79.63a.35.35,0,0,1,.38,0,.86.86,0,0,0,.24.11c.07,0,.27-.18.29-.28s0-.15-.14-.17A.9.9,0,0,1,2.32.19.79.79,0,0,0,1.81,0H1.39ZM3.91,20.62h.26c.18,0,.21,0,.28-.22A2,2,0,0,1,4.64,20c.06-.1.05-.17-.07-.21H4.44s-.09,0-.12,0a.71.71,0,0,0-.38.51,2.35,2.35,0,0,0,0,.26ZM.83,3.44A.84.84,0,0,1,1,3.07c.07-.1.08-.17,0-.22a.3.3,0,0,0-.26,0A.29.29,0,0,0,.63,3a.56.56,0,0,0,0,.52s.06,0,.09.06l.1-.09m6.72-.91a.65.65,0,0,0-.43.29l-.06.12a.2.2,0,0,0,.23.1.22.22,0,0,0,.21-.13.9.9,0,0,0,0-.4ZM.79,8s-.05-.07-.08-.1A.87.87,0,0,0,.63,8a.61.61,0,0,0,0,.24c0,.18.05.34.12.34s.13-.17.13-.33A.51.51,0,0,0,.79,8M.25,7.72a.39.39,0,0,0-.08-.1.21.21,0,0,0-.09.23s0,.09.05.11.11,0,.13-.11a.29.29,0,0,0,0-.13m2,4.84a.23.23,0,0,0-.22.12.25.25,0,0,0,0,.25s.06.07.09.1a.21.21,0,0,0,.12-.22c0-.09,0-.18,0-.27ZM27.58,23.34a.18.18,0,0,0-.08-.09c-.07,0-.12,0-.14.13a.17.17,0,0,0,.07.22c.08,0,.13-.05.15-.14a.48.48,0,0,0,0-.12M.94,12.71H1l0-.1Zm.38-2.83h-.1l0,.1ZM.13,8.54H.22l0-.12ZM22.61,7.8a.21.21,0,0,0,.1.22L22.79,8a.21.21,0,0,0-.21-.13ZM2.52,8.1V7.8l0,0A.21.21,0,0,0,2.31,8a.21.21,0,0,0,.23.13Zm19.81-.58s0,.08,0,.11a.25.25,0,0,0,.26.17l0,0a.3.3,0,0,0-.28-.28Zm-18,18.05v-.11l-.1.05Zm-1.13-.42c-.11.05-.12.1,0,.16l.08-.07-.07-.09M22.3,7.55a.22.22,0,0,0-.11-.21l-.07.06a.22.22,0,0,0,.21.12ZM2.8,7a.19.19,0,0,0-.13-.22l-.08.08A.2.2,0,0,0,2.81,7Zm.83-3.62a.19.19,0,0,0-.11-.21l-.08.07a.25.25,0,0,0,.21.11ZM4.76,20.92a.21.21,0,0,0-.22.12l.08.08a.19.19,0,0,0,.13-.22Zm-.83-.28a.19.19,0,0,0-.21.12l.07.08a.2.2,0,0,0,.12-.22ZM4.54,18c0,.12.09.12.15,0l-.07-.08L4.54,18"/></g></g></svg>