<svg xmlns="http://www.w3.org/2000/svg" viewBox="0 0 30.25 29.76"><defs><style>.cls-1{fill:#45c2b1;}</style></defs><g id="Layer_2" data-name="Layer 2"><g id="Layer_1-2" data-name="Layer 1"><path class="cls-1" d="M1.55,25.75V22.13a.75.75,0,0,0-.11-.39.94.94,0,0,1-.13-.4c0-.18,0-.37,0-.55,0-1,0-1.95,0-2.92a.5.5,0,0,0-.07-.27.67.67,0,0,1-.06-.12.54.54,0,0,1-.07-.27l0-1.39c0-1.44,0-2.88,0-4.31a.93.93,0,0,0-.12-.4.91.91,0,0,1-.1-.4l0-1.25A1.34,1.34,0,0,0,.56,8.8a.77.77,0,0,1-.07-.27c0-.37,0-.74,0-1.11,0-1.07,0-2.13,0-3.2,0-.65,0-1.3,0-1.95A.69.69,0,0,0,.28,1.9L.1,1.69C0,1.51,0,1.41.15,1.22s.14-.13.2-.2A.75.75,0,0,1,.85.81c.23,0,.47,0,.7,0,.79,0,1.58,0,2.36,0a.79.79,0,0,0,.4-.1.78.78,0,0,1,.4-.12c.88,0,1.76,0,2.64,0,2.6,0,5.2,0,7.79,0s5.29,0,7.94,0a1.25,1.25,0,0,0,.53-.13A.5.5,0,0,1,23.87.3l.56,0L26.79.23c.14,0,.14,0,.4-.11a.92.92,0,0,1,.4-.11c.76,0,1.79,0,2.36,0a.27.27,0,0,1,.27.25,2.64,2.64,0,0,1,0,.28c0,1.21,0,2.41,0,3.62a1,1,0,0,1-.17.66A.26.26,0,0,0,30,5c-.05.37,0,.74-.07,1.11a.83.83,0,0,1-.07.27,1,1,0,0,0-.16.52c0,.19,0,.37,0,.56a1.27,1.27,0,0,1-.12.39.73.73,0,0,0-.12.39c0,.19,0,.37,0,.56a1.12,1.12,0,0,1-.1.4.87.87,0,0,0-.14.39c0,.18,0,.37,0,.55a.93.93,0,0,1-.16.53.58.58,0,0,0-.09.26,1.24,1.24,0,0,1-.15.53.92.92,0,0,0-.14.39,1.09,1.09,0,0,1-.11.39,1.12,1.12,0,0,0-.18.52.65.65,0,0,1-.08.27,1.48,1.48,0,0,0-.19.51.84.84,0,0,1-.08.27c-.11.2-.18.42-.3.62s-.22.51-.38.74a3.64,3.64,0,0,1-.32.62,2.55,2.55,0,0,1-.24.5,5.07,5.07,0,0,1-.32.61,1.37,1.37,0,0,1-.35.59l-.09.11-.07.12a.34.34,0,0,0-.06.12c-.07.23-.24.4-.32.62a.83.83,0,0,1-.15.23c-.17.22-.36.42-.54.63a.84.84,0,0,0-.14.24.72.72,0,0,1-.14.24,4.12,4.12,0,0,1-.28.31,4.84,4.84,0,0,0-.47.68.75.75,0,0,1-.07.12l-1,1c-.43.42-.87.84-1.29,1.27a1,1,0,0,1-.33.24,1,1,0,0,0-.24.14l-.61.57a1.91,1.91,0,0,1-.68.48.28.28,0,0,0-.11.08l-.32.27a2,2,0,0,1-.68.47,4.7,4.7,0,0,0-.44.34.7.7,0,0,1-.23.15,1.62,1.62,0,0,0-.36.21,2.81,2.81,0,0,1-.44.33c-.23.07-.4.24-.62.31a.85.85,0,0,0-.25.13l-.32.27a1.09,1.09,0,0,1-.23.14c-.18.06-.32.18-.5.25a4.59,4.59,0,0,0-.5.24.47.47,0,0,1-.26.08,1.21,1.21,0,0,0-.52.19.92.92,0,0,1-.39.11.77.77,0,0,0-.27.08c-.19.13-.42.18-.62.3a1.08,1.08,0,0,1-.52.18.9.9,0,0,0-.39.13.78.78,0,0,1-.39.12l-.7,0a1.26,1.26,0,0,0-.66.18.29.29,0,0,1-.13.05l-.41,0a1.08,1.08,0,0,0-.53.15.79.79,0,0,1-.4.1L7,29.51H6.16a.84.84,0,0,0-.4.11.88.88,0,0,1-.4.11l-1.66,0H2a.61.61,0,0,1-.14,0,.27.27,0,0,1-.28-.25,2.82,2.82,0,0,1,0-.41c0-.75,0-1.49,0-2.23l0-1.11ZM25,14.47a1.24,1.24,0,0,0,.27,0,.3.3,0,0,0,.27-.26l0-.27a.49.49,0,0,1,.1-.25c.15-.19.12-.24-.08-.44s-.26-.27-.16-.44a.45.45,0,0,0,0-.51c-.11-.17-.1-.22,0-.35l.27-.31c.1-.1.11-.25.18-.36a.38.38,0,0,1,.22-.15c.22-.08.24-.11.25-.28a2.44,2.44,0,0,0,0-.27.2.2,0,0,0,.21-.12l-.07-.08a.24.24,0,0,0-.12.22.43.43,0,0,1-.25-.1l-.22-.16a.53.53,0,0,0-.39.11.8.8,0,0,1-.24.13c-.24.09-.28.15-.3.4s0,.28,0,.42a.52.52,0,0,1-.18.36l-.19.2c-.11.1-.11.11,0,.35a.19.19,0,0,1-.05.24.44.44,0,0,1-.22.16c-.08,0-.15,0-.16-.16s0-.37,0-.55a.25.25,0,0,0-.14-.21l-.1.09a1.16,1.16,0,0,1-.18.37.53.53,0,0,0-.13.39.82.82,0,0,1,0,.27,1.16,1.16,0,0,1-.14.24.18.18,0,0,0,0,.24.15.15,0,0,1,0,.25c-.08.18-.08.2.13.29s.24.1.15.27-.13.29-.09.38.2.17.33.22a1.19,1.19,0,0,1,.23.16c.11.09.26.09.38.15a.28.28,0,0,1,.14.22.2.2,0,0,0-.22.12.6.6,0,0,0,.08.08.2.2,0,0,0,.12-.22.48.48,0,0,0,.32-.17c.19-.18.2-.21.06-.43a.45.45,0,0,1-.08-.23ZM23.1,11.24l.09.06v-.1Zm-.2,1.06-.06.09h.1Zm-1.4.56-.05.09h.1Zm0,1.25.06-.09h-.1Zm.49.2.1.06v-.1Zm1,.57-.07-.08c-.12,0-.12.09,0,.15l.08-.07m-2.31,1L20.6,16h.11Zm-.21,1.2-.09-.06v.1Zm1.33,1-.05.09h.09Zm.42,5.23a.82.82,0,0,0-.27,0,.34.34,0,0,0-.29.25l0,0a.82.82,0,0,0,.27,0,.33.33,0,0,0,.29-.25Zm1.09-1.14a.2.2,0,0,0,.2-.11l-.06-.07a.23.23,0,0,0-.11.2Zm-.27.28a.24.24,0,0,0,.2-.07.27.27,0,0,0,.07-.21l0,0c-.2,0-.25.09-.29.28Zm0,0c-.19,0-.25.09-.27.28l0,0a.27.27,0,0,0,.28-.28Zm-.27.28a.25.25,0,0,0-.28.28l0,0a.27.27,0,0,0,.28-.28Zm-.58.54a.33.33,0,0,0,.28-.28l0,0c-.2,0-.26.08-.28.28Zm-.54.29a.28.28,0,0,0-.2.13l.08.06a.19.19,0,0,0,.1-.21Zm3.2-10.81-.08.07.06.07c.11,0,.12-.08,0-.14M25,14.47a.21.21,0,0,0-.13-.21l-.07.07a.22.22,0,0,0,.22.12Z"/></g></g></svg>