<svg xmlns="http://www.w3.org/2000/svg" viewBox="0 0 29.23 29.52"><defs><style>.cls-1{fill:#870f54;}</style></defs><g id="Layer_2" data-name="Layer 2"><g id="Layer_1-2" data-name="Layer 1"><path class="cls-1" d="M25.35,27.86a.23.23,0,0,0-.23.13.33.33,0,0,0,0,.26.26.26,0,0,0,.07.11c.07.09.09.18,0,.23a.31.31,0,0,1-.25.06l-.36-.21a.94.94,0,0,0-.41,0,.9.9,0,0,0-.24.12.58.58,0,0,1-.38.13l-.28,0a.83.83,0,0,0-.27,0,1.34,1.34,0,0,0-.24.12.52.52,0,0,1-.26.08c-.87,0-1.75,0-2.62,0-.32,0-.64,0-1,0a.3.3,0,0,1-.27-.26c0-.09,0-.18,0-.27a.28.28,0,0,0,0-.13c0-.12-.16-.21-.13-.36a1.16,1.16,0,0,0,.14-.24.39.39,0,0,0,0-.26.24.24,0,0,0-.23-.12h-.28a.19.19,0,0,0-.12-.21l-.08.07a.21.21,0,0,0,.22.12.39.39,0,0,1-.12.25l-.29.3c-.1.11-.11.15,0,.35a.68.68,0,0,1,.07.54.27.27,0,0,1-.31.2c-.12,0-.16-.08-.1-.18s.11-.24,0-.36-.23-.25-.44-.05a1.75,1.75,0,0,1-.2.19.6.6,0,0,1-.38.17,1.18,1.18,0,0,0-.27,0,.89.89,0,0,0-.25.14.67.67,0,0,1-.39.1c-.28,0-.56,0-.84,0a.66.66,0,0,1-.39-.11.2.2,0,0,0-.25,0,.82.82,0,0,1-.38.13c-.7,0-1.4,0-2.09,0-1,0-2,0-2.93,0a1.07,1.07,0,0,0-.53.14.23.23,0,0,1-.25,0A1.13,1.13,0,0,0,7.09,29a.68.68,0,0,0-.39.11l-.13.06a.89.89,0,0,1-.4.07.52.52,0,0,1-.27-.07c-.11-.07-.23-.14-.37,0a.6.6,0,0,1-.39.12l-1.39,0a.93.93,0,0,0-.4.11.9.9,0,0,1-.39.13c-.6,0-1.21,0-1.81,0a.72.72,0,0,1-.55-.38.5.5,0,0,1,0-.13,2.53,2.53,0,0,1,0-.55.86.86,0,0,1,.16-.38.75.75,0,0,0,0-.67,2.72,2.72,0,0,0-.11-.25l.12-.25a.33.33,0,0,0,0-.13,1.33,1.33,0,0,0,0-.28c0-.51,0-1,0-1.53s0-1.12,0-1.67A1,1,0,0,1,1,22.76a.47.47,0,0,0,.08-.26l0-1a.86.86,0,0,1,.13-.38.69.69,0,0,0,.13-.39,2.72,2.72,0,0,0,0-.28,1,1,0,0,1,.12-.4.8.8,0,0,0,.16-.52.61.61,0,0,0,0-.14,2.48,2.48,0,0,1,0-.27,1.15,1.15,0,0,1,.12-.25.81.81,0,0,0,.12-.4,1.06,1.06,0,0,1,.13-.39.87.87,0,0,0,.14-.39c0-.23,0-.46,0-.69a.41.41,0,0,1,.09-.26,2.27,2.27,0,0,0,.23-.5,1.38,1.38,0,0,0,.23-.65.6.6,0,0,1,.1-.25,1.92,1.92,0,0,0,.24-.5c.15-.19.19-.42.32-.62s.18-.42.32-.61.13-.35.23-.51a1.43,1.43,0,0,0,.19-.37c.05-.18.19-.31.25-.49a1.13,1.13,0,0,1,.21-.35l.1-.11A1,1,0,0,0,5,11.33c.05-.07.09-.16.15-.23a2.86,2.86,0,0,0,.35-.43c.05-.08.07-.17.12-.25a.24.24,0,0,1,.07-.12L6,10a2.47,2.47,0,0,0,.37-.42c0-.08.07-.17.11-.25l.08-.12c.12-.14.24-.28.37-.41l.6-.58a.58.58,0,0,1,.24-.14A.62.62,0,0,0,8,7.94c.48-.45.94-.9,1.4-1.36l.4-.39a1.22,1.22,0,0,1,.57-.38,2.46,2.46,0,0,0,.44-.34.93.93,0,0,1,.36-.21.55.55,0,0,0,.23-.14l.21-.19a.77.77,0,0,1,.36-.2,1.12,1.12,0,0,0,.24-.13,1.55,1.55,0,0,1,.68-.47A.28.28,0,0,0,13,4.05l.32-.26c.08-.06.16-.1.24-.15s.4-.24.62-.31.39-.25.62-.3a3.29,3.29,0,0,1,.49-.26,1.62,1.62,0,0,0,.37-.19.84.84,0,0,1,.27-.08,1.09,1.09,0,0,0,.52-.16.52.52,0,0,1,.26-.1l.13,0a.6.6,0,0,0,.27-.07c.23-.15.51-.22.75-.37a.92.92,0,0,1,.39-.11l.28,0a.72.72,0,0,0,.39-.13.69.69,0,0,1,.39-.12l.7,0a.48.48,0,0,0,.25-.09c.24-.15.51-.22.75-.37a.56.56,0,0,1,.26-.07,1,1,0,0,0,.4-.11.75.75,0,0,1,.38-.15c.33,0,.65,0,1,0a1.07,1.07,0,0,0,.39-.14.91.91,0,0,1,.4-.1l1.67,0a.87.87,0,0,0,.39-.12,1,1,0,0,1,.4-.11l1.95,0h.14c.19,0,.31.16.31.37s0,.18,0,.28c0,.46,0,.93,0,1.39a.81.81,0,0,0,.09.4.7.7,0,0,1,.12.4s0,.09,0,.13l0,3.77c0,.51,0,1,0,1.53a.86.86,0,0,1-.13.39.58.58,0,0,0-.09.26.81.81,0,0,0,.11.53.31.31,0,0,1,.06.13.79.79,0,0,1,0,.67,1.1,1.1,0,0,0-.14.53v3.76c0,1.11,0,2.23,0,3.34a1.27,1.27,0,0,0,0,.28,1.19,1.19,0,0,0,.13.25.9.9,0,0,1,.09.4.66.66,0,0,1,0,.14c0,1.35,0,2.69,0,4a.67.67,0,0,0,.11.39c.12.24.13.32,0,.52a.77.77,0,0,0-.14.39c0,.37,0,.74,0,1.11a.86.86,0,0,0,0,.28.82.82,0,0,0,.12.25.47.47,0,0,1,0,.52.68.68,0,0,0-.13.39V27a.87.87,0,0,0,.17.65.79.79,0,0,1,.07.54.43.43,0,0,1-.14.24.63.63,0,0,1-.46.27c-.7,0-1.39,0-2.09,0a.8.8,0,0,1-.38-.15,1.15,1.15,0,0,0-.25-.12.91.91,0,0,1-.53-.43.42.42,0,0,1,0-.13.19.19,0,0,0,.21-.12l-.07-.08a.21.21,0,0,0-.12.22m-10-9.48a.21.21,0,0,0-.13-.22l-.08.09a.2.2,0,0,0,.22.12.21.21,0,0,0,.12.22l.09-.08a.23.23,0,0,0-.22-.13m-.82-7.8a1.8,1.8,0,0,0-.4,0l-.09.1s.06.07.1.09a.25.25,0,0,0,.25,0,.27.27,0,0,0,.12-.22.21.21,0,0,0,.22-.12l-.08-.08a.21.21,0,0,0-.12.22M15,7.49a3.37,3.37,0,0,0,.55,0,.26.26,0,0,0,.23-.13.33.33,0,0,0,0-.26,1.42,1.42,0,0,0-.14-.23.71.71,0,0,1-.11-.25c0-.11-.1-.15-.16-.1a.21.21,0,0,0-.08.11c0,.14,0,.27,0,.41s-.15.22-.22.34a.3.3,0,0,0,0,.13.23.23,0,0,0-.2.09.14.14,0,0,0,0,.09.19.19,0,0,0,.19.08A2.44,2.44,0,0,1,15,8a.34.34,0,0,0,.09.24.86.86,0,0,0,.3.27.34.34,0,0,0,.37,0c.06-.06.13-.11.19-.18s.08-.16,0-.21S15.74,8,15.64,8a1.82,1.82,0,0,0-.23-.15,1.76,1.76,0,0,0-.4,0v-.3m2.25,9.78a.61.61,0,0,0-.13,0,.28.28,0,0,0-.1.09.79.79,0,0,0-.08.26l-.22.35c-.05.08.07.32.17.34a.94.94,0,0,0,.41,0A.28.28,0,0,0,17.5,18l-.05-.12-.16-.24c0-.13,0-.27,0-.41a.24.24,0,0,0,.22-.12.28.28,0,0,0,0-.25s-.06-.07-.09-.1a.24.24,0,0,0-.12.22c0,.09,0,.18,0,.27m0-7.55a2.46,2.46,0,0,1,0,.28.28.28,0,0,1,0,.13c-.05.11-.13.11-.22,0s-.17-.08-.23,0a.39.39,0,0,0-.06.26c0,.2.06.32.15.37a.69.69,0,0,0,.41,0,.29.29,0,0,0,.26-.27,2.53,2.53,0,0,0,0-.55,1.12,1.12,0,0,0-.05-.13.26.26,0,0,0-.23-.13c0-.18,0-.36,0-.54V9.07a1.28,1.28,0,0,0-.05-.27A.23.23,0,0,0,17,8.67a.19.19,0,0,0-.23.09c0,.08-.06.17-.1.25l-.23.34a.51.51,0,0,0,0,.25.31.31,0,0,0,.11.09,1.83,1.83,0,0,0,.66,0M9.18,13.65a.53.53,0,0,0-.35.19.57.57,0,0,0-.15.23.47.47,0,0,0,.07.12.19.19,0,0,1,0,.25c-.07.09-.08.17,0,.23a.42.42,0,0,0,.25.09,2,2,0,0,0,.55-.06.18.18,0,0,0,.1-.09.3.3,0,0,0,0-.26c0-.09-.13-.13-.22-.16s-.22-.11-.26-.29a1.24,1.24,0,0,1,0-.27.2.2,0,0,0,.22-.12l-.08-.08a.2.2,0,0,0-.12.22M6.67,25.89a1.36,1.36,0,0,0,0,.4.39.39,0,0,0,.1.08s.08-.05.09-.09a.25.25,0,0,0,0-.25.26.26,0,0,0-.23-.12.34.34,0,0,1,.26-.28.55.55,0,0,0,.25-.1.32.32,0,0,1,.23-.1.23.23,0,0,1,.12.06c.09.08.17.08.22,0a.57.57,0,0,0,0-.13.22.22,0,0,0-.13-.22l-.13,0a5,5,0,0,0-1.09,0,.3.3,0,0,0-.27.25.38.38,0,0,1-.27.28.34.34,0,0,0-.22.15.28.28,0,0,0,.23.12h.81M5.56,21.73a.37.37,0,0,1-.29-.26.65.65,0,0,0,0-.13A.24.24,0,0,0,5,21.2H4.88a1.65,1.65,0,0,1-.77.28.17.17,0,0,0-.11.06.25.25,0,0,0,0,.36.92.92,0,0,0,.24.13.27.27,0,0,1,.18.19,1.18,1.18,0,0,0,.19.37c.16.2.27.23.44.07a1.22,1.22,0,0,1,.56-.39c.17-.08.17-.13.05-.3a.51.51,0,0,1-.11-.25,1.07,1.07,0,0,0,.4,0l.09-.1s0-.08-.09-.1a.33.33,0,0,0-.26,0,.26.26,0,0,0-.12.23m3-11.43A1.06,1.06,0,0,1,8.78,10c.05-.09,0-.16-.1-.2a1.46,1.46,0,0,1-.36-.16c-.11-.08-.17-.07-.21.05a.27.27,0,0,0,0,.12.65.65,0,0,0,.05.39c.09.14.23.12.36.13h.14a.31.31,0,0,1-.27.26c-.23,0-.46,0-.68.07a.23.23,0,0,0-.11.09.44.44,0,0,0,0,.26,1,1,0,0,0,.5.45c.29.1.29.12.08.35L7.92,12a.41.41,0,0,0-.07.11A.46.46,0,0,0,8,12.3a.57.57,0,0,0,.23.15.29.29,0,0,0,.13-.23A.46.46,0,0,1,8.46,12l.1-.09a1.21,1.21,0,0,0,.37-.57.18.18,0,0,1,.09-.1c.11-.09.25-.09.36-.18l.41-.36a.36.36,0,0,1,.26-.09l.27,0a.31.31,0,0,0,.12-.05.25.25,0,0,0,.12-.23l.13,0,.22.16c.12.09.26.09.38.16l.24.14.24-.13.25-.1c.16-.06.16-.17,0-.31l-.1-.09a.17.17,0,0,0-.25,0,.19.19,0,0,1-.13,0c-.08,0-.14-.06-.15-.16s0-.27-.06-.41A1.57,1.57,0,0,0,11,9.2c-.08-.09-.1-.17,0-.22a.2.2,0,0,1,.12-.06c.41,0,.55-.05.6.51,0,.19.17.29.39.29s.36,0,.42-.26.14-.24.19-.36a.13.13,0,0,0,0-.12.75.75,0,0,0-.41-.34,1.18,1.18,0,0,1-.37-.19l-.1-.1-.1-.09c-.24-.22-.32-.23-.61-.07-.09.09-.17.09-.21,0a.3.3,0,0,1,0-.26A1.16,1.16,0,0,1,11,7.68c0-.06-.08-.21-.23-.32l-.12-.06a.3.3,0,0,0-.11.24c0,.5,0,1,0,1.52a.6.6,0,0,1-.12.39c-.19.29-.19.3,0,.6a.46.46,0,0,1,.1.25h-.13a1.35,1.35,0,0,1-.28,0,1.09,1.09,0,0,1-.23-.14.3.3,0,0,0-.46.12,1.39,1.39,0,0,1-.06.13.29.29,0,0,1-.45.12.62.62,0,0,0-.36-.18m2.53,2.77a.57.57,0,0,1,0,.13.83.83,0,0,1-.17.5c0,.09,0,.15.08.19s.32-.08.33-.17a2.3,2.3,0,0,0,0-.26.31.31,0,0,0-.06-.25.23.23,0,0,0-.22-.12.45.45,0,0,1,.12-.25,1.1,1.1,0,0,0,.2-.35c0-.15.06-.15.29-.25a1,1,0,0,0,.48-.47.5.5,0,0,0,0-.13.8.8,0,0,1,.13-.24c.08-.1.08-.17,0-.21a.27.27,0,0,0-.26,0,1.09,1.09,0,0,1-.63.22.35.35,0,0,0-.26.08.64.64,0,0,1-.24.11l-.24-.13a2.23,2.23,0,0,1-.49-.24s-.07-.07-.11-.07a.29.29,0,0,0-.26,0c-.07.06,0,.13,0,.23a.42.42,0,0,1,0,.5c-.11.17-.09.23.08.3a.36.36,0,0,1,.23.13.29.29,0,0,1,0,.13c-.06.09-.08.17,0,.23a.31.31,0,0,0,.25.09,1.23,1.23,0,0,1,.27,0,.83.83,0,0,1,.23.15.37.37,0,0,0,.25.09m.28,2.53,0,0a.71.71,0,0,0,0,.14.55.55,0,0,0,.21.48,3.59,3.59,0,0,0,.39.39.16.16,0,0,0,.24,0,1.19,1.19,0,0,0,.3-.46.27.27,0,0,1,.16-.2.32.32,0,0,1,.27,0,1.55,1.55,0,0,0,.36.19c.19,0,.32.18.48.26a.37.37,0,0,0,.35-.16,3.09,3.09,0,0,0,0-1,.14.14,0,0,0-.17-.14,2.81,2.81,0,0,1-.5.22l-.11.08c-.17.11-.21.1-.35,0-.47-.42-.3-.34-.83-.39h-.14a.32.32,0,0,1-.14,0c-.11,0-.16-.09-.12-.15a.18.18,0,0,1,.11-.08l.41,0a.33.33,0,0,0,.15-.22.23.23,0,0,0-.09-.24.46.46,0,0,0-.26,0l-.24.15a.55.55,0,0,1-.25.1.88.88,0,0,0-.49.46,1,1,0,0,1-.16.37c-.08.1-.08.17,0,.23a.28.28,0,0,0,.13,0l.27,0m3.89-4.18a.29.29,0,0,0-.13-.23.28.28,0,0,0-.25,0,.32.32,0,0,0-.1.1.22.22,0,0,0,.22.12h.27a.37.37,0,0,0,.1.25l.29.3c.08.09.09.17,0,.22a.26.26,0,0,1-.26,0,1.42,1.42,0,0,1-.23-.14c-.15,0-.24.1-.36.15a.41.41,0,0,1-.27,0c-.08,0-.15-.1-.23-.15a.32.32,0,0,0-.27,0,.23.23,0,0,0-.15.19.2.2,0,0,0,.09.24,2.72,2.72,0,0,0,.25.11,1.2,1.2,0,0,1,.24.15,2.48,2.48,0,0,0,.37.17L15,13l.29.29a.47.47,0,0,0,.25.11l.55,0a.27.27,0,0,1,.23.12.26.26,0,0,1-.21.14H15a.24.24,0,0,0-.12-.22.33.33,0,0,0-.26,0,.32.32,0,0,0-.1.1.23.23,0,0,0,.22.13,2.43,2.43,0,0,1,.27,0,2.44,2.44,0,0,1,0,.27.37.37,0,0,0,.1.26.3.3,0,0,1,0,.37c-.06.08,0,.16.09.2s.46,0,.69,0l.11.08a.25.25,0,0,1,.06.25.23.23,0,0,1-.18.17c-.14,0-.28,0-.42.06l-.35.21-.14,0c-.1,0-.17.08-.16.16A.34.34,0,0,0,15,16a.6.6,0,0,0,.51.18h.14a.66.66,0,0,0,.52-.15,1.2,1.2,0,0,1,.52-.15c.17,0,.21-.06.28-.25a1.15,1.15,0,0,1,.12-.25c.11-.18.1-.23-.06-.3a.37.37,0,0,1-.24-.14.3.3,0,0,1,0-.26c0-.12.11-.13.21,0a.58.58,0,0,0,.25.12.22.22,0,0,0,.25-.08.56.56,0,0,0,0-.12,1.53,1.53,0,0,0-.26-.31c-.17-.19-.19-.3-.08-.49a1,1,0,0,0,.11-.24.81.81,0,0,0-.27-.31.6.6,0,0,0-.26-.11.26.26,0,0,1-.11-.07.14.14,0,0,1,0-.09l.11-.08.56,0c.2,0,.33-.15.49-.24l.13,0c.19-.08.21-.11.24-.3a.59.59,0,0,0,0-.13.65.65,0,0,1,.13-.39c.08-.1.09-.17,0-.22a.29.29,0,0,0-.36.09.93.93,0,0,0,0,.13.84.84,0,0,1-.33.43c-.1.07-.17.06-.21-.07a1.09,1.09,0,0,0-.1-.25,1.78,1.78,0,0,1-.24-.5c0-.12-.11-.13-.21,0a1,1,0,0,0-.32.44c-.08.19-.14.22-.28.1l-.1-.09c-.37-.35-.3-.27-.73-.29M8.07,14.48a.89.89,0,0,1-.36-.19.35.35,0,0,0-.39,0,1.65,1.65,0,0,1-.37.2.37.37,0,0,0-.28.27.23.23,0,0,1-.16.18.25.25,0,0,1-.11-.24.8.8,0,0,0,0-.27.39.39,0,0,0-.19-.19l-.41,0a2.46,2.46,0,0,1-.28,0,1.92,1.92,0,0,1-.25-.12C5.08,14,5,14,5,14.25s0,.28,0,.42a.35.35,0,0,1-.2.33.9.9,0,0,0-.24.12.51.51,0,0,0-.12.39c0,.27,0,.55,0,.83a.73.73,0,0,1-.14.38l-.06.13a.87.87,0,0,0,.16.23,4,4,0,0,0,.29.29.63.63,0,0,0,.37.17.64.64,0,0,1,.52.16.4.4,0,0,0,.38.06.28.28,0,0,0,.16-.22.46.46,0,0,1,.16-.23.46.46,0,0,1,.39.09l.1.09c.13.14.12.26,0,.31a1,1,0,0,0-.37.18l-.31.28c-.15.13-.35.09-.53.12a.19.19,0,0,0-.16.16s.06.08.1.09a1,1,0,0,1,.25.11c0,.15-.07.23-.13.34s0,.09,0,.14v0l-.27,0-.13,0c-.09.05-.08.12,0,.22a1,1,0,0,1,.16.37c0,.12.11.14.21.06a.26.26,0,0,1,.35,0c.08.08.15.07.24,0a.72.72,0,0,1,.51-.15l.27,0a.4.4,0,0,1,.26.08,2.19,2.19,0,0,0,.49.23.89.89,0,0,1,.31.27.33.33,0,0,1,.1.25,2.44,2.44,0,0,0,0,.27l0,0-.14,0-.11-.08-.42-.36a.26.26,0,0,0-.35.38.78.78,0,0,0,.24.13.31.31,0,0,1,.19.32c0,.14,0,.28-.09.38a1.12,1.12,0,0,1-.24.13A.29.29,0,0,0,7,22.2l.36.42a.38.38,0,0,1,.09.25c0,.46,0,.92,0,1.38a.16.16,0,0,0,.16.16,1.83,1.83,0,0,1,.24-.13.38.38,0,0,1,.38.07l.19.2c.11.1.11.25.17.37a1,1,0,0,0,.39.38.42.42,0,0,0,.13,0,.22.22,0,0,0,.09.19.06.06,0,0,0,.08,0,.19.19,0,0,0,.09-.19.38.38,0,0,1,.29.26c.1.24.17.29.41.3s.27,0,.41,0a.3.3,0,0,1,.29.25.71.71,0,0,0,.11.25,1.9,1.9,0,0,1,.2.37.29.29,0,0,0,.31.22.69.69,0,0,0,.52-.14.18.18,0,0,1,.25,0,.69.69,0,0,0,.52.13.28.28,0,0,0,.24-.11.24.24,0,0,0-.2-.16.21.21,0,0,1-.18-.15.28.28,0,0,1,.24-.11.66.66,0,0,0,.14,0,.4.4,0,0,0,.37-.34c0-.12.12-.15.18-.1a.24.24,0,0,1,.07.12,1.24,1.24,0,0,1,0,.27.26.26,0,0,0,.12.24.25.25,0,0,0,.14-.21c0-.14,0-.28,0-.42a.7.7,0,0,0-.13-.39c-.09-.14-.09-.15,0-.36a.47.47,0,0,0,.08-.26c0-.18,0-.37,0-.55a.92.92,0,0,1,.46-.49l.41,0s.09-.05.11-.09,0-.14-.11-.17a1,1,0,0,1-.37-.18.45.45,0,0,0-.25-.12l0,0a.61.61,0,0,1,0-.13.32.32,0,0,1,.21-.14,1.22,1.22,0,0,1,.27,0,.64.64,0,0,1,.35.17.38.38,0,0,0,.25.09.88.88,0,0,0,0,.28c0,.14.07.22.26.27a.61.61,0,0,0,.4,0,.18.18,0,0,0,.1-.09.34.34,0,0,0,0-.26.25.25,0,0,0-.23-.13,2,2,0,0,0-.54,0c0-.09,0-.19,0-.28a1.36,1.36,0,0,1,0-.4c0-.09.09-.16.13-.25s0-.15-.13-.17l-.41-.05-.35-.2a.33.33,0,0,0-.13,0,1.05,1.05,0,0,1-.4-.07c-.14-.07-.15-.22-.21-.34a.18.18,0,0,0-.09-.1.3.3,0,0,0-.26,0c-.09,0-.09.13,0,.22a.17.17,0,0,1,0,.24c-.1.21-.09.24.06.3a.78.78,0,0,1,.46.29.26.26,0,0,1,.05.12.16.16,0,0,1-.16.15,2,2,0,0,1-.55,0c-.17,0-.2-.05-.29-.26a1.34,1.34,0,0,0-.12-.24A.25.25,0,0,1,13,22a.17.17,0,0,0,0-.25.53.53,0,0,1-.11-.24.44.44,0,0,1,.15-.36.44.44,0,0,0,.11-.25v0a.28.28,0,0,0,.22-.14.38.38,0,0,0,.06-.26.64.64,0,0,0-.2-.5,1.81,1.81,0,0,1-.18-.21.57.57,0,0,1-.16-.37c0-.14,0-.28,0-.41s0-.2-.11-.24-.13.09-.15.32c0,0,0,.09,0,.13a.18.18,0,0,1-.15.17.43.43,0,0,1-.09-.1s0-.09,0-.13a2.5,2.5,0,0,1-.28-.77.33.33,0,0,0-.26-.28.42.42,0,0,1-.23-.16.52.52,0,0,1,.07-.38.22.22,0,0,0,0-.35.6.6,0,0,0-.23-.16l-.12.06a.18.18,0,0,1-.25,0,3.17,3.17,0,0,0-.49-.24,2.55,2.55,0,0,0-.5-.24,3.24,3.24,0,0,0-.36-.2.23.23,0,0,0-.25.05.22.22,0,0,0,0,.11.66.66,0,0,1,.08.25.42.42,0,0,1-.24.12,1.62,1.62,0,0,0-.36.21.3.3,0,0,1-.26,0c-.12,0-.13-.12,0-.21l.29-.31c.08-.08.1-.15,0-.23s-.1-.26.06-.31a.93.93,0,0,0,.46-.29c.08-.09.09-.16,0-.24s-.26-.26-.32-.23a.29.29,0,0,0-.09.1.68.68,0,0,1-.12.24c-.06.09-.06.1-.38.12A.84.84,0,0,0,8,16c-.1.07-.18.07-.22,0a.27.27,0,0,1,0-.26A.31.31,0,0,1,8,15.63l.12-.05c.11,0,.16-.11.13-.19a.68.68,0,0,0-.28-.3L7.82,15l-.27,0a.29.29,0,0,1-.24-.12.26.26,0,0,1,.21-.13l.27,0a.32.32,0,0,0,.26-.28.21.21,0,0,0,.22-.12l-.08-.08a.19.19,0,0,0-.12.22M7,12.24a1.72,1.72,0,0,0-.36,0,.12.12,0,0,0-.1.19.75.75,0,0,0,.07.12c.15.18.34.31.49.48s.1.19,0,.34-.11.11-.47.27c0,0-.07.07-.1.1a.76.76,0,0,0,.09.09.71.71,0,0,0,.65-.06c.17-.1.18-.1.36,0a.37.37,0,0,0,.12.07.26.26,0,0,0,.26,0c.06-.06,0-.14,0-.23l-.07-.12a.39.39,0,0,1,0-.26.25.25,0,0,1,.23-.13.68.68,0,0,1,.52.11c.09.07.17.09.22,0a.26.26,0,0,0,0-.12.19.19,0,0,0-.11-.23l-.12-.05a3,3,0,0,0-.41,0,.59.59,0,0,1-.5-.19l-.1-.1A.8.8,0,0,0,7,12.24m5.85,5.08a2.64,2.64,0,0,0,0,.28.3.3,0,0,0,.32.18l.25-.12.12-.05.24.14.12-.05c.15-.11.35-.14.48-.26s.12-.35.25-.48.09-.17,0-.21l-.13,0a.69.69,0,0,0-.52.12l-.12.07a.45.45,0,0,1-.23-.11.3.3,0,0,0-.26-.06.7.7,0,0,0-.24.13,1.29,1.29,0,0,0-.19.21.28.28,0,0,0-.07.25M13,7.05S12.92,7,12.88,7a.47.47,0,0,1-.38-.35.23.23,0,0,0-.08-.11c-.07,0-.12,0-.17.13s-.11.23-.26.3l-.12,0c-.14,0-.14.1-.06.2a.7.7,0,0,0,.58.31A.65.65,0,0,0,13,7.17a.42.42,0,0,0,0-.12m3.6,10.42a.41.41,0,0,1,0-.11s-.07-.07-.11-.08a.6.6,0,0,1-.24-.12.48.48,0,0,1-.11-.38c0-.1,0-.19-.1-.24s-.14,0-.22.07l-.1.1a.36.36,0,0,0,0,.49l.18.2.2.19a.54.54,0,0,0,.22.15.77.77,0,0,0,.3-.27M4.4,26.18H4.19A.38.38,0,0,0,4,26.3a.57.57,0,0,0,.15.23,4.68,4.68,0,0,0,.39.38.34.34,0,0,0,.37,0,.15.15,0,0,0,0-.23c-.09-.09-.09-.15,0-.24s.08-.17,0-.22a.36.36,0,0,0-.25-.08H4.4m9.79-11.46s.08,0,.11,0a1.59,1.59,0,0,0,.32-.26.44.44,0,0,0,.08-.38c-.06-.14-.31-.17-.46-.05l-.21.18a.32.32,0,0,0-.09.24c0,.19.05.24.25.27m-4.2,12a1.73,1.73,0,0,1,.24,0,.24.24,0,0,0,.24-.09c0-.07-.05-.21-.18-.31a.57.57,0,0,0-.37-.14l-.27,0-.11.08a.28.28,0,0,0,0,.25.24.24,0,0,0,.19.16l.3,0m5.89-1.68a.66.66,0,0,0,.28,0c.1,0,.15-.08.14-.15s-.06-.07-.1-.08a.54.54,0,0,1-.37-.36.28.28,0,0,0-.32-.19c-.14,0-.15.12,0,.31a.8.8,0,0,1,.11.25.28.28,0,0,0,.29.23m3.43-13.92H20a.28.28,0,0,0,.21-.14.33.33,0,0,0-.23-.12,9.73,9.73,0,0,0-1.08,0,.3.3,0,0,0-.21.13.32.32,0,0,0,.23.13h.36m-1.22,2a2.51,2.51,0,0,1,0,.27.81.81,0,0,0,.09.1.35.35,0,0,0,.25,0,.34.34,0,0,0,.16-.21.78.78,0,0,0,0-.4.22.22,0,0,0-.21-.14.19.19,0,0,0-.23.09.44.44,0,0,0-.08.25m-1.12,6a.24.24,0,0,0,0-.09V19c0-.21-.08-.29-.21-.22a.69.69,0,0,0-.27.29.75.75,0,0,0,.06.13c.1.12.05.24,0,.36s0,.07,0,.11a.2.2,0,0,0,.24.06.25.25,0,0,0,.18-.18,2.58,2.58,0,0,0,0-.32m-6.68-3.34a1.31,1.31,0,0,0-.28,0,.21.21,0,0,0-.18.14l.09.1a1.3,1.3,0,0,1,.49.23.42.42,0,0,0,.12,0,.22.22,0,0,0,.24-.09l-.06-.12a.67.67,0,0,0-.42-.3m9-6.16a.74.74,0,0,0,.26,0c.12,0,.14-.11.07-.2a.61.61,0,0,0-.42-.29c-.17,0-.24,0-.26.22s0,.09,0,.13a.41.41,0,0,0,.21.15h.13M6.3,21.05s0-.08,0-.11a1.16,1.16,0,0,1-.14-.24.69.69,0,0,0-.1-.25.18.18,0,0,0-.1,0c-.08,0-.25.16-.29.28a.11.11,0,0,0,0,.11.65.65,0,0,0,.41.33.2.2,0,0,0,.24-.08M14.38,6.4h-.2a.23.23,0,0,0-.18.13.27.27,0,0,0,.23.11,3.13,3.13,0,0,0,.53,0,.21.21,0,0,0,.18-.13s-.06-.07-.1-.08a1,1,0,0,0-.46,0m4,2.74c.17,0,.24,0,.27-.22s0-.24-.21-.26-.24,0-.27.21,0,.1,0,.13a.24.24,0,0,0,.21.14M10.82,14.5c0-.05,0-.1,0-.13a.26.26,0,0,0-.2-.14.19.19,0,0,0-.23.07.4.4,0,0,0,.1.22l.1.09.11.06a.18.18,0,0,0,.14-.17m-1.18-5a.92.92,0,0,0-.23,0c-.1,0-.15.09-.13.14a.15.15,0,0,0,.1.09h.25c.16,0,.3-.09.26-.16a.2.2,0,0,0-.25-.09m8,15.63a.57.57,0,0,0-.13,0,.23.23,0,0,0-.1.07s.05.19.17.3.15.08.21,0a.36.36,0,0,0,0-.11.24.24,0,0,0-.19-.28M19.74,22l-.11,0c-.07.06-.06.13,0,.21a.77.77,0,0,0,.19.17c.08.05.14,0,.19-.08a.48.48,0,0,0-.06-.24.22.22,0,0,0-.22-.1M6.36,24.51a.22.22,0,0,0-.11-.2.22.22,0,0,0-.12.19.21.21,0,0,0,.11.2.19.19,0,0,0,.12-.19m1.85,1.28s.08-.05.1-.09a.2.2,0,0,0,0-.13c0-.12-.09-.15-.16-.08s0,.07-.05.11,0,.17.12.19m6.21.07a.25.25,0,0,0,.25-.09s-.06-.08-.1-.1a.29.29,0,0,0-.13,0c-.12,0-.16.07-.13.14a.6.6,0,0,0,.11.06m2-.21a.59.59,0,0,0-.13,0s0,.06-.07.1a.17.17,0,0,0,.23.1l.11-.07c0-.09,0-.13-.14-.15m-9-13.82a.18.18,0,0,0-.19-.12.25.25,0,0,0-.22.11.23.23,0,0,0,.2.12.23.23,0,0,0,.21-.11m8.41-2.36s0-.09,0-.12a.36.36,0,0,0-.1-.07.16.16,0,0,0-.1.23l.07.11q.13,0,.15-.15m-3.76,7.61s0,.07,0,.09a.21.21,0,0,0,.22,0c.11,0,.13-.1.07-.16a.26.26,0,0,0-.23,0s-.06,0-.09.07m.33-3.33a.2.2,0,0,0-.24-.08s-.07.06-.1.09,0,.08.07.1a.21.21,0,0,0,.24,0s0-.06,0-.09m6.14-3.9s-.05-.08-.09-.09a.25.25,0,0,0-.22.05c-.07.06-.06.13.05.17a.24.24,0,0,0,.23,0s0-.06,0-.09m-.31.51-.07.06c0,.11.08.12.14,0l-.07-.07m-2.71.08-.07-.09c-.11.05-.11.1,0,.16l.08-.07m-2.52,0-.09-.06v.1ZM11.05,11c0-.12-.08-.12-.14,0l.07.08.07-.07m5.87-3.07-.07-.09c-.12,0-.12.1,0,.16l.09-.07M12.1,7.84,12,7.91c0,.12.1.13.16,0l-.08-.09m-2.78,0-.09.07c0,.11.1.11.16,0a.27.27,0,0,1-.07-.08m7.8,19-.09.07c0,.13.1.13.17,0l-.08-.09m-11.7,0-.08.06c0,.11.08.11.14,0l-.06-.07M14.61,7l-.08.06c0,.11.09.12.15,0L14.61,7M4,25.83c.12,0,.12-.09,0-.15l-.08.07.06.08m19.53-.69-.06.08h.1ZM13,6c0-.11-.09-.12-.15,0l.07.08L13,6M5.13,24.57l-.07.06c0,.11.08.11.14,0l-.07-.08m.36-.48L5.42,24c-.11,0-.12.09,0,.15l.08-.07m-.07-.92-.09.07c0,.11.1.12.16,0l-.07-.09m13.93-.28-.08.07c0,.11.09.11.15,0l-.07-.08m3-10.24.1.06v-.09ZM6.6,20.47l-.06-.08c-.11,0-.12.09,0,.14l.08-.06m11.06-7.18c.11,0,.12-.09,0-.15a.27.27,0,0,1-.08.07l.07.08m-7.16.22c0-.11-.09-.11-.15,0l.07.08a.27.27,0,0,0,.08-.07m3.07,0c0-.11-.09-.12-.15,0l.07.08.08-.06m-3.77.25.09.06v-.1Zm7,2.86c.1,0,.11-.08,0-.14l-.08.07.07.07m3.92-2.93-.09.06c0,.11.09.11.16,0l-.07-.08m2.49.14.06-.09h-.11Zm-10,.41-.07.07c0,.11.08.12.14,0l-.07-.08M0,29.1a.57.57,0,0,0,0,.13.34.34,0,0,0,.11.23.37.37,0,0,0,.12-.23,9.55,9.55,0,0,0,0-1.07A.61.61,0,0,0,.2,28a.76.76,0,0,0-.08-.11L.05,28a2.94,2.94,0,0,0,0,.79v.27m14.2-5.7a.62.62,0,0,1-.25-.11.64.64,0,0,0-.5-.18c-.24,0-.32.11-.21.32s.11.25.18.37a.16.16,0,0,0,.09.09.5.5,0,0,0,.27,0c.18-.14.37-.26.4-.52Zm-2.53-2.81a.37.37,0,0,0,.25-.1.89.89,0,0,1,.36-.19c.12,0,.15-.1.1-.16a.26.26,0,0,0-.11-.07L11.86,20l-.35-.22a.27.27,0,0,0-.25.05c-.06,0,0,.14,0,.22l.28.3a.38.38,0,0,1,.11.24ZM7.23,18.66a.82.82,0,0,0-.27,0,.22.22,0,0,0-.14,0,.24.24,0,0,0-.12.22c0,.1,0,.19.12.23a.39.39,0,0,0,.26,0,.23.23,0,0,0,.12-.23c0-.09,0-.19,0-.28Zm1.11,2.49a.26.26,0,0,0,.13.22.31.31,0,0,0,.25,0,.43.43,0,0,0,.1-.09.23.23,0,0,0-.22-.13H8.33Zm1.53-1a.2.2,0,0,0-.22-.05c-.1,0-.12.11-.06.16a.24.24,0,0,0,.22,0,.23.23,0,0,0,.1-.07.2.2,0,0,0,0-.08m-1.25-.06a.26.26,0,0,0-.22.11.24.24,0,0,0,.21.12.23.23,0,0,0,.21-.11.21.21,0,0,0-.2-.12M5.55,19.2a.29.29,0,0,0,.13.23A.28.28,0,0,0,6,19.35a.22.22,0,0,0-.22-.13H5.54Zm1.66-.56h.24a.31.31,0,0,0,.23-.06.37.37,0,0,0,.09-.21H7.54c-.2,0-.26.07-.31.28Zm0-2.21a.86.86,0,0,0-.39,0s-.07.06-.1.1a.43.43,0,0,0,.1.09.28.28,0,0,0,.25,0,.21.21,0,0,0,.12-.21Zm2.12,8.73a.11.11,0,0,0-.08,0,.24.24,0,0,0-.11.19h.3a.24.24,0,0,0-.11-.19m-.11-.52.07.08.07-.06c0-.11-.08-.11-.14,0m0-1.11.08.08a.27.27,0,0,0,.08-.07c0-.11-.09-.12-.16,0m-.9-2.36c0-.19-.08-.25-.28-.28l0,0a.27.27,0,0,0,.07.21.24.24,0,0,0,.2.07Zm4.74-.28a.23.23,0,0,0-.13-.22l-.08.08a.21.21,0,0,0,.22.12Zm-1.38-.28a.2.2,0,0,0-.22.13l.08.08a.21.21,0,0,0,.12-.23ZM7.77,18.37A.19.19,0,0,0,8,18.24l-.08-.08a.19.19,0,0,0-.12.22Zm2.36-.47V18l.1,0ZM7.21,16.42a.22.22,0,0,0,.22-.13l-.08-.07a.19.19,0,0,0-.12.21Zm-.38-.37V16l-.1,0Zm.54-.67c-.11,0-.11.08,0,.14l.07-.06-.06-.08m-1.66-.73v-.09l-.1,0ZM16,14.26l-.08.07.07.08c.11,0,.11-.09,0-.15m-4.31,1.32a.23.23,0,0,0,.12.22l.12,0a.2.2,0,0,0,.23-.11A.24.24,0,0,0,12,15.6a1.29,1.29,0,0,0-.28,0Zm-.3,0h.28a.17.17,0,0,0-.08-.18.07.07,0,0,0-.09,0,.19.19,0,0,0-.09.19ZM11,12.11a.25.25,0,0,0-.2-.12.21.21,0,0,0-.2.11.16.16,0,0,0,.18.11.24.24,0,0,0,.22-.1M8.5,11v-.1l-.1,0ZM4.91,21.84h-.1l0,.1Z"/></g></g></svg>