<svg xmlns="http://www.w3.org/2000/svg" viewBox="0 0 29.77 29.24"><defs><style>.cls-1{fill:#ffc557;}</style></defs><g id="Layer_2" data-name="Layer 2"><g id="Layer_1-2" data-name="Layer 1"><path class="cls-1" d="M4.42,26.17A.3.3,0,0,0,4.65,26a.48.48,0,0,0,.06-.26.59.59,0,0,0,0-.14.32.32,0,0,0-.26-.28c-.28,0-.56,0-.83,0a.19.19,0,0,1-.18-.15l.11-.08L3.94,25a.32.32,0,0,0,.19-.19.81.81,0,0,0,0-.41A.57.57,0,0,0,4,24.18,1.08,1.08,0,0,0,3.64,24a.4.4,0,0,1-.3-.41.52.52,0,0,1,.08-.4.28.28,0,0,0,.08-.23.45.45,0,0,0-.25-.12s-.07-.05-.11-.08a.19.19,0,0,1,.17-.15.41.41,0,0,0,.23-.15.6.6,0,0,0-.16-.22A1.92,1.92,0,0,0,3.16,22,.4.4,0,0,0,3,22l0,0c0-.09,0-.17,0-.26a.49.49,0,0,0-.17-.34c-.09-.09-.19-.18-.28-.28s-.22-.2-.43-.06a.43.43,0,0,1-.24.08l0,0a.61.61,0,0,0,0-.13,2.73,2.73,0,0,0-.27-.31.71.71,0,0,1-.23-.49c0-.37-.06-.74,0-1.11a.86.86,0,0,0,0-.28,1.19,1.19,0,0,0-.13-.25.74.74,0,0,1-.1-.26A1.21,1.21,0,0,0,1,17.8a.89.89,0,0,1-.12-.4c0-1,0-1.94,0-2.92a1.12,1.12,0,0,0,0-.41,1.92,1.92,0,0,0-.12-.25.63.63,0,0,1-.06-.27c0-.28,0-.56,0-.84a.83.83,0,0,1,.14-.53.73.73,0,0,0,.09-.26.83.83,0,0,0-.11-.53A.89.89,0,0,1,.56,11l0-1.81a1.84,1.84,0,0,0-.05-.41,1.15,1.15,0,0,0-.12-.25,1.12,1.12,0,0,1,0-.13.34.34,0,0,1,0-.14c0-.14,0-.28,0-.42,0-.6,0-1.2,0-1.81,0-.83,0-1.67,0-2.5A1.07,1.07,0,0,0,.11,3,.5.5,0,0,1,0,2.74L0,1.9a1,1,0,0,1,.12-.53L.3,1A.28.28,0,0,1,.52.85a2,2,0,0,1,.42,0c1.2,0,2.41,0,3.62,0A.69.69,0,0,0,5,.68L5.08.63A.53.53,0,0,1,5.35.57c1,0,2,0,3.06,0,.42,0,.84,0,1.26,0H20.39a1,1,0,0,0,.52-.14A.54.54,0,0,1,21.18.3l.28,0c.74,0,1.48,0,2.23,0h2.08l.84,0c.14,0,.15,0,.39-.12a.55.55,0,0,1,.53,0,1.42,1.42,0,0,0,.25.12,1.31,1.31,0,0,0,.28,0,2.62,2.62,0,0,0,.28,0A.46.46,0,0,0,28.6.15,1,1,0,0,1,29.27,0a.51.51,0,0,1,.35.2.53.53,0,0,1,.13.38c0,1.07,0,2.14,0,3.2a5.28,5.28,0,0,0,0,.56.68.68,0,0,1-.13.39.77.77,0,0,0-.11.39c0,.37,0,.74,0,1.12a.87.87,0,0,1-.1.39.82.82,0,0,0-.13.39l-.06,1a.5.5,0,0,1-.08.26,1.92,1.92,0,0,0-.12.25,2.36,2.36,0,0,0,0,.28,2.45,2.45,0,0,0,0,.27,1.09,1.09,0,0,1-.12.4.73.73,0,0,0-.12.39c0,.19,0,.37,0,.56a1,1,0,0,1-.11.4,1.21,1.21,0,0,0-.16.52.84.84,0,0,1-.08.27,1.12,1.12,0,0,0-.18.51.87.87,0,0,1-.14.39,1.3,1.3,0,0,0-.16.53.82.82,0,0,1-.1.26,1.2,1.2,0,0,0-.18.52.51.51,0,0,1-.09.26c-.12.19-.18.42-.3.62s-.22.52-.38.74a3.59,3.59,0,0,1-.31.62c-.06.23-.23.41-.3.63s-.19.32-.25.49-.23.4-.32.62a.7.7,0,0,1-.13.24,2,2,0,0,0-.46.69.37.37,0,0,1-.07.12c-.12.14-.24.29-.36.42a1.81,1.81,0,0,0-.39.57,1.36,1.36,0,0,1-.25.34,1.74,1.74,0,0,0-.3.46,1,1,0,0,1-.24.34l-1.1,1.07a1.15,1.15,0,0,1-.35.22.89.89,0,0,0-.22.16c-.17.16-.34.32-.5.49-.36.36-.72.72-1.1,1.06l-.42.37a3.24,3.24,0,0,1-.36.2,1.24,1.24,0,0,0-.22.18c-.17.15-.34.31-.52.45a.85.85,0,0,1-.25.13,1.88,1.88,0,0,0-.24.14,2.87,2.87,0,0,1-.44.34l-.49.26c-.2.11-.42.2-.61.33a1.66,1.66,0,0,0-.6.35,1.47,1.47,0,0,1-.47.27,1.23,1.23,0,0,0-.25.14,1.28,1.28,0,0,1-.39.13.56.56,0,0,0-.26.07,1.73,1.73,0,0,1-.66.23.75.75,0,0,0-.25.09,1.08,1.08,0,0,1-.53.18.61.61,0,0,0-.26.08,1.3,1.3,0,0,1-.38.17,1.15,1.15,0,0,0-.25.12,1,1,0,0,1-.52.18.89.89,0,0,0-.38.15.84.84,0,0,1-.27.08l-1,.06a.9.9,0,0,0-.39.13.89.89,0,0,1-.4.12l-.27,0a1.14,1.14,0,0,0-.52.17.68.68,0,0,1-.27.07c-.84,0-1.67.06-2.51,0A.8.8,0,0,1,5.16,29,.52.52,0,0,1,5,28.6a1.26,1.26,0,0,0,0-.28s-.06-.07-.09-.1l-.1.05a1.2,1.2,0,0,1-.29.47c-.13.12-.2.14-.35.05a.39.39,0,0,0-.5,0l-.13.06a.61.61,0,0,1-.26.08,5.48,5.48,0,0,1-.7,0c-.53,0-.54,0-.52-.09a2.09,2.09,0,0,1,.17-.37c.12-.26.12-.26.27-.2.35.14.35.14.63,0a.7.7,0,0,1,.66,0c.09,0,.16.1.25.14a.33.33,0,0,0,.26,0,.33.33,0,0,0,.18-.2c.12-.27.13-.28.39-.32l.14,0a.27.27,0,0,0,.23-.13.53.53,0,0,0,.07-.26.63.63,0,0,0-.22-.49l-.21-.17a.58.58,0,0,0-.14-.05l0,0a.7.7,0,0,0-.18-.34.42.42,0,0,1-.09-.24ZM25.33,8.6h-.27a.26.26,0,0,0-.21.14.41.41,0,0,0,.07.11.65.65,0,0,0,.19.18.19.19,0,0,0,.24,0,.58.58,0,0,1,.24-.11.44.44,0,0,0,.23-.15.3.3,0,0,0-.22-.13l-.27,0M24.89,10a.74.74,0,0,0,.26,0c.12,0,.14-.1.07-.19a.72.72,0,0,0-.29-.26.35.35,0,0,0-.25,0,.22.22,0,0,0-.1.09.35.35,0,0,0,0,.25.36.36,0,0,0,.21.15l.13,0m1.67-.44-.09.08a.3.3,0,0,0,.05.23c.06.07.13.06.17,0a.24.24,0,0,0,0-.23s-.06,0-.09,0m-1.7,1.14a.19.19,0,0,0,.19.11.26.26,0,0,0,.21-.1.24.24,0,0,0-.2-.12.22.22,0,0,0-.2.11m-.51,2.2s-.08,0-.1.09a.33.33,0,0,0,0,.14c0,.11.1.14.17.08s0-.07,0-.11a.17.17,0,0,0-.12-.2m.2,1a.21.21,0,0,0-.25.09s.06.08.1.1a.27.27,0,0,0,.13,0c.11,0,.16-.07.13-.15a.6.6,0,0,0-.11-.06m.92-.94a.27.27,0,0,0,.08-.07c0-.11-.09-.12-.16,0l.08.08m-1.18-1.49.07.09.08-.07-.07-.08-.08.06m.83-3.33c0,.1.09.11.15,0l-.07-.08-.08.07m-.19-.92c-.12,0-.13.11,0,.18L25,7.35l-.08-.09M21.71,23.37h.13a.58.58,0,0,0,.38-.13,6.8,6.8,0,0,0,.77-.75.41.41,0,0,0,.11-.24l0,0H23a.63.63,0,0,0-.37.12,7,7,0,0,0-.79.75.33.33,0,0,0-.1.24ZM2.15,24.61A.28.28,0,0,0,2,24.26a.19.19,0,0,0-.24,0c-.06.06,0,.14,0,.23a.48.48,0,0,0,.22.15l.1-.07M3.05,22a1,1,0,0,0-.39,0s-.06.06-.09.09.06.08.09.09a.28.28,0,0,0,.25,0A.21.21,0,0,0,3,22Zm-.88,1s-.06-.06-.09-.1A.36.36,0,0,0,2,23a.21.21,0,0,0,0,.25s.06,0,.1,0A.2.2,0,0,0,2.17,23m.51,2.27a.22.22,0,0,0,.14,0c.12,0,.15-.09.09-.16l-.12-.05a.16.16,0,0,0-.2.11s.05.08.09.1m2,1.44a.22.22,0,0,0-.22.11.6.6,0,0,1,.08.08.17.17,0,0,0,.12-.21Zm-.3-.56A.2.2,0,0,0,4.31,26L4.23,26a.24.24,0,0,0,.22.12Zm17-2.51a.2.2,0,0,0-.22.11l.07.09a.2.2,0,0,0,.12-.22ZM2,23.75v.09l.1,0Zm19.68-.37c-.2,0-.26.09-.27.28l0,0a.25.25,0,0,0,.12,0,.24.24,0,0,0,.17-.25Zm1.38-1.13a.28.28,0,0,0,.2-.12l-.08-.06a.18.18,0,0,0-.1.2ZM1.94,21.15a.23.23,0,0,0-.22.13l.08.07a.2.2,0,0,0,.12-.22Z"/></g></g></svg>