<svg xmlns="http://www.w3.org/2000/svg" viewBox="0 0 29.18 29.28"><defs><style>.cls-1{fill:#870f54;}</style></defs><g id="Layer_2" data-name="Layer 2"><g id="Layer_1-2" data-name="Layer 1"><path class="cls-1" d="M2.45,2.54c0-.1,0-.19,0-.28A.33.33,0,0,0,2.34,2c-.09-.1-.18-.21-.28-.31s-.13-.13-.2-.2a.62.62,0,0,1-.17-.22c0-.08-.05-.17-.09-.26S1.51.87,1.46.79s0-.16.1-.19a.78.78,0,0,1,.14,0A1.1,1.1,0,0,0,2.23.43c.1,0,.17,0,.2.08a.22.22,0,0,1,0,.14.67.67,0,0,1-.06.12c-.15.29-.15.3,0,.33a.28.28,0,0,0,.25-.05A.39.39,0,0,0,2.76.82c.05-.15.07-.15.3-.26L3.43.37A1.45,1.45,0,0,1,4,.32H5c.56,0,1.12,0,1.67,0a5.23,5.23,0,0,1,.56,0c1,0,2,0,2.92,0a.78.78,0,0,0,.4-.09.89.89,0,0,1,.4-.12c.65,0,1.3,0,1.95,0h2.09c.6,0,1.2,0,1.81,0S18,0,18.69,0a1,1,0,0,1,.53.15.44.44,0,0,0,.51,0l.12-.07A.52.52,0,0,1,20.12,0c.51,0,1,0,1.53,0l2.09,0a.79.79,0,0,1,.53.14.58.58,0,0,0,.26.09,7.85,7.85,0,0,0,1,0,7.81,7.81,0,0,1,1,0,1.33,1.33,0,0,1,.66.19.34.34,0,0,0,.26,0,1.36,1.36,0,0,1,.79-.21,1.3,1.3,0,0,1,.55,0,.34.34,0,0,1,.15.22.68.68,0,0,1,0,.14c0,.56,0,1.11,0,1.67,0,2,0,4,0,6a1.18,1.18,0,0,0,.15.66.66.66,0,0,1,.06.27c0,.51,0,1,0,1.53a.82.82,0,0,1-.13.4.72.72,0,0,0-.08.26c0,1.16,0,2.32,0,3.48,0,.83,0,1.67,0,2.5a.93.93,0,0,0,.12.4.91.91,0,0,1,.1.4c0,.83,0,1.67,0,2.5a.78.78,0,0,1-.09.4,1,1,0,0,0-.14.53v.14a.76.76,0,0,1-.17.52.41.41,0,0,0,0,.51c.06.09.08.16,0,.24s-.1.2,0,.36a.54.54,0,0,1,.09.26,9.21,9.21,0,0,1,0,1.39.31.31,0,0,1,0,.13c0,.09-.09.17-.13.25s.13.23.09.36a.73.73,0,0,0-.1.25.75.75,0,0,0,.07.12l.19.2c.16.17.14.29,0,.47a.72.72,0,0,1-.37.18l-.1.08c0,.08,0,.14.15.17a.35.35,0,0,1,.3.39,2,2,0,0,1,0,.42.34.34,0,0,1-.27.28l-.13,0a.74.74,0,0,0-.59.32.69.69,0,0,1-.5.2L27,29c-1,0-2,0-2.92,0-.28,0-.56,0-.84,0a1.17,1.17,0,0,0-.52.16.66.66,0,0,1-.27.06.62.62,0,0,1-.4-.08.77.77,0,0,1,.1-.24.43.43,0,0,0,.05-.12.29.29,0,0,0-.2-.32l-.13,0h-.14c-2,0-4.09,0-6.13,0h-.14a1.24,1.24,0,0,0-.27,0,.82.82,0,0,0-.25.12.7.7,0,0,1-.4.1l-3.48,0c-.37,0-.74,0-1.11,0-.12,0-.17.1-.13.16l.11.08.56,0c3.11,0,6.22,0,9.33,0a10.59,10.59,0,0,1,1.38,0l.12.08a.28.28,0,0,1-.09.07l-.13,0H18.74c-2.32,0-4.64,0-7,0H11.5c-2.37,0-4.73,0-7.1,0l-3.48,0a.56.56,0,0,1-.26-.07.26.26,0,0,1-.13-.24.57.57,0,0,0,0-.13l0-1.95a1,1,0,0,0-.12-.39.89.89,0,0,1,0-.81.43.43,0,0,0,0-.51.73.73,0,0,1-.13-.39c0-.23,0-.46,0-.69a.71.71,0,0,1,.23-.49l.18-.21a.62.62,0,0,0,.09-.26.83.83,0,0,0-.32-.73A.5.5,0,0,1,.27,22c0-.14,0-.28,0-.42,0-.51,0-1,0-1.53l0,0A.28.28,0,0,0,.44,20a.5.5,0,0,0,.07-.27c0-1.11,0-2.22,0-3.33a.8.8,0,0,1,0-.27.89.89,0,0,1,.14-.25.67.67,0,0,0,.1-.39c0-.23,0-.46,0-.7,0-.6,0-1.2,0-1.8s0-.93,0-1.39,0-.83,0-1.25c0-.18,0-.37,0-.55a.94.94,0,0,0-.19-.65.39.39,0,0,1,0-.39c.13-.2.12-.21,0-.36A.69.69,0,0,1,.51,8V7.69A.8.8,0,0,0,.4,7.3a.91.91,0,0,1-.13-.54V6.62A.74.74,0,0,1,.41,6.1c.11-.2.11-.27,0-.51a.6.6,0,0,1-.1-.25c0-.14,0-.17.16-.37a.47.47,0,0,0,.1-.1c.19-.21.2-.22,0-.47A.41.41,0,0,1,.59,4L.66,3.9a.52.52,0,0,0,.12-.39A1.1,1.1,0,0,1,1,2.72a.66.66,0,0,0,.09-.27.59.59,0,0,1,0-.13c0-.27.18-.36.49-.33a.5.5,0,0,1,.13,0c.12,0,.13.12.05.22s-.07.17,0,.22l.13,0h.55a.26.26,0,0,0,.13.22.27.27,0,0,0,.26,0A.76.76,0,0,0,3,2.66a.24.24,0,0,0-.23-.12H2.45m-.35,1a.56.56,0,0,0,0-.12.58.58,0,0,0-.19-.19l-.12,0a.16.16,0,0,0-.08.24.27.27,0,0,0,.18.18.2.2,0,0,0,.25-.07M3.29,1.38a.24.24,0,0,0,.21-.1.22.22,0,0,0-.2-.12.18.18,0,0,0-.2.11.18.18,0,0,0,.19.11m.23,6c0-.12-.1-.12-.16,0l.08.09a.6.6,0,0,1,.08-.08m-.91-2-.07.09h.11ZM2.68,3.5a.46.46,0,0,0-.07-.07c-.11,0-.11.08,0,.14l.08-.07M1.29,3.22a.46.46,0,0,0-.07-.07c-.11,0-.11.08,0,.14l.08-.07M0,17.33a.31.31,0,0,0,.05.12c.06,0,.12,0,.13-.14a1.52,1.52,0,0,0,0-.67s0-.07-.08-.11a.75.75,0,0,0-.07.12,1.93,1.93,0,0,0,0,.42,2.46,2.46,0,0,0,0,.26m.2,2.76a2,2,0,0,0,0-.65s0-.07-.08-.11L0,19.42a.74.74,0,0,0,0,.39.53.53,0,0,0,0,.12.21.21,0,0,0,.21.14Z"/></g></g></svg>