<svg xmlns="http://www.w3.org/2000/svg" viewBox="0 0 29.24 29.29"><defs><style>.cls-1{fill:#aada91;}</style></defs><g id="Layer_2" data-name="Layer 2"><g id="Layer_1-2" data-name="Layer 1"><path class="cls-1" d="M10.17.05h6a1.3,1.3,0,0,1,.67.16A.29.29,0,0,0,17,.26h.13c1.12,0,2.24,0,3.35,0a.93.93,0,0,0,.4-.09A.79.79,0,0,1,21.37,0l.84,0a.78.78,0,0,1,.39.12.65.65,0,0,0,.26.08H23c1.12,0,2.23,0,3.35,0l.83,0a.93.93,0,0,0,.4-.12,1.17,1.17,0,0,1,.26-.1,2.64,2.64,0,0,1,.69,0A.7.7,0,0,1,29,.23a.25.25,0,0,1,.06.36A1.12,1.12,0,0,0,29,1V2.66a.67.67,0,0,0,.11.4,1.25,1.25,0,0,1,.12.54c0,1.3,0,2.6,0,3.9q0,3.27,0,6.55a1.1,1.1,0,0,1-.14.53L29,14.7a.71.71,0,0,0,0,.14c0,1.91,0,3.81,0,5.72a1.12,1.12,0,0,0,.13.39.59.59,0,0,1,.07.26c0,.65,0,1.3,0,1.95q0,2.58,0,5.16a4.1,4.1,0,0,1,0,.7.35.35,0,0,1-.15.22l-.27,0c-.28,0-.56,0-.84,0-.92,0-1.85,0-2.78-.05a1.08,1.08,0,0,1-.4-.11c-.26-.12-.26-.12-.39-.13l-1.11,0a1,1,0,0,1-.41-.1,1,1,0,0,0-.39-.13l-.69-.05a.86.86,0,0,1-.39-.13.48.48,0,0,0-.26-.09l-.69-.05a1,1,0,0,1-.4-.12.9.9,0,0,0-.39-.13l-.42,0A.64.64,0,0,1,19,28a1,1,0,0,0-.52-.15h-.14a1,1,0,0,1-.53-.16,1.06,1.06,0,0,0-.39-.13.79.79,0,0,1-.39-.13,1.28,1.28,0,0,0-.53-.15.64.64,0,0,1-.26-.1c-.19-.13-.43-.17-.63-.29a1.41,1.41,0,0,0-.24-.13,1.35,1.35,0,0,1-.38-.19,1.83,1.83,0,0,0-.24-.13,1.19,1.19,0,0,1-.25-.13c-.15-.11-.34-.13-.49-.24l-.33-.26a1.33,1.33,0,0,0-.37-.2l-.36-.21a3.17,3.17,0,0,1-.38-.17c-.15-.11-.34-.15-.49-.26l-.32-.26a1.2,1.2,0,0,0-.36-.22l-.12-.06-.12-.08-.52-.46a2.83,2.83,0,0,0-.47-.29,2.86,2.86,0,0,1-.43-.35,3,3,0,0,0-.43-.36A3.33,3.33,0,0,1,8.22,22l-.09-.1a.94.94,0,0,0-.1-.1,5.82,5.82,0,0,1-.46-.53c-.05-.07-.08-.16-.13-.24a.44.44,0,0,0-.08-.11l-.47-.51c-.23-.23-.47-.46-.69-.7a2.53,2.53,0,0,1-.68-.87.76.76,0,0,0-.08-.11l-.27-.32a2.11,2.11,0,0,1-.48-.67c-.08-.12-.16-.23-.25-.34A1.61,1.61,0,0,1,4.15,17a1.76,1.76,0,0,0-.32-.45,1.29,1.29,0,0,1-.22-.35.72.72,0,0,0-.14-.24,4.19,4.19,0,0,1-.26-.33c-.13-.19-.22-.41-.34-.61s-.13-.34-.24-.5-.19-.41-.32-.61-.14-.34-.24-.5A1.09,1.09,0,0,1,2,13a1,1,0,0,0-.14-.39,1,1,0,0,1-.14-.38,1.24,1.24,0,0,0-.18-.52.67.67,0,0,1-.09-.26,1.23,1.23,0,0,0-.17-.53.89.89,0,0,1-.12-.39A1.29,1.29,0,0,0,.93,10,.57.57,0,0,1,.85,9.7c0-.19,0-.37,0-.56a1.06,1.06,0,0,0-.16-.52.5.5,0,0,1-.08-.26c0-.14,0-.28,0-.42a1,1,0,0,0-.12-.39,1.11,1.11,0,0,1-.13-.4c0-.37,0-.74,0-1.11s0-.74,0-1.11a1.27,1.27,0,0,0,0-.28A1.19,1.19,0,0,0,.09,4.4.78.78,0,0,1,0,4a.76.76,0,0,1,.13-.39.45.45,0,0,0,0-.52C.05,3,.05,2.94.17,2.72a1,1,0,0,0,.07-.41.48.48,0,0,0-.07-.26A1,1,0,0,1,0,1.39c0-.28,0-.56,0-.84A.28.28,0,0,1,.18.35,3,3,0,0,1,.6.31l2.64,0A.6.6,0,0,0,3.51.2.67.67,0,0,1,3.63.14.56.56,0,0,1,3.9.06H5c1.72,0,3.44,0,5.16,0ZM24.78,27.1v-.49c0-.16-.07-.32-.16-.35a.59.59,0,0,0-.39,0,.24.24,0,0,0-.2.39c0,.08.13.11.21.15s.19.09.26.28a.31.31,0,0,0,.16.19c.11-.09.12-.22.12-.14m1-.53a.2.2,0,0,0-.12.18.26.26,0,0,0,.11.21.24.24,0,0,0,.12-.19.19.19,0,0,0-.11-.2m-1.4-1.27.06-.09h-.1Zm-.54-.41-.06.09h.1Zm2.23-4.18-.06.08.1,0Zm.06-1.87c0-.11-.08-.11-.15,0s.05.06.08.07.05,0,.07-.05m.28-1.4c0-.1-.08-.11-.14,0l.07.08a.46.46,0,0,1,.07-.07m-.56-.84-.09-.06v.1Zm-2.29-1.19-.07.09h.11ZM6.12,20.62v.14a.75.75,0,0,0,.13.38c.15.17.3.34.46.5a.33.33,0,0,0,.24.1H7a.63.63,0,0,0-.14-.5l-.47-.49a.3.3,0,0,0-.24-.11ZM9.47,24a.23.23,0,0,0,.12.19l.06-.06a.31.31,0,0,0-.2-.11Zm-.28-.28a.32.32,0,0,0,.17.25l.11,0,0,0a.34.34,0,0,0-.28-.28Zm0,0a.24.24,0,0,0-.13-.2L9,23.58a.25.25,0,0,0,.21.11ZM7.52,22.29a.2.2,0,0,0,.12.2l.06-.07a.21.21,0,0,0-.2-.1Zm0,0a.3.3,0,0,0-.07-.21A.24.24,0,0,0,7.22,22h0c0,.19.09.25.29.27ZM7,21.74c0,.2.09.26.28.28h0a.24.24,0,0,0-.07-.2.22.22,0,0,0-.2-.08Zm-1.1-1.4a.32.32,0,0,0,.08.21.22.22,0,0,0,.19.07l0,0a.28.28,0,0,0-.27-.28Zm0,0a.24.24,0,0,0-.12-.21l-.07.06a.2.2,0,0,0,.21.12Z"/></g></g></svg>