<svg xmlns="http://www.w3.org/2000/svg" viewBox="0 0 29.25 29.54"><defs><style>.cls-1{fill:#008375;}</style></defs><g id="Layer_2" data-name="Layer 2"><g id="Layer_1-2" data-name="Layer 1"><path class="cls-1" d="M28.4,4.74a.65.65,0,0,1,0-.13.23.23,0,0,1,.22-.13.32.32,0,0,1,.14,0,.34.34,0,0,1,.15.22c0,.13,0,.27.06.41s.09.16.13.24a.52.52,0,0,1,.06.13.61.61,0,0,1,0,.14c0,.6,0,1.2,0,1.81,0,2.32,0,4.64-.05,7a1,1,0,0,1-.12.39.89.89,0,0,0-.09.26c0,.1,0,.19,0,.28,0,1.49,0,3,0,4.46,0,1.71,0,3.43,0,5.15v3.9c0,.13,0,.27,0,.41a.3.3,0,0,1-.29.25l-.13,0H21.7l-5.15,0c-.41,0-.83,0-1.25,0l-.13,0c-.32-.08-.32-.08-.51,0a.47.47,0,0,1-.4,0,1.16,1.16,0,0,0-.53-.15H12.9l-3.07,0a.88.88,0,0,1-.39-.11A.87.87,0,0,0,9,29H8.62c-.92,0-1.85,0-2.78,0h-.7a.79.79,0,0,1-.4-.1,1,1,0,0,0-.52-.14c-.23,0-.47,0-.7,0-1.11,0-2.23,0-3.34,0A.36.36,0,0,1,0,28.45a.32.32,0,0,1,0-.14c0-.88,0-1.76,0-2.64A.65.65,0,0,1,.1,25.4a1.41,1.41,0,0,0,.13-.24,1.32,1.32,0,0,0,0-.28V22a1,1,0,0,0-.14-.53A.5.5,0,0,1,0,21.16c0-.92,0-1.85,0-2.78a.5.5,0,0,1,.08-.26.93.93,0,0,0,.12-.39c0-.28,0-.56,0-.84,0-1.25,0-2.5,0-3.76a.9.9,0,0,1,.13-.39.59.59,0,0,0,.07-.26,1,1,0,0,0-.06-.41c-.09-.2-.09-.21,0-.51a.65.65,0,0,0,0-.13c0-.19,0-.37,0-.56,0-1.11,0-2.22,0-3.34,0-.41,0-.83,0-1.25s0-1.11,0-1.67c0-1.39,0-2.78,0-4.18C.57.15.7,0,1,0H4.75L7.39,0a.91.91,0,0,1,.4.1.81.81,0,0,0,.39.12h.56l6.13,0h1c.88,0,1.76,0,2.64,0A1,1,0,0,1,19,.46a.77.77,0,0,0,.26.07l2.23,0,.69,0a.93.93,0,0,1,.4.12.61.61,0,0,0,.26.08l.7,0,3.61.05a.88.88,0,0,1,.4.1,1,1,0,0,0,.54.13,2.48,2.48,0,0,1,.27,0,.36.36,0,0,1,.24.13.4.4,0,0,1-.05.39,1.19,1.19,0,0,1-.46.3c-.18.07-.18.08-.27.29a1,1,0,0,1-.22.35c-.17.16-.33.33-.49.49a.35.35,0,0,0,0,.38.27.27,0,0,0,.23.14l.28,0a.37.37,0,0,1,.22.14.65.65,0,0,1,0,.13,1.8,1.8,0,0,0-.4,0,.76.76,0,0,0-.08.11s.05.08.09.09a.28.28,0,0,0,.25,0,.26.26,0,0,0,.12-.23.36.36,0,0,1,.29.36s0,.09,0,.13a.34.34,0,0,0,.06.24.28.28,0,0,0,.22.11.21.21,0,0,0,.12.22l.07-.08a.19.19,0,0,0-.21-.12M5.27,16.7a.21.21,0,0,0,.22-.12.3.3,0,0,1-.08-.08.21.21,0,0,0-.12.22.21.21,0,0,0-.23.12l.08.08a.19.19,0,0,0,.13-.22m5.31,1.14a.23.23,0,0,0-.22.12.25.25,0,0,0,0,.25s.06.07.09.1a.23.23,0,0,0,.13-.22,2.43,2.43,0,0,1,0-.27.21.21,0,0,0,.23-.12l-.09-.09a.21.21,0,0,0-.12.23m-1.39-2v.29a.42.42,0,0,0-.26.1c-.17.13-.17.13-.35,0a.88.88,0,0,0-.39-.11c-.32,0-.65,0-1,0l-.13,0L6.85,16a.29.29,0,0,0-.23.12.6.6,0,0,0-.16.22.75.75,0,0,0,.07.12c.15.21.16.34,0,.63-.06.09,0,.15.09.2l.69.05a.29.29,0,0,1,.17.19.21.21,0,0,1-.07.25.41.41,0,0,1-.11.07.26.26,0,0,0-.23.14c0,.07.09.14.31.16a.76.76,0,0,1,.27.06c.1,0,.12.12.11.23a.25.25,0,0,1-.12.22.58.58,0,0,1-.14.05c-.22.06-.37.26-.61.3a.29.29,0,0,0-.12.07,1.68,1.68,0,0,0-.21.18c-.09.09-.09.17,0,.22s.26.09.38.17.19.13.35,0a1,1,0,0,1,.53-.12.19.19,0,0,0,.13.22L8,19.63a.21.21,0,0,0-.23-.12.49.49,0,0,1,.12-.25,1.1,1.1,0,0,0,.2-.35c.07-.21.23-.26.44-.16l.24.12L9,18.73l.13-.05a.86.86,0,0,0,.36-.2.6.6,0,0,0,.16-.22l-.05-.12a1.41,1.41,0,0,1-.18-.37.33.33,0,0,0-.32-.21H8.27a.83.83,0,0,1-.27,0,.27.27,0,0,1-.19-.18.89.89,0,0,0-.29-.46c-.07-.07-.12-.14-.18-.21s0-.18.08-.2a.72.72,0,0,1,.54.05,1.52,1.52,0,0,0,.5.23l.35.22a1.49,1.49,0,0,1,.49.24.29.29,0,0,0,.27,0c.11,0,.11-.11,0-.21a1,1,0,0,1-.17-.38l-.22-.35a.65.65,0,0,1,0-.13h.27A.23.23,0,0,0,9.66,16a.23.23,0,0,0-.22-.13H9.17v-.3a.26.26,0,0,0,.23-.12.5.5,0,0,0,0-.13.21.21,0,0,0-.11-.23.23.23,0,0,0-.13.22v.28H8.91a.23.23,0,0,0-.22.13.23.23,0,0,0,.22.13h.28M3.88,7a1.11,1.11,0,0,0-.26,0,.25.25,0,0,0-.22.13.23.23,0,0,0,.22.13,2.43,2.43,0,0,1,.27,0,.61.61,0,0,1,0,.13l-.07.11c-.12.14-.26.26-.38.4a.32.32,0,0,0,.12.45c.08,0,.18,0,.23.13s0,.14,0,.23,0,.08,0,.12a.22.22,0,0,0,.24.08.46.46,0,0,0,.24-.1l.38-.39c.07-.08.11-.16.07-.22a.23.23,0,0,0-.24-.09H4.22c-.21,0-.33-.06-.16-.33a.34.34,0,0,0,0-.37.26.26,0,0,0-.23-.12.94.94,0,0,0,0-.29.18.18,0,0,0,.2-.1c0-.08,0-.12-.1-.09s-.1.1-.1.19M18.09,5.58A.21.21,0,0,0,18,5.37l-.08.07a.24.24,0,0,0,.22.12.53.53,0,0,0,0,.12.28.28,0,0,0,.31.14c.09,0,.14-.09.1-.15a.11.11,0,0,0-.09-.07,1.15,1.15,0,0,0-.37,0M5.54,19.21A.63.63,0,0,0,6,18.92.45.45,0,0,0,6,18.8c0-.09-.11-.11-.21-.1a.22.22,0,0,0-.21.13,1.09,1.09,0,0,0,0,.4.22.22,0,0,0-.22.12l.08.07a.19.19,0,0,0,.11-.21M3.59,6.11l.14,0L4,6.31a.54.54,0,0,0,.39.07.31.31,0,0,0,.25-.08l.09-.11c0-.31,0-.64,0-1a.91.91,0,0,1,.16-.52c.07-.1.08-.17,0-.21a.3.3,0,0,0-.26,0,.86.86,0,0,0-.3.27.37.37,0,0,0-.1.25,2.61,2.61,0,0,1,0,.28A.19.19,0,0,0,4,5.38a.1.1,0,0,0,0,.09.22.22,0,0,0,.2.09.32.32,0,0,1-.23.26l-.12,0a.33.33,0,0,0-.21.27H3.34A.46.46,0,0,1,3,5.93a.89.89,0,0,1-.23-.34.42.42,0,0,0,0-.12s-.07-.06-.1-.1a.43.43,0,0,0-.09.1.68.68,0,0,0,.08.63l.21.18a.69.69,0,0,0,.64,0,.22.22,0,0,0,.12-.22M6.4,10.85l-.27,0a.37.37,0,0,0-.25.1,1.82,1.82,0,0,1-.23.15l-.4,0a.39.39,0,0,0-.11.06.16.16,0,0,0,0,.09l.1.09a5.49,5.49,0,0,0,.81,0,.46.46,0,0,1,.26.06.31.31,0,0,1,.14.22.24.24,0,0,0-.2.07.26.26,0,0,0-.08.21.34.34,0,0,0-.24.09l-.4.36a.53.53,0,0,1-.24.11.24.24,0,0,0-.19.17.31.31,0,0,0,0,.25.9.9,0,0,0,.51.41.29.29,0,0,1,.24.28l0,0a.61.61,0,0,0-.35.21.76.76,0,0,0-.17.22.75.75,0,0,1,.07.12.78.78,0,0,1,.16.52,2.46,2.46,0,0,1,0,.28.49.49,0,0,0,.17.36.47.47,0,0,0,.1.1.75.75,0,0,0,.65.11l.24-.14A.6.6,0,0,1,7,15.31c.11,0,.15-.11.1-.17A.26.26,0,0,0,7,15.07L6.7,15c-.19,0-.24-.08-.27-.24s0-.2.11-.24a.4.4,0,0,1,.38,0,.37.37,0,0,0,.12.07c.09,0,.16,0,.24-.1a.89.89,0,0,0,.16-.22.54.54,0,0,0-.07-.13c-.07-.09-.08-.17,0-.23a.33.33,0,0,1,.26,0c.43.21.28.26.66-.12l.1-.1c.18-.2.19-.2.1-.35s-.08-.16-.13-.24A.46.46,0,0,0,8,12.79a.37.37,0,0,1-.2-.33,3.51,3.51,0,0,1,0-.56l.08-.11a.48.48,0,0,1,.24-.11.32.32,0,0,0,.1-.1.17.17,0,0,0-.17-.14,2.66,2.66,0,0,0-.28,0,.25.25,0,0,1-.2-.15A2.72,2.72,0,0,0,7.7,11a.73.73,0,0,0-.08-.09c-.08-.05-.18,0-.39.07s-.18.08-.23,0a.3.3,0,0,1,0-.26.47.47,0,0,1,.07-.12c.08-.1.08-.17,0-.22l-.12,0a.8.8,0,0,0-.41,0c-.1,0-.12.08-.15.36a.66.66,0,0,0,0,.14Zm-2.11,5.5.1-.08a2.47,2.47,0,0,1,.24-.49c0-.14-.11-.23-.16-.35a.22.22,0,0,1,0-.14.61.61,0,0,1,0-.13,1.39,1.39,0,0,0,.19-.36,1.33,1.33,0,0,0,0-.28,1,1,0,0,1,.17-.37c.05-.09,0-.16-.09-.2a1.08,1.08,0,0,1-.65-.17.39.39,0,0,0-.25-.1.26.26,0,0,0-.25.08.23.23,0,0,1-.24.07.43.43,0,0,1-.21-.17c-.11-.14-.09-.21.1-.28a.93.93,0,0,0,.44-.31q.15-.15,0-.21a.74.74,0,0,0-.53,0,.36.36,0,0,0-.12.08,1.23,1.23,0,0,1-.68.45c-.07.06-.15.11-.21.17a.59.59,0,0,0-.23.49,2.43,2.43,0,0,0,0,.27.67.67,0,0,0,.1.39c.19.3.19.31,0,.63L2,15.47a.31.31,0,0,0,.23.12h.14c.2,0,.33.1.29.17a.34.34,0,0,1-.23.13s-.07,0-.11.08,0,.14.15.15A.7.7,0,0,0,3,16.05c.17-.11.17-.11.36,0a.2.2,0,0,0,.25,0,1,1,0,0,0,.29-.46c0-.11.1-.15.17-.1a.16.16,0,0,1,.07.11c0,.22,0,.46.06.68l.09.11m3.14,3.84a.29.29,0,0,0-.22-.12.8.8,0,0,1-.52-.13c-.13-.11-.24-.06-.36,0a.18.18,0,0,1-.24,0c-.09-.09-.17-.08-.21,0a.3.3,0,0,0,0,.26s.07.06.1.09c.28.05.47.3.74.34l.1.1a.34.34,0,0,1-.08.09.88.88,0,0,1-.39.08.2.2,0,0,0-.19.14.52.52,0,0,0,.06.13l.2.18a.35.35,0,0,0,.38,0,.91.91,0,0,0,.21-.18,1.14,1.14,0,0,1,.57-.36l.08-.1-.09-.1-.13,0c-.11,0-.18-.09-.16-.16a1.45,1.45,0,0,1,.11-.26m-4-17.7L3,2.51a1.24,1.24,0,0,0-.27,0,.3.3,0,0,0-.21.15,2.42,2.42,0,0,1-.18.36c-.07.1-.08.18,0,.23a.3.3,0,0,0,.26,0c.12,0,.24-.13.36-.19a.81.81,0,0,1,.53,0l.23.14A1.79,1.79,0,0,1,4,3.15a.26.26,0,0,1,.24.06.35.35,0,0,0,.11,0A.17.17,0,0,0,4.41,3a.71.71,0,0,0-.23-.33.47.47,0,0,0-.35-.17l-.4,0M4,16.72l-.34,0a.42.42,0,0,0-.12,0,.21.21,0,0,0-.13.22.2.2,0,0,0,.12.21.71.71,0,0,0,.74-.14,1.07,1.07,0,0,0,.15-.22A.51.51,0,0,0,4,16.72m4.57-1.94H8.14a.62.62,0,0,0-.47.25.17.17,0,0,0-.06.11c0,.08,0,.14.15.16a.71.71,0,0,0,.53-.09A.94.94,0,0,1,8.65,15c.11,0,.16-.09.13-.16a.12.12,0,0,0-.1-.08c-.09,0-.18,0-.16,0m.66-1.93a.2.2,0,0,0-.13,0C9,12.92,9,13,9,13.09a1,1,0,0,1,.13.23c.11.27.11.28.23.21a.64.64,0,0,0,.27-.29l-.06-.11c-.12-.13-.23-.28-.43-.28m-4-3.37H4.78c-.1,0-.19,0-.23.12s.14.15.31.15h.28c.2,0,.34-.07.3-.15a.21.21,0,0,0-.24-.1M8.52,20.34a.47.47,0,0,1-.12,0,.28.28,0,0,0-.24.11.31.31,0,0,0,.11.23l.1.09c.08.09.15.08.24,0s.22-.26.18-.33a.24.24,0,0,0-.27-.1M2.69,8.52a.31.31,0,0,0-.07-.09.23.23,0,0,0-.23,0,.32.32,0,0,0-.14.2c0,.1,0,.17.07.22a.35.35,0,0,0,.21-.1.74.74,0,0,0,.16-.2M28.86,5.68l-.09-.09a.3.3,0,0,0-.23,0c-.07.06-.05.13.05.18a.23.23,0,0,0,.23-.05.25.25,0,0,0,0-.09M5.24,2.26A.21.21,0,0,0,5.15,2s-.08.05-.1.09a.29.29,0,0,0,0,.13c0,.11.06.15.14.13a.67.67,0,0,0,.06-.12M3.52,2.12a.25.25,0,0,0,0-.09A.2.2,0,0,0,3.24,2c-.11.05-.14.12-.07.18a.28.28,0,0,0,.25.06.43.43,0,0,0,.1-.09M6,8.44l-.11,0a.22.22,0,0,0-.24.09s.05.08.09.1a.21.21,0,0,0,.24,0s0-.06,0-.1m-.54,7.34s0-.07,0-.09a.2.2,0,0,0-.22,0c-.11,0-.13.1-.07.16a.23.23,0,0,0,.23,0l.09-.06M5,17.58c-.1,0-.15.06-.13.13a.14.14,0,0,0,.08.09.23.23,0,0,0,.22-.05.25.25,0,0,0,0-.09A.17.17,0,0,0,5,17.58M3.4,3.74l.09.06V3.7Zm-.49.5-.06.09H3Zm.84.54-.09.08c0,.12.1.13.17,0l-.08-.09m1.74.37-.06-.08c-.11,0-.12.09,0,.15l.08-.07M28,5.08l-.06.09H28ZM2.64,7.31l-.08.06c0,.11.08.11.14,0l-.06-.07M2.9,9.68c.11,0,.11-.09,0-.15l-.08.07a.27.27,0,0,0,.07.08m-.75.5c0-.11-.09-.11-.15,0l.07.07.08-.06m1.6.47-.08.06c0,.11.09.11.15,0l-.07-.08m4.8.37c0-.11-.08-.12-.14,0l.06.08L8.55,11M4.29,12.19c.12,0,.12-.09,0-.15l-.08.07.07.08M5.14,12l-.08.07c0,.11.09.11.15,0L5.14,12m4.45.42c.11,0,.11-.08,0-.14l-.08.07.07.07m-7.51.41L2,12.94c0,.12.1.12.16,0a.27.27,0,0,1-.07-.08m6.47,1.49c0-.11-.08-.12-.14,0l.07.08.07-.06m1.31.06c.11,0,.11-.09,0-.15l-.07.07.06.08m.56,1.39.06-.09h-.1ZM10,17.7c0-.1-.09-.11-.15,0l.07.07L10,17.7m-1.4,2.23c0-.11-.08-.11-.14,0l.06.08.08-.07m.77.2-.06.09h.11Zm-2,2.09c.11,0,.11-.09,0-.14l-.08.06.07.08m-1,.5c0-.11-.09-.12-.15,0l.07.08a.27.27,0,0,1,.08-.07M28.75,4l.07.08.07-.06c0-.12-.08-.12-.14,0M6.12,12.82l0,0h.58l0,0c0-.13,0-.27,0-.4a.8.8,0,0,1,0-.27,1,1,0,0,1,.13-.23c.1-.15.11-.31,0-.37s-.15,0-.23,0a.37.37,0,0,1-.25.09c0,.2-.08.25-.28.28l0,.85m-.28.82a.32.32,0,0,0,.26.27.82.82,0,0,0,.27,0,.35.35,0,0,0,.23-.12.32.32,0,0,0-.23-.13,3.37,3.37,0,0,0-.55,0Zm.56-2.79a.2.2,0,0,0,.12.22A.3.3,0,0,0,6.6,11a.2.2,0,0,0-.22-.12Zm-.28,2a.21.21,0,0,0-.22.12L6,13a.2.2,0,0,0,.12-.22Zm.56,0a.21.21,0,0,0,.11.22L6.87,13a.21.21,0,0,0-.21-.13Zm1.16.71.08.09L8,13.52c0-.12-.1-.12-.17,0M6,14.83c-.11,0-.11.09,0,.15l.08-.07L6,14.83m3.07,3.08a.21.21,0,0,0-.12.19.2.2,0,0,0,.11.2.16.16,0,0,0,.11-.18.25.25,0,0,0-.1-.21M8.4,18c0,.11.09.11.15,0l-.07-.08L8.4,18M4.35,5.48a.09.09,0,0,0,0-.1.21.21,0,0,0-.2-.1v.3a.21.21,0,0,0,.2-.1"/></g></g></svg>