<svg xmlns="http://www.w3.org/2000/svg" viewBox="0 0 29.49 29.78"><defs><style>.cls-1{fill:#870f54;}</style></defs><g id="Layer_2" data-name="Layer 2"><g id="Layer_1-2" data-name="Layer 1"><path class="cls-1" d="M7.65,0h7.23a1.14,1.14,0,0,1,.54.14.46.46,0,0,0,.26.07c1.39,0,2.78.06,4.18.06H21c.6,0,1.21,0,1.81,0a1,1,0,0,1,.39.12.89.89,0,0,0,.26.09c.8,0,2.91,0,3.76,0a.78.78,0,0,0,.4-.12,1.55,1.55,0,0,1,.53-.15.6.6,0,0,0,.25-.1c.21-.12.21-.12.36,0L29,.46c.11.08.26.1.37.18a.21.21,0,0,1,.07.25.62.62,0,0,1-.11.25.7.7,0,0,0-.1.4c0,.19,0,.37,0,.56s0,.46,0,.69c0,.47,0,.93,0,1.39s0,.84,0,1.26,0,.74,0,1.11c0,.09,0,.18,0,.28a1.3,1.3,0,0,1-.16.8.84.84,0,0,0,.09.25.82.82,0,0,1,.06.41c0,.56,0,1.11,0,1.67a.85.85,0,0,1-.12.39c-.1.21-.09.27,0,.52a.21.21,0,0,1,0,.26,1,1,0,0,0-.13.53l0,2.09c0,.28,0,.56,0,.84a1,1,0,0,1-.14.53.46.46,0,0,0-.07.26c0,.51,0,1,0,1.53,0,.79,0,1.58,0,2.37,0,2.23,0,4.45,0,6.68a1,1,0,0,0,.13.53.84.84,0,0,1,.08.41c0,.74,0,1.48,0,2.22a.59.59,0,0,1,0,.14.3.3,0,0,1-.14.22l-.28,0c-.23,0-.46,0-.7,0-.78,0-1.57,0-2.36,0a.9.9,0,0,0-.39.13.77.77,0,0,1-.4.1.7.7,0,0,1-.4-.1,1,1,0,0,0-.38-.14l-.42,0a.48.48,0,0,1-.26-.07L23,29.31l-.42,0a.78.78,0,0,1-.52-.15,1.14,1.14,0,0,0-.39-.14,1.33,1.33,0,0,1-.52-.17.5.5,0,0,0-.26-.08c-.14,0-.28,0-.42,0a.92.92,0,0,1-.39-.14.58.58,0,0,0-.26-.09l-.41-.05a.92.92,0,0,1-.4-.11,1,1,0,0,0-.53-.14c-.23,0-.46,0-.69,0a1.14,1.14,0,0,1-.52-.17.45.45,0,0,0-.26-.09c-.14,0-.28,0-.42,0a.74.74,0,0,1-.49-.22c-.3-.27-.25-.26-.6-.32a1.07,1.07,0,0,1-.39-.14,1.15,1.15,0,0,0-.25-.12,1,1,0,0,1-.47-.28.43.43,0,0,0-.1-.09L14,26.51a6,6,0,0,1-.62-.32.85.85,0,0,1-.25-.13l-.21-.17a1.55,1.55,0,0,0-.48-.28c-.18-.06-.31-.2-.49-.26s-.32-.19-.49-.26a1.38,1.38,0,0,1-.35-.22l-.42-.37a1.74,1.74,0,0,0-.46-.3A.6.6,0,0,1,10,24c-.21-.18-.41-.37-.61-.57a1.61,1.61,0,0,0-.57-.39L8.73,23a4.94,4.94,0,0,1-.7-.67A1.32,1.32,0,0,1,7.8,22a.7.7,0,0,0-.15-.23c-.31-.35-.63-.68-1-1a2.06,2.06,0,0,1-.31-.46.69.69,0,0,0-.16-.22l-.57-.61a1.54,1.54,0,0,1-.38-.57c-.06-.08-.1-.16-.16-.23l-.46-.53a.7.7,0,0,1-.15-.23c-.07-.17-.2-.31-.27-.48a2,2,0,0,0-.37-.59.82.82,0,0,1-.16-.22A3.6,3.6,0,0,0,3.38,16a1.11,1.11,0,0,0-.28-.48,1.75,1.75,0,0,1-.34-.59c-.14-.2-.2-.43-.32-.62s-.18-.43-.31-.62A1.4,1.4,0,0,1,2,13.15a.59.59,0,0,0-.1-.26c-.15-.24-.21-.52-.36-.75a.77.77,0,0,1-.07-.27.93.93,0,0,0-.12-.39A1.23,1.23,0,0,1,1.13,11,.62.62,0,0,0,1,10.69c-.16-.23-.23-.5-.37-.74a.69.69,0,0,1-.05-.13l0-.56,0-.69a.86.86,0,0,0,0-.28A1.92,1.92,0,0,0,.41,8a.79.79,0,0,1-.1-.4c0-.37,0-.74,0-1.11a1,1,0,0,0-.12-.39,1,1,0,0,1-.1-.4C0,4.11,0,2.49,0,.87,0,.63,0,.4,0,.17A.46.46,0,0,1,.27,0L.55,0H2.22L7.65,0Zm18,14.44c0,.16,0,.23.21.26s.23,0,.25-.2,0-.23-.2-.25-.23,0-.26.19m1,3.63c0-.09-.05-.14-.13-.14s-.08.05-.09.08a.26.26,0,0,0,0,.23.2.2,0,0,0,.08,0,.16.16,0,0,0,.09-.21m-2.33.1-.06.08.1,0Zm1.39-1.69-.09.06c.05.12.1.12.17,0a.6.6,0,0,0-.08-.08m.07-.75-.06-.08c-.1,0-.11.09,0,.15a.46.46,0,0,1,.07-.07m-4.18-1.39-.07-.07c-.11,0-.11.07,0,.13l.08-.06M7.25,22.58a.63.63,0,0,0-.14-.5l-.74-.79a.3.3,0,0,0-.24-.1h0a.57.57,0,0,0,0,.13.65.65,0,0,0,.13.38,6.82,6.82,0,0,0,.74.78.33.33,0,0,0,.25.1ZM5.59,20.33c0,.08,0,.16,0,.24a.36.36,0,0,0,.07.22.28.28,0,0,0,.2.1l0,0a.82.82,0,0,0,0-.27.32.32,0,0,0-.26-.28ZM10,24.81a.33.33,0,0,0-.28-.25.88.88,0,0,0-.28,0l0,0a.32.32,0,0,0,.33.27h.23ZM5.29,20.08a.25.25,0,0,0-.11-.22l-.08.07a.19.19,0,0,0,.21.12Zm.28.28a.33.33,0,0,0-.28-.28l0,0a.35.35,0,0,0,0,.11.27.27,0,0,0,.25.17Zm4.76,4.71a.21.21,0,0,0,.12.2.46.46,0,0,0,.07-.07.27.27,0,0,0-.21-.11Zm0,0a.3.3,0,0,0-.28-.28l0,0a.22.22,0,0,0,.08.2.28.28,0,0,0,.2.08Zm-.84-.55a.24.24,0,0,0-.08-.2.28.28,0,0,0-.2-.08l0,0a.29.29,0,0,0,.27.27ZM8.94,24a.25.25,0,0,0,.17.25.35.35,0,0,0,.11,0l0,0A.3.3,0,0,0,8.92,24Zm0,0a.25.25,0,0,0-.14-.2l-.06.08a.23.23,0,0,0,.22.1ZM8.1,23.4a.21.21,0,0,0,.13.21l.07-.08a.22.22,0,0,0-.22-.11Zm0,0c0-.19-.07-.25-.28-.28l0,0c0,.19.09.24.28.28Zm-.54-.58a.31.31,0,0,0,.28.28l0,0A.27.27,0,0,0,7.72,23a.26.26,0,0,0-.2-.08Zm-.28-.27a.27.27,0,0,0,.18.25l.1,0,0,0a.3.3,0,0,0-.07-.21.22.22,0,0,0-.2-.08ZM6.13,21.19A.24.24,0,0,0,6.05,21a.21.21,0,0,0-.2-.07l0,0a.31.31,0,0,0,.07.21.24.24,0,0,0,.2.08Z"/></g></g></svg>