<svg xmlns="http://www.w3.org/2000/svg" viewBox="0 0 29.25 29.54"><defs><style>.cls-1{fill:#45c2b1;}</style></defs><g id="Layer_2" data-name="Layer 2"><g id="Layer_1-2" data-name="Layer 1"><path class="cls-1" d="M.86,24.8c0,.05,0,.09,0,.13a.23.23,0,0,1-.22.13s-.1,0-.13,0a.28.28,0,0,1-.15-.22c0-.14,0-.28-.07-.41a1.19,1.19,0,0,0-.13-.25.61.61,0,0,1,0-.12.36.36,0,0,1,0-.14c0-.61,0-1.21,0-1.81,0-2.32,0-4.64.06-7a.92.92,0,0,1,.11-.4.62.62,0,0,0,.09-.26c0-.09,0-.18,0-.28,0-1.48,0-3,0-4.45V.7a3,3,0,0,1,0-.42A.31.31,0,0,1,.59,0H.73L2.12,0H7.55L12.7,0c.42,0,.84,0,1.25,0a.35.35,0,0,1,.14,0c.31.07.31.07.51,0a.56.56,0,0,1,.4,0,1,1,0,0,0,.52.15h.84l3.06,0a1.15,1.15,0,0,1,.4.12c.24.1.25.11.39.11h.42c.93,0,1.85,0,2.78,0h.7a.78.78,0,0,1,.4.09A1.08,1.08,0,0,0,25,.84h.69c1.11,0,2.23,0,3.34,0a.39.39,0,0,1,.17.21.57.57,0,0,1,0,.13c0,.88,0,1.77,0,2.65a.5.5,0,0,1-.08.26,1.15,1.15,0,0,0-.12.25.83.83,0,0,0,0,.27c0,1,0,2,0,2.93a1,1,0,0,0,.13.53.5.5,0,0,1,.08.26c0,.93,0,1.86,0,2.78a.7.7,0,0,1-.08.27.86.86,0,0,0-.13.39c0,.28,0,.55,0,.83,0,1.26,0,2.51-.06,3.76a.76.76,0,0,1-.13.39.64.64,0,0,0-.07.27.91.91,0,0,0,.06.4c.1.21.09.21,0,.51a.93.93,0,0,0,0,.13c0,.19,0,.38,0,.56,0,1.11,0,2.23,0,3.34,0,.42,0,.84,0,1.25s0,1.12,0,1.67c0,1.4,0,2.79,0,4.18a.38.38,0,0,1-.42.42H26.32c-.61,0-1.21,0-1.81,0-.89,0-1.77,0-2.65,0a1,1,0,0,1-.4-.1.88.88,0,0,0-.39-.11h-.56c-2,0-4.08,0-6.12-.05h-1l-2.64,0a1.08,1.08,0,0,1-.53-.14A.52.52,0,0,0,10,29C9.23,29,8.49,29,7.74,29l-.69,0a.94.94,0,0,1-.4-.13.57.57,0,0,0-.26-.08l-.69,0-3.62,0a.79.79,0,0,1-.4-.1,1.12,1.12,0,0,0-.53-.13,1.27,1.27,0,0,1-.28,0,.38.38,0,0,1-.24-.13.38.38,0,0,1,.06-.38,1.07,1.07,0,0,1,.45-.31c.18-.06.18-.07.27-.29A1,1,0,0,1,1.63,27c.17-.16.33-.33.49-.5a.37.37,0,0,0,0-.38A.29.29,0,0,0,1.93,26l-.27,0a.28.28,0,0,1-.22-.14.69.69,0,0,1-.05-.13,1.07,1.07,0,0,0,.4,0l.09-.1s-.06-.08-.1-.1a.28.28,0,0,0-.25,0,.23.23,0,0,0-.12.22.36.36,0,0,1-.29-.36.56.56,0,0,1,0-.13.37.37,0,0,0-.07-.23.28.28,0,0,0-.21-.12.21.21,0,0,0-.12-.21l-.08.07a.2.2,0,0,0,.22.12M24,12.84a.2.2,0,0,0-.22.12l.08.08a.2.2,0,0,0,.12-.22.2.2,0,0,0,.22-.12l-.08-.08a.2.2,0,0,0-.12.22M18.67,11.7a.26.26,0,0,0,.23-.12.31.31,0,0,0,0-.25s-.06-.06-.1-.09a.19.19,0,0,0-.12.21c0,.09,0,.18,0,.27a.19.19,0,0,0-.22.13.6.6,0,0,0,.08.08.19.19,0,0,0,.12-.23m1.4,2v-.29a.39.39,0,0,0,.25-.1c.17-.12.18-.13.35,0a.81.81,0,0,0,.39.12c.33,0,.65,0,1,0a.28.28,0,0,1,.13,0l.25.13a.31.31,0,0,0,.22-.11.87.87,0,0,0,.17-.22.75.75,0,0,1-.07-.12c-.16-.22-.17-.35,0-.63.06-.09,0-.16-.09-.2L22,12.24a.27.27,0,0,1-.17-.19.21.21,0,0,1,.07-.24.37.37,0,0,1,.12-.07.33.33,0,0,0,.23-.14c0-.07-.1-.14-.32-.17a.81.81,0,0,1-.27,0,.21.21,0,0,1-.11-.23.26.26,0,0,1,.13-.23l.13,0c.22-.07.38-.27.61-.31a.23.23,0,0,0,.12-.06l.21-.18c.09-.09.09-.17,0-.23s-.26-.09-.37-.17-.2-.12-.36,0a.9.9,0,0,1-.53.12.2.2,0,0,0-.12-.22l-.08.08a.19.19,0,0,0,.22.12.39.39,0,0,1-.12.25,1,1,0,0,0-.2.36c-.06.2-.23.25-.43.15l-.25-.12-.24.14-.12.06a.75.75,0,0,0-.36.2.62.62,0,0,0-.17.22.39.39,0,0,0,.06.11,1.84,1.84,0,0,1,.17.38.36.36,0,0,0,.33.21H21a1.18,1.18,0,0,1,.27,0,.28.28,0,0,1,.19.19,1,1,0,0,0,.29.46.91.91,0,0,1,.18.21c.06.09.05.17-.08.2a.78.78,0,0,1-.54-.05,1.49,1.49,0,0,0-.49-.24l-.36-.21a1.52,1.52,0,0,1-.49-.25.34.34,0,0,0-.26,0c-.12,0-.12.11,0,.22a1,1,0,0,1,.17.37l.22.35a.65.65,0,0,1,0,.13h-.27a.22.22,0,0,0-.21.13.2.2,0,0,0,.22.12h.26V14a.23.23,0,0,0-.22.12.65.65,0,0,0,0,.13.2.2,0,0,0,.11.23.24.24,0,0,0,.14-.22,2.43,2.43,0,0,1,0-.27h.27a.23.23,0,0,0,.22-.13.21.21,0,0,0-.22-.12h-.27m5.3,8.91a1.22,1.22,0,0,0,.27,0,.24.24,0,0,0,.21-.14.21.21,0,0,0-.22-.12h-.27l0-.13a.76.76,0,0,1,.08-.11c.12-.14.25-.26.37-.39a.33.33,0,0,0-.11-.46.5.5,0,0,1-.24-.12c0-.06,0-.14.06-.23s0-.08,0-.12a.21.21,0,0,0-.24-.09.41.41,0,0,0-.24.11l-.38.38c-.08.08-.11.16-.08.22a.22.22,0,0,0,.24.1.66.66,0,0,1,.14,0c.21,0,.33.06.16.32a.36.36,0,0,0,0,.38.31.31,0,0,0,.23.12.88.88,0,0,0,0,.28.19.19,0,0,0-.19.1c0,.08,0,.13.09.1a.18.18,0,0,0,.1-.2M11.17,24a.2.2,0,0,0,.12.21l.07-.08a.21.21,0,0,0-.21-.11s0-.09,0-.12a.28.28,0,0,0-.3-.15c-.1,0-.14.09-.11.15a.17.17,0,0,0,.09.08,2.36,2.36,0,0,0,.38,0M23.71,10.33a.63.63,0,0,0-.43.29.67.67,0,0,0-.06.12.18.18,0,0,0,.21.1c.1,0,.18,0,.21-.13a.9.9,0,0,0,.05-.4.19.19,0,0,0,.21-.11l-.07-.08a.2.2,0,0,0-.12.21m1.95,13.1-.13,0a1.88,1.88,0,0,1-.23-.16.67.67,0,0,0-.39-.07.31.31,0,0,0-.25.09l-.09.1c0,.32,0,.64,0,1a.93.93,0,0,1-.15.52c-.08.1-.08.17,0,.21a.34.34,0,0,0,.26,0,1,1,0,0,0,.3-.28.33.33,0,0,0,.1-.25v-.27a.21.21,0,0,0,.2-.09.14.14,0,0,0,0-.09.2.2,0,0,0-.2-.08.37.37,0,0,1,.23-.27l.12,0a.31.31,0,0,0,.21-.28l.27,0c.16,0,.19,0,.34.19a.86.86,0,0,1,.23.33.65.65,0,0,0,0,.13l.1.09a.76.76,0,0,0,.09-.09.67.67,0,0,0-.08-.63,1.62,1.62,0,0,0-.2-.18.66.66,0,0,0-.64-.06.25.25,0,0,0-.13.22m-2.8-4.74.27,0a.36.36,0,0,0,.24-.09c.07-.06.16-.1.23-.15l.41,0a.17.17,0,0,0,.11-.06.25.25,0,0,0,0-.09l-.1-.09a7.31,7.31,0,0,0-.81,0,.76.76,0,0,1-.26-.06.34.34,0,0,1-.14-.22.28.28,0,0,0,.2-.08.22.22,0,0,0,.08-.2.33.33,0,0,0,.24-.1l.41-.36A.48.48,0,0,1,24,17a.26.26,0,0,0,.19-.16.38.38,0,0,0,0-.26.82.82,0,0,0-.51-.4.32.32,0,0,1-.24-.29l0,0a.66.66,0,0,0,.35-.21.72.72,0,0,0,.17-.22l-.07-.12a.88.88,0,0,1-.16-.52c0-.1,0-.19,0-.28a.52.52,0,0,0-.17-.37l-.09-.1a.81.81,0,0,0-.66-.11l-.24.15a1.12,1.12,0,0,1-.25.11c-.12,0-.16.1-.11.16a.15.15,0,0,0,.12.07l.27,0c.2,0,.24.08.27.25s0,.2-.1.23a.37.37,0,0,1-.39-.05.37.37,0,0,0-.12-.07A.28.28,0,0,0,22,15a.6.6,0,0,0-.16.23.67.67,0,0,0,.06.12c.07.1.08.18,0,.23a.36.36,0,0,1-.27,0c-.42-.21-.28-.26-.66.12l-.09.1c-.19.19-.19.19-.11.34l.13.24a.46.46,0,0,0,.37.36.38.38,0,0,1,.2.34,5.06,5.06,0,0,1,0,.55.48.48,0,0,1-.09.11.6.6,0,0,1-.24.12s-.07.06-.1.09a.19.19,0,0,0,.18.15l.27,0a.22.22,0,0,1,.2.14l-.11.26s.05.07.09.09.17,0,.39-.08.18-.07.22,0a.3.3,0,0,1,0,.26.26.26,0,0,1-.07.11c-.08.1-.08.17,0,.22a.29.29,0,0,0,.13,0,.68.68,0,0,0,.4,0c.1-.05.12-.08.15-.37a.61.61,0,0,0,0-.14ZM25,13.2l-.09.07a2.06,2.06,0,0,1-.25.49c0,.14.11.24.16.36a.19.19,0,0,1,0,.13.28.28,0,0,1,0,.13,1.3,1.3,0,0,0-.19.37,1.24,1.24,0,0,0,0,.27,1,1,0,0,1-.17.37c-.05.1,0,.16.09.2a1.14,1.14,0,0,1,.65.18.49.49,0,0,0,.25.1.31.31,0,0,0,.26-.08.21.21,0,0,1,.23-.08.52.52,0,0,1,.22.17c.11.14.08.22-.11.29a.81.81,0,0,0-.44.31c-.09.1-.09.16,0,.21a.72.72,0,0,0,.54,0,.41.41,0,0,0,.11-.07c.2-.19.38-.42.68-.45l.22-.18a.61.61,0,0,0,.22-.48c0-.09,0-.19,0-.28a.77.77,0,0,0-.11-.39c-.19-.3-.18-.3,0-.62a.75.75,0,0,0,.06-.13A.33.33,0,0,0,27,14h-.14c-.2,0-.33-.09-.29-.17a.34.34,0,0,1,.24-.13s.07-.05.1-.08,0-.13-.15-.15a.72.72,0,0,0-.53.09c-.16.11-.17.11-.36,0a.17.17,0,0,0-.24,0,1,1,0,0,0-.3.46c0,.12-.1.15-.17.11s-.07-.07-.07-.11c0-.23,0-.46-.06-.69L25,13.2M21.82,9.35a.32.32,0,0,0,.22.13.85.85,0,0,1,.52.12c.13.11.24.06.36,0a.19.19,0,0,1,.24,0c.1.09.18.08.21,0a.3.3,0,0,0,0-.26.45.45,0,0,0-.1-.09c-.28-.05-.46-.29-.74-.34l-.1-.1a.73.73,0,0,1,.08-.09,1.06,1.06,0,0,1,.4-.08.21.21,0,0,0,.19-.14A.47.47,0,0,0,23,8.37l-.19-.19a.39.39,0,0,0-.39,0,1.18,1.18,0,0,0-.21.18,1.18,1.18,0,0,1-.56.37l-.09.09a.32.32,0,0,0,.1.1.4.4,0,0,0,.13,0c.1,0,.17.09.15.17a1.12,1.12,0,0,1-.11.25m4,17.7h.42l.27,0a.25.25,0,0,0,.21-.15,2.42,2.42,0,0,1,.18-.36c.07-.1.08-.17,0-.22a.25.25,0,0,0-.25,0c-.13.06-.24.13-.36.2a.8.8,0,0,1-.53,0l-.24-.13a2.53,2.53,0,0,1-.23.12.26.26,0,0,1-.24-.07.53.53,0,0,0-.12,0,.19.19,0,0,0-.09.24.73.73,0,0,0,.23.32.52.52,0,0,0,.36.18c.13,0,.27,0,.39,0M25.3,12.83l.34,0,.13,0c.1,0,.12-.11.12-.21s0-.17-.12-.21a.67.67,0,0,0-.74.14.71.71,0,0,0-.15.22.59.59,0,0,0,.42.13m-4.57,1.94h.39a.65.65,0,0,0,.46-.25.2.2,0,0,0,.06-.12c0-.08-.05-.14-.15-.16a.77.77,0,0,0-.53.09,1.13,1.13,0,0,1-.36.19c-.11,0-.16.09-.13.15a.15.15,0,0,0,.1.09h.16m-.66,1.93a.28.28,0,0,0,.13,0c.09-.05.09-.12,0-.21a.77.77,0,0,1-.12-.24C20,16,20,16,19.86,16a.59.59,0,0,0-.27.29.39.39,0,0,0,.06.11c.11.14.22.29.42.29m4,3.36a2.77,2.77,0,0,0,.41,0c.1,0,.19,0,.23-.11s-.14-.16-.31-.16h-.28c-.2,0-.34.08-.3.15a.22.22,0,0,0,.25.1M20.73,9.2h.12a.27.27,0,0,0,.25-.1A.38.38,0,0,0,21,8.87l-.1-.1c-.08-.09-.15-.08-.24,0s-.23.26-.19.33a.26.26,0,0,0,.27.09M26.57,21a.24.24,0,0,0,.06.08.21.21,0,0,0,.23,0A.25.25,0,0,0,27,21a.17.17,0,0,0-.07-.23.55.55,0,0,0-.36.31M.4,23.86l.08.1a.3.3,0,0,0,.23-.06c.07-.06.06-.13,0-.17a.24.24,0,0,0-.23,0s0,.06,0,.09M24,27.28a.22.22,0,0,0,.09.24.43.43,0,0,0,.09-.1.18.18,0,0,0,0-.13c0-.11-.06-.15-.14-.12a.54.54,0,0,0-.05.11m1.71.14a.42.42,0,0,0,0,.1.21.21,0,0,0,.24.05c.12,0,.14-.12.07-.18a.24.24,0,0,0-.25-.05s-.07.05-.1.08M23.27,21.1a.39.39,0,0,0,.11.06.22.22,0,0,0,.23-.1s-.05-.08-.09-.1a.23.23,0,0,0-.24,0s0,.07,0,.1m.53-7.33a.2.2,0,0,0,0,.08.2.2,0,0,0,.22.06c.1,0,.12-.11.06-.16a.25.25,0,0,0-.22-.05.23.23,0,0,0-.1.07M24.3,12c.09,0,.14-.06.12-.13a.18.18,0,0,0-.08-.09.25.25,0,0,0-.22,0s0,.06,0,.09a.17.17,0,0,0,.22.08M25.86,25.8l-.1-.06v.11Zm.48-.5.06-.09h-.1Zm-.83-.54.09-.08c-.05-.12-.11-.12-.17,0l.08.09m-1.75-.37.07.08c.11,0,.11-.09,0-.15l-.08.07m-22.5.08.06-.1H1.21Zm25.36-2.23.07-.06c0-.11-.08-.12-.14,0l.07.08m-.26-2.38c-.12,0-.12.09,0,.15l.09-.07a.27.27,0,0,1-.07-.08m.75-.5c0,.11.08.12.14,0l-.07-.08-.07.06m-1.61-.47.08-.06c0-.1-.09-.11-.14,0l.06.07m-4.8-.36c0,.1.09.11.15,0a.46.46,0,0,1-.07-.07l-.08.06M25,17.35c-.11,0-.12.09,0,.15l.08-.07L25,17.35m-.85.15.08-.06c0-.11-.09-.12-.14,0l.06.08m-4.44-.42c-.11,0-.12.08,0,.14l.09-.06-.07-.08m7.51-.41.08-.07c0-.11-.09-.12-.16,0l.08.08M20.7,15.19c0,.11.08.11.14,0a.46.46,0,0,0-.07-.07l-.07.06m-1.31-.06c-.1,0-.11.08,0,.14l.08-.06-.07-.08m-.56-1.39-.06.09h.1Zm.47-1.9c0,.11.09.11.16,0l-.07-.08-.09.06m1.4-2.23c0,.11.09.12.15,0l-.07-.08-.08.06m-.77-.19L20,9.33l-.1,0Zm2-2.1c-.11,0-.12.09,0,.15L22,7.4l-.06-.08m1-.5c0,.12.08.12.14,0L23,6.76l-.07.06M.5,25.51l-.06-.08-.08.07c0,.11.08.12.14,0m22.63-8.79,0,0h-.58l0,0c0,.14,0,.27,0,.41a2.06,2.06,0,0,1,0,.26,1.16,1.16,0,0,1-.14.24c-.09.14-.11.3,0,.36s.14,0,.22,0a.33.33,0,0,1,.25-.1c0-.19.09-.25.28-.27l0-.86m.28-.81a.28.28,0,0,0-.25-.27.87.87,0,0,0-.28,0,.34.34,0,0,0-.23.13.45.45,0,0,0,.23.13,5,5,0,0,0,.55,0Zm-.55,2.78a.19.19,0,0,0-.13-.22l-.08.08a.18.18,0,0,0,.22.12Zm.27-2a.2.2,0,0,0,.22-.12l-.08-.07a.19.19,0,0,0-.12.21Zm-.56,0a.2.2,0,0,0-.11-.22l-.08.07a.22.22,0,0,0,.22.13ZM21.41,16,21.34,16l-.09.07c0,.12.1.12.16,0m1.86-1.32c.11,0,.12-.08,0-.14l-.08.07a.46.46,0,0,1,.07.07m-3.06-3.08a.22.22,0,1,0-.11-.2.22.22,0,0,0,.11.2m.64,0c0-.12-.09-.12-.15,0l.07.08.08-.06m4,12.48a.14.14,0,0,0,0,.09.24.24,0,0,0,.2.11V24a.21.21,0,0,0-.2.1"/></g></g></svg>