<svg xmlns="http://www.w3.org/2000/svg" viewBox="0 0 29.77 29.24"><defs><style>.cls-1{fill:#45c2b1;}</style></defs><g id="Layer_2" data-name="Layer 2"><g id="Layer_1-2" data-name="Layer 1"><path class="cls-1" d="M25.35,3.06a.32.32,0,0,0-.22.15.48.48,0,0,0-.07.26s0,.09,0,.14a.3.3,0,0,0,.26.27c.28.05.56,0,.84.05.1,0,.16.07.17.14l-.11.09-.41.07a.32.32,0,0,0-.18.18.75.75,0,0,0,0,.42.49.49,0,0,0,.15.23,1,1,0,0,0,.34.23.39.39,0,0,1,.29.41.49.49,0,0,1-.08.39.27.27,0,0,0-.07.24.42.42,0,0,0,.24.12s.07,0,.11.08a.18.18,0,0,1-.17.15.35.35,0,0,0-.22.15.57.57,0,0,0,.16.22l.21.18.13,0,0,0a2.11,2.11,0,0,1,0,.26.47.47,0,0,0,.17.34l.28.27c.2.2.21.21.43.07a.41.41,0,0,1,.24-.08l0,0a.58.58,0,0,0,0,.14,2,2,0,0,0,.27.31.71.71,0,0,1,.23.49c0,.37.05.74,0,1.11a.86.86,0,0,0,0,.28,1.15,1.15,0,0,0,.12.25.6.6,0,0,1,.1.25,1.36,1.36,0,0,0,.16.53.78.78,0,0,1,.12.39c0,1,0,1.95,0,2.93a1.39,1.39,0,0,0,0,.41,1.12,1.12,0,0,0,.11.25.52.52,0,0,1,.07.27c0,.28,0,.56,0,.83a.79.79,0,0,1-.13.53.67.67,0,0,0-.09.26.86.86,0,0,0,.11.54.77.77,0,0,1,.11.39c0,.6,0,1.21,0,1.81a1.39,1.39,0,0,0,0,.41,1.92,1.92,0,0,0,.12.25.75.75,0,0,1,.06.13.59.59,0,0,1,0,.14c0,.14,0,.28,0,.41,0,.61,0,1.21,0,1.81,0,.84,0,1.67,0,2.51a1,1,0,0,0,.14.53.48.48,0,0,1,.07.26c0,.28,0,.56,0,.84a1,1,0,0,1-.11.53c-.07.13-.12.25-.18.38a.33.33,0,0,1-.23.14,1.84,1.84,0,0,1-.41,0c-1.21,0-2.42,0-3.62,0a.7.7,0,0,0-.4.1l-.13.05a.6.6,0,0,1-.27.06c-1,0-2,0-3.06,0-.42,0-.83,0-1.25,0H10.92l-1.53,0a1.08,1.08,0,0,0-.53.14.5.5,0,0,1-.27.07H8.32c-.75,0-1.49,0-2.23,0H4l-.83,0c-.14,0-.15,0-.4.12a.58.58,0,0,1-.53,0A1.15,1.15,0,0,0,2,29a1.29,1.29,0,0,0-.28,0H1.44a.5.5,0,0,0-.27.07,1,1,0,0,1-.67.14A.51.51,0,0,1,.15,29,.65.65,0,0,1,0,28.65c0-1.07,0-2.14,0-3.21,0-.18,0-.37,0-.55a.69.69,0,0,1,.14-.39.76.76,0,0,0,.1-.39c0-.37,0-.75,0-1.12a1,1,0,0,1,.11-.4,1,1,0,0,0,.13-.39c0-.32,0-.64,0-1A.79.79,0,0,1,.66,21a1,1,0,0,0,.12-.25,1.35,1.35,0,0,0,0-.28,2.46,2.46,0,0,0,0-.28A1.12,1.12,0,0,1,1,19.77a.9.9,0,0,0,.12-.39l0-.56a.81.81,0,0,1,.12-.4,1.37,1.37,0,0,0,.16-.52.64.64,0,0,1,.07-.27,1.15,1.15,0,0,0,.19-.51,1.11,1.11,0,0,1,.13-.4A1.38,1.38,0,0,0,2,16.2a.62.62,0,0,1,.09-.26,1.21,1.21,0,0,0,.19-.52.5.5,0,0,1,.08-.26c.13-.19.18-.43.31-.62A6.45,6.45,0,0,1,3,13.8a3.54,3.54,0,0,1,.3-.62c.06-.23.23-.41.3-.63s.2-.32.25-.49.24-.4.32-.62a.72.72,0,0,1,.14-.24,2.22,2.22,0,0,0,.45-.69l.08-.12c.12-.14.23-.29.36-.42a2,2,0,0,0,.38-.57,1.36,1.36,0,0,1,.25-.34,1.74,1.74,0,0,0,.3-.46,1.2,1.2,0,0,1,.25-.34L7.48,7.19A1.15,1.15,0,0,1,7.83,7a1.19,1.19,0,0,0,.23-.16c.17-.16.33-.33.49-.49.36-.36.73-.72,1.11-1.06l.41-.37a1.9,1.9,0,0,1,.37-.2,1.81,1.81,0,0,0,.21-.18c.17-.15.34-.31.53-.45a.8.8,0,0,1,.24-.13,1.38,1.38,0,0,0,.24-.14,2.73,2.73,0,0,1,.44-.34l.49-.26c.2-.12.42-.2.61-.33a1.58,1.58,0,0,0,.6-.35,1.42,1.42,0,0,1,.48-.27,1.16,1.16,0,0,0,.24-.14A1,1,0,0,1,14.91,2a.77.77,0,0,0,.27-.07,1.54,1.54,0,0,1,.65-.23.7.7,0,0,0,.26-.1,1.1,1.1,0,0,1,.52-.17.61.61,0,0,0,.26-.08,1.43,1.43,0,0,1,.38-.17A1,1,0,0,0,17.5,1,1,1,0,0,1,18,.85,1.09,1.09,0,0,0,18.41.7a.79.79,0,0,1,.26-.08l1-.06A.9.9,0,0,0,20,.43a1,1,0,0,1,.4-.12l.28,0a1.22,1.22,0,0,0,.52-.17.59.59,0,0,1,.26-.07C22.33,0,23.16,0,24,0a.82.82,0,0,1,.61.27.58.58,0,0,1,.17.37.86.86,0,0,0,0,.28s.05.07.08.1L25,1A1.24,1.24,0,0,1,25.29.5c.13-.12.2-.14.35,0a.41.41,0,0,0,.51,0l.12-.06a.61.61,0,0,1,.26-.08,5.43,5.43,0,0,1,.7,0c.54,0,.54,0,.52.09a1.56,1.56,0,0,1-.17.37c-.12.26-.12.26-.26.2C27,.84,27,.84,26.68,1A.73.73,0,0,1,26,1c-.09,0-.16-.1-.24-.14a.36.36,0,0,0-.27,0,.36.36,0,0,0-.17.21c-.13.27-.14.28-.39.32l-.14,0a.25.25,0,0,0-.23.13.45.45,0,0,0-.08.26.67.67,0,0,0,.23.49,1.73,1.73,0,0,0,.21.17.69.69,0,0,0,.13,0l0,0a.7.7,0,0,0,.18.34.43.43,0,0,1,.1.24ZM4.45,20.64l.26,0a.24.24,0,0,0,.21-.13l-.06-.12a.55.55,0,0,0-.2-.17c-.08-.06-.15,0-.24,0a.66.66,0,0,1-.24.11.42.42,0,0,0-.22.15.34.34,0,0,0,.22.13l.27,0m.44-1.39a.74.74,0,0,0-.26,0c-.12,0-.14.1-.08.19a.79.79,0,0,0,.29.26.39.39,0,0,0,.26,0,.26.26,0,0,0,.09-.09.42.42,0,0,0,0-.25A.38.38,0,0,0,5,19.27l-.13,0m-1.68.44.09-.08a.26.26,0,0,0,0-.23c-.06-.07-.13-.06-.17.05a.26.26,0,0,0,0,.23s.06,0,.09,0m1.7-1.14a.17.17,0,0,0-.18-.11.24.24,0,0,0-.21.1.22.22,0,0,0,.19.12.2.2,0,0,0,.2-.11m.51-2.2a.45.45,0,0,0,.1-.09.22.22,0,0,0,0-.14c0-.11-.1-.14-.16-.08a.14.14,0,0,0-.05.11.15.15,0,0,0,.11.2M5.23,15.3a.21.21,0,0,0,.24-.09.45.45,0,0,0-.09-.1.3.3,0,0,0-.13,0c-.12,0-.16.07-.13.15a.39.39,0,0,0,.11.06m-.92.93-.09.08c0,.11.1.12.16,0l-.07-.09m1.17,1.49-.06-.08-.09.07a.27.27,0,0,1,.07.08l.08-.07m-.83,3.34c0-.1-.08-.11-.14,0l.06.07.08-.06m.19.92c.13-.05.13-.11,0-.18l-.09.09.08.09M8.07,5.87H7.93A.65.65,0,0,0,7.56,6a6.13,6.13,0,0,0-.78.75.38.38,0,0,0-.1.24l0,0a.65.65,0,0,0,.14,0,.66.66,0,0,0,.38-.12A7.92,7.92,0,0,0,8,6.1a.3.3,0,0,0,.1-.24ZM27.63,4.63a.26.26,0,0,0,.11.35.21.21,0,0,0,.25,0c.05-.06,0-.14,0-.23a.51.51,0,0,0-.23-.15.31.31,0,0,0-.09.07m-.91,2.62a1,1,0,0,0,.39,0s.06-.06.09-.09S27.15,7,27.11,7a.31.31,0,0,0-.25,0,.29.29,0,0,0-.12.22Zm.88-1s.06.06.09.1.09,0,.1-.07a.23.23,0,0,0,0-.25s-.07,0-.1,0a.2.2,0,0,0-.08.24M27.09,4A.19.19,0,0,0,27,4c-.12,0-.16.09-.09.16a.28.28,0,0,0,.11,0,.16.16,0,0,0,.21-.11s-.06-.08-.1-.1m-2-1.44a.22.22,0,0,0,.22-.12l-.08-.07a.18.18,0,0,0-.12.21Zm.3.55a.22.22,0,0,0,.11.22l.08-.07a.24.24,0,0,0-.21-.12Zm-17,2.51a.19.19,0,0,0,.22-.11.27.27,0,0,1-.07-.08.2.2,0,0,0-.13.21Zm19.41-.08V5.4l-.1,0ZM8.05,5.86c.2,0,.26-.09.28-.29l0,0a.35.35,0,0,0-.11,0,.23.23,0,0,0-.17.25ZM6.68,7a.23.23,0,0,0-.2.12l.07.06a.18.18,0,0,0,.1-.2ZM27.84,8.08A.21.21,0,0,0,28.05,8L28,7.89a.2.2,0,0,0-.11.22Z"/></g></g></svg>