<svg xmlns="http://www.w3.org/2000/svg" viewBox="0 0 29.19 29.5"><defs><style>.cls-1{fill:#008375;}</style></defs><g id="Layer_2" data-name="Layer 2"><g id="Layer_1-2" data-name="Layer 1"><path class="cls-1" d="M4.43,2.75c.05-.22.23-.27.4-.33A.22.22,0,0,0,5,2.19a.57.57,0,0,0,0-.13,3.62,3.62,0,0,0-.36-.42.16.16,0,0,1,0-.24A2.1,2.1,0,0,1,5,1c.12-.11.17-.12.35,0a.19.19,0,0,0,.25,0A.56.56,0,0,1,5.79.8.37.37,0,0,0,6,.66S6,.57,6,.54,5.9.36,6,.32l.13,0a5.12,5.12,0,0,1,.56,0c1.62,0,3.24,0,4.87,0h.56a.86.86,0,0,0,.39-.11,1.08,1.08,0,0,1,.4-.11h1.67a.85.85,0,0,1,.53.13.87.87,0,0,0,.26.08c.75,0,1.49,0,2.23,0s1.76,0,2.65,0a1.25,1.25,0,0,1,.39.11A.79.79,0,0,0,21,.5h1.39l2.65,0a1.19,1.19,0,0,1,.66.17A.48.48,0,0,0,26,.78l1.12,0a.74.74,0,0,1,.52.15.82.82,0,0,0,.4.1,5.32,5.32,0,0,1,.69,0,.38.38,0,0,1,.22.16,2.48,2.48,0,0,1,0,.27c0,.47,0,.93,0,1.4a1.12,1.12,0,0,0,.13.39.9.9,0,0,1,0,.8.93.93,0,0,0-.12.4c0,1.53,0,3.06,0,4.59,0,2.18,0,4.36,0,6.54a1,1,0,0,1-.14.54.46.46,0,0,0-.07.26c0,.09,0,.18,0,.28,0,.83,0,1.67,0,2.5l0,2.65a1.12,1.12,0,0,1-.1.4.77.77,0,0,0-.11.39c0,1,0,2,0,3.07V28.1a8.45,8.45,0,0,1,0,1.12.29.29,0,0,1-.26.26l-.28,0c-1.16,0-2.32,0-3.48,0-1,0-2,0-2.92,0-1.26,0-2.51,0-3.76,0H13.49l-1.53,0H10.43l-1.81,0A1.57,1.57,0,0,1,8,29.31a.18.18,0,0,0-.12,0l-.14,0c-.65,0-1.3,0-1.95,0a1.22,1.22,0,0,1-.53-.15.23.23,0,0,0-.25,0c-.08.06-.16,0-.26,0A.61.61,0,0,0,4.31,29c-.42,0-.83,0-1.25,0-.19,0-.37,0-.56,0a.43.43,0,0,1-.26-.09c-.18-.14-.42-.17-.62-.3a.39.39,0,0,0-.5,0,.23.23,0,0,1-.26,0,.32.32,0,0,0-.37,0,.18.18,0,0,1-.13,0c-.08,0-.23-.14-.3-.27a.29.29,0,0,1,.06-.37l.12-.06a.31.31,0,0,1,.13,0,10.4,10.4,0,0,0,1.25,0,.3.3,0,0,0,.24-.11.38.38,0,0,0-.06-.13.5.5,0,0,1,0-.63s0-.08,0-.12a1.92,1.92,0,0,1-.24-.5c-.16-.23-.25-.5-.39-.74s-.09-.18.16-.27A.33.33,0,0,0,1.64,25a1.23,1.23,0,0,0,0-.27,1.05,1.05,0,0,1,.19-.66.33.33,0,0,0,0-.38,1.11,1.11,0,0,1-.18-.79.62.62,0,0,1,.13-.38c.17-.25.15-.2.14-.52a.86.86,0,0,0-.16-.38.34.34,0,0,1-.06-.26c0-.13,0-.13.27-.27a.32.32,0,0,0,.21-.32,2.53,2.53,0,0,0,0-.28.82.82,0,0,0,0-.27A.92.92,0,0,0,2,20a.68.68,0,0,1-.11-.39c0-.14,0-.28,0-.42a.64.64,0,0,0-.1-.26c-.12-.18-.11-.23,0-.35a2.06,2.06,0,0,0,.35-.43c.06-.12.1-.26.17-.38s.06-.08.06-.12a.2.2,0,0,0-.06-.12c-.14-.19-.15-.44-.31-.62a.6.6,0,0,1-.11-.39.66.66,0,0,1,0-.14l0,0c.35,0,.36,0,.52.1s.25.11.45-.1.09-.16,0-.24a.85.85,0,0,1-.18-.37.56.56,0,0,0-.13-.24,1.8,1.8,0,0,1-.19-.2c-.21-.24-.22-.2,0-.44.09-.09.09-.09.35-.2s.16-.07.25-.3a.45.45,0,0,1,.06-.12,5,5,0,0,0,.37-.73.56.56,0,0,0,0-.12.28.28,0,0,0-.24-.11,2.62,2.62,0,0,0-.28,0,7.69,7.69,0,0,1-1,0c-.1,0-.19,0-.25-.08s0-.18.17-.31a.35.35,0,0,1,.24-.12l.83,0a.25.25,0,0,0,.22-.12.67.67,0,0,0-.06-.12.44.44,0,0,0-.08-.11,1.35,1.35,0,0,1-.26-.32L3,11.86c.13-.22,0-.45-.28-.48a.84.84,0,0,1-.27,0s-.07-.05-.11-.08,0-.07.06-.09.27-.08.34-.21a2.56,2.56,0,0,0,.11-.24s.06-.06.09-.08a.45.45,0,0,1,.1.09s0,.09,0,.14.1.15.17.12,0-.07.08-.11a1.88,1.88,0,0,0,0-.41c0-.08-.08-.16-.13-.24A.47.47,0,0,1,3.05,10l0,0a.21.21,0,0,0,.19-.1.14.14,0,0,0,0-.09A.21.21,0,0,0,3,9.7l0,0a.37.37,0,0,1,.1-.25,3.84,3.84,0,0,0,.28-.3c.11-.13.12-.14,0-.36a.34.34,0,0,1-.06-.26c0-.12,0-.14.29-.24a.3.3,0,0,0,.17-.44c0-.08-.09-.16-.14-.24s.08-.16.13-.24a.57.57,0,0,0,.08-.26.83.83,0,0,1,0-.27A1.34,1.34,0,0,1,4,6.62a1,1,0,0,0,.13-.39c0-.36,0-.73,0-1.1a.78.78,0,0,1,.1-.39l.08-.12a.37.37,0,0,0,0-.38c0-.08-.09-.16-.14-.24s.1-.16.14-.24a.29.29,0,0,0-.15-.44A.29.29,0,0,1,4,3.19.31.31,0,0,1,4.1,3l.21-.18.13,0A.25.25,0,0,0,4.57,3l.12,0a.22.22,0,0,0,.24-.11.24.24,0,0,0-.22-.14H4.43m-.28,7A.2.2,0,0,0,4,9.51L4,9.58a.21.21,0,0,0,.22.12,1,1,0,0,0,0,.39s.06.06.1.1.07-.06.09-.1a.31.31,0,0,0,0-.25.26.26,0,0,0-.22-.12M25.91,27.27a.68.68,0,0,0,0,.14.66.66,0,0,0,.07.25s.05.09.09.1a.28.28,0,0,0,.25,0c.09,0,.09-.11,0-.21a1.24,1.24,0,0,1-.17-.37s-.06-.06-.09-.09a.22.22,0,0,0-.14.18m-.73-2.58a.59.59,0,0,0,.18.2l.12.07a.21.21,0,0,0,.09-.24.22.22,0,0,0-.28-.2c-.12,0-.15.08-.11.17M26.49,2.21a.21.21,0,0,0,0,.11c0,.07.12.06.2,0a1,1,0,0,0,.17-.19c.05-.09,0-.15-.08-.18a.34.34,0,0,0-.24.05.19.19,0,0,0-.09.22M3.1,15.41c0,.11.1.12.16,0l-.08-.08-.08.07M26,24.28l-.06.09h.1Zm-.64,2c0,.11.1.12.16,0l-.07-.09-.09.08m1.38,1.4.08.08c.12,0,.12-.09,0-.16l-.09.08M27.44,4.2c-.12,0-.12.09,0,.15l.09-.07a.27.27,0,0,1-.07-.08m-.78.08-.09,0v.1Zm.42-.85.09.06,0-.1Zm.34-1.31.08-.06c0-.11-.09-.11-.15,0l.07.08M0,21.68c0,.11.05.17.12.18a1,1,0,0,0,.08-.11.57.57,0,0,0,0-.13c0-.1,0-.19,0-.28a1.18,1.18,0,0,1,0-.27.92.92,0,0,1,.13-.24.16.16,0,0,0,0-.24.64.64,0,0,1-.12-.25.32.32,0,0,1,.07-.26c.16-.24.12-.26-.08-.45a.2.2,0,0,0-.12-.06c-.07,0-.12.08-.13.18,0,.32,0,.65,0,1s0,.62,0,.94m.8,3.37A.37.37,0,0,1,.59,25a.25.25,0,0,0-.22-.07.32.32,0,0,0-.09.24,4.7,4.7,0,0,0,0,.53s0,.07.07.11.07,0,.08,0a1.23,1.23,0,0,0,.11-.23,3.7,3.7,0,0,1,.21-.33A.61.61,0,0,0,.8,25ZM.84,15a.3.3,0,0,0,.21-.13v-.13c0-.18-.09-.24-.27-.22s-.23.09-.21.26.1.23.27.22m-.13.68a.6.6,0,0,0-.18-.21.47.47,0,0,0-.12-.07c-.08,0-.1.1-.09.21s.1.26.26.23.16-.07.13-.16m1.14-1.52a1.41,1.41,0,0,0,.41,0s.07-.05.11-.07,0-.06,0-.08a.58.58,0,0,0-.53,0L1.74,14l.11.09M.33,18.88s.07-.06.1-.09,0-.08-.06-.1a.23.23,0,0,0-.24,0l0,.11a.19.19,0,0,0,.23.08m1.59-2.47a.27.27,0,0,0-.28-.28l0,0a.3.3,0,0,0,.08.2.28.28,0,0,0,.2.08Zm-.28-.28a.19.19,0,0,0-.12-.21L1.44,16a.25.25,0,0,0,.22.11ZM.9,14.05H1L1,14Zm1,6.65H1.74l0,.1Zm-.37-8.39v.1l.11,0ZM3,10V9.7l0,0a.21.21,0,0,0-.22.13.23.23,0,0,0,.22.13ZM.8,25A.2.2,0,0,0,1,24.91a.46.46,0,0,1-.07-.07.22.22,0,0,0-.12.21Zm.09,1.56.1,0,0-.09Z"/></g></g></svg>