<svg xmlns="http://www.w3.org/2000/svg" viewBox="0 0 2191.11 63.71"><defs><style>.cls-1{fill:#d2ddc8;}</style></defs><g id="Layer_2" data-name="Layer 2"><g id="Layer_1-2" data-name="Layer 1"><g id="Layer_2-2" data-name="Layer 2"><g id="Layer_1-2-2" data-name="Layer 1-2"><path class="cls-1" d="M2191.11,63.71V18.52c-3.05.64-6,2.54-9,3.7a10.83,10.83,0,0,1-10.11-1,18.37,18.37,0,0,0-9.92-3.73c-4.74-.07-9.52-.6-14.3-.89a28.76,28.76,0,0,1-13.39-4.33,16.54,16.54,0,0,0-6.68-2.24c-7.13-.56-14.29-.67-21.46-1a33.63,33.63,0,0,0-17.16,3.73c-5.53,2.73-10.53,2.17-17-1.34a24,24,0,0,0-23.81-.9,15.41,15.41,0,0,1-6.68,2.24c-4.77.3-9.55.3-14.33.3-21.45-.48-43-1.19-64.4-1.6A39.81,39.81,0,0,1,1946,6.28a10.13,10.13,0,0,0-10.19.49,25.27,25.27,0,0,1-3.21,1.6c-4.51,2-5.67,2.36-10-.26a25,25,0,0,0-27,0,15.63,15.63,0,0,1-6.87,1.42,16.34,16.34,0,0,1-10.22-2.42,8,8,0,0,0-9.66-.3,8.21,8.21,0,0,1-3.21,1.49,200.42,200.42,0,0,1-39.26-.67c-4.63-.34-8-6.08-13.13-3.21-3.81,2.24-6.61.19-9.74-1.2a11.21,11.21,0,0,0-10.27,0,27.69,27.69,0,0,1-13.28,4c-3.58-.23-7-.23-10.75-.23-20.26-.41-40.52-.85-60.82-1.15a20.41,20.41,0,0,0-6.9,1.45c-2.2.79-4.29,2.84-6.38,3s-4.26-1.72-6.46-2.39a4.59,4.59,0,0,0-3.21.41,9.22,9.22,0,0,1-9.7-.26,18.68,18.68,0,0,0-20.19,0,13.81,13.81,0,0,1-16.42-.89,9.73,9.73,0,0,0-3.21-1.5,6.42,6.42,0,0,0-3.5-.26c-3.36,1-6.61,2.2-9.86,3.36-2.12-1.12-4.25-3.1-6.38-3.1-3.21,0-5.89,3.73-9.62,1.94a35.64,35.64,0,0,0-6.27-3.28,12.25,12.25,0,0,0-10,2.46,4.59,4.59,0,0,1-6.42-.33,17,17,0,0,0-9.92-3.74h-3.74c-11.9-.33-23.84-.67-35.74-.93a26.42,26.42,0,0,0-14.15,2.35,21.39,21.39,0,0,1-23.54-.22,11.94,11.94,0,0,0-13.4-.37c-2.61,1.49-4.29,2.23-6.34.74a6.74,6.74,0,0,0-6.53-1.3c-4.41,1.9-8.77,3.69-13.1,5.63-2.16,1-4.29,2.95-6.42,2.95a14,14,0,0,1-6.12-3.14,12.4,12.4,0,0,0-6.71-2c-5.94-.22-11.91-1-17.88-1a21.31,21.31,0,0,1-9.85-3.73,11.2,11.2,0,0,0-10.22-.71,32.15,32.15,0,0,1-13.44,4c-14.29-.41-28.58.49-43-.41-15.45-.86-31-.48-46.49-.86A34.17,34.17,0,0,0,1280,7.4a3.69,3.69,0,0,1-3.06-.33,27.54,27.54,0,0,0-13.47-3.85c-9.55-.56-19.07-1-27.91,3.74-5.71-4.59-11.12-1.46-16.57.63-28.58.75-57.2,0-85.82-1.12a19.74,19.74,0,0,1-9.74-4.14,10.54,10.54,0,0,0-10.19-.9A45.35,45.35,0,0,1,1096,5.58c-14.33.37-28.66.18-43-.27a140.52,140.52,0,0,0-14.22.23A16.43,16.43,0,0,0,1032,7.63a27.73,27.73,0,0,1-13.66,2.91,32.82,32.82,0,0,1-17.13-4c-3.32-1.87-6.56,1.53-9.89,1.27-2.23-.19-4.4-2.28-6.56-2.28A20.7,20.7,0,0,0,978.18,8a12.45,12.45,0,0,1-3.39.93,57.33,57.33,0,0,1-7.17.3q-41.31-.63-82.35-1.12H845.9a21.47,21.47,0,0,0-10.11,3.21,13.54,13.54,0,0,1-6.68,1.83l-50.42-.38A24.36,24.36,0,0,0,765,16.32c-2.28,1.46-3.88.79-6.31-.74a20.81,20.81,0,0,0-23.54.93,12.32,12.32,0,0,1-6.68,2.2H689.14a13.36,13.36,0,0,0-6.91,1.49,31.6,31.6,0,0,1-17.05,4c-22.65-.56-45.34-.56-68-.56-6,0-11.95-.26-17.88,0a19,19,0,0,0-6.79,2,23.14,23.14,0,0,1-10.15,2.83c-25.08-.45-50.11-.82-75.19-1.3-6-.12-11.9-.64-17.87-.64q-46.53-.75-93.11-1.3a18.67,18.67,0,0,0-10.37,2.12,23.53,23.53,0,0,1-13.43,4c-4.78-.26-9.56-.26-14.33-.26a17.64,17.64,0,0,0-10,3.32,19.51,19.51,0,0,1-10.12,3,17.85,17.85,0,0,0-12.8,5.22,101.13,101.13,0,0,1-8.28,6.75,7.45,7.45,0,0,1-11.19-4.21,71.89,71.89,0,0,0-1.39-10.64A6.22,6.22,0,0,0,279,30.91c-14.29-.67-28.58-1.27-42.91-1.64-31-.78-62.06-1.38-93.07-2.16a30.46,30.46,0,0,0-17.16,3.73,14,14,0,0,1-6.76,1.94,209.69,209.69,0,0,1-25.07,0c-5.94-.37-11.65-.37-17.88-.37S64.85,33.86,62.24,40.8c-1.83,4.85-7.05,5.37-11.71,2.31A23.07,23.07,0,0,1,47.61,41a8.57,8.57,0,0,0-9.88-1.24c-8.18,3.36-8.14,3.55-14.33-2.42-1.61-1.64-3.51-3.21-5.34-4.74-2.89-2.2-8.76-2.14-11.64.06A20.78,20.78,0,0,0,0,39.56V63.71"/></g></g></g></g></svg>