<svg xmlns="http://www.w3.org/2000/svg" viewBox="0 0 590.28 589.36"><defs><style>.cls-1{fill:#841c57;}</style></defs><g id="Layer_2" data-name="Layer 2"><g id="Layer_1-2" data-name="Layer 1"><path class="cls-1" d="M589,218.45a2.31,2.31,0,0,1,.19-2.66,6,6,0,0,0,.89-3.66c0-.64-.08-1.28-.1-1.92a5.25,5.25,0,0,0-.85-2.71c-.68-1.05.49-1.79.34-2.62s-.89-1.71-1.08-2.61a21.44,21.44,0,0,1-.14-6.69,9.06,9.06,0,0,0,1.34-5.49c0-.32,0-.64,0-1q-.39-15.34-.81-30.7a21.21,21.21,0,0,0-.22-2.87,8,8,0,0,0-.68-1.77c-.76-1.75-.78-1.75,0-3.52a6.71,6.71,0,0,0,.71-2.75c-.13-5.43-.27-10.87-.38-16.31Q587.56,100,587,68.84c-.05-2.87-.05-5.75-.09-8.63a3.7,3.7,0,0,1,.51-1.82,5.77,5.77,0,0,0,.83-2.72q-.19-9.12-.36-18.23a6.13,6.13,0,0,0-.83-2.71,8.33,8.33,0,0,1-.14-7.35,2.76,2.76,0,0,0-.34-2.65,2.74,2.74,0,0,1-.09-2.7,5.31,5.31,0,0,0,.79-1.74,36.3,36.3,0,0,0-.09-8.59,4.25,4.25,0,0,0-.85-1.68,9,9,0,0,0-1.37-1.32,2.16,2.16,0,0,0-2.62,0c-.49.41-1,.83-1.43,1.27-1.66,1.6-1.65,1.55-3.84.65a2.3,2.3,0,0,0-2.65.33,6.16,6.16,0,0,1-.78.56c-1.25.82-2.65.68-3.14-.62-.7-1.86-2.05-2.25-3.72-2.25s-3.2,0-4.79.1a55.79,55.79,0,0,1-6.72,0,3.72,3.72,0,0,1-1.81-.52,8.17,8.17,0,0,0-4.6-1c-8.31.21-16.63.37-24.94.58-3.84.1-7.67.26-11.5.44A1.67,1.67,0,0,0,511,9.21a19,19,0,0,0-.37,2.85,2,2,0,0,1-3,1.13,27.39,27.39,0,0,1-2.22-1.81,4.78,4.78,0,0,0-3.43-1.4,5.23,5.23,0,0,1-2.71-.81,4.72,4.72,0,0,0-2.67-.89c-1.28,0-2.56,0-3.84.07a6.32,6.32,0,0,1-3.6-1.08,5,5,0,0,0-2.78-.57q-12.48.15-24.95.35c-1.6,0-3.19.14-4.79.17-6.72.13-13.43.23-20.15.35a6.21,6.21,0,0,1-2.72-.76,5.14,5.14,0,0,0-1.82-.53c-1.59-.07-3.19,0-4.79,0-6.08,0-12.16,0-18.23.15a8.48,8.48,0,0,1-4.57-1.06,3.56,3.56,0,0,0-1.85-.4c-3.52,0-7,0-10.55,0a3.3,3.3,0,0,1-1.79-.59,5.58,5.58,0,0,0-6.31-.25c-.65.41-1.08.59-1.69.2a6.53,6.53,0,0,0-3.66-.94L365,3.49A3.64,3.64,0,0,1,363.21,3a5.77,5.77,0,0,0-2.71-.86c-3.52,0-7,0-10.55,0q-11,.13-22.07.3c-.64,0-1.28,0-1.92-.08a3.34,3.34,0,0,1-.91-.25,5.53,5.53,0,0,0-1.77-.68c-.58,0-1.16.56-1.76.61-.89.07-1.76-.84-2.65-.34a8.77,8.77,0,0,1-4.59,1.08A7.41,7.41,0,0,1,310.62,2a4.45,4.45,0,0,0-1.81-.56A37.65,37.65,0,0,0,305,1.38c-3.84.12-7.68.17-11.52.07A12.14,12.14,0,0,1,288.87.34a2.82,2.82,0,0,0-2.73.24,5.32,5.32,0,0,1-2.61,1.11c-7.67.29-15.34.5-23,.3-1.46-.56-2.91-1.4-4.44-.17-2.37-1.26-4.92-1.15-7.48-1A7.37,7.37,0,0,0,245,1.85a1,1,0,0,1-.82.09,9.14,9.14,0,0,0-4.63-1c-4.15.1-8.32,0-12.46.23-3.85.24-7.68,0-11.51.11a8.62,8.62,0,0,1-3.6-1.08,3,3,0,0,0-2.74.19,5.72,5.72,0,0,1-2.64,1c-1.6,0-3.2.2-4.79.26a3.32,3.32,0,0,0-1.8.55,3.73,3.73,0,0,1-1.64.84c-.57,0-1.14-.53-1.72-.79-1.16-.52-2.33-1-3.51-1.51a1.81,1.81,0,0,0-1.75.35c-.55.4-1,.2-1.7-.2a3.2,3.2,0,0,0-3.59.1,5.74,5.74,0,0,1-6.31.06A7.05,7.05,0,0,0,176,.42c-3.19.07-6.39.16-9.58.25l-1,0a4.55,4.55,0,0,0-2.66,1,1.23,1.23,0,0,1-1.72.09,3.28,3.28,0,0,0-2.69-.66,9.31,9.31,0,0,0-1.68.88c-1,.48-1.72-.53-2.58-.52-.57,0-1.14.53-1.71.83-.87-.31-1.74-.64-2.64-.9a1.7,1.7,0,0,0-.94.07,2.61,2.61,0,0,0-.86.4,3.7,3.7,0,0,1-4.4.24,5,5,0,0,0-5.41,0,2.47,2.47,0,0,1-2.6.07,1.23,1.23,0,0,0-.86-.11c-.59.18-1.17.67-1.73.64s-1.12-.58-1.71-.79a5.47,5.47,0,0,0-1.85-.39c-5.44.08-10.87.2-16.3.31-1,0-1.92,0-2.88.06A7.44,7.44,0,0,1,106.64.82a3,3,0,0,0-2.75,0c-.84.37-1.59.92-2.61.32C99.9.37,99,1.91,97.76,2a53.59,53.59,0,0,1-10.52.18,2.17,2.17,0,0,1-.86-.4,2.15,2.15,0,0,0-2.59.08,4.37,4.37,0,0,1-2.74.65,4.22,4.22,0,0,1-1.84-.38,6.68,6.68,0,0,0-7.24,0c-1.17.7-1.48.6-2.69.07a6.9,6.9,0,0,1-.86-.43,2.71,2.71,0,0,0-2.73-.13,10.68,10.68,0,0,1-4.52,1.37c-5.75.11-11.51.3-17.26.43-1.28,0-2.56,0-3.84-.08a4.14,4.14,0,0,1-1.79-.6A6.43,6.43,0,0,0,31.9,3c-1.73.94-3.07,1.09-4.55.36a9,9,0,0,0-4.6-1c-1.92.09-3.84.12-5.75.27a4.42,4.42,0,0,0-1.79.6,7.69,7.69,0,0,1-3.59,1.16c-1.28.08-2.56.22-3.83.24a4.93,4.93,0,0,0-2.66,1,2.9,2.9,0,0,1-2.71.28C1.6,5.6.82,5.09,0,4.92V589.36H587.52c0-2.82,0-5.63,0-8.45a3.87,3.87,0,0,1,.44-1.84,7.32,7.32,0,0,0,1-3.66q-.35-15.82-.66-31.66a9.77,9.77,0,0,0-1.24-4.57,4.47,4.47,0,0,1-.44-1.82c-.16-2.24-.27-4.47-.38-6.71a2.93,2.93,0,0,0-.67-1.75,5.46,5.46,0,0,1-1.28-3.52c0-.64,0-1.28,0-1.92,0-1.11.25-2,1.25-2.36,1.89-.72,2.12-2.13,2.07-3.8,0-1.27-.11-2.55-.15-3.83a3.66,3.66,0,0,0-.49-1.83,7.5,7.5,0,0,1-1.18-3.59c-.07-2.56-.18-5.11-.26-7.67a4.48,4.48,0,0,0-1.09-2.58,6,6,0,0,1-1-3.61q-.18-8.16-.32-16.31c0-1,0-1.92,0-2.88a3.09,3.09,0,0,1,.56-1.8,1.88,1.88,0,0,0,.09-2.49,3.55,3.55,0,0,1-.67-1.75,45.58,45.58,0,0,1-.17-7.66c.05-.81.5-1.33,1.77-2a2,2,0,0,0,.77-.51c.35-.48,0-.83-.73-1.19-1.7-.8-1.75-.86-1.23-1.87a8.5,8.5,0,0,0,.9-3.68,3.1,3.1,0,0,1,.63-1.78,5.85,5.85,0,0,0,1-3.61c0-1-.08-1.92-.13-2.87s-.64-1.2-2-.52c-.72.36-1.18.36-1.48-.47a1.54,1.54,0,0,1,0-.95,26.42,26.42,0,0,0,1.27-3.55,23.24,23.24,0,0,0,.09-3.83c0-1.91,0-3.83.08-5.75a3.06,3.06,0,0,1,.64-1.77,1.5,1.5,0,0,0,.25-1.71,6.08,6.08,0,0,1-1.1-2.61q-.36-7.19-.24-14.39a5.57,5.57,0,0,1,.77-2.72,1.5,1.5,0,0,0,0-1.79,5.21,5.21,0,0,1-.33-5.43,5.6,5.6,0,0,0,.83-2.72c-.06-2.23-.06-4.47-.08-6.71l-.15-17.27a3.78,3.78,0,0,1,.46-1.84,4.1,4.1,0,0,0,.69-1.72c0-.59-.58-1.13-.82-1.72a5.25,5.25,0,0,1,.15-4.59,6.53,6.53,0,0,0,.89-2.7c.34-5.12-.24-10.22-.48-15.33a2.81,2.81,0,0,0-.34-.88,4.93,4.93,0,0,1-.65-1.72c0-.59.55-1.16.69-1.77a27.89,27.89,0,0,0,.32-7.63c-.24-4.48-.3-9-.26-13.43a5.45,5.45,0,0,1,.75-2.73,5.12,5.12,0,0,0,.8-2.7c-.07-4.16-.06-8.31-.09-12.47a3.14,3.14,0,0,1,.53-1.81,6.59,6.59,0,0,0,1.12-3.6c0-1.28,0-2.56-.06-3.83a4.52,4.52,0,0,0-.83-2.7,5.84,5.84,0,0,1-1.2-3.54c0-3.84,0-7.68-.08-11.52a5.36,5.36,0,0,1,1-2.64,2.66,2.66,0,0,0,.06-2.72,9,9,0,0,1-1.34-4.51A8.36,8.36,0,0,1,587,259a4.48,4.48,0,0,0-.09-4.53c-.55-1-.54-1,0-3.41a8.47,8.47,0,0,0,.29-1.86c0-2.24,0-4.47,0-6.71a3.55,3.55,0,0,1,.63-1.77,5.12,5.12,0,0,0,.94-2.67c-.06-2.56,0-5.12,0-7.68a7,7,0,0,1,.93-3.64,4.31,4.31,0,0,0,.53-1.81C590.35,222.66,590.4,220.46,589,218.45ZM517.56,31.87l.39-.63.29.7Zm2.52,4-.62-.38.68-.3Zm35.85,492.34c.18-.15.38-.44.54-.42s.53.41.49.48C556.6,529,556.23,529,555.93,528.19Zm.29-71.15c.19-.14.38-.4.55-.38s.49.4.45.47C556.86,457.79,556.5,457.75,556.22,457Zm1.51-11.46.64-.62c.2.22.62.55.57.65C558.52,446.48,558.08,446.45,557.73,445.58Zm4.1,82.69.41-.61.28.68Zm2.85-139.78-.57-.67.62-.58c.2.21.56.45.54.63S564.89,388.29,564.68,388.49ZM579.05,18.31a1.69,1.69,0,0,1,.87,1.54c0,.56.05,1.11.08,1.66a1.78,1.78,0,0,1-1.64-1.61A1.44,1.44,0,0,1,579.05,18.31Zm4.57,150.92c-.25-8.62-.51-17.24-.73-25.86-.48-19.16-1-38.32-1.39-57.48-.22-11.17-.36-22.35-.66-33.53-.08-2.87-.21-5.74-.28-8.62a6.54,6.54,0,0,0-1.29-3.52,3.25,3.25,0,0,1-.54-1.8c0-1.28-.14-2.55-.21-3.83a5.57,5.57,0,0,1,1-3.61,3.15,3.15,0,0,0,.63-1.77c0-2.49,0-5,0-7.48a2.43,2.43,0,0,1,.78.21,1.89,1.89,0,0,1,.93,1.53q.42,12,.78,24a7,7,0,0,0,1.32,3.5,2.16,2.16,0,0,1,0,2.67,6.75,6.75,0,0,0-1.12,3.57c.08,2.24.16,4.47.17,6.71a8.62,8.62,0,0,0,1.39,4.48,2.46,2.46,0,0,1-.07,2.7,5.15,5.15,0,0,0-.89,1.68,4.74,4.74,0,0,0,.37,3.69,8.25,8.25,0,0,1,1.42,4.47c.2,9.9.45,19.8.69,29.7a7.68,7.68,0,0,1-1,3.62,1.57,1.57,0,0,0,.44,1.69,2.73,2.73,0,0,1,.36,2.68,4.29,4.29,0,0,1-.44.85,5.23,5.23,0,0,0-.78,2.7q.43,22,.86,44.08a23.63,23.63,0,0,1-.19,5.7c-.06.28-.36.52-.55.77a3.09,3.09,0,0,1-.6-.66A7.12,7.12,0,0,1,583.62,169.23Zm.37,10.28h0a17.41,17.41,0,0,1,0-2.7c.1-.76.59-1.06,1-.81a1.18,1.18,0,0,1,.51.71,37.56,37.56,0,0,1,.09,4.5c0,.74-.59,1-.95.8a1.23,1.23,0,0,1-.54-.7A13.48,13.48,0,0,1,584,179.51Zm.32,14.65c-.06-.92,0-1.84-.11-4.23a3.23,3.23,0,0,1,.24-2.12,3.27,3.27,0,0,1,.54-.65c.21.23.51.43.59.7.61,2.09.35,4.24.36,6.36a2,2,0,0,1-.84,1.54A2.61,2.61,0,0,1,584.31,194.16ZM585.91,295l-.38.68-.29-.74Zm-.29-82.16c-.13,0-.5-.24-.61-.45a2.93,2.93,0,0,1-.17-.9c.08-.79.41-1.18.91-1,.23.1.38.46.49.74A1.07,1.07,0,0,1,585.62,212.84Z"/></g></g></svg>