<svg xmlns="http://www.w3.org/2000/svg" viewBox="0 0 589.34 601.01"><defs><style>.cls-1{fill:#afd691;}</style></defs><g id="Layer_2" data-name="Layer 2"><g id="Layer_1-2" data-name="Layer 1"><path class="cls-1" d="M468.33,199.58l-.08,0v.09Z"/><path class="cls-1" d="M468.33,199.66v-.08l-.08.07Z"/><path class="cls-1" d="M468.25,199.56l0-1.28H467A1.33,1.33,0,0,0,468.25,199.56Z"/><path class="cls-1" d="M387.27,112.37a.88.88,0,0,0-.6-.93c-.4-.15-.55,0-.37.36A1,1,0,0,0,387.27,112.37Z"/><path class="cls-1" d="M466.92,198.12s0,.1,0,.14H467l0-.11Z"/><path class="cls-1" d="M387.38,112.53a.85.85,0,0,1,0-.16h-.11v.11Z"/><path class="cls-1" d="M468.37,200.86a4.74,4.74,0,0,0,.57,1.06,4.81,4.81,0,0,0,1.08-.64c.28-.27.62-.72.57-1s-.57-.58-1-.56-.81,0-1.21,0A4.79,4.79,0,0,0,468.37,200.86Z"/><path class="cls-1" d="M391.53,116.54a1.21,1.21,0,0,0,.58-.28c.31-.26.28-.66-.13-1.06a10.29,10.29,0,0,0-1-.82,3.71,3.71,0,0,0-1.14.44,5.08,5.08,0,0,0-.76,1.08,5.45,5.45,0,0,0,1.15.59A4.22,4.22,0,0,0,391.53,116.54Z"/><path class="cls-1" d="M418.84,138.81c1.62,1.39,2.37,3.32,3.54,5,.78,1.12,1.72,2.13,2.59,3.19.15,2,2.32,2,3.31,3.2a3.5,3.5,0,0,1,.9,3.15,3.9,3.9,0,0,1-.56,1.23,1,1,0,0,0-.09,1.25c.26.37.57.72.85,1.08a9.62,9.62,0,0,0,3.27,2.42c.73,1.42,1.45,2.84,2.19,4.26a1,1,0,0,0,.47.49c1.51.47,1.93,1.81,2.55,3,1.78,3.58,1.81,3.56,6.09,8a5.87,5.87,0,0,1,1.25,1.62,6.46,6.46,0,0,0,3.27,3.34,5.88,5.88,0,0,1,2.58,3.09,7,7,0,0,0,3.84,3.75,4.31,4.31,0,0,1,2.39,2.35c.74,1.66,1.23,3.56,2.84,4.53s2.59,2.6,4.52,3.05a8.54,8.54,0,0,1,2.28,1.29c.14-.47.3-1,.93-.77.22.07.33.52.48.85a11.63,11.63,0,0,0,1.32,0c1-.07,1.14-.4.77-1.28a24.81,24.81,0,0,0-6.49-9.49,6.79,6.79,0,0,1-.94-1,6.13,6.13,0,0,1-1.16-1.67,22.79,22.79,0,0,0-5.1-8c-.29-.33-.33-.87-.6-1.22-2.09-2.68-3.54-5.82-6.05-8.21a13.25,13.25,0,0,1-3.63-4.9c-1.72-1.83-3.45-3.65-5.17-5.47-3-1.38-4.95-4-7.25-6.16a23.53,23.53,0,0,0-2.17-1.62c-1.08-.83-2.14-1.68-3.2-2.53-2-.25-2-2.3-3.09-3.4-2.69-2.8-5.35-5.62-8-8.43a3.82,3.82,0,0,0-3-1.14,3.51,3.51,0,0,0,.49,1.15A42.06,42.06,0,0,0,418.84,138.81Z"/><path class="cls-1" d="M396.92,119.57a3.49,3.49,0,0,0,3.92,2.75A3.56,3.56,0,0,0,396.92,119.57Z"/><path class="cls-1" d="M396.79,119.47s0,.06,0,.1h.14a.3.3,0,0,1,0-.1Z"/><path class="cls-1" d="M396.19,118.53c-.09,0-.4.28-.38.34a1,1,0,0,0,1,.6A.82.82,0,0,0,396.19,118.53Z"/><path class="cls-1" d="M400.84,122.32a.24.24,0,0,1,0,.08l.1,0s0-.06,0-.1Z"/><path class="cls-1" d="M401,122.42a1.24,1.24,0,0,0,1.27,1.31A1.31,1.31,0,0,0,401,122.42Z"/><path class="cls-1" d="M387.93,113.41c.43.18.64,0,.37-.32a3.15,3.15,0,0,0-.92-.56A.88.88,0,0,0,387.93,113.41Z"/><path class="cls-1" d="M402.1,126.41a6.21,6.21,0,0,1,2.68,2c1.51,2.07,4.18,2.61,5.8,4.55.35.43,1.24.47,1.89.58a16.15,16.15,0,0,0,2,.1,2.72,2.72,0,0,0-1.46-2.07c-1.12-.72-2.45-1.12-3.4-2.14s-1.92-2.48-3.58-3-2.06-2.37-3.73-2.67a5.84,5.84,0,0,1-.2.59C401.29,125.91,401.23,126,402.1,126.41Z"/><path class="cls-1" d="M468.28,198.28h.08l0-.08h-.05Z"/><path class="cls-1" d="M414.52,133.71s0-.05,0-.06h-.06v.06Z"/><path class="cls-1" d="M83.31,10.75A8,8,0,0,0,84.73,10c.83-.62.89-.93.58-1.59s-.54-1.19-.81-1.78-.84-.68-1.45-.11a3.44,3.44,0,0,0-1.18,2.9A1.33,1.33,0,0,0,83.31,10.75Z"/><path class="cls-1" d="M334.08,79.36a.85.85,0,0,0,1-.45c0-.07-.27-.38-.44-.42-.59-.11-1.18-.16-1.77-.23A1.31,1.31,0,0,0,334.08,79.36Z"/><path class="cls-1" d="M329.08,75.56a12.06,12.06,0,0,0-1.59-.16,1.51,1.51,0,0,0,1.3,1.19c.41.07.83.09,1.25.12A1.22,1.22,0,0,0,329.08,75.56Z"/><path class="cls-1" d="M327.45,75.27l-.12,0a1,1,0,0,1,0,.17h.16s0-.08,0-.13Z"/><path class="cls-1" d="M326.76,74.37c-.48-.18-.68,0-.39.29a3.37,3.37,0,0,0,1,.56A.8.8,0,0,0,326.76,74.37Z"/><path class="cls-1" d="M0,.08V.6L.27.37Z"/><path class="cls-1" d="M578.71,592.78a5.76,5.76,0,0,1,.59-3.36.89.89,0,0,0,.06-1.07,5.2,5.2,0,0,1-.65-3.33c.09-1.89-.52-3.88.73-5.62a7.28,7.28,0,0,0-.42-1.62,1.88,1.88,0,0,1-.3-1.62,4.9,4.9,0,0,0,.79-2.72c-.18-1.52.25-3.14-.49-4.55a7.06,7.06,0,0,1-.7-3.33c-.12-6-.22-11.94-.37-17.92-.06-2.31-.21-4.62-.4-6.92,0-.54-.59-1.05-.6-1.59s.47-1,.52-1.6a5.54,5.54,0,0,0-.56-3.91,3.92,3.92,0,0,1-.44-2.22c-.07-1.73-.06-3.44-1-5a5.09,5.09,0,0,1-.39-2.24c-.08-1.34-.07-2.69-.13-4a3.55,3.55,0,0,0-.23-1.69c-1.26-1.93-.9-4.08-1-6.17-.07-1.35-.08-2.7-.18-4.05a3.81,3.81,0,0,0-.37-1.66,6.14,6.14,0,0,1-.78-3.31,21,21,0,0,0-.23-3.46c-.21-1.11-.77-2.15-1-3.25s-.25-2.29-.37-3.44a4.29,4.29,0,0,1-1-2.43l0-1.67c0-2.26.38-4.57-.83-6.74a6,6,0,0,1-.24-2.71c0-2.3,0-4.6,0-6.9a6.26,6.26,0,0,0-.29-2.69c-.9-1.75-.76-3.55-.81-5.37s-.13-3.67-.21-5.5c-1.32-2.09-.85-4.44-1-6.71a4.69,4.69,0,0,0-.4-2c-.74-1.26-.66-2.63-.88-4s-.92-2.58-1.09-3.91c-.19-1.61-.25-3.2-1.22-4.59-.08-1.83-.13-3.67-.28-5.49a5.79,5.79,0,0,0-.55-2c-.81-1.66-.66-3.6-1.68-5.2a2.18,2.18,0,0,1-.13-1.35c.32-2.85-1.21-5.3-1.65-8a6.69,6.69,0,0,1-.94-3.94c0-2.48.65-5.07-1-7.34a2.75,2.75,0,0,1-.22-1.35c-.15-2.48.35-5-1-7.39a5.69,5.69,0,0,1-.19-2.72c0-2.32-1.61-4.3-1.28-6.68a2.13,2.13,0,0,0-.36-1.3c-.8-1.19-.67-2.66-1.2-3.91-.64-1.47-1.39-2.88-2.08-4.32-.9-1.86-1.79-3.71-2.69-5.56.18-2.16-1.16-3.91-1.62-5.91-.41-1.76-1.28-3.39-1.21-5.29a5.06,5.06,0,0,0-.66-1.92c-.54-1.26-1.12-2.5-1.68-3.75.17-1.94-1.18-3.42-1.55-5.23-.58-2.89-1.87-5.59-2.56-8.47s-2.42-5.39-3-8.35a16.22,16.22,0,0,0-1.71-3.73c-.63-1.29-.32-2.71-.61-4.05a5,5,0,0,0-.27-.63c-.94-2.32-1.45-4.79-2.67-7-.89-1.6-1.42-3.38-2.3-5s-1.41-3.42-2.77-4.72-.79-3.53-1.87-5.09a20.34,20.34,0,0,0-1.78-2.9,11.37,11.37,0,0,1-2.69-5.47,24.82,24.82,0,0,0-3.27-7.5c-1.3-2.09-3.59-3.55-3.63-6.42,0-.57-.65-1.21-1.13-1.67a17.43,17.43,0,0,1-4-6.34c-.6-1.47-1-3.15-2.14-4.26-1.38-1.32-1.69-3.24-3-4.58-1.46-1.52-1.93-3.62-3-5.37a41.46,41.46,0,0,0-4.22-6.22,23.75,23.75,0,0,1-3.32-5.18c-.61-1.25-1.43-2.33-2.12-3.51-2-3.35-4.19-6.53-6.24-9.82a3.39,3.39,0,0,0-1.41-1.42,5.68,5.68,0,0,1-2.42-2.36,14.34,14.34,0,0,0-1.4-2.34c-2.43-2.75-4.13-6.05-6.8-8.61-1.29-1.23-1.68-3.28-3.52-4.06-.62-1.21-1.21-2.45-1.89-3.64a19.24,19.24,0,0,0-1.55-2.26c-2-2.52-4.63-4.47-5.94-7.52a4,4,0,0,0-.9-1c-2.39-2.46-5-4.71-6.63-7.85a1.15,1.15,0,0,0-.46-.49,9.76,9.76,0,0,1-3.3-2.43,15.53,15.53,0,0,0-3.15-2.6c-1.06-.72-1.67-2.1-2.5-3.18a1.31,1.31,0,0,0-.55-.4,4.1,4.1,0,0,1-2.29-2.38,9.08,9.08,0,0,0-3.31-3.43c-.55-.37-1.35-.72-1.53-1.25-.61-1.86-2.16-2.93-3.33-4.33-1.89-2.27-4.42-4-5.58-6.9-1.47-1.45-2.92-2.91-4.4-4.34-.48-.47-1.29-.73-1.54-1.27-.88-2-2.55-3.23-3.92-4.76-1.83-2-3.84-3.93-5-6.52a3.78,3.78,0,0,0-2.09-1.7,16.92,16.92,0,0,1-6.58-4.8,10.23,10.23,0,0,0-3.89-2.78,16,16,0,0,1-5.48-4.05,11.84,11.84,0,0,0-4.36-3.26,14.76,14.76,0,0,1-4.44-3.16c-1.83-1.7-3.27-3.89-5.74-4.83-1.54-1.38-3.41-2.32-5-3.61a35.76,35.76,0,0,0-5.86-3.53,2,2,0,0,1-.55-.41c-1.2-1.47-3-2-4.49-3.12-1.66-1.2-3.33-2.4-5-3.63-1.45-1.1-3.38-1.53-4.45-3.15a17.56,17.56,0,0,1-4.44-3.2c-4-1.67-7.27-4.68-11.23-6.5-3.32-1.53-6.42-3.51-9.68-5.18a18.14,18.14,0,0,0-4.4-1.86,11.15,11.15,0,0,1-4.23-2.14c-3.29-2.55-7.16-4-10.71-6.08-2.33-.33-4.22-1.64-6.24-2.71-7.06-3.77-14.14-7.48-21.23-11.19a20.9,20.9,0,0,0-4.35-2,22.61,22.61,0,0,1-5-2.2c-1.83-1-4-1-5.72-2.22a8.09,8.09,0,0,0-4.44-1.67c-1.86-1.43-4.4-1.21-6.27-2.61-2.6-.26-4.52-2.2-6.93-2.83-2.26-.59-4.16-1.86-6.28-2.66a42.52,42.52,0,0,0-5.1-1.84,63.54,63.54,0,0,1-9.68-3.18c-.82-.38-1.64-1.1-2.46-1.11-2.14,0-3.91-1.25-5.91-1.54a10.62,10.62,0,0,1-4.52-1.43c-2.69-.43-5.07-2.15-8-1.83a3.6,3.6,0,0,1-1.9-.64,6,6,0,0,0-2.62-.72,4.92,4.92,0,0,1-2.66-.53c-2.12-1.47-5.06-.41-7.06-2.27-1.15-.07-2.29-.21-3.44-.2-1.47,0-2.44-1.25-3.84-1.38-.91-.08-1.84-.11-2.75-.22a5,5,0,0,1-2-.45c-1.45-.93-3-.92-4.64-1.06a4.44,4.44,0,0,1-2-.38,8.8,8.8,0,0,0-4.6-1.18,2.74,2.74,0,0,1-1.27-.42,5.44,5.44,0,0,0-3.21-1c-1.46.06-2.57-.92-3.9-1.18s-2.74-.25-4.1-.43a3.31,3.31,0,0,1-1.25-.51,5.38,5.38,0,0,0-2.6-.79c-1.61-.06-3.22-.09-4.82-.19a4.22,4.22,0,0,1-2-.42c-1.65-1.11-3.5-1-5.32-1.12a7.93,7.93,0,0,1-3.95-.93,4.49,4.49,0,0,0-2-.44c-1.83-.12-3.71,0-5.24-1.28a39.94,39.94,0,0,1-4.09-.44c-1.32-.28-2.56-1-3.88-1.21a25.77,25.77,0,0,0-4.12-.27,7.44,7.44,0,0,1-4-.92,4.42,4.42,0,0,0-2-.45c-1.61-.11-3.22-.13-4.83-.22-2.49-.13-5,.3-7.35-1.19a4.27,4.27,0,0,0-2-.28c-1.61-.07-3.22-.06-4.82-.15a6.09,6.09,0,0,1-2.67-.47c-1.89-1.15-3.93-1.14-6-1.23a4.62,4.62,0,0,1-2.65-.52c-1.44-1-3.07-.84-4.67-.67-.65.06-1.28.64-1.91.62s-1.24-.66-1.89-.71c-2.74-.23-5.5-.41-8.25-.48-7.12-.18-14.25-.31-21.37-.44a8.51,8.51,0,0,1-4-.84c-1.67-.88-3.61-.36-5.43-.58a5.77,5.77,0,0,0-3.23.94A2.24,2.24,0,0,1,26.62,12a8.25,8.25,0,0,0-1.94-.5c-2.07,1.49-4.44.76-6.69.86a6.18,6.18,0,0,1-4-.77,1.09,1.09,0,0,0-1.28.07,6.85,6.85,0,0,1-4,.71c-2.91-.05-5.82-.13-8.73-.21V601H3a.9.9,0,0,1-.38-.45c0-.37.23-.54.69-.64s.89,0,1,.45c0,.16-.4.49-.68.63h19.8a1.17,1.17,0,0,1,.68-1.41c.57-.32,1.18-.59,1.77-.88l0,.08.6-.29c1.35-.63,1.46-.63,2.24.14.48.48.95,1,1.41,1.46a1.25,1.25,0,0,1,.42.9H578.91C578.84,598.26,578.76,595.52,578.71,592.78Z"/><path class="cls-1" d="M10,2.37c.41-.1.82-.26,1.23-.39a12.12,12.12,0,0,0-1.15-.55,2,2,0,0,0-.65-.06c-.85-.05-1.72.41-1.31.62a7.81,7.81,0,0,0,1.19.38A2.65,2.65,0,0,0,10,2.37Z"/><path class="cls-1" d="M4.47,1a1.1,1.1,0,0,0,.67,0c.2-.07.51-.3.5-.43C5.6.15,5.22,0,4.69,0S3.8.24,4,.59A.82.82,0,0,0,4.47,1Z"/><polygon class="cls-1" points="375.43 104.55 375.89 104.83 375.95 104.39 375.43 104.55"/><path class="cls-1" d="M370.93,102.19a.79.79,0,0,0,1-.47c0-.08-.28-.38-.45-.41-.58-.11-1.17-.15-1.75-.21A1.36,1.36,0,0,0,370.93,102.19Z"/><path class="cls-1" d="M369.73,101.1a.5.5,0,0,1-.05-.13l-.11-.06v.18Z"/><path class="cls-1" d="M379.16,107.91a2,2,0,0,0,.62-.1c.44-.25.42-.62,0-1.06l-.47-.49c-.39-.38-.79-.49-1.11-.23a1,1,0,0,0-.22.56,1,1,0,0,0,.57,1.15A3.25,3.25,0,0,0,379.16,107.91Z"/><path class="cls-1" d="M330,76.71a.36.36,0,0,1,0,.1h.12l0-.1Z"/><path class="cls-1" d="M369,100.05c-.46-.21-.67,0-.39.29a3.1,3.1,0,0,0,.93.57A.86.86,0,0,0,369,100.05Z"/><path class="cls-1" d="M331.83,77a10.12,10.12,0,0,0-1.65-.15,1.28,1.28,0,0,0,1,1.13,12.56,12.56,0,0,0,1.62.19A1.21,1.21,0,0,0,331.83,77Z"/><path class="cls-1" d="M332.77,78.14a.43.43,0,0,1,0,.11h.12a.45.45,0,0,1,0-.11l-.05,0,.05,0Z"/><polygon class="cls-1" points="364.92 97.19 364.61 97.58 365.13 97.66 364.92 97.19"/><path class="cls-1" d="M588.62,596.78c.29.14.47-.1.49-.61s-.13-.76-.46-.8c-.11,0-.3.25-.36.42a1,1,0,0,0,0,.57A.71.71,0,0,0,588.62,596.78Z"/><path class="cls-1" d="M532.48,294.64a13.47,13.47,0,0,0-.13-1.57,1.29,1.29,0,0,0-1.05-1,13.82,13.82,0,0,0,.11,1.58A1.28,1.28,0,0,0,532.48,294.64Z"/><path class="cls-1" d="M532.66,294.81l-.06-.14a.53.53,0,0,1-.12,0,.76.76,0,0,0,0,.15Z"/><polygon class="cls-1" points="535.69 301.23 536.15 301.06 535.77 300.76 535.69 301.23"/><path class="cls-1" d="M533.5,295.43a.93.93,0,0,0-.84-.62,2.9,2.9,0,0,0,.49.94C533.47,296.08,533.67,295.89,533.5,295.43Z"/><path class="cls-1" d="M531.3,292.05v-.16l-.12.12Z"/><path class="cls-1" d="M519.34,271.1a.7.7,0,0,1,0-.14l-.17,0,.06.13h0A.7.7,0,0,0,519.34,271.1Z"/><path class="cls-1" d="M530.26,291.26a.92.92,0,0,0,.86.62,2.92,2.92,0,0,0-.5-1C530.3,290.61,530.09,290.8,530.26,291.26Z"/><polygon class="cls-1" points="526.36 283.01 526.76 283.08 526.62 282.62 526.36 283.01"/><path class="cls-1" d="M531.18,292l.12-.12a.53.53,0,0,1-.18,0Z"/><path class="cls-1" d="M543.05,315.57a2.55,2.55,0,0,0-.48-.91c-.34-.34-.53-.16-.34.3A1,1,0,0,0,543.05,315.57Z"/><path class="cls-1" d="M583.65,530.45c.47-.52.47-1-.1-1.22l-1.49-.68c-.56-.26-.81-.21-1.34.49a6.25,6.25,0,0,0-.62,1.19,1.1,1.1,0,0,0,1.11,1.2A2.87,2.87,0,0,0,583.65,530.45Z"/><path class="cls-1" d="M588,592.22a1.64,1.64,0,0,0-.05-.55,9.36,9.36,0,0,0-.46-1c-.11.35-.25.68-.33,1a2.81,2.81,0,0,0,0,.58,6,6,0,0,0,.32,1C587.61,593.66,588,592.93,588,592.22Z"/><polygon class="cls-1" points="547.07 284.97 547.53 284.75 547.14 284.43 547.07 284.97"/><path class="cls-1" d="M589.18,600.3c0-.16-.25-.28-.38-.42-.11.15-.29.29-.33.47a6.49,6.49,0,0,0-.11.66h1C589.29,600.77,589.24,600.53,589.18,600.3Z"/><polygon class="cls-1" points="537.02 303.61 537.16 304.1 537.43 303.67 537.02 303.61"/><path class="cls-1" d="M544.06,316.3a.87.87,0,0,0-.78-.58,2.8,2.8,0,0,0,.47.89C544.08,316.94,544.24,316.77,544.06,316.3Z"/><path class="cls-1" d="M520.53,272.35a1.3,1.3,0,0,0-1.19-1.25A1.27,1.27,0,0,0,520.53,272.35Z"/><path class="cls-1" d="M543.28,315.72a.75.75,0,0,0-.06-.13h0l-.17,0,.06.14Z"/><polygon class="cls-1" points="502.26 243.7 502.68 244.01 502.75 243.48 502.26 243.7"/><path class="cls-1" d="M473.57,201.82c-.17-.13-.41-.32-.56-.28a.67.67,0,0,0-.4.49c-.07,1.1-.1,2.2-.12,3.3,0,.66.49.79,1.42.39l1.11-.46A3.69,3.69,0,0,0,473.57,201.82Z"/><path class="cls-1" d="M475.15,205.36a.7.7,0,0,1,0-.14l-.1,0v.06Z"/><polygon class="cls-1" points="479.54 211.38 479.71 211.81 479.98 211.46 479.54 211.38"/><polygon class="cls-1" points="493.41 204.76 493.63 205.28 493.92 204.82 493.41 204.76"/><path class="cls-1" d="M520.66,272.5s0-.08,0-.13l-.12,0s0,.07,0,.12Z"/><path class="cls-1" d="M476.34,206.6a1.39,1.39,0,0,0-1.19-1.24A1.27,1.27,0,0,0,476.34,206.6Z"/><path class="cls-1" d="M477,207.71c.4.24.56.12.41-.31a1,1,0,0,0-.9-.65A1,1,0,0,0,477,207.71Z"/><path class="cls-1" d="M476.48,206.75s0-.08,0-.12l-.15,0c0,.05,0,.09,0,.14Z"/><polygon class="cls-1" points="483.54 215.94 483.98 216.01 483.84 215.54 483.54 215.94"/><path class="cls-1" d="M499.62,239.64a.93.93,0,0,0,.83.57,2.64,2.64,0,0,0-.51-.9C499.59,239,499.41,239.16,499.62,239.64Z"/><polygon class="cls-1" points="510.62 256.01 510.32 256.5 510.78 256.56 510.62 256.01"/><path class="cls-1" d="M518.33,270.33a.92.92,0,0,0,.81.61,2.89,2.89,0,0,0-.46-.91C518.36,269.72,518.16,269.89,518.33,270.33Z"/><path class="cls-1" d="M521.22,274.69a.78.78,0,0,0,.51-1,1.33,1.33,0,0,0-1.07-1.2c0,.59.06,1.18.14,1.76C520.83,274.43,521.13,274.72,521.22,274.69Z"/><polygon class="cls-1" points="507.73 252.41 508.18 252.23 507.81 251.94 507.73 252.41"/><path class="cls-1" d="M402.23,123.73s0,0,0,.06h0a.43.43,0,0,1,0,0Z"/><path class="cls-1" d="M501.51,241a1,1,0,0,0-.82-.63,2.75,2.75,0,0,0,.46.94C501.49,241.65,501.69,241.48,501.51,241Z"/><path class="cls-1" d="M500.69,240.36l-.06-.14a.55.55,0,0,1-.18,0,.54.54,0,0,0,.07.13l0,0,0,0Z"/></g></g></svg>