<svg xmlns="http://www.w3.org/2000/svg" viewBox="0 0 575.11 589.34"><defs><style>.cls-1{fill:#00ae66;}</style></defs><g id="Layer_2" data-name="Layer 2"><g id="Layer_1-2" data-name="Layer 1"><path class="cls-1" d="M161.88,28.1c0,.1.39.52.51.49a1.17,1.17,0,0,0,.83-1.35A1.25,1.25,0,0,0,161.88,28.1Z"/><path class="cls-1" d="M163.22,27.24h.11v-.05l-.11-.05A.41.41,0,0,1,163.22,27.24Z"/><path class="cls-1" d="M184.36,21.93c1,.5,1.68,0,1.76-1.09.18-2.56-.67-3.57-3.07-3.6a27,27,0,0,0-2.85.1,1.86,1.86,0,0,0-1.48,1,2.8,2.8,0,0,0-.19.83,2,2,0,0,1,.77.27C180.8,20.62,182.68,21.07,184.36,21.93Z"/><path class="cls-1" d="M84.49,21.17h-.17c0,.05,0,.09,0,.14h.12C84.48,21.27,84.49,21.22,84.49,21.17Z"/><path class="cls-1" d="M85.78,20.35c0-.08-.38-.51-.46-.47a1.28,1.28,0,0,0-.83,1.29A1.37,1.37,0,0,0,85.78,20.35Z"/><path class="cls-1" d="M407.12,2.24a1.11,1.11,0,0,0,.7-.53c.18-.57-1.34-.89-2.16-.41-.11.06-.22.43-.15.5A1.49,1.49,0,0,0,407.12,2.24Z"/><path class="cls-1" d="M410.88,14.38a1.42,1.42,0,0,0-1.27.84,1.76,1.76,0,0,0,1.71.54,9,9,0,0,1,.9,0,1.61,1.61,0,0,0,1.64-.64c.25-.39-.93-.88-2.07-.83C411.48,14.3,411.18,14.34,410.88,14.38Z"/><path class="cls-1" d="M455.11,1.19a1.11,1.11,0,0,0,.71-.54c.19-.57-1.37-.9-2.18-.41-.12.07-.22.44-.15.52A1.42,1.42,0,0,0,455.11,1.19Z"/><path class="cls-1" d="M373.7,3c.94.16,1.92.17,2.83.42a1.64,1.64,0,0,1,1.07,1.39,1.54,1.54,0,0,1-.53,1.7c-.51.35-1.12.57-1.66.89-.26.16-.71.47-.68.62a1.41,1.41,0,0,0,1.35.87,112.86,112.86,0,0,0,13.39-.06c2.87-.09,5.74-.2,8.61-.25a5.34,5.34,0,0,1,2.73.7,5.54,5.54,0,0,0,2.71.81c2.23,0,4.46.06,6.7.07,8,0,15.94-.07,22.3-.43,4.8-.1,8-.24,11.18-.23,6.7,0,13.38-.35,20.07-.75a4.66,4.66,0,0,0,3.3-1.65c.21-.23.48-.56.46-.82,0-.47-.58-.8-1.33-.81-3.19,0-6.38,0-9.57.06-8.29.17-16.58.44-24.87.52-11.17.12-22.33.35-33.48.81-3.19.13-6.38.07-9.57.06a5.38,5.38,0,0,1-1.88-.26,2.08,2.08,0,0,1-1.22-1.36,11.72,11.72,0,0,1-.32-1.88,2,2,0,0,0-1.72-1.87,76.08,76.08,0,0,0-9.55.19c-.78,0-1.25.44-1.12.82C373,2.76,373.41,2.93,373.7,3Z"/><polygon class="cls-1" points="298.33 9.48 297.88 9.95 298.63 10.05 298.33 9.48"/><path class="cls-1" d="M461.61,15.51a.57.57,0,0,0-.05.56,1.68,1.68,0,0,0,1.7.3c1-.33,1-.74,0-1.12A1.63,1.63,0,0,0,461.61,15.51Z"/><path class="cls-1" d="M197,14.58a18.66,18.66,0,0,0,2.59.21,17.89,17.89,0,0,0,2.17-.22c.84-.2,1.08-.68.71-1.24-1.32-2-3.33-2.52-5.86-1.62-.75.27-.94.75-.73,1.53C196.05,13.84,196.32,14.44,197,14.58Z"/><path class="cls-1" d="M178.46,19.17l.06.06s0-.06,0-.1l-.12,0s0,.07,0,.11l.13,0Z"/><path class="cls-1" d="M362.33,25.38c-.49-.33-.83,0-1.16,1.22l1.76,0A1.43,1.43,0,0,0,362.33,25.38Z"/><path class="cls-1" d="M575.11,80.8c-.05-1.6-.07-3.2-.09-4.8a10.64,10.64,0,0,0-1-4.63c-.42-.89.52-1.74.62-2.64a85.46,85.46,0,0,0,0-8.62,9.26,9.26,0,0,0-1.28-4.54,2.68,2.68,0,0,1,.29-2.69,5,5,0,0,0,.81-2.72c0-2.56,0-5.11,0-7.67-.07-8.31-.65-16.61-.52-24.93a4.39,4.39,0,0,0-.37-1.86,1.79,1.79,0,0,0-1.46-1.07,52.69,52.69,0,0,0-10.5.47,10.3,10.3,0,0,0-1.74.79,1.11,1.11,0,0,1-.84-.05c-1.92-1.14-2.84.39-4,1.43-.95.88-1.5.9-2.42.13-.49-.41-.93-.88-1.43-1.28a2.06,2.06,0,0,0-2.58-.09,5.16,5.16,0,0,1-5.41,0c-1.18-.6-1.32-.5-2.49.55-.47.43-.9.91-1.37,1.34a2.73,2.73,0,0,1-3.48.28c-.49-.41-1-.83-1.44-1.26a4.73,4.73,0,0,0-3.42-1.45c-5.44.11-10.87.24-16.3.33a4.47,4.47,0,0,0-2.6,1.08,2.57,2.57,0,0,1-2.68.26c-3-1.2-2.95-1.22-4.51-1.21-2.88,0-5.76,0-8.63.08-1.6,0-3.19.17-4.79.26a3.91,3.91,0,0,0-1.76.66c-1.65.95-3.32,1.88-5,2.71a5,5,0,0,1-3.72.13,12.4,12.4,0,0,1-1.7-.87,2.2,2.2,0,0,0-2.68.09,8.19,8.19,0,0,1-4.47,1.39,8.8,8.8,0,0,1-4.54-1.21,2.45,2.45,0,0,0-2.69.19,2.16,2.16,0,0,1-2.57.17,4.36,4.36,0,0,0-1.8-.56,10.23,10.23,0,0,0-6.45,1.22,4.43,4.43,0,0,1-4.55-.08,5.34,5.34,0,0,0-2.68-.91c-1.6,0-3.2,0-4.79-.08a8,8,0,0,0-5.38,1.64,6,6,0,0,1-1.85,0c-2.35-.68-2.38-.78-3.44-.17a3.64,3.64,0,0,1-1.8.57l-10.54.29a3.54,3.54,0,0,1-1.84-.42,3.88,3.88,0,0,0-1.72-.7c-.58,0-1.11.6-1.7.83a5.86,5.86,0,0,1-1.82.45c-3.19.12-6.39.21-9.58.27A6.25,6.25,0,0,0,399,23.15a1.08,1.08,0,0,1-.82.13c-.59-.19-1.16-.72-1.71-.69s-1.08.64-1.66.91c-1.29.62-2.29.2-3-1.21s-.81-1.6-1.94-1a5.73,5.73,0,0,1-2.66.92c-1.6.05-3.19.2-4.78.27a6.41,6.41,0,0,0-2.63,1.08,1.34,1.34,0,0,1-.81.13,2.89,2.89,0,0,1-.86-.43c-1.07-.69-1.71.48-2.56.55s-1.6-1.08-2.52-.54a7.25,7.25,0,0,1-3.54,1.26q-1.44,0-2.88.15c-.72.05-1.28.66-1.69,1.79l-1.85.18a1.74,1.74,0,0,1-.67,1.26c-.46.35-.79,0-1.33-1.23-1.25-.19-2.08-1.19-3.18-1.68-.6-.26-2.25.52-2.34,1.12s-.12,1.25-.2,1.87c-.21,1.66-.85,2.41-2.16,2.5-.93.06-1.87.11-2.8.11a2.86,2.86,0,0,1-2.81-2c-.63-1.43-1.89-1.84-2.93-1.19a1.87,1.87,0,0,0-.83,1.39c-.59,0-1.18,0-1.76,0a3,3,0,0,1-1.76-.6c-1.19-.72-1.73-.68-2.46.09a10.66,10.66,0,0,1-4.54,3.23,1.32,1.32,0,0,0-.63.68c-.28.56-.44,1.17-.72,1.73a1.37,1.37,0,0,1-1.62.68,1.61,1.61,0,0,1-1.45-1,6.71,6.71,0,0,0-1.3-2.48c-.88-.91-1.82-1.75-2.74-2.62s-2.28-1-3.38-1.6c-.28-.15-.54-.34-.82-.48-1.07-.54-1.14-.52-2.32.69a4.3,4.3,0,0,0-1.38,2.28c-1.14.48-1.67,1-1.78,1.78s-.22,1.89-.34,2.83c-.09.63-1.84,1.24-2.45.94a12.18,12.18,0,0,1-2.95-2.39c-.79-.75-1.39-.62-2.36.31-1.37,1.31-2.38,3-4.15,3.9-.13.06-.5-.17-.65-.35a3.58,3.58,0,0,1-.58-1.77c-.3-1.92-.59-2.46-1.07-2.22a1.85,1.85,0,0,0-.91,1.6,1.15,1.15,0,0,1-.52.74c-.47.27-.86-.07-1.21-.79-.84-1.79-.85-1.77-1.75-1.32a6.32,6.32,0,0,1-2.63,1c-2.23.06-4.46.24-6.68.33a5.74,5.74,0,0,0-2.62,1,6.34,6.34,0,0,1-.82.49,2.27,2.27,0,0,1-1.81,0c-.62-.3-.51-.79-.12-1.53.62-1.15.54-1.22-1.07-1.93a3,3,0,0,1-1.88-1.94c-.4-1.17-.53-1.16-1.92-1.74a4.65,4.65,0,0,0-1.51-2.29,5.73,5.73,0,0,0-1.57-.95c-.17-.07-.51.32-.78.49a4.93,4.93,0,0,1-2.65.93c-1.27,0-2.55,0-3.82.12a3,3,0,0,1-3.51-2.43,1,1,0,0,0-.67-.63c-.19,0-.59.33-.64.57-.38,1.76-1.62,2.57-3.17,3.15a1.67,1.67,0,0,0-.94,1.41,16.73,16.73,0,0,1-2.75-.21c-.58-.14-1-.72-1.63-1-.85-.4-1.77-.67-2.63-1.06-.58-.27-1.07-.72-1.64-1-.84-.42-1.78-.59-2.63-1.08a5.25,5.25,0,0,0-3.56-1c-1.92,0-3.83.05-5.75.1a4,4,0,0,1-2.59-1c-.76-.59-1.44-1.27-2.21-1.83a4.63,4.63,0,0,0-3.66-.63,4.21,4.21,0,0,0-.89.29c-2.05.85-2.08.93-3.34.26s-2.45-.68-3.49-1.48a4.17,4.17,0,0,0-2.68-.8c-1.6,0-3.2,0-4.8,0-1.27,0-2.55.11-3.82.2a1.53,1.53,0,0,0-1.44.92c-.07.21.26.55.4.84.5,1,.13,1.78-.92,1.87s-1.91.15-2.86.19c-.32,0-.64-.07-1-.09-.91-.06-1.35-.4-2-1.76-.29-.65-.59-1.17-1.16-1.17-.21,0-.5.38-.65.64-1.18,2.25-1.18,2.26-3,.6-.95-.86-1.88-1.74-2.83-2.6-.8-.73-1.5-.65-2.39.26-1.55,1.58-3.25,3.05-3.8,5.38-.15.62-.89.83-1.49,1.11-1.62.74-1.61.78-1.74,2-.07.59-.09,1.18-.12,1.78-.58,0-1.15,0-1.72,0a1.92,1.92,0,0,1-1.91-1.61c-.11-.6-.18-1.21-.28-1.82-.2-1.22-.27-1.37-1.62-2a5,5,0,0,1-1.62-.83c-.06-.95.65-1.56,1-2.32a2.63,2.63,0,0,0,.14-.8,3,3,0,0,1-1.57-.68,1.68,1.68,0,0,0-2.38-.13c-1.22,1-2.92,1.05-4.09,2.16a2.64,2.64,0,0,1-1.69.67c-1.25.09-2.48.22-3.72.35a2.1,2.1,0,0,0-1.66,1.93c0,1.22,0,2.45.05,3.67,1.36.56,1.6.82,1.73,1.76a2,2,0,0,1-.54,1.77,7.12,7.12,0,0,1-.62.72,9.23,9.23,0,0,1-1.53,1c-.16.07-.54-.28-.8-.47A6.71,6.71,0,0,0,158,31c-1.88-.14-1.93-.24-1.49-1.5a6.44,6.44,0,0,0,.35-.88.89.89,0,0,0-.19-.71,2.2,2.2,0,0,0-1.79-.31c-1.4,1.3-2.86,2.54-4.19,3.91a6.43,6.43,0,0,1-4.19,2,3.19,3.19,0,0,0-.94.16,1.61,1.61,0,0,0-1,1.44,2.55,2.55,0,0,0,0,.92c.33.83.79.8,1.49.22a5.15,5.15,0,0,1,4.51-.85,1.22,1.22,0,0,1,.71.6c.06.11-.21.55-.41.63a4.58,4.58,0,0,0-3.11,3.27,1.08,1.08,0,0,1-.6.71c-.9.17-1.82.24-2.73.34-.45-1.11-1-1.68-1.71-1.75-.94-.09-1.88-.1-2.81-.23a1.11,1.11,0,0,1-.69-.61c-.06-.12.23-.51.45-.63.54-.29,1.15-.46,1.7-.76a1.26,1.26,0,0,0,.64-.67,13.83,13.83,0,0,0,.17-1.83c-1.14-1.86-3.54-2.77-3.92-5.22a1.14,1.14,0,0,0-.58-.7,1,1,0,0,0-.78.07,6.86,6.86,0,0,1-3.51,1.24c-1.59,0-3.18,0-4.75-.17a3.74,3.74,0,0,1-1.7-.74c-.62-.45-1.13-.58-1.68-.18a1.88,1.88,0,0,1-2.49.07,2.69,2.69,0,0,0-3.44.12c-1,.69-1.8.4-2-.61a23.34,23.34,0,0,0-.53-2.77c-.23-.68-.88-.82-1.55-.81s-1.29.17-1.51.87c-.87,2.75-.15,5.58-.29,8.37a2.68,2.68,0,0,0-.77.25c-.51.34-1,.76-1.46,1.13a2.07,2.07,0,0,1-3.13-.61,3.24,3.24,0,0,0-3.45-2.42c-1.24.06-2.49,0-3.72.1a3.31,3.31,0,0,0-1.76.43c-1.47,1.19-3.4,1.51-4.84,2.7a4.86,4.86,0,0,1-4.38.79.9.9,0,0,1-.72-1.33,11.62,11.62,0,0,0,1.24-2.4C91.8,32,92,32,92.29,30.84A2.65,2.65,0,0,1,95,28.79a12.09,12.09,0,0,0,3.69-.55,1.46,1.46,0,0,0,.71-.61,1.84,1.84,0,0,0,.1-1.72c-.34-.67-.89-.66-1.53-.1a2.73,2.73,0,0,1-.82.45c-1.86.71-3.65.84-5.23-.66-.45-.44-.9-.88-1.37-1.29-1-.84-1.34-.95-2.37-.2a1.14,1.14,0,0,1-1.69,0,5.34,5.34,0,0,1-2.14-2.79,6,6,0,0,0-4.31,1.4,2,2,0,0,1-.85.36,2.34,2.34,0,0,1-1,0c-.82-.19-1.07-.66-.7-1.3.83-1.42,0-2.29-1-3.18C76,18,75.5,18,74.9,18.48c-.89.77-1.71.36-2.49-.23a10.46,10.46,0,0,0-2.3-1.69c-.81-.31-1.58.76-2.53.56-2.44-1.73-4.79-1.19-7.14.23-.1,0-.5-.23-.65-.44a6.29,6.29,0,0,1-.67-2.73c-.12-.72-.5-1.18-1-1.13-.23,0-.56.39-.62.65a6.64,6.64,0,0,1-1.27,2.53c-.87,1.14-1.43,1.46-2.31,1a7.81,7.81,0,0,0-3.64-1,4.69,4.69,0,0,1-2.65-1c-.65-.44-1.06-.39-1.63.23a21.38,21.38,0,0,1-2.12,1.91c-.87.74-1,.64-1.93-1.09-.72-1.42-1-1.61-2.1-1.42a1.69,1.69,0,0,0-1.39,1.07c-.12.29-.14.63-.28.91a1.55,1.55,0,0,1-.56.73c-.5.25-1-.07-1.18-.83a2.22,2.22,0,0,0-.95-1.59c-.15-.08-.53.23-.78.4a4.84,4.84,0,0,1-6.17,0c-.77-.55-1.47-1.22-2.21-1.83-.54-.44-1-.24-1.66.2-1,.71-1.16.66-1.87-1a2.33,2.33,0,0,0-2.15-1.53,10.21,10.21,0,0,0-6.46,1.25,4.2,4.2,0,0,1-1.83.41,8.63,8.63,0,0,1-5.54-.94A4.79,4.79,0,0,0,4,11.78c-1.6.06-2,.43-1.51,1.38a10.21,10.21,0,0,1,.87,1.67,1.7,1.7,0,0,1-.44,1.74A1.78,1.78,0,0,1,0,16V589.34H562.64l0-.05,0,.05h5.12a2.44,2.44,0,0,1,.35-2.23c.43-.48.76-1.05,1.22-1.48a2.45,2.45,0,0,0,.52-3.33c-.46-.88.7-1.65.79-2.52a46.61,46.61,0,0,0-.08-8.6,3.62,3.62,0,0,0-.72-1.73,1.39,1.39,0,0,1-.19-1.72,4.51,4.51,0,0,0,1-2.64,9.54,9.54,0,0,1,1.39-6.38,8.15,8.15,0,0,0-.17-1.86c-.18-.6-.77-1.12-.82-1.7a4.43,4.43,0,0,1,.58-1.73,2.87,2.87,0,0,0-.1-2.73,13.46,13.46,0,0,1-1.6-3.44,8,8,0,0,1-1.66-5.36c0-1.07.07-1.48,1.09-3.57a1.44,1.44,0,0,0-.34-1.67,2.84,2.84,0,0,1-.16-3.51,4.74,4.74,0,0,0,1-2.62c0-2.23,0-4.47,0-6.7a3.34,3.34,0,0,1,.47-1.83,3.57,3.57,0,0,0,.74-1.68c0-.56-.63-1.08-.9-1.66a27.09,27.09,0,0,0-1.7-3.41c-.39-.6-.17-1.06.61-1.38s2.14-.38,1.5-1.64a49.67,49.67,0,0,0-2.59-5.09,4.33,4.33,0,0,1-.45-1.82c-.21-1.92-.24-3.82,1-5.5a.9.9,0,0,0,0-.81,8.1,8.1,0,0,1-1.39-5.44c0-1,0-1.92-.06-2.88s-.06-1.92-.06-2.88c0-1.35-.84-2.36-1.41-3.48a1,1,0,0,1,.15-.82,3.24,3.24,0,0,0,.1-4.33c-.18-.26-.49-.64-.41-.84a1.78,1.78,0,0,1,1.44-.95,7.56,7.56,0,0,0,2.72-.71,1.44,1.44,0,0,0,.62-1.66c-.23-1.28-1.35-2.16-1.53-3.43s-.2-2.54-.31-3.82a6.41,6.41,0,0,0-1.24-2.54,4.39,4.39,0,0,1-.18-4.54,8.8,8.8,0,0,0,1.35-4.5,2.45,2.45,0,0,1,.2-.91c.11-.3.31-.56.44-.85,1-2.24,1.07-2.28-.17-4.39a4.86,4.86,0,0,1-.35-4.54c.23-.59.68-1.1.89-1.69a2.83,2.83,0,0,0-.28-2.69c-1.16-1.8-1.09-1.83-1.15-3.56,0-.64,0-1.28,0-1.92a3.89,3.89,0,0,1,.84-2.67c.48-.66.54-1.11-.05-1.7-.87-.87-.2-1.67.14-2.52s-.67-1.67-.63-2.53,1.29-1.53.39-2.55a1.43,1.43,0,0,1-.33-1.69c.14-.28.3-.56.43-.85a5.84,5.84,0,0,0,.62-3.7c-.11-1.57.21-3.2-.59-4.68-.3-.56-.76-1.05-1-1.63a4.72,4.72,0,0,1,.28-4.55c.52-.79,1.23-1.46,1.82-2.22a5,5,0,0,0,.83-3.62,7.77,7.77,0,0,0-1-2.66,1.31,1.31,0,0,1-.14-.83c.17-.6.64-1.19.6-1.75s-.76-1.12-.79-1.7c-.19-2.88-.33-4.41-.73-5.15s-1-1.64-1.42-2.48a5,5,0,0,1-.3-2.8c.1-1.07.3-1.4,1.64-2.07.64-.32,1.25-.69,1.1-1.19s-.87-.82-1.56-.93a1,1,0,0,1-.7-.57c-.14-.53.31-.86,1-1.18,1.53-.73,1.53-.77.95-2a6.19,6.19,0,0,1-.46-.83,3.16,3.16,0,0,1,.24-2.72c.69-1.15.66-1.22-.13-2.53a4.22,4.22,0,0,1-.69-1.74,9.24,9.24,0,0,1,1.15-6.45,3.57,3.57,0,0,0,.39-1.83c0-1.27,0-2.55,0-3.83a7,7,0,0,0-1.19-3.58,1,1,0,0,1-.06-.83,7.54,7.54,0,0,0,1-4.57c-.08-1.28,0-2.56-.06-3.84,0-1.44,0-1.47-1.45-4.45a4.42,4.42,0,0,1-.5-1.82c-.07-4.15-.12-8.31-.22-12.46a6.05,6.05,0,0,1,1-2.66,1.4,1.4,0,0,0,.17-.83c-.28-.84-1.16-1.54-.4-2.59,1-1.4-.56-2.24-.81-3.38a6.13,6.13,0,0,1-.1-.95c-.31-10.54-.72-21.08-.72-31.62a5.22,5.22,0,0,1,.91-2.69,1.39,1.39,0,0,0-.17-1.71c-1.12-1.67-1-3.63-1.12-5.53a7.07,7.07,0,0,1,1.18-4.55,2.32,2.32,0,0,0,.08-2.64c-.3-.57-.89-1.1-.9-1.65s.5-1.14.83-1.69a3.39,3.39,0,0,0,.47-1.82c0-1.28,0-2.56,0-3.83a5.64,5.64,0,0,0-1.22-3.53,4.9,4.9,0,0,1-.86-2.69c.08-2.56,0-5.11-.16-7.66a4.81,4.81,0,0,1,.82-2.7,4.91,4.91,0,0,0,.9-2.67q-.25-9.1-.47-18.21a6.39,6.39,0,0,0-1-2.64A1.78,1.78,0,0,1,566,214a3.86,3.86,0,0,0,.58-1.78q-.09-8.62-.31-17.25a5.87,5.87,0,0,0-1.19-2.57c0-1.27,1.17-2.17,1.12-3.51-.1-2.56-.05-5.12-.09-7.67q-.11-8.15-.25-16.3a3.35,3.35,0,0,1,.4-1.83,8.2,8.2,0,0,0,1.22-4.54c-.21-8.63-.37-17.26-.55-25.88,0-1.93,0-3.84,1.13-5.53a.93.93,0,0,0-.08-.82,6.85,6.85,0,0,1-1.18-3.58c0-1.91-.09-3.83-.13-5.75a4.92,4.92,0,0,1,.88-2.67,4.74,4.74,0,0,0,.86-2.67c0-1,0-1.92,0-2.88a1.86,1.86,0,0,1,.81-1.62,1.57,1.57,0,0,1,1,1.38c.15,3.83.26,7.67.35,11.5q.54,23,1,46a5.45,5.45,0,0,0,.48,2.76c.12.21.39.32.59.47.17-.27.47-.53.48-.81a37.47,37.47,0,0,0,.08-3.82c-.34-9.59-.34-19.18-.36-28.77a3.62,3.62,0,0,1,.44-1.83,7,7,0,0,0,1.05-3.62c-.07-6.07-.11-12.15-.18-18.22q-.17-12.95-.35-25.89a5.9,5.9,0,0,1,.66-2.75A5.74,5.74,0,0,0,575.11,80.8ZM289.26,36.47a1.53,1.53,0,0,1,1.53-.32c.74.26.87.71.42,1.09a1.71,1.71,0,0,1-1.54.38c-.23,0-.4-.37-.6-.57C289.13,36.85,289.13,36.58,289.26,36.47Zm-14.47-7.81c.59-.05,1.18-.05,1.77-.07,0,.59,0,1.18-.06,1.77-.1,1.37-.46,1.7-1.72,1.69s-1.71-.4-1.68-1.67S273.43,28.79,274.79,28.66Zm-15.94,1.16c0,.11-.38.55-.49.52a1.23,1.23,0,0,1-.89-1.33A1.23,1.23,0,0,1,258.85,29.82Zm-21.18,2.3-.38.6L237,32Zm-24-3c.11-.21.5-.47.63-.42a1.41,1.41,0,0,1,.63.69A1.43,1.43,0,0,1,214.4,31c-.22-.07-.54-.08-.64-.24A1.6,1.6,0,0,1,213.65,29.08ZM212,22.85l.65.41-.72.29Zm-17.56,9a1.63,1.63,0,0,1,1.19-1.25c.7-.22,1.42-.13,1.67.51.18.47-.31,1.08-.8,1.55a3.78,3.78,0,0,1-.73.59c-.24.14-.62.37-.79.28A1.25,1.25,0,0,1,194.42,31.85Zm-.88-6.18c0,.08-.36.3-.56.46-.18-.18-.55-.46-.51-.54C192.86,24.85,193.27,24.88,193.54,25.67Zm-7.63,3.86c0,.1-.41.54-.55.51a1.15,1.15,0,0,1-.88-1.34A1.29,1.29,0,0,1,185.91,29.53Zm-6.46,9.65c.42-.35,1-.26,1.9.38a6.46,6.46,0,0,0,3.36.73c.72,0,1.2.45,1.17,1,0,.23-.4.49-.67.62-.56.28-1.19.45-1.75.74s-1.08.67-1.62,1c-.72-.62-1.48-1.21-2.16-1.87A2,2,0,0,1,179.45,39.18Zm-6.17-4.81c.33-1.25.78-1.66,1.78-1.51a1.22,1.22,0,0,1,1.22.9c.05.23-.19.57-.39.78a10.42,10.42,0,0,1-1.31,1.17,1,1,0,0,1-.74.19C173.21,35.6,173.1,35.06,173.28,34.37Zm-3.11-10.58-.07.7-.62-.39ZM159.46,37.12c.65-.16,1.23-.07,1.45.54.15.39-.36.71-1,.9A1,1,0,0,1,158.5,38C158.48,37.52,158.82,37.28,159.46,37.12Zm-15.17,4a1.24,1.24,0,0,1-.77,1.29c-.09,0-.51-.37-.48-.46A1.27,1.27,0,0,1,144.29,41.13Zm-7-7,.66.39-.72.3Zm-1.64,3.71c.19,0,.51.41.48.48-.37.7-.73.66-1-.08C135.33,38.1,135.53,37.81,135.69,37.84Zm-9.23-3.06c0,.09-.32.3-.5.46-.16-.18-.49-.44-.45-.53C125.85,34,126.23,34,126.46,34.78Zm-6.23-.43c.75.35.72.74-.07,1-.1,0-.31-.34-.47-.52C119.87,34.65,120.14,34.31,120.23,34.35Zm-1.5,4.19-.38.66-.3-.71Zm-3.44-4.46a1.49,1.49,0,0,1,1.55.84,1.34,1.34,0,0,1-1.5.81c-1-.13-1.29-.4-1.74-1.61C114.16,34.11,114.73,34.12,115.29,34.08ZM89.47,31.27a1.18,1.18,0,0,1,.91,1.33,1.22,1.22,0,0,1-1.4-.81C88.94,31.68,89.35,31.24,89.47,31.27ZM85.76,39c.77.34.75.72-.06,1-.1,0-.32-.32-.48-.49C85.41,39.3,85.67,39,85.76,39Zm-3.35,3.61A1.41,1.41,0,0,1,84,43c.16.14.2.4.29.6a2.48,2.48,0,0,1-.67.52A1.63,1.63,0,0,1,82,43.78C81.56,43.4,81.68,42.91,82.41,42.61ZM73.72,33.8A1.58,1.58,0,0,1,75.3,33a10.27,10.27,0,0,1,1.84.1c1.48.3,2,1.31,1.29,2.74a1.23,1.23,0,0,1-1.6.7,3.59,3.59,0,0,1-2.37-1.24C74,34.85,73.53,34.25,73.72,33.8ZM69.15,23.67a1.45,1.45,0,0,1,1.35.78,1.42,1.42,0,0,1-1.38.75,1.51,1.51,0,0,1-1.36-.8A1.52,1.52,0,0,1,69.15,23.67Zm-3-3.5c.78.36.75.76-.07,1-.1,0-.33-.35-.5-.54C65.75,20.47,66,20.12,66.13,20.17ZM53.3,23c0,.1-.38.34-.58.52-.19-.2-.57-.49-.53-.58C52.57,22.07,53,22.1,53.3,23Zm-29.57,152-.06.64-.62-.37Zm294.15-144a1.25,1.25,0,0,1-.84-1.25,1.22,1.22,0,0,1,1.3.77C318.37,30.5,318,30.93,317.88,30.89Zm1.88,9.38.38-.65.31.71Zm25.72-8.71c-.1.26-.4.61-.62.62a.91.91,0,0,1-.65-.57c-.15-.82-.2-1.66-.27-2.5C345.32,29.56,345.91,30.46,345.48,31.56Zm12.25-2c.19-.14.39-.43.55-.4s.51.4.47.48C358.39,30.29,358,30.25,357.73,29.51Zm9.84-1.4a1.9,1.9,0,0,1-1.72-.11,1.71,1.71,0,0,1-.85-1.32c.56,0,1.12,0,1.67,0a1.36,1.36,0,0,1,1.5.81C368.22,27.59,367.83,28,367.57,28.11ZM378.92,28a1.43,1.43,0,0,1-1.54-.32c-.15-.14-.18-.39-.27-.59a2.21,2.21,0,0,1,.67-.5,1.59,1.59,0,0,1,1.56.27C379.78,27.19,379.65,27.66,378.92,28ZM552,281.25l-.29-.69.69.07Zm8.3,289.86c-.16-.18-.48-.44-.44-.52.34-.7.71-.67.94.08C560.79,570.76,560.44,571,560.27,571.11Zm6.36,6.26a1.43,1.43,0,0,1,1.51.35,1.76,1.76,0,0,1,.26.59,2.64,2.64,0,0,1-.66.48,1.48,1.48,0,0,1-1.53-.27C565.8,578.15,565.92,577.66,566.63,577.37Z"/><path class="cls-1" d="M361.17,26.6H361a1,1,0,0,1,.05.12l.1,0Z"/><path class="cls-1" d="M363,26.69a.5.5,0,0,0,0-.12h-.13a.49.49,0,0,1,0,.12Z"/></g></g></svg>