<svg xmlns="http://www.w3.org/2000/svg" viewBox="0 0 581.8 597.95"><defs><style>.cls-1{fill:#038675;}</style></defs><g id="Layer_2" data-name="Layer 2"><g id="Layer_1-2" data-name="Layer 1"><path class="cls-1" d="M414,128.24a1.1,1.1,0,0,1,0-.18l-.18-.05a1.36,1.36,0,0,1,0,.2Z"/><path class="cls-1" d="M415.88,130.22c0-.06,0-.11-.05-.17l-.18,0a.59.59,0,0,1,0,.19Z"/><path class="cls-1" d="M409.3,125.6a9.42,9.42,0,0,0,2.58.45,6.65,6.65,0,0,0-2.83-3.36l-2.6-.44a1.81,1.81,0,0,0,.15.76A6,6,0,0,0,409.3,125.6Z"/><path class="cls-1" d="M412.13,126.29a1.55,1.55,0,0,1,0-.21l-.21,0c0,.06,0,.12.05.18Z"/><path class="cls-1" d="M413.77,128a2,2,0,0,0-1.64-1.72A1.77,1.77,0,0,0,413.77,128Z"/><path class="cls-1" d="M415.65,130a1.76,1.76,0,0,0-1.68-1.77A1.88,1.88,0,0,0,415.65,130Z"/><path class="cls-1" d="M87.36,1.17H87.2a.57.57,0,0,1,0,.13h.13A.68.68,0,0,1,87.36,1.17Z"/><path class="cls-1" d="M88.59.49c0-.09-.3-.51-.36-.49a1.28,1.28,0,0,0-.87,1.17A1.17,1.17,0,0,0,88.59.49Z"/><path class="cls-1" d="M581.2,542.59a7.68,7.68,0,0,1-.84-3.68q.23-10.06.39-20.14c0-1-.08-1.92-.08-2.88a4,4,0,0,0-.41-1.85,9.19,9.19,0,0,1-1-4.61c.22-8.63.4-17.26.6-25.9a10.66,10.66,0,0,0-1.06-5.57,4.13,4.13,0,0,1-.39-1.85c0-3.51,0-7-.05-10.54a4.33,4.33,0,0,0-.48-1.83,7.94,7.94,0,0,1-.91-3.67c0-1.92-.09-3.83-.12-5.75a4,4,0,0,0-.46-1.84,8.55,8.55,0,0,1-1.16-4.58,8.89,8.89,0,0,0-1.15-4.58,8.55,8.55,0,0,1-.51-3.76,8,8,0,0,0-1-3.66,3.73,3.73,0,0,1-.53-1.81c-.06-1.6-.18-3.19-.22-4.79a6,6,0,0,0-.79-2.74,7.65,7.65,0,0,1-.83-3.69,9.37,9.37,0,0,0-1.07-4.61,3.62,3.62,0,0,1-.43-1.84c.06-3.2.12-6.39.15-9.59,0-1.6,0-3.19,0-4.79a3.25,3.25,0,0,0-.49-1.83c-.86-1.36-1.09-3-1.9-4.38a7.33,7.33,0,0,1-1-3.64c0-1.28,0-2.56-.14-3.83a4.57,4.57,0,0,0-.49-1.83,9.05,9.05,0,0,1-1-4.61,8.25,8.25,0,0,0-1-3.65,27.44,27.44,0,0,0-3.34-5.77,4.9,4.9,0,0,1-1-2.64,8.42,8.42,0,0,0-.76-2.75q-1.26-2.58-2.37-5.22a5,5,0,0,1-.4-1.85,13.32,13.32,0,0,0-1.59-6.41,47.47,47.47,0,0,1-1.79-4.42c0-2.67-1.76-4.75-2.52-7.17-.29-.9-1.08-1.64-1.07-2.63,0-2.36-1.64-4.13-2.07-6.33-1.38-3.2-3.4-6.15-3.76-9.74-1.73-3.77-3.43-7.54-5.2-11.29a11.3,11.3,0,0,0-1.59-2.37c-1.23-1.47-2.53-2.88-3.81-4.32a12.24,12.24,0,0,1-2-3.24c-2-4.36-4.05-8.66-6.11-13a20.64,20.64,0,0,0-4-6.45,28.51,28.51,0,0,1-3-4.87c-.9-1.68-1.44-3.58-2.74-5s-1.89-3.32-2.92-4.91-2.51-2.9-3.64-4.44c-.93-1.28-1.54-2.79-2.46-4.08-1.11-1.56-2.4-3-3.59-4.48a4,4,0,0,1-.47-.83c-.14-.29-.21-.61-.36-.89L498,248.9a31.36,31.36,0,0,0-2.7-4,13.34,13.34,0,0,0-3-4.84c-.82-1-1.62-2-2.43-3-.75-2.57-2.7-4.28-4.41-6.17a4.88,4.88,0,0,1-1.09-1.57c-.8-2.53-2.62-4.33-4.28-6.27a9.57,9.57,0,0,1-1.62-2.35,12.18,12.18,0,0,0-2.06-3.2q-3.84-4.31-7.65-8.61a5.14,5.14,0,0,1-1.14-1.53c-.85-2.55-2.89-4.17-4.58-6.06-1.92-2.14-3.84-4.29-5.69-6.5a17.08,17.08,0,0,1-1.49-2.44,3.16,3.16,0,0,0-1.27-1.36,12.7,12.7,0,0,1-3.81-2.88q-7.83-8.43-15.63-16.91a7.38,7.38,0,0,1-1.51-2.42,4.93,4.93,0,0,0-1-1.63q-5.49-6-11.05-12a9.85,9.85,0,0,0-3.11-2.19,2.78,2.78,0,0,1-1.29-1.35c-.71-1.43-1.43-2.85-2.11-4.29a2.76,2.76,0,0,0-1.13-1.5c-1.8-.8-3.12-2.21-4.61-3.4a23.89,23.89,0,0,0-3.3-1.92,16,16,0,0,0-1.66-.94,9.24,9.24,0,0,1-3.11-2.19c-1.34-1.38-2.62-2.82-4-4.16-1.59-1.57-3.1-3.26-5.28-4.06-.95-.85-1.91-1.69-2.84-2.57s-2.3-1.09-3.31-1.85a36.18,36.18,0,0,1-2.85-2.56,14.34,14.34,0,0,0-3.77-2.92,5.93,5.93,0,0,1-1.56-1.09c-2.13-1.92-4-4.14-6.74-5.31-1.16-1.1-2.31-2.2-3.48-3.29a14.5,14.5,0,0,0-3.1-2.2c-2.51-1.37-5.15-2.57-7.19-4.68a7.51,7.51,0,0,0-1.56-1.09c-.82-.48-1.66-.94-2.51-1.38-2-1-4.05-1.91-5.56-3.65-1.09-.65-2.23-1.22-3.26-2a32,32,0,0,0-2.94-2.44c-1.94-1.06-3.71-2.52-6-2.81a6.28,6.28,0,0,1-2.66-1c-2.7-1.7-5.58-3.07-8.36-4.62a20.48,20.48,0,0,1-4.77-3.13,10.51,10.51,0,0,0-2.41-1.51c-4.73-2.65-9.6-5-14.31-7.71-2.21-1.25-4.52-2.36-6.75-3.57-2-1.07-4.36-1.07-6.11-2.61-1.54-.49-2.74-1.64-4.22-2.21a12.49,12.49,0,0,1-4-2.62c-1.69-1.53-3.88-2.16-5.78-3.31a13.22,13.22,0,0,1-4.49-1.57c-1.35-.83-2.93-1.26-4.24-2.2a1.8,1.8,0,0,0-.86-.38c-2.34-.14-4.19-1.52-6.13-2.55a32.87,32.87,0,0,0-6.23-2.3c-1.2-.36-2.17-1.38-3.48-1.53a13.27,13.27,0,0,1-4.41-1.79c-2.93-.3-5.3-2.06-7.92-3.15a4.9,4.9,0,0,1-.83-.49,7.9,7.9,0,0,0-2.71-.87,6,6,0,0,1-1.8-.6,10.7,10.7,0,0,0-4.46-1.6,3.82,3.82,0,0,1-1.76-.71,6.83,6.83,0,0,0-3.57-1.25c-.32,0-.64-.06-1-.08a7.53,7.53,0,0,1-3.58-1.18c-1.91-1.2-4.41-.85-6.24-2.31a2.07,2.07,0,0,0-.88-.35c-.63-.12-1.26-.2-1.9-.28-1.27-.15-2.54-.3-3.81-.42a3.68,3.68,0,0,1-1.77-.66,8.77,8.77,0,0,0-4.58-1.2,7.06,7.06,0,0,1-3.58-1.18,4.79,4.79,0,0,0-1.73-.77,12.25,12.25,0,0,1-4.48-1.58,4,4,0,0,0-1.83-.52c-1.59-.13-3.18-.31-4.77-.44a4,4,0,0,1-1.8-.6,7.38,7.38,0,0,0-3.59-1.2c-1.91-.12-3.83-.26-5.74-.46a5.48,5.48,0,0,1-1.82-.5c-1.72-.84-3.41-1.73-5.09-2.65a4.18,4.18,0,0,0-1.8-.6c-2.55-.14-5.11-.32-7.66-.45a6.78,6.78,0,0,1-3.59-1.14,5.36,5.36,0,0,0-2.69-.9c-1.91-.14-3.83-.23-5.74-.37a6.1,6.1,0,0,1-2.69-.9,6,6,0,0,0-2.69-.91c-1.59-.12-3.18-.32-4.78-.44a3.69,3.69,0,0,1-1.78-.64,7.49,7.49,0,0,0-3.59-1.2c-1.28-.1-2.56-.19-3.82-.36a5,5,0,0,1-1.81-.53,10,10,0,0,0-4.52-1.4c-1.92-.12-3.84-.24-5.74-.46a6.47,6.47,0,0,1-1.76-.68,8,8,0,0,0-2.69-.92c-2.24-.14-4.47-.35-6.7-.49a3.67,3.67,0,0,1-1.79-.6,7,7,0,0,0-3.58-1.23,50,50,0,0,1-6.69-.44,2.06,2.06,0,0,1-1.57-2c0-.59-.06-1.18-.1-1.78a5.57,5.57,0,0,0-3.51.88,4.05,4.05,0,0,1-2.62,1c-6.07-.29-12.14-.59-18.21-.8C53,2,43.05,1.76,33.14,1.46c-2.24-.07-4.48-.2-6.71-.28A3.37,3.37,0,0,1,24.6.69a3.19,3.19,0,0,0-3.55,0,4.15,4.15,0,0,1-1.86.3C12.79.89,6.39,1,0,.69V598H580.35c.22-5.2.29-10.39.17-15.59a3.65,3.65,0,0,0-.58-1.8,1.38,1.38,0,0,1,.06-1.77,5.12,5.12,0,0,0,.76-2.73q.53-14.87,1-29.73a9.41,9.41,0,0,0-.09-1.91A6.37,6.37,0,0,0,581.2,542.59ZM85.68,14l.1-.66.64.42Z"/><path class="cls-1" d="M422,133.75c.23-.06.39-.36.58-.55-.21-.19-.4-.5-.64-.55-.76-.18-1.54-.28-2.31-.4C420.26,133.53,421,134,422,133.75Z"/><path class="cls-1" d="M417.71,131.79l1.68.26a2.11,2.11,0,0,0-1.83-1.66c-.55-.1-1.12-.12-1.68-.17A2,2,0,0,0,417.71,131.79Z"/><path class="cls-1" d="M419.45,132.22l.21,0-.09-.17-.08.09.08-.09-.18,0a.85.85,0,0,1,.06.17Z"/><path class="cls-1" d="M402.26,120.49a5.07,5.07,0,0,0,4,1.59,1.59,1.59,0,0,0-.15-.77,32.44,32.44,0,0,0-5.67-6.09,3.14,3.14,0,0,0-1.68-.75c-.55-.07-1.1-.12-1.66-.18a3.15,3.15,0,0,0,.61,1.54A52.45,52.45,0,0,0,402.26,120.49Z"/><path class="cls-1" d="M392.91,110.31a11.8,11.8,0,0,0-1.46-.07,2.19,2.19,0,0,0,2.15,1.85,11.33,11.33,0,0,0,1.43,0A2.22,2.22,0,0,0,392.91,110.31Z"/><path class="cls-1" d="M483.4,208.4c.1,0,.52-.35.49-.46a1.13,1.13,0,0,0-1.24-.86A1.23,1.23,0,0,0,483.4,208.4Z"/><path class="cls-1" d="M395,112.13c0,.05,0,.1,0,.15l.15,0a1.2,1.2,0,0,1,0-.19Z"/><path class="cls-1" d="M482.65,207.08a.41.41,0,0,1,0-.11l-.1,0s0,.08,0,.12Z"/><path class="cls-1" d="M406.45,122.25a.91.91,0,0,0,0-.17h-.16s0,.1,0,.14Z"/><path class="cls-1" d="M543.59,303.89c-.06.12.27.41.43.62l.55-.54C544.32,303.13,544,303.09,543.59,303.89Z"/><path class="cls-1" d="M481.69,203.46a9,9,0,0,0-.59-.76c-2-2.08-2.7-5-4.68-7.16a4.08,4.08,0,0,1-1-1.62c-.52-1.93-2.06-3.2-3-4.84a29.63,29.63,0,0,0-4.35-6.23c-1.35-1.37-2.62-2.8-3.87-4.25a7.82,7.82,0,0,1-1.67-2.3c-.77-2.2-2.36-3.76-3.79-5.46a9,9,0,0,1-1.67-2.32,15.29,15.29,0,0,0-3.23-4.69c-1.47-1.68-3-3.33-4.45-5a12.11,12.11,0,0,1-2.1-3.18,2.71,2.71,0,0,0-1.32-1.31,30.4,30.4,0,0,1-9.23-6.67c-1.3-1.47-3.28-1.89-4.89-2.9-.12-.08-.57.11-.68.28a1.87,1.87,0,0,0,0,1.78c1.16,2.31,3.31,3.87,4.68,6,.82,2.52,2.71,4.28,4.41,6.17,2.34,2.61,4.72,5.2,7.1,7.77a8.41,8.41,0,0,1,2,3.21,2.51,2.51,0,0,0,.46.83,43.48,43.48,0,0,0,5.9,6.23,3.07,3.07,0,0,0,.85.42,3.34,3.34,0,0,1,1.86,2,27.71,27.71,0,0,0,6.34,9.43,44.42,44.42,0,0,1,3.79,4.31,6,6,0,0,1,1,1.64,3.61,3.61,0,0,0,1.85,2.06,13.19,13.19,0,0,1,3.76,2.91c2.2,2.3,4.37,4.63,6.58,6.91.16.17.52.15.82.19A4.83,4.83,0,0,0,481.69,203.46Z"/><path class="cls-1" d="M395.73,113.47a7.87,7.87,0,0,0,1.17.56,2,2,0,0,0-1.68-1.71A1.22,1.22,0,0,0,395.73,113.47Z"/><path class="cls-1" d="M388.62,106.79c-.11,0-.55.4-.51.51a1.21,1.21,0,0,0,1.35.86A1.2,1.2,0,0,0,388.62,106.79Z"/><path class="cls-1" d="M397.12,114.29c0-.06,0-.11,0-.18l-.2-.08c0,.08,0,.16,0,.25Z"/><path class="cls-1" d="M389.55,108.27a1.76,1.76,0,0,0,1.74,1.84C391.13,108.81,391,108.63,389.55,108.27Z"/><path class="cls-1" d="M391.29,110.11a.51.51,0,0,1,0,.13h.14l0-.11Z"/><path class="cls-1" d="M389.46,108.16v.08l.09,0s0-.07,0-.11Z"/></g></g></svg>