<svg xmlns="http://www.w3.org/2000/svg" viewBox="0 0 582.52 583.05"><defs><style>.cls-1{fill:#afd691;}</style></defs><g id="Layer_2" data-name="Layer 2"><g id="Layer_1-2" data-name="Layer 1"><path class="cls-1" d="M556.74,377.56a6.09,6.09,0,0,1,1.19,3.49,9.74,9.74,0,0,0,1.47,5.34,4.48,4.48,0,0,1,.42,1.78,16.79,16.79,0,0,1,.08,1.88,6.18,6.18,0,0,0,1.18,3.49,4.11,4.11,0,0,1,.65,1.73c.25,1.53-.05,3.14.59,4.62a1.48,1.48,0,0,0,1.29.9c-.05-2.44-.08-4.89-.19-7.33a4.34,4.34,0,0,0-.51-1.78,7.84,7.84,0,0,1-1.15-3.52,9.94,9.94,0,0,0-1.36-5.39,4.51,4.51,0,0,1-.47-1.78,14.69,14.69,0,0,1-.13-1.87,6,6,0,0,0-1.1-3.53c-.76-1-.8-2.38-1.81-3.19a2.18,2.18,0,0,0-.84-.25c0,.92-.09,1.83-.06,2.74A5.09,5.09,0,0,0,556.74,377.56Z"/><path class="cls-1" d="M563.78,401a1.21,1.21,0,0,0,0-.19,1,1,0,0,1-.18,0,1.34,1.34,0,0,0,0,.2Z"/><path class="cls-1" d="M556.05,372.15a.17.17,0,0,1,0-.07l-.07,0v.09Z"/><path class="cls-1" d="M554.13,366.4a.28.28,0,0,0,0-.09h-.07v.08Z"/><path class="cls-1" d="M564.12,407.25c.06.28.33.51.51.77.17-.22.44-.42.5-.66a10.9,10.9,0,0,0-.1-5.44,1.31,1.31,0,0,0-1.25-.91A27.73,27.73,0,0,0,564.12,407.25Z"/><path class="cls-1" d="M554.26,370.58c.11.68.62,1.12,1.73,1.47-.07-1.38-.12-2.76-.22-4.14,0-.73-.55-1.14-1.64-1.51A17.19,17.19,0,0,0,554.26,370.58Z"/><path class="cls-1" d="M550.34,359.46a4.84,4.84,0,0,0,.74,2.64,18.34,18.34,0,0,1,1.55,3.37,1.52,1.52,0,0,0,1.44.83c0-.58,0-1.17,0-1.76a6.83,6.83,0,0,0-1.31-4.31c-.75-1-.71-2.35-1.72-3.14a1.57,1.57,0,0,0-.71-.23C550.33,357.73,550.3,358.59,550.34,359.46Z"/><path class="cls-1" d="M352.41,101.31a.76.76,0,0,1,0,.16l.09,0,.06-.21Z"/><path class="cls-1" d="M486,230.52c-.07,0-.51.4-.47.51a1.24,1.24,0,0,0,1.3.84A1.44,1.44,0,0,0,486,230.52Z"/><path class="cls-1" d="M351.52,100s-.49.43-.44.55a1.25,1.25,0,0,0,1.33.81A1.66,1.66,0,0,0,351.52,100Z"/><path class="cls-1" d="M487.74,232.26a1.69,1.69,0,0,0-.77-.2,5.38,5.38,0,0,0,2.26,5,2.42,2.42,0,0,0,.71.42,3.78,3.78,0,0,0,.76.14C490.83,235.26,489.55,233.61,487.74,232.26Z"/><path class="cls-1" d="M486.82,231.87a.78.78,0,0,1,0,.16l.13,0c0-.07,0-.13,0-.19Z"/><path class="cls-1" d="M490.7,237.66a.27.27,0,0,1,0,.09h.08v-.08Z"/><path class="cls-1" d="M15.84.68c-.14-.17-.26-.41-.44-.5a1.92,1.92,0,0,0-1.67,0c-.13.06-.16.33-.24.5a1.59,1.59,0,0,0,1.61.46A2.6,2.6,0,0,0,15.84.68Z"/><polygon class="cls-1" points="466.43 203.9 466.68 204.58 467.05 203.98 466.43 203.9"/><path class="cls-1" d="M49.42,8.38A2.37,2.37,0,0,0,52,8.7c.18-.09.25-.41.36-.62a7,7,0,0,0-.45-.81,3.44,3.44,0,0,0-.66-.66c-1.22-1-3.41-1.13-3.35-.35C47.94,7.22,48.71,7.81,49.42,8.38Z"/><path class="cls-1" d="M483.21,227.89a3.06,3.06,0,0,0,.77-.28c.49-.38.16-1.08-1-2.15-.59-.56-1.1-.61-1.45,0a1.47,1.47,0,0,0-.11.84C481.53,227.44,482.14,228,483.21,227.89Z"/><polygon class="cls-1" points="476.53 217.28 475.87 217.52 476.43 217.92 476.53 217.28"/><path class="cls-1" d="M38.25,5c.22-.1.55-.48.5-.59a1.38,1.38,0,0,0-2.24-.28c-.24.44.11.78.86.93A2.53,2.53,0,0,0,38.25,5Z"/><path class="cls-1" d="M550.34,356.86v-.2l-.16,0v.18Z"/><path class="cls-1" d="M581.08,555.16c0-3.52,0-7-.06-10.55q-.12-9.58-.28-19.18a7.61,7.61,0,0,0-.8-3.7,5.78,5.78,0,0,1-.79-2.72c0-3.52,0-7-.12-10.55q-.13-7.66-.35-15.34a5.06,5.06,0,0,0-.53-1.82,6.84,6.84,0,0,1-.85-2.69q-.06-7.2-.17-14.39c-.07-3.83-.21-7.67-.3-11.5a3.71,3.71,0,0,0-.51-1.83,6.92,6.92,0,0,1-1.13-3.59c0-1.6,0-3.19-.07-4.79,0-.64-.17-1.27-.23-1.9a2.23,2.23,0,0,0-2-1.67c-1.65,0-3.17-.34-4.21-1.78a4.16,4.16,0,0,1-1.07-2.58c0-1.59-.09-3.19-.16-4.78a2.19,2.19,0,0,0-1.5-2.21,4.88,4.88,0,0,1-1.62-1,15.46,15.46,0,0,1,.63-1.69,2.26,2.26,0,0,0,.31-1.83c-.34-.88-.89-1.68-1.24-2.56-.47-1.18-.19-2.53-.8-3.69a1.9,1.9,0,0,0-1.41-1,6.86,6.86,0,0,0-.87-3.58,2,2,0,0,1,.13-2.54,2.31,2.31,0,0,0,.15-2.66,7.31,7.31,0,0,1-1.37-4.45c.14-2.86-.31-5.72-.06-8.59a4.53,4.53,0,0,0-1.36-3.46,17.29,17.29,0,0,1-1.27-1.43,4,4,0,0,1-1.07-2.57c0-1.58-.08-3.17-.14-4.76a2.17,2.17,0,0,0-1.5-2.2,5,5,0,0,1-1.62-1,15.93,15.93,0,0,1,.63-1.67,2.69,2.69,0,0,0,0-2.69,6.88,6.88,0,0,1-1.23-3.53c0-1-.09-1.92-.06-2.87a7.36,7.36,0,0,0-1.38-4.47,3.46,3.46,0,0,1-.58-1.8c0-1.59-.16-3.18-.15-4.77a4.12,4.12,0,0,0-1.08-2.56c-.19-.25-.44-.45-.65-.7-1.84-2.26-1.85-2.26-2-5.14-.05-.95-.08-1.91-.07-2.87a5.5,5.5,0,0,0-.85-2.66c-.72-1.41-1.35-2.86-2-4.29-.31-.64-.1-1.1.68-1.29a1.6,1.6,0,0,1,1.69.56,2.41,2.41,0,0,1,.47.8,22.58,22.58,0,0,0,1.72,3.4c.51,1.15.25,2.51.84,3.67a1.58,1.58,0,0,0,1.37.88c0-1.21,0-2.43,0-3.65a8.33,8.33,0,0,0-1.25-4.55,4.27,4.27,0,0,1-.6-1.79,6.49,6.49,0,0,0-.67-2.77c-.89-1.33-1.25-2.94-2.09-4.28a8.29,8.29,0,0,1-1.19-4.54,8.66,8.66,0,0,0-1.54-4.46,21.59,21.59,0,0,0-2-6.32,10.35,10.35,0,0,0-1.89-5.34c-.81-2.45-2.32-4.53-3.44-6.81-3.23-6.57-6.32-13.19-9.66-19.7a7,7,0,0,1-.53-1.81,9.06,9.06,0,0,0-.88-2.71c-.92-1.67-1.86-3.34-2.63-5.08a12.48,12.48,0,0,0-2.6-4,21.24,21.24,0,0,1-4.27-6.28,25.6,25.6,0,0,0-4.11-6.42,25.68,25.68,0,0,1-1.9-3.29c-.71-1.05-1.59-2-2.37-3a2.73,2.73,0,0,1-.43-.85,9,9,0,0,0-2.06-3.19,28.64,28.64,0,0,1-2.55-2.86,45.32,45.32,0,0,1-2.35-4.13,16.94,16.94,0,0,1-.86-1.7c-.64-1.51-1.88-2.56-2.84-3.83s-1.15-3-2.36-4.13c-.67-.64-1.24-1.39-2.27-1.43,0,1.23-.08,2.47-.11,3.7a1.51,1.51,0,0,1-.77-.17,85.19,85.19,0,0,1-7.55-7.29,3.74,3.74,0,0,1-1-1.57,9.14,9.14,0,0,0-2.6-3.93,23.55,23.55,0,0,1-2.59-2.8,23.79,23.79,0,0,1-1.71-3.38,20.24,20.24,0,0,0-1.2-2.58c-.7-1-1.61-2-2.4-3a5.28,5.28,0,0,1-1-1.59,6.35,6.35,0,0,0-4.46-4.55,2,2,0,0,1-1.28-1.3,6.47,6.47,0,0,0-4.55-4.48,2.11,2.11,0,0,1-1.24-1.35c-.12-.29-.19-.61-.31-.9-.32-.8-.75-.85-1.44-.6-1.54.58-2,.42-2.08-.53-.16-1.93-.39-3.8-2.06-5.13-1.3-1-1.78-2.59-2.52-4a5.21,5.21,0,0,0-2.8-2.49,8.79,8.79,0,0,1-3.21-2c-1.39-1.32-2.81-2.59-3.29-4.58a1.93,1.93,0,0,0-1.41-1.17,6.08,6.08,0,0,1-4-3.76,3,3,0,0,0-1.82-2,4.38,4.38,0,0,1-.9-.33c-1.66-1.07-3-2.38-3.06-4.53a4.73,4.73,0,0,0-1.52-3.37,9.31,9.31,0,0,1-2.64-3.91,2,2,0,0,0-1.39-1.2,8.52,8.52,0,0,1-3.11-2.15,8.62,8.62,0,0,0-3.17-2.08,2,2,0,0,1-1.36-1.23,9.51,9.51,0,0,0-2.66-3.89,3.88,3.88,0,0,1-1.14-1.51c-.48-2-1.84-3.3-3.2-4.64-1.13-1.13-2.25-2.27-3.38-3.39a10,10,0,0,0-3.9-2.65,6.92,6.92,0,0,1-2.29-1.67q-2.78-2.64-5.43-5.4a7.93,7.93,0,0,0-4-2.5L388,130.07c-.63-.54-.49-1-.1-1.69.72-1.25.65-1.4-.84-2a3.43,3.43,0,0,1-2-1.9c-.73-1.59-.77-1.58-2-1.78-.59-.11-1.2-.16-1.79-.24a4.65,4.65,0,0,0-1.46-2.26,4.24,4.24,0,0,0-2.47-1.32c-1.26-.16-2.53-.24-3.8-.37-.9-.1-1.31-.45-1.87-1.84a7.18,7.18,0,0,0-1.57-2.35c-.81-.83-1.45-1-2.4-.35a1.14,1.14,0,0,1-1.7,0,5.39,5.39,0,0,1-2.11-4.07,3.7,3.7,0,0,0-.56-1.78,17.05,17.05,0,0,0-3.89-4.15,2.9,2.9,0,0,0-1.79-.57,5.86,5.86,0,0,1-3.56-1.1,8,8,0,0,0-1.63-.74,3.19,3.19,0,0,1-.27.69,2.23,2.23,0,0,1-2.45.86,20.7,20.7,0,0,0-3.31-1.89c-1.52-.58-1.76-1.46-1.11-3,.24-.57.49-1.13.73-1.7A13.13,13.13,0,0,0,344.91,95c-1.45-1.36-2-1.42-4.19-.07a2.76,2.76,0,0,1-2.69.23c-1.16-.51-2.2-1.25-3.42-1.68s-2-1.56-2.95-2.39c-.24-.21-.52-.37-.77-.56a2.89,2.89,0,0,0-1.8-.58,5.42,5.42,0,0,1-4.24-1.82,7.71,7.71,0,0,0-4-2.4c-1.26-1-2.86-1.4-4.19-2.24a8.31,8.31,0,0,0-4.48-1.4,17.59,17.59,0,0,1-1.91-.17c-.88-.1-1.26-.42-1.89-1.83a5.59,5.59,0,0,0-5.06-3.74,5.71,5.71,0,0,1-2.66-1,5.94,5.94,0,0,0-2.67-.93,5.79,5.79,0,0,1-1.87-.33c-1.43-.66-2.82-1.42-4.21-2.18a1.4,1.4,0,0,1-.58-.73,4,4,0,0,0-2.49-2.61c-1.75-.73-3.33-1.7-5.32-1.94s-3.37-1.65-5.08-2.45c-.55-.26-.67-1-1-1.59a2.27,2.27,0,0,0-2.27-1.42c-1.59-.08-3.19-.19-4.78-.22a2.93,2.93,0,0,1-1.79-.56,5.82,5.82,0,0,0-3.52-1.28,3.77,3.77,0,0,1-2.62-.95c-1.41-1.3-2.74-2.68-4.18-3.94a3.43,3.43,0,0,0-1.73-.72c-1.26-.18-2.54-.19-3.82-.28a3.31,3.31,0,0,1-1.74-.7,5.87,5.87,0,0,0-3.55-1.22,6.11,6.11,0,0,1-2.66-1,3,3,0,0,0-.85-.35c-3.55-.49-3.56-.48-4.68-1.42a2.78,2.78,0,0,0-3.48-.2c-1.28.69-1.75.68-2.5,0A31.7,31.7,0,0,0,229,44.48a1.08,1.08,0,0,0-.81,0,3.07,3.07,0,0,0-.84.44,5.4,5.4,0,0,1-3.68.64,1.63,1.63,0,0,1-.81-.42c-.5-.41-.35-.93.5-1.18A2.84,2.84,0,0,0,225,43.1c.09-.12,0-.47-.13-.62a2.3,2.3,0,0,0-1.73-.61,6.09,6.09,0,0,0-3.59,1.07c-.6.36-1.12.15-1.34-.66a2.62,2.62,0,0,0-2.68-2.17c-1.6,0-3.2-.19-4.79-.17a3.9,3.9,0,0,1-2.54-1.17,3.18,3.18,0,0,0-1.64-.78c-.44-1.13-1-1.73-1.8-1.77-1-.06-1.92-.07-2.88-.13-1.36-.07-1.37-.05-3.5-1.28a3.84,3.84,0,0,0-1.78-.62,7.07,7.07,0,0,1-3.63-1,5.44,5.44,0,0,0-2.69-.88,12.31,12.31,0,0,0-1.92,0c-2.23.15-4.56-.31-6.65.77a5.76,5.76,0,0,1-.9-.38c-1.19-.64-2.45-1.14-3.63-1.79a16.14,16.14,0,0,0-3.9-1,2.59,2.59,0,0,1-.72-.37,6.56,6.56,0,0,0-3.07-1L167,28.33a.76.76,0,0,1-.08-.11,4.1,4.1,0,0,0-2.41-1.44,17,17,0,0,0-2.86-.17,7.65,7.65,0,0,1-3.6-1.15.8.8,0,0,0-.75,0,1.66,1.66,0,0,0-.52,1,6.75,6.75,0,0,1-1.45-.72,2.92,2.92,0,0,0-1.55-.41c-.54,0-1.08-.09-1.62-.11a6.06,6.06,0,0,1-3.06-1,5.72,5.72,0,0,0-2.33-.61,7.67,7.67,0,0,1-3.16-.6A9,9,0,0,0,139,21.92c-.81,0-1.62-.1-2.43-.15a3.36,3.36,0,0,1-1.51-.54,6.14,6.14,0,0,0-3.09-.88c-2.17-.07-4.33-.12-6.5-.16a3,3,0,0,1-1.54-.45,7.2,7.2,0,0,0-3.85-1c-2.44,0-4.88-.08-7.32-.13a5,5,0,0,1-2.3-.71,5.24,5.24,0,0,0-2.31-.66c-1.35-.06-2.7-.2-4.05-.29a3.12,3.12,0,0,1-1.53-.5,5.72,5.72,0,0,0-3.05-1l-8.95-.1-2.38,0A4.39,4.39,0,0,0,86.82,15a2.72,2.72,0,0,1-.25-.11,6.34,6.34,0,0,0-3.06-1L79,13.77l-.14-.1v.09l-5-.11A4.89,4.89,0,0,1,71.43,13a4.5,4.5,0,0,0-2.29-.7c-1.8,0-3.6,0-5.41,0A.4.4,0,0,0,63.8,12c-.22-.59-.81-.71-1.45-.59s-1,.39-.94.9a1.16,1.16,0,0,0,.42.51l-.65.35a3.11,3.11,0,0,1-1.53.49,9.47,9.47,0,0,1-4.35-.55,1.81,1.81,0,0,1,.23,0,8.5,8.5,0,0,0,1.86-.36,3,3,0,0,0,.78-.54,1.68,1.68,0,0,0-1.43-.88c-2.85-.08-5.71-.11-8.57-.16v.08c-2.23,0-4.45,0-6.67,0a14.9,14.9,0,0,0-1.9.15,2.44,2.44,0,0,0-.5.13l-.2-.11a1.53,1.53,0,0,0-1.51-.12A5.69,5.69,0,0,1,35.1,12c-5.15.11-10.3.16-15.45,0a3.28,3.28,0,0,1-1.54-.41A6.06,6.06,0,0,0,15,10.73l-8.13,0a5.23,5.23,0,0,0-2.31.67,5,5,0,0,1-.65.33l-.17-.08a1.45,1.45,0,0,0-1.59.25.36.36,0,0,0-.06.15A13.41,13.41,0,0,1,0,12.15v570.9H570.24a16.92,16.92,0,0,1,3-1.66,2.08,2.08,0,0,0,1.52-1.06,2.72,2.72,0,0,0-.33-2.67c-.74-1-.61-1.56.21-2.41,1.34-1.38,2.65-2.78,4-4.11a6.55,6.55,0,0,0,2.32-5,9.43,9.43,0,0,1,1.18-4.57,2.89,2.89,0,0,0-.09-2.75A7.11,7.11,0,0,1,581.08,555.16ZM4.72,570c.69-.22,1.23-.07,1.44.63.16.51-.22.86-.89,1A1.1,1.1,0,0,1,3.78,571C3.62,570.55,4.08,570.21,4.72,570ZM3.8,552l.08-.7.64.42Zm-.91-34.1c-.64-.15-1.1-.48-1-1a1.07,1.07,0,0,1,1.46-.64c.59.16,1.12.54,1,1C4.18,517.88,3.55,518,2.89,517.85Zm4.64,59.39A3.89,3.89,0,0,1,4.06,577c-.25-.16-.61-.4-.63-.62a6.14,6.14,0,0,1,.11-1.76c.1-.6,1.74-1,2.43-.62a5.38,5.38,0,0,1,1.94,1.88C8.54,576.55,8.39,576.94,7.53,577.24ZM84,515.9a1.14,1.14,0,0,1-1.45-.61c0-.47.37-.7,1-.84s1.23-.05,1.44.57C85.11,515.43,84.58,515.74,84,515.9Zm4.49,55.43c-.15-.18-.49-.45-.45-.53.37-.71.75-.68,1,.09C89,571,88.65,571.18,88.46,571.33Zm103.73,3.79c-.71-.36-.67-.71.09-1,.15.17.44.38.41.52S192.28,575.16,192.19,575.12Zm13.59-535.6c-.71-.36-1.41-.71-2.14-1a1.47,1.47,0,0,1,1.11-.44h1.78A1.65,1.65,0,0,1,205.78,39.52Zm175.45,84.83a1.5,1.5,0,0,1-1.2-.58c-.34-.48,0-.85,1.21-1.17C381.23,123.18,381.23,123.77,381.23,124.35Zm1,1.5a1.26,1.26,0,0,1-.85-1.34,1.28,1.28,0,0,1,1.35.83C382.77,125.44,382.33,125.89,382.23,125.85Zm49.46,53.21c.17-.14.37-.41.52-.38s.48.4.44.47C432.29,179.84,431.94,179.79,431.69,179.06Zm40.89,123.25a2.55,2.55,0,0,1-.54.22,20,20,0,0,0-1.39-2.87.83.83,0,0,1,.16-.09,2.06,2.06,0,0,1,1.78.27A1.69,1.69,0,0,1,472.58,302.31Zm18.23-59.19c0-.49,0-1,0-1.46a2.08,2.08,0,0,1,1.75,2.16c0,.48,0,1,0,1.45C491.1,244.75,490.87,244.47,490.81,243.12Zm1.95,2.36a1.86,1.86,0,0,1,1.72,1.72A1.82,1.82,0,0,1,492.76,245.48Zm1.91,3.4c0-.48,0-1,0-1.45a2.05,2.05,0,0,1,1.73,2.17q0,.72,0,1.44A2,2,0,0,1,494.67,248.88Zm2.8,5.61a1.6,1.6,0,0,1-.87-1.55c0-.56,0-1.12,0-1.68a1.86,1.86,0,0,1,1.64,1.69A1.35,1.35,0,0,1,497.47,254.49ZM507,421.57l-.29-.74.69.08ZM507,387c-.15-.18-.47-.44-.43-.51.37-.69.74-.65.94.1C507.52,386.66,507.16,386.84,507,387Zm3.87,5.91c-.17-.21-.53-.51-.48-.61.39-.79.81-.75,1.05.1C511.45,392.48,511.05,392.71,510.85,392.89ZM516,410.28a1.46,1.46,0,0,1-.92,0c-.26-.1-.43-.43-.63-.67.13-.61.56-.89,1.29-.8a1.48,1.48,0,0,1,.81.3C517.05,409.6,516.84,410,516,410.28Zm2.71,13.06-.64-.4.72-.25Zm5.52,25.05-.3-.67.7.09Zm9.59-28.8-.3-.69.69.07Zm1-5.43a1.49,1.49,0,0,1-1.34-.83,1.86,1.86,0,0,1,1.45-.7c.61,0,1.27.25,1.22.79S535.46,414.19,534.86,414.16Zm6-72.56c-.29-1.21-.12-2.52-.93-3.6a5.34,5.34,0,0,1-1.13-3.51c0-.31,0-.63,0-1.25a9.72,9.72,0,0,1,.09-1.57c.14-.75.57-1.13,1-1a1,1,0,0,1,.55.72,8,8,0,0,0,1.31,4.44,3.42,3.42,0,0,1,.69,1.71,12,12,0,0,0,1.35,4.45c.28.55-.18,1-.91,1.1A1.93,1.93,0,0,1,540.85,341.6Zm17.82,196.88.09-.71.63.44Zm1.43-110.91A1,1,0,1,1,560,426c.55,0,1.11,0,1.66,0C561.3,427.17,561,427.46,560.1,427.57Z"/><path class="cls-1" d="M567.28,415a5.48,5.48,0,0,0-.07-.85c-.2-.83-.56-1.15-.91-.85a1.67,1.67,0,0,0-.44.79,3.66,3.66,0,0,0-.07.94,3.89,3.89,0,0,0,.72,2.64A3.27,3.27,0,0,0,567.28,415Z"/><path class="cls-1" d="M569,423.28a3.43,3.43,0,0,0-.51-.77,2.83,2.83,0,0,0-.54.72,4.7,4.7,0,0,0,.14,3.57,1.49,1.49,0,0,0,1.3.89A13.36,13.36,0,0,0,569,423.28Z"/><path class="cls-1" d="M571.58,443.52a1.33,1.33,0,0,0,.53.71c.36.23.87-.09.92-.84a42.27,42.27,0,0,0-.07-4.5,1,1,0,0,0-.47-.73c-.34-.2-.83.14-.94.87a30.88,30.88,0,0,0,0,3.81C571.48,442.32,571.47,442.93,571.58,443.52Z"/><path class="cls-1" d="M569.55,427.9v-.19l-.17,0v.18Z"/><path class="cls-1" d="M569.83,434.18c.06.28.36.5.55.75.18-.2.47-.38.54-.62a10.86,10.86,0,0,0-.14-5.46,1.28,1.28,0,0,0-1.23-1A27.48,27.48,0,0,0,569.83,434.18Z"/></g></g></svg>