<svg xmlns="http://www.w3.org/2000/svg" viewBox="0 0 577.57 594.09"><defs><style>.cls-1{fill:#51c1af;}</style></defs><g id="Layer_2" data-name="Layer 2"><g id="Layer_1-2" data-name="Layer 1"><path class="cls-1" d="M345.11,108.92a1.48,1.48,0,0,0-.63,1.24h1.77C345.91,109,345.57,108.59,345.11,108.92Z"/><path class="cls-1" d="M459.55,215.91a1.86,1.86,0,0,0-1.71-1.77l0,1.74Z"/><path class="cls-1" d="M346.29,110.31h.11l0-.15h-.18a.83.83,0,0,0,0,.15Z"/><path class="cls-1" d="M344.48,110.16h-.11l0,.06.07,0A.28.28,0,0,1,344.48,110.16Z"/><path class="cls-1" d="M457.84,214.14V214l-.17.06s0,.06,0,.09Z"/><path class="cls-1" d="M457.8,215.88h-.16l0,0,0,0a.78.78,0,0,1,.05.14l.11,0Z"/><path class="cls-1" d="M459.7,216.08a.9.9,0,0,0,0-.16h-.18c0,.06,0,.1,0,.15Z"/><path class="cls-1" d="M226.41,44.35a3,3,0,0,0,.86-.05c.21-.08.52-.44.48-.52a1.19,1.19,0,0,0-1.52-.64c-.27.08-.65.18-.75.38C225.28,43.91,225.67,44.23,226.41,44.35Z"/><polygon class="cls-1" points="240.72 49.45 240.64 50.05 241.41 49.82 240.72 49.45"/><polygon class="cls-1" points="246.39 51.5 246.32 52.1 247.1 51.87 246.39 51.5"/><polygon class="cls-1" points="250.65 53.5 249.94 53.7 250.57 54.05 250.65 53.5"/><path class="cls-1" d="M553.57,386c.21-.22.51-.42.61-.68a1.69,1.69,0,0,0,0-.92c-.18-.86-.55-1.1-1-.65a1.49,1.49,0,0,0-.28.81A1.25,1.25,0,0,0,553.57,386Z"/><polygon class="cls-1" points="328.23 93.34 328.16 93.97 328.89 93.7 328.23 93.34"/><path class="cls-1" d="M235.14,48.13a2.09,2.09,0,0,0,1.71.14,1.52,1.52,0,0,0,.61-.51,1.72,1.72,0,0,0-1.55-.79c-.54,0-1.08-.06-1.62-.11A1.62,1.62,0,0,0,235.14,48.13Z"/><path class="cls-1" d="M220.31,42.26a1.66,1.66,0,0,0,.86,0c.82-.15,1.05-.51.59-.86a1.73,1.73,0,0,0-1.62-.26c-.2.06-.33.33-.49.51A2.74,2.74,0,0,0,220.31,42.26Z"/><path class="cls-1" d="M234.29,46.86l0-.19-.19,0a1.25,1.25,0,0,1,0,.19Z"/><path class="cls-1" d="M232.47,46.54c.54,0,1.07.07,1.6.11a1.49,1.49,0,0,0-.84-1.23,2.22,2.22,0,0,0-1.71-.13,1.51,1.51,0,0,0-.58.48A1.66,1.66,0,0,0,232.47,46.54Z"/><polygon class="cls-1" points="560.5 420 560.36 420.76 560.94 420.48 560.5 420"/><path class="cls-1" d="M565.17,446.7c.09.74.57,1.22,1.56,1.55,0-1.95-.07-3.9-.14-5.85,0-.72-.52-1.2-1.49-1.59A36.21,36.21,0,0,0,565.17,446.7Z"/><path class="cls-1" d="M565.1,440.81a1.77,1.77,0,0,0,0-.23l-.16,0v.18Z"/><path class="cls-1" d="M566.87,448.46a.76.76,0,0,0,0-.15l-.15-.06v.19Z"/><path class="cls-1" d="M565,440.56a23,23,0,0,0-.33-6.25c-.07-.27-.33-.48-.49-.72-.21.23-.52.43-.6.7a10.53,10.53,0,0,0-.2,4.57A1.86,1.86,0,0,0,565,440.56Z"/><path class="cls-1" d="M566.78,459.68a3.19,3.19,0,0,0,.6,1.76,6.53,6.53,0,0,1,1.1,3.56c0,1.58,0,3.17.12,4.74.07.79.56,1.16.95.94a1.14,1.14,0,0,0,.55-.73,56.5,56.5,0,0,0,.11-9.47,4.76,4.76,0,0,0-.43-1.82,9.94,9.94,0,0,1-1.2-4.5,15.45,15.45,0,0,0-.44-4.69,1.38,1.38,0,0,0-1.27-1C566.58,452.2,566.74,455.94,566.78,459.68Z"/><path class="cls-1" d="M205.71,36.72l-.06-.16h-.16l0,.16Z"/><path class="cls-1" d="M558.29,408.52c.05.28.35.52.54.78.19-.2.48-.37.56-.61a7.7,7.7,0,0,0,.4-1.82,7.39,7.39,0,0,0-1.24-5.44,7.16,7.16,0,0,1-.73-1.74c-.38-.93-.76-1-1.11-.29a2.75,2.75,0,0,0-.27.87,5,5,0,0,0,.26,2.82A18.52,18.52,0,0,1,558.29,408.52Z"/><path class="cls-1" d="M577.5,591.69c0-1,0-1.92-.14-2.87a5.22,5.22,0,0,0-.52-1.82,7.6,7.6,0,0,1-.89-3.67c.07-6.71.12-13.43.19-20.14q.08-8.16.17-16.3a3.73,3.73,0,0,0-.45-1.85,7.25,7.25,0,0,1-1.08-3.61q.13-10.06.21-20.15c0-1.59,0-3.19,0-4.79a6.13,6.13,0,0,0-.73-2.75,5.93,5.93,0,0,1-.81-2.71c0-1.59-.08-3.19-.07-4.79,0-3.52.08-7,.09-10.55a5.34,5.34,0,0,0-.62-2.77,6.64,6.64,0,0,1-1-3.64c.14-4.48.08-8.95-.12-13.43a2.17,2.17,0,0,0-.59-1.75c-.39-.31-.94.86-1,2.26-.09,3.19-.18,6.39-.25,9.59l-.39,20a2.5,2.5,0,0,1-.79-.23,1.91,1.91,0,0,1-.89-1.55c0-2.24,0-4.47,0-6.71q0-6.22,0-12.46a3.62,3.62,0,0,0-.61-1.78,5.37,5.37,0,0,1-1-2.64c0-2.88-.12-5.75-.14-8.63a5.5,5.5,0,0,0-.84-2.7,5.81,5.81,0,0,1-.7-2.74c0-2.56,0-5.11,0-7.67a4.91,4.91,0,0,0-.77-2.71,6.74,6.74,0,0,1-1.13-3.6,3.56,3.56,0,0,0-.52-1.82,6.73,6.73,0,0,1-1.11-3.6c0-1.27-.06-2.55-.09-3.83a5.18,5.18,0,0,0-.84-2.7A15.84,15.84,0,0,1,559,438a12.36,12.36,0,0,0-2.31-3c-1-1.23-1.06-1.42-1.13-3.53,0-.32,0-.64,0-1a5.35,5.35,0,0,0-1-3.59c-.8-1-.85-2.4-1.56-3.47-.6-.9-.8-1.16.16-2.51a2.77,2.77,0,0,0,.59-1.78,7.54,7.54,0,0,1,0-.95,2.14,2.14,0,0,0-.53-1.78c-.36-.33-1-.14-1.62.22s-1.09.09-1.24-.73a1.69,1.69,0,0,1,0-.95c1.66-3.55,1.68-3.55,1.69-6.31,0-1.28,0-2.56,0-3.84a4,4,0,0,0-.39-1.83c-.82-1.38-1.14-3-2-4.32-1-1.63-1.48-3.51-2.49-5.15a2.49,2.49,0,0,1,.2-2.68c.71-1.14.74-1.24,0-2.57s-.52-2.48-.89-3.68-1-2.31-1.49-3.48a2.7,2.7,0,0,1-.11-.95,6.56,6.56,0,0,0-1.14-3.59,3.49,3.49,0,0,1-.64-1.77,8.59,8.59,0,0,0-1-3.66c-.78-1.38-1.42-2.84-2.11-4.27-.54-1.14-1-2.36-1.61-3.44-.83-1.37-1-3-2-4.3a4.79,4.79,0,0,1-.7-2.73,5.89,5.89,0,0,0-.93-2.68A5,5,0,0,1,534,351c0-.64,0-1.27,0-1.91a4.85,4.85,0,0,0-1.28-3.49,15.66,15.66,0,0,1-1.25-1.45,4.39,4.39,0,0,1-1-2.61c0-1.6-.14-3.19-.17-4.79a3.08,3.08,0,0,0-.54-1.81c-.94-1.31-1.2-3-2-4.31a7.4,7.4,0,0,1-1-3.63,3.32,3.32,0,0,0-.58-1.8,18.75,18.75,0,0,1-1.69-3.42c-.51-1.19-1.59-2-2.34-3a4.94,4.94,0,0,1-.9-2.67,6.31,6.31,0,0,0-2.06-4.19c-.67-.68-1.34-1.36-2-2a4.67,4.67,0,0,0-1.71-.82c-1.22-.46-1.33-.78-.5-2a2.53,2.53,0,0,0,.27-2.67c-.77-1.4-1.25-2.93-2-4.31-.63-1.1-1.17-2.24-1.73-3.38-.29-.6-.93-.8-1.51-1.1-1.37-.71-1.4-.75-1.53-2.15a6.53,6.53,0,0,0-1.73-4.33,7.88,7.88,0,0,1-2.38-4.06c-.81-1-1.64-1.95-2.42-3a4,4,0,0,1-1-2.6,5.57,5.57,0,0,0-2-4.19,1.17,1.17,0,0,0-1.67-.17c-1.1.65-1.84.29-1.91-.73-.08-1.27-.14-2.55-.21-3.83a3.33,3.33,0,0,0-.67-1.76,6.27,6.27,0,0,1-1.17-3.57,2.63,2.63,0,0,0-1.39-2.3c-.82-.48-1.69-.88-2.53-1.33-1.16-.62-1.32-.49-1.54,1.36a10.74,10.74,0,0,1-.24,1.89c-.23.76-.73,1.07-1.14.83a1.18,1.18,0,0,1-.56-.74c-.3-2.55.06-5.1,0-7.65-.05-2.21,0-2.19-1.52-5.38a9.82,9.82,0,0,0-1.81-3.31,2.24,2.24,0,0,0-1.53-.87c-.28,0-.56.28-.85.42-1.1.52-1.5.24-1.7-1.22-.08-.63-.08-1.28-.16-1.91-.12-.85-.59-1.33-1.73-1.82-.22-1.61-1.84-2.51-2.07-4.12a1.93,1.93,0,0,0-.43-.81,4.22,4.22,0,0,0-1.57-1c-1.33-.71-1.46-1-1.55-2.16a6.42,6.42,0,0,0-1-3.59,8.85,8.85,0,0,1-1.15-2.59c-.29-.83-.74-.82-1.5-.35-1,.62-1.85.17-1.87-.81,0-1.9-.09-3.81-.12-5.72a2.69,2.69,0,0,0-.69-1.72,18.87,18.87,0,0,0-4-4,2.3,2.3,0,0,0-.81-.2,1.68,1.68,0,0,1-.72,1.2c-.5.34-.87,0-1.29-1.26a1.53,1.53,0,0,1-1.21-.72c-.32-.52,0-.91,1.19-1.29a2.4,2.4,0,0,0-.17-.83,6.2,6.2,0,0,0-3.41-3.08,2.83,2.83,0,0,1-1.91-1.89,6.39,6.39,0,0,0-.82-1.68c-.57-.75-1.27-1.4-1.91-2.09a10.76,10.76,0,0,0-3.9-2.54,4.43,4.43,0,0,1-2.73-3.58c-.08-.62-.13-1.25-.24-1.87a2,2,0,0,0-1.84-1.8l-1.78-.2c0-.92,0-1.85,0-2.77a4.11,4.11,0,0,0-.89-2.64c-.83-1-1.69-1.89-2.58-2.8a5.78,5.78,0,0,0-2.37-1.53,2.41,2.41,0,0,1-1.4-1.19c-.15-.28-.22-.6-.38-.87-.83-1.44-.83-1.43-2.08-1.69-3.14-.66-3.17-.65-3.52-3.4-.08-.67-.1-1.34-.65-1.7-.4-.26-1,0-1.65.32-.21.11-.69.12-.75,0-.59-1.09-1.06-2.26-1.68-3.34a6.12,6.12,0,0,1-.79-2.68,5.28,5.28,0,0,0-1.62-3.33,10.44,10.44,0,0,1-2.54-4,2.52,2.52,0,0,0-1.32-1.27,19.18,19.18,0,0,0-6.1-2.38,2.18,2.18,0,0,1-1.57-2c0-1-.07-1.9-.1-2.84a4.77,4.77,0,0,0-1.54-3.35c-.68-.66-1.31-1.38-2-2a4,4,0,0,0-2.51-1.16c-1.89-.09-3.79-.24-5.68-.5a1.69,1.69,0,0,1-1.25-1.25c-.23-.92-.27-1.88-.42-2.82a2.31,2.31,0,0,0-2.31-1.22c-.84.42-1.62,1-2.49,1.33A1.93,1.93,0,0,1,387,143a1.65,1.65,0,0,1-.6-1.69,10.6,10.6,0,0,1,1.26-2.49,2.09,2.09,0,0,0-1.53-2.8c-.59-.1-1.19-.15-1.79-.22A2.54,2.54,0,0,0,382.5,134a6.08,6.08,0,0,1-3.91-3.9c-.22-.63-.41-1.26-1-1.51a17,17,0,0,1-3.34-1.85,2.06,2.06,0,0,0-2.63-.12c-.28.15-.54.34-.82.49-1.82,1-3.2.48-3.45-1.38-.08-.63-.12-1.27-.21-1.9-.14-1-.68-1.22-2-.64-.74.33-1.22.31-1.47-.53a3.43,3.43,0,0,0-2.38-2.69,5.45,5.45,0,0,1-2.3-1.66c-.54-.53-.82-1.13-.46-1.61,1-1.27.62-2.24-.46-3.21-.83-.75-1.62-.58-2.12.48-.8,1.72-.85,1.68-1.8,1.87-1.13.22-1.77-.52-2.45-1.18a7.14,7.14,0,0,1-1.53-2.39c-.68-1.58-.79-1.64-1.93-1.81-.59-.08-1.2-.11-1.79-.15a1.7,1.7,0,0,1-.69,1.13c-.47.34-.77.06-1.31-1.23-1.35-.65-1.5-.86-1.6-1.84a1.47,1.47,0,0,1,.75-1.59c.77-.43,1.76-.47,2.27-1.34a5.27,5.27,0,0,0-1.85-2,1.07,1.07,0,0,0-.8-.12c-.84.29-1.53.94-2.47,1-.42-1.11-.91-1.63-1.7-1.78-3.29-.61-3.3-.59-5.07-2.2-.24-.22-.46-.44-.69-.67-.83-.83-1.67-.43-2.53,0-.6.28-1.12,0-1.32-.79a2.69,2.69,0,0,0-2.62-2.27c-.32,0-.64-.08-1-.1s-.64,0-.95,0a17.56,17.56,0,0,1-3.8-.38c-1.21-.37-2-1.53-3-2.38a6.54,6.54,0,0,0-2.46-1.4c-1-.32-1.32-1.22-1.73-2.1-.67-1.43-1.62-1.7-3.08-1.06l-1.68.76a10.86,10.86,0,0,0-3.43-1.64,1.82,1.82,0,0,1-.79-.52c-1.15-1.11-2.33-2.19-3.4-3.38s-2.79-1.48-4.08-2.38a20.31,20.31,0,0,1-2.11-2c-.92-.85-1.24-.89-2.45-.28-1.43.72-2.61.69-3.51-.19-1.59-1.56-3.05-3.28-5.6-3.23-1.07,0-1.6-.77-2-1.72-.69-1.67-.74-1.65-1.91-1-.29.14-.56.43-.84.43a2.21,2.21,0,0,1-1.56-.84c-1.12-1.14-2.24-2.28-3.37-3.4a2.7,2.7,0,0,0-3.44-.37c-1.45.76-1.87.76-2.15-.33a5.5,5.5,0,0,0-3.58-4.16c-1.81-.63-3.2-2.12-5.14-2.46-1.8-1.65-4-1.83-6.27-1.66-.32,0-.64,0-1,.06-2.79.31-3.77.25-5.07-.35-1.54-.72-1.57-.72-1-1.9s.3-1.63-1-1.83c-.61-.09-1.23-.13-1.84-.19-.48-1.1-1-1.59-1.86-1.7a5.08,5.08,0,0,0-3.68.59c-.61.42-1.17.68-1.66.34-1.58-1.1-3.48-1.57-5.08-2.64-.16-.11-.6.07-.83.23-.61.41-1.21.6-1.71.28a6.05,6.05,0,0,0-3.57-1.12,9,9,0,0,1-5.4-1.55c-1-.7-2.34-1-3.38-1.75a2.11,2.11,0,0,0-.82-.22c-3.6-.78-3.59-.79-4.61-1.63a2.73,2.73,0,0,0-3.49-.22A2.06,2.06,0,0,1,205,46.9a3.42,3.42,0,0,0-1.77-.65,6.45,6.45,0,0,1-3.57-1.18c-1.27-1-3-1.1-4.26-2.1-.47-.37-1.11-.17-1.67.32s-1,.3-1.67-.13c-2.3-1.5-3.17-1.46-6.16,0-.67.33-1.18.25-1.42-.57s-.53-1.88-1.46-2.29A10.33,10.33,0,0,1,180.48,39c-1-.83-2.44-.73-3.44-1.58a5.35,5.35,0,0,0-3.51-1.31,3.24,3.24,0,0,1-1.8-.53c-.53-.34-1.08-.91-1.63-.93s-1.1.58-1.69.83a2.55,2.55,0,0,1-2.67-.19,5.23,5.23,0,0,0-6.21-.44c-1.17.69-1.3.61-1.88-1a6.7,6.7,0,0,0-1.49-2.4c-.84-.91-1.4-1.1-2.39-.49a1.37,1.37,0,0,1-1.73,0c-1.88-1.12-1.92-1.07-4.33,0a1.3,1.3,0,0,1-1.65-.37c-.44-.46-.89-.92-1.36-1.34-1.09-1-1.32-1.06-2.42-.36a2.8,2.8,0,0,1-3.5,0,6.19,6.19,0,0,0-3.56-1.17,7.77,7.77,0,0,0-4.6.87c-1,.57-1,.49-1.81-1.27-.32-.72-.75-1.21-1.26-.9-1.29.78-2.36.26-3.46-.34-3.1.15-3.08.09-4.22-.41a16.83,16.83,0,0,1-2.55-1.27,3,3,0,0,0-.83-.48,2.91,2.91,0,0,0-2.69.36,3.2,3.2,0,0,1-4.32-.15,3,3,0,0,0-1.77-.64c-1.59-.09-3.18-.14-4.77-.28a8.55,8.55,0,0,1-1.84-.46c-2.25-.76-2.25-.78-4,.66a18.92,18.92,0,0,1-1.58,1.06l-1.63-.88a2.5,2.5,0,0,0-.85-.42c-1.91-.1-3.82-.17-5.74-.2s-3.83,0-5.75-.06a4.31,4.31,0,0,0-2.63,1c-1.12.78-1.68-.45-2.52-.54s-1.57.88-2.53.56a3,3,0,0,1-.82-.49,2.56,2.56,0,0,0-3.46.11c-1,.78-1.7.32-2.46-.22a2.6,2.6,0,0,0-2.67-.22,2.44,2.44,0,0,0-.83.48c-.6.59-1,.4-1.7,0-2.12-1.31-2.23-1.32-4.24.08a2.58,2.58,0,0,1-2.67.25c-1.14-.51-2.08-1.47-3.45-1.48A4.7,4.7,0,0,1,48.09,21c-.45-.45-.9-.91-1.38-1.33-1-.88-1.53-.79-2.05.34-.82,1.77-.85,1.84-1.76,1.31-.61-.36-1.15-.68-1.67-.44s-1.25.67-1.69.45-.64-1-.9-1.61a2.1,2.1,0,0,0-2.2-1.45c-2.24-.05-4.47-.07-6.7-.11a3,3,0,0,0-1.82.51c-2,1.39-4.2,1.32-6.44,1.06a8.7,8.7,0,0,1-2.55-1.23,2.6,2.6,0,0,0-2.69.08,2,2,0,0,1-2.55.11,4.81,4.81,0,0,0-2.64-1,6.71,6.71,0,0,1-2.69-.84c-1.34-.74-1.53-.62-2.07.53-.93,2-1,2-1.73,1.23C3.17,17.35,1.78,16,.42,14.7A2,2,0,0,0,0,14.37V594.09H577.57C577.54,593.29,577.53,592.49,577.5,591.69ZM399.91,150.54c.41-.41.88-.27,1.16.48a1.34,1.34,0,0,1-.4,1.52,1.8,1.8,0,0,1-.64.23c-.17-.22-.45-.42-.51-.66A1.59,1.59,0,0,1,399.91,150.54Zm-10.73-2.23-.41.64-.3-.73ZM385,149.87c.71.37.66.71-.1.95-.15-.17-.43-.38-.4-.51S384.88,149.83,385,149.87ZM384.21,136a1.29,1.29,0,0,1-.86,1.3c-.09,0-.5-.41-.46-.51A1.25,1.25,0,0,1,384.21,136Zm-3,15.66c.1,0,.33.39.49.6-.2.17-.51.54-.6.49C380.34,152.29,380.39,151.86,381.24,151.61Zm-31.3-25.78a1.32,1.32,0,0,1,1.28.88,1.62,1.62,0,0,1-1.43.71c-.61,0-1.27-.32-1.2-.85S349.34,125.81,349.94,125.83Zm-12.76-19.65a1.59,1.59,0,0,1,.84-1.49,2.5,2.5,0,0,1,.91-.18c.55,0,1.11,0,1.67-.05,0,.56-.05,1.12-.11,1.67-.14,1.42-1.12,2.05-2.59,1.59C337.22,107.51,337.12,106.87,337.18,106.18Zm-3.56,19.66.26.74-.69-.1Zm-1.19-22.74-.42.58-.25-.68ZM263.6,67c.69.37.63.72-.11,1-.14-.18-.42-.38-.39-.53S263.52,66.93,263.6,67ZM253.91,63l.59.44-.69.25Zm-10.36-6.46a1.35,1.35,0,0,1-.86,1.33c-.08,0-.49-.4-.45-.52A1.19,1.19,0,0,1,243.55,56.58Zm-54.2-12-.09.69-.61-.41ZM172,38.42c.09,0,.28.32.42.49-.18.15-.44.47-.52.43C171.22,39,171.26,38.62,172,38.42ZM51.22,24.71c.2.05.32.33.48.52l-.59.42c-.14-.19-.41-.39-.38-.54S51.09,24.67,51.22,24.71ZM417.15,174.42c-.15-.18-.47-.45-.42-.54.36-.72.73-.68.93.1C417.68,174.08,417.33,174.27,417.15,174.42Zm21.08,21.39c-.58.22-.9-.11-.66-.68a.76.76,0,1,1,.66.68Zm27.53,50.55-.44-.54c.19-.15.46-.46.54-.42C466.57,245.77,466.52,246.12,465.76,246.36Zm9.74-1.77c-.11,0-.54-.42-.5-.52a1.3,1.3,0,0,1,1.36-.83A1.27,1.27,0,0,1,475.5,244.59Zm12.55,34.66.1-.69.59.42Zm82.71,250.52c0,.26-.4.48-.61.72-.19-.24-.48-.46-.55-.73a6.77,6.77,0,0,1-.27-1.84c.09-7.27.22-14.54.34-21.81a2.22,2.22,0,0,1,.78.24,1.83,1.83,0,0,1,.89,1.54C571.42,520.2,571.29,525.55,570.76,529.77Z"/><path class="cls-1" d="M561.62,428.47a4.15,4.15,0,0,0,.08.95,1.39,1.39,0,0,0,.48.78c.33.2.69-.19.87-1a3.62,3.62,0,0,0,.07-.93,3,3,0,0,0-.82-2.4C561.38,426.58,561.68,427.58,561.62,428.47Z"/><path class="cls-1" d="M144.15,21.75a1.83,1.83,0,0,0,.84,0,3.42,3.42,0,0,0,.74-.47,1.47,1.47,0,0,0-1.53-.66c-.79.12-1.11.4-.81.79A1.39,1.39,0,0,0,144.15,21.75Z"/><path class="cls-1" d="M71.14,3.14A1.91,1.91,0,0,0,72.85,3a5.12,5.12,0,0,0,1.91-1.9,2,2,0,0,0,.06-.71A1.71,1.71,0,0,0,73.13.1,6.15,6.15,0,0,0,71,1.71C70.35,2.33,70.32,2.79,71.14,3.14Z"/><path class="cls-1" d="M153.87,24.09a1.45,1.45,0,0,0-.86-1.3,5.73,5.73,0,0,0-2.71-.42,2.12,2.12,0,0,0-1.57.76,2.28,2.28,0,0,0,1.6.83C151.51,24,152.69,24.05,153.87,24.09Z"/><path class="cls-1" d="M183.52,31.86a6.08,6.08,0,0,0,2.7.42,2.12,2.12,0,0,0,1.63-.71,2.55,2.55,0,0,0-1.59-.77c-1.18-.1-2.36-.18-3.55-.26A1.4,1.4,0,0,0,183.52,31.86Z"/><path class="cls-1" d="M52.82,8.68a16.79,16.79,0,0,0,1.88-.07c.86-.13,1.14-.58.78-1.15a3.33,3.33,0,0,0-3-1.92,1.66,1.66,0,0,0-1.62.73A1.61,1.61,0,0,0,51.14,8,1.77,1.77,0,0,0,52.82,8.68Z"/><path class="cls-1" d="M207.16,38.29c1.33.12,2.67.19,4,.27-.36-1-.76-1.49-1.44-1.55-1.34-.12-2.68-.2-4-.29C206,37.73,206.45,38.23,207.16,38.29Z"/><path class="cls-1" d="M182.71,30.54c0-.05,0-.1,0-.15h-.15c0,.05,0,.1,0,.15Z"/><path class="cls-1" d="M2,9.2A7.27,7.27,0,0,1,6.55,8c10.49.28,21,.47,31.5.42a5,5,0,0,0,2.73-.66,6.51,6.51,0,0,1,3.63-.91,20.89,20.89,0,0,0,2.84-.22c.27,0,.5-.36.76-.56-.16-.18-.27-.43-.47-.52a8.9,8.9,0,0,0-3.72-.53Q28.54,4.7,13.27,4.38L0,4.09V9.73H.23A3,3,0,0,0,2,9.2Z"/><path class="cls-1" d="M212.3,40a6.58,6.58,0,0,0,2.7.43,2,2,0,0,0,1.54-.73,2.52,2.52,0,0,0-1.62-.77l-3.51-.19A1.44,1.44,0,0,0,212.3,40Z"/><path class="cls-1" d="M205.49,36.55a1.44,1.44,0,0,0-.88-1.3,5.93,5.93,0,0,0-2.73-.44,2.12,2.12,0,0,0-1.58.76,2.58,2.58,0,0,0,1.63.81C203.12,36.46,204.31,36.5,205.49,36.55Z"/><path class="cls-1" d="M211.41,38.75a1,1,0,0,1,0-.17l-.22,0,.06.18Z"/><path class="cls-1" d="M191.89,34.13c.63.13,1.27.16,2,.24.56,0,1.2,0,1.84,0a2,2,0,0,0,1.7-.71,2.38,2.38,0,0,0-1.57-.81,30.52,30.52,0,0,0-3.82-.17c-.79,0-1.16.56-.92.94A1.33,1.33,0,0,0,191.89,34.13Z"/><path class="cls-1" d="M155.57,25.91l5.92.25c-.31-1-.75-1.5-1.52-1.55-2-.13-3.92-.23-5.87-.34C154.45,25.3,154.93,25.88,155.57,25.91Z"/><path class="cls-1" d="M161.69,26.31s0-.09,0-.14h-.18a.88.88,0,0,0,0,.15Z"/><path class="cls-1" d="M163.46,27.93c1.85.22,3.73.31,5.6.44a3.87,3.87,0,0,1,1.73.63,5.26,5.26,0,0,0,2.55,1.06c3.07.09,6.14.21,9.21.32a1.29,1.29,0,0,0-1-1.26,15.75,15.75,0,0,0-2.73-.47,8.69,8.69,0,0,1-4.38-1.37,3.33,3.33,0,0,0-1.77-.52l-11-.45A1.86,1.86,0,0,0,163.46,27.93Z"/><path class="cls-1" d="M154,24.16l-.09.09.21,0c0-.06,0-.11-.07-.17h-.16a1,1,0,0,1,0,.16Z"/></g></g></svg>