<svg xmlns="http://www.w3.org/2000/svg" viewBox="0 0 582.13 599.62"><defs><style>.cls-1{fill:#afd691;}</style></defs><g id="Layer_2" data-name="Layer 2"><g id="Layer_1-2" data-name="Layer 1"><path class="cls-1" d="M412.29,124.58a1,1,0,0,1,0-.17l-.17,0a1.34,1.34,0,0,1,0,.2Z"/><path class="cls-1" d="M413.09,125.8c.07,0,.46-.39.42-.46a1.35,1.35,0,0,0-1.22-.76A1.37,1.37,0,0,0,413.09,125.8Z"/><path class="cls-1" d="M580.68,564.83c.12-3.2.12-6.4.09-9.59a3.88,3.88,0,0,0-.59-1.78,6.8,6.8,0,0,1-.85-3.66c.17-7,.29-14.07.47-21.11a5.42,5.42,0,0,0-.86-2.69,3.81,3.81,0,0,1-.54-1.81c.05-4.15.1-8.31.12-12.46a3.64,3.64,0,0,0-.32-1.85c-1.29-2-1.12-4.26-1.08-6.49.07-3.2.09-6.39.13-9.59a4.23,4.23,0,0,0-.52-1.82,6,6,0,0,1-.93-2.68c0-2.24-.06-4.47-.06-6.71a3.65,3.65,0,0,0-.38-1.85,8.53,8.53,0,0,1-1.1-4.57c.07-2.56,0-5.12,0-7.68a4.18,4.18,0,0,0-.57-1.79,7,7,0,0,1-.88-3.66c0-.64-.08-1.28-.08-1.92a3.34,3.34,0,0,0-.49-1.82,6.79,6.79,0,0,1-1.09-3.61c0-1.28,0-2.56,0-3.84a6.12,6.12,0,0,0-.35-1.85,42.41,42.41,0,0,0-1.9-4.37,8.15,8.15,0,0,1-1.05-3.63,3.63,3.63,0,0,0-.44-1.82,8.76,8.76,0,0,1-1.23-5.49c.06-.95,0-1.91,0-2.87a3.44,3.44,0,0,0-.62-1.78,6.07,6.07,0,0,1-1-3.63c0-.64,0-1.28,0-1.92a3.16,3.16,0,0,0-.43-1.84,7.6,7.6,0,0,1-1.14-4.55,7.08,7.08,0,0,0-1.21-4.53,3.07,3.07,0,0,1-.44-1.82c0-1.6,0-3.2,0-4.79a3.08,3.08,0,0,0-.5-1.82,6.14,6.14,0,0,1-1.09-3.6,8.72,8.72,0,0,0-1.19-5.5,4.33,4.33,0,0,1-.45-1.82c-.08-.63,0-1.28,0-1.92,0-1.53,0-1.54-1-3.58-.69-1.42-1-3-1.9-4.36a2.91,2.91,0,0,1-.41-1.83c0-.64,0-1.28,0-1.92,0-1.49,0-1.5-1.1-3.57a4.12,4.12,0,0,1-.56-1.8,6.71,6.71,0,0,0-1-3.64,5.29,5.29,0,0,1-.83-2.7,7,7,0,0,0-.67-2.76c-.71-1.42-1.25-2.92-2-4.31a8.38,8.38,0,0,1-.82-3.69,3.3,3.3,0,0,0-.65-1.76,5.61,5.61,0,0,1-1-3.61,2.88,2.88,0,0,0-.47-1.82,7.59,7.59,0,0,1-1.32-4.5,2.71,2.71,0,0,0-.66-1.76c-.6-.74-1.25-1.45-1.82-2.22a4.59,4.59,0,0,1-.95-2.64,4.88,4.88,0,0,0-.62-2.76,6.09,6.09,0,0,1-1.09-3.59,14.47,14.47,0,0,0-.16-2.87,3.25,3.25,0,0,0-.78-1.71c-1.67-1.59-2.4-3.69-3.4-5.67-.87-1.7-1.34-3.59-2.48-5.15-.34-1.93-1.63-3.44-2.31-5.24s-1.5-3.49-2.3-5.22a44.24,44.24,0,0,1-2.45-5.17c-.57-1.86-1.87-3.33-2.37-5.2a5.51,5.51,0,0,0-.86-1.69c-.91-1.3-2.1-2.37-2.62-4a25.12,25.12,0,0,0-1.94-4.34c-1.22-2.25-2.14-4.63-3.3-6.89a10.5,10.5,0,0,0-1.3-2.54c-1.57-1.66-2.38-3.75-3.39-5.73a32.69,32.69,0,0,0-3.3-5.8,27.76,27.76,0,0,1-2.28-4.16c-1.92-1.81-2.51-4.41-3.92-6.53-.58-2.17-2-4-2.67-6.12-1.38-1.75-2.77-3.51-4.16-5.25a5.27,5.27,0,0,1-.81-1.73,5,5,0,0,0-.84-1.69c-1.21-1.48-2.62-2.82-3.05-4.8a16.47,16.47,0,0,0-4.44-5,13.65,13.65,0,0,0-1.75-.72,1.77,1.77,0,0,1-.89-1.45,1.68,1.68,0,0,1-1.21-.75c-.31-.49,0-.83,1.21-1.25-.42-1.75-1.64-3.14-2.23-4.83a6.15,6.15,0,0,0-2.33-2.71,2,2,0,0,0-.79-.24c-.53,1.19-.87,1.49-1.32,1.15A1.67,1.67,0,0,1,474,219a2,2,0,0,1-1.7-1.95l1.76-.05a5.19,5.19,0,0,0-1.41-4.28c-1.54-1.63-3-3.34-4.44-5a4.54,4.54,0,0,1-1.1-1.56c-.73-2.62-2.87-4.17-4.5-6.11-.61-.74-1.3-1.41-1.94-2.13a14.42,14.42,0,0,0-3.78-2.87,6.79,6.79,0,0,1-3.08-3.56,4.16,4.16,0,0,0-1.87-2.06,13.48,13.48,0,0,1-5.67-6.29,2.5,2.5,0,0,0-1.23-1.4,4.81,4.81,0,0,1-2.49-2.73,10,10,0,0,0-1.56-2.39c-1-1.23-2.13-2.39-3.22-3.56q-5.87-6.33-11.74-12.67c-1.51-1.63-3.22-3.13-3.78-5.44a2.39,2.39,0,0,0-.49-.82,70.79,70.79,0,0,0-9.29-9.67,2.52,2.52,0,0,0-.82-.49,11.2,11.2,0,0,1-3.74-2.92c-.91-.9-1.85-1.76-2.77-2.64-2.81-1.05-4.6-3.38-6.68-5.35a7.18,7.18,0,0,0-.74-.6c-1-.72-2.32-1.06-3.23-2-1.11-1.15-2.22-2.3-3.37-3.42a7.76,7.76,0,0,0-2.43-1.49,4.76,4.76,0,0,1-1.55-1.08c-1.8-1.82-3.52-3.73-5.33-5.53-1.35-1.35-2.59-2.85-4.5-3.5a2.54,2.54,0,0,1-.78-.54c-1.39-1.32-2.72-2.71-4.18-3.95-1.69-1.44-3.92-2.13-5.4-3.89a6.08,6.08,0,0,0-2.39-1.57,5.66,5.66,0,0,1-1.58-1c-1.18-1.08-2.35-2.17-3.44-3.34s-2.79-1.53-4-2.59A22.6,22.6,0,0,0,352.65,96c-1.08-.67-2.2-1.3-3.31-1.9a18.29,18.29,0,0,1-4.74-3.17,8.3,8.3,0,0,0-2.41-1.53c-1.71-.85-3.36-1.81-5-2.74-2-1.08-3.84-2.29-5.85-3.23-1.73-.82-3.3-1.91-5.05-2.7-2-.92-3.84-2.26-5.79-3.34-1.67-.92-3.42-1.69-5.09-2.61-2-1.07-3.81-2.35-5.81-3.3-1.74-.82-3.29-1.94-5-2.74s-3.36-1.81-5-2.75-3.25-2-5-2.81-3.29-1.94-5-2.73-3.37-1.79-5-2.71-3.27-2-5-2.78c-2.3-1-4.36-2.7-7-2.84a17.55,17.55,0,0,0-6.21-2.31c-1.31-.93-2.85-1.45-4.2-2.27a13.18,13.18,0,0,0-4.43-1.72,5.62,5.62,0,0,1-1.71-.78,8.06,8.06,0,0,0-3.61-1.17c-.32,0-.64-.07-1-.08a7,7,0,0,1-3.56-1.25c-1.1-.72-2.46-.64-3.65-1.07s-2.25-1.16-3.42-1.65a6.82,6.82,0,0,0-1.88-.37A3.47,3.47,0,0,1,237,38.7a7.62,7.62,0,0,0-3.55-1.31,3.9,3.9,0,0,1-1.79-.57,9.42,9.42,0,0,0-5.39-1.68,7,7,0,0,1-3.52-1.36c-.79-.52-1.68-.88-2.47-1.41a1.42,1.42,0,0,1-.42-1.71,1.92,1.92,0,0,1,1.22-1.28,3,3,0,0,1,.94-.14c1.47,0,1.47,0,3.55,1.11.94.52,1.34.41,2.4-.71a1.72,1.72,0,0,0,.47-.81c.1-.56-.3-1-1.07-1.06-2.88-.1-5.75-.27-8.61-.61a2.65,2.65,0,0,0-3,1.77c-.52,1.22-1.08,1.7-2,1.8a8,8,0,0,1-4.69-.47,12.6,12.6,0,0,0-5.44-1.64,7.28,7.28,0,0,1-3.57-1.23,8,8,0,0,0-3.7-.85,7.37,7.37,0,0,1-3.6-1.13,5.3,5.3,0,0,0-2.68-.93c-.63,0-1.27-.11-1.91-.16-1.27-.11-2.55-.27-3.82-.33a8.22,8.22,0,0,1-3.56-1.28c-1.16-.65-2.47-.56-3.73-.77a6.13,6.13,0,0,1-2.73-.74,6.74,6.74,0,0,0-3.54-1.31c-2.24-.13-4.47-.34-6.7-.41a9,9,0,0,1-4.45-1.54,7,7,0,0,0-2.77-.67,3.86,3.86,0,0,1-1.76-.69,6.63,6.63,0,0,0-3.56-1.27l-13.42-.73a3.35,3.35,0,0,1-1.8-.52,8.48,8.48,0,0,0-4.48-1.5c-1.91-.1-3.82-.24-5.74-.39a3.81,3.81,0,0,1-1.72-.77,5.44,5.44,0,0,0-2.62-1.07c-1.6-.08-3.19-.27-4.78-.35A5.49,5.49,0,0,1,114.5,8.9a3.39,3.39,0,0,0-2.73-.41c-.61.16-1.17.71-1.76.7a4.15,4.15,0,0,1-1.68-.77,4.25,4.25,0,0,0-1.83-.48c-3.51-.21-7-.46-10.53-.66a3.15,3.15,0,0,1-1.78-.63,6.33,6.33,0,0,0-3.52-1.33L83,5a5.32,5.32,0,0,1-2.64-1,5.55,5.55,0,0,0-2.69-.92c-2.55-.13-5.11-.39-7.66-.41-5.76,0-11.51-.49-17.26-.74A8.2,8.2,0,0,1,49.19.68,4.9,4.9,0,0,0,44.58.49,11.67,11.67,0,0,1,39,1.54a4.62,4.62,0,0,0-2.73.7,1.4,1.4,0,0,1-1.72.16,4.92,4.92,0,0,0-1.69-.86A47,47,0,0,0,22.35,1.2a10.24,10.24,0,0,0-2.63.94A11.57,11.57,0,0,0,17.1,1,43.67,43.67,0,0,0,7.54.64a4.65,4.65,0,0,0-1.82.52A9.52,9.52,0,0,1,2.09,2.27a5.46,5.46,0,0,0-1.84.45L0,2.83V599.62H581.58a7.68,7.68,0,0,1-.22-2.11c.15-3.19.19-6.39.26-9.59,0-.64,0-1.28,0-1.91-.06-1-.76-1.77-.94-2.68s.66-1.67,1-2.51c.16-3.19.33-6.38.44-9.57a4.06,4.06,0,0,0-.37-1.85A9.49,9.49,0,0,1,580.68,564.83ZM11.51,284.4c-.19,0-.49-.46-.44-.55.4-.72.78-.66,1,.13C11.9,284.14,11.67,284.43,11.51,284.4Zm65.26-9.83c0-.09.34-.27.53-.41.14.19.46.47.41.55C77.32,275.4,77,275.35,76.77,274.57ZM288.62,592.18c-.79-.41-.74-.83.13-1,.11,0,.32.37.49.57C289,591.88,288.72,592.23,288.62,592.18ZM470.83,216c0-.11.44-.53.55-.49a.83.83,0,1,1-.55.49ZM553,437.85c0-.1.37-.3.56-.45.17.2.51.49.47.58C553.65,438.72,553.24,438.67,553,437.85Z"/><path class="cls-1" d="M437.34,149c-.06,0-.48.33-.46.4a1.34,1.34,0,0,0,1.17.86A1.42,1.42,0,0,0,437.34,149Z"/><polygon class="cls-1" points="347.22 77.1 347.9 77.24 347.66 76.65 347.22 77.1"/><path class="cls-1" d="M411.4,123.14c-.1,0-.52.33-.51.37a1.58,1.58,0,0,0,1.21.86A1.21,1.21,0,0,0,411.4,123.14Z"/><polygon class="cls-1" points="407.08 119.45 407.63 119.84 407.74 119.26 407.08 119.45"/><path class="cls-1" d="M452,161.87c.09,0,.55-.32.53-.36a1.52,1.52,0,0,0-1.21-.92A1.26,1.26,0,0,0,452,161.87Z"/><path class="cls-1" d="M474.2,217.09V217h0l-.06.05.06-.05h-.11v.11Z"/><path class="cls-1" d="M481.36,228.88l.11,0v-.13h-.15Z"/><path class="cls-1" d="M482.71,228c0-.55-.54-.87-1.16-1,0,.59-.05,1.19-.07,1.78C482.13,228.82,482.7,228.55,482.71,228Z"/><path class="cls-1" d="M474.13,218.89H474l.12.12Z"/><path class="cls-1" d="M481.55,227v-.19l-.2.08,0,.08Z"/><path class="cls-1" d="M475.92,218.94a1.86,1.86,0,0,0-1.72-1.85c0,.6-.05,1.2-.07,1.8Z"/><path class="cls-1" d="M476,219.1a1.11,1.11,0,0,1,.07-.16h-.16a.68.68,0,0,0,0,.14Z"/><path class="cls-1" d="M474,218.89s0,.05,0,.08l.1,0Z"/><path class="cls-1" d="M461.2,173.71c.06,0,.49-.33.46-.4a1.33,1.33,0,0,0-1.16-.86A1.5,1.5,0,0,0,461.2,173.71Z"/><path class="cls-1" d="M470.51,186.69c-.06,0-.5.36-.47.45a1.29,1.29,0,0,0,1.23.87A1.5,1.5,0,0,0,470.51,186.69Z"/><path class="cls-1" d="M467.82,182.32c0-.06,0-.12,0-.19h-.18a1,1,0,0,1,0,.18Z"/><path class="cls-1" d="M466.87,180.82c-.05,0-.47.36-.44.46a1.27,1.27,0,0,0,1.2.84A1.54,1.54,0,0,0,466.87,180.82Z"/><path class="cls-1" d="M468.49,183.61c.06,0,.5-.32.48-.39a1.3,1.3,0,0,0-1.15-.9A1.51,1.51,0,0,0,468.49,183.61Z"/><path class="cls-1" d="M459.55,170.93c-.06,0-.5.36-.47.44a1.42,1.42,0,0,0,1.23.87A1.6,1.6,0,0,0,459.55,170.93Z"/><path class="cls-1" d="M460.5,172.45a1.11,1.11,0,0,1,0-.19l-.17,0c0,.06,0,.12,0,.18A1,1,0,0,1,460.5,172.45Z"/><path class="cls-1" d="M471.45,188.21c0-.06,0-.12,0-.18l-.17,0c0,.06,0,.12,0,.18Z"/><path class="cls-1" d="M438.05,150.3a1.09,1.09,0,0,1,0,.18l.2,0a1.2,1.2,0,0,1,0-.2Z"/><path class="cls-1" d="M475.08,194.11a1.21,1.21,0,0,1,0-.19,1,1,0,0,1-.17,0c0,.06,0,.11,0,.18Z"/><path class="cls-1" d="M475.76,195.41c.07,0,.52-.33.49-.42a1.22,1.22,0,0,0-1.17-.88A1.42,1.42,0,0,0,475.76,195.41Z"/><path class="cls-1" d="M474.13,192.59c-.06,0-.5.36-.47.46a1.27,1.27,0,0,0,1.24.86A1.48,1.48,0,0,0,474.13,192.59Z"/><path class="cls-1" d="M449.3,164.37c0-.07,0-.13-.05-.2a.76.76,0,0,1-.16,0c0,.07,0,.13,0,.19Z"/><path class="cls-1" d="M472.14,189.52c.05,0,.5-.33.47-.42a1.22,1.22,0,0,0-1.16-.89A1.47,1.47,0,0,0,472.14,189.52Z"/><path class="cls-1" d="M441.76,154.27c0,.06,0,.11,0,.18h.17l0-.13Z"/><path class="cls-1" d="M440.1,152.49a1.82,1.82,0,0,0,1.66,1.78A1.73,1.73,0,0,0,440.1,152.49Z"/><path class="cls-1" d="M447.38,158.36a.49.49,0,0,0,0,.12h.14c0-.05,0-.08,0-.12Z"/><path class="cls-1" d="M450.91,166.1a1.74,1.74,0,0,0-1.61-1.73A2.05,2.05,0,0,0,450.91,166.1Z"/><path class="cls-1" d="M438.26,150.52a1.9,1.9,0,0,0,1.64,1.76A1.83,1.83,0,0,0,438.26,150.52Z"/><path class="cls-1" d="M439.9,152.28a1.1,1.1,0,0,0,0,.18l.18,0c0-.06,0-.11,0-.17Z"/><path class="cls-1" d="M446.69,156.78a5.51,5.51,0,0,0-4.75-2.34,5,5,0,0,0,3.66,3.79,7.47,7.47,0,0,0,1.78.13,3.14,3.14,0,0,0-.16-.82A3.47,3.47,0,0,0,446.69,156.78Z"/><path class="cls-1" d="M451.11,166.33c0-.05,0-.1,0-.16l-.18-.07a1.8,1.8,0,0,1,0,.22Z"/><path class="cls-1" d="M449.28,158.68a17,17,0,0,0-1.75-.19c.47,1.61.68,1.8,2.08,1.88.48,0,1,0,1.45,0C450.57,159.17,450.28,158.86,449.28,158.68Z"/><path class="cls-1" d="M451.89,167.63s.47-.38.43-.48a1.24,1.24,0,0,0-1.21-.82A1.57,1.57,0,0,0,451.89,167.63Z"/><path class="cls-1" d="M448.38,162.82c-.09,0-.55.33-.53.4a1.4,1.4,0,0,0,1.24.92A1.35,1.35,0,0,0,448.38,162.82Z"/><path class="cls-1" d="M451.06,160.39l.06.16.17,0a1.34,1.34,0,0,1,0-.2l-.08.08.08-.08Z"/></g></g></svg>