<svg xmlns="http://www.w3.org/2000/svg" viewBox="0 0 590.29 589.4"><defs><style>.cls-1{fill:#008675;}</style></defs><g id="Layer_2" data-name="Layer 2"><g id="Layer_1-2" data-name="Layer 1"><g id="Layer_2-2" data-name="Layer 2"><g id="Layer_1-2-2" data-name="Layer 1-2"><path class="cls-1" d="M.06,225a4.22,4.22,0,0,0,.53,1.81,7.15,7.15,0,0,1,.93,3.64c0,2.56.06,5.12,0,7.68a5,5,0,0,0,.94,2.67,3.67,3.67,0,0,1,.63,1.77v6.71a7.76,7.76,0,0,0,.29,1.86c.54,2.41.55,2.41,0,3.41A4.46,4.46,0,0,0,3.29,259a8.52,8.52,0,0,1,1.23,4.5,9.06,9.06,0,0,1-1.34,4.51,2.63,2.63,0,0,0,.06,2.72,5.51,5.51,0,0,1,1,2.64c-.08,3.84-.08,7.68-.08,11.52A5.93,5.93,0,0,1,3,288.47a4.51,4.51,0,0,0-.83,2.7c-.06,1.27-.06,2.55-.06,3.83a6.49,6.49,0,0,0,1.12,3.6,3.24,3.24,0,0,1,.53,1.81c0,4.16,0,8.31-.09,12.47a5,5,0,0,0,.8,2.7,5.57,5.57,0,0,1,.75,2.73c0,4.43,0,8.95-.27,13.43a27.86,27.86,0,0,0,.33,7.63c.14.61.69,1.18.69,1.77a4.81,4.81,0,0,1-.66,1.72,3.15,3.15,0,0,0-.34.88c-.24,5.11-.82,10.21-.48,15.33a6.58,6.58,0,0,0,.89,2.7,5.25,5.25,0,0,1,.16,4.59c-.24.59-.82,1.13-.82,1.72a4,4,0,0,0,.69,1.72,4,4,0,0,1,.46,1.84l-.15,17.27c0,2.24,0,4.48-.09,6.71a5.57,5.57,0,0,0,.84,2.72,5.21,5.21,0,0,1-.34,5.43,1.52,1.52,0,0,0,0,1.79,5.6,5.6,0,0,1,.78,2.72q.12,7.2-.24,14.39a6.18,6.18,0,0,1-1.1,2.61A1.49,1.49,0,0,0,5.78,427a3.16,3.16,0,0,1,.64,1.77c.08,1.92.08,3.84.08,5.75a22.26,22.26,0,0,0,.09,3.83,24.58,24.58,0,0,0,1.27,3.55,1.54,1.54,0,0,1,0,.95c-.3.83-.76.83-1.48.47-1.36-.68-1.95-.43-2,.52s-.13,1.87-.13,2.87a5.79,5.79,0,0,0,1,3.61,3.13,3.13,0,0,1,.63,1.78,8.26,8.26,0,0,0,.9,3.68c.52,1,.47,1.07-1.23,1.87-.73.36-1.08.71-.73,1.19a1.83,1.83,0,0,0,.77.51c1.27.67,1.72,1.19,1.77,2A46.63,46.63,0,0,1,7.19,469a3.64,3.64,0,0,1-.67,1.75,1.87,1.87,0,0,0,.09,2.49,3.22,3.22,0,0,1,.56,1.8v2.88q-.15,8.16-.32,16.31a6,6,0,0,1-1,3.61,4.46,4.46,0,0,0-1.09,2.58c-.08,2.56-.19,5.11-.26,7.67a7.61,7.61,0,0,1-1.18,3.59,3.59,3.59,0,0,0-.49,1.83c0,1.28-.15,2.56-.15,3.83-.05,1.67.18,3.08,2.07,3.8,1,.36,1.25,1.25,1.25,2.36v1.92a5.5,5.5,0,0,1-1.28,3.52,2.9,2.9,0,0,0-.67,1.75c-.11,2.24-.22,4.47-.38,6.71a4.51,4.51,0,0,1-.44,1.82A9.66,9.66,0,0,0,2,543.79q-.31,15.84-.66,31.66a7.24,7.24,0,0,0,1,3.66A4.06,4.06,0,0,1,2.77,581v8.45H590.29V5a17.61,17.61,0,0,0-2.42,1,2.87,2.87,0,0,1-2.71-.28,5,5,0,0,0-2.66-1c-1.27,0-2.55-.16-3.83-.24a7.62,7.62,0,0,1-3.59-1.16,4.58,4.58,0,0,0-1.79-.6c-1.91-.15-3.83-.18-5.75-.27a9,9,0,0,0-4.6,1c-1.48.73-2.82.58-4.55-.36A6.46,6.46,0,0,0,552,2.8a4.14,4.14,0,0,1-1.79.6c-1.28.08-2.56.08-3.84.08-5.75-.13-11.51-.32-17.26-.43a10.58,10.58,0,0,1-4.52-1.37,2.72,2.72,0,0,0-2.73.13,6.27,6.27,0,0,1-.86.43c-1.21.53-1.52.63-2.69-.07a6.68,6.68,0,0,0-7.24,0,4.06,4.06,0,0,1-1.84.38,4.26,4.26,0,0,1-2.74-.65,2.16,2.16,0,0,0-2.59-.08,2.05,2.05,0,0,1-.86.4A52.83,52.83,0,0,1,492.53,2C491.29,2,490.39.41,489,1.18c-1,.6-1.77.05-2.61-.32a3,3,0,0,0-2.75,0,7.39,7.39,0,0,1-3.56,1.07c-1-.06-1.88-.06-2.88-.06-5.43-.11-10.86-.23-16.3-.31a5.77,5.77,0,0,0-1.85.39c-.59.21-1.15.76-1.71.79s-1.14-.46-1.73-.64a1.27,1.27,0,0,0-.86.11,2.44,2.44,0,0,1-2.6-.07,5,5,0,0,0-5.41,0,3.7,3.7,0,0,1-4.4-.24,2.81,2.81,0,0,0-.86-.4,1.78,1.78,0,0,0-.94-.07c-.9.26-1.77.59-2.64.9-.57-.3-1.14-.83-1.71-.83-.86,0-1.58,1-2.58.52a10,10,0,0,0-1.68-.88,3.33,3.33,0,0,0-2.69.66,1.22,1.22,0,0,1-1.72-.09,4.61,4.61,0,0,0-2.66-1h-1c-3.19-.09-6.39-.18-9.58-.25a7.16,7.16,0,0,0-3.79.63A5.72,5.72,0,0,1,404.19,1a3.22,3.22,0,0,0-3.59-.1c-.7.4-1.15.6-1.7.2a1.85,1.85,0,0,0-1.75-.35c-1.18.51-2.35,1-3.51,1.51-.58.26-1.15.79-1.72.79a3.53,3.53,0,0,1-1.64-.84,3.4,3.4,0,0,0-1.8-.55c-1.59-.06-3.19-.26-4.79-.26a5.61,5.61,0,0,1-2.64-1,3,3,0,0,0-2.74-.19,8.65,8.65,0,0,1-3.6,1.08c-3.83-.11-7.66.13-11.51-.11-4.14-.23-8.31-.13-12.46-.23a9.15,9.15,0,0,0-4.63,1,1,1,0,0,1-.82-.09,7.43,7.43,0,0,0-3.61-1c-2.56-.15-5.11-.26-7.48,1-1.53-1.23-3-.39-4.44.17-7.66.2-15.33,0-23-.3A5.22,5.22,0,0,1,304.15.62a2.86,2.86,0,0,0-2.73-.24,12.09,12.09,0,0,1-4.61,1.11c-3.84.1-7.68.05-11.52-.07-1.27,0-2.55,0-3.81.06a4.56,4.56,0,0,0-1.81.56,7.4,7.4,0,0,1-3.66.78,8.65,8.65,0,0,1-4.59-1.08c-.89-.5-1.76.41-2.65.34-.6-.05-1.18-.61-1.76-.61a5.76,5.76,0,0,0-1.77.68,3.24,3.24,0,0,1-.91.25,15.41,15.41,0,0,1-1.92.08l-22.07-.3H229.79a5.85,5.85,0,0,0-2.71.86,3.57,3.57,0,0,1-1.79.49l-13.51-.1a6.61,6.61,0,0,0-3.66.94c-.61.39-1,.21-1.69-.2a5.58,5.58,0,0,0-6.31.25,3.22,3.22,0,0,1-1.79.59H187.78a3.66,3.66,0,0,0-1.85.4,8.41,8.41,0,0,1-4.57,1.06c-6.07-.15-12.15-.15-18.23-.15-1.6,0-3.2-.07-4.79,0a5.39,5.39,0,0,0-1.82.53,6.21,6.21,0,0,1-2.72.76c-6.72-.12-13.43-.22-20.15-.35-1.6,0-3.19-.17-4.79-.17q-12.48-.2-25-.35a5,5,0,0,0-2.78.57,6.27,6.27,0,0,1-3.6,1.08c-1.28-.07-2.56-.07-3.84-.07A4.72,4.72,0,0,0,91,9.21a5.14,5.14,0,0,1-2.71.81,4.81,4.81,0,0,0-3.43,1.4,25.42,25.42,0,0,1-2.22,1.81,1.81,1.81,0,0,1-.53.24,2,2,0,0,1-2.47-1.37,21.17,21.17,0,0,0-.37-2.85,1.69,1.69,0,0,0-1.43-1C74,8.1,70.2,7.94,66.36,7.84c-8.31-.21-16.63-.37-24.94-.58a8.27,8.27,0,0,0-4.6,1A3.65,3.65,0,0,1,35,8.78a53.81,53.81,0,0,1-6.72,0c-1.59-.1-3.12-.1-4.79-.1s-3,.39-3.72,2.25c-.49,1.3-1.89,1.44-3.14.62a4.82,4.82,0,0,1-.78-.56,2.32,2.32,0,0,0-2.65-.33c-2.19.9-2.18.95-3.84-.65-.43-.44-.94-.86-1.43-1.27a2.16,2.16,0,0,0-2.62,0A8.57,8.57,0,0,0,4,10.06a4.18,4.18,0,0,0-.85,1.68A36.3,36.3,0,0,0,3,20.33a5,5,0,0,0,.79,1.74,2.76,2.76,0,0,1-.09,2.7,2.74,2.74,0,0,0-.34,2.65,8.36,8.36,0,0,1-.14,7.35,6.08,6.08,0,0,0-.83,2.71L2,55.71a5.66,5.66,0,0,0,.83,2.72,3.78,3.78,0,0,1,.51,1.82c0,2.88,0,5.76-.09,8.63q-.57,31.17-1.21,62.33c-.11,5.44-.25,10.88-.38,16.31a6.41,6.41,0,0,0,.71,2.75c.78,1.77.76,1.77,0,3.52a7.79,7.79,0,0,0-.68,1.77,19.7,19.7,0,0,0-.22,2.87q-.42,15.36-.81,30.7v1A9,9,0,0,0,2,195.62a21.75,21.75,0,0,1-.14,6.69c-.19.9-.93,1.78-1.08,2.61s1,1.57.34,2.62a5.16,5.16,0,0,0-.85,2.71c0,.64-.1,1.28-.1,1.92a5.89,5.89,0,0,0,.89,3.66,2.32,2.32,0,0,1,.19,2.66C-.11,220.5-.06,222.7.06,225Zm72-193,.29-.7.39.63Zm-1.9,3.25.68.3-.62.38Zm-35.79,493c-.3.81-.67.81-1,.08,0-.07.33-.46.49-.48s.36.27.54.42ZM34.07,457c-.28.75-.64.79-1,.15,0-.07.28-.45.45-.47s.36.24.55.38Zm-1.51-11.42c-.35.87-.79.9-1.21.05-.05-.1.37-.43.57-.65l.64.62ZM27.77,528.4l.28-.68.41.61ZM25.61,388.53c-.21-.2-.57-.42-.59-.6s.34-.42.54-.63l.62.58-.57.67ZM11.93,19.94a1.79,1.79,0,0,1-1.64,1.61c0-.55.08-1.1.08-1.66a1.68,1.68,0,0,1,.87-1.54A1.46,1.46,0,0,1,11.93,19.94ZM6.27,172.11a3.14,3.14,0,0,1-.6.66c-.19-.25-.49-.49-.55-.77a23.14,23.14,0,0,1-.19-5.7q.42-22.08.86-44.08a5.29,5.29,0,0,0-.78-2.7,3.81,3.81,0,0,1-.44-.85A2.7,2.7,0,0,1,4.93,116a1.6,1.6,0,0,0,.44-1.69,7.51,7.51,0,0,1-1-3.62c.24-9.9.49-19.8.69-29.7a8.25,8.25,0,0,1,1.42-4.47,4.79,4.79,0,0,0,.37-3.69A5.32,5.32,0,0,0,6,71.14a2.45,2.45,0,0,1-.07-2.7A8.75,8.75,0,0,0,7.28,64c0-2.24.09-4.47.17-6.71a6.78,6.78,0,0,0-1.12-3.57,2.15,2.15,0,0,1,0-2.67,7.1,7.1,0,0,0,1.32-3.5q.36-12,.78-24A1.89,1.89,0,0,1,9.36,22a2.57,2.57,0,0,1,.78-.21v7.48A3.07,3.07,0,0,0,10.77,31a5.61,5.61,0,0,1,1,3.61c-.07,1.28-.21,2.55-.21,3.83a3.28,3.28,0,0,1-.54,1.8,6.47,6.47,0,0,0-1.29,3.52c-.07,2.88-.2,5.75-.28,8.62C9.15,63.58,9,74.76,8.79,85.93c-.39,19.16-.91,38.32-1.39,57.48-.22,8.62-.48,17.24-.73,25.86A7.2,7.2,0,0,1,6.27,172.11Zm0,7.44a15.27,15.27,0,0,1-.1,1.8,1.19,1.19,0,0,1-.54.7c-.36.2-1-.06-1-.8a37.56,37.56,0,0,1,.09-4.5A1.18,1.18,0,0,1,5.3,176c.41-.25.9.05,1,.81a17.38,17.38,0,0,1,0,2.7h0ZM6,194.2a2.67,2.67,0,0,1-.78,1.6,1.94,1.94,0,0,1-.84-1.54c0-2.12-.25-4.27.36-6.36.08-.27.38-.47.59-.7a4.78,4.78,0,0,1,.54.65A3.3,3.3,0,0,1,6.09,190C6,192.36,6,193.28,6,194.2ZM5.05,295l-.29.74L4.38,295Zm-.68-82.23a1.07,1.07,0,0,1-.32-1.48c.11-.28.26-.64.49-.74.5-.18.83.21.91,1a3.05,3.05,0,0,1-.17.9,1.08,1.08,0,0,1-.61.45A.81.81,0,0,1,4.37,212.75Z"/></g></g></g></g></svg>