<svg xmlns="http://www.w3.org/2000/svg" viewBox="0 0 63.64 2191.11"><defs><style>.cls-1{fill:#fff;}</style></defs><g id="Layer_2" data-name="Layer 2"><g id="Layer_1-2" data-name="Layer 1"><g id="Layer_2-2" data-name="Layer 2"><g id="Layer_1-2-2" data-name="Layer 1-2"><g id="Layer_2-2-2" data-name="Layer 2-2"><g id="Layer_1-2-2-2" data-name="Layer 1-2-2"><path class="cls-1" d="M63.64,0H18.45c.64,3.05,2.54,6,3.7,9a10.82,10.82,0,0,1-1,10.11A18.37,18.37,0,0,0,17.42,29c-.07,4.74-.6,9.52-.89,14.3A28.76,28.76,0,0,1,12.2,56.72,16.54,16.54,0,0,0,10,63.4c-.56,7.13-.67,14.29-1,21.46A33.63,33.63,0,0,0,12.69,102c2.73,5.53,2.17,10.53-1.34,17a24,24,0,0,0-.9,23.81,15.41,15.41,0,0,1,2.24,6.68c.3,4.77.3,9.55.3,14.33-.48,21.45-1.19,43-1.6,64.4a39.71,39.71,0,0,1-5.18,16.87A10.13,10.13,0,0,0,6.7,255.3a25.27,25.27,0,0,1,1.6,3.21c2,4.51,2.36,5.67-.26,10a25,25,0,0,0,0,27,15.63,15.63,0,0,1,1.42,6.87A16.34,16.34,0,0,1,7,312.6a8,8,0,0,0-.3,9.66,8.28,8.28,0,0,1,1.49,3.21,200.42,200.42,0,0,1-.67,39.26c-.34,4.63-6.08,8-3.21,13.13,2.24,3.81.19,6.61-1.2,9.74a11.21,11.21,0,0,0,0,10.27,27.75,27.75,0,0,1,4,13.28c-.23,3.58-.23,7-.23,10.75-.41,20.26-.85,40.52-1.15,60.82a20.41,20.41,0,0,0,1.45,6.9c.79,2.2,2.84,4.29,3,6.38s-1.72,4.26-2.39,6.46a4.59,4.59,0,0,0,.41,3.21,9.22,9.22,0,0,1-.26,9.7,18.68,18.68,0,0,0,0,20.19A13.81,13.81,0,0,1,7.09,552a9.82,9.82,0,0,0-1.5,3.21,6.42,6.42,0,0,0-.26,3.5c1,3.36,2.2,6.61,3.36,9.86-1.12,2.12-3.1,4.25-3.1,6.38,0,3.21,3.73,5.89,1.94,9.62a35.64,35.64,0,0,0-3.28,6.27,12.25,12.25,0,0,0,2.46,10,4.59,4.59,0,0,1-.33,6.42,17,17,0,0,0-3.74,9.92v3.74c-.33,11.9-.67,23.84-.93,35.74a26.42,26.42,0,0,0,2.35,14.15,21.39,21.39,0,0,1-.22,23.54,11.94,11.94,0,0,0-.37,13.4c1.49,2.61,2.23,4.29.74,6.34a6.74,6.74,0,0,0-1.3,6.53c1.9,4.41,3.69,8.77,5.63,13.1,1,2.16,3,4.29,3,6.42a14,14,0,0,1-3.14,6.12,12.4,12.4,0,0,0-2,6.71c-.22,5.94-1,11.91-1,17.88a21.31,21.31,0,0,1-3.73,9.85A11.2,11.2,0,0,0,.91,790.9a32.26,32.26,0,0,1,4,13.44c-.41,14.29.49,28.58-.41,43-.86,15.45-.48,31-.86,46.49a34.19,34.19,0,0,0,3.69,17.28A3.69,3.69,0,0,1,7,914.17a27.54,27.54,0,0,0-3.85,13.47c-.56,9.55-1,19.07,3.74,27.91-4.59,5.71-1.46,11.12.63,16.57.75,28.58,0,57.2-1.12,85.82a19.78,19.78,0,0,1-4.14,9.74,10.53,10.53,0,0,0-.9,10.19,45.54,45.54,0,0,1,4.15,17.24c.37,14.33.18,28.66-.27,43a140.52,140.52,0,0,0,.23,14.22,16.37,16.37,0,0,0,2.09,6.78,27.73,27.73,0,0,1,2.91,13.66,32.79,32.79,0,0,1-4,17.13c-1.87,3.32,1.53,6.56,1.27,9.89-.19,2.23-2.28,4.4-2.28,6.56a20.72,20.72,0,0,0,2.47,6.58,12.45,12.45,0,0,1,.93,3.39,57.25,57.25,0,0,1,.3,7.17Q8.53,1264.8,8,1305.84v39.37a21.47,21.47,0,0,0,3.21,10.11,13.51,13.51,0,0,1,1.83,6.68l-.38,50.42a24.35,24.35,0,0,0,3.55,13.69c1.46,2.28.79,3.88-.74,6.31a20.81,20.81,0,0,0,.93,23.54,12.32,12.32,0,0,1,2.2,6.68V1502a13.36,13.36,0,0,0,1.49,6.91,31.61,31.61,0,0,1,4,17c-.56,22.65-.56,45.34-.56,68,0,6-.26,12,0,17.88a18.82,18.82,0,0,0,2,6.79,23.14,23.14,0,0,1,2.83,10.15c-.45,25.08-.82,50.11-1.3,75.19-.12,6-.64,11.9-.64,17.87q-.75,46.53-1.3,93.11a18.67,18.67,0,0,0,2.12,10.37,23.52,23.52,0,0,1,4,13.43c-.26,4.78-.26,9.56-.26,14.33a17.64,17.64,0,0,0,3.32,10,19.51,19.51,0,0,1,3,10.12,17.85,17.85,0,0,0,5.22,12.8,101.13,101.13,0,0,1,6.75,8.28,7.44,7.44,0,0,1-4.21,11.19,71.89,71.89,0,0,0-10.64,1.39,6.23,6.23,0,0,0-3.62,5.28c-.67,14.29-1.27,28.58-1.64,42.91-.78,31-1.38,62.06-2.16,93.07a30.46,30.46,0,0,0,3.73,17.16,14,14,0,0,1,1.94,6.76,209.69,209.69,0,0,1,0,25.07c-.37,5.94-.37,11.65-.37,17.88s1.45,11.3,8.39,13.91c4.85,1.83,5.37,7.05,2.31,11.71a23.29,23.29,0,0,1-2.11,2.92,8.57,8.57,0,0,0-1.24,9.88c3.36,8.18,3.55,8.14-2.42,14.33-1.64,1.61-3.21,3.51-4.74,5.34-2.2,2.89-2.14,8.76.06,11.64a20.78,20.78,0,0,0,6.9,6.42H63.64"/></g></g></g></g></g></g></svg>